<svg xmlns="http://www.w3.org/2000/svg" xmlns:xlink="http://www.w3.org/1999/xlink" viewBox="0 0 150.65 118.34"><defs><style>.cls-1{fill:#9b9b9b;opacity:0.44;}.cls-2{fill:url(#åçûìßííûé_ãðàäèåíò_17);}.cls-3{fill:#590800;}.cls-4{fill:#9ca000;}.cls-5{fill:#cae7ef;}.cls-12,.cls-6{fill:#fff;}.cls-7{fill:url(#åçûìßííûé_ãðàäèåíò_3);}.cls-8{fill:url(#åçûìßííûé_ãðàäèåíò_3-2);}.cls-9{fill:#8b1229;}.cls-10{fill:#dced00;}.cls-11{fill:#b3cc00;}.cls-12{opacity:0.43;}.cls-13{fill:#7a7a00;}</style><linearGradient id="åçûìßííûé_ãðàäèåíò_17" x1="63.64" y1="3.98" x2="63.64" y2="112.58" gradientUnits="userSpaceOnUse"><stop offset="0" stop-color="#dced00"/><stop offset="1" stop-color="#9ca000"/></linearGradient><linearGradient id="åçûìßííûé_ãðàäèåíò_3" x1="2.94" y1="27.22" x2="17.01" y2="27.22" gradientTransform="matrix(0, 1, -1, 0, 77.68, 29.94)" gradientUnits="userSpaceOnUse"><stop offset="0" stop-color="#a43113"/><stop offset="1" stop-color="#6f160d"/></linearGradient><linearGradient id="åçûìßííûé_ãðàäèåíò_3-2" x1="-169.04" y1="23.21" x2="-154.97" y2="23.21" gradientTransform="matrix(-0.99, -0.13, -0.13, 0.99, -80.69, -3.07)" xlink:href="#åçûìßííûé_ãðàäèåíò_3"/></defs><title>Asset 4</title><g id="Layer_2" data-name="Layer 2"><g id="monsters"><path class="cls-1" d="M150.65,114.13c0,2.32-33.67,4.21-75.22,4.21S.21,116.45.21,114.13s33.68-4.21,75.22-4.21S150.65,111.81,150.65,114.13Z"/><path class="cls-2" d="M95.28,84.83a162.68,162.68,0,0,0,3.46,26.73l-2.71,1S80.48,100.25,65.17,98.84,42.67,110,42.67,110l-2.72,0S28.29,93.31,26.41,66s-1.29-46.06.59-47.6A61.06,61.06,0,0,1,39.76,10l.13-.07A57.2,57.2,0,0,1,67.17,4c23.09.83,33.69,17.08,34.76,20.5S94.57,69.75,95.28,84.83Z"/><path class="cls-3" d="M81.7,66,81,68.73A45,45,0,0,1,66.11,76h0A35.3,35.3,0,0,1,50,76.74C38.37,74.47,35.54,66.56,34.91,61.89a1.16,1.16,0,0,1,0-.13,16.55,16.55,0,0,1-.1-3.43L36,55.85A58.28,58.28,0,0,0,58.38,66,56.75,56.75,0,0,0,81.7,66Z"/><path class="cls-3" d="M99.17,20.31S107,2.83,109.23,3s-4.68,14.76-4.68,14.76,20.7-11.81,23.76-7.1-23.44,9.7-23.44,9.7,12.6,2.31,11.89,4.67-14.84-.47-14.84-.47Z"/><path class="cls-3" d="M70.35,16.93A44.1,44.1,0,0,1,83,21.74C89.26,25.39,91.2,29,91.2,29l-.71-2.88L93,27.28,95.85,24a42.4,42.4,0,0,0-10.74-9.55A45.86,45.86,0,0,0,70.82,9.25l-.29,2.9s1.65.55,3.72,1.32a17.63,17.63,0,0,1,3.47,1.85l-7.13-1.85Z"/><path class="cls-3" d="M58.86,15.28a44.1,44.1,0,0,0-12.6,4.81c-6.3,3.65-8.42,6.46-8.42,6.46l0-2.2-1.61,1.28-2.83-3.3A42.4,42.4,0,0,1,44.1,12.78,46,46,0,0,1,58.39,7.6l.3,2.9S57,11.05,55,11.82a9.93,9.93,0,0,0-2.5,1.23l6.17-1.22Z"/><ellipse class="cls-4" cx="78.97" cy="41.99" rx="17.16" ry="13.16" transform="translate(29.56 116.55) rotate(-84.46)"/><ellipse class="cls-4" cx="48.48" cy="39.89" rx="17.16" ry="13.16" transform="matrix(0.1, -1, 1, 0.1, 4.09, 84.29)"/><ellipse class="cls-5" cx="49.48" cy="39.99" rx="15.25" ry="11.2" transform="translate(4.91 85.38) rotate(-84.46)"/><ellipse class="cls-6" cx="50.01" cy="40.04" rx="14.53" ry="10.67" transform="translate(5.34 85.96) rotate(-84.46)"/><ellipse class="cls-7" cx="50.47" cy="39.91" rx="9.58" ry="7.03" transform="translate(5.87 86.29) rotate(-84.46)"/><ellipse class="cls-3" cx="50.47" cy="40.02" rx="6.85" ry="5.03" transform="translate(5.77 86.39) rotate(-84.46)"/><circle class="cls-6" cx="56.24" cy="39" r="3.98" transform="translate(-11.99 44.32) rotate(-39.2)"/><path class="cls-6" d="M51.38,41.9a1.46,1.46,0,1,1-1.31-1.59A1.46,1.46,0,0,1,51.38,41.9Z"/><path class="cls-5" d="M66.62,40.27c-1.12,8.35,2.94,15.78,9.08,16.61s12-5.28,13.12-13.63-2.94-15.78-9.07-16.61S67.74,31.92,66.62,40.27Z"/><path class="cls-6" d="M66.62,40.27c-1.06,7.95,2.81,15,8.64,15.82s11.44-5,12.51-13-2.81-15-8.64-15.82S67.69,32.32,66.62,40.27Z"/><path class="cls-8" d="M69.81,40.53c-.7,5.24,1.85,9.91,5.7,10.43s7.54-3.32,8.24-8.56S81.91,32.49,78.06,32,70.52,35.29,69.81,40.53Z"/><path class="cls-3" d="M71.77,40.9c-.5,3.75,1.32,7.09,4.08,7.46s5.39-2.37,5.9-6.13-1.33-7.09-4.08-7.46S72.27,37.15,71.77,40.9Z"/><path class="cls-6" d="M79.42,41.82a4,4,0,1,0,4.47-3.42A4,4,0,0,0,79.42,41.82Z"/><path class="cls-6" d="M75.44,43.19a1.46,1.46,0,1,0,1.64-1.25A1.47,1.47,0,0,0,75.44,43.19Z"/><path class="cls-9" d="M66.11,76h0A35.3,35.3,0,0,1,50,76.74C38.37,74.47,35.54,66.56,34.91,61.89a1.16,1.16,0,0,1,0-.13s12,3.75,20.85,8.51S66.11,76,66.11,76Z"/><path class="cls-10" d="M34.8,58.33l-.5,3.17s-.56,11.09,10.53,15.28c17.16,6.47,34.39-5.5,34.39-5.62S81,68.73,81,68.73,61.2,82.08,45.45,75.44C32.65,70,34.8,58.33,34.8,58.33Z"/><path class="cls-4" d="M96,112.58S80.48,100.25,65.17,98.84,42.67,110,42.67,110l-2.72,0S28.29,93.31,26.41,66s-1.29-46.06.59-47.6A61.06,61.06,0,0,1,39.76,10C38.58,10.7,29.15,17.15,29,44.84,28.84,74.38,36.14,92,49.93,94.49s16.15-.32,31.06,6.75C95.69,108.21,96.26,113.6,96,112.58Z"/><path class="cls-3" d="M29.86,16.37S24.29.36,20.64,0s5.3,15.55,5.3,15.55S2.38,5.78.14,10.84,23.7,18.15,23.7,18.15,6.26,19.21,6.26,22,26,21.38,26,21.38Z"/><path class="cls-11" d="M98.27,50.74S104.63,80,105.1,81.53s3.06,2.59,5.07,2.71,4.59-.27,4.68.35-2.92,1-4.72.92a5.55,5.55,0,0,1-2.86-.82A5.13,5.13,0,0,0,110,86.28c2.21.47,4.75-.31,5.08,0s-1.8,1.71-4.57,1.65a7.48,7.48,0,0,1-3.15-.67,4.46,4.46,0,0,0,2.76,1.53c1.91.36,3.45-.27,4,.26S112,90.8,110,90.51s-5.77-3.8-5.77-3.8a14.39,14.39,0,0,1,2,3.48c.18,1-.94,1.79-.94,1.79a10.47,10.47,0,0,0-1.53-3.3c-1.09-1.47-.33-5.8-.42-6.45s-7-17-7-17S97.25,51.6,98.27,50.74Z"/><path class="cls-4" d="M26.45,50.74S20.09,80,19.62,81.53s-3.06,2.59-5.07,2.71S10,84,9.87,84.59s2.92,1,4.72.92a5.55,5.55,0,0,0,2.86-.82,5.13,5.13,0,0,1-2.74,1.59c-2.21.47-4.75-.31-5.08,0s1.8,1.71,4.57,1.65a7.48,7.48,0,0,0,3.15-.67,4.46,4.46,0,0,1-2.76,1.53c-1.91.36-3.45-.27-4,.26s2.15,1.76,4.18,1.47,5.77-3.8,5.77-3.8a14.39,14.39,0,0,0-2,3.48c-.18,1,.94,1.79.94,1.79A10.47,10.47,0,0,1,21,88.68c1.09-1.47.33-5.8.42-6.45s7-17,7-17S27.47,51.6,26.45,50.74Z"/><path class="cls-4" d="M40,109.92s-10.48,1.25-9.85,2.35,8.13-1.18,8.13-1.18-8.66,3.22-8.16,4.16,9.58-3.5,9.58-3.5-6.09,4.36-4.75,5.07S42.67,110,42.67,110Z"/><path class="cls-4" d="M98.74,111.56s8-1.1,8.17-.31-6.48,1-6.48,1,7,.51,7.34,1.64-8.24-.7-8.24-.7,5.42,2.12,4.87,3S96,112.58,96,112.58Z"/><path class="cls-6" d="M79.72,66.74l-1.46,2.12-4.34,6.26-2-6.4L71.72,68l-1.16.63L66.72,70.7l-4.09-3-.22-.16-.31.07-2.21.58L57.72,66.8l-.78-.52-1.88-.22-3.67-.42-.47-1-.16-.33-1.08-.14-4.76-.57-.83-1.76-.23-.51-.46.19-7.1,3,.61-6.19L37,57.21s3.5,3.45,15.27,7.36A56.08,56.08,0,0,0,79.72,66.74Z"/><path class="cls-5" d="M79.72,66.74l-1.46,2.12c-1.07,0-3.28,0-6.31-.14L71.72,68l-1.16.63c-2.3-.16-5-.44-7.93-.88l-.22-.16-.31.07-1.44-.23c-1-.16-1.94-.38-2.94-.62l-.78-.52-1.88-.22c-1.39-.41-2.79-.89-4.14-1.39l-.16-.33-1.08-.14c-2-.76-3.9-1.57-5.59-2.33l-.23-.51-.46.19c-3.85-1.77-6.49-3.22-6.49-3.22L37,57.21s3.5,3.45,15.27,7.36A56.08,56.08,0,0,0,79.72,66.74Z"/><path class="cls-6" d="M37.38,68.87,41,66.16l-.4,6.46A23.13,23.13,0,0,1,37.38,68.87Z"/><path class="cls-6" d="M58.23,77.14l2.07-5.29,1.91,4.69A16.33,16.33,0,0,1,58.23,77.14Z"/><polygon class="cls-4" points="71.72 73.56 71.19 77.34 73.67 74.32 73.24 72.9 71.72 73.56"/><path class="cls-12" d="M95.2,54.43c-1-.47-3.68,11-3.68,21.51s.58,20.3,1.41,20.3c1.24,0,0-11.32.54-21.75S96.21,54.9,95.2,54.43Z"/><path class="cls-12" d="M95.71,48.41c-.44,2.22-.47,4.08-.08,4.16s1.07-1.65,1.51-3.87.48-4.08.09-4.16S96.15,46.2,95.71,48.41Z"/><path class="cls-10" d="M37.16,82.54c.77,3.15.37,6-.89,6.27s-2.91-2-3.68-5.15-.37-6,.89-6.27S36.39,79.39,37.16,82.54Z"/><path class="cls-13" d="M37.68,82.41c.77,3.15.38,6-.89,6.27s-2.91-2-3.68-5.15-.37-6,.9-6.27S36.92,79.26,37.68,82.41Z"/><path class="cls-10" d="M85.68,77.36c-.22,2.59.44,4.76,1.48,4.85s2-1.94,2.27-4.53S89,72.92,88,72.84,85.9,74.78,85.68,77.36Z"/><path class="cls-13" d="M85.25,77.33c-.22,2.59.44,4.76,1.48,4.85s2-1.94,2.27-4.53-.44-4.76-1.48-4.85S85.47,74.74,85.25,77.33Z"/><path class="cls-10" d="M88.08,86.13c-.14,1.71.3,3.15,1,3.21s1.37-1.28,1.51-3-.29-3.16-1-3.22S88.23,84.41,88.08,86.13Z"/><path class="cls-13" d="M87.8,86.1c-.15,1.72.29,3.16,1,3.22s1.36-1.29,1.51-3-.3-3.15-1-3.21S87.94,84.39,87.8,86.1Z"/><path class="cls-10" d="M40.93,91.24c.39,1.63.19,3.08-.46,3.24s-1.51-1-1.9-2.66-.19-3.08.46-3.23S40.53,89.62,40.93,91.24Z"/><path class="cls-13" d="M41.2,91.18c.39,1.62.19,3.07-.46,3.23s-1.51-1-1.9-2.66-.19-3.07.46-3.23S40.8,89.55,41.2,91.18Z"/><path class="cls-10" d="M36.41,93.07c.28,1.17.14,2.2-.33,2.31s-1.07-.73-1.35-1.89-.14-2.2.32-2.32S36.13,91.91,36.41,93.07Z"/><path class="cls-13" d="M36.6,93c.29,1.16.14,2.19-.33,2.31s-1.07-.74-1.35-1.9-.14-2.2.33-2.31S36.32,91.86,36.6,93Z"/><path class="cls-10" d="M30,73.62c.08,1.23-.26,2.25-.76,2.28s-1-.94-1-2.17.26-2.26.76-2.29S29.88,72.39,30,73.62Z"/><path class="cls-13" d="M30.16,73.61c.07,1.23-.27,2.25-.76,2.28s-.95-.94-1-2.18.27-2.25.76-2.28S30.08,72.38,30.16,73.61Z"/><path class="cls-4" d="M81,61.35s0,2.81,0,5.93a53.93,53.93,0,0,1-.72,7.21s2.59-3.38,2.76-6.91A10,10,0,0,0,81,61.35Z"/><path class="cls-4" d="M39.19,51.56a52.79,52.79,0,0,0-4.06,6.08,72.73,72.73,0,0,0-2.75,6.76s-.63-5.88,1.29-9A9.44,9.44,0,0,1,39.19,51.56Z"/><path class="cls-4" d="M37.38,76.69S41,81,48.48,82.42c8.45,1.6,13.73-.23,13.73-.23s-6,3.33-14.91,1.88C41,83.05,37.38,76.69,37.38,76.69Z"/></g></g></svg>