<svg xmlns="http://www.w3.org/2000/svg" viewBox="0 0 186.01 189.11"><defs><style>.cls-1{fill:#1d262d;}.cls-1,.cls-7{opacity:0.4;isolation:isolate;}.cls-2,.cls-7{fill:#0f3365;}.cls-3{fill:#4d8de4;}.cls-4{fill:#dcee69;}.cls-5,.cls-6{fill:none;stroke:#0f3365;stroke-linecap:round;stroke-linejoin:round;}.cls-5{stroke-width:1.01px;}.cls-6{stroke-width:3.37px;}</style></defs><title>Asset9</title><g id="Layer_2" data-name="Layer 2"><g id="OBJECTS"><path class="cls-1" d="M26.23,174.22c-.12-8.84,35.54-16.53,79.66-17.16s80,6,80.12,14.85-35.54,16.52-79.66,17.16S26.36,183.06,26.23,174.22Z"/><path class="cls-2" d="M52.76,35.49s-4.8-10.15-.45-27c5-19.27,7.43-.18,8.24,3.17a156.24,156.24,0,0,0,6.53,17.85Z"/><path class="cls-2" d="M144.64,36.6s9.7-12.77,5.22-29.21C145-10.51,139.28,16,136.17,21.08s-6.63,10.16-6.63,10.16Z"/><path class="cls-3" d="M34.94,71c-.39-32.21,29.13-52.25,66-52.25s66.85,23.68,66.85,52.88S137.9,124.43,101,124.54C71.75,124.62,35.29,100.24,34.94,71Z"/><path class="cls-3" d="M78,116.25l6.44,47.48S52.34,165.89,45.4,173C40.72,177.72,53,170.64,64,168.3c0,0-10.81,3.76-16.25,9.4-3.05,3.16,11.23-4,21.67-6.84,0,0-12.94,5-17.13,11s7-4.31,23.46-8.39,30.4-4.13,31.48-4.53c1.93-.72-13.18-4.89-13.18-4.89l-7.44-46.23Z"/><path class="cls-3" d="M137.13,113.58,135.23,161s32.18.92,39.39,7.71c4.86,4.58-7.71-2-18.73-3.93,0,0,11,3.33,16.6,8.75,3.17,3-11.37-3.54-21.91-6,0,0,13.13,4.54,17.54,10.36s-7.11-4-23.77-7.48-30.75-1.34-31.84-1.7c-2-.65,13.2-7,13.2-7l1.44-44.77Z"/><path class="cls-3" d="M159.78,87.82l10,18.5S138.89,116.65,139,119.83s2.61,21.45,19.07,20.32c0,0-2.29-1.89-4.79-4.21,0,0,6.78,4,12,1.86l-5-4.27a9.9,9.9,0,0,0,5.21-.12s-10.17-6.64-12.88-12c0,0,12.28-4.2,17.84-6.66s10-4.87,11.44-13.19L177.57,103l-12.48-26.6Z"/><path class="cls-3" d="M20.75,77.65S29.22,73,26,62.13l2.32-17.56s-7.43.36-8.69,13.26c0,0-14.28-7.57-16.42.6C1.73,64.09,4,66.24,4,66.24s-5.49.05-3.56,8.61c1.05,4.64,7,6.73,12.09,4.52,0,0,.68,19,12.66,33.56l.67-6.81L44.24,91.07l-5-9.49L25.93,95.29C24.3,92.22,20.75,77.65,20.75,77.65Z"/><path class="cls-4" d="M95.89,73.63c-10-.91-30.22-13.76-41-11.36S38,81.3,56.62,99s37.18,22.59,51.91,20c10.81-1.91,29.33-8.58,35.75-18.68s13.05-34.78-12.37-30.9S105.93,74.54,95.89,73.63Z"/><path class="cls-5" d="M4,66.34s8.29,2.67,10.65,6.2.23,5.42-1.89,7"/><path class="cls-5" d="M4.09,66.28s11,4.64,13.67-.6c2.19-4.28-1.1-6.42-3.4-8s-7.2-1-7.2-1"/><path class="cls-5" d="M45.57,71.91s-.48,5.62.8,8.24,2.76-4,3.59-6.58,2.54,10.62,4.63,12.26,3.37-8.3,4.49-11.89c0,0,1,11.15,3.44,12.94s4-7.63,6.36-10.47.89,12.42,3.59,15,4.93-6.5,7.25-8,2,12.94,4.56,14.14,4.56-8.16,6.66-11.15,3.44,12.94,6.8,14.06S103,91.67,106,87.41s3.22,9.49,7,13.16,3.74-9.95,4.26-14.59,3.74,11.45,7.26,13.84,6-10.77,6.13-14.88,2.24,5.08,6.21,8.9,3.59-6.14,3.81-10.55S144.93,89.42,147,90s2.84-8.53,2.84-8.53"/><path class="cls-6" d="M66.6,46.61s12.21-13,20.67,3.63"/><path class="cls-6" d="M88.59,34.07s9.79-11.1,23.09,1.21"/><path class="cls-6" d="M111.46,50.24s9.13-11.77,20.78,1.1"/><path class="cls-7" d="M78.63,120.39s3.51,1.23,8.78,2.52l.78,5-8.47.6Z"/><path class="cls-7" d="M127,120.3a37.76,37.76,0,0,0,10-4.13l-.43,10.14a14.05,14.05,0,0,1-9.84,2.58Z"/><path class="cls-7" d="M37.24,83.58a53.2,53.2,0,0,0,4.82,9.34L39.42,95s-4-5-5.21-8.18Z"/><path class="cls-7" d="M152.6,121.44l-2.48-3.58s8.5-2.85,13-.19Z"/><path class="cls-7" d="M162.42,92.65A69.59,69.59,0,0,0,167,80.47l2.88,6.19s-2.2,6.06-6,8.79Z"/><path class="cls-7" d="M20.74,77.63s-5.83,1.45-8.2,1.83a39.6,39.6,0,0,0,.5,4.77,37.49,37.49,0,0,0,8.69-2.64Z"/></g></g></svg>