<?xml version="1.0" encoding="utf-8"?>
<!-- Generator: Adobe Illustrator 22.1.0, SVG Export Plug-In . SVG Version: 6.00 Build 0)  -->
<svg version="1.1" id="Layer_1" xmlns="http://www.w3.org/2000/svg" xmlns:xlink="http://www.w3.org/1999/xlink" x="0px" y="0px"
	 viewBox="0 0 150.6 118.3" style="enable-background:new 0 0 150.6 118.3;" xml:space="preserve">
<style type="text/css">
	.st0{display:none;opacity:0.44;fill:#9B9B9B;enable-background:new    ;}
	.st1{fill:url(#SVGID_1_);}
	.st2{fill:#590800;}
	.st3{fill:#9CA000;}
	.st4{fill:#CAE7EF;}
	.st5{fill:#FFFFFF;}
	.st6{fill:url(#SVGID_2_);}
	.st7{fill:url(#SVGID_3_);}
	.st8{fill:#8B1229;}
	.st9{fill:#DCED00;}
	.st10{fill:#B3CC00;}
	.st11{opacity:0.43;fill:#FFFFFF;enable-background:new    ;}
	.st12{fill:#7A7A00;}
</style>
<title>Asset 4</title>
<g id="Layer_2_1_">
	<g id="monsters">
		<path class="st0" d="M150.6,114.1c0,2.3-33.7,4.2-75.2,4.2s-75.2-1.9-75.2-4.2s33.7-4.2,75.2-4.2S150.6,111.8,150.6,114.1z"/>
		
			<linearGradient id="SVGID_1_" gradientUnits="userSpaceOnUse" x1="63.6424" y1="116.0302" x2="63.6424" y2="7.44" gradientTransform="matrix(1 0 0 -1 0 120)">
			<stop  offset="0" style="stop-color:#DCED00"/>
			<stop  offset="1" style="stop-color:#9CA000"/>
		</linearGradient>
		<path class="st1" d="M95.3,84.8c0.4,9,1.6,17.9,3.5,26.7l-2.7,1c0,0-15.5-12.3-30.9-13.7S42.7,110,42.7,110h-2.7
			c0,0-11.7-16.7-13.5-44S25.1,19.9,27,18.4c3.9-3.3,8.2-6.1,12.8-8.4l0.1-0.1C48.4,5.7,57.7,3.7,67.2,4
			c23.1,0.8,33.7,17.1,34.8,20.5S94.6,69.8,95.3,84.8z"/>
		<path class="st2" d="M81.7,66L81,68.7c-4.5,3.3-9.5,5.8-14.9,7.3l0,0c-5.2,1.5-10.8,1.7-16.1,0.7c-11.6-2.3-14.5-10.2-15.1-14.8
			c0,0,0-0.1,0-0.1c-0.2-1.1-0.2-2.3-0.1-3.4l1.2-2.5c6.7,4.9,14.3,8.4,22.4,10.2C66.1,67.6,74,67.6,81.7,66z"/>
		<path class="st2" d="M99.2,20.3c0,0,7.8-17.5,10.1-17.3s-4.7,14.8-4.7,14.8s20.7-11.8,23.8-7.1s-23.4,9.7-23.4,9.7
			s12.6,2.3,11.9,4.7s-14.8-0.5-14.8-0.5L99.2,20.3z"/>
		<path class="st2" d="M70.3,16.9c4.4,0.9,8.7,2.6,12.7,4.8c6.3,3.6,8.2,7.3,8.2,7.3l-0.7-2.9l2.5,1.2l2.8-3.3
			c-3-3.8-6.6-7-10.7-9.6c-4.4-2.5-9.3-4.3-14.3-5.2l-0.3,2.9c0,0,1.7,0.6,3.7,1.3c1.2,0.5,2.4,1.1,3.5,1.9l-7.1-1.9L70.3,16.9z"/>
		<path class="st2" d="M58.9,15.3c-4.4,0.9-8.7,2.6-12.6,4.8c-6.3,3.6-8.4,6.5-8.4,6.5v-2.2l-1.6,1.3l-2.8-3.3c3-3.8,6.6-7,10.7-9.6
			c4.4-2.5,9.3-4.3,14.3-5.2l0.3,2.9c0,0-1.7,0.6-3.7,1.3c-0.9,0.3-1.7,0.7-2.5,1.2l6.2-1.2L58.9,15.3z"/>
		
			<ellipse transform="matrix(9.654076e-02 -0.9953 0.9953 9.654076e-02 29.5467 116.5564)" class="st3" cx="79" cy="42" rx="17.2" ry="13.2"/>
		
			<ellipse transform="matrix(9.950372e-02 -0.995 0.995 9.950372e-02 4.3679 84.4245)" class="st3" cx="48.8" cy="39.8" rx="17.2" ry="13.2"/>
		
			<ellipse transform="matrix(9.654056e-02 -0.9953 0.9953 9.654056e-02 4.9073 85.3898)" class="st4" cx="49.5" cy="40" rx="15.2" ry="11.2"/>
		
			<ellipse transform="matrix(9.654076e-02 -0.9953 0.9953 9.654076e-02 5.3299 85.97)" class="st5" cx="50" cy="40" rx="14.5" ry="10.7"/>
		
			<linearGradient id="SVGID_2_" gradientUnits="userSpaceOnUse" x1="19.1776" y1="117.1867" x2="33.2376" y2="117.1867" gradientTransform="matrix(0.9953 9.654066e-02 9.654066e-02 -0.9953 13.0675 154.0179)">
			<stop  offset="0" style="stop-color:#A43113"/>
			<stop  offset="1" style="stop-color:#6F160D"/>
		</linearGradient>
		<path class="st6" d="M43.5,39.2c0.5-5.3,4.1-9.2,7.9-8.9c3.9,0.4,6.6,4.9,6.1,10.2s-4.1,9.2-7.9,8.9S43,44.5,43.5,39.2z"/>
		
			<ellipse transform="matrix(9.654066e-02 -0.9953 0.9953 9.654066e-02 5.7702 86.3955)" class="st2" cx="50.5" cy="40" rx="6.8" ry="5"/>
		<circle class="st5" cx="56.2" cy="39" r="4"/>
		<path class="st5" d="M51.4,41.9c-0.1,0.8-0.8,1.4-1.6,1.3c-0.8-0.1-1.4-0.8-1.3-1.6c0.1-0.8,0.8-1.4,1.6-1.3c0,0,0,0,0,0
			C50.9,40.4,51.5,41.1,51.4,41.9z"/>
		<path class="st4" d="M66.6,40.3c-1.1,8.4,2.9,15.8,9.1,16.6s12-5.3,13.1-13.6s-2.9-15.8-9.1-16.6S67.7,31.9,66.6,40.3z"/>
		<path class="st5" d="M66.6,40.3c-1.1,8,2.8,15,8.6,15.8s11.4-5,12.5-13s-2.8-15-8.6-15.8S67.7,32.3,66.6,40.3z"/>
		
			<linearGradient id="SVGID_3_" gradientUnits="userSpaceOnUse" x1="-678.7972" y1="129.3754" x2="-664.7273" y2="129.3754" gradientTransform="matrix(-0.99 -0.13 0.13 -0.99 -605.25 82.21)">
			<stop  offset="0" style="stop-color:#A43113"/>
			<stop  offset="1" style="stop-color:#6F160D"/>
		</linearGradient>
		<path class="st7" d="M69.8,40.5c-0.7,5.2,1.8,9.9,5.7,10.4s7.5-3.3,8.2-8.6s-1.8-9.9-5.7-10.4S70.5,35.3,69.8,40.5z"/>
		<path class="st2" d="M71.8,40.9c-0.5,3.8,1.3,7.1,4.1,7.5s5.4-2.4,5.9-6.1s-1.3-7.1-4.1-7.5S72.3,37.2,71.8,40.9z"/>
		<path class="st5" d="M79.4,41.8c-0.3,2.2,1.2,4.2,3.4,4.5c2.2,0.3,4.2-1.2,4.5-3.4c0.3-2.2-1.2-4.2-3.4-4.5c0,0,0,0,0,0
			C81.7,38.1,79.7,39.6,79.4,41.8z"/>
		<path class="st5" d="M75.4,43.2c-0.1,0.8,0.5,1.5,1.2,1.6c0.8,0.1,1.5-0.5,1.6-1.2c0.1-0.8-0.5-1.5-1.2-1.6c0,0,0,0,0,0
			C76.3,41.8,75.6,42.4,75.4,43.2z"/>
		<path class="st8" d="M66.1,76L66.1,76c-5.2,1.5-10.8,1.7-16.1,0.7c-11.6-2.3-14.5-10.2-15.1-14.8c0,0,0-0.1,0-0.1
			c0,0,12,3.7,20.9,8.5S66.1,76,66.1,76z"/>
		<path class="st9" d="M34.8,58.3l-0.5,3.2c0,0-0.6,11.1,10.5,15.3c17.2,6.5,34.4-5.5,34.4-5.6s1.8-2.4,1.8-2.4s-19.8,13.3-35.5,6.7
			C32.7,70,34.8,58.3,34.8,58.3z"/>
		<path class="st3" d="M96,112.6c0,0-15.5-12.3-30.8-13.7S42.7,110,42.7,110h-2.7c0,0-11.7-16.7-13.5-44S25.1,19.9,27,18.4
			c3.9-3.3,8.2-6.1,12.8-8.4c-1.2,0.7-10.6,7.1-10.8,34.8C28.8,74.4,36.1,92,49.9,94.5s16.2-0.3,31.1,6.8
			C95.7,108.2,96.3,113.6,96,112.6z"/>
		<path class="st2" d="M29.9,16.4c0,0-5.6-16-9.2-16.4s5.3,15.6,5.3,15.6S2.4,5.8,0.1,10.8s23.6,7.3,23.6,7.3S6.3,19.2,6.3,22
			S26,21.4,26,21.4L29.9,16.4z"/>
		<path class="st10" d="M98.3,50.7c0,0,6.4,29.3,6.8,30.8s3.1,2.6,5.1,2.7s4.6-0.3,4.7,0.3s-2.9,1-4.7,0.9c-1,0-2-0.3-2.9-0.8
			c0.7,0.8,1.7,1.4,2.7,1.6c2.2,0.5,4.8-0.3,5.1,0s-1.8,1.7-4.6,1.7c-1.1,0-2.2-0.2-3.2-0.7c0.7,0.8,1.7,1.4,2.8,1.5
			c1.9,0.4,3.4-0.3,4,0.3s-2.1,1.8-4.1,1.5s-5.8-3.8-5.8-3.8c0.8,1.1,1.5,2.2,2,3.5c0.2,1-0.9,1.8-0.9,1.8c-0.3-1.2-0.8-2.3-1.5-3.3
			c-1.1-1.5-0.3-5.8-0.4-6.4s-7-17-7-17S97.3,51.6,98.3,50.7z"/>
		<path class="st3" d="M26.5,50.7c0,0-6.4,29.3-6.8,30.8s-3.1,2.6-5.1,2.7S10,84,9.9,84.6s2.9,1,4.7,0.9c1,0,2-0.3,2.9-0.8
			c-0.7,0.8-1.7,1.4-2.7,1.6c-2.2,0.5-4.8-0.3-5.1,0s1.8,1.7,4.6,1.7c1.1,0,2.2-0.2,3.1-0.7c-0.7,0.8-1.7,1.4-2.8,1.5
			c-1.9,0.4-3.4-0.3-4,0.3s2.1,1.8,4.2,1.5s5.8-3.8,5.8-3.8c-0.8,1.1-1.5,2.2-2,3.5c-0.2,1,0.9,1.8,0.9,1.8c0.3-1.2,0.8-2.3,1.5-3.3
			c1.1-1.5,0.3-5.8,0.4-6.4s7-17,7-17S27.5,51.6,26.5,50.7z"/>
		<path class="st3" d="M40,109.9c0,0-10.5,1.3-9.9,2.3s8.1-1.2,8.1-1.2s-8.7,3.2-8.2,4.2s9.6-3.5,9.6-3.5s-6.1,4.4-4.8,5.1
			s7.7-6.8,7.7-6.8L40,109.9z"/>
		<path class="st3" d="M98.7,111.6c0,0,8-1.1,8.2-0.3s-6.5,1-6.5,1s7,0.5,7.3,1.6s-8.2-0.7-8.2-0.7s5.4,2.1,4.9,3s-8.4-3.6-8.4-3.6
			L98.7,111.6z"/>
		<path class="st5" d="M79.7,66.7l-1.5,2.1l-4.3,6.3l-2-6.4L71.7,68l-1.2,0.6l-3.8,2.1l-4.1-3l-0.2-0.2l-0.3,0.1l-2.2,0.6l-2.2-1.4
			l-0.8-0.5l-1.9-0.2l-3.7-0.4l-0.5-1l-0.2-0.3l-1.1-0.1l-4.8-0.6l-0.8-1.8l-0.2-0.5l-0.5,0.2l-7.1,3l0.6-6.2l0.1-1.1
			c0,0,3.5,3.5,15.3,7.4C61.1,67.6,70.5,68.3,79.7,66.7z"/>
		<path class="st4" d="M79.7,66.7l-1.5,2.1c-1.1,0-3.3,0-6.3-0.1L71.7,68l-1.2,0.6c-2.3-0.2-5-0.4-7.9-0.9l-0.2-0.2l-0.3,0.1
			l-1.4-0.2c-1-0.2-1.9-0.4-2.9-0.6l-0.8-0.5l-1.9-0.2c-1.4-0.4-2.8-0.9-4.1-1.4l-0.2-0.3l-1.1-0.1c-2-0.8-3.9-1.6-5.6-2.3l-0.2-0.5
			l-0.5,0.2c-3.8-1.8-6.5-3.2-6.5-3.2l0.1-1.1c0,0,3.5,3.5,15.3,7.4C61.1,67.6,70.5,68.3,79.7,66.7z"/>
		<path class="st5" d="M37.4,68.9l3.6-2.7l-0.4,6.5C39.4,71.5,38.3,70.2,37.4,68.9z"/>
		<path class="st5" d="M58.2,77.1l2.1-5.3l1.9,4.7C60.9,76.9,59.6,77.1,58.2,77.1z"/>
		<polygon class="st3" points="71.7,73.6 71.2,77.3 73.7,74.3 73.2,72.9 		"/>
		<path class="st11" d="M95.2,54.4c-1-0.5-3.7,11-3.7,21.5s0.6,20.3,1.4,20.3c1.2,0,0-11.3,0.5-21.8S96.2,54.9,95.2,54.4z"/>
		<path class="st11" d="M95.7,48.4c-0.4,2.2-0.5,4.1-0.1,4.2s1.1-1.7,1.5-3.9s0.5-4.1,0.1-4.2S96.2,46.2,95.7,48.4z"/>
		<path class="st9" d="M37.2,82.5c0.8,3.2,0.4,6-0.9,6.3s-2.9-2-3.7-5.2s-0.4-6,0.9-6.3S36.4,79.4,37.2,82.5z"/>
		<path class="st12" d="M37.7,82.4c0.8,3.2,0.4,6-0.9,6.3s-2.9-2-3.7-5.2s-0.4-6,0.9-6.3S36.9,79.3,37.7,82.4z"/>
		<path class="st9" d="M85.7,77.4c-0.2,2.6,0.4,4.8,1.5,4.8s2-1.9,2.3-4.5S89,72.9,88,72.8S85.9,74.8,85.7,77.4z"/>
		<path class="st12" d="M85.3,77.3c-0.2,2.6,0.4,4.8,1.5,4.8s2-1.9,2.3-4.5s-0.4-4.8-1.5-4.8S85.5,74.7,85.3,77.3z"/>
		<path class="st9" d="M88.1,86.1c-0.1,1.7,0.3,3.2,1,3.2s1.4-1.3,1.5-3s-0.3-3.2-1-3.2S88.2,84.4,88.1,86.1z"/>
		<path class="st12" d="M87.8,86.1c-0.2,1.7,0.3,3.2,1,3.2s1.4-1.3,1.5-3s-0.3-3.2-1-3.2S87.9,84.4,87.8,86.1z"/>
		<path class="st9" d="M40.9,91.2c0.4,1.6,0.2,3.1-0.5,3.2s-1.5-1-1.9-2.7s-0.2-3.1,0.5-3.2S40.5,89.6,40.9,91.2z"/>
		<path class="st12" d="M41.2,91.2c0.4,1.6,0.2,3.1-0.5,3.2s-1.5-1-1.9-2.7s-0.2-3.1,0.5-3.2S40.8,89.6,41.2,91.2z"/>
		<path class="st9" d="M36.4,93.1c0.3,1.2,0.1,2.2-0.3,2.3s-1.1-0.7-1.3-1.9s-0.1-2.2,0.3-2.3S36.1,91.9,36.4,93.1z"/>
		<path class="st12" d="M36.6,93c0.3,1.2,0.1,2.2-0.3,2.3s-1.1-0.7-1.3-1.9s-0.1-2.2,0.3-2.3S36.3,91.9,36.6,93z"/>
		<path class="st9" d="M30,73.6c0.1,1.2-0.3,2.3-0.8,2.3s-1-0.9-1-2.2s0.3-2.3,0.8-2.3S29.9,72.4,30,73.6z"/>
		<path class="st12" d="M30.2,73.6c0.1,1.2-0.3,2.3-0.8,2.3s-1-0.9-1-2.2s0.3-2.3,0.8-2.3S30.1,72.4,30.2,73.6z"/>
		<path class="st3" d="M81,61.3c0,0,0,2.8,0,5.9c-0.1,2.4-0.3,4.8-0.7,7.2c0,0,2.6-3.4,2.8-6.9C83.1,65.3,82.4,63.1,81,61.3z"/>
		<path class="st3" d="M39.2,51.6c-1.5,1.9-2.8,4-4.1,6.1c-1,2.2-1.9,4.5-2.8,6.8c0,0-0.6-5.9,1.3-9C35,53.5,36.9,52.1,39.2,51.6z"
			/>
		<path class="st3" d="M37.4,76.7c0,0,3.6,4.3,11.1,5.7c8.5,1.6,13.7-0.2,13.7-0.2s-6,3.3-14.9,1.9C41,83.1,37.4,76.7,37.4,76.7z"/>
	</g>
</g>
</svg>
