<?xml version="1.0" encoding="utf-8"?>
<!-- Generator: Adobe Illustrator 22.1.0, SVG Export Plug-In . SVG Version: 6.00 Build 0)  -->
<svg version="1.1" id="Layer_1" xmlns="http://www.w3.org/2000/svg" xmlns:xlink="http://www.w3.org/1999/xlink" x="0px" y="0px"
	 viewBox="0 0 177.4 193.4" style="enable-background:new 0 0 177.4 193.4;" xml:space="preserve">
<style type="text/css">
	.st0{display:none;opacity:0.4;fill:#1D262D;enable-background:new    ;}
	.st1{fill:#318484;}
	.st2{fill:#4DD233;}
	.st3{fill:none;stroke:#115503;stroke-width:1.01;stroke-linecap:round;stroke-linejoin:round;}
	.st4{fill:#115503;}
	.st5{fill:#DCEE69;}
	.st6{opacity:0.4;fill:#432911;enable-background:new    ;}
	.st7{opacity:0.4;fill:#115503;enable-background:new    ;}
</style>
<title>Asset10</title>
<g id="Layer_2_1_">
	<g id="OBJECTS">
		<path class="st0" d="M11.4,177.4c0-8.8,35.8-16,79.9-16s79.9,7.2,79.9,16s-35.8,16-79.9,16S11.4,186.2,11.4,177.4z"/>
		<path class="st1" d="M93.7,26c0,0,2.9-15,7-21.5s3.9,18.7,3.4,22.5C104.1,27,98.4,30.5,93.7,26z"/>
		<path class="st1" d="M105.7,42c0,0,2.9-15,7-21.5s3.9,18.7,3.4,22.5C116.1,43.1,110.4,46.6,105.7,42z"/>
		<path class="st2" d="M88.2,24.8c26.4-0.2,55.4,2.2,59.8,24.2c5,24.4-7.6,56.1-19.2,72.6c-11.2,15.9-42.6,49.8-70.8,12.3
			c-24.1-32.1-27.9-54.7-28-71.6C29.8,46.7,36,25.1,88.2,24.8z"/>
		<path class="st2" d="M19.9,74.1c0,0-4.9,26.5,17.7,15.9l6,11.7c0,0-26.8,9.9-31.4-3.9c-2.1-6.2-2.6-12.9-1.4-19.4
			c0,0-7.1-1.5-7.5-6.7c0,0-7.2-6.9-0.3-9c0,0-0.1-7.2,6.9-3.8c0,0,2.2-7.3,7.4-2.1c1,1,1.6,2.3,1.9,3.7c0,0,6.7-0.4,7.1,4.8
			C26.8,71.3,24.1,73.1,19.9,74.1z"/>
		<path class="st2" d="M156.8,86.1c0,0,4.9,28.2-22.1,14.5l-5.4,11.7c0,0,31.3,13.8,35.9-2.6c1.8-6.3,2.3-12.9,1.4-19.4
			c0,0,7.1-1.5,7.5-6.7c0,0,7.2-6.9,0.3-9c0,0,0.1-7.2-6.9-3.9c0,0-2.2-7.3-7.4-2.1c-1,1-1.6,2.3-1.9,3.7c0,0-7.4,0.4-7.8,5.5
			C150,83.9,152.7,85.1,156.8,86.1z"/>
		<path class="st2" d="M56.6,130c0.1,11.9,1.9,23.6,5.3,35c0,0-19.9,2-25.3,6.4s18.3-1.6,21.6-2.2c0,0-14.1,6.6-16.4,9.4
			s19.3-7,22.4-8.1c0,0-10.3,5.3-13.2,11.3s16.9-8.4,20.6-11.7c0,0-5.3-23.2-3.6-36L56.6,130z"/>
		<path class="st2" d="M111.1,131.5l1.8,41.3c0,0,13.4,13.6,21,13.7c7.6,0.1-10.2-13-13.7-14.7c0,0,15.7,11,23.1,10.4
			s-12.6-11.3-17.1-12.6c0,0,16.2,5.6,21.8,3.8s-12.9-8.8-23.2-7.6l-2.8-36.8L111.1,131.5z"/>
		<path class="st3" d="M19,60.6c0,0-10.5,2.1-9.5,7.2s6.3-1,8.8-2c0,0-4.6,4.2-3.9,8.4"/>
		<path class="st3" d="M158.4,72.4c0,0,10.5,2.1,9.6,7.2s-6.3-1-8.8-2c0,0,4.6,4.2,3.9,8.4"/>
		<path class="st3" d="M10,58.9l2.8,3.8"/>
		<path class="st3" d="M167.5,70.7l-2.8,3.8"/>
		<path class="st3" d="M3,62.9c2.4,0.4,4.6,1.5,6.3,3.2"/>
		<path class="st3" d="M174.4,74.7c-2.3,0.4-4.5,1.5-6.3,3.2"/>
		<path class="st3" d="M10,69.7c0,0-1,5.3-6.5,2.1"/>
		<path class="st3" d="M167.4,81.6c0,0,1.1,5.2,6.5,2.1"/>
		<path class="st1" d="M77.8,35.1c0,0-2.7-12.7-0.9-25.1c1.4-9.9,5.8-16.2,8.4-0.4S87.7,27,87.7,27L77.8,35.1z"/>
		<path class="st4" d="M71.1,121.1c0-9.3,7.8-16.8,17.4-16.8s17.5,7.5,17.5,16.8s-7.8,16.8-17.4,16.8S71.1,130.3,71.1,121.1z"/>
		<path class="st1" d="M99.1,134.4c0,0-7.9-5.2-14.1-3.7s-14,7.6-19.5,6.3s-8.9-4.7-15.8-8s-9.4,0.7-15.4,0.1s-8.2-1.9-13.8-3.9
			s-13-1.9-13-1.9s8-5.6,11.3-4.6c-2.1-3.6-3.3-7.7-3.5-11.8c0,0,4.6,5.1,8.2,9.2s7.5,5.4,11.4,3.9c4.7-1.6,9.8-1.5,14.4,0.3
			c4.5,1.9,11,7.1,15.2,7.3s9.4-2.5,14-3.4s13.8-6,26.8,1.9C105.2,126.1,103.3,131.7,99.1,134.4z"/>
		<path class="st5" d="M100.5,81.6c0-6.4,5.2-11.6,11.6-11.6c6.4,0,11.6,5.2,11.6,11.6c0,6.4-5.2,11.6-11.6,11.6c0,0,0,0,0,0
			C105.7,93.2,100.5,88,100.5,81.6L100.5,81.6z"/>
		<path class="st5" d="M114,53.6c0-6.4,5.2-11.6,11.6-11.6c6.4,0,11.6,5.2,11.6,11.6s-5.2,11.6-11.6,11.6c0,0,0,0,0,0
			C119.2,65.2,114,60,114,53.6C114,53.6,114,53.6,114,53.6z"/>
		<path class="st5" d="M77.2,58c0-6.4,5.2-11.6,11.6-11.6c6.4,0,11.6,5.2,11.6,11.6c0,6.4-5.2,11.6-11.6,11.6c0,0,0,0,0,0
			C82.4,69.6,77.2,64.4,77.2,58C77.2,58,77.2,58,77.2,58z"/>
		<path class="st5" d="M51.9,83.4c0-6.4,5.2-11.6,11.6-11.6S75.1,77,75.1,83.4c0,6.4-5.2,11.6-11.6,11.6
			C57.1,95,51.9,89.8,51.9,83.4C51.9,83.4,51.9,83.4,51.9,83.4z"/>
		<path class="st5" d="M39.9,54.5c0.1-7,5.9-12.5,12.9-12.4c7,0.1,12.5,5.9,12.4,12.9c-0.1,6.9-5.8,12.4-12.6,12.4
			C45.4,67.3,39.8,61.6,39.9,54.5z"/>
		<path class="st4" d="M98.7,78.5l24.5-6.7l-5.6-7.1L98,72.4L98.7,78.5z"/>
		<path class="st4" d="M112.2,52.3l24.3-8.6l-5.3-7.8l-20.6,10.2L112.2,52.3z"/>
		<path class="st4" d="M87.4,53.4c7.8-0.2,16.8-5,16.8-5s-6.4-7.2-5.4-6.8s-6.1,4.1-11.6,4.5s-10.5-2.8-10.5-2.8L72.9,49
			C72.9,49,79.6,53.6,87.4,53.4z"/>
		<path class="st4" d="M76.7,79l-24.8-2.6l4-8.2l20.9,4.4L76.7,79z"/>
		<path class="st4" d="M66.9,51.2l-28.4-3.8l4.8-9l23.1,6.5L66.9,51.2z"/>
		<path class="st4" d="M109.5,92.9c2.8,0.7,5.8,0.2,8.3-1.3c0,0-5.3-14.4-6.4-14.2s-1.4,5.9-1.7,9.5S109.5,92.9,109.5,92.9z"/>
		<path class="st4" d="M123,64.9c2.8,0.7,5.8,0.2,8.3-1.3c0,0-5.3-14.4-6.4-14.2s-1.4,5.9-1.7,9.5S123,64.9,123,64.9z"/>
		<path class="st4" d="M84.4,68.7c2.5,1.1,5.4,1.3,8,0.4c0,0-3.5-14.5-4.7-14.3s-2.3,4.9-2.5,8.5C85.1,65.1,84.8,66.9,84.4,68.7z"/>
		<path class="st4" d="M60.9,94.7c2.8,0.7,5.8,0.2,8.3-1.3c0,0-5.3-14.4-6.5-14.2s-1.4,5.9-1.7,9.5S60.9,94.7,60.9,94.7z"/>
		<path class="st4" d="M49.7,67.1c2.4,0.5,4.9,0.3,7.2-0.5c0,0-1.5-16.4-2.8-16.2s-3.1,6.3-3.6,10.3C50.1,63.6,49.7,67.1,49.7,67.1z
			"/>
		<path class="st5" d="M91.1,104.5c2.9,0.3,5.6,1.4,7.9,3.2c0,0-3.3,6.8-4.7,7.5S91.1,104.5,91.1,104.5z"/>
		<path class="st5" d="M78.2,107.5c1.8-1.3,3.8-2.3,6-2.7c0,0-1.4,11-2.9,11.4S78.2,107.5,78.2,107.5z"/>
		<path class="st4" d="M45.4,54.9L45.4,54.9z"/>
		<path class="st6" d="M34.6,91.3c0,0,3.5,9.4,4.7,11.7l-6.2,1.3l-3.4-11.9L34.6,91.3z"/>
		<path class="st7" d="M56.7,133c0,0,6.9,8,11.3,11.2l0.1,3.1c0,0-7.1,0.2-10.5-2.9C57.6,144.3,56.6,135.3,56.7,133z"/>
		<path class="st7" d="M111.4,140.5c0,0,2.9-1.3,10.6-10.1l0.6,8.6c-1.9,4.6-5.9,8-10.8,9.1L111.4,140.5z"/>
		<path class="st7" d="M139.3,102.7c0,0-3.6,7.8-5.5,11.2c0,0,2.7,1,4.5,1.5c0,0,3.8-9.4,4.4-11.6L139.3,102.7z"/>
		<path class="st7" d="M95.2,132.3c0,0,4.7-3.3,5.3-5.3c0,0-11.3-5-17.4-4.1c7.5-2.3,15.6-1.1,22.1,3.2c-1,3.4-3.1,6.3-6,8.3
			C97.9,133.6,96.5,132.9,95.2,132.3z"/>
	</g>
</g>
</svg>
