<?xml version="1.0" encoding="utf-8"?>
<!-- Generator: Adobe Illustrator 22.1.0, SVG Export Plug-In . SVG Version: 6.00 Build 0)  -->
<svg version="1.1" id="Layer_1" xmlns="http://www.w3.org/2000/svg" xmlns:xlink="http://www.w3.org/1999/xlink" x="0px" y="0px"
	 viewBox="0 0 210.7 148.8" style="enable-background:new 0 0 210.7 148.8;" xml:space="preserve">
<style type="text/css">
	.st0{display:none;fill:#B52054;}
	.st1{fill:#A5D24A;}
	.st2{opacity:0.5;}
	.st3{fill:#FFFFFF;}
	.st4{fill:#472055;}
	.st5{fill:#0463AC;}
	.st6{opacity:0.2;fill:#FFFAD3;enable-background:new    ;}
	.st7{opacity:0.3;fill:#6FD1DE;enable-background:new    ;}
	.st8{fill:#F52B5D;}
	.st9{opacity:0.5;fill:#A5D24A;enable-background:new    ;}
</style>
<title>Asset15</title>
<g>
	<g id="Layer_2_1_">
		<g id="OBJECTS">
			<g id="_Group_">
				<path id="_Path_" class="st0" d="M210.7,140.1c0,4.8-47.2,8.7-105.3,8.7S0,144.9,0,140.1s47.2-8.7,105.3-8.7
					S210.7,135.3,210.7,140.1z"/>
				<g id="_Group_2">
					<path id="_Path_2" class="st1" d="M34.8,54.9c-4.1,10.8-4.2,22.7-7.2,33.9c-1.3,4.9-3.5,7.8-6,11.9c-0.4,0.6-4.1,9.6-1,8.4
						c-3.8,1.4-7.4,3.4-10.7,5.7c-4.9,3.4-9.5,9.3-7.1,14.7c1.5,3.3,5.2,5.1,8.7,5.4s7.2-0.7,10.7-1.5c1.5-0.5,3.2-0.6,4.8-0.4
						c2,0.4,3.6,1.7,5.3,3c4,3.1,8.8,5.8,13.7,5.1c5.2-0.7,9.8-5.1,14.9-4.2c4,0.8,6.6,4.5,10.1,6.5c4.6,2.7,10.4,2.3,15.4,0.8
						s9.8-4.2,14.8-5.9c6.7-2.2,13.8-2.7,20.7-1.4c5.9,1.1,11.6,3.5,17.6,4.2s12.8-0.5,16.5-5.3c1.1-1.4,2-3.2,3.7-3.8
						c1.1-0.3,2.3-0.3,3.4-0.1c6,0.9,12,1.3,18.1,1.4c5.5,0,12.2-1.1,14.3-6.2c-0.2-0.8-0.9-1.4-1.7-1.4c6.5,0.8,13-5.1,13-11.6
						c0.1-1.5-0.4-3-1.3-4.2c-1.1-1.3-2.9-1.8-4.6-2.2l-10.8-2.8c2.4,0.1,3.8-3,3.1-5.2s-2.9-3.8-4.8-5.1l-7.1-4.8
						c-2.5-1.7-5-3.4-6.6-6c-2.5-4-2.8-9.4-4.5-13.8c-1.4-3.7-2.6-7.4-3.6-11.2c-2.1-8.3-5.1-16.4-8.9-24.1
						c-7.2-14.6-18.6-28.3-35.2-32c-18.5-4.1-37.9-5.2-55,4.3C49.6,17.2,41.6,37,34.8,54.9z"/>
					<g id="_Group_3" class="st2">
						<path id="_Path_3" class="st1" d="M135.6,70.7c1.9-0.8,3.6-1.9,5.1-3.3c1.1-1,2-2.2,2.8-3.5c1.3-2.2,2-4.8,2-7.4
							c0-0.5,0-0.9-0.1-1.4c0-0.1,0-0.3,0-0.4c-0.1-0.3-0.1-0.7-0.2-1c0-0.1,0-0.3-0.1-0.4c-0.1-0.4-0.2-0.9-0.4-1.3v-0.1
							c-0.1-0.4-0.3-0.8-0.4-1.2c-0.1-0.1-0.1-0.3-0.2-0.4c-0.1-0.3-0.3-0.6-0.4-0.9l-0.2-0.4c-0.2-0.4-0.5-0.8-0.7-1.1l-0.1-0.2
							l0,0l-0.4-0.5c-0.1-0.1-0.2-0.3-0.3-0.4v-0.1l-0.3-0.3l-0.2-0.3l-0.3-0.3l-0.3-0.3l-0.1-0.1l-0.3-0.3l-0.5-0.4l-0.2-0.2
							l-0.2-0.1l-0.5-0.4l-0.3-0.2l-0.2-0.2l-0.3-0.2c-0.3-0.2-0.7-0.4-1-0.6l-0.2-0.1c0,0-0.1,0-0.1-0.1l-0.2-0.1
							c-0.3-0.1-0.5-0.2-0.8-0.3l-0.1-0.1l0,0l-0.3-0.1c-0.4-0.2-0.8-0.3-1.3-0.5h-0.2c-0.4-0.1-0.8-0.2-1.2-0.3h-0.3
							c-0.5-0.1-0.9-0.2-1.4-0.2H131c-0.5,0-1-0.1-1.5-0.1h-0.6c2.2-0.3,4.3-0.3,5.9-0.4c1.1-0.1,2.2,0.1,3.2,0.4
							c0.3,0.1,0.6,0.2,0.8,0.3l0.3,0.2l-0.2-0.2c-0.2-0.2-0.5-0.4-0.8-0.5c-1-0.5-2.1-0.9-3.3-1c-1.7-0.2-3.3-0.3-5-0.3
							c-2.1,0-4.2,0.3-6.2,0.9c-2.1,0.6-4,1.6-5.7,2.9c-0.9,0.8-1.7,1.6-2.5,2.5h-2.2c-1.2,0-2.7,0-4.3-0.2c4.4-0.1,8-3.6,8.1-8.1
							c0-0.4,0-0.7-0.1-1.1c0-0.1,0-0.2,0-0.3c-0.1-0.3-0.1-0.7-0.2-1l0,0c-0.1-0.3-0.2-0.7-0.4-1l-0.1-0.2
							c-0.2-0.3-0.3-0.6-0.5-0.9l0,0l-0.1-0.1l0,0c0,0,0,0,0-0.1c-0.2-0.2-0.3-0.4-0.5-0.6c0,0-0.1-0.1-0.1-0.1l-0.1-0.1l-0.4-0.4
							l-0.2-0.2l-0.1-0.1l0,0l-0.4-0.3l-0.2-0.1l-0.3-0.2l-0.2-0.1l-0.3-0.2h-0.1l-0.5-0.3l0,0l0,0l-0.2-0.1l-0.3-0.1l-0.6-0.2
							l-0.3-0.1c-0.2,0-0.4-0.1-0.7-0.1h-0.3c-0.3,0-0.7-0.1-1-0.1c-0.4,0-0.7,0-1.1,0.1h-0.3c-0.3,0-0.6,0.1-0.9,0.2h-0.2
							c-0.3,0.1-0.7,0.2-1,0.4l-0.2,0.1c-0.3,0.1-0.5,0.3-0.8,0.4l-0.4,0c-0.3,0.2-0.6,0.4-0.8,0.6l-0.2,0.1
							c-0.2,0.2-0.4,0.4-0.6,0.6l-0.2,0.2c-0.2,0.3-0.4,0.5-0.6,0.8l-0.1,0.1c-0.2,0.3-0.3,0.5-0.5,0.8c0,0,0,0.1,0,0.1l0,0l0,0l0,0
							v0.1c-0.1,0.2-0.1,0.3-0.2,0.5s-0.1,0.2-0.1,0.3s-0.1,0.3-0.2,0.5s-0.1,0.2-0.1,0.3c0,0.2-0.1,0.4-0.1,0.6c0,0.1,0,0.2,0,0.3
							c0,0.3,0,0.6,0,0.9c0,3,1.7,5.7,4.3,7.1c-1.2-0.5-2.4-1.1-3.4-1.9c-0.5-0.4-1.1-0.8-1.5-1.3l-0.5-0.5c0.1,0.2,0.2,0.5,0.3,0.7
							c0.3,0.6,0.7,1.2,1.2,1.7c1.5,1.8,3.7,3.1,6,3.6c2.3,0.4,4.7,0.3,6.9-0.3c0.7-0.2,1.3-0.3,1.8-0.5l-0.7,0.9
							c-0.8,0.9-1.5,1.8-2.1,2.8l-0.6,1.1l0.8-0.9c0.5-0.6,1.3-1.4,2.3-2.4c1.5-1.5,3.2-2.9,5-4l0,0c-0.3,0.2-0.5,0.4-0.8,0.6
							l-0.3,0.3c-0.3,0.3-0.7,0.6-1,0.9l-0.2,0.2c-0.3,0.3-0.5,0.5-0.7,0.8l-0.3,0.3c-0.2,0.3-0.4,0.5-0.6,0.8l-0.2,0.3
							c-0.2,0.4-0.5,0.7-0.7,1.1c-0.1,0.1-0.1,0.2-0.2,0.4s-0.2,0.3-0.2,0.4l0,0l0,0l0,0l0,0c0,0.1-0.1,0.2-0.1,0.2
							c-0.1,0.3-0.3,0.6-0.4,0.9s-0.2,0.4-0.2,0.6s-0.2,0.6-0.3,1s-0.1,0.4-0.2,0.6s-0.1,0.7-0.2,1.1c0,0.2-0.1,0.4-0.1,0.5
							c-0.1,0.6-0.1,1.1-0.1,1.7c0,8.5,7.2,15.4,16.1,15.4C131.5,71.9,133.6,71.5,135.6,70.7z"/>
						<path id="_Path_4" class="st1" d="M112.4,77c0-0.3-0.1-0.6-0.1-0.9c0-0.1,0-0.2-0.1-0.3c-0.1-0.4-0.2-0.8-0.3-1.1v-0.1
							c-0.1-0.3-0.2-0.7-0.4-1l-0.2-0.3c-0.1-0.3-0.2-0.5-0.4-0.7l-0.2-0.3c-0.2-0.3-0.4-0.7-0.6-1l-0.1-0.1l0,0L110,71
							c-0.2-0.2-0.3-0.5-0.5-0.7l-0.3-0.3l-0.1-0.1l-0.1-0.1c-0.1-0.1-0.3-0.3-0.4-0.4l-0.3-0.3l-0.4-0.3l-0.2-0.2l-0.3-0.2
							l-0.2-0.2c-0.2-0.2-0.4-0.3-0.6-0.4l-0.1-0.1l-0.3-0.2c-0.2-0.1-0.4-0.3-0.7-0.4l-0.3-0.2c0,0-0.1,0-0.1,0
							c-0.3-0.2-0.7-0.3-1-0.4l0,0l-0.3-0.1c-0.1-0.1-0.3-0.1-0.4-0.2c-0.3-0.1-0.7-0.2-1-0.3l-0.5-0.1c-0.3-0.1-0.7-0.1-1.1-0.2
							l-0.5-0.1c-0.5-0.1-1.1-0.1-1.6-0.1c-0.4,0-0.8,0-1.3,0.1h-0.3c-0.3,0-0.6,0.1-0.9,0.1h-0.3c-0.4,0.1-0.8,0.2-1.2,0.3L94.4,66
							c-0.3,0.1-0.6,0.2-0.9,0.3l-0.3,0.1c-0.3,0.1-0.6,0.3-0.9,0.4l-0.2,0.1c-0.3,0.2-0.7,0.4-1,0.6l-0.3,0.2
							c-0.2,0.2-0.5,0.3-0.7,0.5l-0.3,0.2c-0.3,0.2-0.6,0.5-0.8,0.7l-0.2,0.2c-0.2,0.2-0.4,0.4-0.6,0.7L88,70.3
							c-0.2,0.2-0.3,0.4-0.5,0.7c-0.1,0.1-0.1,0.2-0.2,0.3c-0.2,0.3-0.4,0.6-0.6,0.9l-0.2,0.3l-0.2,0.4l0,0l0,0l0,0l0,0
							c0,0.1-0.1,0.1-0.1,0.2c-0.1,0.3-0.2,0.5-0.3,0.8s-0.1,0.3-0.2,0.5s-0.2,0.5-0.3,0.8s-0.1,0.3-0.1,0.5s-0.1,0.6-0.2,0.9
							c0,0.2-0.1,0.3-0.1,0.5c0,0.5-0.1,1-0.1,1.5c0,0.5,0,0.9,0.1,1.3c0.3,3.1,1.8,5.9,4,8c2.6,2.5,6.1,3.9,9.7,3.9
							c1.8,0,3.7-0.3,5.4-1c2.8-1.1,5.2-3.2,6.7-5.9c0.9-1.5,1.4-3.2,1.6-4.9c0-0.4,0.1-0.9,0.1-1.3c0-0.4,0-0.8-0.1-1.2
							C112.4,77.2,112.4,77.1,112.4,77z"/>
						<path id="_Path_5" class="st1" d="M61.2,34.5c-0.5,0.6-1,1.1-1.4,1.8l0,0l-0.4,0.6l0,0c-0.4,0.6-0.7,1.2-1,1.8l0,0l-0.3,0.6
							l0,0c-0.3,0.6-0.5,1.2-0.7,1.7l0,0c-0.1,0.2-0.1,0.4-0.2,0.5l0,0c-0.2,0.5-0.3,1-0.4,1.5l0,0c0,0.1-0.1,0.3-0.1,0.4v0.1
							c-0.1,0.4-0.2,0.7-0.2,1v0.1c0,0.1,0,0.2,0,0.2s0,0.1,0,0.1v0.2c0,0,0,0.1,0,0.1s0,0.2,0,0.2c0,0,0,0.1,0,0.1c0,0,0,0.1,0,0.1
							c0,0,0,0,0,0.1v0.1l0.7-0.3v0.3c0,0.1,0,0.2,0,0.2c-0.1,0.6-0.1,1.2-0.1,1.7c0,5.6,2.6,10.8,7,14.2c1,0.8,2,1.4,3.1,2
							c2.8,1.5,6,2.2,9.2,2.2c10.6,0,19.2-8.3,19.2-18.4c0-0.5,0-0.9-0.1-1.4c0.3,0.2,0.6,0.4,1,0.6l0,0V47c0,0,0-0.1,0-0.1V47
							c0,0,0-0.1,0-0.1l0.6,0.3c0-1.1-0.4-2.1-1.1-2.9c-0.1-0.6-0.3-1.2-0.5-1.9l0,0c-0.3-0.8-0.6-1.7-0.9-2.5l0,0
							c-0.3-0.7-0.6-1.3-1-2l0,0c-0.1-0.2-0.2-0.5-0.4-0.7l0,0c-0.4-0.7-0.8-1.3-1.3-2v-0.1l-0.5-0.6v0c-0.5-0.6-1-1.2-1.6-1.7
							c0,0-0.1-0.1-0.1-0.1c-0.2-0.2-0.4-0.3-0.6-0.5L88.4,32c-0.4-0.4-0.9-0.7-1.4-1l0,0c-3.3-2.1-7.2-3.1-11.2-2.8
							c-3.8,0.1-7.5,1.1-10.7,3l0,0c-0.2,0.1-0.4,0.3-0.6,0.4l-0.2,0.1l-0.6,0.4l-0.2,0.1c-0.6,0.5-1.2,1-1.7,1.5l-0.1,0.1
							C61.5,34.1,61.4,34.3,61.2,34.5L61.2,34.5z"/>
						<path id="_Path_6" class="st1" d="M78.7,78.8L78.7,78.8c-0.2-0.5-0.3-1-0.6-1.5l0,0c-0.2-0.5-0.5-1.1-0.8-1.6l0,0
							c-0.3-0.5-0.7-1.1-1.1-1.6l0,0c-0.4-0.5-0.9-1-1.4-1.4l0,0c-0.3-0.2-0.5-0.4-0.8-0.6l0,0c-2-1.2-4.3-1.8-6.7-1.6
							c-2.6,0-5.2,0.8-7.3,2.3l0,0c-0.5,0.4-1,0.8-1.4,1.3l0,0c-0.4,0.4-0.8,0.9-1.1,1.4l0,0c-0.3,0.5-0.6,0.9-0.8,1.4l0,0
							c-0.2,0.5-0.4,0.9-0.5,1.3l0,0c-0.1,0.4-0.3,0.8-0.3,1.1l0,0c-0.1,0.3-0.1,0.6-0.2,0.8l0,0l-0.1,0.5V81l0.7-0.3
							c0,0.3,0,0.7,0,1c0.1,5.9,5,10.6,11,10.5c0,0,0,0,0,0c0.4,0,0.7,0,1.1-0.1c2.5-0.2,4.8-1.3,6.6-3c0.2-0.2,0.5-0.5,0.7-0.8
							c0.4-0.5,0.8-1.1,1.2-1.7c0.9-1.5,1.3-3.2,1.3-5c0-0.3,0-0.6,0-0.8c0.4,0.2,0.8,0.5,1.3,0.8l0,0v-0.1c0,0,0-0.1,0-0.2l0.4,0.2
							c0-0.6-0.4-1.2-0.9-1.7C78.9,79.6,78.8,79.2,78.7,78.8z"/>
						<path id="_Path_7" class="st1" d="M113.9,71.7c-2.5-3.1-5.7-5.5-9.4-7c-2-0.8-4.2-1.3-6.4-1.5c-1.8,0-3.6,0.4-5.3,1.1
							c-1.1,0.4-2.2,0.9-3.2,1.5c-0.7,0.4-1.1,0.6-1.1,0.6l1.2-0.4c0.8-0.3,1.9-0.6,3.3-0.9c1.6-0.5,3.3-0.6,4.9-0.5
							c2,0.3,4,0.8,5.9,1.6c3.5,1.4,6.7,3.4,9.4,6c0.8,0.8,1.6,1.6,2.3,2.5l0.8,1l-0.6-1.2C115.3,73.6,114.6,72.6,113.9,71.7z"/>
						<path id="_Path_8" class="st1" d="M145.6,87.5l0.3,0.2c0-0.6-0.2-1.1-0.5-1.6c-0.1-0.3-0.1-0.7-0.3-1l0,0
							c-0.1-0.5-0.3-0.9-0.4-1.4l0,0c-0.2-0.5-0.4-1-0.6-1.5l0,0c-0.3-0.5-0.6-1-0.9-1.5l0,0c-0.3-0.5-0.7-0.9-1.1-1.3l0,0
							c-0.2-0.2-0.4-0.4-0.7-0.6l0,0c-1.6-1.1-3.5-1.7-5.4-1.6c-1.9,0-3.7,0.6-5.2,1.7l0,0l0,0l-0.3,0.2c-0.2,0.1-0.4,0.3-0.5,0.4
							l-0.3,0.3c-0.1,0.2-0.3,0.3-0.4,0.5l-0.3,0.3c-0.2,0.2-0.4,0.5-0.5,0.7s-0.1,0.2-0.2,0.3s-0.2,0.3-0.3,0.5s-0.1,0.2-0.2,0.4
							s-0.2,0.3-0.2,0.5l-0.2,0.3c-0.1,0.2-0.2,0.4-0.3,0.7s-0.1,0.2-0.1,0.3s-0.1,0.3-0.1,0.5s-0.1,0.2-0.1,0.3l-0.1,0.4l-0.1,0.3
							c0,0.2-0.1,0.3-0.1,0.4v0.2c0,0.1,0,0.2,0,0.3s0,0.1,0,0.1s0,0.1,0,0.2c0,0,0,0,0,0.1v0.1c0.3-0.2,0.6-0.3,0.9-0.4
							c0,0.2,0,0.5,0,0.7c0.1,4.2,3.3,7.6,7.4,8c-1.6-0.1-3.1-0.5-4.6-1c-0.6-0.2-1.1-0.4-1.6-0.7l-0.6-0.3l0.5,0.5
							c0.4,0.5,0.9,0.9,1.4,1.2c0.7,0.5,1.4,1,2.2,1.3c2.2,0.8,4.6,0.9,6.9,0.3c0.9-0.2,1.8-0.6,2.6-1.1c0.6-0.3,1.1-0.7,1.6-1.1
							l0.5-0.5l-0.6,0.3c-0.6,0.2-1.1,0.4-1.7,0.6c-1.8,0.5-3.7,0.7-5.6,0.6H135c0.2,0,0.4,0,0.6,0c4.6,0.1,8.4-3.5,8.4-8.1
							c0-0.2,0-0.5,0-0.7l0.4,0.2c0.4,0.3,0.8,0.5,1.1,0.8v-0.1C145.7,87.7,145.6,87.6,145.6,87.5z"/>
					</g>
					<g id="_Group_4">
						<g id="_Group_5">
							<ellipse id="_Path_9" class="st3" cx="75.7" cy="45.8" rx="19.2" ry="18.4"/>
							<ellipse id="_Path_10" class="st1" cx="76.6" cy="45.2" rx="12.3" ry="13.1"/>
							<ellipse id="_Path_11" class="st4" cx="76.6" cy="45.2" rx="7.1" ry="7.6"/>
							<path id="_Path_12" class="st5" d="M71.8,42.1c-0.1,1.5-1.4,2.6-2.9,2.5s-2.6-1.4-2.5-2.9c0.1-1.4,1.3-2.5,2.7-2.5
								C70.6,39.2,71.9,40.5,71.8,42.1C71.8,42.1,71.8,42.1,71.8,42.1z"/>
							<path id="_Path_13" class="st5" d="M86.3,51.7c-0.1,2.2-2,3.8-4.2,3.7c-2.2-0.1-3.8-2-3.7-4.2c0.1-2.1,1.8-3.7,3.9-3.7
								C84.6,47.6,86.3,49.4,86.3,51.7C86.3,51.6,86.3,51.7,86.3,51.7z"/>
							<path id="_Path_14" class="st6" d="M91.5,35.4c-6.4-8.7-18.8-10.6-27.5-4.1c-2.4,1.8-4.4,4.1-5.7,6.7
								c2.1,6.3,8.6,10.9,16.3,10.9C83.4,48.8,90.6,42.9,91.5,35.4z"/>
							<path id="_Path_15" class="st7" d="M94.9,45.8c-0.1-7.5-4.7-14.2-11.6-16.9c2.7,2.1,5,4.6,6.8,7.5
								c11.3,17.7-12,33.1-24.6,22.9s-5.6-21.4-5.6-21.4c-0.5-0.1-1-0.2-1.5-0.1c-1.3,2.5-1.9,5.2-1.9,8c0,10.2,8.6,18.4,19.3,18.4
								S94.9,56,94.9,45.8z"/>
						</g>
						<g id="_Group_6">
							<path id="_Path_16" class="st3" d="M145.2,54.2c0,8.5-7.2,15.4-16.1,15.4s-16.1-6.9-16.1-15.4s7.2-15.4,16.1-15.4
								S145.2,45.7,145.2,54.2z"/>
							<path id="_Path_17" class="st1" d="M140.4,58c0,6.1-4.6,11-10.3,11s-10.3-4.9-10.3-11s4.6-11,10.3-11S140.4,51.9,140.4,58z"
								/>
							<path id="_Path_18" class="st4" d="M136,58c-0.2,3.3-3.1,5.8-6.4,5.6c-3.3-0.2-5.8-3.1-5.6-6.4c0.2-3.2,2.8-5.6,6-5.6
								C133.4,51.7,136.1,54.6,136,58z"/>
							<path id="_Path_19" class="st5" d="M126.1,55.4c-0.1,1.3-1.2,2.2-2.4,2.1c-1.3-0.1-2.2-1.2-2.1-2.4c0.1-1.2,1.1-2.1,2.3-2.1
								C125.1,53,126.1,54.1,126.1,55.4C126.1,55.4,126.1,55.4,126.1,55.4z"/>
							<path id="_Path_20" class="st5" d="M138.2,63.4c-0.1,1.8-1.7,3.2-3.5,3.1s-3.2-1.7-3.1-3.5c0.1-1.7,1.5-3.1,3.3-3.1
								C136.8,60,138.2,61.5,138.2,63.4C138.2,63.4,138.2,63.4,138.2,63.4z"/>
							<path id="_Path_21" class="st6" d="M142.3,45.5c-5.4-7.3-15.7-8.9-23-3.4c-2,1.5-3.6,3.4-4.8,5.6c1.7,5.3,7.2,9.1,13.7,9.1
								C135.5,56.8,141.5,51.8,142.3,45.5z"/>
							<path id="_Path_22" class="st7" d="M145.2,54.2c-0.1-6.3-3.9-11.9-9.7-14.2c2.3,1.7,4.2,3.9,5.7,6.3
								c9.4,14.8-10,27.7-20.6,19.2s-4.7-17.9-4.7-17.9c-0.4-0.1-0.8-0.1-1.3-0.1c-1,2.1-1.6,4.4-1.6,6.7c0,8.5,7.2,15.4,16.1,15.4
								S145.2,62.8,145.2,54.2z"/>
						</g>
						<g id="_Group_7">
							<ellipse id="_Path_23" class="st3" cx="108.4" cy="35.5" rx="8.4" ry="8.1"/>
							<path id="_Path_24" class="st8" d="M114.2,35.3c0.2,3-2.1,5.6-5.1,5.7c-3,0.2-5.6-2.1-5.7-5.1c0-0.2,0-0.4,0-0.7
								c-0.2-3,2.1-5.6,5.1-5.7s5.6,2.1,5.7,5.1C114.2,34.9,114.2,35.1,114.2,35.3z"/>
							<path id="_Path_25" class="st4" d="M111.9,35.3c-0.1,1.7-1.6,3.1-3.3,3s-3.1-1.6-3-3.3c0.1-1.7,1.5-3,3.1-3
								C110.6,32.1,112,33.5,111.9,35.3z"/>
							<path id="_Path_26" class="st5" d="M106.7,33.9c0,0.7-0.6,1.2-1.3,1.1c-0.7,0-1.2-0.6-1.1-1.3c0-0.6,0.6-1.1,1.2-1.1
								C106.2,32.6,106.7,33.2,106.7,33.9z"/>
							<ellipse id="_Path_27" class="st5" cx="111.4" cy="38.1" rx="1.7" ry="1.8"/>
							<path id="_Path_28" class="st6" d="M115.4,30.9c-2.8-3.8-8.3-4.6-12.1-1.8c-1,0.8-1.9,1.8-2.5,2.9c1.1,3,4,4.9,7.2,4.8
								C111.8,36.9,115,34.3,115.4,30.9z"/>
							<path id="_Path_29" class="st7" d="M116.9,35.5c0-3.3-2.1-6.2-5.1-7.4c1.2,0.9,2.2,2,3,3.3c4.9,7.8-5.3,14.5-10.8,10.1
								s-2.5-9.4-2.5-9.4c-0.2,0-0.4,0-0.7,0c-0.5,1.1-0.8,2.3-0.8,3.5c0.2,4.7,4.2,8.3,8.9,8C113.2,43.4,116.7,39.9,116.9,35.5
								L116.9,35.5z"/>
						</g>
						<g id="_Group_8">
							<path id="_Path_30" class="st3" d="M112.3,76.3c0,7.3-6.2,13.2-13.8,13.2s-13.8-5.9-13.8-13.2s6.2-13.2,13.8-13.2
								S112.3,69,112.3,76.3z"/>
							<path id="_Path_31" class="st1" d="M105.4,74.7c0,5.2-4,9.4-8.8,9.4s-8.8-4.2-8.8-9.4s4-9.4,8.8-9.4S105.4,69.5,105.4,74.7z"
								/>
							<path id="_Path_32" class="st4" d="M101.6,74.7c-0.2,2.8-2.6,5-5.4,4.8c-2.8-0.2-5-2.6-4.8-5.4c0.2-2.7,2.4-4.8,5.1-4.8
								C99.5,69.4,101.7,71.8,101.6,74.7z"/>
							<path id="_Path_33" class="st5" d="M93.2,72.5c0,1.1-1,2-2.1,1.9c-1.1,0-2-1-1.9-2.1c0-1.1,0.9-1.9,2-1.9
								C92.3,70.4,93.2,71.3,93.2,72.5C93.2,72.4,93.2,72.4,93.2,72.5z"/>
							<path id="_Path_34" class="st5" d="M103.5,79.3c-0.1,1.5-1.5,2.7-3,2.6c-1.5-0.1-2.7-1.5-2.6-3c0.1-1.5,1.3-2.6,2.8-2.6
								C102.3,76.4,103.5,77.7,103.5,79.3z"/>
							<path id="_Path_35" class="st6" d="M109.8,68.8c-4.6-6.2-13.4-7.6-19.7-3c-1.7,1.3-3.1,2.9-4.1,4.8c1.5,4.5,6.1,7.8,11.7,7.8
								C104,78.5,109.2,74.3,109.8,68.8z"/>
							<path id="_Path_36" class="st7" d="M112.3,76.3c-0.1-5.3-3.3-10.1-8.3-12.1c1.9,1.5,3.6,3.3,4.9,5.4
								c8.1,12.6-8.6,23.6-17.6,16.4s-4-15.3-4-15.3c-0.4-0.1-0.7-0.1-1.1-0.1c-0.9,1.8-1.4,3.7-1.3,5.7c0,7.3,6.2,13.2,13.8,13.2
								S112.3,83.6,112.3,76.3z"/>
						</g>
						<g id="_Group_9">
							<path id="_Path_37" class="st3" d="M77.8,79.5c0.3,6.1-4.4,11.2-10.5,11.5c-6.1,0.3-11.2-4.4-11.5-10.5
								c-0.3-6.1,4.4-11.2,10.5-11.5c0.2,0,0.4,0,0.5,0C72.8,68.9,77.7,73.6,77.8,79.5C77.8,79.5,77.8,79.5,77.8,79.5z"/>
							<path id="_Path_38" class="st8" d="M74.4,79.2c-0.3,3.9-3.6,6.8-7.5,6.5c-3.9-0.3-6.8-3.6-6.5-7.5c0.3-3.7,3.3-6.5,7-6.5
								C71.4,71.9,74.5,75.2,74.4,79.2z"/>
							<path id="_Path_39" class="st4" d="M71.4,79.2c-0.1,2.2-2.1,3.9-4.3,3.8c-2.2-0.1-3.9-2.1-3.8-4.3c0.1-2.2,1.9-3.8,4.1-3.8
								C69.7,75,71.5,76.9,71.4,79.2z"/>
							<path id="_Path_40" class="st5" d="M64.7,77.4c-0.1,0.9-0.8,1.5-1.6,1.4c-0.9-0.1-1.5-0.8-1.4-1.6c0.1-0.8,0.7-1.4,1.5-1.4
								C64,75.8,64.7,76.5,64.7,77.4C64.7,77.4,64.7,77.4,64.7,77.4z"/>
							<path id="_Path_41" class="st5" d="M72.9,82.9c-0.1,1.2-1.1,2.2-2.4,2.1c-1.2-0.1-2.2-1.1-2.1-2.4c0.1-1.2,1-2.1,2.2-2.1
								C71.9,80.5,72.9,81.6,72.9,82.9C72.9,82.9,72.9,82.9,72.9,82.9z"/>
							<path id="_Path_42" class="st6" d="M75.9,73.6c-3.7-5-10.7-6-15.7-2.3c-1.3,1-2.4,2.3-3.2,3.7c1.4,3.8,5.2,6.3,9.3,6.2
								C71.2,81.2,75.3,77.9,75.9,73.6z"/>
							<path id="_Path_43" class="st7" d="M77.8,79.5c0-4.3-2.7-8.1-6.6-9.6c1.5,1.2,2.9,2.6,3.9,4.3c6.4,10-6.8,18.8-14,13
								S57.8,75,57.8,75c-0.3,0-0.6,0-0.8,0c-0.7,1.4-1.1,3-1.1,4.5c0.6,6,6,10.5,12,9.9C73.2,88.9,77.3,84.8,77.8,79.5L77.8,79.5z"
								/>
						</g>
						<g id="_Group_10">
							<path id="_Path_44" class="st1" d="M55.9,43.8c0,0,23-11.1,39.9,1.3c0,0-1.6-19.9-20.2-19.1S55.9,43.8,55.9,43.8z"/>
							<path id="_Path_45" class="st1" d="M55.9,43.8c0,0,23-11.1,39.9,1.3c0,0-1.6-19.9-20.2-19.1S55.9,43.8,55.9,43.8z"/>
							<path id="_Path_46" class="st1" d="M95.8,45.1c0,0-0.9-11-9-16.3c2.4,2.9,4.4,6.1,5.9,9.6c0,0-3-1.5-11.8-2.7
								S65.4,37,61.2,37.6c-3.1,0.4,1-5.2,3.7-8.6c-8.3,5.1-9,14.9-9,14.9S78.9,32.7,95.8,45.1z"/>
							<path id="_Path_47" class="st4" d="M55.9,43.8c0,0,7.8-8.7,24.7-7S96.4,45,96.4,45S78.8,34.6,55.9,43.8z"/>
						</g>
						<g id="_Group_11">
							<path id="_Path_48" class="st1" d="M55.2,78.7c0,0,13.7-6.5,23.8,0.7c0,0-1-11.7-12-11.2S55.2,78.7,55.2,78.7z"/>
							<path id="_Path_49" class="st1" d="M55.2,78.7c0,0,13.7-6.5,23.8,0.7c0,0-1-11.7-12-11.2S55.2,78.7,55.2,78.7z"/>
							<path id="_Path_50" class="st1" d="M79,79.5c0,0-0.5-6.5-5.3-9.6c1.4,1.7,2.6,3.6,3.5,5.6c0,0-1.8-0.9-7-1.6
								s-9.2,0.8-11.8,1.1C56.6,75.3,59,72,60.6,70c-3,2-5,5.2-5.4,8.7C55.2,78.7,68.9,72.2,79,79.5z"/>
							<path id="_Path_51" class="st4" d="M55.2,78.7c0,0,4.6-5.1,14.7-4.1s9.4,4.8,9.4,4.8S68.9,73.3,55.2,78.7z"/>
						</g>
						<g id="_Group_12">
							<path id="_Path_52" class="st1" d="M104.3,62.4c3.7,1.5,6.9,3.9,9.4,7c0.7,0.9,1.4,1.9,2,2.9l0.6,1.2l-0.8-1
								c-0.7-0.9-1.5-1.7-2.4-2.5c-2.7-2.6-5.9-4.7-9.4-6c-1.9-0.8-3.9-1.3-5.9-1.6c-1.7-0.1-3.3,0-4.9,0.5
								c-1.4,0.3-2.6,0.7-3.3,0.9l-1.2,0.4c0,0,0.4-0.3,1.1-0.6c1-0.6,2.1-1.1,3.2-1.5c1.7-0.7,3.5-1,5.3-1
								C100.1,61.1,102.2,61.6,104.3,62.4z"/>
						</g>
						<g id="_Group_13">
							<path id="_Path_53" class="st3" d="M143.8,85.2c0.2,4.7-3.4,8.6-8.1,8.8c-4.7,0.2-8.6-3.4-8.8-8.1c-0.2-4.7,3.4-8.6,8.1-8.8
								c0.1,0,0.2,0,0.4,0C139.9,77,143.7,80.6,143.8,85.2z"/>
							<path id="_Path_54" class="st8" d="M141.1,85c-0.2,3-2.8,5.3-5.8,5.1c-3-0.2-5.3-2.8-5.1-5.8c0.2-2.9,2.6-5.1,5.4-5.1
								C138.8,79.3,141.2,81.9,141.1,85z"/>
							<path id="_Path_55" class="st4" d="M138.8,85c-0.1,1.7-1.6,3-3.3,2.9c-1.7-0.1-3-1.6-2.9-3.3c0.1-1.7,1.5-2.9,3.1-2.9
								C137.5,81.7,138.9,83.2,138.8,85z"/>
							<path id="_Path_56" class="st5" d="M133.6,83.6c0,0.7-0.6,1.2-1.3,1.1c-0.7,0-1.2-0.6-1.1-1.3c0-0.6,0.6-1.1,1.2-1.1
								C133.1,82.3,133.6,82.9,133.6,83.6C133.6,83.6,133.6,83.6,133.6,83.6z"/>
							<path id="_Path_57" class="st5" d="M140,87.8c0,0.9-0.8,1.7-1.8,1.6c-0.9,0-1.7-0.8-1.6-1.8c0-0.9,0.8-1.6,1.7-1.6
								C139.2,86,140,86.8,140,87.8z"/>
							<path id="_Path_58" class="st6" d="M142.3,80.6c-2.8-3.8-8.3-4.6-12.1-1.8c-1,0.8-1.9,1.8-2.5,2.9c1.1,3,4,4.9,7.2,4.8
								C138.7,86.5,141.9,83.9,142.3,80.6z"/>
							<path id="_Path_59" class="st7" d="M143.8,85.2c0-3.3-2.1-6.2-5.1-7.4c1.2,0.9,2.2,2,3,3.3c5,7.8-5.3,14.5-10.8,10.1
								s-2.5-9.4-2.5-9.4c-0.2,0-0.4,0-0.7,0c-0.5,1.1-0.8,2.3-0.8,3.5c0.2,4.7,4.2,8.3,8.9,8C140.1,93.1,143.6,89.6,143.8,85.2
								L143.8,85.2z"/>
							<path id="_Path_60" class="st1" d="M126,84.9c0,0,11.2-6.1,19.4,0.7c0,0-0.8-10.9-9.8-10.5S126,84.9,126,84.9z"/>
							<path id="_Path_61" class="st1" d="M126,84.9c0,0,11.2-6.1,19.4,0.7c0,0-0.8-10.9-9.8-10.5S126,84.9,126,84.9z"/>
							<path id="_Path_62" class="st1" d="M145.3,85.6c0,0-0.4-6-4.4-9c1.2,1.6,2.1,3.4,2.9,5.3c0,0-1.4-0.8-5.7-1.4s-7.5,0.7-9.6,1
								c-1.5,0.2,0.5-2.9,1.8-4.8c-4,2.8-4.4,8.2-4.4,8.2S137.1,78.8,145.3,85.6z"/>
							<path id="_Path_63" class="st4" d="M126,84.9c0,0,3.8-4.8,12-3.8s7.7,4.5,7.7,4.5C139.6,82,132.3,81.8,126,84.9z"/>
							<g id="_Group_14">
								<path id="_Path_64" class="st1" d="M135.2,93.3c1.9,0.1,3.8-0.1,5.6-0.6c0.6-0.2,1.1-0.3,1.7-0.6l0.6-0.3l-0.5,0.5
									c-0.5,0.4-1,0.8-1.5,1.1c-0.8,0.5-1.7,0.8-2.6,1.1c-2.3,0.6-4.7,0.5-6.9-0.3c-0.9-0.3-1.7-0.8-2.5-1.3
									c-0.5-0.4-1-0.8-1.4-1.2l-0.4-0.5l0.6,0.3c0.5,0.3,1.1,0.5,1.6,0.7C131.4,92.9,133.3,93.2,135.2,93.3z"/>
							</g>
						</g>
						<g id="_Group_15">
							<path id="_Path_65" class="st1" d="M106.6,43.3c2.1,0.4,4.3,0.6,6.5,0.5c1.7,0,2.8,0,2.8,0s-1,0.4-2.7,0.8
								c-2.3,0.6-4.6,0.7-6.9,0.3c-2.3-0.5-4.5-1.8-6-3.6c-0.5-0.5-0.9-1.1-1.2-1.7c-0.1-0.2-0.2-0.4-0.3-0.7l0.5,0.5
								c0.5,0.5,1,0.9,1.5,1.3C102.6,42,104.5,42.8,106.6,43.3z"/>
						</g>
						<g id="_Group_16">
							<path id="_Path_66" class="st1" d="M123.3,38.3c2-0.6,4.1-0.9,6.2-0.9c1.7,0,3.3,0.1,5,0.3c1.1,0.1,2.3,0.5,3.3,1
								c0.3,0.1,0.5,0.3,0.8,0.5l0.2,0.2l-0.3-0.2c-0.3-0.1-0.5-0.2-0.8-0.3c-1-0.3-2.1-0.5-3.2-0.4c-3.6,0-7.2,0.5-10.7,1.4
								c-3.4,1.2-6.4,3.2-8.9,5.7c-1,1-1.8,1.8-2.3,2.4l-0.8,0.9l0.6-1.1c0.6-1,1.2-1.9,1.9-2.8c1-1.3,2.2-2.6,3.5-3.7
								C119.4,40,121.2,38.9,123.3,38.3z"/>
						</g>
					</g>
					<g id="_Group_17">
						<g id="_Group_18">
							<path id="_Path_67" class="st1" d="M25.7,109.2c4-0.8,7.5-1.8,10.1-2.6s4.1-1.3,4.1-1.3c-1.2,0.8-2.5,1.5-3.8,2.1
								c-3.2,1.5-6.5,2.7-10,3.4c-2,0.4-4.1,0.9-6.1,0c-0.5-0.2-0.9-0.6-1.3-1c-0.3-0.4-0.4-0.9-0.5-1.5c0-0.8,0.3-1.7,0.9-2.3
								c0.7-0.8,1.3-1.6,1.9-2.5c0.1-0.2,0.2-0.5,0.3-0.8c0-0.2,0-0.3,0-0.3s0,0.1,0,0.3c0,0.3,0,0.6-0.1,0.9c-0.4,1-0.8,2-1.4,2.9
								c-0.3,0.5-0.5,1.2-0.5,1.8c0.1,0.6,0.6,1.1,1.2,1.3c0.8,0.2,1.6,0.3,2.4,0.2C23.7,109.6,24.7,109.4,25.7,109.2z"/>
						</g>
						<g id="_Group_19">
							<path id="_Path_68" class="st1" d="M51.2,137.1c3.8-1.7,7.4-3.8,10.8-6.3c1.6-1.1,3.2-2,5-2.6c1.6-0.5,3.2-0.9,4.8-0.9
								c2.3-0.1,4.7,0.1,7,0.6c1.6,0.3,2.5,0.5,2.5,0.5l-2.6-0.2c-2.3-0.2-4.6-0.2-6.9,0c-1.5,0.2-3.1,0.6-4.5,1.1
								c-1.7,0.7-3.2,1.6-4.7,2.7c-3.3,2.7-7,4.9-10.9,6.6c-2.1,0.9-4.3,1.4-6.6,1.5c-2.1,0.1-4.3-0.3-6.2-1.1
								c-3.2-1.5-6.1-3.6-8.4-6.2c-2-2.1-3.6-3.9-4.7-5.2l-1.7-1.9l1.8,1.8c1.2,1.1,2.9,2.8,5,4.8c2.4,2.4,5.3,4.2,8.4,5.5
								C43.2,139,47.5,138.8,51.2,137.1z"/>
						</g>
						<g id="_Group_20">
							<path id="_Path_69" class="st1" d="M147.3,138.5c1.8-0.6,3.6-1.4,5.3-2.4c4.2-2.6,6.5-7.3,6-12.2c-0.3-2.7-1.4-5.2-3.2-7.2
								l-0.4-0.4l0.5,0.4c0.4,0.4,0.8,0.8,1.2,1.3c3.6,4.4,3.9,10.5,0.9,15.3c-1,1.7-2.5,3.1-4.1,4.1c-1.7,1.1-3.6,1.9-5.6,2.6
								c-1.9,0.7-3.9,1.3-5.8,1.7c-1.9,0.4-3.9,0.5-5.8,0.1c-1.7-0.4-3.4-1-4.8-2c-1.3-0.8-2.5-1.7-3.6-2.6
								c-1.6-1.3-3.3-2.6-5.2-3.7c-0.5-0.3-1-0.5-1.5-0.8l-0.6-0.2l0.6,0.2c0.6,0.2,1.1,0.4,1.6,0.6c1.9,0.9,3.8,2,5.5,3.3
								c2.2,1.4,4.9,3.4,8.2,3.9S143.5,139.9,147.3,138.5z"/>
						</g>
						<g id="_Group_21">
							<path id="_Path_70" class="st1" d="M88.7,142.4c3.9-1.7,7.5-3.8,11-5.3c3.1-1.3,6.3-2.3,9.6-3.1c2.2-0.5,4.4-0.9,6.7-1.1
								c1.6-0.2,2.5-0.2,2.5-0.2s-0.9,0.1-2.4,0.5s-3.8,0.8-6.5,1.7c-3.2,1-6.2,2.2-9.2,3.6c-3.4,1.6-6.9,3.8-10.9,5.5
								c-2,0.9-4,1.6-6.2,2c-2,0.4-4.1,0.4-6.2,0.1c-3.4-0.7-6.5-2.2-9.1-4.5c-1.7-1.4-3.4-3-4.9-4.7l-1.7-1.8l1.8,1.7
								c1.7,1.5,3.4,2.9,5.2,4.2c2.6,2,5.6,3.3,8.8,3.8C80.8,145.2,84.8,144.1,88.7,142.4z"/>
						</g>
						<g id="_Group_22">
							<path id="_Path_71" class="st1" d="M182.8,130.5c3.2,0,6.3-0.9,9-2.6c1.1-0.7,2.1-1.7,2.7-2.9c0.5-1,0.6-2.2,0.2-3.3
								c-0.3-1-0.7-1.9-1.2-2.8c-0.4-0.8-0.8-1.5-1-2.2c-0.2-0.5-0.3-0.9-0.4-1.4l-0.1-0.5l0.1,0.5c0.2,0.5,0.4,0.9,0.6,1.3
								c0.3,0.6,0.7,1.2,1.2,2c0.6,0.9,1.1,1.8,1.5,2.8c0.5,1.3,0.5,2.7,0,4c-0.6,1.4-1.6,2.7-2.9,3.5c-2.9,2-6.2,3-9.7,3.1
								c-3.3,0.1-6.7-0.1-10-0.5c-3-0.3-5.8-0.6-8.1-0.9c-4.6-0.5-7.4-0.9-7.4-0.9s2.9,0,7.5,0.1c2.3,0.1,5.1,0.2,8.1,0.3
								C176.2,130.5,179.5,130.5,182.8,130.5z"/>
						</g>
						<g id="_Group_23">
							<path id="_Path_72" class="st1" d="M182.3,92.8c-1.9-1.3-3.7-2.8-5.4-4.3c-4.4-3.9-7.7-8.8-9.6-14.3
								c-0.8-2.3-1.4-4.7-1.7-7.1c-0.1-0.8-0.2-1.5-0.2-2s0-0.7,0-0.7l0.1,0.7c0.1,0.4,0.2,1.1,0.4,1.9c1.7,7.9,6,15.1,12.1,20.4
								c1.6,1.4,3.4,2.8,5.4,4.1c2,1.3,3.8,2.7,5.5,4.3c1.7,1.7,2.6,3.9,2.5,6.3c-0.1,1.1-0.5,2.2-1.2,3.1c-0.7,0.8-1.5,1.4-2.5,1.8
								c-1.7,0.6-3.4,0.8-5.2,0.6c-1.6-0.2-2.9-0.5-4.1-0.8c-1-0.2-2-0.4-3.1-0.5c-0.7-0.1-1.3-0.1-2,0l-0.7,0.1
								c0,0,0.2-0.1,0.7-0.2c0.7-0.1,1.3-0.2,2-0.2c1.1,0,2.1,0.1,3.1,0.2c1.2,0.2,2.6,0.4,4.1,0.5c1.6,0.1,3.1-0.1,4.6-0.7
								c1.6-0.7,2.7-2.2,2.8-3.9c0-0.9-0.2-1.9-0.6-2.7c-0.4-0.9-1-1.7-1.7-2.4C185.9,95.4,184.1,94,182.3,92.8z"/>
						</g>
						<g id="_Group_24">
							<path id="_Path_73" class="st1" d="M67.6,115.6c3.6,0.1,7.2-0.7,10.4-2.3c1-0.5,2-1.1,2.9-1.7l1-0.7c0,0-0.3,0.3-0.8,0.9
								c-0.8,0.8-1.7,1.6-2.6,2.2c-3.2,2.2-7,3.3-10.9,3.3c-1.2,0-2.4-0.3-3.4-1c-0.5-0.4-1-0.9-1.2-1.5c-0.2-0.6-0.2-1.3,0-1.9
								c0.4-0.9,0.9-1.7,1.6-2.4c0.4-0.6,0.8-1.2,1-1.9c0.3-1.1,0.4-2.2,0.4-3.3c0-0.8,0-1.3,0-1.3s0.1,0.4,0.3,1.2
								c0.2,1.1,0.3,2.3,0.1,3.5c-0.1,0.8-0.4,1.6-0.9,2.3c-0.5,0.7-0.9,1.4-1.2,2.2c-0.2,0.7,0.1,1.4,0.8,1.8
								C65.7,115.3,66.6,115.6,67.6,115.6z"/>
						</g>
						<g id="_Group_25">
							<path id="_Path_74" class="st1" d="M143.1,116.5c0.1-1.3-0.2-2.9,0.6-4.5c0.4-0.8,1-1.4,1.8-1.8c0.7-0.3,1.4-0.5,2.1-0.6
								c1.3-0.1,2.5,0,3.8,0.2c1,0.2,2,0.2,3,0c0.8-0.2,1.5-0.6,1.9-1.3c0.3-0.5,0.5-1.1,0.5-1.8c0-0.4-0.2-0.8-0.4-1.1
								c-0.1-0.1-0.2-0.2-0.3-0.3c0.1,0.1,0.3,0.1,0.4,0.2c0.3,0.3,0.6,0.7,0.7,1.1c0.1,0.7,0,1.4-0.3,2c-0.2,0.4-0.5,0.8-0.8,1.1
								c-0.4,0.3-0.8,0.6-1.3,0.8c-1.1,0.3-2.2,0.4-3.3,0.3c-1.2-0.1-2.3-0.1-3.5,0c-1.1,0.1-2.1,0.7-2.7,1.7c-0.5,1-0.3,2.4-0.4,4
								c0,0.9-0.3,1.7-0.8,2.5c-0.5,0.7-1.3,1.2-2.1,1.5c-1.4,0.3-2.9,0.3-4.4-0.1c-2.3-0.5-4.5-1.6-6.2-3.2c-1.2-1-2.2-2.3-2.9-3.7
								c-0.2-0.4-0.4-0.7-0.5-1.1l-0.2-0.4l0.2,0.4c0.2,0.3,0.4,0.7,0.7,1c2.2,3,5.5,5.1,9.2,5.7c1.2,0.2,2.4,0.2,3.6-0.1
								C142.4,118.7,143.2,117.6,143.1,116.5z"/>
						</g>
						<g id="_Group_26">
							<path id="_Path_75" class="st1" d="M4.6,129.2c0.3,1,0.9,1.9,1.7,2.6c0.8,0.7,1.7,1.3,2.7,1.6c1.9,0.6,4,0.9,6,0.8
								c1.8,0,3.3-0.2,4.3-0.3l1.6-0.2c0,0-0.5,0.1-1.5,0.4c-1.4,0.3-2.8,0.6-4.3,0.7c-2.2,0.3-4.4,0.1-6.6-0.5
								c-1.2-0.4-2.4-1-3.3-1.8c-0.9-0.8-1.6-1.8-2-3c-0.7-2.1-0.6-4.4,0.3-6.4c0.8-1.7,1.9-3.2,3.3-4.4c1-0.9,2.1-1.6,3.2-2.3
								c0.9-0.4,1.4-0.7,1.4-0.7s-0.4,0.3-1.2,0.8c-1,0.7-2,1.6-2.8,2.5c-1.2,1.3-2.1,2.7-2.7,4.3C4,125.3,4,127.3,4.6,129.2z"/>
						</g>
						<g id="_Group_27">
							<path id="_Path_76" class="st1" d="M106.3,18.2c1.6,0.8,3,1.8,4.2,3.1c1,1.1,2.2,2.1,3.4,2.9c1,0.7,2.3,1,3.6,0.8
								c0.5-0.1,1-0.3,1.3-0.8c0.3-0.4,0.4-0.9,0.5-1.4c0.1-1.7-0.3-3.4-1.2-4.9c-0.2-0.4-0.5-0.8-0.8-1.2l-0.3-0.4l0.4,0.4
								c0.4,0.3,0.7,0.7,1,1.1c1.1,1.5,1.7,3.3,1.8,5.1c0,0.7-0.1,1.3-0.5,1.9c-0.4,0.7-1.1,1.1-1.8,1.3c-1.5,0.4-3.2,0.1-4.5-0.7
								c-1.4-0.8-2.7-1.8-3.8-3c-1.1-1.1-2.4-2.1-3.8-2.8c-1.2-0.8-2.8-0.8-4,0c-0.6,0.5-1.1,1-1.6,1.6c-0.5,0.7-1.2,1.2-2,1.6
								c-0.9,0.2-1.8,0.2-2.6-0.2c-0.7-0.3-1.3-0.7-1.9-1.2c-1-0.9-1.7-2-2.1-3.3c-0.6-1.7-0.8-3.6-0.7-5.4c0-0.7,0.1-1.3,0.2-1.9
								c0,0,0,0.7,0.1,1.9c0.1,1.7,0.5,3.5,1.1,5.1c0.4,1.1,1.1,2,2,2.7c0.9,0.7,2.3,1.4,3.3,1c0.6-0.3,1.1-0.7,1.5-1.2
								c0.5-0.7,1.1-1.3,1.8-1.9c0.8-0.6,1.8-0.9,2.8-0.9C104.5,17.6,105.4,17.8,106.3,18.2z"/>
						</g>
						<g id="_Group_28">
							<path id="_Path_77" class="st1" d="M143.1,33.4c0.4,0.5,0.9,0.9,1.5,1.1c0.5,0.1,1.1,0,1.5-0.3c0.4-0.2,0.6-0.5,0.8-0.9
								c0-0.2,0-0.3,0-0.5c0.1,0.2,0.2,0.3,0.2,0.5c0.1,0.5-0.1,1.1-0.4,1.5c-0.5,0.7-1.4,1-2.2,1c-1-0.1-2-0.6-2.6-1.4
								c-0.6-0.7-1-1.5-1.3-2.3c-0.3-0.7-0.5-1.3-0.7-1.8c-0.2-0.4-0.4-0.8-0.7-1.1c-0.2-0.3-0.3-0.4-0.3-0.4
								c0.2,0.1,0.3,0.1,0.5,0.2c0.4,0.2,0.8,0.5,1.1,0.9C141.4,30.7,142.1,32.3,143.1,33.4z"/>
						</g>
						<g id="_Group_29">
							<path id="_Path_78" class="st1" d="M40.4,83.7c0.5,0.3,1.1,0.4,1.7,0.3c0.6,0,1.3-0.1,1.9-0.3c1.3-0.3,2.4-0.6,3.4-0.9
								c1.9-0.6,3.1-1,3.1-1c-0.9,0.7-1.8,1.3-2.8,1.8c-1.1,0.6-2.2,1.1-3.3,1.4c-0.7,0.3-1.4,0.4-2.2,0.5c-0.9,0.1-1.8,0-2.6-0.5
								c-0.9-0.5-1.4-1.5-1.5-2.5c0-0.8,0.1-1.6,0.4-2.3c0.4-1.2,0.9-2.3,1.5-3.4c0.4-0.7,0.9-1.4,1.4-2c0.4-0.4,0.6-0.7,0.6-0.7
								l-0.4,0.8c-0.2,0.5-0.5,1.3-0.9,2.2c-0.4,1.1-0.7,2.2-0.9,3.3c-0.2,0.6-0.2,1.2-0.2,1.8C39.6,83,39.9,83.5,40.4,83.7z"/>
						</g>
					</g>
					<g id="_Group_30">
						<g id="_Group_31">
							<path id="_Path_79" class="st1" d="M94.6,11.1c-0.2,1.2,0.3,2.4,1.3,3.1c1,0.9,2.5,1,3.6,0.3c0.2-0.1,0.3-0.4,0.1-0.7
								c-0.1-0.1-0.2-0.2-0.4-0.2c-1.8,0-3.4-0.9-4.2-2.5c-0.1-0.1-0.2-0.1-0.3-0.1C94.6,11,94.6,11.1,94.6,11.1z"/>
						</g>
						<g id="_Group_32">
							<path id="_Path_80" class="st1" d="M108.1,17.2c0.1,0.6,0.5,1.1,0.9,1.5c0,0,0.4,0.6,0.2,0.2c0.1,0.2,0.3,0.4,0.4,0.6
								c0.6,0.8,1.3,1.4,2.1,2c1.7,1.1,3.8-0.7,3.3-2.5c-0.3-1.1-0.9-2-1.8-2.8c-0.8-0.7-2-1.7-3.2-1.6c-1.2,0-2.1,1-2.1,2.2
								C108.1,17,108.1,17.1,108.1,17.2L108.1,17.2z"/>
						</g>
						<g id="_Group_33">
							<path id="_Path_81" class="st1" d="M42,82.5c0.5,0,1.1-0.2,1.4-0.6c0.4-0.4,0.4-1.1,0-1.5c-0.4-0.4-0.9-0.6-1.4-0.6
								c-0.7,0.1-1.3,0.7-1.2,1.4C40.9,81.9,41.4,82.4,42,82.5z"/>
						</g>
						<g id="_Group_34">
							<path id="_Path_82" class="st1" d="M46.8,82.1c0.2,0,0.2,0-0.1,0c0.1,0,0.3,0,0.4,0c0.3,0,0.5-0.1,0.7-0.2
								c1-0.3,1.7-1.3,1.5-2.4c-0.2-1.1-1-1.8-2.1-1.9c-1.1-0.1-2.2,0.5-2.7,1.5c-0.5,1-0.2,2.2,0.8,2.7
								C45.8,82.1,46.3,82.2,46.8,82.1L46.8,82.1z"/>
						</g>
						<g id="_Group_35">
							<path id="_Path_83" class="st1" d="M68.5,115.2c0,0-0.7-0.1-0.3,0c0.4,0.1,0.8,0.1,1.3,0.1c0.5-0.1,1-0.3,1.3-0.6
								c0.3-0.3,0.4-0.3,0.1-0.1s-0.3,0.2-0.1,0.1c0.7-0.4,1.2-1.1,1.3-1.9c0.1-0.8-0.2-1.6-0.7-2.2c-0.1-0.1-0.1-0.2-0.2-0.2
								c-0.7-0.7-1.8-1-2.8-0.7c-0.8,0.3-1.5,0.9-2,1.6c-0.5,0.8-0.5,1.8,0,2.6C66.8,114.7,67.6,115.2,68.5,115.2L68.5,115.2z"/>
						</g>
						<g id="_Group_36">
							<path id="_Path_84" class="st1" d="M74.4,111.4c0.4-0.8-0.2-1.4-1-1C72.3,111,73.8,112.5,74.4,111.4z"/>
						</g>
						<g id="_Group_37">
							<path id="_Path_85" class="st1" d="M31.6,128.6c0.8,2,2.3,3.7,4.2,4.8c1.9,1.1,4.4,2.7,6.7,1.8c1.1-0.3,1.7-1.4,1.4-2.5
								c-0.5-2.4-3-3.6-5-4.6c-2-1.1-4.2-1.5-6.4-1C31.9,127.3,31.5,127.9,31.6,128.6C31.7,128.5,31.7,128.5,31.6,128.6L31.6,128.6z
								"/>
						</g>
						<g id="_Group_38">
							<path id="_Path_86" class="st1" d="M46.3,133.6c0.5,1.1,2.3,1.6,3.4,1.6c1.5,0,3.3-1.3,3.6-2.8l-0.6,1.1
								c0.3-0.4,0.6-0.7,0.8-1.1c1.1-1.6-0.8-3.8-2.5-3.3c-0.3,0.1-0.5,0.1-0.8,0.2h1.3c-0.4-0.2-0.8-0.2-1.3-0.1
								c-0.1,0-0.3,0-0.4,0c-0.5,0-0.9,0.2-1.4,0.3c-0.3,0.1-0.5,0.2-0.6,0.4c-0.3,0.3-0.4,0.3-0.1,0.1c-0.5,0.3-0.9,0.6-1.3,1
								C46,131.8,45.9,132.8,46.3,133.6L46.3,133.6z"/>
						</g>
						<g id="_Group_39">
							<path id="_Path_87" class="st1" d="M68.8,136.8c-1.4,2,1.6,4.2,3.1,4.9c2.3,1.2,4.3,1.3,6.6-0.2c0.5-0.3,0.6-1,0.3-1.4
								c-0.1-0.2-0.3-0.4-0.6-0.4c-0.9-0.3-1.7-0.8-2.6-1.1c-0.9-0.2-1.8-0.6-2.7-1C72,136.9,69.9,135.2,68.8,136.8L68.8,136.8z"/>
						</g>
						<g id="_Group_40">
							<path id="_Path_88" class="st1" d="M82.8,141.8C82.9,141.8,83.4,141.8,82.8,141.8c0.9,0.2,1.8-0.1,2.2-0.9
								c0.1-0.2,0.2-0.4,0.3-0.6c0.4-0.7,0.2-1.6-0.6-2c-0.1-0.1-0.2-0.1-0.3-0.1c-0.2-0.1-0.4-0.1-0.6-0.2c-1-0.3-2.1,0.3-2.4,1.4
								c-0.1,0.2-0.1,0.3-0.2,0.5c-0.2,0.8,0.2,1.7,1.1,1.9C82.5,141.8,82.7,141.8,82.8,141.8L82.8,141.8z"/>
						</g>
						<g id="_Group_41">
							<path id="_Path_89" class="st1" d="M134.6,134c0.9,2.8,4.9,3.3,7.4,3.1s6.6-2.1,6.8-5c0.2-1-0.5-2-1.4-2.2
								c-1.4-0.3-2.4,0.9-3.6,1.3c-1.3,0.4-2.7,0.5-4.1,0.5c-1.5,0-2.9-0.5-4.3,0.4C134.7,132.4,134.4,133.2,134.6,134L134.6,134z"
								/>
						</g>
						<g id="_Group_42">
							<path id="_Path_90" class="st1" d="M150.3,131.6c0.9,0.2,1.8,0,2.5-0.5c1-0.5,1.6-1.6,1.5-2.7c0-0.6-0.2-1.1-0.6-1.6
								c-0.3-0.5-0.8-0.8-1.3-0.9c-0.5-0.1-1-0.1-1.5,0c-0.6,0.2-1.2,0.6-1.6,1.1c-0.6,0.6-0.9,1.4-0.9,2.2c0,0.5,0.2,1.1,0.5,1.5
								C149.3,131.2,149.7,131.5,150.3,131.6L150.3,131.6z"/>
						</g>
						<g id="_Group_43">
							<path id="_Path_91" class="st1" d="M174.6,127.7c2.7,0.7,5.4,1.2,8.2,0.3c2-0.6,4.3-1.9,4-4.3c-0.1-0.6-0.5-1.2-1.2-1.2
								c-1.7,0.1-2.7,1.1-4.2,1.7c-2,0.7-4.4,0.5-6.5,0.6c-0.8,0-1.4,0.7-1.4,1.5C173.6,127,174,127.5,174.6,127.7L174.6,127.7z"/>
						</g>
						<g id="_Group_44">
							<path id="_Path_92" class="st1" d="M186.9,117.9c0,0.5,0.1,1,0.3,1.4c0.2,0.5,0.4,0.9,0.8,1.3c0.5,0.5,1.3,0.7,2,0.4
								c0.7-0.3,1.1-0.9,1.1-1.7c-0.1-1-0.6-1.9-1.3-2.6c-0.7-0.6-1.7-0.6-2.3,0.1C187.1,117.1,186.9,117.5,186.9,117.9L186.9,117.9
								z"/>
						</g>
						<g id="_Group_45">
							<path id="_Path_93" class="st1" d="M131.4,114.3c1.7,2.3,4.8,3.8,7.4,2c0.7-0.5,1.1-1.4,0.9-2.2c0.1,0.4-0.1-0.3-0.1-0.4
								c-0.2-0.3-0.2-0.3-0.1-0.2s0,0.1-0.3-0.3c-0.6-0.4-1.3-0.7-2-0.7c-0.9-0.1-2,0-2.8-0.6c-0.7-0.6-1.8-0.7-2.5-0.2
								C131.1,112.5,130.9,113.5,131.4,114.3L131.4,114.3z"/>
						</g>
						<g id="_Group_46">
							<path id="_Path_94" class="st1" d="M142.3,111.1c0,0.1-0.1,0.2-0.2,0.3c-0.1,0.1-0.1,0.1,0,0.1s0.4-0.4,0.4-0.7
								c0.2-0.6,0.1-0.1,0-0.1s0.1-0.2,0.2-0.3c0.3-0.6,0.3-1.4-0.1-1.9c-0.4-0.6-1.2-0.8-1.8-0.6c-1,0.3-1.6,1.2-1.7,2.2
								c0,0.9,0.7,1.7,1.6,1.9C141.4,112.3,142.1,111.8,142.3,111.1L142.3,111.1z"/>
						</g>
						<g id="_Group_47">
							<path id="_Path_95" class="st1" d="M177.3,104.8c1.8,1,5.3,1.9,6.8,0c0.8-0.9,0.8-2.3-0.1-3.1c-0.1-0.1-0.2-0.2-0.4-0.3
								c-1-0.6-1.8-0.4-2.9-0.3c-0.8,0-1.7,0.1-2.5,0.1c-1.1,0.1-1.9,1-1.9,2.1C176.5,103.9,176.8,104.5,177.3,104.8L177.3,104.8z"
								/>
						</g>
						<g id="_Group_48">
							<path id="_Path_96" class="st1" d="M181.1,97.4c0.3,0.6,0.8,1.2,1.3,1.6c0.4,0.3,0.8,0.5,1.2,0.8c0.8,0.4,1.8,0.1,2.2-0.7
								c0.3-0.5,0.3-1,0-1.5c-0.3-0.4-0.5-0.8-0.8-1.2c-0.4-0.5-1-1-1.6-1.3c-0.8-0.5-1.9-0.1-2.4,0.7
								C180.8,96.2,180.8,96.9,181.1,97.4z"/>
						</g>
						<g id="_Group_49">
							<path id="_Path_97" class="st1" d="M8.6,121.2c-1.2,2.2-2,6.8,0.9,8.2c0.5,0.3,1.1,0.2,1.4-0.3c0.1-0.2,0.2-0.4,0.2-0.6
								c-0.1-1.1-0.4-2.1-0.8-3.1c-0.3-1.1-0.2-2.3,0.2-3.4c0.1-0.5-0.3-1.1-0.8-1.2C9.2,120.8,8.8,120.9,8.6,121.2z"/>
						</g>
						<g id="_Group_50">
							<path id="_Path_98" class="st1" d="M12.9,131.5c0.4,0.3,1,0.4,1.5,0.3c0.5-0.1,0.9-0.1,1.2-0.6c0.1-0.2,0.1-0.5,0-0.7
								c-0.3-0.4-0.7-0.5-1.2-0.6c-0.5-0.1-1,0-1.5,0.3c-0.4,0.2-0.5,0.7-0.3,1.1C12.7,131.4,12.8,131.5,12.9,131.5z"/>
						</g>
					</g>
					<g id="_Group_51">
						<path id="_Path_99" class="st3" d="M78.4,97.8c0,0-4.7-6.3-0.3-8.3s8-2,9.3,0.7s2,7.7,2,7.7S85.7,107.4,78.4,97.8z"/>
						<g id="_Group_52">
							<path id="_Path_100" class="st7" d="M76.8,91.3l-0.1-0.8c-0.1,0.1-0.1,0.2-0.2,0.3C76.6,91,76.7,91.1,76.8,91.3z"/>
							<path id="_Path_101" class="st7" d="M89.4,97.8c0,0-0.7-5-2-7.7s-5-2.7-9.3-0.7c-0.1,0-0.2,0.1-0.3,0.2c0,0,0.1,0,0.2,0
								c0.9,0.1,1.4,0.9,1.9,1.7c0.8,1.2,1.5,2.4,2.3,3.6c0.2-1.7,0.2-3.3,0.2-5c0.9-0.1,1.7-0.4,2.4-0.8c1.4,2.6,2.4,5.3,3,8.1
								c0.2,0.7,0.2,1.6-0.3,2.1c-0.3,0.2-0.7,0.4-1.2,0.3c-2.8,0.2-5.5-0.6-7.7-2.3c0.1,0.3,0.2,0.7,0.3,1
								C85.8,107.1,89.4,97.8,89.4,97.8z"/>
						</g>
					</g>
					<g id="_Group_53">
						<path id="_Path_102" class="st1" d="M104.2,99.9c0.7,0.7,1.7,1.1,2.7,0.9c1.1-0.3,2.1-0.8,3-1.5c1-0.8,1.9-1.7,2.7-2.7
							c0.9-1.1,1.9-2,3-2.9c1.2-0.9,2.6-1.5,4.1-1.6c1.4-0.1,2.9,0.2,4.1,1c1,0.6,2,1.4,2.7,2.4c0.7,0.8,1.3,1.6,1.9,2.5
							c0.6,0.8,1.1,1.6,1.6,2.2c0.5,0.6,1.1,1.2,1.6,1.7c0.9,0.8,2.1,1.5,3.3,1.8c0.8,0.2,1.6,0.2,2.4-0.1c0.2-0.1,0.4-0.2,0.6-0.4
							l0.2-0.1L138,103c-0.2,0.1-0.3,0.3-0.5,0.4c-0.8,0.4-1.6,0.6-2.5,0.5c-1.4-0.2-2.7-0.7-3.8-1.4c-0.7-0.5-1.4-1-2-1.6
							c-0.7-0.7-1.3-1.4-1.9-2.1c-1.2-1.6-2.7-2.9-4.4-3.9c-0.8-0.4-1.8-0.6-2.7-0.4c-1,0.2-1.9,0.7-2.7,1.4
							c-0.9,0.8-1.7,1.7-2.5,2.7c-0.9,1.2-1.9,2.2-3,3.2c-1.3,1.1-2.8,1.9-4.5,2.3c-1,0.2-2,0.1-2.9-0.2c-0.9-0.3-1.7-0.8-2.4-1.4
							c-0.7-0.6-1.2-1.1-1.7-1.6c-0.2-0.2-0.4-0.4-0.7-0.6c-0.2-0.2-0.5-0.3-0.7-0.5c-1-0.6-2.2-0.9-3.4-1c-2.3-0.1-4.5,0.7-6.2,2.3
							c-0.4,0.4-0.8,0.9-1.2,1.3c-0.5,0.6-1.1,1.2-1.8,1.5c-0.7,0.4-1.6,0.5-2.4,0.4c-0.7-0.1-1.4-0.2-2-0.5c-0.6-0.3-1.1-0.6-1.7-1
							c-0.4-0.4-0.9-0.7-1.3-1.1c-0.7-0.7-1.4-1.3-2.2-1.9c-1.3-0.9-2.9-1.2-4.4-0.8c-1.2,0.3-2.3,1-3.2,1.9c-0.6,0.6-1,1.3-1.2,2.1
							c-0.1,0.2-0.1,0.4-0.2,0.6v0.2v-0.2c0-0.2,0-0.4,0.1-0.7c0.2-0.8,0.5-1.7,1-2.4c0.8-1.1,1.9-2,3.2-2.6
							c0.8-0.3,1.7-0.5,2.6-0.5c1.1,0,2.1,0.3,3,0.9c1.8,1,3.3,2.8,5.1,3.4c0.8,0.3,1.7,0.3,2.4,0c0.4-0.2,0.7-0.6,0.9-0.9
							c0.4-0.6,0.8-1.1,1.2-1.6c2.2-2.3,5.2-3.5,8.3-3.4c2.5,0,5,1,6.8,2.8C103.3,99,103.8,99.5,104.2,99.9z"/>
					</g>
					<g id="_Group_54" class="st2">
						<path id="_Path_103" class="st1" d="M6.6,134.5c-0.4-0.4-0.7-0.8-1.1-1.2C5.9,133.7,6.2,134.1,6.6,134.5z"/>
						<path id="_Path_104" class="st1" d="M24,115.2c4.7-3.7,7.5-0.8,15.9-9.9s0.1-1.1,0.1-1.1s-19,10.7-18,3c0.3-2.5,0.4-5,0.3-7.5
							l-0.7,1.1c-0.4,0.6-4.1,9.6-1,8.4c-3.8,1.4-7.4,3.4-10.7,5.7c-4.7,3.3-9.2,9-7.2,14.3c0.6,1,1.2,1.9,1.9,2.8
							c0.1,0.2,0.3,0.3,0.5,0.4c-1.7-3-2.6-9.2,9.2-16.6c0,0,0,7,7,13.3c1.3,1.2,2.5,2.5,3.5,3.9c0.7-0.1,1.4-0.1,2.1,0.1
							c2,0.4,3.6,1.7,5.3,3c2.7,2.2,5.8,3.9,9.1,4.8c-2.4-2-6.3-5.2-9-7.8C28,129.2,19.3,118.8,24,115.2z"/>
						<path id="_Path_105" class="st1" d="M121.9,137.1c5.9,1.1,11.6,3.5,17.6,4.2s12.8-0.5,16.5-5.3c1.1-1.4,2-3.2,3.7-3.8
							c1.1-0.3,2.3-0.3,3.4-0.1c6,0.9,12,1.3,18.1,1.4c5.5,0,12.2-1.1,14.3-6.2c-0.2-0.8-0.9-1.4-1.7-1.4c6.5,0.8,13-5.1,13-11.6
							c0.1-1.5-0.4-3-1.3-4.2c-1.1-1.3-2.9-1.8-4.6-2.2l-10.8-2.8c2.4,0.1,3.8-3,3.1-5.2s-2.9-3.8-4.8-5.1l-7.1-4.8
							c-2.5-1.7-5-3.4-6.6-6c-2.5-4-2.8-9.4-4.5-13.8c-1.4-3.7-2.6-7.4-3.6-11.2c-1.3-4.9-2.8-9.7-4.6-14.3
							c0.7,10.4,3.3,31.8,7,38.3c4.5,7.8,21,12.3,20.9,19s-18.6,3.8-18.6,3.8s4,5.5,13,4.3s16.8,0.5,16,5.3
							c-0.6,3.5-6.8-0.7-9.2-2.8c1.7,3.4,2.9,14.2-3,17c-6.8,3.3-22.8,0.3-23-4s-10-9.2-10-9.2s2.7,2.5,3.7,9.2s-7.3,13.5-19,13.3
							s-13.5-5.5-16-7.8s10-2.8,1.8-5.5s-35.3,7.5-35.3,7.5s17.3-6.5,2.8,4.5s-26,2.8-28.3-1.8s5-4.5,9.8-4.3s17.5-3.3,17.5-3.3
							s-13.3-2.8-17.8-4.8s7.7-12.8,7.7-12.8s-8.4,7.3-15.7,6.3c-7-1-1.8-8.3-1.5-8.7c-5.3,8-23.2,6.7-23.2,6.7s17.3,4.5,17.3,12.3
							s-12,11-13.3,11c0,0,0.5,1,1.4,2.7c4.8-1.1,9.2-4.9,14-4c4,0.8,6.6,4.5,10.1,6.5c4.6,2.7,10.4,2.3,15.4,0.8s9.8-4.2,14.8-5.9
							C107.9,136.3,115,135.8,121.9,137.1z"/>
						<path id="_Path_106" class="st1" d="M190.2,111.6c-0.5-0.3-0.1,0.2,0.8,1C190.8,112.2,190.5,111.8,190.2,111.6z"/>
						<path id="_Path_107" class="st1" d="M64.7,108.4L64.7,108.4z"/>
					</g>
					<path id="_Path_108" class="st9" d="M40.3,77.2c-0.7-0.3-1.3,0.4-1.6,1.1c-1.3,2.9-2.3,6-3,9.1c-0.3,1-0.2,2.1,0.2,3
						c0.5,0.6,1.1,1,1.8,1.1c2.3,0.6,4.6,0.2,6.6-1c2-1.2,3.6-2.8,4.8-4.8c0.9,0.2,0.8,1.6,1.5,2.2c0.9,0.8,2.2-0.4,2.8-1.5
						c0.8-1.7,1.5-3.4,2-5.2c-1.8,3-3.5,1.2-6.3,1.5s-6.2,3.3-8.9,1c-2.2-1.8-1.2-5.2,0.7-6.7"/>
					<path id="_Path_109" class="st9" d="M90,12.8c-0.3,3.4,0.3,6.8,1.6,9.9c1.1,2.5,3.3,5,5.9,4.3c1.7-0.4,2.7-2.1,4.3-2.9
						c2.5-1.4,5.6-0.2,8,1.4s4.6,3.6,7.4,4.2c0.5,0.1,1.1,0.1,1.6-0.1c0.7-0.5,1.1-1.2,1.2-2c0.4-1.9,0.6-3.9,0.5-5.9
						c-0.1,1.1-0.4,2.2-1,3.1c-0.6,0.9-1.7,1.4-2.8,1.3c-0.6-0.2-1.1-0.5-1.6-0.9c-2.4-1.9-4.5-4.3-7.2-5.8s-6.3-2-8.8,0
						c-1,0.8-1.9,2.1-3.2,1.9c-1.1-0.1-1.8-1.2-2.4-2.1c-1.6-2.8-3.2-5.7-3.2-8.8"/>
					<g id="_Group_55">
						<path id="_Path_110" class="st9" d="M39.1,103c0.6-0.3,0.7-1.1,0.4-1.6c-0.2-0.3-0.6-0.5-1-0.6c-4.5,0.3-8.9,0.8-13.3,1.5
							c-1.2,0.2-1,2,0,2.3C29.7,105.8,35,105.5,39.1,103z"/>
						<path id="_Path_111" class="st9" d="M36.4,76.9c0.9-1.1,0.8-2.6,1.2-4c0.5-1.2,0.8-2.5,0.8-3.8c-0.1-0.5-0.6-0.8-1.1-0.7
							c0,0,0,0,0,0c-1.4,0.3-2.4,2.1-2.9,3.3c-0.5,1.4-1.2,3.4-0.3,4.8c0.4,0.7,1.3,1,2,0.6C36.2,77.1,36.3,77,36.4,76.9z"/>
						<path id="_Path_112" class="st9" d="M39.3,110.4c-3.5,0.1-17.6,6.7-11.5,11.6c1,0.8,3,0.4,2.8-1.2c-0.2-2,3.3-2.9,4.6-3.7
							c2-1.1,4.3-2.2,5.7-4c0.5-0.9,0.2-2-0.6-2.5C40,110.5,39.7,110.4,39.3,110.4z"/>
						<path id="_Path_113" class="st9" d="M54.8,60.4c-0.7,0.9-0.3,1.9,0.2,2.8s1.1,1.7,2.1,1.4c0.4-0.1,0.6-0.4,0.7-0.8
							c0.1-0.5-0.1-1.1-0.5-1.5c-0.4-0.7-0.5-1.8-1.3-2.2C55.7,60,55.2,60.1,54.8,60.4z"/>
						<path id="_Path_114" class="st9" d="M75.4,23.1L75.4,23.1C75.4,23.2,75.4,23.2,75.4,23.1z"/>
						<path id="_Path_115" class="st9" d="M53.5,33.3c-1.1,0.4-2,1.3-2.3,2.4c-0.3,1-0.1,2.2,0.6,3c0.5,0.5,1.3,0.6,1.9,0.2
							c0.2-0.1,0.4-0.2,0.5-0.4l0.2-0.3c-0.1,0.1-0.1,0.1,0,0c0.2-0.1,0.3-0.3,0.5-0.5c0.2-0.2,0.3-0.4,0.4-0.6c0,0,0-0.1,0.1-0.1
							c-0.1,0.1-0.1,0.2-0.1,0.2s0.1-0.2,0.1-0.2s0.2-0.2,0.2-0.3c0.2-0.3,0.4-0.6,0.4-0.9c0.3-1.2-0.4-2.4-1.6-2.7
							C54.2,33.2,53.8,33.2,53.5,33.3z"/>
						<path id="_Path_116" class="st9" d="M178,113.7c-2.7-1.1-5.2-0.5-8.1-0.6c-2.6-0.1-5.4-0.9-7.9-0.2c-1,0.3-1.5,1.3-1.3,2.3
							c0,0.1,0.1,0.3,0.2,0.4c3.1,5,14.3,6,17.9,1.3c0.7-0.8,0.6-2.1-0.2-2.8C178.5,113.9,178.2,113.8,178,113.7z"/>
						<path id="_Path_117" class="st9" d="M28.9,97c0.8,0.3,1.8,0,2.1-0.9c0-0.1,0-0.1,0.1-0.2c0.1-0.6,0.3-1.1,0.4-1.7
							c0.1-0.4,0.2-0.8,0.1-1.2c-0.1-0.4-0.3-0.6-0.7-0.8c-0.8-0.3-1.4,0.3-1.8,0.9l-1.1,1.5c-0.5,0.8-0.2,1.8,0.6,2.2
							C28.8,96.9,28.9,97,28.9,97z"/>
						<path id="_Path_118" class="st9" d="M149.5,96.8c0.3-1.3-0.5-2.5-1.7-2.8c-0.6-0.1-1.2-0.1-1.7,0.2c-1.2,0.6-1.9,1.9-2.9,2.7
							c-0.4,0.3-0.9,0.6-1.3,0.9c-0.7,0.4-1.1,1.1-1.4,1.8c-0.2,0.8,0.1,1.6,0.8,2c1.8,0.8,3.2,0,4.7-1S149.1,98.4,149.5,96.8z"/>
						<path id="_Path_119" class="st9" d="M76.9,21.3c-0.6-0.9-1.8-1.2-2.7-0.6c0,0,0,0,0,0c-0.9,0.5-1.2,2-0.1,2.4
							c-0.4-0.1,0.1,0.1,0.3,0.1c0.3,0.1,0.7,0,1-0.1c0,0,0,0,0.1,0h-0.1h0.1c0.2,0,0.5-0.1,0.7-0.2c0.1-0.1,0.1,0,0,0
							c0.6-0.2,0.9-0.8,0.8-1.4C77,21.5,76.9,21.4,76.9,21.3z"/>
						<path id="_Path_120" class="st9" d="M80,70.6c-0.3-0.4-0.7-0.7-1.1-1.1c-0.4-0.3-1-0.3-1.3,0.1c-0.3,0.4-0.3,0.9,0,1.2
							c0.3,0.3,0.7,0.7,1.1,1.1c0.4,0.3,0.8,0.6,1.3,0.8c0.3,0.1,0.6,0,0.8-0.2c0.1-0.2,0.1-0.4,0-0.5C80.6,71.4,80.3,71,80,70.6z"
							/>
						<polygon id="_Path_121" class="st9" points="75.4,23.1 75.4,23.1 75.4,23.1 						"/>
						<path id="_Path_122" class="st9" d="M164.5,106.2c-0.1,0-0.6-0.1-0.8-0.2c-0.3,0-0.7-0.1-1-0.1c-0.5-0.1-1.1,0.2-1.2,0.7
							c0,0.2,0,0.3,0,0.5c0.3,1.1,1.2,2,2.3,2.3c1.4,0.4,2.9,0.3,3.6-1.2c0.2-0.5,0-1.1-0.4-1.5c-0.4-0.4-0.9-0.6-1.5-0.6
							C165.2,106.2,164.8,106.2,164.5,106.2z"/>
						<path id="_Path_123" class="st9" d="M156.8,64.1c0.1-0.3,0.1-0.6,0.2-0.9c0.2-0.6-0.2-1.2-0.8-1.3c-0.2,0-0.4,0-0.6,0
							c-0.9,0.2-1.7,0.8-2.2,1.7c-0.3,0.4-0.4,0.9-0.5,1.4c0,0.5,0.1,1.1,0.4,1.5c0.3,0.5,1,0.7,1.6,0.4c0.1,0,0.1-0.1,0.2-0.2
							c0.3-0.2,0.5-0.4,0.8-0.7c0.1-0.3,0.3-0.6,0.4-0.9C156.5,64.7,156.7,64.4,156.8,64.1z"/>
						<path id="_Path_124" class="st9" d="M68.4,21.1c-1.9-1.2-4.6-0.1-6.5,0.7c-2.1,0.9-4,2.3-5.5,4c-1.9,2.1,0.9,4.8,3,3
							c1.4-1.1,3-2,4.6-2.7c1.5-0.7,3.6-0.7,4.7-2c0.7-0.8,0.7-2-0.1-2.7C68.6,21.2,68.5,21.2,68.4,21.1z"/>
						<path id="_Path_125" class="st9" d="M53.5,60.4c-1.2-5.4-2.9-10.6-2.7-16.3c0-0.8-1-0.8-1.3-0.2c-2,5.8-2.5,12.4,1.2,17.6
							c0.5,0.7,1.4,0.9,2.2,0.5C53.4,61.7,53.7,61,53.5,60.4z"/>
						<path id="_Path_126" class="st9" d="M61.7,96.2h0.1l0,0l0,0l0,0h0.1c0.2,0,0.3,0,0.5,0c0.7,0,1.2-0.6,1.2-1.3
							c0-0.2-0.1-0.4-0.2-0.6c-0.6-0.8-1.6-1.1-2.5-0.8c-0.7,0.2-1.1,1-0.9,1.7C60.1,95.9,60.9,96.3,61.7,96.2L61.7,96.2z"/>
						<path id="_Path_127" class="st9" d="M103.8,49.7c-0.2-0.1-0.4-0.2-0.7-0.3c-0.4-0.2-0.7-0.5-1-0.8c-0.3-0.5-0.9-0.6-1.4-0.4
							c-0.5,0.3-0.7,0.9-0.4,1.4c0,0,0,0,0,0.1c0.4,0.6,1,1.1,1.6,1.5c0.6,0.4,1.4,0.6,2.2,0.3c0.4-0.1,0.6-0.5,0.5-1
							c-0.1-0.2-0.2-0.3-0.3-0.4C104.1,50,104,49.9,103.8,49.7z"/>
						<path id="_Path_128" class="st9" d="M121.5,113.4c0.1-1.7-1.4-2.7-2.9-2.9c-3.9-0.5-7.3,2.1-11.2,1.3
							c-4.5-0.9-7.8-2.4-11.7,0.8c-1.6,1.3-1.1,4.2,0.7,5.1C102.8,121,120.8,125.5,121.5,113.4z"/>
						<path id="_Path_129" class="st9" d="M96.9,57.6c1.8,1.2,3.9,2,5.7,3.2s3.3,2.4,5.6,2.4c0.5,0,0.9-0.4,0.9-0.9
							c-0.1-4.8-7.8-9.9-12.2-7.1c-0.7,0.4-0.9,1.3-0.4,2C96.5,57.3,96.7,57.5,96.9,57.6z"/>
						<path id="_Path_130" class="st9" d="M123.8,122.7c0.1,0,0.3,0,0.4,0h0.2c-0.1,0-0.2,0-0.3,0c0.3,0,0.3,0,0.3,0l0.4,0.1
							c0.7,0.2,1.5,0.2,2.3,0c1.1-0.3,1.8-1.5,1.5-2.7c-0.5-2.4-3.3-2.7-5.4-2.3c-0.8,0.2-1.5,0.9-1.7,1.7c-0.1,0.4-0.1,0.9,0,1.3
							c0.1,0.2,0.1,0.4,0.3,0.6C122.2,122.3,123,122.7,123.8,122.7z"/>
						<path id="_Path_131" class="st9" d="M90.3,135.8c0.8,0.1,1.7,0,2.4-0.4l1.6-0.8c0.8-0.5,1.2-1.5,0.8-2.4
							c-0.4-0.9-1.3-1.3-2.3-1.1c-0.6,0.1-1.3,0.1-1.9,0.3c-0.8,0.2-1.5,0.7-2,1.3c-0.5,0.5-0.7,1.4-0.4,2.1
							C88.9,135.3,89.6,135.7,90.3,135.8z"/>
						<path id="_Path_132" class="st9" d="M146.5,74.3c-0.6-0.4-1.2-0.8-1.8-1.1c-0.8-0.4-1.6-0.4-2.5-0.2c-0.8,0.2-1.2,1-1,1.8
							c0.1,0.2,0.2,0.4,0.3,0.6c1,1.1,2.4,1.6,3.4,2.7s2.4,3.1,3.8,1.6c0.4-0.4,0.6-1.1,0.4-1.7C148.8,76.5,147.8,75.2,146.5,74.3z"
							/>
						<path id="_Path_133" class="st9" d="M149.5,100.2c0.2,0.8,1,1.3,1.8,1.1c0.5-0.1,0.8-0.5,1-0.9c0,0-0.1,0.1-0.1,0.1
							c0.1-0.1,0.1-0.2,0.2-0.3c0,0.1,0,0.1-0.1,0.2l0.1-0.2l0.1-0.1l0,0c0.1-0.1,0.1-0.1,0.1-0.2c0,0.1-0.1,0.1-0.1,0.2
							c0.7-0.4,0.9-1.3,0.5-2c-0.3-0.4-0.7-0.7-1.2-0.7c-1.2-0.1-2.3,0.7-2.4,1.9C149.4,99.6,149.4,99.9,149.5,100.2z"/>
						<path id="_Path_134" class="st9" d="M146.9,45.2c0.2,0.2,0.5,0.2,0.7,0c0.1-0.1,0.2-0.3,0.1-0.5c-1.3-4.2-5.3-7.3-8.8-9.6
							c-1.1-0.7-2,1-1,1.7c1.8,1.2,3.4,2.5,4.9,4.1C144.2,42.3,145.4,43.9,146.9,45.2z"/>
						<path id="_Path_135" class="st9" d="M150.6,66.4c2.1-1.8,2-5.5,1.6-7.9c-0.2-1.6-1-4.5-3.1-4.4c-0.5,0-0.9,0.3-1,0.8l-0.1,0.2
							c-0.1,0.5,0.1,1,0.6,1.1c0,0,0.1,0,0.1,0c0-0.1,0-0.1,0-0.1l1.2-0.5l-0.1,0.2c-0.2,0.3-0.6,0.5-1,0.4
							c-0.1,0.7-0.2,4.3-0.3,4.7c-0.2,1.6-0.8,3.2-0.4,4.8c0.2,0.8,1.1,1.2,1.9,1C150.2,66.7,150.4,66.6,150.6,66.4z"/>
						<path id="_Path_136" class="st9" d="M56.9,91.3c-0.3-0.5-0.6-1-0.9-1.6c-0.4-0.8-1.4-1.1-2.2-0.7c-0.7,0.4-1,1.2-0.8,2
							c0.2,0.9,0.6,1.7,1,2.5c0.4,0.9,1.1,1.6,1.9,2.1c0.9,0.5,2,0.1,2.5-0.8c0.3-0.5,0.3-1.2,0-1.7C57.9,92.5,57.4,91.9,56.9,91.3z
							"/>
						<path id="_Path_137" class="st9" d="M128.6,12.1c-1.2-0.5-2,1.5-0.9,2c1.8,0.8,3.6,1.8,5.3,2.9c1.6,1.3,3.2,2.4,4.9,3.5
							c0.5,0.2,1.1-0.1,1.3-0.6c0.1-0.2,0.1-0.5,0-0.7C137,15.7,132.3,13.6,128.6,12.1z"/>
						<path id="_Path_138" class="st9" d="M118.5,9.7L118.5,9.7L118.5,9.7C118.2,9.7,118.6,9.7,118.5,9.7
							C118.6,9.7,118.6,9.7,118.5,9.7c0.2,0,0.5,0,0.7,0h0.1c-0.2,0,0.6-0.1,0,0h0.1c0.9,0,1.6-0.7,1.5-1.6c0-0.1,0-0.2,0-0.4
							c-0.3-1.2-1.5-2-2.7-1.8c-1.1,0-1.9,0.9-1.9,2c0,0.1,0,0.1,0,0.2c0.1,1,1.1,1.8,2.1,1.6C118.3,9.7,118.4,9.7,118.5,9.7z"/>
						<path id="_Path_139" class="st9" d="M121.6,81.8c0.2,0.6,0.8,0.9,1.4,0.8c0.1,0,0.2-0.1,0.2-0.1c1.9-1.2,2.4-3.7,2.8-5.7
							c0.2-0.7-0.2-1.4-0.9-1.6c-0.6-0.2-1.1,0.1-1.4,0.6C122.5,77.5,121.1,79.7,121.6,81.8z"/>
						<path id="_Path_140" class="st9" d="M140.9,14.5c0.4-0.3,0.7-0.9,0.7-1.4c-1.7-1.6-3.6-3-5.6-4.3h-0.1c-1.1,0-2,0.9-2,2
							s0.9,2,2,2c0.2,0,0.4,0.1,0.6,0.1c0.2,0.1,0.5,0.2,0.7,0.3c0.4,0.3,0.8,0.7,1.2,1.2C139.1,15.1,140.2,15.1,140.9,14.5z"/>
						<path id="_Path_141" class="st9" d="M121.4,86.8c0,0.3-0.1,0.6-0.2,0.9c-0.1,0.4,0,0.9,0.1,1.3c0.2,0.7,1,1.1,1.7,0.9
							c0.4-0.1,0.8-0.5,0.9-0.9c0.1-0.4,0.2-0.9,0.1-1.3c0-0.3-0.1-0.6-0.2-0.9c-0.2-0.7-0.9-1.1-1.6-0.9
							C121.8,86.1,121.5,86.4,121.4,86.8z"/>
						<path id="_Path_142" class="st9" d="M116.1,80.5c-0.4-0.6-1.2-0.8-1.8-0.5c-1.6,1.1-2.2,2.9-3.1,4.6c-1.1,1.7-2.4,3.2-3.8,4.6
							c-1.3,1.3,0,4.2,2,3.4c2.4-1,4.4-2.8,5.8-5C116.4,85.6,117.5,82.6,116.1,80.5z"/>
						<path id="_Path_143" class="st9" d="M110.3,65.9c0.6,0.7,1.6,0.7,2.3,0.2c0.7-0.6,0.7-1.6,0.2-2.3c0-0.1-0.1-0.1-0.2-0.2
							c-0.5-0.5-1.2-0.7-1.8-0.5l0,0l0.1,0.1h-0.5c0.1,0,0.2-0.1,0.3-0.1c-0.5-0.1-0.9,0.2-1,0.7c0,0.1,0,0.2,0,0.3
							c0-0.1,0-0.2,0.1-0.3v0.5l-0.1-0.2l0,0C109.6,64.7,109.8,65.4,110.3,65.9z"/>
						<path id="_Path_144" class="st9" d="M118.4,9.7"/>
						<path id="_Path_145" class="st9" d="M113,105.9c-1.5,1.9-3.9,3-6.3,2.9c-1.4-0.1-2.7-0.4-3.9-1c-1.1-0.5-2.1-1-3.1-1.6
							c-0.8-0.5-1.5-1-2-1.3l-0.7-0.5l0.6,0.7c0.5,0.6,1.1,1.2,1.7,1.8c0.9,0.8,1.9,1.6,2.9,2.2c1.4,0.8,2.9,1.3,4.4,1.4
							c0.8,0,1.7-0.1,2.5-0.3c0.7-0.2,1.4-0.6,2.1-1c1.1-0.7,1.9-1.7,2.5-2.8c0.4-0.7,0.7-1.5,0.8-2.4c0-0.2,0.1-0.4,0.1-0.7v-0.2
							c0,0,0,0.1-0.1,0.2c-0.1,0.2-0.1,0.4-0.2,0.6C113.9,104.6,113.5,105.3,113,105.9z"/>
					</g>
					<g id="_Group_56">
						<path id="_Path_146" class="st1" d="M124.3,24.2c0.9,0.6,1.8,1.3,2.5,2.1c1,1.2,1.7,2.7,2.8,3.9c1.5,1.6,4,0.3,4.1-1.7
							c0.2-4.6-7.6-12.4-11.4-7.4C121.1,22.6,122.8,24.4,124.3,24.2z"/>
						<path id="_Path_147" class="st1" d="M129.9,5.4c-2.4-1.1-4.9-1.9-7.5-2.4c-1.8-0.4-3.6-0.7-5.4-1.1c1.3,0.9,3,1.1,4.4,1.8
							c1.9,0.9,3.6,2.5,5.7,2.8C128.3,6.7,129.3,6.3,129.9,5.4z"/>
						<path id="_Path_148" class="st1" d="M96.6,125.6c0.5-0.6,0.5-1.4,0-2c-4.6-4.6-0.3-0.9-5.4-2.1c-1.8-0.4-3.8-1.7-5.7-1
							c-0.6,0.2-1.1,0.8-1.1,1.4c0.3,2.7,2.8,3.7,5.1,4.5S94.9,127.4,96.6,125.6z"/>
						<path id="_Compound_Path_" class="st1" d="M104.1,10.3c0.4-0.7,0.3-1.6-0.3-2.2c-0.6-0.5-1.3-0.8-2.1-0.9
							c-0.5,0-1.1,0-1.6,0.2c-0.9,0.2-1.4,1.1-1.3,2c0.1,0.9,0.9,1.6,1.8,1.6c0.2,0,0.3,0,0.4,0h0.1c0.1,0,0.3,0.1,0.4,0.1
							s1,0.1,0.5,0C102.8,11.3,103.6,11,104.1,10.3z M101.1,11C100.9,11,101,11,101.1,11z"/>
						<path id="_Path_149" class="st1" d="M78.8,13.9c0.6,0.4,1.3,0.6,2,0.5c0.7,0,1.3-1.3,1.9-1.6c0.9-0.4,0.9-1.1,0-1.6
							c-0.6-0.4-1.3-0.6-1.9-0.7c-0.7,0-1.4,0.2-2,0.5c-0.8,0.5-1,1.4-0.6,2.2C78.4,13.6,78.6,13.7,78.8,13.9z"/>
						<path id="_Path_150" class="st1" d="M95.5,0c-0.2,1.4,0.3,2.8,1.5,3.6c1.7,1.1,3.8,1.5,5.6,2.2c0.9,0.4,1.8,0.9,2.7,1.2
							c1,0.2,2,0.4,3.1,0.4c2.7,0.3,4.2-3.1,3-5.2c-0.3-0.5-0.6-0.9-1-1.3C105.5,0.2,100.5-0.1,95.5,0z"/>
						<path id="_Path_151" class="st1" d="M165.2,95l-0.5-0.5l-0.3-0.3l0,0l-0.5-0.6c-0.3-0.3-0.6-0.6-1-0.8c-0.8-0.5-1.7-0.9-2.6-1
							c-1.1-0.2-2.1,0.5-2.4,1.6c0,0.1,0,0.2,0,0.3c0,0.1,0,0.2,0,0.3c0,1.1,0.3,2.2,1,3.1c0.9,1.2,2.3,2,3.8,2.2
							c1.4,0.3,2.7-0.5,3.1-1.8C166,96.5,165.8,95.6,165.2,95z"/>
						<path id="_Path_152" class="st1" d="M76.8,9.2c2.4-1,4.6-2.5,6.9-3.6c0.6-0.3,6.7-4.3,6.3-3.5c0.3-0.5,0.3-1.2,0.1-1.7
							c-3.9,0.4-7.8,1.1-11.6,2.3c-1.7,1.3-3,3-3.8,5C74.3,8.9,75.9,9.6,76.8,9.2z"/>
						<path id="_Path_153" class="st1" d="M101.2,124.8l-0.4-0.2c-0.5-0.3-1.2-0.1-1.5,0.4c-0.3,0.5-0.1,1.2,0.4,1.5
							c0.3,0.2,0.8,0.2,1.1,0v-0.9c0.1-0.1,0.2,0.7,0.4,0.7c0.4-0.2,0.5-0.8,0.3-1.2C101.4,124.9,101.3,124.8,101.2,124.8z"/>
						<path id="_Path_154" class="st1" d="M41.2,59.6c0.6-0.1,1.2-0.6,1.4-1.2v-0.1l0.1-0.2c0.2-0.3,0.3-0.7,0.3-1
							c0-0.1,0-0.1,0.1-0.2v-0.1c0.3-0.5,0.3-1.1,0.2-1.6c-0.3-0.9-1.3-1.4-2.2-1.2c-1,0.4-1.7,1.2-1.9,2.2
							c-0.2,0.9-0.1,1.8,0.4,2.6C39.9,59.4,40.5,59.7,41.2,59.6z"/>
						<path id="_Path_155" class="st1" d="M38.1,50.8L38.1,50.8c1.5-1.5,2.2-4,3.1-5.8c1.1-2.1,3-4.5,2.8-7c0-0.9-0.6-1.6-1.4-1.9
							c-2.6,5.3-4.8,10.8-6.8,16.1C36.8,52.4,37.8,51.8,38.1,50.8z"/>
						<path id="_Path_156" class="st1" d="M63.1,13.8c0.5-0.5,1-1.1,1.5-1.6c0.8-0.8,1-2.1,0.6-3.1c0-0.1-0.1-0.2-0.1-0.3
							c-3.5,2.3-6.8,4.9-9.6,8c0.6,1.3,2.1,1.8,3.4,1.2c0.2-0.1,0.4-0.2,0.6-0.4c0.9-0.8,1.8-1.6,2.6-2.5
							C62.3,14.6,62.7,14.2,63.1,13.8z"/>
						<path id="_Path_157" class="st1" d="M51.1,27.1c0.6-0.4,1.1-1,1.4-1.6c0.3-0.7,0.6-1.4,0.9-2.1c0.3-1-0.3-2.1-1.3-2.4
							c-0.1,0-0.1,0-0.2-0.1c-1.2,1.6-2.4,3.2-3.5,4.9V26c0,0.9,0.8,1.5,1.6,1.5C50.5,27.5,50.8,27.3,51.1,27.1z"/>
						<path id="_Path_158" class="st1" d="M164.2,90.7c1.2,0.3,2.5-0.4,2.8-1.6c0-0.2,0.1-0.4,0.1-0.5c-0.3-2.8-2-4.8-3.5-7.1
							c-1.3-2-3.4-4.8-3.8-7.2c-0.1-1.1-1-1.9-2.1-1.8c-1,0.1-1.7,0.8-1.8,1.8c-0.2,1.6-0.3,3.2-0.1,4.9c0.3,1.7,0.9,3.3,1.7,4.7
							C159,86.6,161.1,89.6,164.2,90.7z"/>
						<path id="_Path_159" class="st1" d="M159.8,49.5c-0.2-0.5-0.3-1.1-0.5-1.6c-0.3-0.7-0.7-1.4-1.2-2c-0.9-1-1.8-1.9-3.2-1.2
							c-1.2,0.6-1,2-0.9,3.1c0.1,0.7,0.2,1.4,0.6,2.1c0.3,0.5,0.5,1,0.8,1.5C156.6,53.8,160.7,52.2,159.8,49.5z"/>
						<path id="_Path_160" class="st1" d="M147.4,24.3c-1.6,2.3,0.2,5.1,1.3,7.1c0.4,0.8,0.8,1.6,1.1,2.4c0.2,0.6,0.5,1.1,0.7,1.7
							c0.3,0.5,0.9,0.9,1.1,1.3c1.1,1.8,3.5,2.4,5.3,1.2c0.6-0.4,1.1-0.9,1.4-1.5c-0.3-0.5-0.5-1.1-0.8-1.6
							c-2.1-4.4-4.7-8.6-7.5-12.5C149,22.7,148,23.4,147.4,24.3z"/>
						<path id="_Path_161" class="st1" d="M142.7,121.3c-1.5-0.3-3,0.1-4.6,0.3c-1.6,0.2-3.2,0.2-4.9,0.1c-2.1-0.1-2.4,3.1-0.5,3.6
							c1.3,0.4,9.9-0.5,10.6-1.2c0.6-0.7,0.6-1.7-0.1-2.4C143.2,121.5,143,121.4,142.7,121.3z"/>
						<path id="_Path_162" class="st1" d="M170.8,98.2c0.9,0.9,2.2,1.2,3.4,0.9c0.8-0.2,1.5-0.9,1.7-1.7l0,0c0,0,0,0,0-0.1l0,0
							c0.2-0.5,0.2-1.1,0-1.6c0-0.2,0-0.5,0-0.5v0.4c-0.3-0.8-0.9-1.5-1.6-2c-0.8-0.7-2-0.9-3-0.6c-1.1,0.3-1.8,1.3-1.8,2.4
							C169.4,96.6,169.9,97.6,170.8,98.2z"/>
					</g>
				</g>
			</g>
		</g>
	</g>
</g>
</svg>
