<svg xmlns="http://www.w3.org/2000/svg" viewBox="0 0 170.38 208.56"><defs><style>.cls-1{fill:#1d262d;}.cls-1,.cls-9{opacity:0.4;isolation:isolate;}.cls-2{fill:#ed4624;}.cls-3{fill:#f9fbfc;}.cls-4{fill:#dcee69;}.cls-5{fill:#c0573c;}.cls-6,.cls-9{fill:#661c0a;}.cls-7,.cls-8{fill:none;stroke:#661c0a;stroke-linecap:round;stroke-linejoin:round;}.cls-7{stroke-width:1.98px;}.cls-8{stroke-width:1.01px;}</style></defs><title>Asset12</title><g id="Layer_2" data-name="Layer 2"><g id="OBJECTS"><path class="cls-1" d="M10.61,193.67c-.13-8.84,35.53-16.53,79.65-17.16s80,6,80.12,14.85-35.53,16.52-79.65,17.16S10.74,202.51,10.61,193.67Z"/><path class="cls-2" d="M28,92.34S31.21,56.51,44.37,33.6,89.5-16.52,119,12.74s31.07,67.81,30.39,84.59-10.21,40.6-61,40.37C27.94,137.43,28.94,112.07,28,92.34Z"/><path class="cls-2" d="M62,131.87,61.9,178s-22.66,8.43-28.84,15.28,17.12-2.24,22.65-5c0,0-10.14,5.27-14.88,11.46s28.57-7.11,35.16-12l1.71-53.59Z"/><path class="cls-2" d="M100.61,133.58l-.39,55.57s29.23,11.2,42.4,8.43-7-6.85-14.62-9.09c0,0,15.81,4,21.34,2.51s-18.18-8.56-34.64-13.3l1.45-47.41Z"/><path class="cls-2" d="M34.41,67.27s-21.71,23.18-28,36.17-17.31,19.74,20.86,19.69c0,0-4.88,6.65-5.32,11.88s6-1.42,8.06-5.32a27.85,27.85,0,0,0-.89,9c.41,4.52,6.11-4.13,6.94-8.41,0,0,.37,7,2.49,10.09s7.64-17.16,4-23.33-30.47-.47-30.4-3S35,81.16,35,81.16Z"/><path class="cls-2" d="M144.92,110.25s2.29,32.57,17,25.42,5.7-21.82,1-29.83c0,0,5.7-9.09,3.52-13.69a5.52,5.52,0,0,0-6.55-3.28s-3.62-6.83-7.43-5.7-3.64,5.56-3.64,5.56-6.85-5.76-8,2.77c0,0-8.73-5-7.34,4.71C135.52,111,144.92,110.25,144.92,110.25Z"/><path class="cls-3" d="M63.32,54.24c0-11.9,10.29-21.54,23-21.54s23,9.64,23,21.54S99,75.79,86.31,75.79,63.32,66.14,63.32,54.24Z"/><path class="cls-4" d="M85,85.74s-25.49,2.77-34.35,15.51c-9.16,13.17,3,20,24.11,15.74,18.83-3.83,25.73-.31,36.34-.22s20.24-.3,22.41-11.73S106.21,82,85,85.74Z"/><path class="cls-5" d="M71,54.61c0-8,7-14.53,15.71-14.53s15.73,6.51,15.73,14.53-7,14.53-15.73,14.53S71,62.64,71,54.61Z"/><path class="cls-6" d="M78.19,56c0-4.9,4.29-8.87,9.59-8.87s9.6,4,9.6,8.87-4.3,8.87-9.6,8.87S78.19,60.89,78.19,56Z"/><path class="cls-3" d="M74.15,49.83a6.26,6.26,0,1,1,6.25,6.43A6.34,6.34,0,0,1,74.15,49.83Z"/><path class="cls-6" d="M63.43,26.77l-4.88,8.87S72.23,45.85,86.6,46,116.06,36,116.06,36L111,25.71s-12.44,5.6-24.12,5.76S63.43,26.77,63.43,26.77Z"/><path class="cls-7" d="M89.69,85.13c.5,7.39-.15,18.86.08,30.13"/><path class="cls-7" d="M66.77,90.25c2.08,6.31,4.47,18,6.19,27.11"/><path class="cls-7" d="M114.71,88.46a139.78,139.78,0,0,0-5.15,28.29"/><path class="cls-7" d="M77.18,123.27s16.76-2.65,26-1"/><path class="cls-8" d="M162.94,105.6a30.75,30.75,0,0,1-6.24,3.66s.36,9.11,5.38,16.36"/><path class="cls-8" d="M159.57,88.88a13.24,13.24,0,0,1,1.5,5.31"/><path class="cls-9" d="M62,135.34s5.23,2.34,15.58,2l-.32,8.32s-7.46,4.82-15.29.62Z"/><path class="cls-9" d="M43.4,128.85s.16-12.8-12.27-14.91c0,0,14.24-1.34,17,17.27Z"/><path class="cls-9" d="M27.31,123.13l1.61-3.25A18.81,18.81,0,0,0,19,123Z"/><path class="cls-9" d="M162.76,105.85a68.81,68.81,0,0,1,4.55,8.31s-4.72,9-6.16,9.78c0,0-5-8.88-4.41-14.58C156.74,109.36,161.64,107.76,162.76,105.85Z"/><path class="cls-9" d="M135.11,99.82s1.61,11.15,10,10.48l.37,3.44s-3,6.46-6.77,9.14C138.68,122.88,135,109.48,135.11,99.82Z"/><path class="cls-8" d="M145.2,113.58l-.29-3.4s-8.76.34-10.78-12.92,5.7-6.69,6.86-5.53c0,0-.17-10.27,7.55-3.46l.87-2.71"/><path class="cls-9" d="M100.56,137.19A76.24,76.24,0,0,0,116,134.68l-.32,8.58s-10.82,3.32-15,1.44Z"/></g></g></svg>