<?xml version="1.0" encoding="utf-8"?>
<!-- Generator: Adobe Illustrator 22.1.0, SVG Export Plug-In . SVG Version: 6.00 Build 0)  -->
<svg version="1.1" id="Layer_1" xmlns="http://www.w3.org/2000/svg" xmlns:xlink="http://www.w3.org/1999/xlink" x="0px" y="0px"
	 viewBox="0 0 201 167.7" style="enable-background:new 0 0 201 167.7;" xml:space="preserve">
<style type="text/css">
	.st0{display:none;opacity:0.4;fill:#1D262D;enable-background:new    ;}
	.st1{fill:#9F4F05;}
	.st2{fill:#E6A21A;}
	.st3{fill:#432911;}
	.st4{fill:none;stroke:#9F4F05;stroke-width:1.01;stroke-linecap:round;stroke-linejoin:round;}
	.st5{fill:#DCEE69;}
	.st6{fill:#F9FBFC;}
	.st7{opacity:0.4;fill:#432911;enable-background:new    ;}
</style>
<title>Asset11</title>
<g id="Layer_2_1_">
	<g id="OBJECTS">
		<path class="st0" d="M24.6,152.8c-0.1-8.9,35.5-16.5,79.7-17.2s80,6,80.1,14.9s-35.5,16.5-79.7,17.2S24.8,161.7,24.6,152.8z"/>
		<path class="st1" d="M24.1,0c-2.4-0.5-11.3,34.1-5.5,49.9c4,11,12.1,15,29.3,9.2l2.2-27.1c0,0-18.5,6.2-21.4-3.4
			C24.4,14.5,26.6,0.5,24.1,0z"/>
		<path class="st1" d="M160.6,35.7c0,0,19.2,2.8,21.6-6.3C185.1,18,185,12,185,12l2.3,10.9l2.9-3.3c0,0,5.4,16.8,1.4,27.1
			c-3.5,8.9-13.8,19.8-32.1,12.2L160.6,35.7z"/>
		<path class="st2" d="M61.5,19.5c0,0,47.9-4.8,73.7-0.6s25.4,4.2,29.4,17.3c5,16.1,0.5,35,0.5,35c0,8-2.5,21.2-15,25.2
			c-39.2,12.2-90.4-1.5-90.4-1.5c-8,0-14.7-9.4-17.4-19.3C40,67,40.4,54.5,43,38.2C45.6,22.2,53.5,19.5,61.5,19.5z"/>
		<path class="st2" d="M80.4,96.7l3.7,43.4c0,0-22.6,4-26,10.2s10.1-0.7,13.4-1.6c0,0-7.4,3.4-9.7,8.3s13.3-4.2,18.1-6.1
			c0,0-6.9,3.7-9.8,9.4s23.4-8.5,25.7-10.5s-2.3-31.2-2-52.8L80.4,96.7z"/>
		<path class="st2" d="M128.4,95.1l-2.8,43.7c0,0,22.6,4,26,10.2s-10.1-0.7-13.4-1.6c0,0,7.4,3.4,9.7,8.3s-13.3-4.2-18.1-6.1
			c0,0,6.9,3.7,9.8,9.4s-23.4-8.5-25.7-10.5s1.4-31.8,1.2-53.4L128.4,95.1z"/>
		<path class="st2" d="M140.9,95.8c0,0,12.2,28.4,25.5,18.6s18.9-20.5,18.9-20.5s3.8,2.1,8.4-1.6s7.4-7.6,7.1-8.4
			c-0.6-1.6-5.9,1.6-5.9,1.6s7-7.1,5.9-8.9s-9,4.9-9,4.9s6.3-8.6,5.3-10s-9,6.2-9,6.2s4.6-8.1,3.6-9.7s-10.5,8.4-10.5,8.4
			c-4.4-5,1.4-5.9-0.5-6.3c-3-0.6-14.4,3.7-3.1,14.3c0,0-9.8,16.9-15,17.6s-10.3-11.5-10.3-11.5L140.9,95.8z"/>
		<path class="st2" d="M57.3,89.3c0,0-14.1,23-27.3,13.2S12.4,83.8,12.4,83.8s-4.3,1-7.7-3.8s-5.1-9.3-4.6-10c1-1.4,5.2,3.1,5.2,3.1
			s-4.9-8.8-3.4-10.2S9.3,70,9.3,70s-3.8-9.9-2.4-11s7,8.4,7,8.4s-2.3-9-0.8-10.3S20.9,68,20.9,68c5.6-3.6,0.2-6,2.1-5.9
			c3,0.2,12.9,7.4-0.9,14.6c0,0,6.2,12.6,11.4,13.3s14.5-12.6,14.5-12.6L57.3,89.3z"/>
		<path class="st3" d="M89.1,76.6c0,0,13.5,2.6,24.6,1.6s20.2-2.7,26.1-3s11.4,0.9,8.1,5.5s-8.9,9.3-27.1,9.6s-20.4,0.5-32.6-1
			S64.8,86,60.5,82.5s-3.1-7.7,3.6-8.7S89.1,76.6,89.1,76.6z"/>
		<path class="st3" d="M95.8,69.6c0-1.8,1.1-3.2,2.4-3.2s2.4,1.4,2.4,3.2s-1.1,3.3-2.4,3.3S95.8,71.4,95.8,69.6z"/>
		<path class="st3" d="M104.4,69.2c0-1.9,1.1-3.5,2.5-3.5s2.5,1.6,2.5,3.5s-1.1,3.5-2.5,3.5S104.4,71.1,104.4,69.2z"/>
		<path class="st4" d="M181.2,76.5c2.9,1.7,4.2,5.2,3.1,8.3"/>
		<path class="st4" d="M20.7,68c0,0-5.1,3.5-3.4,9.4"/>
		<path class="st4" d="M186.9,80.7l3.5,8.6"/>
		<path class="st4" d="M14.3,69.4l-6.4,8.4"/>
		<path class="st5" d="M61.9,74c0,0,1.5,5.4,2.7,6.2s1.9-5.3,2.2-6.8L61.9,74z"/>
		<path class="st5" d="M80.9,74.6c0,0,1.3,6.4,2.5,7.2s2-5.3,2.3-6.8L80.9,74.6z"/>
		<path class="st5" d="M97,76.7c0,0,1.5,6.5,2.7,7.3s2.4-5.7,2.7-7.3L97,76.7z"/>
		<path class="st5" d="M103,77.1c0,0,1.1,8.5,2.3,9.3s2.7-7.6,3-9.2L103,77.1z"/>
		<path class="st5" d="M75.9,88.7c0,0-1.1-8.5-2.3-9.3s-2.7,7.6-3,9.2L75.9,88.7z"/>
		<path class="st5" d="M95.8,92.3c0,0-1.1-8.6-2.3-9.4S89.6,92,89.6,92L95.8,92.3z"/>
		<path class="st5" d="M119.1,92.7c0,0-1.9-10.2-3.1-11s-3.9,9.1-4.2,10.7L119.1,92.7z"/>
		<path class="st5" d="M136.7,89.5c1.1,0.5-2.1-9.3-3.3-10.1s-1.4,9.4-1.7,11C131.8,90.4,135.6,89,136.7,89.5z"/>
		<path class="st5" d="M121.3,76.2c0,0,1.1,6.6,3.4,7s1.4-6.1,1.8-7.7L121.3,76.2z"/>
		<path class="st6" d="M114.7,48.9c0-8,7.4-14.5,16.5-14.5s16.6,6.5,16.6,14.5s-7.4,14.5-16.6,14.5S114.7,57,114.7,48.9z"/>
		<path class="st6" d="M59.1,48.8c-0.8-7.4,6.4-14,16.2-14.9s18.3,4.5,19.2,11.9s-6.4,14-16.2,14.8S59.9,56.2,59.1,48.8z"/>
		<path class="st1" d="M147.8,48c-1.8,6.3-8.9,11.7-16.7,11.7c-7.9,0-14.6-6.2-16.2-12.7c-0.3,1.6-0.5,3.2-0.5,4.8
			c0,8,7.5,12.9,16.6,12.9S148,59.9,148,51.8C148.1,50.6,148,49.3,147.8,48z"/>
		<path class="st1" d="M94.3,44.9c-1.3,6-8.3,11.6-16.6,12.3c-8.5,0.7-16.2-4.4-18.6-10.3c-0.2,1.5-0.2,3,0,4.4
			c0.8,7.4,9.3,11.2,19.1,10.4s17.5-5.8,16.7-13.2C94.9,47.3,94.7,46.1,94.3,44.9z"/>
		<path class="st3" d="M124.7,60.8c0,0,3-22,5.1-22.1s4.1,19.8,4.8,21.4S124.7,60.8,124.7,60.8z"/>
		<path class="st3" d="M73.7,59.5c0,0,1.4-20.4,3.7-20.7s2.2,19.9,2.2,19.9C78.7,61.9,73.7,59.5,73.7,59.5z"/>
		<path class="st7" d="M80.6,99c0,0,9.4,1.5,13.3,1.6l0.1,9.9l-12.3,0.7C81.7,111.2,80.8,101.7,80.6,99z"/>
		<path class="st7" d="M44.6,82c0.8,1.4,1.4,6.3,9.8,11.4c0,0-3,3.8-3.5,3.7c-8.3-2.4-10.8-10.3-10.8-10.3
			C41.8,85.3,43.3,83.7,44.6,82z"/>
		<path class="st7" d="M115.1,101.3c4.3,0,8.7-0.2,13-0.7l-0.5,7.5c0,0-10,1.1-12.7,0.6L115.1,101.3z"/>
		<path class="st7" d="M142.2,98.4c4.1-1.1,8.2-2.4,12.1-4c0,0,2.3,3.9,3.6,5.1c0,0-6.1,4.2-11.8,5.5
			C144.5,103,143.2,100.8,142.2,98.4z"/>
	</g>
</g>
</svg>
