<svg xmlns="http://www.w3.org/2000/svg" viewBox="0 0 210.67 186.45"><defs><style>.cls-1{isolation:isolate;}.cls-2{fill:#f39600;}.cls-3{fill:#472055;}.cls-10,.cls-4{fill:#6fd1de;}.cls-11,.cls-4{opacity:0.5;}.cls-14,.cls-5{fill:#f52b5d;}.cls-6{fill:#b52054;}.cls-14,.cls-16,.cls-6{fill-rule:evenodd;}.cls-7{fill:#fff;}.cls-8{fill:#0463ac;}.cls-8,.cls-9{mix-blend-mode:screen;}.cls-9{fill:#fffad3;opacity:0.2;}.cls-10,.cls-13,.cls-15,.cls-16{opacity:0.3;}.cls-10,.cls-13,.cls-16{mix-blend-mode:multiply;}.cls-12{fill:#35a8e0;}.cls-15{fill:#9f1645;}.cls-16{fill:#8b2054;}.cls-17{fill:#ff5f8d;}</style></defs><title>Asset13</title><g class="cls-1"><g id="Layer_2" data-name="Layer 2"><g id="OBJECTS"><g id="_Group_" data-name="&lt;Group&gt;"><path id="_Path_" data-name="&lt;Path&gt;" class="cls-2" d="M210.67,177.78c0,4.79-47.16,8.67-105.34,8.67S0,182.57,0,177.78s47.16-8.66,105.33-8.66S210.67,173,210.67,177.78Z"/><g id="_Group_2" data-name="&lt;Group&gt;"><g id="_Group_3" data-name="&lt;Group&gt;"><path id="_Path_2" data-name="&lt;Path&gt;" class="cls-3" d="M51.8,137.18s-9.71,5.87-3.61,18.52A84.18,84.18,0,0,0,61.75,176s-7.46-2.71-9.49.67c0,0,12.42,2.72,16.94,4.3,0,0-21.69-27.79-7.68-42C61.52,139,52.71,135.14,51.8,137.18Z"/><g id="_Group_4" data-name="&lt;Group&gt;"><path id="_Path_3" data-name="&lt;Path&gt;" class="cls-4" d="M63.43,172.09c-.51-.91-1-1.87-1.53-2.88l-.17,0a18.47,18.47,0,0,0-2.54-.24A18,18,0,0,0,57,169c-.31,0-.59.07-.84.11l1.2,1.63c.41.2.86.39,1.35.58a12.62,12.62,0,0,0,2.56.7A7.31,7.31,0,0,0,63.43,172.09Z"/><path id="_Path_4" data-name="&lt;Path&gt;" class="cls-4" d="M52.37,148a10.35,10.35,0,0,1,2.84.88,17.2,17.2,0,0,1,1.65.91,19.12,19.12,0,0,1,.3-2.41c-.19-.18-.38-.37-.6-.55a7.72,7.72,0,0,0-3.72-1.7,9.4,9.4,0,0,0-4,.26,12.5,12.5,0,0,0-2.64,1,12.54,12.54,0,0,0-.06,1.52l.26,0A28.1,28.1,0,0,1,52.37,148Z"/><path id="_Path_5" data-name="&lt;Path&gt;" class="cls-4" d="M51.2,154.68c1.28-.33,3,0,4.12,0l1.72-.08,0-.24a7.83,7.83,0,0,0-1.27-1.07,8.46,8.46,0,0,0-8.74-.59c.16.51.35,1,.57,1.58C48.61,154.43,49.85,154.6,51.2,154.68Z"/><path id="_Path_6" data-name="&lt;Path&gt;" class="cls-4" d="M55.48,161.37a11.72,11.72,0,0,0,3.08-.18c-.27-.83-.51-1.67-.73-2.52-.65-.06-1.37-.14-2.17-.2a40.6,40.6,0,0,0-5.39.06l-.62.05c.29.54.57,1.08.86,1.6A15.24,15.24,0,0,0,55.48,161.37Z"/><path id="_Path_7" data-name="&lt;Path&gt;" class="cls-4" d="M64.42,173.83a15.64,15.64,0,0,0-3.63-.29c-.48,0-.89,0-1.18.06.83,1,1.47,1.72,1.82,2.1a8,8,0,0,0,2.41,1,7.82,7.82,0,0,0,2.43.13C65.7,175.93,65.07,174.93,64.42,173.83Z"/><path id="_Path_8" data-name="&lt;Path&gt;" class="cls-4" d="M58.5,166.88a9.3,9.3,0,0,0,2.19-.21c-.4-.88-.78-1.78-1.13-2.7h-1c-2.11-.07-4.24-.17-5.78-.17h-.16c.44.72.88,1.42,1.32,2.08A13.48,13.48,0,0,0,58.5,166.88Z"/></g></g><g id="_Group_5" data-name="&lt;Group&gt;"><path id="_Path_9" data-name="&lt;Path&gt;" class="cls-3" d="M35.65,115s-10-5.28-17.73,6.48a84.23,84.23,0,0,0-10.4,22.11S6,135.83,2,135.84c0,0,4.1,12,5.08,16.72,0,0,12.59-32.93,32-28.29C39.12,124.27,37.86,114.74,35.65,115Z"/><g id="_Group_6" data-name="&lt;Group&gt;"><path id="_Path_10" data-name="&lt;Path&gt;" class="cls-4" d="M11.76,143q.78-1.37,1.68-2.79a.77.77,0,0,0-.07-.16,18.75,18.75,0,0,0-1.1-2.3,18.33,18.33,0,0,0-1.2-1.81c-.19-.25-.37-.47-.53-.66-.28.65-.54,1.27-.78,1.87.05.45.11.93.2,1.45a14.11,14.11,0,0,0,.72,2.56A7.73,7.73,0,0,0,11.76,143Z"/><path id="_Path_11" data-name="&lt;Path&gt;" class="cls-4" d="M26.69,121.09a10.23,10.23,0,0,1,.72,2.88,17.33,17.33,0,0,1,.07,1.88,20.8,20.8,0,0,1,2.22-1c.06-.26.12-.52.16-.8a7.57,7.57,0,0,0-.47-4.06,9.31,9.31,0,0,0-2.26-3.26A13.85,13.85,0,0,0,24.87,115a13.7,13.7,0,0,0-1.34.73c0,.08.1.14.16.22A27.9,27.9,0,0,1,26.69,121.09Z"/><path id="_Path_12" data-name="&lt;Path&gt;" class="cls-4" d="M20.35,123.55c.95.92,1.52,2.57,2.13,3.52.43.69.79,1.2.95,1.44l.19-.15a8.15,8.15,0,0,0,.27-1.64,8.51,8.51,0,0,0-4-7.79c-.36.41-.71.84-1.06,1.3C19.22,121.2,19.73,122.35,20.35,123.55Z"/><path id="_Path_13" data-name="&lt;Path&gt;" class="cls-4" d="M16.83,130.67a12.14,12.14,0,0,0,1.75,2.55c.58-.66,1.17-1.31,1.78-1.94-.28-.59-.58-1.24-.94-1.95a41.31,41.31,0,0,0-2.84-4.59l-.37-.5c-.31.52-.63,1.05-.92,1.56A15.67,15.67,0,0,0,16.83,130.67Z"/><path id="_Path_14" data-name="&lt;Path&gt;" class="cls-4" d="M10.79,144.77a15.54,15.54,0,0,0-1.63-3.27c-.25-.41-.49-.74-.66-1-.43,1.23-.71,2.15-.86,2.65a7.62,7.62,0,0,0,1.55,4.71C9.65,146.94,10.18,145.89,10.79,144.77Z"/><path id="_Path_15" data-name="&lt;Path&gt;" class="cls-4" d="M13.68,136.1A9.66,9.66,0,0,0,15,137.87c.55-.8,1.13-1.59,1.73-2.37-.17-.27-.35-.55-.51-.85-1-1.84-2.05-3.71-2.84-5l-.09-.14c-.39.76-.76,1.49-1.1,2.21A13.48,13.48,0,0,0,13.68,136.1Z"/></g></g><g id="_Group_7" data-name="&lt;Group&gt;"><path id="_Path_16" data-name="&lt;Path&gt;" class="cls-3" d="M142.63,134.4s11.17,2,10,16a84,84,0,0,1-5.43,23.83s6-5.19,9.11-2.75c0,0-10.64,7-14.3,10.05,0,0,10.37-33.69-7.79-42C134.19,139.55,141.06,132.83,142.63,134.4Z"/><g id="_Group_8" data-name="&lt;Group&gt;"><path id="_Path_17" data-name="&lt;Path&gt;" class="cls-4" d="M144.2,171.17c.15-1,.29-2.12.4-3.23l.15-.09a17.27,17.27,0,0,1,2.29-1.12,15.55,15.55,0,0,1,2.06-.69l.82-.2q-.27,1-.54,1.95-.47.5-1,1a12.89,12.89,0,0,1-2.14,1.57A7.45,7.45,0,0,1,144.2,171.17Z"/><path id="_Path_18" data-name="&lt;Path&gt;" class="cls-4" d="M146,144.71a10,10,0,0,0-2.34,1.82,17.29,17.29,0,0,0-1.22,1.44,20.84,20.84,0,0,0-1.14-2.14c.11-.24.23-.48.37-.73a7.61,7.61,0,0,1,2.87-2.91,9.36,9.36,0,0,1,3.78-1.17,13.11,13.11,0,0,1,2.84,0,12.63,12.63,0,0,1,.6,1.39l-.25.08A27.35,27.35,0,0,0,146,144.71Z"/><path id="_Path_19" data-name="&lt;Path&gt;" class="cls-4" d="M149.43,150.55c-1.32.14-2.78,1.09-3.85,1.47l-1.63.54-.06-.24a7.26,7.26,0,0,1,.8-1.45,8.45,8.45,0,0,1,8-3.66c0,.54,0,1.09,0,1.68C151.76,149.39,150.66,150,149.43,150.55Z"/><path id="_Path_20" data-name="&lt;Path&gt;" class="cls-4" d="M147.81,158.32a11.93,11.93,0,0,1-2.95.94c0-.88-.11-1.76-.21-2.63.59-.29,1.23-.62,1.95-1a41.26,41.26,0,0,1,5.07-1.86l.59-.17c-.07.61-.15,1.22-.23,1.8A15.31,15.31,0,0,1,147.81,158.32Z"/><path id="_Path_21" data-name="&lt;Path&gt;" class="cls-4" d="M143.89,173.15a15.81,15.81,0,0,1,3.29-1.57c.45-.16.84-.28,1.12-.36-.42,1.23-.76,2.13-1,2.61a8,8,0,0,1-1.9,1.78,7.87,7.87,0,0,1-2.23,1C143.44,175.56,143.67,174.41,143.89,173.15Z"/><path id="_Path_22" data-name="&lt;Path&gt;" class="cls-4" d="M147,164.54a9.2,9.2,0,0,1-2.12.59c0-1,.09-1.94.09-2.93l.93-.35c1.94-.82,3.9-1.67,5.34-2.21l.15-.06c-.16.83-.32,1.64-.49,2.41A13.45,13.45,0,0,1,147,164.54Z"/></g></g><g id="_Group_9" data-name="&lt;Group&gt;"><path id="_Path_23" data-name="&lt;Path&gt;" class="cls-3" d="M167,111.15s6.93-9,18.82-1.5a84.63,84.63,0,0,1,18.68,15.76s-1.86-7.71,1.74-9.35c0,0,1.29,12.65,2.35,17.32,0,0-25.16-24.68-40.89-12.37C167.74,121,164.92,111.82,167,111.15Z"/><g id="_Group_10" data-name="&lt;Group&gt;"><path id="_Path_24" data-name="&lt;Path&gt;" class="cls-4" d="M200.43,126.64c-.85-.61-1.75-1.23-2.69-1.84a1,1,0,0,1,0-.18,17.84,17.84,0,0,1,.05-2.54,15.94,15.94,0,0,1,.34-2.15c.06-.3.13-.58.2-.82.53.47,1,.93,1.48,1.37.15.44.3.9.43,1.41a13.72,13.72,0,0,1,.41,2.62A7.63,7.63,0,0,1,200.43,126.64Z"/><path id="_Path_25" data-name="&lt;Path&gt;" class="cls-4" d="M177.72,112.93a10.09,10.09,0,0,0,.55,2.92,17.51,17.51,0,0,0,.71,1.74,19.52,19.52,0,0,0-2.42,0,7,7,0,0,1-.48-.66,7.65,7.65,0,0,1-1.27-3.89,9.39,9.39,0,0,1,.7-3.89,13.07,13.07,0,0,1,1.34-2.5,13.37,13.37,0,0,1,1.52.1c0,.09,0,.17,0,.26A27.48,27.48,0,0,0,177.72,112.93Z"/><path id="_Path_26" data-name="&lt;Path&gt;" class="cls-4" d="M184.51,112.52c-.48,1.24-.31,3-.47,4.1-.11.8-.21,1.42-.26,1.7l-.24-.06a7.1,7.1,0,0,1-.92-1.38,8.44,8.44,0,0,1,.4-8.75c.49.22,1,.46,1.5.74C184.55,109.92,184.58,111.18,184.51,112.52Z"/><path id="_Path_27" data-name="&lt;Path&gt;" class="cls-4" d="M190.67,117.53a12,12,0,0,1-.52,3q-1.2-.56-2.43-1c0-.65,0-1.37,0-2.17a41.46,41.46,0,0,1,.67-5.35c0-.22.08-.42.12-.61.51.34,1,.69,1.5,1A15.6,15.6,0,0,1,190.67,117.53Z"/><path id="_Path_28" data-name="&lt;Path&gt;" class="cls-4" d="M202,127.83a16.28,16.28,0,0,1,.12-3.65c.06-.48.13-.88.19-1.17.91.94,1.55,1.66,1.89,2a8.1,8.1,0,0,1,.7,2.51,7.63,7.63,0,0,1-.15,2.42C204,129.33,203.06,128.59,202,127.83Z"/><path id="_Path_29" data-name="&lt;Path&gt;" class="cls-4" d="M195.8,121.15a9.65,9.65,0,0,1-.46,2.16c-.83-.49-1.68-1-2.55-1.43,0-.33.08-.64.11-1,.17-2.1.31-4.23.49-5.76a1,1,0,0,1,0-.16c.66.53,1.31,1,1.92,1.55A13.48,13.48,0,0,1,195.8,121.15Z"/></g></g><g id="_Group_11" data-name="&lt;Group&gt;"><path class="cls-5" d="M81.82,28.88A52.24,52.24,0,0,1,104,4c4.38-2.48,9.34-4.35,14.36-3.94s10.06,3.53,11.51,8.36-.84,9.87-3.06,14.37c3.76-1.31,8.3,2.21,8,6.18,2.75-3.24,8.63-2.9,11,.64,11.85-2.1,24,6.36,28.2,17.63s1.42,24.32-5.13,34.42A5.88,5.88,0,0,1,172.43,89,7,7,0,0,1,175,102.4a10.86,10.86,0,0,1-7.76,20.14c0,2.2-.22,4.53-1.53,6.28s-4,2.64-5.79,1.34c-.19,4.18-4.26,7.41-8.42,7.82s-8.23-1.38-11.71-3.69c-1.23,5.85-8.06,9.82-13.75,8a6.63,6.63,0,0,1-2.52,3.18c-4.68,3.7-10.62,6.19-16.55,5.52s-11.61-5.07-12.56-11a12,12,0,0,1-5.09,1.68c-1.81,0-3.77-1-4.17-2.76-1.77,1.83-3.68,3.75-6.15,4.32s-5.59-.92-5.74-3.45c-5.58,5.22-14.09,5.43-21.72,5-5.77-.35-12.05-1.17-16.06-5.33-5-5.24-4.48-13.54-3.46-20.73-5.27.07-9.11-6.88-6.24-11.31a5.33,5.33,0,0,1-4.29-9.25c-4.88-2.82-9.7-7-10.18-12.66C10.84,80.62,14,76,18.09,73.31c3.36-2.15,7.17-3.06,11-3.79,5-.93,1.69-2.88,1.75-7.14A6.85,6.85,0,0,1,31.51,59c1.62-2.8,5.82-.63,3.05-5.79C32.3,49,30.18,44,32.19,39.61a14.64,14.64,0,0,1,3.7-4.49c4.34-3.9,9.35-7.29,15-8.52s12.19.06,16.15,4.34c-1-1.08,2.35-5.26,3.15-5.89a2.86,2.86,0,0,1,3.63-.12c.88.85.83,2.25.72,3.47.57-1.74,2.24-2.85,3.87-3.67a3.36,3.36,0,0,1,1.72-.5c1.32.09,2.07,1.51,2.57,2.73"/></g><g id="_Group_12" data-name="&lt;Group&gt;"><g id="_Group_13" data-name="&lt;Group&gt;"><path id="_Path_30" data-name="&lt;Path&gt;" class="cls-6" d="M36.11,124.13a7.38,7.38,0,0,0,4.12.63,16,16,0,0,0,2.07-.36l1-.26,1.74-.5c0,.45,0,.88,0,1.32a3,3,0,0,0,0,.31l0,.16a1.76,1.76,0,0,0,0,.31,6.49,6.49,0,0,0,.31,1.17,6.39,6.39,0,0,0,1.15,2,6.22,6.22,0,0,0,3.23,1.94,6.64,6.64,0,0,0,2.55.14,6.36,6.36,0,0,0,.91-.19,6.17,6.17,0,0,1-.88.31,6.72,6.72,0,0,1-2.66.18A6.63,6.63,0,0,1,46,129.45a7,7,0,0,1-1.5-2.14A6.59,6.59,0,0,1,44,126c0-.23-.09-.46-.13-.7l-.09,0,0,0-.1,0c-.33.11-.68.21-1,.31a15.29,15.29,0,0,1-2.24.47,8.3,8.3,0,0,1-4.94-.7,5.63,5.63,0,0,1-3.06-3.74,12,12,0,0,1,.22-4.29,44.31,44.31,0,0,1,1.73-6.74c.32-.93.64-1.77.94-2.49a3.93,3.93,0,0,1,1.15-1.71,1.35,1.35,0,0,1,1.22-.37,1,1,0,0,1,.37.25,1,1,0,0,0-.39-.19,1.23,1.23,0,0,0-1.05.48,3.74,3.74,0,0,0-.87,1.69c-.22.75-.45,1.6-.68,2.55a61,61,0,0,0-1.21,6.71,11.87,11.87,0,0,0-.07,3.8A4.31,4.31,0,0,0,36.11,124.13Z"/></g><g id="_Group_14" data-name="&lt;Group&gt;"><path id="_Path_31" data-name="&lt;Path&gt;" class="cls-6" d="M32.47,61.46a8.94,8.94,0,0,0-1,3.22,3.6,3.6,0,0,0,.73,2.71,4.44,4.44,0,0,0,2.42,1.19c.92.21,1.83.34,2.63.5,3.24.61,5.25,1,5.25,1s-2-.08-5.35-.33c-.83-.07-1.73-.11-2.71-.24a5.36,5.36,0,0,1-3.12-1.32,4.71,4.71,0,0,1-1.24-3.64,9.44,9.44,0,0,1,1.05-3.79,20.49,20.49,0,0,1,9.33-9.1,6.93,6.93,0,0,1,3.9-.8,3.67,3.67,0,0,1,1,.32l.32.19-.35-.13a3.44,3.44,0,0,0-1-.15,6.91,6.91,0,0,0-3.54,1.21A23.51,23.51,0,0,0,32.47,61.46Z"/></g><g id="_Group_15" data-name="&lt;Group&gt;"><path id="_Path_32" data-name="&lt;Path&gt;" class="cls-6" d="M76.41,31.19a14.08,14.08,0,0,1,7.66-4A10.92,10.92,0,0,1,91,28.57a8.44,8.44,0,0,1,3.28,3.34,6.66,6.66,0,0,1,.46,1.18c.09.27.13.42.13.42l-.19-.4A6.33,6.33,0,0,0,94,32a8.33,8.33,0,0,0-3.41-2.82,10.61,10.61,0,0,0-6.36-.81,14,14,0,0,0-6.85,3.83,23.14,23.14,0,0,0-2.24,2.54c-.16.23-.34.44-.49.67l-.23.33-.12.17-.19.3-.77,1.24c-.26.44-.52.88-.78,1.3-.26-1-.51-2.1-.79-3a10.39,10.39,0,0,0-.53-1.34,4.18,4.18,0,0,0-1.59-1.87,2.73,2.73,0,0,0-2.1-.22,4.35,4.35,0,0,0-1.7,1A11.52,11.52,0,0,0,64,35.72c-.37.6-.55.94-.55.94s.13-.36.42-1A11.12,11.12,0,0,1,65.52,33a4.94,4.94,0,0,1,1.83-1.35,3.54,3.54,0,0,1,2.76.07,5.1,5.1,0,0,1,2.18,2.18A12.35,12.35,0,0,1,73,35.36l.09.15,0-.1.09-.17,0-.05.12-.18.24-.36c.15-.25.33-.48.5-.72A20,20,0,0,1,76.41,31.19Z"/></g><g id="_Group_16" data-name="&lt;Group&gt;"><path id="_Path_33" data-name="&lt;Path&gt;" class="cls-6" d="M123.25,33.47c.06,1.12.08,2.22.07,3.29,0,.27,0,.54,0,.8l0,.39c0,.1,0,0,0,.07s0,.1,0,.13l.25-.14A8.32,8.32,0,0,1,125,37.3a17.16,17.16,0,0,1,2.85-.74,18.93,18.93,0,0,1,2.58-.35,4.68,4.68,0,0,1,2.28.41A2.7,2.7,0,0,1,134,38a2.36,2.36,0,0,1,.16,1.37,1.44,1.44,0,0,1-.6.94,1.39,1.39,0,0,0,.44-1,2.15,2.15,0,0,0-.29-1.21,2.32,2.32,0,0,0-1.2-1c-1.16-.46-2.7-.08-4.43.39a19.33,19.33,0,0,0-2.63.88,7.92,7.92,0,0,0-1.25.68,16.35,16.35,0,0,0-2.41,2.41c0-.93.08-1.87.11-2.84l0-.7V36.76c0-1,0-2.12-.11-3.21a24.1,24.1,0,0,0-.46-4.09A3.25,3.25,0,0,0,119.27,27a6.33,6.33,0,0,0-3.26-.11,11.31,11.31,0,0,0-2.86,1,11.64,11.64,0,0,0-3.52,2.69,8.75,8.75,0,0,0-.77,1l-.25.35.2-.39a9.76,9.76,0,0,1,.64-1.07,11.1,11.1,0,0,1,3.35-3.19,10.92,10.92,0,0,1,3-1.29,7.1,7.1,0,0,1,3.87-.08,4.11,4.11,0,0,1,1.92,1.2,5.23,5.23,0,0,1,1.08,2A21.34,21.34,0,0,1,123.25,33.47Z"/></g><g id="_Group_17" data-name="&lt;Group&gt;"><path id="_Path_34" data-name="&lt;Path&gt;" class="cls-6" d="M168.59,84.65c-.1.52-.2,1-.31,1.52l-.09.36,0,.16h0v0h.06l.31,0a2.63,2.63,0,0,1,.42.07,6.52,6.52,0,0,1,1.56.53,7,7,0,0,1,2.39,1.88A6.33,6.33,0,0,1,174.24,94a6.49,6.49,0,0,1-1.11,3,5,5,0,0,1-.54.66l-.2.2.16-.24a4.76,4.76,0,0,0,.42-.72,6.45,6.45,0,0,0,.66-2.92,5.77,5.77,0,0,0-1.57-4A6.12,6.12,0,0,0,170,88.55a5.62,5.62,0,0,0-1.29-.37l-.34,0a3.25,3.25,0,0,0-.46,0c-.47,0-1,0-1.54,0l.33-1.39c.06-.31.13-.61.2-.91.1-.48.2-1,.28-1.46a15.19,15.19,0,0,0,0-6.55,8.37,8.37,0,0,0-2.84-4.39,5.78,5.78,0,0,0-3.37-1.26,1.39,1.39,0,0,0-.93.29.53.53,0,0,0-.17.3.62.62,0,0,1,.13-.35,1.44,1.44,0,0,1,.95-.47,6,6,0,0,1,3.8.89,8.74,8.74,0,0,1,3.61,4.64A14.66,14.66,0,0,1,168.59,84.65Z"/></g><g id="_Group_18" data-name="&lt;Group&gt;"><path id="_Path_35" data-name="&lt;Path&gt;" class="cls-6" d="M165.26,118.6a8.15,8.15,0,0,0-.17-1.8l-.05-.22,0-.11v0a.39.39,0,0,0-.05-.13c-.12-.31-.24-.61-.35-.91s-.25-.58-.36-.86l-.18-.41-.11-.3,1.44.64.33.14.25,0a1.43,1.43,0,0,0,.37.05,2,2,0,0,0,.71-.18,2.88,2.88,0,0,0,1.15-.91,4.35,4.35,0,0,0,.74-2.51,12.92,12.92,0,0,0-.11-1.89c-.05-.44-.07-.68-.07-.68l.22.65a11.05,11.05,0,0,1,.48,1.88,4.68,4.68,0,0,1-.46,3.08,3.75,3.75,0,0,1-1.43,1.42,2.93,2.93,0,0,1-1.09.37l-.13,0h-.06s0,.06,0,.07l0,0,.12.43a8.19,8.19,0,0,1-1.68,7.25,11.55,11.55,0,0,1-3.51,2.51,23.42,23.42,0,0,0-2.43,1.38,6.88,6.88,0,0,0-.81.63,6.07,6.07,0,0,1,.67-.8,16.6,16.6,0,0,1,2.18-1.82,13,13,0,0,0,2.94-2.67A7.9,7.9,0,0,0,165.26,118.6Z"/></g><g id="_Group_19" data-name="&lt;Group&gt;"><path id="_Path_36" data-name="&lt;Path&gt;" class="cls-6" d="M113.72,10.9A5.64,5.64,0,0,1,115,13.24c.06.2.11.4.15.59v0a.92.92,0,0,0,0,.18s0,0,.07,0l.06,0s0,0,.15-.14a6.13,6.13,0,0,1,1.31-1.1,3.51,3.51,0,0,1,1.48-.52,3.18,3.18,0,0,1,1.3.14,2.29,2.29,0,0,1,1.39,1.12,1.63,1.63,0,0,1,.17.59l-.06-.14a1.27,1.27,0,0,0-.23-.38,2.11,2.11,0,0,0-1.38-.72,2.74,2.74,0,0,0-2.16.65,5.6,5.6,0,0,0-1,1.06c-.13.17-.26.35-.38.53l-.46.68-1,1.5c-.13-.66-.27-1.33-.4-2-.07-.35-.15-.7-.24-1.06-.05-.17-.1-.33-.16-.5a4.83,4.83,0,0,0-1-1.77,2.82,2.82,0,0,0-1.75-.92,2.37,2.37,0,0,0-1.7.72,19.81,19.81,0,0,0-2.79,2.79,22.18,22.18,0,0,0-1.58,2.21l-.51.87s.09-.35.31-1a14.88,14.88,0,0,1,1.18-2.52,15.72,15.72,0,0,1,2.57-3.3,5.11,5.11,0,0,1,1.06-.82A3,3,0,0,1,111,9.58,4,4,0,0,1,113.72,10.9Z"/></g><g id="_Group_20" data-name="&lt;Group&gt;"><path id="_Path_37" data-name="&lt;Path&gt;" class="cls-6" d="M100.31,138.94a7.74,7.74,0,0,0,2.86-.75,4.6,4.6,0,0,0,1.08-.78,1.65,1.65,0,0,0,.22-.24,1.29,1.29,0,0,0,.23-.33c.09-.18.19-.35.29-.55l.29-.62,1.43,1,.81.57a9.06,9.06,0,0,0,1.58.85,4.77,4.77,0,0,0,2.84.32,3.41,3.41,0,0,0,1.71-.86,2.41,2.41,0,0,0,.34-.4l.11-.15-.08.17a2.27,2.27,0,0,1-.27.47,3.6,3.6,0,0,1-1.68,1.21,5.09,5.09,0,0,1-3.25.05,8.66,8.66,0,0,1-1.83-.76c-.31-.16-.61-.33-.91-.52l-.2-.12,0,0-.08,0a.55.55,0,0,1-.07.19s-.13.19-.2.29a3,3,0,0,1-.28.34,5.48,5.48,0,0,1-1.38,1.1,8.35,8.35,0,0,1-3.41,1A13.42,13.42,0,0,1,94,139.18a14,14,0,0,1-4.32-3,14.47,14.47,0,0,1-1.28-1.55L88,133.9a1.44,1.44,0,0,0-.42-.46c-.31-.23-.62-.34-.81-.24s-.13.27-.15.26a.42.42,0,0,1,.13-.31,1,1,0,0,1,1,.1,1.79,1.79,0,0,1,.57.45l.54.6a15.7,15.7,0,0,0,1.42,1.31A15.24,15.24,0,0,0,94.47,138,14.07,14.07,0,0,0,100.31,138.94Z"/></g></g><g id="_Group_21" data-name="&lt;Group&gt;"><path id="_Path_38" data-name="&lt;Path&gt;" class="cls-7" d="M143.63,79.21c1.3,7.9-4.34,15.41-12.6,16.77s-16-4-17.3-11.87,4.35-15.41,12.6-16.77S142.33,71.3,143.63,79.21Z"/><path id="_Path_39" data-name="&lt;Path&gt;" class="cls-2" d="M135.86,78.71c.92,5.64-2.61,10.91-7.9,11.78s-10.32-3-11.25-8.64,2.61-10.92,7.9-11.79S134.93,73.06,135.86,78.71Z"/><path id="_Path_40" data-name="&lt;Path&gt;" class="cls-3" d="M131.82,79.37a5.62,5.62,0,1,1-6.51-5A5.81,5.81,0,0,1,131.82,79.37Z"/><path id="_Path_41" data-name="&lt;Path&gt;" class="cls-8" d="M122.2,78.43a2.15,2.15,0,1,1-2.49-1.92A2.22,2.22,0,0,1,122.2,78.43Z"/><path id="_Path_42" data-name="&lt;Path&gt;" class="cls-8" d="M134.65,84.05a3.08,3.08,0,1,1-3.57-2.75A3.18,3.18,0,0,1,134.65,84.05Z"/><path id="_Path_43" data-name="&lt;Path&gt;" class="cls-9" d="M139.66,71.52a15.48,15.48,0,0,0-25.49,6.22c2.4,4.63,8.06,7.38,14.07,6.39C135,83,139.89,77.52,139.66,71.52Z"/><path id="_Path_44" data-name="&lt;Path&gt;" class="cls-10" d="M143.63,79.21a14.52,14.52,0,0,0-11.18-11.67,21.88,21.88,0,0,1,6.25,5c11,12.28-5.09,27.21-16.22,21s-7.11-15.92-7.11-15.92a3.29,3.29,0,0,0-1.19.12,14.07,14.07,0,0,0-.45,6.44C115,92,122.77,97.33,131,96S144.93,87.11,143.63,79.21Z"/></g><g id="_Group_22" data-name="&lt;Group&gt;"><path id="_Path_45" data-name="&lt;Path&gt;" class="cls-7" d="M57.41,83c0,10.64,9,19.27,20.12,19.27S97.65,93.66,97.65,83s-9-19.28-20.12-19.28S57.41,72.37,57.41,83Z"/><path id="_Path_46" data-name="&lt;Path&gt;" class="cls-2" d="M67.5,80.69c0,7.59,5.76,13.75,12.88,13.75s12.88-6.16,12.88-13.75S87.49,66.94,80.38,66.94,67.5,73.09,67.5,80.69Z"/><path id="_Path_47" data-name="&lt;Path&gt;" class="cls-3" d="M72.93,80.69a7.47,7.47,0,1,0,7.45-8A7.71,7.71,0,0,0,72.93,80.69Z"/><path id="_Path_48" data-name="&lt;Path&gt;" class="cls-8" d="M85.33,77.38a2.86,2.86,0,1,0,2.85-3A3,3,0,0,0,85.33,77.38Z"/><path id="_Path_49" data-name="&lt;Path&gt;" class="cls-8" d="M70.22,87.43a4.1,4.1,0,1,0,4.09-4.36A4.23,4.23,0,0,0,70.22,87.43Z"/><path id="_Path_50" data-name="&lt;Path&gt;" class="cls-9" d="M61,72.09a20.56,20.56,0,0,1,34.75,2.66c-2.15,6.59-9,11.41-17.07,11.41C69.49,86.16,62,80,61,72.09Z"/><path id="_Path_51" data-name="&lt;Path&gt;" class="cls-10" d="M57.41,83a19.28,19.28,0,0,1,12.15-17.7,29.06,29.06,0,0,0-7.12,7.87C50.66,91.66,75,107.76,88.21,97.16S94.1,74.77,94.1,74.77a4.34,4.34,0,0,1,1.58-.1,18.67,18.67,0,0,1,2,8.35c0,10.64-9,19.27-20.12,19.27S57.41,93.66,57.41,83Z"/></g><path id="_Path_52" data-name="&lt;Path&gt;" class="cls-3" d="M52.05,81.1s-11.79,32.42,52.21,26.31,45.26-26.95,45.26-26.95,9.47,6.32,10.73,14.11-11.57,36.84-64,35.15S32.26,103,52.05,81.1Z"/><path id="_Path_53" data-name="&lt;Path&gt;" class="cls-2" d="M139.18,115.09c-4.21-2.09-9.09-2.27-13.79-2.1-10.65.39-21.9,2.72-29.58,10.13a18.77,18.77,0,0,0-31.56,1.3c8.17,3,18.79,4.88,32,5.3,22.53.73,37.74-4.23,47.67-10.73A13.79,13.79,0,0,0,139.18,115.09Z"/><path id="_Compound_Path_" data-name="&lt;Compound Path&gt;" class="cls-7" d="M49,99.44a7,7,0,0,1-3.23-8.1,7.75,7.75,0,0,1,5.41-5,17,17,0,0,0,4.68,12.31A6.46,6.46,0,0,1,49,99.44Zm11.39,12c4.53,2.22,10.58-.19,12.73-4.66-8.47-1.64-13.76-4.58-17-7.9C54.17,103.32,56,109.31,60.41,111.47Zm61.11-1.86c4.59,2,10.09,2.75,14.52.4,3.72-2,6.06-6.65,5.05-10.55-5.45,2.51-13.43,4.8-24.94,6.52A15.46,15.46,0,0,0,121.52,109.61ZM156.61,98.4c3.06-4.39-.43-12-3.75-15.28-1-1-2.43-1.64-3.34-2.66,0,0,9.17,10.26-7.33,18.47a14.51,14.51,0,0,0,7.8,2.33C152.49,101.25,155.18,100.45,156.61,98.4ZM96.94,114.48c4.07,2.6,9.56,3.35,13.75,1a9.86,9.86,0,0,0,4.76-9.35c-3.42.5-7.14.94-11.19,1.33-13.25,1.26-23.25.87-30.78-.54.28.06,2.21,5.25,2.83,6.06,5.48,7.21,15.14,3.5,16.35-4.67C92.74,110.75,94.73,113.08,96.94,114.48Zm-17.28,8.29c-3.17.16-6,1.85-8.61,3.73a106.76,106.76,0,0,0,16.07,2.66C87.45,125.52,83.37,122.57,79.66,122.77Zm-26.36-3.9a52,52,0,0,0,16.36,7.25,45.77,45.77,0,0,0,.11-5.62,6.25,6.25,0,0,0-.43-2.39,5.2,5.2,0,0,0-2.69-2.36A11.56,11.56,0,0,0,53.3,118.87Zm43,10.85a117.18,117.18,0,0,0,17.06-.62c-1.68-2.9-3.69-5.57-6.57-7.18a13.26,13.26,0,0,0-11.36-.49,16.51,16.51,0,0,0-8.16,7.74C90.1,129.44,93.1,129.62,96.26,129.72ZM53.21,118.8a13.74,13.74,0,0,0-1.56-10.28A9.75,9.75,0,0,0,43.2,104C44.05,109.53,47.32,114.62,53.21,118.8Zm62.14,10a75.56,75.56,0,0,0,20.77-5.62,11.8,11.8,0,0,0-20.77,5.62Zm41.39-30.34a8,8,0,0,0-2.56,2.41c-1.51,2.55-.29,5.6.22,8.61,3.89-5,5.62-9.76,5.9-13A26,26,0,0,0,156.74,98.51Zm-9.51,10.31a8.68,8.68,0,0,0-6.93,4.26c-1.54,2.7-1.48,6-1.89,9.07a47.13,47.13,0,0,0,14.84-11.22A8.59,8.59,0,0,0,147.23,108.82Z"/><g id="_Group_23" data-name="&lt;Group&gt;" class="cls-11"><path id="_Path_54" data-name="&lt;Path&gt;" class="cls-12" d="M151.73,92.74c-.38-.31-.84-.47-.9-.36s.25.41.45.76a4.07,4.07,0,0,1,.35.72,4.43,4.43,0,0,1,.38.7c.17.38.25.81.37.82s.25-.45.22-.95a3.38,3.38,0,0,0-.22-1A3.47,3.47,0,0,0,151.73,92.74Z"/><path id="_Path_55" data-name="&lt;Path&gt;" class="cls-12" d="M151,98.26a7,7,0,0,0-.41-1.86c-.33-.9-.94-1.63-1-1.56s.29.87.45,1.73a7.6,7.6,0,0,1,.14,1.7,8,8,0,0,1-.07,1.71,8.76,8.76,0,0,1-.31,1.27h.36a5.32,5.32,0,0,0,.53-1.12A7.24,7.24,0,0,0,151,98.26Z"/><path id="_Path_56" data-name="&lt;Path&gt;" class="cls-12" d="M156.2,105.36c.2-.13-.51-1.48-.51-1.48s-1-1.12-1.21-1,.51,1.48.51,1.48S156,105.49,156.2,105.36Z"/><path id="_Path_57" data-name="&lt;Path&gt;" class="cls-12" d="M69.81,108.33s-.47.74-.31.9.91-.3.91-.3.46-.74.3-.9S69.81,108.33,69.81,108.33Z"/><path id="_Path_58" data-name="&lt;Path&gt;" class="cls-12" d="M97.84,122.77c-.09.06.3.84.31,1.65A4.27,4.27,0,0,1,98,125.5a1.09,1.09,0,0,1-.15.39.38.38,0,0,1-.14.19c-.08.08-.45,0-.65-.21a1.62,1.62,0,0,1-.31-1c0-.32,0-.54-.09-.55s-.15.19-.23.52a1.75,1.75,0,0,0,.14,1.33,1.25,1.25,0,0,0,1.41.6,1.12,1.12,0,0,0,.63-.54,3.42,3.42,0,0,0,.09-1.93C98.55,123.4,97.93,122.69,97.84,122.77Z"/><path id="_Path_59" data-name="&lt;Path&gt;" class="cls-12" d="M49.66,107.81c0-.11-.8.09-1.42.58a5,5,0,0,0-1.08,1.14,5.2,5.2,0,0,0-.47,1.5c-.11.78.08,1.54.19,1.52s.15-.73.39-1.38a12.08,12.08,0,0,1,1.37-2.34C49.09,108.3,49.7,107.92,49.66,107.81Z"/><path id="_Path_60" data-name="&lt;Path&gt;" class="cls-12" d="M126.39,122.69c-.08-.2-.11-.45-.22-.49s-.3.19-.38.49a1.86,1.86,0,0,0,0,.62,1.72,1.72,0,0,0,.37.5c.24.21.53.29.6.19s0-.32-.1-.53a1.74,1.74,0,0,1-.06-.41A2,2,0,0,1,126.39,122.69Z"/><path id="_Path_61" data-name="&lt;Path&gt;" class="cls-12" d="M123,124.18c.42.6,1,1,1.07,1s-.3-.64-.54-1.25a23.82,23.82,0,0,1-.69-2.49c-.11-.65-.07-1.33-.18-1.35s-.38.64-.42,1.37a5.64,5.64,0,0,0,.1,1.46A6,6,0,0,0,123,124.18Z"/><path id="_Path_62" data-name="&lt;Path&gt;" class="cls-12" d="M66.67,117.52s.19,1.35.42,1.35.43-1.35.43-1.35-.19-1.36-.43-1.36S66.67,117.52,66.67,117.52Z"/><path id="_Path_63" data-name="&lt;Path&gt;" class="cls-12" d="M147.27,110.08c-.14.18.33.8.33.8s.72.31.86.13-.33-.8-.33-.8S147.42,109.9,147.27,110.08Z"/><path id="_Path_64" data-name="&lt;Path&gt;" class="cls-12" d="M130.12,119.64a5.3,5.3,0,0,1,.58.73,5.43,5.43,0,0,1,.61.7c.28.38.49.83.61.8s.1-.55-.07-1.07a4.41,4.41,0,0,0-.44-.9,13.88,13.88,0,0,0-1.54-.51A3,3,0,0,1,130.12,119.64Z"/><path id="_Path_65" data-name="&lt;Path&gt;" class="cls-12" d="M136,104.19a1.62,1.62,0,0,0-.53-.51,1.49,1.49,0,0,0-.73-.21,1.26,1.26,0,0,0-.81.31,1.4,1.4,0,0,0-.48,1.32c.09.4.34.54.37.5s-.08-.24,0-.52a1.08,1.08,0,0,1,.5-.82.67.67,0,0,1,.76.07,1,1,0,0,1,.24.3.87.87,0,0,1-.07,1.14,1.45,1.45,0,0,1-.95.36c-.31,0-.51-.09-.55,0s.13.25.49.36a1.63,1.63,0,0,0,1.37-.21,1.47,1.47,0,0,0,.65-1.37A1.56,1.56,0,0,0,136,104.19Z"/><path id="_Path_66" data-name="&lt;Path&gt;" class="cls-12" d="M129.83,109a3.94,3.94,0,0,0,1.25,0c.63-.11,1.15-.45,1.1-.55s-.6,0-1.14,0a4.59,4.59,0,0,1-1-.21,4.31,4.31,0,0,1-1-.25c-.5-.18-1-.52-1-.44s.24.59.75,1A4,4,0,0,0,129.83,109Z"/><path id="_Path_67" data-name="&lt;Path&gt;" class="cls-12" d="M144.42,112.28a4.44,4.44,0,0,1,.81,1,4.3,4.3,0,0,1,.66,1c.26.59.29,1.26.41,1.28s.31-.7.17-1.44a4.08,4.08,0,0,0-.56-1.39,4.16,4.16,0,0,0-1.15-.94c-.67-.37-1.42-.39-1.43-.27S144,111.86,144.42,112.28Z"/><path id="_Path_68" data-name="&lt;Path&gt;" class="cls-12" d="M102.18,109.68a17.69,17.69,0,0,0,.64,2.16,19.39,19.39,0,0,0,1.11,2,6,6,0,0,0,1.44,1.73,11.43,11.43,0,0,0-.92-2c-.47-1-.85-2-.85-2s-.47-1-.85-2c-.3-.78-.54-1.57-.69-1.9h-.16A9.18,9.18,0,0,0,102.18,109.68Z"/><path id="_Path_69" data-name="&lt;Path&gt;" class="cls-12" d="M108.73,124.13c-.15-.51-.29-1-.41-1s-.19.56-.19,1.12a9.08,9.08,0,0,0,.08,1.12,8.48,8.48,0,0,0,.4,1c.23.51.53,1,.64.94s0-.59-.07-1.12l-.14-1S108.88,124.64,108.73,124.13Z"/><path id="_Path_70" data-name="&lt;Path&gt;" class="cls-12" d="M77.85,127.3c.24,0,.61-2.38.61-2.38s0-1.29-.1-2L78,123c-.19.7-.37,1.85-.37,1.85S77.62,127.28,77.85,127.3Z"/><path id="_Path_71" data-name="&lt;Path&gt;" class="cls-12" d="M107.37,114.68c.15.28.28.59.4.58s.19-.36.19-.71a3.64,3.64,0,0,0-.08-.71,3.44,3.44,0,0,0-.4-.58c-.23-.28-.52-.49-.61-.42s0,.39.08.7.13.6.13.6Z"/><path id="_Path_72" data-name="&lt;Path&gt;" class="cls-12" d="M103.62,122a11.62,11.62,0,0,1,1.14,2.12,11.44,11.44,0,0,1,.81,2.27c.28,1.19.25,2.44.37,2.45a5.09,5.09,0,0,0,.22-2.54,7.55,7.55,0,0,0-2.07-4.67,8,8,0,0,0-1.07-1l-.62-.1A14.11,14.11,0,0,1,103.62,122Z"/><path id="_Path_73" data-name="&lt;Path&gt;" class="cls-12" d="M80.83,123.54s.19,1.06.42,1.06.43-1.06.43-1.06a5,5,0,0,0-.16-.61l-.51-.1A5.22,5.22,0,0,0,80.83,123.54Z"/><path id="_Path_74" data-name="&lt;Path&gt;" class="cls-12" d="M63.08,122.73a3.41,3.41,0,0,0,1.09-1.86,6.68,6.68,0,0,0,.22-2.2,7,7,0,0,0-.73-2.07c-.55-1-1.43-1.64-1.5-1.54s.6.86,1,1.8a9.6,9.6,0,0,1,.46,3.88C63.46,121.74,63,122.66,63.08,122.73Z"/><path id="_Path_75" data-name="&lt;Path&gt;" class="cls-12" d="M52.09,109.3a9.07,9.07,0,0,0-1,1.39s-.57,1.75-.35,1.84S51.91,111,51.91,111a12.39,12.39,0,0,0,.37-1.41Z"/><path id="_Path_76" data-name="&lt;Path&gt;" class="cls-12" d="M52.85,94.27a2.06,2.06,0,0,0-.47.32,4,4,0,0,0-.63.72,3.82,3.82,0,0,0-.22.94c0,.48.06.94.18.93s.23-.42.4-.79a6.05,6.05,0,0,1,.4-.69,5.38,5.38,0,0,1,.33-.73l.19-.32Z"/><path id="_Path_77" data-name="&lt;Path&gt;" class="cls-12" d="M61.18,106.57a13.08,13.08,0,0,1-.24-1.79,9.48,9.48,0,0,0-.1-1.86,3.92,3.92,0,0,0-.5,1.85,10.62,10.62,0,0,0,0,1.92,10.66,10.66,0,0,0,.57,1.85c.37.89.92,1.68,1,1.62a9.22,9.22,0,0,0-.45-1.81A13.48,13.48,0,0,1,61.18,106.57Z"/><path id="_Path_78" data-name="&lt;Path&gt;" class="cls-12" d="M84.69,114.13s-.08,1.69.15,1.73.69-1.59.69-1.59.09-1.7-.15-1.74S84.69,114.13,84.69,114.13Z"/><path id="_Path_79" data-name="&lt;Path&gt;" class="cls-12" d="M65.66,110.51l-.44-.93c-.22-.48-.42-1-.53-1s-.12.57,0,1.11a7.65,7.65,0,0,0,.23,1.07,7.28,7.28,0,0,0,.54,1,4.86,4.86,0,0,0,.31.41l.41-.08c0-.18-.12-.38-.18-.59C65.8,111,65.66,110.51,65.66,110.51Z"/><path id="_Path_80" data-name="&lt;Path&gt;" class="cls-12" d="M79.32,107.7a4.68,4.68,0,0,0-.09.56,7.8,7.8,0,0,0,.09,2.23,8,8,0,0,0,1,2c.63.94,1.54,1.58,1.61,1.49s-.65-.87-1.09-1.8a7.85,7.85,0,0,1-.65-1.92,8.26,8.26,0,0,1-.32-2,4.68,4.68,0,0,1,0-.53Z"/></g><g id="_Group_24" data-name="&lt;Group&gt;" class="cls-13"><path id="_Path_81" data-name="&lt;Path&gt;" class="cls-4" d="M55.51,101a31.77,31.77,0,0,0,9.17,6.17,32.78,32.78,0,0,0,6.74,2.09,9.07,9.07,0,0,0,1.72-2.41c-8.47-1.64-13.76-4.58-17-7.9A8.5,8.5,0,0,0,55.51,101Z"/><path id="_Path_82" data-name="&lt;Path&gt;" class="cls-4" d="M115.45,106.08c-3.42.5-7.14.94-11.19,1.33-13.25,1.26-23.25.87-30.78-.54a17.69,17.69,0,0,1,1.37,2.95,109.94,109.94,0,0,0,17.12,1,10.67,10.67,0,0,0,.69-2.51,5.84,5.84,0,0,0,.71,2.48,174.41,174.41,0,0,0,22-1.9A9.16,9.16,0,0,0,115.45,106.08Z"/><path id="_Path_83" data-name="&lt;Path&gt;" class="cls-4" d="M115.35,128.85a75.56,75.56,0,0,0,20.77-5.62,10.92,10.92,0,0,0-1.68-1.58,68.05,68.05,0,0,1-18.39,4.86A12.84,12.84,0,0,0,115.35,128.85Z"/><path id="_Path_84" data-name="&lt;Path&gt;" class="cls-4" d="M71.05,126.5a106.76,106.76,0,0,0,16.07,2.66,4.77,4.77,0,0,0-.5-2.56,120.41,120.41,0,0,1-12.48-2.09A30.62,30.62,0,0,0,71.05,126.5Z"/><path id="_Path_85" data-name="&lt;Path&gt;" class="cls-4" d="M152.86,83.12c-1-1-2.43-1.64-3.34-2.66,0,0,9.17,10.26-7.33,18.47q.5.31,1,.6c8.5-5.38,10.95-10.25,10.95-10.25s2.08,7.57,0,11.1a7.89,7.89,0,0,0,.81-.44,5.3,5.3,0,0,0-.79,1,4.92,4.92,0,0,0-.3.61c1.39-.78,3.52-1.9,4.12-1.18.4.48-.84,3.44-4,7.23.14.65.28,1.3.39,2,3.89-5,5.62-9.76,5.9-13a26,26,0,0,0-3.56,1.94l-.54.38a4.83,4.83,0,0,0,.41-.49C159.67,94,156.18,86.45,152.86,83.12Z"/><path id="_Path_86" data-name="&lt;Path&gt;" class="cls-4" d="M49.77,90s.11,4.59,4.48,9.66a6.13,6.13,0,0,0,1.63-.94A17,17,0,0,1,51.2,86.36a7.75,7.75,0,0,0-5.41,5,7.17,7.17,0,0,0,1.12,6.27C46.28,96.19,45.48,92.87,49.77,90Z"/><path id="_Path_87" data-name="&lt;Path&gt;" class="cls-4" d="M153.25,110.93a8.49,8.49,0,0,0-1.39-1,52,52,0,0,1-13.18,9.68c-.08.84-.16,1.69-.27,2.52A47.13,47.13,0,0,0,153.25,110.93Z"/><path id="_Path_88" data-name="&lt;Path&gt;" class="cls-4" d="M113.32,129.1c-.43-.73-.88-1.46-1.36-2.15a125,125,0,0,1-23.28-.12,17.55,17.55,0,0,0-1.45,2.34c2.87.27,5.87.45,9,.55A117.18,117.18,0,0,0,113.32,129.1Z"/><path id="_Path_89" data-name="&lt;Path&gt;" class="cls-4" d="M69.79,123.46c-7.73-2-13.15-4.36-15.38-5.73a10.85,10.85,0,0,0-1.11,1.14,52,52,0,0,0,16.36,7.25C69.73,125.24,69.77,124.35,69.79,123.46Z"/><path id="_Path_90" data-name="&lt;Path&gt;" class="cls-4" d="M53.21,118.8a16.2,16.2,0,0,0,.26-1.72c-3.6-2.79-6.75-8.64-8.52-13A8.58,8.58,0,0,0,43.2,104C44.05,109.53,47.32,114.62,53.21,118.8Z"/><path id="_Path_91" data-name="&lt;Path&gt;" class="cls-4" d="M118.91,108.24c6.71-1.2,12.55-2.76,16.52-4.56a63.5,63.5,0,0,0,5.86-3,8.3,8.3,0,0,0-.2-1.23c-5.45,2.51-13.43,4.8-24.94,6.52A13.22,13.22,0,0,0,118.91,108.24Z"/></g><path id="_Path_92" data-name="&lt;Path&gt;" class="cls-5" d="M115,64.35s-6.93,5.42-2.41,9,16,1.81,24.1-1.8,10.25-6.33,10.25-6.33S119.21,58.32,115,64.35Z"/><path id="_Path_93" data-name="&lt;Path&gt;" class="cls-14" d="M103.52,70.4c.25.32,4.77,13.14-15.34,10s-30.27-14-30.27-14S90.17,53.11,103.52,70.4Z"/><g id="_Group_25" data-name="&lt;Group&gt;"><g id="_Group_26" data-name="&lt;Group&gt;"><path id="_Path_94" data-name="&lt;Path&gt;" class="cls-6" d="M131.22,73.37a50.7,50.7,0,0,0,18.54-9.07c.54-.39,1-.8,1.48-1.19s.89-.77,1.3-1.11c.77-.74,1.45-1.35,2-1.89l1.62-1.69-1.45,1.84c-.48.59-1.11,1.26-1.83,2.07-.37.39-.79.78-1.22,1.21a18.27,18.27,0,0,1-1.42,1.32,43.75,43.75,0,0,1-7.76,5.55,45.54,45.54,0,0,1-10.88,4.37,43.29,43.29,0,0,1-11.64,1.38,13.94,13.94,0,0,1-5.16-.83,6.12,6.12,0,0,1-3.37-3.15,4.2,4.2,0,0,1-.35-2,4.66,4.66,0,0,1,.49-1.73,9.72,9.72,0,0,1,1.64-2.26,2.29,2.29,0,0,1,1.49-.9.63.63,0,0,1,.54.26.61.61,0,0,0-.54-.2,2.19,2.19,0,0,0-1.32,1A10,10,0,0,0,112,68.6a3.83,3.83,0,0,0,.09,3.27,5.4,5.4,0,0,0,3.08,2.53,13.36,13.36,0,0,0,4.8.54A49.54,49.54,0,0,0,131.22,73.37Z"/></g><g id="_Group_27" data-name="&lt;Group&gt;"><path id="_Path_95" data-name="&lt;Path&gt;" class="cls-6" d="M82.89,79.31c4.6,1,9.11,1.61,13.09,1a11.73,11.73,0,0,0,5.19-2,6.6,6.6,0,0,0,2.35-7.88,3.65,3.65,0,0,0-.34-.81c-.13-.25-.23-.5-.36-.73-.3-.43-.54-.85-.82-1.19s-.52-.63-.74-.88l-.61-.6-.51-.48.55.44c.18.14.41.32.67.54l.82.83c.31.32.58.74.92,1.16.15.22.28.47.44.73a4.83,4.83,0,0,1,.41.82,7.36,7.36,0,0,1,.59,4.3,7.6,7.6,0,0,1-2.76,4.53,12.38,12.38,0,0,1-5.58,2.42c-4.22.83-8.94.31-13.63-.75a61.27,61.27,0,0,1-6.78-1.92,48.24,48.24,0,0,1-6-2.63,45.37,45.37,0,0,1-9.12-6.33,39.56,39.56,0,0,1-5.08-5.45c-.55-.68-.93-1.25-1.2-1.63L54,62.2l.45.54c.3.35.72.88,1.32,1.52a44.36,44.36,0,0,0,5.38,5,49.09,49.09,0,0,0,9.2,5.78,54.31,54.31,0,0,0,5.93,2.41C78.34,78.21,80.58,78.77,82.89,79.31Z"/></g></g><g id="_Group_28" data-name="&lt;Group&gt;"><path id="_Path_96" data-name="&lt;Path&gt;" class="cls-15" d="M136.05,126.64a8.9,8.9,0,0,0,1.16,1A2.71,2.71,0,0,0,136.05,126.64Z"/><path id="_Path_97" data-name="&lt;Path&gt;" class="cls-15" d="M168.05,79.67a6.17,6.17,0,0,0-1.1-2A1.94,1.94,0,0,0,168.05,79.67Z"/><path id="_Path_98" data-name="&lt;Path&gt;" class="cls-15" d="M27.32,69.88l-.54.12c1.1.37,2.2.77,3.27,1.21Z"/><path id="_Path_99" data-name="&lt;Path&gt;" class="cls-15" d="M175,102.4A7,7,0,0,0,172.43,89a5.88,5.88,0,0,0-3.57-7.31c.37-.56.71-1.14,1-1.72a2.9,2.9,0,0,1-.78.06,2.43,2.43,0,0,1-1.08-.33A7.09,7.09,0,0,1,166.48,87c6,1.72,7.82,10.93,3,14.83a4.93,4.93,0,0,1-6.4,7.32A5.4,5.4,0,0,1,160,117a3.95,3.95,0,0,1-6.84,3.84,10.07,10.07,0,0,1-15.9,6.78,4.49,4.49,0,0,1-1.31,5.81c-2.3,1.53-5.37,1.1-8,.23-.15,2.06-2.62,3.31-4.64,2.89s-3.6-2-4.91-3.57c.75,3.12-2.41,6.15-5.62,6.29s-6.15-1.78-8.45-4c-.35,3.06-3.75,5.11-6.82,4.8s-5.7-2.42-7.55-4.89l-1.4,2.2-4.61-3.06c.36,2.74-3.38,4.57-5.91,3.43s-3.84-3.93-4.6-6.6a6.35,6.35,0,0,1-11.87-3,9.3,9.3,0,0,1-14.91-9.06c-1.68,3-6.55,3-8.91.48s-2.47-6.56-1.2-9.79a5,5,0,0,1-4.13-8.93,3.56,3.56,0,1,1-3.67-6.1,14.37,14.37,0,0,1-13-11.34,14,14,0,0,1,1.88-9.76c-3.88,2.69-6.77,7.17-6.36,11.86.48,5.61,5.3,9.84,10.18,12.66a5.33,5.33,0,0,0,4.29,9.25c-2.87,4.43,1,11.38,6.24,11.31-1,7.19-1.58,15.49,3.46,20.73,4,4.16,10.29,5,16.06,5.33,7.63.47,16.14.26,21.72-5,.15,2.53,3.26,4,5.74,3.45s4.38-2.49,6.15-4.32c.4,1.76,2.36,2.79,4.17,2.76A12,12,0,0,0,94.36,140c1,5.89,6.63,10.29,12.56,11s11.87-1.82,16.55-5.52a6.63,6.63,0,0,0,2.52-3.18c5.69,1.82,12.52-2.15,13.75-8,3.48,2.31,7.56,4.11,11.71,3.69s8.23-3.64,8.42-7.82c1.77,1.3,4.47.42,5.79-1.34s1.56-4.08,1.53-6.28A10.86,10.86,0,0,0,175,102.4Z"/></g><g id="_Group_29" data-name="&lt;Group&gt;"><path id="_Path_100" data-name="&lt;Path&gt;" class="cls-15" d="M145.79,29.61c-2.35-3.54-8.23-3.88-11-.64.33-4-4.21-7.49-8-6.18,2.22-4.5,4.5-9.56,3.06-14.37s-6.49-8-11.51-8.36S108.41,1.52,104,4A52.28,52.28,0,0,0,82.72,26.89c-.5-1.21-1.25-2.57-2.54-2.66a3.36,3.36,0,0,0-1.72.5c-1.63.82-3.3,1.93-3.87,3.67.11-1.22.16-2.62-.72-3.47a2.86,2.86,0,0,0-3.63.12c-.8.63-4.15,4.81-3.15,5.89a15.25,15.25,0,0,0-8.53-4.47l.15.05c3.38,1.22,6.26,4.25,6.5,7.84,1-1.54,3.46-1.42,4.87-.25s2,3,2.6,4.77a16.23,16.23,0,0,1,11.84-10.1c5.32-1.05,8.12,1.45,11.8,5.44-1.88-3.57-2.6-6.72-6.61-7.16a54.83,54.83,0,0,1,13.17-16.74c2.67-2.28,6.44-4.38,9.5-2.66,2.89,1.64,3.21,5.61,3.18,8.93,1.16-1.9,2.87-3.82,5.1-3.86,3.23-.05,5.12,4.15,4.07,7.21s-3.89,5.08-6.56,6.91a13.77,13.77,0,0,1,4.59,12.86c2.63-2.22,6.2-4,9.45-2.83,2.67.93,4,4.63,2.79,6.82a13,13,0,0,0,3.24-10.3,6.72,6.72,0,0,1,4.63,8.47A12.41,12.41,0,0,0,146,35.56c8.36.15,15.74,6.53,18.91,14.27s2.74,16.52.84,24.67a6.45,6.45,0,0,1,2.73,6.57l.89-.27c6.15-10,8.69-22.6,4.6-33.56C169.79,36,157.64,27.51,145.79,29.61Z"/><path id="_Path_101" data-name="&lt;Path&gt;" class="cls-15" d="M133.78,44.89A2.92,2.92,0,0,0,135,43.7,12.45,12.45,0,0,1,133.78,44.89Z"/><path id="_Path_102" data-name="&lt;Path&gt;" class="cls-15" d="M36.73,34.52l-.47.4a15.5,15.5,0,0,0-4,4.81c-2.17,4.64-.17,10.21,2.56,14.55,1.3,2.07.31.6.43.86a39.34,39.34,0,0,1,8.08-5.79C37.42,49,34,41.6,36,36.11A12.09,12.09,0,0,1,36.73,34.52Z"/><path id="_Path_103" data-name="&lt;Path&gt;" class="cls-15" d="M46.18,69.73c-4.63.7-10.17,1.09-13.2-2.49-2-2.41-2.09-5.92-.91-8.91a2.77,2.77,0,0,0-.56.69,6.85,6.85,0,0,0-.63,3.36c-.06,4.26,3.24,6.21-1.75,7.14l-1.71.34C32,75.21,41.68,75.28,46.18,69.73Z"/></g><g id="_Group_30" data-name="&lt;Group&gt;"><path id="_Path_104" data-name="&lt;Path&gt;" class="cls-6" d="M124.09,61.31a15.57,15.57,0,0,0-5.92,10.4,4.64,4.64,0,0,0,.27,2.64,4.2,4.2,0,0,0,2.83,2c3.77.94,7.59-.94,11.21-2.35,3.86-1.5,7.92-2.51,11.59-4.41s7-4.94,8.08-9a3.88,3.88,0,0,0,.07-2.08c-.62-2-3.29-2.2-5.26-1.67a14.89,14.89,0,0,0-6.35,3.56c1.19-1.77-.46-4.38-2.56-4.74s-4.16.88-5.62,2.43-2.53,3.44-4,5c0-1.51-2.24-2.13-3.52-1.32s-1.82,2.38-2.28,3.83"/><path id="_Path_105" data-name="&lt;Path&gt;" class="cls-6" d="M89.6,64.59a17.43,17.43,0,0,1,6.63,11.63,5.27,5.27,0,0,1-.31,3,4.64,4.64,0,0,1-3.16,2.19c-4.22,1.05-8.49-1-12.54-2.62-4.32-1.68-8.86-2.81-13-4.94s-7.87-5.53-9-10a4.24,4.24,0,0,1-.08-2.34c.68-2.17,3.68-2.46,5.88-1.86a16.67,16.67,0,0,1,7.1,4c-1.32-2,.51-4.89,2.86-5.29s4.66,1,6.29,2.72,2.84,3.84,4.51,5.54c0-1.7,2.5-2.39,3.93-1.48s2,2.66,2.55,4.28"/><path id="_Path_106" data-name="&lt;Path&gt;" class="cls-16" d="M95.92,79.19a5.27,5.27,0,0,0,.31-3A17.43,17.43,0,0,0,89.6,64.59l1.14,3.29a5.48,5.48,0,0,0-2-2.8c-1.43-.91-3.88-.22-3.93,1.48-1.67-1.7-2.87-3.81-4.51-5.54a9.74,9.74,0,0,0-3-2.19l-.87.2a18.42,18.42,0,0,1,7.22,9.81c.61-1.74,2.83-2.45,4.6-2a9.51,9.51,0,0,1,4.36,3.24c.91,1,1.82,2.27,1.65,3.63-.23,1.88-2.52,2.92-4.38,2.53s-3.33-1.74-4.71-3c.61,1.09-.37,2.54-1.59,2.83A5.24,5.24,0,0,1,80,75.25c-2.73-1.47-5.24-3.67-6.23-6.61.19,1.3-1.3,2.32-2.59,2.19a6.53,6.53,0,0,1-3.36-1.89l-4.63-4A5.47,5.47,0,0,1,61.09,62c-.21-1.21.9-2.65,2.06-2.26L64,59.6c-2.19-.57-5.14-.28-5.82,1.88a4.24,4.24,0,0,0,.08,2.34c1.16,4.47,4.93,7.86,9,10s8.65,3.26,13,4.94c4,1.57,8.32,3.67,12.54,2.62A4.64,4.64,0,0,0,95.92,79.19Z"/><path id="_Path_107" data-name="&lt;Path&gt;" class="cls-16" d="M152.22,58.53a2.88,2.88,0,0,0-2.55-1.83,24.72,24.72,0,0,0-3,1c1.57.76,2,3,1.28,4.55A7.11,7.11,0,0,1,144,65.55c-1.62.67-3.34,1.06-4.91,1.82l2.76-6.55a17.66,17.66,0,0,0,.75-2,14.63,14.63,0,0,0-2,1.59c1.19-1.77-.46-4.38-2.56-4.74a4.75,4.75,0,0,0-2.12.16,15.88,15.88,0,0,0-3.3,3.64c1.23-1.93,4.55-1.27,5.67.72s.58,4.53-.41,6.6a7.85,7.85,0,0,1-4.23,4.33c-2,.66-4.54-.29-5-2.31a10.32,10.32,0,0,1-3.43,3.49c-1.47.74-3.53.6-4.45-.77a4.06,4.06,0,0,1-.58-1.86,10.3,10.3,0,0,1,.72-5,15.47,15.47,0,0,0-2.73,7.06,4.64,4.64,0,0,0,.27,2.64,4.2,4.2,0,0,0,2.83,2c3.77.94,7.59-.94,11.21-2.35,3.86-1.5,7.92-2.51,11.59-4.41s7-4.94,8.08-9A3.88,3.88,0,0,0,152.22,58.53Z"/></g><g id="_Group_31" data-name="&lt;Group&gt;"><g id="_Group_32" data-name="&lt;Group&gt;"><path id="_Path_108" data-name="&lt;Path&gt;" class="cls-6" d="M133.67,94.86a23.36,23.36,0,0,0,7.85-6.29l2.81-3.31-.57,1c-.38.66-.92,1.6-1.66,2.73a25.13,25.13,0,0,1-3,3.74,15.53,15.53,0,0,1-4.87,3.44,11.82,11.82,0,0,1-5.93.94,25.73,25.73,0,0,1-4.7-.92,28.92,28.92,0,0,1-3-1c-.7-.27-1.08-.45-1.08-.45l1.15.24c.73.14,1.8.34,3.11.52C126.39,95.81,130.14,96.49,133.67,94.86Z"/></g><g id="_Group_33" data-name="&lt;Group&gt;"><path id="_Path_109" data-name="&lt;Path&gt;" class="cls-6" d="M71.46,99.77a47.4,47.4,0,0,0,13.23,1.56c1.73,0,3.13,0,4.1-.07l1.52-.05-1.49.27c-1,.16-2.36.4-4.1.57a45.72,45.72,0,0,1-6.15.26,29.74,29.74,0,0,1-7.52-1.14,22.25,22.25,0,0,1-6.88-3.33,21.77,21.77,0,0,1-4.46-4.34A20.7,20.7,0,0,1,57.52,90a11.15,11.15,0,0,1-.46-1l-.15-.36.2.33c.13.22.33.54.61.94A23.48,23.48,0,0,0,60.27,93a24.44,24.44,0,0,0,4.59,3.79A25.27,25.27,0,0,0,71.46,99.77Z"/></g></g><path id="_Compound_Path_2" data-name="&lt;Compound Path&gt;" class="cls-17" d="M112.19,35.94a1.71,1.71,0,0,1,2.32-2.32c3.77,1.73,5.13,9.26,2.06,12.05a1.42,1.42,0,0,1-2.39-1c0-1.55.49-3,.2-4.61-.31-1.73-1.41-2.67-2.19-4.13Zm12.59,10.93a5.25,5.25,0,0,0,.68.08,2.23,2.23,0,0,0,.92-.23,1.63,1.63,0,0,0,1.15-1.5,1.65,1.65,0,0,0-1.15-1.5,2.24,2.24,0,0,0-.92-.24,5.28,5.28,0,0,0-.68.09,1.69,1.69,0,0,0-1.65,1.65,1.71,1.71,0,0,0,1.65,1.65Zm13.56-6.51a6.31,6.31,0,0,0-.83,3.73,7.35,7.35,0,0,0,1.09,3.58,1.28,1.28,0,0,0,2.19,0,7.22,7.22,0,0,0,1.09-3.58,6.31,6.31,0,0,0-.83-3.73,1.6,1.6,0,0,0-2.71,0Zm17.91,34.33c-.13,1.35,1.1,2.11,1.94,2.94A5.94,5.94,0,0,1,160,80.52c.41,1.66.52,5.38,3.22,4.55s2.29-4.79,1.45-6.83a8.48,8.48,0,0,0-5.74-5.4,2.09,2.09,0,0,0-2.05.54,2.18,2.18,0,0,0-.6,1.31Zm7.49,16.16c.13,1.2.2,2.51,1.42,3.13a1.58,1.58,0,0,0,2.09-.55c.68-1,.3-2-.1-3a1.75,1.75,0,0,0-1.9-1.24,1.7,1.7,0,0,0-1.51,1.7ZM91.88,133.53a6.86,6.86,0,0,0,5.33,4.06c2.28.43,5,.28,5.86-2.29a1.3,1.3,0,0,0-.58-1.44c-1.45-.89-2.85-.51-4.43-.72a18.48,18.48,0,0,1-4.25-1.54,1.58,1.58,0,0,0-1.93,1.93Zm14.87,2.63a4.22,4.22,0,0,0,1.17.11,1.81,1.81,0,0,0,1.1-.62,1.41,1.41,0,0,0,0-1.92,1.81,1.81,0,0,0-1.1-.62,4.22,4.22,0,0,0-1.17.11,1.52,1.52,0,0,0,0,2.94ZM24.41,75.63A2.44,2.44,0,0,0,21.23,74c-1.87.69-2.6,3.29-2.88,5-.58,3.55,1.42,9.72,6.1,8.69a1.59,1.59,0,0,0,.69-2.62c-.91-1.17-1.9-1.82-2.34-3.34a7.71,7.71,0,0,1-.16-2.44c0-.51,0-1,.05-1.53.37-.83.06-1.18-.92-1.07.88,1.24,3.23.54,2.64-1.11ZM27,88a2.79,2.79,0,0,0-.25,2.8A2.13,2.13,0,0,0,29.26,92c.75-.1.94-1.06.65-1.61.12.22,0,.05,0,0s0,.32,0,.06a2.8,2.8,0,0,0-.39-1.09c.06.1.09.23,0,0q-.26-.6-.12-.3c0,.1,0,.11,0,0s0-.21,0,0c0-.08,0-.39,0-.09A1.32,1.32,0,0,0,27,88Zm3.81,10.68.52.21a1.27,1.27,0,0,0,1.56-1.56l-.21-.52a1.52,1.52,0,1,0-1.87,1.87ZM100,101.33c.33-.13.68-.2,1-.3a3.55,3.55,0,0,0,2.15-1.72,2.63,2.63,0,0,0,0-2.55A2.58,2.58,0,0,0,101,95.51a3.31,3.31,0,0,0-3,1.73,6,6,0,0,0-.55,2.17,2,2,0,0,0,2.52,1.92Zm2.52-10.9c-.08,1.12,1,2.82,2.32,2.28a1.44,1.44,0,0,0,.82-1.52,3.77,3.77,0,0,0-.08-.83,2.37,2.37,0,0,0-.6-1,1.43,1.43,0,0,0-1.57-.29,1.45,1.45,0,0,0-.89,1.31Zm3.38,7.62a5.38,5.38,0,0,0,.63,2.58,9.93,9.93,0,0,0,.74,1,6.46,6.46,0,0,0,1.88,1.84c.36.2.75.37,1.13.56a3.42,3.42,0,0,0,3.73-.27,3.38,3.38,0,0,0,1.21-3.53c-.1-.36-.18-.73-.28-1.09a6.09,6.09,0,0,0-1.36-2.38,5.71,5.71,0,0,0-3.12-2.15,3.65,3.65,0,0,0-4.56,3.47ZM108,91.67l.83,1.21a1.7,1.7,0,0,0,2.93-1.71L111,90a1.73,1.73,0,0,0-2.32-.61,1.71,1.71,0,0,0-.61,2.32Zm11.76,10a4.53,4.53,0,0,0,1.26.19,1.66,1.66,0,0,0,1.42-2.47,4.39,4.39,0,0,0-.82-.9,1.91,1.91,0,1,0-1.86,3.18ZM46.13,43.32C47.51,42,48.08,39.9,50,39.08s4.2-.26,6.19-1.08a1.6,1.6,0,0,0,1.09-1.93c-1.08-4-6.57-4-9.6-2.49s-6.27,5.36-4.92,8.84a2.07,2.07,0,0,0,3.42.9Zm18.26-3.66s.41.3.15.09a2.16,2.16,0,0,1,.27.25,6,6,0,0,0,.91.68c-.2-.14-.06,0,0,.06s.18.18.27.27c.32.34-.16-.24.11.14a3,3,0,0,0,.45.55,1.61,1.61,0,0,0,1.72.32,1.58,1.58,0,0,0,1-1.43,4.26,4.26,0,0,0-1.35-2.65,3.9,3.9,0,0,0-2.77-1.12,1.54,1.54,0,0,0-1.47,1.12,1.57,1.57,0,0,0,.7,1.72Zm14.7.1c1.91-1.43,3.47-3.59,6.14-3.49,2.45.1,4.1,2.11,6.47,2.38,1.12.13,1.84-1,2-1.95.48-4.41-5.78-6.29-9.16-5.83-3.55.48-8.07,3.53-7.63,7.61.1,1,1.23,2,2.23,1.28Zm28.27-18.27c.11-.17,0-.06,0-.07s0-.1-.35.1-.55.16-.36.15c.09.25,1.14-.33,1.34-.47,0,0,.32-.22.07-.06s.06,0,.15,0,.88-.15.28-.1a2.06,2.06,0,0,0,2-1.76A2,2,0,0,0,109.08,17a3.81,3.81,0,0,0-3.49,1,2.93,2.93,0,0,0-.55.67c-.14.25-.5,1.3-.19,1.6,0-.72,0-.78-.06-.15a1.13,1.13,0,0,0,0,.26,4.06,4.06,0,0,0,.1.77,1.37,1.37,0,0,0,2.48.32Zm7.88.72a2.37,2.37,0,0,0,1.21-.33,1.9,1.9,0,0,1,.65-.33s.41-.07.24-.05.29,0,.34,0c.26,0,.51-.05.76-.07-.42,0,.23,0,.26,0,2.3.05,2.64-3.26.53-3.92a4.13,4.13,0,0,0-3.61.52c-1.08.7-2.07,1.72-1.77,3.1a1.45,1.45,0,0,0,1.39,1.06ZM43.14,52.09c-3.67,1.71-6.32,4.81-5.6,9.12a7,7,0,0,0,3,4.6,4.59,4.59,0,0,0,5.13,0,1.8,1.8,0,0,0,.36-2.8c-1-.8-2.61-2.09-3.07-3.34-.74-2,.6-4,1.79-5.46a1.36,1.36,0,0,0-1.64-2.13Zm9.49-.43c-.55,1.54.34,3.5,2.13,3.45A.9.9,0,0,0,55.62,54l-.08-.24c-.06-.2.08.41,0-.11a3.32,3.32,0,0,0-.2-.58c-.1-.21,0,0,0-.1a3.41,3.41,0,0,0-.14-.55c0-.1,0-.17,0,0a2.41,2.41,0,0,1,0-.38,1.28,1.28,0,0,0-2.5-.34Zm46-2.49a6.13,6.13,0,0,1,3,1.12,3.07,3.07,0,0,1,1.6,2.5c.17,2.65-2.47,4.46-2.44,7a2,2,0,0,0,1.91,1.91c2.54.09,4.46-2.54,5.28-4.7a9.59,9.59,0,0,0-.17-7.54,7.87,7.87,0,0,0-5-4.12,4.8,4.8,0,0,0-5.24,2,1.11,1.11,0,0,0,1.07,1.84ZM108,57.8a5,5,0,0,1,.15,1.39,14.29,14.29,0,0,0,.08,1.6,1.75,1.75,0,0,0,1.21,1.58,1.54,1.54,0,0,0,.43.06,1.7,1.7,0,0,0,1.58-1.21,5.44,5.44,0,0,0-.74-4.56A1.49,1.49,0,0,0,108,57.8Z"/></g></g></g></g></g></svg>