<svg xmlns="http://www.w3.org/2000/svg" viewBox="0 0 162.41 186.94"><defs><style>.cls-1{isolation:isolate;}.cls-14,.cls-2{fill:#472055;}.cls-2{opacity:0.5;}.cls-10,.cls-17,.cls-19,.cls-2,.cls-23,.cls-24,.cls-25,.cls-6,.cls-8{mix-blend-mode:multiply;}.cls-23,.cls-25,.cls-3,.cls-5{fill:#35a8e0;}.cls-15,.cls-18,.cls-19,.cls-4,.cls-6{fill:#0463ac;}.cls-21,.cls-23,.cls-4,.cls-5,.cls-6,.cls-7{fill-rule:evenodd;}.cls-17,.cls-19,.cls-22,.cls-23,.cls-24,.cls-25,.cls-6{opacity:0.3;}.cls-10,.cls-7,.cls-9{fill:#a5d24a;}.cls-10{opacity:0.7;}.cls-11,.cls-15,.cls-16{mix-blend-mode:screen;}.cls-12{fill:#fff;}.cls-13,.cls-17{fill:#6fd1de;}.cls-16{fill:#fffad3;opacity:0.2;}.cls-20{fill:#f52b5d;}.cls-21{fill:#831434;}.cls-22{fill:#9f1645;}</style></defs><title>Asset16</title><g class="cls-1"><g id="Layer_2" data-name="Layer 2"><g id="OBJECTS"><g id="_Group_" data-name="&lt;Group&gt;"><ellipse id="_Path_" data-name="&lt;Path&gt;" class="cls-2" cx="81.21" cy="178.27" rx="55.33" ry="8.67"/><g id="_Group_2" data-name="&lt;Group&gt;"><path id="_Path_2" data-name="&lt;Path&gt;" class="cls-3" d="M81.49,31.56S113,29.3,133.87,56.34,166,141.4,87.12,147.59s-77-54.12-69.28-71.53C26,57.71,30.23,34.94,81.49,31.56Z"/><path id="_Path_3" data-name="&lt;Path&gt;" class="cls-3" d="M81.49,31.56S113,29.3,133.87,56.34,166,141.4,87.12,147.59s-77-54.12-69.28-71.53C26,57.71,30.23,34.94,81.49,31.56Z"/><g id="_Group_3" data-name="&lt;Group&gt;"><path id="_Path_4" data-name="&lt;Path&gt;" class="cls-4" d="M44,141.76s6.6,20.51,19,31.5c0,0-14.65-2.57-15,4.39H68.5s-5.13-27.1-2.57-33.33S44.32,137.36,44,141.76Z"/><g id="_Group_4" data-name="&lt;Group&gt;"><g id="_Group_5" data-name="&lt;Group&gt;"><path id="_Path_5" data-name="&lt;Path&gt;" class="cls-5" d="M57.3,154.55c-.16-1.78-.46-3.56-1.42-4.33a1.76,1.76,0,0,0-1.55-.33,1.09,1.09,0,0,0-.8,1,3.81,3.81,0,0,0,1,2.44,3.92,3.92,0,0,0,.79.73,3.76,3.76,0,0,1-1-.52,4.51,4.51,0,0,1-1-.92,3.44,3.44,0,0,1-.76-1.7,2.17,2.17,0,0,1,.2-1.22,2.09,2.09,0,0,1,1-1,3,3,0,0,1,2.9.24,4.73,4.73,0,0,1,1.74,2.49,12.37,12.37,0,0,1,.55,2.91,13.57,13.57,0,0,1-.08,2.93,8,8,0,0,1-.3,1.44,4.55,4.55,0,0,1-.71,1.34,2.42,2.42,0,0,1-1.37.93,2.06,2.06,0,0,1-1.56-.3,6.86,6.86,0,0,1-1.58-1.55,8,8,0,0,1-1.36-2.73,6.87,6.87,0,0,1-.21-1.08,8.49,8.49,0,0,0,.47,1,8.69,8.69,0,0,0,1.76,2.25,7,7,0,0,0,1.5,1.08c.51.2.8.07,1.15-.44a3.92,3.92,0,0,0,.37-.93,7.22,7.22,0,0,0,.16-1.16A16.24,16.24,0,0,0,57.3,154.55Z"/></g><g id="_Group_6" data-name="&lt;Group&gt;"><path id="_Path_6" data-name="&lt;Path&gt;" class="cls-5" d="M53.46,174.54a6.2,6.2,0,0,1,3.85.46,4.78,4.78,0,0,1,1,.62l.32.28-.42,0c-.26,0-.64,0-1.09,0a19.46,19.46,0,0,0-3.29.41,18.27,18.27,0,0,0-3.18.94,9.51,9.51,0,0,0-1,.45l-.38.18.19-.38a4.6,4.6,0,0,1,.66-1A6.15,6.15,0,0,1,53.46,174.54Z"/></g></g><path id="_Path_7" data-name="&lt;Path&gt;" class="cls-6" d="M65.93,144.32c2.57-6.23-21.61-7-22-2.56A94.54,94.54,0,0,0,48.15,152c-.17-1.51.28-2.82,2.31-2.94,4.94-.27,10.44-.27,11.81,2.75s4.39,23.9,4.39,23.9l-12.84.54,10.65-1.64a19.25,19.25,0,0,0-1.55-1.39c-1.11-.18-14.58-2.26-14.94,4.41H68.5S63.37,150.55,65.93,144.32Z"/></g><g id="_Group_7" data-name="&lt;Group&gt;"><path id="_Path_8" data-name="&lt;Path&gt;" class="cls-4" d="M116.21,141.76s-6.6,20.51-19,31.5c0,0,14.65-2.57,15,4.39H91.66s5.13-27.1,2.57-33.33S115.84,137.36,116.21,141.76Z"/><g id="_Group_8" data-name="&lt;Group&gt;"><g id="_Group_9" data-name="&lt;Group&gt;"><path id="_Path_9" data-name="&lt;Path&gt;" class="cls-5" d="M102.86,154.55c.16-1.78.46-3.56,1.41-4.33a1.78,1.78,0,0,1,1.56-.33,1.09,1.09,0,0,1,.8,1,3.81,3.81,0,0,1-1,2.44,3.92,3.92,0,0,1-.79.73,3.76,3.76,0,0,0,1-.52,4.51,4.51,0,0,0,1-.92,3.44,3.44,0,0,0,.76-1.7,2.17,2.17,0,0,0-.2-1.22,2.09,2.09,0,0,0-1-1,3,3,0,0,0-2.9.24,4.73,4.73,0,0,0-1.74,2.49,12.37,12.37,0,0,0-.55,2.91,13.57,13.57,0,0,0,.08,2.93,8,8,0,0,0,.3,1.44,4.55,4.55,0,0,0,.71,1.34,2.42,2.42,0,0,0,1.37.93,2.06,2.06,0,0,0,1.56-.3,6.86,6.86,0,0,0,1.58-1.55,8,8,0,0,0,1.36-2.73,6.87,6.87,0,0,0,.21-1.08,8.49,8.49,0,0,1-.47,1,8.69,8.69,0,0,1-1.76,2.25,7,7,0,0,1-1.5,1.08c-.51.2-.8.07-1.15-.44a3.92,3.92,0,0,1-.37-.93,7.22,7.22,0,0,1-.16-1.16A16.24,16.24,0,0,1,102.86,154.55Z"/></g><g id="_Group_10" data-name="&lt;Group&gt;"><path id="_Path_10" data-name="&lt;Path&gt;" class="cls-5" d="M106.7,174.54a6.2,6.2,0,0,0-3.85.46,4.78,4.78,0,0,0-1,.62l-.32.28.42,0c.26,0,.64,0,1.09,0a19.46,19.46,0,0,1,3.29.41,18.27,18.27,0,0,1,3.18.94,9.51,9.51,0,0,1,1,.45l.38.18-.19-.38a4.6,4.6,0,0,0-.66-1A6.15,6.15,0,0,0,106.7,174.54Z"/></g></g><path id="_Path_11" data-name="&lt;Path&gt;" class="cls-6" d="M94.23,144.32c-2.57-6.23,21.61-7,22-2.56A94.54,94.54,0,0,1,112,152c.17-1.51-.28-2.82-2.31-2.94-4.94-.27-10.44-.27-11.81,2.75s-4.39,23.9-4.39,23.9l12.84.54-10.65-1.64a19.25,19.25,0,0,1,1.55-1.39c1.11-.18,14.58-2.26,14.94,4.41H91.66S96.79,150.55,94.23,144.32Z"/></g><g id="_Group_11" data-name="&lt;Group&gt;"><g id="_Group_12" data-name="&lt;Group&gt;"><path id="_Path_12" data-name="&lt;Path&gt;" class="cls-4" d="M29.3,53.5S0,89.4,0,133.35s20.88,37.36,23.08,35.16c0,0,12.08,6.6,12.82-4.76s0-1.83,0-1.83,3.66-7,1.83-11-11-2.19-11-2.19S6.23,106.61,29.3,53.5Z"/><g id="_Group_13" data-name="&lt;Group&gt;"><g id="_Group_14" data-name="&lt;Group&gt;"><path id="_Path_13" data-name="&lt;Path&gt;" class="cls-5" d="M20.52,165.14c1.58,1.12,3,2.19,4.06,3s1.72,1.3,1.72,1.3a14,14,0,0,1-2.12-.51,16.3,16.3,0,0,1-8.41-6,13.42,13.42,0,0,1-1.17-1.83s.71.46,1.79,1.2S18.94,164,20.52,165.14Z"/></g><g id="_Group_15" data-name="&lt;Group&gt;"><path id="_Path_14" data-name="&lt;Path&gt;" class="cls-5" d="M33,158.17c.44.32.84.64,1.21,1a5,5,0,0,0,.92.64,1.21,1.21,0,0,0,.73.17,1.13,1.13,0,0,0,.32-.11.91.91,0,0,1-.17.34,1.46,1.46,0,0,1-1,.48,3.16,3.16,0,0,1-1.56-.23A6.76,6.76,0,0,1,32,159.6a6.69,6.69,0,0,1-2-2.37,5.41,5.41,0,0,1-.46-1.22s.45.24,1.11.62S32.17,157.54,33,158.17Z"/></g><g id="_Group_16" data-name="&lt;Group&gt;"><path id="_Path_15" data-name="&lt;Path&gt;" class="cls-5" d="M7,111a3.31,3.31,0,0,0-.51-.6c-.06,0,0,0-.11,0a4.34,4.34,0,0,0-1,1.47,17.51,17.51,0,0,0-1.48,3.74,9.35,9.35,0,0,0-.27,3.52A6.76,6.76,0,0,0,4,120.69a3.32,3.32,0,0,0,.67,1.19.64.64,0,0,0,.86.06,3.41,3.41,0,0,0,.82-.83A2,2,0,0,0,7,119.4a1,1,0,0,0-.9-.68.53.53,0,0,0-.39.18.5.5,0,0,1,.38-.25,1.16,1.16,0,0,1,1.17.65,2.4,2.4,0,0,1-.44,2.13,4,4,0,0,1-.88,1.1,1.57,1.57,0,0,1-.85.35,1.5,1.5,0,0,1-1-.31A4,4,0,0,1,3,121.12a7.53,7.53,0,0,1-.6-1.77,10,10,0,0,1,0-4,16.83,16.83,0,0,1,1.43-4.18c.17-.35.32-.66.54-1a3.44,3.44,0,0,1,1-1.11,1.87,1.87,0,0,1,1-.35,1.69,1.69,0,0,1,1.07.27,3.73,3.73,0,0,1,1,1.1,9.45,9.45,0,0,1,1.37,4.73,18.6,18.6,0,0,1-.23,4.39A18.56,18.56,0,0,1,6.9,126,7.27,7.27,0,0,1,5,128.1a3.14,3.14,0,0,1-2.1.57,1.63,1.63,0,0,1-1.2-.61.39.39,0,0,1,0-.35c.07-.06.11,0,.11,0a.12.12,0,0,0-.09.06.3.3,0,0,0,.06.3,1.5,1.5,0,0,0,1.14.37,2.76,2.76,0,0,0,1.75-.73,6.8,6.8,0,0,0,1.46-2.15,19.89,19.89,0,0,0,1.94-6.61,20.16,20.16,0,0,0,0-4A8.5,8.5,0,0,0,7,111Z"/></g></g></g><path id="_Path_16" data-name="&lt;Path&gt;" class="cls-6" d="M26.74,148.74S6.23,106.61,29.3,53.5a151.86,151.86,0,0,0-24.48,48,4.05,4.05,0,0,1,2.11.37c2,.93,2.79,3.25,3.42,5.34q6.38,21.36,12.21,42.88a11.39,11.39,0,0,1,5.51.62c1.69.8,3,2.8,2.3,4.55l-2.67.85c2.5,1,3.64,4.24,2.6,6.72a6.87,6.87,0,0,1-6.51,3.86,10.19,10.19,0,0,1-7-3.52c.46,2-1.73,3.86-3.78,3.78s-3.82-1.5-5.22-3a23.87,23.87,0,0,1-4.52-7.19l-.37-.2c5.82,17.89,18.48,13.63,20.17,11.94,0,0,12.08,6.6,12.82-4.76.05-.8.09-1.49.13-2.09l-.13.26s.63-8.21.13-.26c.63-1.3,3.32-7.16,1.7-10.73C35.9,146.9,26.74,148.74,26.74,148.74Z"/></g><g id="_Group_17" data-name="&lt;Group&gt;"><g id="_Group_18" data-name="&lt;Group&gt;"><path id="_Path_17" data-name="&lt;Path&gt;" class="cls-4" d="M133.11,53.5s29.3,35.9,29.3,79.85-20.88,37.36-23.07,35.16c0,0-12.09,6.6-12.82-4.76s0-1.83,0-1.83-3.67-7-1.83-11,11-2.19,11-2.19S156.19,106.61,133.11,53.5Z"/><g id="_Group_19" data-name="&lt;Group&gt;"><g id="_Group_20" data-name="&lt;Group&gt;"><path id="_Path_18" data-name="&lt;Path&gt;" class="cls-5" d="M141.9,165.14c-1.59,1.12-3,2.19-4.06,3s-1.72,1.3-1.72,1.3a14,14,0,0,0,2.11-.51,16.3,16.3,0,0,0,8.41-6,13.42,13.42,0,0,0,1.17-1.83s-.7.46-1.78,1.2S143.48,164,141.9,165.14Z"/></g><g id="_Group_21" data-name="&lt;Group&gt;"><path id="_Path_19" data-name="&lt;Path&gt;" class="cls-5" d="M129.37,158.17c-.44.32-.84.64-1.21,1a4.4,4.4,0,0,1-.92.64,1.21,1.21,0,0,1-.73.17,1.13,1.13,0,0,1-.32-.11,1.17,1.17,0,0,0,.17.34,1.46,1.46,0,0,0,1,.48,3.16,3.16,0,0,0,1.56-.23,6.36,6.36,0,0,0,1.51-.81,6.69,6.69,0,0,0,2-2.37,5.21,5.21,0,0,0,.47-1.22s-.46.24-1.12.62S130.24,157.54,129.37,158.17Z"/></g><g id="_Group_22" data-name="&lt;Group&gt;"><path id="_Path_20" data-name="&lt;Path&gt;" class="cls-5" d="M155.47,111a3,3,0,0,1,.51-.6c.05,0,0,0,.11,0a4.65,4.65,0,0,1,1,1.47,17.46,17.46,0,0,1,1.47,3.74,9.57,9.57,0,0,1,.28,3.52,6.76,6.76,0,0,1-.38,1.55,3.32,3.32,0,0,1-.67,1.19.63.63,0,0,1-.85.06,3.27,3.27,0,0,1-.83-.83,2.07,2.07,0,0,1-.65-1.71,1,1,0,0,1,.9-.68.6.6,0,0,1,.4.18.57.57,0,0,0-.39-.25,1.16,1.16,0,0,0-1.17.65,2.41,2.41,0,0,0,.45,2.13,3.81,3.81,0,0,0,.87,1.1,1.6,1.6,0,0,0,.85.35,1.5,1.5,0,0,0,1-.31,4,4,0,0,0,1.08-1.45,8,8,0,0,0,.61-1.77,10.23,10.23,0,0,0,0-4,17.21,17.21,0,0,0-1.42-4.18c-.17-.35-.33-.66-.55-1a3.44,3.44,0,0,0-1-1.11,1.84,1.84,0,0,0-1-.35,1.7,1.7,0,0,0-1.07.27,3.87,3.87,0,0,0-1,1.1,9.45,9.45,0,0,0-1.37,4.73,19.13,19.13,0,0,0,.24,4.39,18.73,18.73,0,0,0,2.64,6.84,7.27,7.27,0,0,0,1.89,2.15,3.15,3.15,0,0,0,2.11.57,1.62,1.62,0,0,0,1.19-.61.33.33,0,0,0,0-.35.13.13,0,0,0-.11,0,.12.12,0,0,1,.09.06.3.3,0,0,1-.06.3,1.48,1.48,0,0,1-1.14.37,2.74,2.74,0,0,1-1.74-.73,6.81,6.81,0,0,1-1.47-2.15,19.89,19.89,0,0,1-1.93-6.61,19.43,19.43,0,0,1,0-4A8.38,8.38,0,0,1,155.47,111Z"/></g></g></g><path id="_Path_21" data-name="&lt;Path&gt;" class="cls-6" d="M135.67,148.74s20.52-42.13-2.56-95.24a151.86,151.86,0,0,1,24.48,48,4.05,4.05,0,0,0-2.11.37c-2,.93-2.79,3.25-3.41,5.34q-6.39,21.36-12.22,42.88a11.34,11.34,0,0,0-5.5.62c-1.69.8-3,2.8-2.31,4.55l2.68.85c-2.51,1-3.65,4.24-2.61,6.72a6.87,6.87,0,0,0,6.51,3.86,10.23,10.23,0,0,0,7-3.52c-.47,2,1.72,3.86,3.78,3.78s3.82-1.5,5.21-3a23.87,23.87,0,0,0,4.52-7.19l.37-.2c-5.82,17.89-18.48,13.63-20.16,11.94,0,0-12.09,6.6-12.82-4.76-.06-.8-.1-1.49-.14-2.09.08.16.14.26.14.26s-.64-8.21-.14-.26c-.63-1.3-3.32-7.16-1.69-10.73C126.52,146.9,135.67,148.74,135.67,148.74Z"/></g><g id="_Group_23" data-name="&lt;Group&gt;"><g id="_Group_24" data-name="&lt;Group&gt;"><g id="_Group_25" data-name="&lt;Group&gt;"><path id="_Path_22" data-name="&lt;Path&gt;" class="cls-7" d="M113,40.85s21.28-5.61,17.19-21.48-9.79-23.79,7.43-16.84,39.69,43,2.24,64.33S103.13,48.51,113,40.85Z"/><g id="_Group_26" data-name="&lt;Group&gt;" class="cls-8"><path id="_Path_23" data-name="&lt;Path&gt;" class="cls-9" d="M127.69,10.77c.42-.18.88-.38,1.36-.57,2.06-.86,4.49-1.54,6.67-2.48s4.12-2.09,6.06-3a26.46,26.46,0,0,0-4.19-2.2,45.07,45.07,0,0,0-6.7-2.24,11.63,11.63,0,0,0-3.27,2.92,12,12,0,0,0-1.38,2.31C126.57,7,127.08,8.77,127.69,10.77Z"/><path id="_Path_24" data-name="&lt;Path&gt;" class="cls-9" d="M158.31,47.27a24.19,24.19,0,0,0-2-3.07A25.87,25.87,0,0,0,148,37a38.12,38.12,0,0,0-9.71-3.5,57.78,57.78,0,0,0-8.12-1.29c-1-.08-1.93-.13-2.76-.16a20.53,20.53,0,0,1-2,2.13c.94.64,2.08,1.39,3.4,2.23,1.95,1.23,4.27,2.63,6.87,4.06s5.46,2.84,8.13,4.29a54.68,54.68,0,0,1,11.53,8.28A29.89,29.89,0,0,0,158.31,47.27Z"/><path id="_Path_25" data-name="&lt;Path&gt;" class="cls-9" d="M144.7,63.77a21.73,21.73,0,0,0-.4-2.37,29.88,29.88,0,0,0-1.17-4.19,30.6,30.6,0,0,0-12.22-15.43,31.85,31.85,0,0,0-3.82-2.1,25.21,25.21,0,0,0-3.52-1.38,20.25,20.25,0,0,0-2.82-.75c-.89.5-1.76,1-2.58,1.33.34.32.69.68,1.08,1.1.6.63,1.3,1.28,2,2.08s1.5,1.59,2.29,2.51,1.61,1.88,2.49,2.86c1.69,2,3.47,4.23,5.33,6.55s3.55,4.57,5.15,6.68c.76,1.08,1.56,2.08,2.22,3.08s1.28,1.84,1.84,2.68Q142.77,65.13,144.7,63.77Z"/><path id="_Path_26" data-name="&lt;Path&gt;" class="cls-9" d="M138.63,7.5a20.16,20.16,0,0,0-6.17,4,23.55,23.55,0,0,0-3.35,4c.35,1.22.71,2.5,1,3.84.05.19.08.37.12.56l.14,0c.34-.11.71-.22,1.08-.35,3-1,6.8-2.35,10.46-3.84l5.18-2.13c1.13-.44,2.21-.82,3.24-1.15a40.86,40.86,0,0,0-6.44-6.17A18.14,18.14,0,0,0,138.63,7.5Z"/><path id="_Path_27" data-name="&lt;Path&gt;" class="cls-9" d="M156,23.7A26.24,26.24,0,0,0,146.89,21a27.15,27.15,0,0,0-16.26,3.38,13.08,13.08,0,0,1-1.12,4.39c.64,0,1.31,0,2,0,4,.05,9,.4,14.39,1s10.27,1.21,13.82,2.39h0a35.58,35.58,0,0,0-2-7.47C157.2,24.36,156.62,24,156,23.7Z"/></g></g><path id="_Path_28" data-name="&lt;Path&gt;" class="cls-10" d="M137.59,2.53c-17.22-6.95-11.51,1-7.43,16.84a15.2,15.2,0,0,1,.52,4.21C134.2,20.41,129,7.86,130,3.87c.94-3.59,11,4,12.09,4.81,4.78,3.61,9.13,7.88,11.33,13.56,2.42,6.27,1.65,13-.16,19.36C150,53.13,133.88,56.8,127.1,46.72c-3.78-5.61-3.28-9.63-2-12.22A34.33,34.33,0,0,1,113,40.85c-9.84,7.66-10.6,47.37,26.86,26S154.8,9.48,137.59,2.53Z"/></g><g id="_Group_27" data-name="&lt;Group&gt;" class="cls-11"><g id="_Group_28" data-name="&lt;Group&gt;"><path id="_Path_29" data-name="&lt;Path&gt;" class="cls-7" d="M148.93,19.39a30.66,30.66,0,0,1,2.25,6.74,25.67,25.67,0,0,1,.43,3.07,20.89,20.89,0,0,1,.1,2.68,18.29,18.29,0,0,1-.12,2.21,12.08,12.08,0,0,1-.22,1.65l-.25,1.38s0-.5,0-1.4c0-.45,0-1-.07-1.64s-.07-1.36-.2-2.15a25.78,25.78,0,0,0-.42-2.57c-.15-.91-.43-1.87-.68-2.88a44.15,44.15,0,0,0-2.39-6.33,46.08,46.08,0,0,0-3.44-5.82c-.63-.83-1.21-1.64-1.83-2.33s-1.19-1.36-1.74-1.93-1.09-1.06-1.55-1.5a14.32,14.32,0,0,0-1.24-1.08l-1.08-.9,1.24.67a15,15,0,0,1,1.42.86c.53.37,1.17.76,1.8,1.29a20.49,20.49,0,0,1,2,1.76,29.18,29.18,0,0,1,2.13,2.25A30.83,30.83,0,0,1,148.93,19.39Z"/></g><g id="_Group_29" data-name="&lt;Group&gt;"><path id="_Path_30" data-name="&lt;Path&gt;" class="cls-7" d="M145.22,45.17l2.88-1.67a3.44,3.44,0,0,1-.25,1.1,4.24,4.24,0,0,1-1.69,2.07,4.38,4.38,0,0,1-2.6.62,3.43,3.43,0,0,1-1.1-.27Z"/></g></g></g><g id="_Group_30" data-name="&lt;Group&gt;"><g id="_Group_31" data-name="&lt;Group&gt;"><g id="_Group_32" data-name="&lt;Group&gt;"><path id="_Path_31" data-name="&lt;Path&gt;" class="cls-7" d="M50.59,40.85S29.31,35.24,33.4,19.37,43.19-4.42,26,2.53s-39.69,43-2.24,64.33S60.43,48.51,50.59,40.85Z"/><g id="_Group_33" data-name="&lt;Group&gt;" class="cls-8"><path id="_Path_32" data-name="&lt;Path&gt;" class="cls-9" d="M35.87,10.77c-.42-.18-.88-.38-1.36-.57C32.45,9.34,30,8.66,27.84,7.72s-4.12-2.09-6.06-3A26.46,26.46,0,0,1,26,2.53,45.07,45.07,0,0,1,32.67.29a11.63,11.63,0,0,1,3.27,2.92,12,12,0,0,1,1.38,2.31C37,7,36.48,8.77,35.87,10.77Z"/><path id="_Path_33" data-name="&lt;Path&gt;" class="cls-9" d="M5.25,47.27a23.14,23.14,0,0,1,2-3.07A25.87,25.87,0,0,1,15.53,37a38.12,38.12,0,0,1,9.71-3.5,57.78,57.78,0,0,1,8.12-1.29c1-.08,1.93-.13,2.76-.16a20.53,20.53,0,0,0,2,2.13c-.94.64-2.07,1.39-3.4,2.23-1.95,1.23-4.27,2.63-6.87,4.06s-5.46,2.84-8.13,4.29A54.68,54.68,0,0,0,8.23,53.08,29.89,29.89,0,0,1,5.25,47.27Z"/><path id="_Path_34" data-name="&lt;Path&gt;" class="cls-9" d="M18.86,63.77a21.73,21.73,0,0,1,.4-2.37,29.88,29.88,0,0,1,1.17-4.19A30.6,30.6,0,0,1,32.65,41.78a31.85,31.85,0,0,1,3.82-2.1A25.21,25.21,0,0,1,40,38.3a20.25,20.25,0,0,1,2.82-.75c.89.5,1.76,1,2.58,1.33-.34.32-.69.68-1.08,1.1-.6.63-1.3,1.28-2,2.08s-1.5,1.59-2.29,2.51-1.61,1.88-2.49,2.86c-1.69,2-3.47,4.23-5.33,6.55s-3.55,4.57-5.15,6.68c-.76,1.08-1.56,2.08-2.22,3.08S23.55,65.58,23,66.42Q20.79,65.13,18.86,63.77Z"/><path id="_Path_35" data-name="&lt;Path&gt;" class="cls-9" d="M24.93,7.5a20.16,20.16,0,0,1,6.17,4,23.55,23.55,0,0,1,3.35,4c-.35,1.22-.71,2.5-1.05,3.84,0,.19-.08.37-.12.56l-.14,0c-.34-.11-.71-.22-1.08-.35-3-1-6.8-2.35-10.46-3.84l-5.18-2.13c-1.13-.44-2.21-.82-3.24-1.15a40.86,40.86,0,0,1,6.44-6.17A18.14,18.14,0,0,1,24.93,7.5Z"/><path id="_Path_36" data-name="&lt;Path&gt;" class="cls-9" d="M7.54,23.7A26.24,26.24,0,0,1,16.67,21a27.15,27.15,0,0,1,16.26,3.38,13.08,13.08,0,0,0,1.12,4.39c-.64,0-1.31,0-2,0-4,.05-9,.4-14.39,1S7.35,31,3.8,32.17h0a35.58,35.58,0,0,1,2-7.47C6.36,24.36,6.94,24,7.54,23.7Z"/></g></g><path id="_Path_37" data-name="&lt;Path&gt;" class="cls-10" d="M26,2.53c17.22-6.95,11.51,1,7.43,16.84a15.2,15.2,0,0,0-.52,4.21c-3.52-3.17,1.69-15.72.65-19.71-.94-3.59-11,4-12.09,4.81-4.78,3.61-9.13,7.88-11.33,13.56-2.42,6.27-1.65,13,.16,19.36,3.3,11.53,19.41,15.2,26.19,5.12,3.78-5.61,3.28-9.63,2-12.22a34.33,34.33,0,0,0,12.12,6.35c9.84,7.66,10.6,47.37-26.86,26S8.76,9.48,26,2.53Z"/></g><g id="_Group_34" data-name="&lt;Group&gt;" class="cls-11"><g id="_Group_35" data-name="&lt;Group&gt;"><path id="_Path_38" data-name="&lt;Path&gt;" class="cls-7" d="M14.63,19.39a30.66,30.66,0,0,0-2.25,6.74A27.88,27.88,0,0,0,12,29.2a20.89,20.89,0,0,0-.1,2.68A18.29,18.29,0,0,0,12,34.09a12.08,12.08,0,0,0,.22,1.65l.25,1.38s0-.5,0-1.4c0-.45,0-1,.07-1.64s.07-1.36.2-2.15a25.78,25.78,0,0,1,.42-2.57c.15-.91.43-1.87.68-2.88a44.15,44.15,0,0,1,2.39-6.33,46.08,46.08,0,0,1,3.44-5.82c.63-.83,1.21-1.64,1.83-2.33s1.19-1.36,1.74-1.93S24.32,9,24.78,8.57A16,16,0,0,1,26,7.49l1.08-.9-1.24.67a15,15,0,0,0-1.42.86c-.53.37-1.17.76-1.8,1.29a21.69,21.69,0,0,0-2,1.76,29.18,29.18,0,0,0-2.13,2.25A30.83,30.83,0,0,0,14.63,19.39Z"/></g><g id="_Group_36" data-name="&lt;Group&gt;"><path id="_Path_39" data-name="&lt;Path&gt;" class="cls-7" d="M18.34,45.17,15.46,43.5a3.44,3.44,0,0,0,.25,1.1,4.24,4.24,0,0,0,1.69,2.07,4.38,4.38,0,0,0,2.6.62A3.43,3.43,0,0,0,21.1,47Z"/></g></g></g><path id="_Path_40" data-name="&lt;Path&gt;" class="cls-3" d="M81.49,31.56S113,29.3,133.87,56.34,166,141.4,87.12,147.59s-77-54.12-69.28-71.53C26,57.71,30.23,34.94,81.49,31.56Z"/><g id="_Group_37" data-name="&lt;Group&gt;"><g id="_Group_38" data-name="&lt;Group&gt;"><path id="_Path_41" data-name="&lt;Path&gt;" class="cls-12" d="M112.08,77.49c0,14.89-13.44,27-30,27s-30-12.07-30-27,13.45-26.95,30-26.95S112.08,62.61,112.08,77.49Z"/><path id="_Path_42" data-name="&lt;Path&gt;" class="cls-13" d="M102.65,76.67A19.23,19.23,0,1,1,83.42,57.44,19.23,19.23,0,0,1,102.65,76.67Z"/><path id="_Path_43" data-name="&lt;Path&gt;" class="cls-14" d="M94.54,76.67A11.12,11.12,0,1,1,83.42,65.55,11.12,11.12,0,0,1,94.54,76.67Z"/><path id="_Path_44" data-name="&lt;Path&gt;" class="cls-15" d="M76,72.05a4.26,4.26,0,1,1-4.26-4.26A4.26,4.26,0,0,1,76,72.05Z"/><path id="_Path_45" data-name="&lt;Path&gt;" class="cls-15" d="M98.58,86.1a6.1,6.1,0,1,1-6.1-6.1A6.1,6.1,0,0,1,98.58,86.1Z"/><path id="_Path_46" data-name="&lt;Path&gt;" class="cls-16" d="M106.79,62.21A31.09,31.09,0,0,0,82.05,50.54c-12,0-22.32,6.29-27.14,15.4,3.22,9.21,13.41,16,25.49,16C94.06,81.89,105.31,73.28,106.79,62.21Z"/><path id="_Path_47" data-name="&lt;Path&gt;" class="cls-17" d="M112.08,77.49c0-11.09-7.46-20.61-18.13-24.75a41.81,41.81,0,0,1,10.63,11c17.58,25.82-18.69,48.35-38.46,33.51S57.32,66,57.32,66A6.81,6.81,0,0,0,55,65.83a24.58,24.58,0,0,0-3,11.66c0,14.89,13.45,27,30,27S112.08,92.38,112.08,77.49Z"/></g><path id="_Path_48" data-name="&lt;Path&gt;" class="cls-18" d="M50.18,73.1S86.08,57,112.45,74.93c0,0-2.56-28.94-31.5-27.84S50.18,73.1,50.18,73.1Z"/><path id="_Path_49" data-name="&lt;Path&gt;" class="cls-19" d="M112.45,74.93s-1.43-16-14.06-23.75a58,58,0,0,1,9.21,13.95s-4.67-2.2-18.41-3.85S65,63.21,58.42,64c-4.77.6,1.55-7.59,5.81-12.58-13,7.43-14.05,21.65-14.05,21.65S86.08,57,112.45,74.93Z"/><path id="_Path_50" data-name="&lt;Path&gt;" class="cls-14" d="M50.18,73.1S62.27,60.46,88.64,62.93s24.73,11.81,24.73,11.81S85.89,59.64,50.18,73.1Z"/></g><path id="_Path_51" data-name="&lt;Path&gt;" class="cls-18" d="M28.46,99.12s3.8-7.94,15.89-5.18,16.75,15.58,40.72,16.52c14,.55,18.43-8.87,28.57-14.1,12-6.17,23.87,1.82,20.92,15.47-1.75,8.06-9.81,17.12-17,20.8-14.16,7.25-38.35,16.23-69.43.69C16.67,117.58,28.46,99.12,28.46,99.12Z"/><path id="_Path_52" data-name="&lt;Path&gt;" class="cls-19" d="M117.58,132.63a24.7,24.7,0,0,0,2.6-1.55c1.13-5.21-1-10.8-4.63-14.72A21.84,21.84,0,0,0,82,118.19a3.16,3.16,0,0,0-.82,2.06c.1,1.11,1.2,1.8,2,2.61,2.88,3.08-.11,9-4.32,9s-7.16-5.35-5.42-9.19c.63-1.39,1.72-2.6,2-4.1.6-3.26-2.78-5.79-5.82-7.13-7.5-3.3-16.33-4.77-23.82-1.45-5.89,2.6-10.3,8.87-10.34,15.08a58.94,58.94,0,0,0,12.72,8.29C79.23,148.86,103.42,139.88,117.58,132.63Z"/><path id="_Path_53" data-name="&lt;Path&gt;" class="cls-19" d="M47.42,132.94l.73.38c25.14,12.57,45.76,9.1,60.22,3.47a12.38,12.38,0,0,0-3.41-9.95,15.61,15.61,0,0,0-20.77-1.94,6.24,6.24,0,0,1-2.9,6.23l.4.39c2.07,2.2-.08,6.48-3.11,6.43s-5.14-3.85-3.89-6.6a11.33,11.33,0,0,1,.56-1,7.14,7.14,0,0,1-2.21-6.5c-.36-.2-.73-.39-1.09-.55-5.39-2.37-11.73-3.42-17.11-1A12.6,12.6,0,0,0,47.42,132.94Z"/><g id="_Group_39" data-name="&lt;Group&gt;"><path id="_Path_54" data-name="&lt;Path&gt;" class="cls-20" d="M111.84,135.36A21,21,0,0,0,99,125.73c-6.94-1.82-14.45-.37-20.88,2.81a6.65,6.65,0,0,1-3.75,1.05,6.59,6.59,0,0,1-1.76-.62c-3.91-1.77-8.34-2.79-12.52-1.81-3.94.91-7.54,3.93-8.41,7.84C77.28,146.46,97.93,141.46,111.84,135.36Z"/></g><path id="_Compound_Path_" data-name="&lt;Compound Path&gt;" class="cls-12" d="M51.16,105.7c-3.61,1.8-8.49,2.26-11.21-1.18a8.32,8.32,0,0,1-.4-9.32A7.54,7.54,0,0,1,41,93.42a23.46,23.46,0,0,1,3.35.52C49,95,52.59,97.59,56.6,100.39A12.67,12.67,0,0,1,51.16,105.7Zm9.09-2.82a7.56,7.56,0,0,0-1.33,1.66,8.32,8.32,0,0,0,.4,9.32c2.72,3.44,7.6,3,11.2,1.18a12.59,12.59,0,0,0,5.59-5.61A43.82,43.82,0,0,1,60.25,102.88Zm57.24-4.37a14.26,14.26,0,0,0-2.31-2.86c-.51.21-1,.44-1.54.71-5,2.59-8.64,6.2-12.71,9.12a12.61,12.61,0,0,0,6,4.32c3.83,1.26,8.72,1,10.92-2.77A8.3,8.3,0,0,0,117.49,98.51ZM79.69,110a12.59,12.59,0,0,0,3.21,5.75c2.83,2.87,7.29,4.89,11,2.52a8.28,8.28,0,0,0,3.55-7.75,16.54,16.54,0,0,0-.44-2.61,23,23,0,0,1-11.92,2.54C83.15,110.38,81.37,110.22,79.69,110Z"/><path id="_Path_55" data-name="&lt;Path&gt;" class="cls-17" d="M41.94,97.82c5-4.47,12.51,2.9,13.38,4.49a13.09,13.09,0,0,0,1.28-1.92c-4-2.8-7.57-5.38-12.25-6.45A23.46,23.46,0,0,0,41,93.42a7.54,7.54,0,0,0-1.45,1.78,8.32,8.32,0,0,0,.4,9.32,6.48,6.48,0,0,0,3.52,2.28C41.37,104.94,38.2,101.17,41.94,97.82Z"/><g id="_Group_40" data-name="&lt;Group&gt;"><path id="_Path_56" data-name="&lt;Path&gt;" class="cls-17" d="M75.07,111.16a13.22,13.22,0,0,0,1-1.73,43.82,43.82,0,0,1-15.86-6.55,7.56,7.56,0,0,0-1.33,1.66,60.88,60.88,0,0,0,14.15,6.1Z"/><path id="_Path_57" data-name="&lt;Path&gt;" class="cls-17" d="M115.18,95.65c-.51.21-1,.44-1.54.71-5,2.59-8.64,6.2-12.71,9.12a11.51,11.51,0,0,0,.85,1c5.4-3.64,11.08-7.71,13-7.93,3.3-.36,2.93,9.16.18,10.81a.76.76,0,0,0-.33.44,6.51,6.51,0,0,0,3.19-2.77,8.3,8.3,0,0,0-.38-8.52A14.26,14.26,0,0,0,115.18,95.65Z"/><path id="_Path_58" data-name="&lt;Path&gt;" class="cls-17" d="M92.49,111.92a27.57,27.57,0,0,0,4.8-2.51c-.08-.51-.18-1-.3-1.49a23,23,0,0,1-11.92,2.54c-1.92-.08-3.7-.24-5.38-.45a12.81,12.81,0,0,0,.85,2.31C85,113.06,89,113.12,92.49,111.92Z"/></g><g id="_Group_41" data-name="&lt;Group&gt;"><path id="_Path_59" data-name="&lt;Path&gt;" class="cls-21" d="M79.92,131.84a9.29,9.29,0,0,1,2.43,4,6.83,6.83,0,0,1,.3,1.38c0,.33,0,.51,0,.51s-.43-.61-1.13-1.48a32.73,32.73,0,0,0-2.88-3.11,31.48,31.48,0,0,0-3.22-2.75c-.9-.67-1.53-1.07-1.53-1.07l.52,0a7.61,7.61,0,0,1,1.39.24A9.42,9.42,0,0,1,79.92,131.84Z"/></g><path id="_Path_60" data-name="&lt;Path&gt;" class="cls-22" d="M111.84,135.36A19.86,19.86,0,0,0,106,129a3.66,3.66,0,0,1-.13,1.09c-.74,2.51-3.21,4.09-5.63,5.08a27.17,27.17,0,0,1-9.37,2A5.16,5.16,0,0,1,88.8,137c-1.85-.73-2.38-3-2.85-5s-1.61-4.19-3.6-4.18l1.38-1.49a36.85,36.85,0,0,0-5.58,2.22,6.65,6.65,0,0,1-3.75,1.05h0l4.4,3.32a6.68,6.68,0,0,1,2.14,2.19,2.3,2.3,0,0,1-.43,2.81,3.27,3.27,0,0,1-2.23.4,57.09,57.09,0,0,1-19.43-4.81,5.06,5.06,0,0,1-1.67-1,3.21,3.21,0,0,1,0-4.08,2.23,2.23,0,0,1,.27-.26A10.58,10.58,0,0,0,51.71,135C77.28,146.46,97.93,141.46,111.84,135.36Z"/><g id="_Group_42" data-name="&lt;Group&gt;"><g id="_Group_43" data-name="&lt;Group&gt;"><path id="_Path_61" data-name="&lt;Path&gt;" class="cls-4" d="M28.73,92.39a10.47,10.47,0,0,1,4.71-2,7.68,7.68,0,0,1,1.54-.1l.56,0-.5.25c-.33.14-.78.38-1.33.67a32.48,32.48,0,0,0-3.92,2.53,31.94,31.94,0,0,0-3.55,3c-.43.44-.79.81-1,1.08l-.38.41.14-.55a9,9,0,0,1,.53-1.44A10.55,10.55,0,0,1,28.73,92.39Z"/></g><g id="_Group_44" data-name="&lt;Group&gt;"><path id="_Path_62" data-name="&lt;Path&gt;" class="cls-4" d="M134.15,92.85a7.79,7.79,0,0,1,2.57,4,6.2,6.2,0,0,1,.23,1.41c0,.33,0,.51,0,.51l-.27-.43c-.17-.28-.43-.66-.76-1.11a18.63,18.63,0,0,0-6.39-5.26,13.31,13.31,0,0,0-1.24-.53l-.47-.18.5-.09a6.14,6.14,0,0,1,1.43,0A7.81,7.81,0,0,1,134.15,92.85Z"/></g><g id="_Group_45" data-name="&lt;Group&gt;"><path id="_Path_63" data-name="&lt;Path&gt;" class="cls-4" d="M83.35,104.05a37.29,37.29,0,0,0,10.18-1.14,29.47,29.47,0,0,0,7.76-3.21,24.06,24.06,0,0,0,4.54-3.47,14.55,14.55,0,0,0,1.09-1.13l.38-.41-.32.46c-.2.29-.5.74-.94,1.27a22.58,22.58,0,0,1-4.26,4A27.37,27.37,0,0,1,94,104.35a33.3,33.3,0,0,1-10.63,1.47,58.12,58.12,0,0,1-18.84-4,39.53,39.53,0,0,1-5.32-2.39,18.34,18.34,0,0,1-1.82-1.12,38.78,38.78,0,0,0,7.41,2.67A77.58,77.58,0,0,0,83.35,104.05Z"/></g><g id="_Group_46" data-name="&lt;Group&gt;"><path id="_Path_64" data-name="&lt;Path&gt;" class="cls-4" d="M111.11,90.2a4.68,4.68,0,0,1,2.08-1.72,4.72,4.72,0,0,1-.56,2.64,4.62,4.62,0,0,1-2.08,1.71A4.69,4.69,0,0,1,111.11,90.2Z"/></g><g id="_Group_47" data-name="&lt;Group&gt;"><path id="_Path_65" data-name="&lt;Path&gt;" class="cls-4" d="M86.45,146.19a13.14,13.14,0,0,0,5.66-.81,9,9,0,0,0,1.6-.85l.56-.41a6.6,6.6,0,0,1-.36.6,6.52,6.52,0,0,1-1.35,1.42A9.28,9.28,0,0,1,86.35,148a15.45,15.45,0,0,1-6.08-1.84A23.71,23.71,0,0,1,78,144.79s1,.16,2.54.48A42.75,42.75,0,0,0,86.45,146.19Z"/></g></g><g id="_Group_48" data-name="&lt;Group&gt;"><g id="_Group_49" data-name="&lt;Group&gt;"><path id="_Path_66" data-name="&lt;Path&gt;" class="cls-4" d="M72.52,33.56A2,2,0,0,0,72,35.48a3.76,3.76,0,0,0,1.1,1.9,11.59,11.59,0,0,0,3.49,2.28,12.06,12.06,0,0,0,2.79.79c.68.11,1.07.13,1.07.13a8.55,8.55,0,0,1-1.09.07,11.07,11.07,0,0,1-3-.4,10.66,10.66,0,0,1-4-2.1,4.7,4.7,0,0,1-1.56-2.43,3.6,3.6,0,0,1,0-1.63,2.79,2.79,0,0,1,.93-1.49,3.09,3.09,0,0,1,1.59-.67,4.7,4.7,0,0,1,1.55.05,8.36,8.36,0,0,1,2.56,1,12.87,12.87,0,0,1,3.52,2.8,12.11,12.11,0,0,1,1.69,2.48c.16.31.27.56.34.73l.11.26L82.92,39c-.1-.15-.25-.37-.46-.65a13.49,13.49,0,0,0-2-2.13A13.89,13.89,0,0,0,77,33.89a8.67,8.67,0,0,0-2.28-.73A2.8,2.8,0,0,0,72.52,33.56Z"/></g><g id="_Group_50" data-name="&lt;Group&gt;"><path id="_Path_67" data-name="&lt;Path&gt;" class="cls-4" d="M75.11,44h0l.51.06a6.54,6.54,0,0,0,1,0,6.1,6.1,0,0,0,1.69-.38,6.18,6.18,0,0,0,1.1-.55l.39-.26a4.67,4.67,0,0,1-1.18,1.35,4.93,4.93,0,0,1-1.81.88,4.78,4.78,0,0,1-1.21.16,4.87,4.87,0,0,1-.66,0,4.11,4.11,0,0,1-.55-.11l-.53-.18c-.13,0-.06-.15-.08-.23v-.28a2.18,2.18,0,0,1,.06-.56,2.05,2.05,0,0,1,.38-.8,2.68,2.68,0,0,1,1-.85,3.39,3.39,0,0,1,2.09-.23,6.84,6.84,0,0,1,1.25.38l.44.19h-.47a12.26,12.26,0,0,0-1.25,0,3.24,3.24,0,0,0-1.53.51,2.14,2.14,0,0,0-.58.62C75,44,75.13,43.93,75.11,44Z"/></g><g id="_Group_51" data-name="&lt;Group&gt;"><path id="_Path_68" data-name="&lt;Path&gt;" class="cls-4" d="M93.84,40a2.82,2.82,0,0,1-1.31,3.62,9.29,9.29,0,0,1-2.79.88,14.1,14.1,0,0,1-1.9.19c-.45,0-.7,0-.7,0l.67-.19c.42-.13,1-.33,1.77-.61A11.74,11.74,0,0,0,92,42.78a1.81,1.81,0,0,0,.71-2.28A2.29,2.29,0,0,0,90.61,39a3.8,3.8,0,0,0-2.36.66,2,2,0,0,0-1,1.33.8.8,0,0,0,.17.61A.79.79,0,0,1,87,41a2.29,2.29,0,0,1,.81-1.82,4.2,4.2,0,0,1,2.77-1.23,3.31,3.31,0,0,1,1.88.48A3.37,3.37,0,0,1,93.84,40Z"/></g></g><path id="_Path_69" data-name="&lt;Path&gt;" class="cls-23" d="M139,64a103.45,103.45,0,0,1,5.68,17.34c5.5,23.35-3.29,39-17.3,51.1S67.49,153,37,134.08C13,119.19,15.53,89.19,17.71,76.36c-7.65,17.79-9,77.39,69.41,71.23C159.16,141.93,156,93,139,64Z"/><g id="_Group_52" data-name="&lt;Group&gt;" class="cls-24"><g id="_Group_53" data-name="&lt;Group&gt;"><path id="_Path_70" data-name="&lt;Path&gt;" class="cls-4" d="M77.58,56.73A43.09,43.09,0,0,1,86,56.31c1.29.1,2.52.17,3.66.37a29.79,29.79,0,0,1,3.13.58c1,.18,1.8.46,2.55.67a17,17,0,0,1,1.87.62l1.58.59-1.65-.32a18.31,18.31,0,0,0-1.93-.34c-.76-.11-1.61-.28-2.56-.35s-2-.21-3.11-.25-2.32-.06-3.57-.08a58,58,0,0,0-16.06,2.49c-1.19.4-2.33.74-3.37,1.16s-2,.79-2.89,1.18-1.65.77-2.34,1.1-1.27.65-1.74.91c-.94.53-1.47.81-1.47.81l1.32-1c.43-.34,1-.74,1.61-1.16s1.36-.94,2.21-1.41,1.78-1,2.82-1.5,2.17-1,3.37-1.46A43,43,0,0,1,77.58,56.73Z"/></g><g id="_Group_54" data-name="&lt;Group&gt;"><path id="_Path_71" data-name="&lt;Path&gt;" class="cls-4" d="M79,52.42a28.76,28.76,0,0,1,9.6-.62,23.16,23.16,0,0,1,2.87.57l1,.32-1.06,0c-.68,0-1.66,0-2.86,0a59.65,59.65,0,0,0-9.19,1.45c-3.56.8-6.83,1.56-9.22,2s-3.85.82-3.85.82a28.9,28.9,0,0,1,3.6-1.67A62.82,62.82,0,0,1,79,52.42Z"/></g></g><g id="_Group_55" data-name="&lt;Group&gt;"><path id="_Path_72" data-name="&lt;Path&gt;" class="cls-25" d="M114.28,40.37a1.26,1.26,0,0,0,.87-.32c-.72-.41-1.43-.8-2.15-1.16A1.28,1.28,0,0,0,114.28,40.37Z"/><path id="_Path_73" data-name="&lt;Path&gt;" class="cls-25" d="M109.52,56.45a.57.57,0,0,0,0-1.14A.57.57,0,0,0,109.52,56.45Z"/><path id="_Path_74" data-name="&lt;Path&gt;" class="cls-25" d="M109.89,44.58c-4.18,0-4.19,6.49,0,6.49S114.07,44.58,109.89,44.58Z"/><path id="_Path_75" data-name="&lt;Path&gt;" class="cls-25" d="M105.86,36.91a1.39,1.39,0,0,0,0,2.78A1.39,1.39,0,0,0,105.86,36.91Z"/><path id="_Path_76" data-name="&lt;Path&gt;" class="cls-25" d="M102.56,51.46a1.44,1.44,0,0,0,0-2.88A1.44,1.44,0,0,0,102.56,51.46Z"/><path id="_Path_77" data-name="&lt;Path&gt;" class="cls-25" d="M96.7,37.41a3.32,3.32,0,0,0,3.38-3.54c-2.3-.62-4.47-1.08-6.47-1.42C92.77,34.51,93.8,37.41,96.7,37.41Z"/><path id="_Path_78" data-name="&lt;Path&gt;" class="cls-25" d="M100.36,41.57a1.49,1.49,0,0,0,0,3A1.49,1.49,0,0,0,100.36,41.57Z"/><path id="_Path_79" data-name="&lt;Path&gt;" class="cls-25" d="M123.07,56.28a1.13,1.13,0,0,0,0-2.26A1.13,1.13,0,0,0,123.07,56.28Z"/><path id="_Path_80" data-name="&lt;Path&gt;" class="cls-25" d="M120.87,44.21c-3.71,0-3.71,5.76,0,5.76a2.9,2.9,0,0,0,2.38-4.45c-.51-.41-1-.81-1.55-1.19A3,3,0,0,0,120.87,44.21Z"/><path id="_Path_81" data-name="&lt;Path&gt;" class="cls-25" d="M115,63.44c2.66,0,2.66-4.12,0-4.12S112.36,63.44,115,63.44Z"/><path id="_Path_82" data-name="&lt;Path&gt;" class="cls-25" d="M116.48,52.45a1.24,1.24,0,0,0,0,2.47A1.24,1.24,0,0,0,116.48,52.45Z"/><path id="_Path_83" data-name="&lt;Path&gt;" class="cls-25" d="M53.84,47.38a1.91,1.91,0,0,0,0,3.81A1.91,1.91,0,0,0,53.84,47.38Z"/><path id="_Path_84" data-name="&lt;Path&gt;" class="cls-25" d="M44.69,67.51c3.18,0,3.18-4.94,0-4.94S41.5,67.51,44.69,67.51Z"/><path id="_Path_85" data-name="&lt;Path&gt;" class="cls-25" d="M60.8,44.65a1,1,0,0,0,0,2A1,1,0,0,0,60.8,44.65Z"/><path id="_Path_86" data-name="&lt;Path&gt;" class="cls-25" d="M41.39,42.78a1.75,1.75,0,0,0,0,3.5A1.75,1.75,0,0,0,41.39,42.78Z"/><path id="_Path_87" data-name="&lt;Path&gt;" class="cls-25" d="M65.93,38.85a1.65,1.65,0,0,0,0,3.3A1.65,1.65,0,0,0,65.93,38.85Z"/><path id="_Path_88" data-name="&lt;Path&gt;" class="cls-25" d="M57.51,40.4c3.19,0,3.59-4.35,1.18-5.43-1.2.31-2.35.64-3.46,1C54.19,37.61,54.94,40.4,57.51,40.4Z"/><path id="_Path_89" data-name="&lt;Path&gt;" class="cls-25" d="M50.18,42.2a1.6,1.6,0,0,0,0,3.19A1.6,1.6,0,0,0,50.18,42.2Z"/><path id="_Path_90" data-name="&lt;Path&gt;" class="cls-25" d="M44.32,49.45c-5,0-5,7.73,0,7.73S49.3,49.45,44.32,49.45Z"/><path id="_Path_91" data-name="&lt;Path&gt;" class="cls-25" d="M33.7,55.76a1.34,1.34,0,0,0,0-2.68A1.34,1.34,0,0,0,33.7,55.76Z"/><path id="_Path_92" data-name="&lt;Path&gt;" class="cls-25" d="M51.65,59.06a1,1,0,0,0,0-2A1,1,0,0,0,51.65,59.06Z"/><path id="_Path_93" data-name="&lt;Path&gt;" class="cls-25" d="M130.4,54.7a1.89,1.89,0,0,0,1.47-.82c-.74-.88-1.5-1.71-2.27-2.52a1.84,1.84,0,0,0-.82,1,1.22,1.22,0,0,0-.07.17A1.76,1.76,0,0,0,130.4,54.7Z"/></g></g></g></g></g></g></svg>