<svg xmlns="http://www.w3.org/2000/svg" xmlns:xlink="http://www.w3.org/1999/xlink" viewBox="0 0 128.54 150.57"><defs><style>.cls-1{fill:#9b9b9b;opacity:0.44;}.cls-2{fill:#68004d;}.cls-3{fill:#ff7f00;}.cls-4{fill:#fff594;}.cls-11,.cls-5{fill:#590800;}.cls-5{opacity:0.13;}.cls-15,.cls-6,.cls-9{fill:#fff;}.cls-6{opacity:0.67;}.cls-7{fill:url(#åçûìßííûé_ãðàäèåíò_32);}.cls-8{fill:#cae7ef;}.cls-10{fill:url(#åçûìßííûé_ãðàäèåíò_3);}.cls-12{fill:url(#åçûìßííûé_ãðàäèåíò_3-2);}.cls-13{fill:#3f0300;}.cls-14{fill:#8c130d;opacity:0.61;}.cls-15{opacity:0.24;}</style><linearGradient id="åçûìßííûé_ãðàäèåíò_32" x1="43.32" y1="24.93" x2="76.54" y2="140.77" gradientUnits="userSpaceOnUse"><stop offset="0" stop-color="#931a6e"/><stop offset="1" stop-color="#700d56"/></linearGradient><linearGradient id="åçûìßííûé_ãðàäèåíò_3" x1="-271.33" y1="10.55" x2="-256.94" y2="10.55" gradientTransform="matrix(-0.89, 0.09, 0.06, 0.99, -171.86, 65.37)" gradientUnits="userSpaceOnUse"><stop offset="0" stop-color="#a43113"/><stop offset="1" stop-color="#6f160d"/></linearGradient><linearGradient id="åçûìßííûé_ãðàäèåíò_3-2" x1="-277.61" y1="2.9" x2="-263.99" y2="2.9" gradientTransform="matrix(-0.77, 0.12, 0.05, 0.99, -163.8, 82.56)" xlink:href="#åçûìßííûé_ãðàäèåíò_3"/></defs><title>Asset 2</title><g id="Layer_2" data-name="Layer 2"><g id="monsters"><ellipse class="cls-1" cx="64.27" cy="143.23" rx="64.27" ry="7.34"/><path class="cls-2" d="M63.59,72.9S88,90.23,89.36,91.07s4-.14,5.57-1.41,2.46-2.47,2.94-2.07-.74,1.88-2.1,3A5.56,5.56,0,0,1,93.1,92a5.12,5.12,0,0,0,3.09-.67c2-1.14,3.31-3.42,3.75-3.42s-.17,2.48-2.27,4.29a7.48,7.48,0,0,1-2.78,1.63A4.52,4.52,0,0,0,98,93.05c1.65-1,2.37-2.53,3.16-2.53s-.86,2.69-2.8,3.91c-1.74,1.1-4.84,1-4.84,1A12,12,0,0,1,96,96.72a2.1,2.1,0,0,1,.51,2,10.3,10.3,0,0,0-3.35-1.4c-1.8-.36-4.15-4.08-4.65-4.5S71.92,85,71.92,85,63.42,74.22,63.59,72.9Z"/><path class="cls-2" d="M55.54,73.37S31.17,90.7,29.76,91.54s-4-.14-5.57-1.4-2.34-2.35-2.82-2,.62,1.76,2,2.93A5.56,5.56,0,0,0,26,92.42a5.15,5.15,0,0,1-3.1-.67c-1.95-1.14-3.3-3.42-3.74-3.42s.17,2.48,2.26,4.29a7.47,7.47,0,0,0,2.79,1.63,4.52,4.52,0,0,1-3.08-.73C19.51,92.5,18.79,91,18,91s.89,2.46,2.49,3.75C22.27,96.17,25.9,96,25.9,96a11.14,11.14,0,0,0-2.79,1.21,2.09,2.09,0,0,0-.51,2A10.21,10.21,0,0,1,26,97.75c1.8-.36,4.14-4.08,4.64-4.5s16.62-7.81,16.62-7.81S55.71,74.7,55.54,73.37Z"/><path class="cls-3" d="M18.63,26.22c0,.14,0,.27.07.42a23.2,23.2,0,0,0,1.85,6,19.16,19.16,0,0,0,1.06,2,24.86,24.86,0,0,0,3.12,4.21A31.47,31.47,0,0,0,33,45.34a15.25,15.25,0,0,0,6.53-8.53,10.39,10.39,0,0,0-.43-7l0,0-.58-.37c-.75-.47-1.46-.93-2.14-1.39s-1.51-1-2.21-1.55a64.77,64.77,0,0,1-5.41-4.35c-.66-.6-1.25-1.17-1.8-1.71-4.41-4.37-5.36-6.93-6.24-6.26s-2.27,3.9-2.32,8.41A23.13,23.13,0,0,0,18.63,26.22Z"/><path class="cls-4" d="M21.61,34.67a24.86,24.86,0,0,0,3.12,4.21,19,19,0,0,0,6.49-4.06c4.44-3.87,5.14-6.76,5.14-6.76-.78-.53-1.51-1-2.21-1.55a20.23,20.23,0,0,1-5.44,5.65A16.83,16.83,0,0,1,21.61,34.67Z"/><path class="cls-4" d="M18.63,26.22a12.55,12.55,0,0,0,5.1-.74,12.16,12.16,0,0,0,5-3.32c-.66-.6-1.25-1.17-1.8-1.71A15.27,15.27,0,0,1,23,22.09a12.18,12.18,0,0,1-4.65.51A23.13,23.13,0,0,0,18.63,26.22Z"/><path class="cls-5" d="M18.7,26.64a23.2,23.2,0,0,0,1.85,6C24.4,41.05,33,45.34,33,45.34a15.25,15.25,0,0,0,6.53-8.53,10.39,10.39,0,0,0-.43-7l-.6-.41s-7.89,2.47-14,.51A14.81,14.81,0,0,1,18.7,26.64Z"/><path class="cls-6" d="M35.68,30.54a.45.45,0,0,0,.42-.78,58.79,58.79,0,0,1-6.71-5.23c-2.06-1.89-3.8-3.73-5.07-5.12a.45.45,0,0,0-.71.53,28.19,28.19,0,0,0,5.06,6.3A22.21,22.21,0,0,0,35.68,30.54Z"/><path class="cls-7" d="M87.66,136.27l-2.83,2.12s-4.12-8.25-6.6-9.42c-1.35-.64-10.39-.69-18.85-.35-7.05.28-13.68.83-15.08,1.52-3,1.53-4.59,7.43-4.59,7.43h-3a158.37,158.37,0,0,1-6.07-34.28c-.67-9.5-.92-24.1-.87-37.16,0-14.34.39-26.85.87-28.7.8-3.16,20.35-14.81,29.38-17.31a11.08,11.08,0,0,1,2.71-.48c6.86-.12,19.94,11.19,22,14.61s2,73.86,2.83,83.88A109.69,109.69,0,0,1,87.66,136.27Z"/><path class="cls-2" d="M39,108c.51,3.62-.24,6.72-1.69,6.93s-3-2.56-3.56-6.18S34,102,35.41,101.8,38.46,104.36,39,108Z"/><path class="cls-3" d="M39.56,107.9c.52,3.62-.24,6.72-1.69,6.93s-3-2.56-3.56-6.18.24-6.72,1.69-6.93S39,104.28,39.56,107.9Z"/><path class="cls-2" d="M34.69,94c.23,1.59-.12,2.94-.78,3s-1.39-1.11-1.61-2.69.13-2.94.79-3S34.47,92.38,34.69,94Z"/><path class="cls-3" d="M35,93.93c.23,1.58-.13,2.94-.79,3s-1.38-1.11-1.6-2.69.12-2.94.78-3S34.73,92.35,35,93.93Z"/><path class="cls-2" d="M38.58,88.94c.23,1.58-.13,2.94-.79,3s-1.38-1.11-1.61-2.69.13-2.94.79-3S38.35,87.36,38.58,88.94Z"/><path class="cls-3" d="M38.85,88.9c.22,1.58-.13,2.94-.79,3s-1.38-1.11-1.61-2.69.13-2.94.79-3S38.62,87.32,38.85,88.9Z"/><path class="cls-2" d="M34.46,69.93c.21,1.43-.11,2.66-.71,2.75s-1.26-1-1.46-2.44.11-2.67.71-2.75S34.26,68.49,34.46,69.93Z"/><path class="cls-3" d="M34.7,69.89c.21,1.43-.11,2.67-.71,2.75s-1.25-1-1.46-2.44.12-2.66.72-2.75S34.5,68.46,34.7,69.89Z"/><path class="cls-2" d="M33.62,76.76c.09.7-.06,1.3-.35,1.34s-.61-.49-.71-1.19.06-1.29.35-1.34S33.52,76.06,33.62,76.76Z"/><path class="cls-3" d="M33.73,76.74c.1.7,0,1.3-.34,1.34s-.61-.49-.71-1.19,0-1.29.34-1.33S33.63,76.05,33.73,76.74Z"/><path class="cls-2" d="M39.54,98.34c.18,1.24-.1,2.31-.62,2.39s-1.09-.88-1.26-2.12.09-2.32.62-2.4S39.37,97.09,39.54,98.34Z"/><path class="cls-3" d="M39.75,98.31c.18,1.24-.1,2.31-.62,2.39s-1.09-.88-1.26-2.12.1-2.32.62-2.4S39.58,97.06,39.75,98.31Z"/><ellipse class="cls-2" cx="64.58" cy="51.63" rx="12.75" ry="17.59"/><path class="cls-2" d="M50.45,53.12c.75,9.69-3,17.89-8.44,18.3S31.6,64.33,30.84,54.64s3-17.88,8.45-18.3S49.7,43.44,50.45,53.12Z"/><path class="cls-8" d="M53.5,52.52C54,61.09,59,67.56,64.64,67s9.79-8,9.28-16.57-5.5-15-11.14-14.46S53,44,53.5,52.52Z"/><ellipse class="cls-9" cx="63.23" cy="51.52" rx="9.76" ry="14.82" transform="translate(-1.35 1.7) rotate(-1.53)"/><path class="cls-10" d="M57.73,52.14c.33,5.38,3.46,9.45,7,9.08s6.15-5,5.83-10.41-3.46-9.44-7-9.08S57.41,46.76,57.73,52.14Z"/><path class="cls-11" d="M59.56,52.06c.23,3.85,2.47,6.76,5,6.5S69,55,68.73,51.11s-2.47-6.76-5-6.49S59.32,48.21,59.56,52.06Z"/><path class="cls-9" d="M65.42,49a3.66,3.66,0,0,0,3.86,3.67,4.07,4.07,0,0,0,3.38-4.42,3.66,3.66,0,0,0-3.86-3.67A4.07,4.07,0,0,0,65.42,49Z"/><path class="cls-9" d="M63.26,53.51a1.35,1.35,0,0,0,1.41,1.34,1.49,1.49,0,0,0,1.24-1.62,1.33,1.33,0,0,0-1.41-1.34A1.48,1.48,0,0,0,63.26,53.51Z"/><path class="cls-8" d="M33.43,56.42c1.34,8,6.06,13.46,10.54,12.23S51,60,49.65,52,43.59,38.51,39.11,39.74,32.09,48.44,33.43,56.42Z"/><path class="cls-9" d="M33.43,56.42c1.28,7.61,5.77,12.82,10,11.65s6.69-8.29,5.41-15.89-5.77-12.82-10-11.65S32.16,48.82,33.43,56.42Z"/><ellipse class="cls-12" cx="43.91" cy="53.96" rx="5.24" ry="9.23" transform="translate(-6.02 5.52) rotate(-6.73)"/><path class="cls-11" d="M40.28,55.07c.6,3.58,2.72,6,4.73,5.49s3.16-3.91,2.55-7.5-2.72-6-4.73-5.49S39.67,51.48,40.28,55.07Z"/><path class="cls-9" d="M43,52.63c.35,2.08,1.92,3.42,3.51,3s2.59-2.48,2.24-4.56-1.92-3.41-3.51-3S42.61,50.55,43,52.63Z"/><path class="cls-9" d="M41.44,56.59c.13.76.7,1.25,1.28,1.09A1.44,1.44,0,0,0,43.54,56c-.12-.76-.7-1.25-1.28-1.09A1.44,1.44,0,0,0,41.44,56.59Z"/><path class="cls-2" d="M87.66,136.27l-2.83,2.12s-4.12-8.25-6.6-9.42-30.85-.35-33.93,1.17-4.59,7.43-4.59,7.43.95-8.25,3.3-10.25,28.87-3.07,32.64-8.48,7.54-52.78,4.83-70.25S60.07,20.12,60.07,20.12a11.08,11.08,0,0,1,2.71-.48c6.86-.12,19.94,11.19,22,14.61s2,73.86,2.83,83.88A109.69,109.69,0,0,1,87.66,136.27Z"/><path class="cls-3" d="M100.15,25.36c0,.13-.05.27-.07.41a23.15,23.15,0,0,1-1.85,6,20.21,20.21,0,0,1-1.06,2A24.86,24.86,0,0,1,94.05,38a31.73,31.73,0,0,1-8.27,6.46,15.25,15.25,0,0,1-6.53-8.54A10.36,10.36,0,0,1,79.68,29a.1.1,0,0,0,0-.05c.2-.11.39-.24.58-.36.75-.47,1.46-.94,2.14-1.4s1.51-1,2.21-1.54A66.47,66.47,0,0,0,90,21.3c.66-.6,1.25-1.17,1.8-1.71,4.41-4.38,5.36-6.93,6.24-6.26s2.27,3.9,2.32,8.4A23.25,23.25,0,0,1,100.15,25.36Z"/><path class="cls-4" d="M97.17,33.81A24.86,24.86,0,0,1,94.05,38,18.94,18.94,0,0,1,87.56,34c-4.44-3.87-5.14-6.77-5.14-6.77.77-.52,1.51-1,2.21-1.54a20.36,20.36,0,0,0,5.44,5.65A17,17,0,0,0,97.17,33.81Z"/><path class="cls-4" d="M100.15,25.36a12.55,12.55,0,0,1-5.1-.74,12.16,12.16,0,0,1-5-3.32c.66-.6,1.25-1.17,1.8-1.71a15.27,15.27,0,0,0,3.91,1.64,12.12,12.12,0,0,0,4.65.5A23.25,23.25,0,0,1,100.15,25.36Z"/><path class="cls-5" d="M100.08,25.77a23.15,23.15,0,0,1-1.85,6c-3.85,8.39-12.45,12.68-12.45,12.68a15.25,15.25,0,0,1-6.53-8.54A10.36,10.36,0,0,1,79.68,29l.6-.41s7.89,2.47,14,.51A14.69,14.69,0,0,0,100.08,25.77Z"/><path class="cls-6" d="M83.09,29.68a.44.44,0,0,1-.41-.78,60,60,0,0,0,6.71-5.23c2-1.89,3.8-3.73,5.06-5.12a.45.45,0,0,1,.72.52,28,28,0,0,1-5.06,6.31A22.13,22.13,0,0,1,83.09,29.68Z"/><path class="cls-2" d="M87.66,136.27s9.15-6.68,10.41-6.28-5.21,6.28-5.21,6.28,8.18-3.43,9.13-2.59c1.12,1-8.06,5-8.06,5s7.31.45,6.77,1.91c-.42,1.12-12.67-.49-14.21-1.12a3.8,3.8,0,0,1-1.66-1Z"/><path class="cls-2" d="M36.76,137.57s-12.36.11-12,1.41,9.27.79,9.27.79-6.75,3.14-6.52,4.31S36.24,142,36.24,142s-2.3,6-.81,6.25,4.28-10.64,4.28-10.64Z"/><path class="cls-13" d="M58.38,20.66s-9.87-12-8.61-13S59.9,18.94,59.9,18.94,55.26,1.34,57.39.48,63.28,18.4,63.28,18.4,65.32.48,69.72,0s-3.85,17.43-3.85,17.43,7.54-4.47,9.74-3.29-8.43,6.51-8.43,6.51Z"/><path class="cls-2" d="M74.48,104.35c-.33,2.31.15,4.29,1.08,4.43s1.94-1.64,2.27-4-.15-4.3-1.07-4.44S74.81,102,74.48,104.35Z"/><path class="cls-3" d="M74.1,104.29c-.33,2.32.16,4.3,1.08,4.43s1.95-1.63,2.28-4-.15-4.3-1.08-4.43S74.44,102,74.1,104.29Z"/><path class="cls-2" d="M71.49,97.46c-.16,1.16.08,2.16.55,2.23s1-.83,1.14-2-.07-2.17-.54-2.23S71.66,96.29,71.49,97.46Z"/><path class="cls-3" d="M71.31,97.43c-.17,1.16.07,2.16.54,2.23s1-.82,1.15-2-.08-2.16-.55-2.23S71.47,96.26,71.31,97.43Z"/><path class="cls-2" d="M75.32,93.43c-.13,2.27.5,4.15,1.41,4.2s1.75-1.75,1.88-4-.5-4.15-1.41-4.2S75.45,91.15,75.32,93.43Z"/><path class="cls-3" d="M75,93.4c-.13,2.28.5,4.16,1.41,4.21s1.75-1.75,1.88-4-.5-4.15-1.41-4.2S75.08,91.13,75,93.4Z"/><path class="cls-2" d="M77.41,81c-.07,1.12.24,2,.69,2.08s.87-.87.93-2-.25-2-.7-2.07S77.47,79.89,77.41,81Z"/><path class="cls-3" d="M77.22,81c-.06,1.12.25,2,.7,2.08s.87-.87.93-2-.25-2-.7-2.07S77.29,79.88,77.22,81Z"/><ellipse class="cls-2" cx="78.87" cy="68.05" rx="2.03" ry="0.81" transform="translate(6.45 142.93) rotate(-86.75)"/><path class="cls-3" d="M77.87,68c-.06,1.12.25,2,.7,2.07s.86-.86.93-2-.25-2-.7-2.08S77.93,66.88,77.87,68Z"/><path class="cls-2" d="M74.65,67.81c-.05.86.19,1.57.53,1.58s.66-.65.71-1.51-.19-1.56-.53-1.58S74.7,67,74.65,67.81Z"/><path class="cls-3" d="M74.51,67.81c-.05.85.19,1.56.53,1.58s.66-.66.71-1.51-.19-1.56-.53-1.58S74.56,67,74.51,67.81Z"/><path class="cls-13" d="M77.53,36.61a23.59,23.59,0,0,0-7.64-3.15c-3.9-.68-9.75-1.06-9.75-1.06l2.1-1a4.63,4.63,0,0,1-1.79-1.38,21.11,21.11,0,0,1-2-3.79s4.19.57,8.92,1.31a16.5,16.5,0,0,1,9.79,4.93l-1.34-.07A14.89,14.89,0,0,1,77.53,36.61Z"/><path class="cls-14" d="M75.3,31.44a13.7,13.7,0,0,0-5.73-3,34.9,34.9,0,0,0-7.79-1.13l2.51,1-3.86-.69s1.38,1.76,5.89,2.09c6,.45,8.7,3.07,8.7,3.07l-.94-1.74Z"/><path class="cls-13" d="M34.59,36.61a18.22,18.22,0,0,1,5.26-2.7,25.65,25.65,0,0,1,6.7-.91l-1.44-.83A3.31,3.31,0,0,0,46.34,31a19.68,19.68,0,0,0,1.38-3.26,38.48,38.48,0,0,0-6.14,1.13c-5.38,1.21-6.73,4.23-6.73,4.23l.92-.06A14.63,14.63,0,0,0,34.59,36.61Z"/><path class="cls-14" d="M36.13,32.36a9.14,9.14,0,0,1,3.94-2.56,28.37,28.37,0,0,1,5.81-1.21L43.7,29.72l2.65-.59a12,12,0,0,1-4,1.79,30.27,30.27,0,0,0-6,2.64L37,32.07Z"/><path class="cls-15" d="M41.16,73.79S44.3,82.6,51,84.44s11.94-2.86,11.94-2.86S56,85.49,50.22,82.88,41.16,73.79,41.16,73.79Z"/><path class="cls-2" d="M74.24,71.83l-2,6,1.3,4.8-6.05-.4.5,1.52a23.81,23.81,0,0,1-8.65,4.38,29.29,29.29,0,0,1-10.66.38L43.3,82.88,37.85,80l1-7.94S44,87.25,54,86.58C65.87,85.79,74.24,71.83,74.24,71.83Z"/><polygon class="cls-9" points="39.83 75.45 37.52 80.75 42.03 79.49 39.83 75.45"/><polygon class="cls-9" points="43.54 81.31 42.03 84.44 45.31 83.67 43.54 81.31"/><polygon class="cls-9" points="48.61 85.79 48.61 89.38 51.83 87.03 48.61 85.79"/><polygon class="cls-9" points="56.38 86.79 60.15 89.09 60.63 85.79 56.38 86.79"/><polygon class="cls-9" points="67.99 79.67 73.54 82.67 71.58 75.45 67.99 79.67"/><polygon class="cls-9" points="63.75 83.38 67.99 83.79 66.99 80.75 63.75 83.38"/><path class="cls-11" d="M39.2,71.87s4.6,14.45,15,14.22S74.11,71.48,74.11,71.48l.4.1S65.71,87.85,54.2,87.85c-11.74,0-15.35-15.44-15.35-15.44Z"/><path class="cls-2" d="M69.87,69.55a15,15,0,0,1,4.36,2.71,11.52,11.52,0,0,1,3,3.81,11.43,11.43,0,0,0-2.43-5.38C72.9,68.77,69.87,69.55,69.87,69.55Z"/><path class="cls-2" d="M41.76,70.06a32.47,32.47,0,0,0-2.92,2.8c-1.17,1.33-2.15,4.66-2.15,4.66a9.41,9.41,0,0,1,.88-5.09A5.34,5.34,0,0,1,41.76,70.06Z"/></g></g></svg>