<svg xmlns="http://www.w3.org/2000/svg" viewBox="0 0 139.55 180.94"><defs><style>.cls-1{fill:#4d6e5f;}.cls-1,.cls-2,.cls-3,.cls-4,.cls-5,.cls-6,.cls-7,.cls-8,.cls-9{fill-rule:evenodd;}.cls-2{fill:#5d9589;}.cls-3{fill:#f05653;}.cls-4{fill:#f58670;}.cls-5{fill:#fff;}.cls-6{fill:#e6e6e5;}.cls-7{fill:#2e2e2c;}.cls-8{fill:#3f6f65;}.cls-9{fill:#e8dbda;}</style></defs><title>Asset 4</title><g id="Layer_2" data-name="Layer 2"><g id="OBJECTS"><path class="cls-1" d="M69.77,0A69.8,69.8,0,0,1,125,112.49a17.6,17.6,0,1,1-18.15,28.93,12.72,12.72,0,0,1-24.07,5.71,14.42,14.42,0,0,1-5.46,1.05,14.77,14.77,0,0,1-6.92-1.71,13.18,13.18,0,0,1-23.32,4,18.18,18.18,0,1,1-22.83-27.83A69.78,69.78,0,0,1,69.77,0Z"/><path class="cls-2" d="M69.77,0a69.42,69.42,0,0,1,39.09,12,90,90,0,0,1,10.72,42.7A90.42,90.42,0,0,1,16.43,144a18.18,18.18,0,0,1,7.79-21.41A69.78,69.78,0,0,1,69.77,0Z"/><path class="cls-3" d="M29.14,67.52c-9.3-54.66,94.58-54.66,85.28,0-8.4,49.31-76.88,49.31-85.28,0Z"/><path class="cls-4" d="M80.53,103.64a44.75,44.75,0,0,1-20-.58,20.43,20.43,0,1,1,20,.58Z"/><path class="cls-5" d="M96.62,96.84a44.09,44.09,0,0,1-49.33.23,6.68,6.68,0,0,1,5.54-3.37c2.79,0,5.24,2.08,6.4,5.11,1.16-3,3.59-5.11,6.4-5.11s5.24,2.08,6.4,5.11c1.16-3,3.61-5.11,6.4-5.11s5.24,2.08,6.42,5.11c1.16-3,3.59-5.11,6.4-5.11a6.53,6.53,0,0,1,5.37,3.14Z"/><path class="cls-6" d="M96.62,96.84a44.09,44.09,0,0,1-49.33.23,9,9,0,0,1,.6-.84A45.59,45.59,0,0,0,96,96a9.24,9.24,0,0,1,.62.82Z"/><path class="cls-5" d="M40,36.64c16.53-13.47,46.88-13.49,63.46-.07-1.68,2.77-4.27,4.56-7.22,4.56-3.58,0-6.7-2.67-8.18-6.51-1.48,3.84-4.57,6.51-8.16,6.51s-6.7-2.67-8.18-6.51c-1.48,3.84-4.6,6.51-8.18,6.51s-6.68-2.67-8.19-6.51c-1.48,3.84-4.57,6.51-8.16,6.51A8.59,8.59,0,0,1,40,36.64Z"/><path class="cls-6" d="M40,36.64c16.53-13.47,46.88-13.49,63.46-.07a11.88,11.88,0,0,1-.88,1.27c-16.45-12-45.27-12-61.68,0a10.66,10.66,0,0,1-.9-1.24Z"/><path class="cls-7" d="M106.52,13.62c-10.07,1.13-18.58,3.69-25.21,7.94,0,0,4.66-7.47,11.66-9a26.3,26.3,0,0,1,13.55,1.06Z"/><path class="cls-7" d="M35.26,13.62c10.07,1.13,18.58,3.69,25.21,7.94,0,0-4.65-7.47-11.66-9a26.35,26.35,0,0,0-13.55,1.06Z"/><path class="cls-8" d="M11.73,65.07A4.55,4.55,0,1,1,7.19,69.6a4.54,4.54,0,0,1,4.54-4.53Z"/><path class="cls-8" d="M7.86,58.24A2.73,2.73,0,1,1,5.13,61a2.72,2.72,0,0,1,2.73-2.73Z"/><path class="cls-8" d="M18.66,62.56a1.94,1.94,0,1,1-1.93,1.93,1.93,1.93,0,0,1,1.93-1.93Z"/><path class="cls-2" d="M128.51,75.75A4.54,4.54,0,1,0,133,80.3a4.55,4.55,0,0,0-4.53-4.55Z"/><path class="cls-2" d="M132.37,68.92a2.73,2.73,0,1,0,2.73,2.72,2.72,2.72,0,0,0-2.73-2.72Z"/><path class="cls-2" d="M121.57,73.25a1.93,1.93,0,1,0,1.94,1.94,1.93,1.93,0,0,0-1.94-1.94Z"/><path class="cls-8" d="M24.35,24.87a2.73,2.73,0,1,1-2.72,2.73,2.71,2.71,0,0,1,2.72-2.73Z"/><path class="cls-8" d="M30.37,20.64a1.92,1.92,0,1,1-1.94,1.91,1.92,1.92,0,0,1,1.94-1.91Z"/><path class="cls-8" d="M109.2,32.69a2.73,2.73,0,1,1,2.22,3.15,2.74,2.74,0,0,1-2.22-3.15Z"/><path class="cls-8" d="M106.07,26a1.94,1.94,0,0,1,3.82.66,1.94,1.94,0,0,1-3.82-.66Z"/><path class="cls-9" d="M75.14,170.48c31.64,0,57.28,2.34,57.28,5.22s-25.64,5.24-57.28,5.24-57.27-2.35-57.27-5.24,25.64-5.22,57.27-5.22Z"/><path class="cls-8" d="M30.73,133.47A4.56,4.56,0,1,1,26.18,138a4.55,4.55,0,0,1,4.55-4.56Z"/><path class="cls-8" d="M26.87,126.67a2.73,2.73,0,1,1-2.73,2.72,2.72,2.72,0,0,1,2.73-2.72Z"/><path class="cls-8" d="M37.65,131a1.94,1.94,0,0,1,0,3.87,1.94,1.94,0,1,1,0-3.87Z"/></g></g></svg>