<?xml version="1.0" encoding="utf-8"?>
<!-- Generator: Adobe Illustrator 22.1.0, SVG Export Plug-In . SVG Version: 6.00 Build 0)  -->
<svg version="1.1" id="Layer_1" xmlns="http://www.w3.org/2000/svg" xmlns:xlink="http://www.w3.org/1999/xlink" x="0px" y="0px"
	 viewBox="0 0 128.5 150.6" style="enable-background:new 0 0 128.5 150.6;" xml:space="preserve">
<style type="text/css">
	.st0{display:none;opacity:0.44;fill:#9B9B9B;enable-background:new    ;}
	.st1{fill:#68004D;}
	.st2{fill:#FF7F00;}
	.st3{fill:#FFF594;}
	.st4{opacity:0.13;fill:#590800;enable-background:new    ;}
	.st5{opacity:0.67;fill:#FFFFFF;enable-background:new    ;}
	.st6{fill:url(#SVGID_1_);}
	.st7{fill:#CAE7EF;}
	.st8{fill:#FFFFFF;}
	.st9{fill:url(#SVGID_2_);}
	.st10{fill:#590800;}
	.st11{fill:url(#SVGID_3_);}
	.st12{fill:#3F0300;}
	.st13{opacity:0.61;fill:#8C130D;enable-background:new    ;}
	.st14{opacity:0.24;fill:#FFFFFF;enable-background:new    ;}
</style>
<title>Asset 2</title>
<g id="Layer_2_1_">
	<g id="monsters">
		<ellipse class="st0" cx="64.3" cy="143.2" rx="64.3" ry="7.3"/>
		<path class="st1" d="M63.6,72.9c0,0,24.4,17.3,25.8,18.2s4-0.1,5.6-1.4s2.5-2.5,2.9-2.1s-0.7,1.9-2.1,3c-0.7,0.7-1.7,1.2-2.7,1.4
			c1.1,0.1,2.2-0.1,3.1-0.7c2-1.1,3.3-3.4,3.8-3.4s-0.2,2.5-2.3,4.3c-0.8,0.7-1.7,1.3-2.8,1.6c1.1,0.1,2.2-0.1,3.1-0.8
			c1.7-1,2.4-2.5,3.2-2.5s-0.9,2.7-2.8,3.9c-1.7,1.1-4.8,1-4.8,1c0.9,0.3,1.7,0.8,2.5,1.3c0.5,0.5,0.7,1.3,0.5,2
			c-1-0.7-2.2-1.1-3.3-1.4c-1.8-0.4-4.2-4.1-4.7-4.5S71.9,85,71.9,85S63.4,74.2,63.6,72.9z"/>
		<path class="st1" d="M55.5,73.4c0,0-24.4,17.3-25.8,18.2s-4-0.1-5.6-1.4s-2.3-2.3-2.8-2s0.6,1.8,2,2.9c0.7,0.7,1.6,1.1,2.6,1.3
			c-1.1,0.1-2.2-0.1-3.1-0.7c-2-1.1-3.3-3.4-3.7-3.4s0.2,2.5,2.3,4.3c0.8,0.7,1.8,1.3,2.8,1.6c-1.1,0.1-2.2-0.1-3.1-0.7
			c-1.6-1-2.3-2.5-3.1-2.5s0.9,2.5,2.5,3.8c1.8,1.4,5.4,1.3,5.4,1.3c-1,0.3-1.9,0.7-2.8,1.2c-0.5,0.5-0.7,1.3-0.5,2
			c1-0.7,2.2-1.2,3.4-1.5c1.8-0.4,4.1-4.1,4.6-4.5s16.6-7.8,16.6-7.8S55.7,74.7,55.5,73.4z"/>
		<path class="st2" d="M18.6,26.2c0,0.1,0,0.3,0.1,0.4c0.3,2.1,1,4.1,1.9,6c0.3,0.7,0.7,1.4,1.1,2c0.9,1.5,1.9,2.9,3.1,4.2
			c2.4,2.6,5.2,4.8,8.3,6.5c3.1-2,5.5-5,6.5-8.5c0.7-2.3,0.5-4.8-0.4-7l0,0l-0.6-0.4c-0.8-0.5-1.5-0.9-2.1-1.4s-1.5-1-2.2-1.5
			c-1.9-1.4-3.7-2.8-5.4-4.4c-0.7-0.6-1.3-1.2-1.8-1.7c-4.4-4.4-5.4-6.9-6.2-6.3s-2.3,3.9-2.3,8.4C18.4,23.8,18.5,25,18.6,26.2z"/>
		<path class="st3" d="M21.6,34.7c0.9,1.5,1.9,2.9,3.1,4.2c2.4-0.9,4.6-2.3,6.5-4.1c4.4-3.9,5.1-6.8,5.1-6.8c-0.8-0.5-1.5-1-2.2-1.5
			c-1.4,2.2-3.3,4.1-5.4,5.6C26.6,33.5,24.1,34.4,21.6,34.7z"/>
		<path class="st3" d="M18.6,26.2c1.7,0.1,3.5-0.1,5.1-0.7c1.9-0.7,3.6-1.8,5-3.3c-0.7-0.6-1.3-1.2-1.8-1.7
			c-1.2,0.7-2.5,1.3-3.9,1.6c-1.5,0.5-3.1,0.6-4.6,0.5C18.3,23.8,18.4,25,18.6,26.2z"/>
		<path class="st4" d="M18.7,26.6c0.3,2.1,1,4.1,1.9,6C24.4,41,33,45.3,33,45.3c3.1-2,5.5-5,6.5-8.5c0.7-2.3,0.5-4.8-0.4-7l-0.6-0.4
			c0,0-7.9,2.5-14,0.5C22.3,29.3,20.4,28.2,18.7,26.6z"/>
		<path class="st5" d="M35.7,30.5c0.2,0.1,0.5-0.1,0.6-0.3c0.1-0.2,0-0.4-0.1-0.5c-2.4-1.6-4.6-3.3-6.7-5.2
			c-2.1-1.9-3.8-3.7-5.1-5.1c-0.2-0.2-0.5-0.2-0.6,0c-0.1,0.1-0.2,0.3-0.1,0.5c1.4,2.3,3.1,4.5,5.1,6.3
			C30.7,28.1,33.1,29.6,35.7,30.5z"/>
		
			<linearGradient id="SVGID_1_" gradientUnits="userSpaceOnUse" x1="43.2507" y1="127.0734" x2="76.4762" y2="11.2143" gradientTransform="matrix(1 0 0 -1 0 152)">
			<stop  offset="0" style="stop-color:#931A6E"/>
			<stop  offset="1" style="stop-color:#700D56"/>
		</linearGradient>
		<path class="st6" d="M87.7,136.3l-2.8,2.1c0,0-4.1-8.3-6.6-9.4c-1.3-0.6-10.4-0.7-18.8-0.4c-7,0.3-13.7,0.8-15.1,1.5
			c-3,1.5-4.6,7.4-4.6,7.4h-3c-3.3-11.2-5.3-22.7-6.1-34.3c-0.7-9.5-0.9-24.1-0.9-37.2c0-14.3,0.4-26.8,0.9-28.7
			C31.4,34.3,51,22.6,60,20.1c0.9-0.3,1.8-0.4,2.7-0.5c6.9-0.1,19.9,11.2,22,14.6s2,73.9,2.8,83.9C88.1,124.2,88.1,130.2,87.7,136.3
			z"/>
		<path class="st1" d="M39,108c0.5,3.6-0.2,6.7-1.7,6.9s-3-2.6-3.6-6.2s0.3-6.8,1.7-6.9S38.5,104.4,39,108z"/>
		<path class="st2" d="M39.6,107.9c0.5,3.6-0.2,6.7-1.7,6.9s-3-2.6-3.6-6.2s0.2-6.7,1.7-6.9S39,104.3,39.6,107.9z"/>
		<path class="st1" d="M34.7,94c0.2,1.6-0.1,2.9-0.8,3s-1.4-1.1-1.6-2.7s0.1-2.9,0.8-3S34.5,92.4,34.7,94z"/>
		<path class="st2" d="M35,93.9c0.2,1.6-0.1,2.9-0.8,3s-1.4-1.1-1.6-2.7s0.1-2.9,0.8-3S34.7,92.3,35,93.9z"/>
		<path class="st1" d="M38.6,88.9c0.2,1.6-0.1,2.9-0.8,3s-1.4-1.1-1.6-2.7s0.1-2.9,0.8-3S38.3,87.4,38.6,88.9z"/>
		<path class="st2" d="M38.8,88.9c0.2,1.6-0.1,2.9-0.8,3s-1.4-1.1-1.6-2.7s0.1-2.9,0.8-3S38.6,87.3,38.8,88.9z"/>
		<path class="st1" d="M34.5,69.9c0.2,1.4-0.1,2.7-0.7,2.8s-1.3-1-1.5-2.4s0.1-2.7,0.7-2.8S34.3,68.5,34.5,69.9z"/>
		<path class="st2" d="M34.7,69.9c0.2,1.4-0.1,2.7-0.7,2.8s-1.3-1-1.5-2.4s0.1-2.7,0.7-2.8S34.5,68.5,34.7,69.9z"/>
		<path class="st1" d="M33.6,76.8c0.1,0.7-0.1,1.3-0.3,1.3s-0.6-0.5-0.7-1.2s0.1-1.3,0.3-1.3S33.5,76.1,33.6,76.8z"/>
		<path class="st2" d="M33.7,76.7c0.1,0.7,0,1.3-0.3,1.3s-0.6-0.5-0.7-1.2s0-1.3,0.3-1.3S33.6,76.1,33.7,76.7z"/>
		<path class="st1" d="M39.5,98.3c0.2,1.2-0.1,2.3-0.6,2.4s-1.1-0.9-1.3-2.1s0.1-2.3,0.6-2.4S39.4,97.1,39.5,98.3z"/>
		<path class="st2" d="M39.8,98.3c0.2,1.2-0.1,2.3-0.6,2.4s-1.1-0.9-1.3-2.1s0.1-2.3,0.6-2.4S39.6,97.1,39.8,98.3z"/>
		<ellipse class="st1" cx="64.6" cy="51.6" rx="12.8" ry="17.6"/>
		<path class="st1" d="M50.5,53.1c0.8,9.7-3,17.9-8.4,18.3s-10.4-7.1-11.2-16.8s3-17.9,8.5-18.3S49.7,43.4,50.5,53.1z"/>
		<path class="st7" d="M53.5,52.5C54,61.1,59,67.6,64.6,67s9.8-8,9.3-16.6s-5.5-15-11.1-14.5S53,44,53.5,52.5z"/>
		
			<ellipse transform="matrix(0.9996 -2.670036e-02 2.670036e-02 0.9996 -1.3529 1.7067)" class="st8" cx="63.2" cy="51.5" rx="9.8" ry="14.8"/>
		
			<linearGradient id="SVGID_2_" gradientUnits="userSpaceOnUse" x1="-800.0017" y1="115.4541" x2="-785.6118" y2="115.4541" gradientTransform="matrix(-0.89 9.000000e-02 -6.000000e-02 -0.99 -634.85 237.16)">
			<stop  offset="0" style="stop-color:#A43113"/>
			<stop  offset="1" style="stop-color:#6F160D"/>
		</linearGradient>
		<path class="st9" d="M57.7,52.1c0.3,5.4,3.5,9.5,7,9.1c3.5-0.4,6.2-5,5.8-10.4s-3.5-9.4-7-9.1S57.4,46.8,57.7,52.1z"/>
		<path class="st10" d="M59.6,52.1c0.2,3.8,2.5,6.8,5,6.5c2.5-0.3,4.4-3.6,4.2-7.5s-2.5-6.8-5-6.5S59.3,48.2,59.6,52.1z"/>
		<path class="st8" d="M65.4,49c0,2,1.6,3.7,3.6,3.7c0.1,0,0.1,0,0.2,0c2.1-0.4,3.6-2.3,3.4-4.4c0-2-1.6-3.7-3.6-3.7
			c-0.1,0-0.1,0-0.2,0C66.7,44.9,65.2,46.9,65.4,49z"/>
		<path class="st8" d="M63.3,53.5c0,0.7,0.6,1.3,1.4,1.3c0,0,0,0,0.1,0c0.8-0.1,1.3-0.8,1.2-1.6c0-0.7-0.6-1.3-1.3-1.3
			c0,0-0.1,0-0.1,0C63.7,52,63.2,52.7,63.3,53.5z"/>
		<path class="st7" d="M33.4,56.4c1.3,8,6.1,13.5,10.5,12.2S51,60,49.7,52s-6.1-13.5-10.5-12.3S32.1,48.4,33.4,56.4z"/>
		<path class="st8" d="M33.4,56.4c1.3,7.6,5.8,12.8,10,11.7s6.7-8.3,5.4-15.9s-5.8-12.8-10-11.7S32.2,48.8,33.4,56.4z"/>
		
			<linearGradient id="SVGID_3_" gradientUnits="userSpaceOnUse" x1="-821.6191" y1="82.4893" x2="-807.9991" y2="82.4893" gradientTransform="matrix(-0.7506 0.2094 -0.1657 -0.9773 -553.074 304.9392)">
			<stop  offset="0" style="stop-color:#A43113"/>
			<stop  offset="1" style="stop-color:#6F160D"/>
		</linearGradient>
		<path class="st11" d="M42.8,44.8c2.9-0.3,5.7,3.5,6.3,8.6s-1.2,9.4-4.1,9.8c-2.9,0.3-5.7-3.5-6.3-8.6C38.1,49.5,40,45.1,42.8,44.8
			z"/>
		<path class="st10" d="M40.3,55.1c0.6,3.6,2.7,6,4.7,5.5s3.2-3.9,2.5-7.5s-2.7-6-4.7-5.5S39.7,51.5,40.3,55.1z"/>
		<path class="st8" d="M43,52.6c0.3,2.1,1.9,3.4,3.5,3s2.6-2.5,2.2-4.6s-1.9-3.4-3.5-3S42.6,50.5,43,52.6z"/>
		<path class="st8" d="M41.4,56.6c0.1,0.8,0.7,1.3,1.3,1.1c0.6-0.3,1-1,0.8-1.7c-0.1-0.8-0.7-1.3-1.3-1.1
			C41.6,55.2,41.3,55.9,41.4,56.6z"/>
		<path class="st1" d="M87.7,136.3l-2.8,2.1c0,0-4.1-8.3-6.6-9.4s-30.8-0.4-33.9,1.2s-4.6,7.4-4.6,7.4s1-8.3,3.3-10.3
			s28.9-3.1,32.6-8.5s7.5-52.8,4.8-70.3S60.1,20.1,60.1,20.1c0.9-0.3,1.8-0.4,2.7-0.5c6.9-0.1,19.9,11.2,22,14.6s2,73.9,2.8,83.9
			C88.1,124.2,88.1,130.2,87.7,136.3z"/>
		<path class="st2" d="M100.2,25.4c0,0.1-0.1,0.3-0.1,0.4c-0.3,2.1-1,4.1-1.8,6c-0.3,0.7-0.7,1.4-1.1,2c-0.9,1.5-1.9,2.9-3.1,4.2
			c-2.4,2.6-5.2,4.8-8.3,6.5c-3.1-2-5.5-5-6.5-8.5c-0.7-2.3-0.5-4.7,0.4-6.9c0,0,0,0,0,0c0.2-0.1,0.4-0.2,0.6-0.4
			c0.8-0.5,1.5-0.9,2.1-1.4s1.5-1,2.2-1.5c1.9-1.4,3.7-2.8,5.4-4.4c0.7-0.6,1.3-1.2,1.8-1.7c4.4-4.4,5.4-6.9,6.2-6.3
			s2.3,3.9,2.3,8.4C100.4,22.9,100.3,24.2,100.2,25.4z"/>
		<path class="st3" d="M97.2,33.8c-0.9,1.5-1.9,2.9-3.1,4.2c-2.4-0.9-4.6-2.2-6.5-4c-4.4-3.9-5.1-6.8-5.1-6.8c0.8-0.5,1.5-1,2.2-1.5
			c1.4,2.2,3.3,4.1,5.4,5.6C92.2,32.7,94.6,33.5,97.2,33.8z"/>
		<path class="st3" d="M100.2,25.4c-1.7,0.1-3.5-0.1-5.1-0.7c-1.9-0.7-3.6-1.8-5-3.3c0.7-0.6,1.3-1.2,1.8-1.7
			c1.2,0.7,2.5,1.3,3.9,1.6c1.5,0.5,3.1,0.6,4.7,0.5C100.4,22.9,100.3,24.2,100.2,25.4z"/>
		<path class="st4" d="M100.1,25.8c-0.3,2.1-1,4.1-1.8,6c-3.8,8.4-12.4,12.7-12.4,12.7c-3.1-2-5.5-5-6.5-8.5
			c-0.7-2.3-0.5-4.7,0.4-6.9l0.6-0.4c0,0,7.9,2.5,14,0.5C96.4,28.5,98.4,27.3,100.1,25.8z"/>
		<path class="st5" d="M83.1,29.7c-0.2,0.1-0.5,0-0.6-0.2c-0.1-0.2,0-0.5,0.2-0.6c2.4-1.6,4.6-3.3,6.7-5.2c2-1.9,3.8-3.7,5.1-5.1
			c0.2-0.2,0.5-0.2,0.6,0c0.1,0.1,0.2,0.3,0.1,0.5c-1.4,2.3-3.1,4.5-5.1,6.3C88.1,27.2,85.7,28.7,83.1,29.7z"/>
		<path class="st1" d="M87.7,136.3c0,0,9.2-6.7,10.4-6.3s-5.2,6.3-5.2,6.3s8.2-3.4,9.1-2.6c1.1,1-8.1,5-8.1,5s7.3,0.4,6.8,1.9
			c-0.4,1.1-12.7-0.5-14.2-1.1c-0.6-0.2-1.2-0.5-1.7-1L87.7,136.3z"/>
		<path class="st1" d="M36.8,137.6c0,0-12.4,0.1-12,1.4s9.3,0.8,9.3,0.8s-6.8,3.1-6.5,4.3s8.7-2.1,8.7-2.1s-2.3,6-0.8,6.3
			s4.3-10.6,4.3-10.6L36.8,137.6z"/>
		<path class="st12" d="M58.4,20.7c0,0-9.9-12-8.6-13s10.1,11.3,10.1,11.3S55.3,1.3,57.4,0.5s5.9,17.9,5.9,17.9s2-17.9,6.4-18.4
			s-3.8,17.4-3.8,17.4s7.5-4.5,9.7-3.3s-8.4,6.5-8.4,6.5L58.4,20.7z"/>
		<path class="st1" d="M74.5,104.3c-0.3,2.3,0.2,4.3,1.1,4.4s1.9-1.6,2.3-4s-0.2-4.3-1.1-4.4S74.8,102,74.5,104.3z"/>
		<path class="st2" d="M74.1,104.3c-0.3,2.3,0.2,4.3,1.1,4.4s1.9-1.6,2.3-4s-0.2-4.3-1.1-4.4S74.4,102,74.1,104.3z"/>
		<path class="st1" d="M71.5,97.5c-0.2,1.2,0.1,2.2,0.6,2.2s1-0.8,1.1-2s-0.1-2.2-0.5-2.2S71.7,96.3,71.5,97.5z"/>
		<path class="st2" d="M71.3,97.4c-0.2,1.2,0.1,2.2,0.5,2.2s1-0.8,1.2-2s-0.1-2.2-0.6-2.2S71.5,96.3,71.3,97.4z"/>
		<path class="st1" d="M75.3,93.4c-0.1,2.3,0.5,4.2,1.4,4.2s1.8-1.8,1.9-4s-0.5-4.2-1.4-4.2S75.4,91.2,75.3,93.4z"/>
		<path class="st2" d="M75,93.4c-0.1,2.3,0.5,4.2,1.4,4.2s1.8-1.8,1.9-4s-0.5-4.2-1.4-4.2S75.1,91.1,75,93.4z"/>
		<path class="st1" d="M77.4,81c-0.1,1.1,0.2,2,0.7,2.1s0.9-0.9,0.9-2s-0.3-2-0.7-2.1S77.5,79.9,77.4,81z"/>
		<path class="st2" d="M77.2,81c-0.1,1.1,0.3,2,0.7,2.1s0.9-0.9,0.9-2s-0.3-2-0.7-2.1S77.3,79.9,77.2,81z"/>
		
			<ellipse transform="matrix(5.669279e-02 -0.9984 0.9984 5.669279e-02 6.4557 142.9222)" class="st1" cx="78.9" cy="68" rx="2" ry="0.8"/>
		<path class="st2" d="M77.9,68c-0.1,1.1,0.3,2,0.7,2.1s0.9-0.9,0.9-2s-0.3-2-0.7-2.1S77.9,66.9,77.9,68z"/>
		<path class="st1" d="M74.7,67.8c-0.1,0.9,0.2,1.6,0.5,1.6s0.7-0.7,0.7-1.5s-0.2-1.6-0.5-1.6S74.7,67,74.7,67.8z"/>
		<path class="st2" d="M74.5,67.8c-0.1,0.8,0.2,1.6,0.5,1.6s0.7-0.7,0.7-1.5s-0.2-1.6-0.5-1.6S74.6,67,74.5,67.8z"/>
		<path class="st12" d="M77.5,36.6c-2.3-1.5-4.9-2.6-7.6-3.2c-3.9-0.7-9.8-1.1-9.8-1.1l2.1-1c-0.7-0.3-1.3-0.8-1.8-1.4
			c-0.8-1.2-1.5-2.5-2-3.8c0,0,4.2,0.6,8.9,1.3c3.7,0.5,7.2,2.2,9.8,4.9l-1.3-0.1C76.6,33.7,77.2,35.1,77.5,36.6z"/>
		<path class="st13" d="M75.3,31.4c-1.6-1.4-3.6-2.5-5.7-3c-2.5-0.7-5.2-1-7.8-1.1l2.5,1l-3.9-0.7c0,0,1.4,1.8,5.9,2.1
			c6,0.5,8.7,3.1,8.7,3.1L74.1,31L75.3,31.4z"/>
		<path class="st12" d="M34.6,36.6c1.6-1.2,3.4-2.1,5.3-2.7c2.2-0.6,4.4-0.9,6.7-0.9l-1.4-0.8c0.5-0.3,0.9-0.7,1.2-1.2
			c0.6-1,1-2.1,1.4-3.3c-2.1,0.2-4.1,0.6-6.1,1.1c-5.4,1.2-6.7,4.2-6.7,4.2l0.9-0.1C35.2,34.2,34.8,35.4,34.6,36.6z"/>
		<path class="st13" d="M36.1,32.4c1.1-1.2,2.4-2.1,3.9-2.6c1.9-0.6,3.8-1,5.8-1.2l-2.2,1.1l2.7-0.6c-1.2,0.8-2.6,1.4-4,1.8
			c-2.1,0.7-4.1,1.5-6,2.6l0.6-1.5L36.1,32.4z"/>
		<path class="st14" d="M41.2,73.8c0,0,3.1,8.8,9.8,10.7s11.9-2.9,11.9-2.9s-6.9,3.9-12.7,1.3S41.2,73.8,41.2,73.8z"/>
		<path class="st1" d="M74.2,71.8l-2,6l1.3,4.8l-6.1-0.4l0.5,1.5c-2.6,2-5.5,3.5-8.7,4.4c-3.5,0.8-7.1,0.9-10.7,0.4l-5.4-5.6
			L37.8,80l1-7.9c0,0,5.2,15.2,15.2,14.5C65.9,85.8,74.2,71.8,74.2,71.8z"/>
		<polygon class="st8" points="39.8,75.4 37.5,80.8 42,79.5 		"/>
		<polygon class="st8" points="43.5,81.3 42,84.4 45.3,83.7 		"/>
		<polygon class="st8" points="48.6,85.8 48.6,89.4 51.8,87 		"/>
		<polygon class="st8" points="56.4,86.8 60.2,89.1 60.6,85.8 		"/>
		<polygon class="st8" points="68,79.7 73.5,82.7 71.6,75.4 		"/>
		<polygon class="st8" points="63.8,83.4 68,83.8 67,80.8 		"/>
		<path class="st10" d="M39.2,71.9c0,0,4.6,14.4,15,14.2s19.9-14.6,19.9-14.6l0.4,0.1c0,0-8.8,16.3-20.3,16.3
			c-11.7,0-15.4-15.4-15.4-15.4L39.2,71.9z"/>
		<path class="st1" d="M69.9,69.6c1.6,0.6,3.1,1.6,4.4,2.7c1.3,1,2.3,2.3,3,3.8c-0.3-2-1.2-3.8-2.4-5.4
			C72.9,68.8,69.9,69.6,69.9,69.6z"/>
		<path class="st1" d="M41.8,70.1c-1,0.9-2,1.8-2.9,2.8c-1.2,1.3-2.2,4.7-2.2,4.7c-0.2-1.7,0.1-3.5,0.9-5.1
			C38.5,71,40.1,70.1,41.8,70.1z"/>
	</g>
</g>
</svg>
