<svg xmlns="http://www.w3.org/2000/svg" viewBox="0 0 210.67 148.77"><defs><style>.cls-1{isolation:isolate;}.cls-2{fill:#b52054;}.cls-12,.cls-14,.cls-17,.cls-18,.cls-3,.cls-5{fill:#a5d24a;}.cls-16,.cls-17,.cls-18,.cls-4{opacity:0.5;}.cls-10,.cls-12,.cls-13,.cls-17,.cls-18,.cls-4,.cls-5{mix-blend-mode:multiply;}.cls-14,.cls-18,.cls-5{fill-rule:evenodd;}.cls-6{fill:#fff;}.cls-7{fill:#472055;}.cls-8{fill:#0463ac;}.cls-15,.cls-8,.cls-9{mix-blend-mode:screen;}.cls-9{fill:#fffad3;opacity:0.2;}.cls-10{fill:#6fd1de;opacity:0.3;}.cls-11{fill:#f52b5d;}</style></defs><title>Asset15</title><g class="cls-1"><g id="Layer_2" data-name="Layer 2"><g id="OBJECTS"><g id="_Group_" data-name="&lt;Group&gt;"><path id="_Path_" data-name="&lt;Path&gt;" class="cls-2" d="M210.67,140.1c0,4.79-47.16,8.67-105.34,8.67S0,144.89,0,140.1s47.16-8.67,105.33-8.67S210.67,135.31,210.67,140.1Z"/><g id="_Group_2" data-name="&lt;Group&gt;"><path id="_Path_2" data-name="&lt;Path&gt;" class="cls-3" d="M34.8,54.92c-4.08,10.79-4.18,22.68-7.21,33.94-1.32,4.89-3.45,7.79-6,11.9-.36.57-4.12,9.61-1,8.42a49.47,49.47,0,0,0-10.73,5.69C5,118.25.41,124.15,2.78,129.55c1.45,3.29,5.16,5.11,8.74,5.41s7.15-.66,10.66-1.46a11.62,11.62,0,0,1,4.75-.39c2,.38,3.65,1.73,5.27,3,4,3.06,8.76,5.82,13.74,5.12,5.17-.74,9.77-5.14,14.9-4.16,4,.76,6.6,4.49,10.08,6.54,4.58,2.7,10.38,2.32,15.45.76s9.77-4.18,14.81-5.85a42,42,0,0,1,20.71-1.42c5.94,1.09,11.62,3.47,17.61,4.23s12.8-.48,16.51-5.25c1.1-1.41,2-3.16,3.68-3.77a7.14,7.14,0,0,1,3.41-.05,130,130,0,0,0,18.06,1.38c5.52,0,12.2-1.05,14.3-6.16a1.86,1.86,0,0,0-1.7-1.44c6.51.76,13-5.05,13-11.6a6.34,6.34,0,0,0-1.34-4.19c-1.13-1.29-2.9-1.78-4.57-2.21L190,105.21c2.37.12,3.83-3,3.07-5.22s-2.85-3.75-4.82-5.08l-7.05-4.79c-2.48-1.69-5-3.45-6.64-6-2.51-4-2.81-9.41-4.47-13.77a109.23,109.23,0,0,1-3.56-11.22A126.9,126.9,0,0,0,157.68,35c-7.21-14.58-18.61-28.33-35.21-32C104-1.06,84.59-2.18,67.51,7.29,49.59,17.24,41.56,37,34.8,54.92Z"/><g id="_Group_3" data-name="&lt;Group&gt;" class="cls-4"><path id="_Path_3" data-name="&lt;Path&gt;" class="cls-5" d="M135.58,70.71a16.16,16.16,0,0,0,5.13-3.31,15.37,15.37,0,0,0,2.77-3.55,14.79,14.79,0,0,0,2-7.36,13.22,13.22,0,0,0-.08-1.42c0-.14,0-.28,0-.41-.05-.35-.1-.69-.17-1,0-.13,0-.27-.08-.4-.1-.44-.21-.89-.35-1.32l0-.1a11.78,11.78,0,0,0-.45-1.17c-.05-.13-.11-.26-.17-.39-.14-.3-.29-.59-.44-.88l-.2-.36c-.22-.39-.46-.76-.71-1.12l-.11-.15h0l-.38-.48c-.09-.13-.19-.25-.29-.37l0-.06-.27-.31-.24-.27-.28-.29-.33-.34-.15-.14-.3-.26-.49-.43-.2-.16-.16-.13-.53-.39-.27-.19-.22-.15-.29-.18c-.33-.21-.67-.41-1-.59l-.17-.1a.61.61,0,0,1-.14-.07l-.22-.1c-.26-.13-.51-.24-.77-.35l-.12-.06h0l-.28-.11c-.41-.16-.83-.32-1.27-.45l-.21,0c-.4-.12-.81-.22-1.22-.31l-.25,0c-.46-.09-.92-.15-1.39-.2l-.3,0c-.49,0-1-.07-1.48-.07l-.6,0c2.23-.28,4.29-.33,5.94-.4a9.52,9.52,0,0,1,3.23.4,6.49,6.49,0,0,1,.83.34l.28.16-.24-.21a4.35,4.35,0,0,0-.77-.52,8.94,8.94,0,0,0-3.28-1,39.2,39.2,0,0,0-5-.26,21.52,21.52,0,0,0-6.18.91A16.46,16.46,0,0,0,118,43.57a21.7,21.7,0,0,0-2.5,2.47h-2.15c-1.19,0-2.7,0-4.32-.17a8.25,8.25,0,0,0,8.1-8.08,7.88,7.88,0,0,0-.08-1.09c0-.09,0-.18,0-.27a8.1,8.1,0,0,0-.24-1,0,0,0,0,1,0,0,8.38,8.38,0,0,0-.4-1l-.12-.23a7.61,7.61,0,0,0-.51-.87l0,0-.06-.08h0s0,0,0-.07c-.16-.21-.33-.41-.51-.61a.43.43,0,0,0-.09-.1l-.12-.13-.44-.42-.21-.18-.1-.09,0,0-.43-.31-.17-.12-.29-.18-.2-.12-.32-.18-.07,0-.53-.25,0,0h0l-.2-.08-.28-.1-.62-.19-.32-.08q-.33-.07-.66-.12l-.3,0a7.93,7.93,0,0,0-1-.06,8.29,8.29,0,0,0-1.11.08l-.28,0a9.37,9.37,0,0,0-.92.19l-.15,0a8.33,8.33,0,0,0-1,.36l-.23.1c-.26.13-.52.26-.76.41L104,31c-.29.19-.57.39-.83.6l-.15.13q-.33.29-.63.6l-.16.17a7,7,0,0,0-.64.8l-.06.1a7.83,7.83,0,0,0-.47.79.35.35,0,0,1,0,.08h0s0,0,0,0h0l0,.12c-.07.15-.14.3-.2.46s-.09.22-.12.33-.11.33-.16.5-.06.21-.08.32a5.67,5.67,0,0,0-.1.57c0,.1,0,.19,0,.28a8.65,8.65,0,0,0,0,.88,8.06,8.06,0,0,0,4.33,7.07,14.63,14.63,0,0,1-3.44-1.9,13.35,13.35,0,0,1-1.53-1.31l-.53-.53a5.16,5.16,0,0,0,.33.68,8.74,8.74,0,0,0,1.17,1.74,10.73,10.73,0,0,0,6,3.58,16.05,16.05,0,0,0,6.91-.28q1.09-.27,1.77-.48l-.72.88A30.41,30.41,0,0,0,112.57,50l-.64,1.06.84-.91c.54-.58,1.31-1.42,2.32-2.39a28.83,28.83,0,0,1,5-4l0,0c-.27.18-.54.38-.81.58l-.33.25c-.34.28-.67.56-1,.87l-.19.19c-.25.25-.5.51-.74.78l-.3.35c-.21.25-.41.51-.61.78l-.21.29a12.48,12.48,0,0,0-.69,1.09c-.07.12-.14.24-.2.37s-.16.27-.23.42h0s0,0,0,0v0h0c0,.08-.07.16-.1.23-.14.29-.27.59-.39.89s-.16.41-.23.62-.2.63-.29,1-.12.4-.17.61-.14.72-.19,1.09c0,.18-.07.36-.09.54a15.47,15.47,0,0,0-.1,1.68c0,8.52,7.22,15.43,16.12,15.43A16.63,16.63,0,0,0,135.58,70.71Z"/><path id="_Path_4" data-name="&lt;Path&gt;" class="cls-5" d="M112.4,77c0-.3-.08-.59-.14-.88,0-.11,0-.22-.07-.34a10.88,10.88,0,0,0-.3-1.12l0-.09c-.12-.34-.24-.67-.38-1l-.16-.34c-.11-.25-.24-.5-.37-.74l-.17-.31c-.19-.33-.39-.65-.61-1l-.09-.13h0L110,71c-.17-.24-.35-.47-.54-.7l-.27-.3-.07-.08-.09-.1c-.12-.14-.25-.27-.38-.4l-.28-.27-.36-.32-.21-.18-.27-.23-.24-.18c-.2-.15-.4-.3-.61-.44l-.13-.09-.34-.21c-.22-.14-.44-.27-.67-.39l-.29-.17a.2.2,0,0,1-.08,0c-.32-.16-.65-.31-1-.45h0l-.33-.13c-.14-.06-.3-.1-.45-.16-.33-.11-.67-.22-1-.31l-.53-.13c-.35-.08-.71-.14-1.07-.19l-.48-.07a14.17,14.17,0,0,0-1.6-.1c-.42,0-.84,0-1.26.06l-.35,0c-.32,0-.64.08-.95.14l-.3,0c-.4.08-.79.18-1.17.29l-.24.08c-.31.09-.61.2-.91.32l-.33.13c-.31.13-.61.27-.91.42l-.17.08c-.34.18-.67.37-1,.58l-.29.19c-.24.16-.47.33-.7.5l-.28.22c-.29.23-.58.48-.85.73l-.16.17c-.22.21-.43.44-.63.66l-.26.3c-.18.22-.35.44-.51.67a2.35,2.35,0,0,0-.19.25c-.21.3-.41.61-.59.93l-.17.31-.19.36h0s0,0,0,0v0h0c0,.07-.06.14-.09.2-.12.25-.22.5-.33.76s-.14.35-.2.53-.17.54-.25.82-.1.34-.14.52-.12.62-.16.93c0,.15-.06.3-.08.46A13.55,13.55,0,0,0,85,78.56a12,12,0,0,0,.07,1.35,12.9,12.9,0,0,0,4,8,14,14,0,0,0,9.73,3.86,14.21,14.21,0,0,0,5.36-1,13.63,13.63,0,0,0,6.74-5.86,12.59,12.59,0,0,0,1.59-4.94,12,12,0,0,0,.07-1.35,12.1,12.1,0,0,0-.06-1.21C112.43,77.23,112.41,77.11,112.4,77Z"/><path id="_Path_5" data-name="&lt;Path&gt;" class="cls-5" d="M61.17,34.5a18.23,18.23,0,0,0-1.38,1.75l0,0-.39.6,0,0a19.87,19.87,0,0,0-1,1.82h0l-.29.6v0c-.27.6-.51,1.18-.71,1.74h0c-.07.18-.13.36-.19.53v0c-.17.52-.32,1-.43,1.47v0c0,.14-.07.27-.1.41l0,.09c-.09.38-.16.73-.21,1l0,.1c0,.08,0,.16,0,.24s0,.08,0,.12l0,.19s0,.08,0,.11,0,.17,0,.24a.34.34,0,0,0,0,.1.25.25,0,0,0,0,.08s0,0,0,.07v.07l.69-.26,0,.29a1.79,1.79,0,0,0,0,.23,16.56,16.56,0,0,0-.1,1.73,18.11,18.11,0,0,0,7,14.23,19.53,19.53,0,0,0,3.06,2,19.85,19.85,0,0,0,9.18,2.22c10.62,0,19.24-8.25,19.24-18.43,0-.46,0-.92-.06-1.37.32.21.64.42,1,.64h0v-.07a.38.38,0,0,0,0-.1V47a.34.34,0,0,1,0-.1l.64.35a4,4,0,0,0-1.12-2.92c-.14-.57-.31-1.2-.52-1.86v0c-.25-.8-.55-1.65-.92-2.53h0c-.28-.66-.6-1.34-1-2h0c-.12-.23-.24-.45-.37-.67v0c-.39-.66-.82-1.32-1.29-2l0-.06-.48-.62,0-.05a17.61,17.61,0,0,0-1.63-1.73,1.85,1.85,0,0,0-.14-.14c-.18-.16-.37-.33-.57-.49L88.36,32A16,16,0,0,0,87,31h0a18.47,18.47,0,0,0-11.18-2.81,21.85,21.85,0,0,0-10.71,3h0c-.22.13-.42.27-.62.41l-.23.15-.59.42-.15.12a17,17,0,0,0-1.72,1.52l-.1.1c-.17.18-.34.35-.5.53Z"/><path id="_Path_6" data-name="&lt;Path&gt;" class="cls-5" d="M78.65,78.85h0c-.15-.47-.33-1-.55-1.49h0a14,14,0,0,0-.81-1.59h0a11.89,11.89,0,0,0-1.09-1.56h0a10.37,10.37,0,0,0-1.41-1.4l0,0c-.26-.21-.54-.41-.83-.6h0a11.12,11.12,0,0,0-6.66-1.64A12.62,12.62,0,0,0,60,72.85l0,0a10,10,0,0,0-1.43,1.3l0,0a10.68,10.68,0,0,0-1.09,1.41h0a13,13,0,0,0-.79,1.44h0q-.32.7-.54,1.35h0q-.21.63-.33,1.14v0c-.07.33-.13.61-.16.84v0l-.06.46V81l.73-.27c0,.34-.05.69-.05,1a10.73,10.73,0,0,0,11,10.49,10.37,10.37,0,0,0,1.12-.06,11.11,11.11,0,0,0,6.62-3,10,10,0,0,0,.71-.75,11.44,11.44,0,0,0,1.18-1.67,10.14,10.14,0,0,0,1.32-5,7.56,7.56,0,0,0,0-.83c.42.24.84.51,1.25.8h0v-.08s0-.1,0-.18l.38.2A2.33,2.33,0,0,0,79,80C78.87,79.61,78.77,79.24,78.65,78.85Z"/><path id="_Path_7" data-name="&lt;Path&gt;" class="cls-5" d="M113.9,71.69a22.92,22.92,0,0,0-9.4-7,20.94,20.94,0,0,0-6.38-1.48,13.51,13.51,0,0,0-5.27,1.07,27.4,27.4,0,0,0-3.22,1.46c-.74.39-1.13.64-1.13.64L89.73,66c.78-.25,1.93-.6,3.35-.92A14.62,14.62,0,0,1,98,64.56a25.53,25.53,0,0,1,5.9,1.62,29.35,29.35,0,0,1,9.4,6,28.46,28.46,0,0,1,2.35,2.54l.8,1-.59-1.15A20.68,20.68,0,0,0,113.9,71.69Z"/><path id="_Path_8" data-name="&lt;Path&gt;" class="cls-5" d="M145.56,87.54l.31.19a2.4,2.4,0,0,0-.54-1.6c-.07-.31-.15-.66-.25-1h0a13.25,13.25,0,0,0-.45-1.4h0A12.71,12.71,0,0,0,144,82.2h0a11.63,11.63,0,0,0-.89-1.46h0a9.54,9.54,0,0,0-1.15-1.32l0,0c-.21-.2-.44-.39-.67-.57h0a8.19,8.19,0,0,0-5.42-1.55,9.67,9.67,0,0,0-5.21,1.66h0l0,0-.29.22c-.19.14-.37.29-.54.44l-.31.3c-.15.15-.29.3-.43.46l-.26.3c-.19.24-.37.48-.53.72s-.13.21-.19.31-.2.33-.29.5-.13.24-.19.36-.15.31-.22.46l-.15.34c-.09.22-.17.44-.25.66s-.07.21-.1.31-.1.31-.14.46-.06.2-.09.3l-.09.38-.06.25c0,.16-.06.31-.08.45l0,.18c0,.11,0,.21,0,.3s0,.09,0,.13,0,.14,0,.18a.2.2,0,0,0,0,.07v.08c.31-.15.62-.28.93-.4a6,6,0,0,0,0,.74,8.22,8.22,0,0,0,7.42,8,17.92,17.92,0,0,1-4.64-1,14.82,14.82,0,0,1-1.65-.71l-.6-.3.45.5a8.44,8.44,0,0,0,1.42,1.22A10.78,10.78,0,0,0,132,96.48a11.14,11.14,0,0,0,6.85.3,10.62,10.62,0,0,0,2.59-1.09A9.34,9.34,0,0,0,143,94.6l.5-.47-.63.25a13.77,13.77,0,0,1-1.7.57,18.55,18.55,0,0,1-5.65.61l-.51,0c.2,0,.4,0,.61,0a8.28,8.28,0,0,0,8.45-8.1c0-.24,0-.47,0-.7l.45.2c.39.26.77.54,1.15.85v-.08S145.57,87.62,145.56,87.54Z"/></g><g id="_Group_4" data-name="&lt;Group&gt;"><g id="_Group_5" data-name="&lt;Group&gt;"><ellipse id="_Path_9" data-name="&lt;Path&gt;" class="cls-6" cx="75.67" cy="45.8" rx="19.24" ry="18.43"/><ellipse id="_Path_10" data-name="&lt;Path&gt;" class="cls-3" cx="76.55" cy="45.24" rx="12.32" ry="13.15"/><ellipse id="_Path_11" data-name="&lt;Path&gt;" class="cls-7" cx="76.55" cy="45.24" rx="7.13" ry="7.6"/><path id="_Path_12" data-name="&lt;Path&gt;" class="cls-8" d="M71.81,42.08a2.73,2.73,0,1,1-2.73-2.91A2.82,2.82,0,0,1,71.81,42.08Z"/><path id="_Path_13" data-name="&lt;Path&gt;" class="cls-8" d="M86.26,51.69a3.92,3.92,0,1,1-3.91-4.17A4,4,0,0,1,86.26,51.69Z"/><path id="_Path_14" data-name="&lt;Path&gt;" class="cls-9" d="M91.51,35.36A19.66,19.66,0,0,0,58.28,37.9c2.06,6.3,8.59,10.91,16.33,10.91C83.36,48.81,90.57,42.92,91.51,35.36Z"/><path id="_Path_15" data-name="&lt;Path&gt;" class="cls-10" d="M94.91,45.8A18.43,18.43,0,0,0,83.29,28.88a27.77,27.77,0,0,1,6.81,7.53c11.26,17.66-12,33.06-24.64,22.92s-5.63-21.41-5.63-21.41a4,4,0,0,0-1.51-.09,17.6,17.6,0,0,0-1.9,8C56.42,56,65,64.23,75.67,64.23S94.91,56,94.91,45.8Z"/></g><g id="_Group_6" data-name="&lt;Group&gt;"><path id="_Path_16" data-name="&lt;Path&gt;" class="cls-6" d="M145.18,54.24c0,8.52-7.22,15.43-16.12,15.43s-16.12-6.91-16.12-15.43,7.22-15.44,16.12-15.44S145.18,45.71,145.18,54.24Z"/><path id="_Path_17" data-name="&lt;Path&gt;" class="cls-3" d="M140.37,58c0,6.09-4.62,11-10.32,11s-10.32-4.93-10.32-11,4.62-11,10.32-11S140.37,51.93,140.37,58Z"/><path id="_Path_18" data-name="&lt;Path&gt;" class="cls-7" d="M136,58a6,6,0,1,1-6-6.37A6.19,6.19,0,0,1,136,58Z"/><path id="_Path_19" data-name="&lt;Path&gt;" class="cls-8" d="M126.08,55.37a2.29,2.29,0,1,1-2.28-2.44A2.36,2.36,0,0,1,126.08,55.37Z"/><path id="_Path_20" data-name="&lt;Path&gt;" class="cls-8" d="M138.18,63.42a3.28,3.28,0,1,1-3.27-3.5A3.38,3.38,0,0,1,138.18,63.42Z"/><path id="_Path_21" data-name="&lt;Path&gt;" class="cls-9" d="M142.34,45.48a16.48,16.48,0,0,0-27.84,2.14c1.72,5.28,7.19,9.13,13.68,9.13C135.51,56.75,141.54,51.82,142.34,45.48Z"/><path id="_Path_22" data-name="&lt;Path&gt;" class="cls-10" d="M145.18,54.24a15.45,15.45,0,0,0-9.73-14.18,23.16,23.16,0,0,1,5.7,6.31c9.44,14.79-10,27.69-20.64,19.2s-4.72-17.94-4.72-17.94a3.11,3.11,0,0,0-1.26-.07,14.75,14.75,0,0,0-1.59,6.68c0,8.52,7.22,15.43,16.12,15.43S145.18,62.76,145.18,54.24Z"/></g><g id="_Group_7" data-name="&lt;Group&gt;"><ellipse id="_Path_23" data-name="&lt;Path&gt;" class="cls-6" cx="108.42" cy="35.53" rx="8.45" ry="8.1"/><path id="_Path_24" data-name="&lt;Path&gt;" class="cls-11" d="M114.22,35.29a5.42,5.42,0,1,1-10.82,0,5.42,5.42,0,1,1,10.82,0Z"/><path id="_Path_25" data-name="&lt;Path&gt;" class="cls-7" d="M111.94,35.29A3.14,3.14,0,1,1,108.81,32,3.24,3.24,0,0,1,111.94,35.29Z"/><path id="_Path_26" data-name="&lt;Path&gt;" class="cls-8" d="M106.73,33.9a1.2,1.2,0,1,1-1.2-1.28A1.25,1.25,0,0,1,106.73,33.9Z"/><ellipse id="_Path_27" data-name="&lt;Path&gt;" class="cls-8" cx="111.36" cy="38.12" rx="1.72" ry="1.83"/><path id="_Path_28" data-name="&lt;Path&gt;" class="cls-9" d="M115.38,30.94a8.65,8.65,0,0,0-14.6,1.12,7.42,7.42,0,0,0,7.18,4.8C111.8,36.86,115,34.27,115.38,30.94Z"/><path id="_Path_29" data-name="&lt;Path&gt;" class="cls-10" d="M116.87,35.53a8.09,8.09,0,0,0-5.1-7.43,12.11,12.11,0,0,1,3,3.31c4.95,7.76-5.26,14.52-10.82,10.07s-2.48-9.41-2.48-9.41a1.61,1.61,0,0,0-.66,0,7.81,7.81,0,0,0-.83,3.5,8.46,8.46,0,0,0,16.9,0Z"/></g><g id="_Group_8" data-name="&lt;Group&gt;"><path id="_Path_30" data-name="&lt;Path&gt;" class="cls-6" d="M112.25,76.31c0,7.28-6.16,13.18-13.76,13.18s-13.76-5.9-13.76-13.18,6.16-13.18,13.76-13.18S112.25,69,112.25,76.31Z"/><path id="_Path_31" data-name="&lt;Path&gt;" class="cls-3" d="M105.36,74.72c0,5.19-4,9.4-8.81,9.4s-8.82-4.21-8.82-9.4,4-9.4,8.82-9.4S105.36,69.53,105.36,74.72Z"/><path id="_Path_32" data-name="&lt;Path&gt;" class="cls-7" d="M101.64,74.72a5.11,5.11,0,1,1-5.09-5.44A5.27,5.27,0,0,1,101.64,74.72Z"/><path id="_Path_33" data-name="&lt;Path&gt;" class="cls-8" d="M93.16,72.46a2,2,0,1,1-2-2.08A2,2,0,0,1,93.16,72.46Z"/><path id="_Path_34" data-name="&lt;Path&gt;" class="cls-8" d="M103.49,79.33a2.8,2.8,0,1,1-2.79-3A2.9,2.9,0,0,1,103.49,79.33Z"/><path id="_Path_35" data-name="&lt;Path&gt;" class="cls-9" d="M109.83,68.84a14.07,14.07,0,0,0-23.77,1.82c1.47,4.51,6.14,7.8,11.68,7.8C104,78.46,109.15,74.25,109.83,68.84Z"/><path id="_Path_36" data-name="&lt;Path&gt;" class="cls-10" d="M112.25,76.31a13.18,13.18,0,0,0-8.3-12.1,19.85,19.85,0,0,1,4.86,5.39c8.06,12.62-8.56,23.64-17.62,16.39s-4-15.32-4-15.32a3,3,0,0,0-1.08-.06,12.6,12.6,0,0,0-1.35,5.7c0,7.28,6.16,13.18,13.76,13.18S112.25,83.59,112.25,76.31Z"/></g><g id="_Group_9" data-name="&lt;Group&gt;"><path id="_Path_37" data-name="&lt;Path&gt;" class="cls-6" d="M77.81,79.51A11,11,0,1,1,66.86,69,10.73,10.73,0,0,1,77.81,79.51Z"/><path id="_Path_38" data-name="&lt;Path&gt;" class="cls-11" d="M74.37,79.19a7,7,0,1,1-7-7.48A7.26,7.26,0,0,1,74.37,79.19Z"/><path id="_Path_39" data-name="&lt;Path&gt;" class="cls-7" d="M71.41,79.19a4.06,4.06,0,1,1-4-4.33A4.2,4.2,0,0,1,71.41,79.19Z"/><path id="_Path_40" data-name="&lt;Path&gt;" class="cls-8" d="M64.66,77.39a1.55,1.55,0,1,1-1.55-1.65A1.6,1.6,0,0,1,64.66,77.39Z"/><path id="_Path_41" data-name="&lt;Path&gt;" class="cls-8" d="M72.89,82.86a2.23,2.23,0,1,1-2.23-2.38A2.3,2.3,0,0,1,72.89,82.86Z"/><path id="_Path_42" data-name="&lt;Path&gt;" class="cls-9" d="M75.88,73.56A11.2,11.2,0,0,0,57,75a9.6,9.6,0,0,0,9.3,6.21C71.24,81.22,75.34,77.87,75.88,73.56Z"/><path id="_Path_43" data-name="&lt;Path&gt;" class="cls-10" d="M77.81,79.51a10.48,10.48,0,0,0-6.61-9.63,15.78,15.78,0,0,1,3.87,4.28c6.41,10-6.81,18.82-14,13S57.84,75,57.84,75A2.44,2.44,0,0,0,57,75a10.05,10.05,0,0,0-1.07,4.54,11,11,0,0,0,21.9,0Z"/></g><g id="_Group_10" data-name="&lt;Group&gt;"><path id="_Path_44" data-name="&lt;Path&gt;" class="cls-3" d="M55.88,43.81s23-11.08,39.92,1.26c0,0-1.64-19.89-20.2-19.14S55.88,43.81,55.88,43.81Z"/><path id="_Path_45" data-name="&lt;Path&gt;" class="cls-12" d="M55.88,43.81s23-11.08,39.92,1.26c0,0-1.64-19.89-20.2-19.14S55.88,43.81,55.88,43.81Z"/><path id="_Path_46" data-name="&lt;Path&gt;" class="cls-12" d="M95.8,45.07s-.91-11-9-16.33a40.25,40.25,0,0,1,5.91,9.6s-3-1.51-11.8-2.65S65.39,37,61.16,37.58c-3.06.41,1-5.22,3.73-8.65-8.34,5.11-9,14.88-9,14.88S78.89,32.73,95.8,45.07Z"/><path id="_Path_47" data-name="&lt;Path&gt;" class="cls-7" d="M55.88,43.81s7.75-8.68,24.66-7S96.39,45,96.39,45,78.77,34.56,55.88,43.81Z"/></g><g id="_Group_11" data-name="&lt;Group&gt;"><path id="_Path_48" data-name="&lt;Path&gt;" class="cls-3" d="M55.23,78.74s13.71-6.5,23.79.74c0,0-1-11.67-12-11.22S55.23,78.74,55.23,78.74Z"/><path id="_Path_49" data-name="&lt;Path&gt;" class="cls-12" d="M55.23,78.74s13.71-6.5,23.79.74c0,0-1-11.67-12-11.22S55.23,78.74,55.23,78.74Z"/><path id="_Path_50" data-name="&lt;Path&gt;" class="cls-12" d="M79,79.48S78.47,73,73.65,69.9a23.5,23.5,0,0,1,3.51,5.63s-1.78-.88-7-1.55-9.23.78-11.75,1.11C56.56,75.33,59,72,60.6,70a12,12,0,0,0-5.37,8.72S68.94,72.24,79,79.48Z"/><path id="_Path_51" data-name="&lt;Path&gt;" class="cls-7" d="M55.23,78.74s4.62-5.09,14.69-4.09,9.45,4.76,9.45,4.76S68.88,73.32,55.23,78.74Z"/></g><g id="_Group_12" data-name="&lt;Group&gt;"><path id="_Path_52" data-name="&lt;Path&gt;" class="cls-5" d="M104.25,62.43a22.92,22.92,0,0,1,9.4,7,20.68,20.68,0,0,1,2,2.94l.59,1.15-.8-1A28.46,28.46,0,0,0,113.06,70a29.35,29.35,0,0,0-9.4-6.05,25.53,25.53,0,0,0-5.9-1.62,14.62,14.62,0,0,0-4.93.48c-1.42.32-2.57.67-3.35.92l-1.23.41s.39-.25,1.13-.64A27.4,27.4,0,0,1,92.6,62,13.51,13.51,0,0,1,97.87,61,20.94,20.94,0,0,1,104.25,62.43Z"/></g><g id="_Group_13" data-name="&lt;Group&gt;"><path id="_Path_53" data-name="&lt;Path&gt;" class="cls-6" d="M143.77,85.2a8.46,8.46,0,1,1-8.45-8.09A8.28,8.28,0,0,1,143.77,85.2Z"/><path id="_Path_54" data-name="&lt;Path&gt;" class="cls-11" d="M141.12,85a5.43,5.43,0,1,1-5.41-5.77A5.6,5.6,0,0,1,141.12,85Z"/><path id="_Path_55" data-name="&lt;Path&gt;" class="cls-7" d="M138.84,85a3.14,3.14,0,1,1-3.13-3.34A3.24,3.24,0,0,1,138.84,85Z"/><path id="_Path_56" data-name="&lt;Path&gt;" class="cls-8" d="M133.62,83.57a1.2,1.2,0,1,1-1.19-1.28A1.23,1.23,0,0,1,133.62,83.57Z"/><path id="_Path_57" data-name="&lt;Path&gt;" class="cls-8" d="M140,87.79A1.72,1.72,0,1,1,138.26,86,1.78,1.78,0,0,1,140,87.79Z"/><path id="_Path_58" data-name="&lt;Path&gt;" class="cls-9" d="M142.28,80.61a8.65,8.65,0,0,0-14.6,1.12,7.42,7.42,0,0,0,7.18,4.79C138.7,86.52,141.87,83.94,142.28,80.61Z"/><path id="_Path_59" data-name="&lt;Path&gt;" class="cls-10" d="M143.77,85.2a8.09,8.09,0,0,0-5.1-7.43,12.12,12.12,0,0,1,3,3.31c5,7.75-5.26,14.52-10.82,10.06s-2.48-9.4-2.48-9.4a1.62,1.62,0,0,0-.66,0,7.68,7.68,0,0,0-.83,3.5,8.46,8.46,0,0,0,16.9,0Z"/><path id="_Path_60" data-name="&lt;Path&gt;" class="cls-3" d="M126,84.86s11.16-6.1,19.36.69c0,0-.8-10.94-9.79-10.53S126,84.86,126,84.86Z"/><path id="_Path_61" data-name="&lt;Path&gt;" class="cls-12" d="M126,84.86s11.16-6.1,19.36.69c0,0-.8-10.94-9.79-10.53S126,84.86,126,84.86Z"/><path id="_Path_62" data-name="&lt;Path&gt;" class="cls-12" d="M145.34,85.55s-.45-6-4.37-9a22.94,22.94,0,0,1,2.86,5.27s-1.45-.83-5.72-1.45-7.52.73-9.57,1c-1.48.22.48-2.87,1.81-4.76-4,2.81-4.37,8.19-4.37,8.19S137.14,78.76,145.34,85.55Z"/><path id="_Path_63" data-name="&lt;Path&gt;" class="cls-7" d="M126,84.86s3.76-4.78,12-3.85,7.68,4.47,7.68,4.47A21,21,0,0,0,126,84.86Z"/><g id="_Group_14" data-name="&lt;Group&gt;"><path id="_Path_64" data-name="&lt;Path&gt;" class="cls-5" d="M135.22,93.31a18.55,18.55,0,0,0,5.65-.61,13.77,13.77,0,0,0,1.7-.57l.63-.25-.5.47a9.34,9.34,0,0,1-1.51,1.09,10.62,10.62,0,0,1-2.59,1.09,11.14,11.14,0,0,1-6.85-.3,10.78,10.78,0,0,1-2.48-1.31,8.44,8.44,0,0,1-1.42-1.22l-.45-.5.6.3a14.82,14.82,0,0,0,1.65.71A18.27,18.27,0,0,0,135.22,93.31Z"/></g></g><g id="_Group_15" data-name="&lt;Group&gt;"><path id="_Path_65" data-name="&lt;Path&gt;" class="cls-5" d="M106.62,43.29a31.34,31.34,0,0,0,6.47.49c1.72,0,2.81,0,2.81,0s-1,.37-2.71.78a16.05,16.05,0,0,1-6.91.28,10.73,10.73,0,0,1-6-3.58,8.74,8.74,0,0,1-1.17-1.74,5.16,5.16,0,0,1-.33-.68l.53.53a13.35,13.35,0,0,0,1.53,1.31A14.76,14.76,0,0,0,106.62,43.29Z"/></g><g id="_Group_16" data-name="&lt;Group&gt;"><path id="_Path_66" data-name="&lt;Path&gt;" class="cls-5" d="M123.25,38.26a21.52,21.52,0,0,1,6.18-.91,39.2,39.2,0,0,1,5,.26,8.94,8.94,0,0,1,3.28,1,4.35,4.35,0,0,1,.77.52l.24.21-.28-.16a6.49,6.49,0,0,0-.83-.34,9.52,9.52,0,0,0-3.23-.4,40.68,40.68,0,0,0-10.66,1.38,23.18,23.18,0,0,0-8.9,5.72c-1,1-1.78,1.81-2.32,2.39l-.84.91.64-1.06A30.41,30.41,0,0,1,114.24,45a24.34,24.34,0,0,1,3.5-3.66A16.46,16.46,0,0,1,123.25,38.26Z"/></g></g><g id="_Group_17" data-name="&lt;Group&gt;" class="cls-13"><g id="_Group_18" data-name="&lt;Group&gt;"><path id="_Path_67" data-name="&lt;Path&gt;" class="cls-14" d="M25.7,109.17c4-.83,7.5-1.8,10.06-2.58s4.13-1.33,4.13-1.33a37.44,37.44,0,0,1-3.84,2.08,45.37,45.37,0,0,1-10,3.41c-2,.39-4.14.9-6.11,0a3.19,3.19,0,0,1-1.26-1,3,3,0,0,1-.48-1.46,3.83,3.83,0,0,1,.88-2.3,17.44,17.44,0,0,0,1.87-2.54,2.82,2.82,0,0,0,.27-.79c0-.2.05-.3.05-.3s0,.1,0,.3a2.59,2.59,0,0,1-.1.88,13.49,13.49,0,0,1-1.43,2.87,3.15,3.15,0,0,0-.46,1.8,1.65,1.65,0,0,0,1.17,1.31,5.69,5.69,0,0,0,2.41.18C23.72,109.61,24.72,109.36,25.7,109.17Z"/></g><g id="_Group_19" data-name="&lt;Group&gt;"><path id="_Path_68" data-name="&lt;Path&gt;" class="cls-14" d="M51.2,137.13A56.78,56.78,0,0,0,62,130.88a23.76,23.76,0,0,1,5-2.65,16.73,16.73,0,0,1,4.84-.92,33.69,33.69,0,0,1,7,.55c1.63.29,2.52.47,2.52.47l-2.55-.22a37.06,37.06,0,0,0-6.89,0,16.76,16.76,0,0,0-4.5,1.15A23.57,23.57,0,0,0,62.72,132a49.19,49.19,0,0,1-10.93,6.62,19.57,19.57,0,0,1-6.62,1.46,14.77,14.77,0,0,1-6.24-1.15,25.84,25.84,0,0,1-8.43-6.21c-2.05-2.13-3.57-3.95-4.66-5.19l-1.68-1.93L26,127.36c1.2,1.13,2.88,2.82,5,4.78a27,27,0,0,0,8.37,5.53A16,16,0,0,0,51.2,137.13Z"/></g><g id="_Group_20" data-name="&lt;Group&gt;"><path id="_Path_69" data-name="&lt;Path&gt;" class="cls-14" d="M147.28,138.49a27.81,27.81,0,0,0,5.29-2.37,12.66,12.66,0,0,0,6-12.16,13.31,13.31,0,0,0-3.16-7.17l-.41-.45.46.4a12.3,12.3,0,0,1,1.19,1.27,13,13,0,0,1,.87,15.27,13.4,13.4,0,0,1-4.11,4.14,26.45,26.45,0,0,1-5.57,2.59,41.76,41.76,0,0,1-5.84,1.72,15,15,0,0,1-5.81.13,14.45,14.45,0,0,1-4.84-2,40.78,40.78,0,0,1-3.62-2.58,44.57,44.57,0,0,0-5.15-3.68,17.24,17.24,0,0,0-1.54-.78l-.55-.24.57.18a14.24,14.24,0,0,1,1.63.61,38.7,38.7,0,0,1,5.51,3.26c2.23,1.44,4.89,3.35,8.22,3.87S143.46,139.87,147.28,138.49Z"/></g><g id="_Group_21" data-name="&lt;Group&gt;"><path id="_Path_70" data-name="&lt;Path&gt;" class="cls-14" d="M88.69,142.41c3.9-1.73,7.5-3.83,11-5.31A58,58,0,0,1,109.3,134a57,57,0,0,1,6.68-1.13c1.59-.17,2.47-.21,2.47-.21s-.87.14-2.43.46-3.8.83-6.51,1.66a69.73,69.73,0,0,0-9.24,3.6c-3.37,1.58-6.89,3.75-10.94,5.54a29.09,29.09,0,0,1-6.17,2A17.14,17.14,0,0,1,77,146a20,20,0,0,1-9.14-4.48A47.79,47.79,0,0,1,63,136.83L61.35,135l1.83,1.67a58.49,58.49,0,0,0,5.2,4.24,20.21,20.21,0,0,0,8.85,3.78C80.82,145.19,84.8,144.15,88.69,142.41Z"/></g><g id="_Group_22" data-name="&lt;Group&gt;"><path id="_Path_71" data-name="&lt;Path&gt;" class="cls-14" d="M182.8,130.47a17.43,17.43,0,0,0,9-2.56,7.39,7.39,0,0,0,2.71-2.87,4.6,4.6,0,0,0,.22-3.33,16.15,16.15,0,0,0-1.18-2.8c-.4-.82-.75-1.54-1-2.15a7.47,7.47,0,0,1-.43-1.43l-.09-.51.15.49a9.35,9.35,0,0,0,.6,1.35c.29.57.71,1.23,1.2,2a16.73,16.73,0,0,1,1.5,2.8,5.5,5.5,0,0,1,0,4,8.31,8.31,0,0,1-2.94,3.53,17.46,17.46,0,0,1-9.7,3.07,68,68,0,0,1-10-.51c-3-.3-5.76-.61-8.05-.88-4.57-.54-7.4-.95-7.4-.95s2.86,0,7.46.15c2.31.07,5.05.17,8.09.32A97.07,97.07,0,0,0,182.8,130.47Z"/></g><g id="_Group_23" data-name="&lt;Group&gt;"><path id="_Path_72" data-name="&lt;Path&gt;" class="cls-14" d="M182.26,92.78a61.76,61.76,0,0,1-5.43-4.29,34.71,34.71,0,0,1-9.62-14.35,33,33,0,0,1-1.7-7.13c-.12-.85-.17-1.52-.19-2s0-.69,0-.69l.12.68c.06.45.18,1.1.36,1.94a37.18,37.18,0,0,0,12.1,20.37c1.64,1.42,3.45,2.77,5.35,4.13a35.58,35.58,0,0,1,5.46,4.35,8.45,8.45,0,0,1,2.5,6.29,5.47,5.47,0,0,1-1.2,3.07,5.93,5.93,0,0,1-2.48,1.79,10.85,10.85,0,0,1-5.18.59c-1.58-.19-2.92-.53-4.11-.78a23.65,23.65,0,0,0-3.07-.48,11.1,11.1,0,0,0-2,0l-.68.1s.23-.07.67-.16a10.44,10.44,0,0,1,2-.21,21.46,21.46,0,0,1,3.15.23c1.21.15,2.59.4,4.09.48A10.41,10.41,0,0,0,187,106a4.46,4.46,0,0,0,2.77-3.93,6.28,6.28,0,0,0-.57-2.72,8.22,8.22,0,0,0-1.7-2.44A39.7,39.7,0,0,0,182.26,92.78Z"/></g><g id="_Group_24" data-name="&lt;Group&gt;"><path id="_Path_73" data-name="&lt;Path&gt;" class="cls-14" d="M67.55,115.56A22.39,22.39,0,0,0,78,113.21a21.37,21.37,0,0,0,2.89-1.71l1-.73s-.29.34-.85.93a17.8,17.8,0,0,1-2.64,2.21,18.69,18.69,0,0,1-10.92,3.25,6.36,6.36,0,0,1-3.43-1,3.13,3.13,0,0,1-1.18-1.54,2.92,2.92,0,0,1,0-1.87,8.71,8.71,0,0,1,1.55-2.43,5.7,5.7,0,0,0,1-1.89,11.74,11.74,0,0,0,.4-3.28c0-.8,0-1.25,0-1.25s.11.44.26,1.23a10.29,10.29,0,0,1,.13,3.48,6.25,6.25,0,0,1-.9,2.33,8.63,8.63,0,0,0-1.16,2.19,1.58,1.58,0,0,0,.76,1.77A5.44,5.44,0,0,0,67.55,115.56Z"/></g><g id="_Group_25" data-name="&lt;Group&gt;"><path id="_Path_74" data-name="&lt;Path&gt;" class="cls-14" d="M143.1,116.48c.13-1.33-.16-2.94.59-4.54a4,4,0,0,1,1.75-1.76,6.09,6.09,0,0,1,2.14-.59,15.91,15.91,0,0,1,3.77.24,8.28,8.28,0,0,0,3,0,2.91,2.91,0,0,0,1.9-1.3,3,3,0,0,0,.48-1.77,1.7,1.7,0,0,0-.45-1.08,2.06,2.06,0,0,0-.33-.28,2.1,2.1,0,0,1,.37.23,1.79,1.79,0,0,1,.66,1.1,3.21,3.21,0,0,1-.29,2,3.56,3.56,0,0,1-.79,1.08,3.75,3.75,0,0,1-1.32.75,8.77,8.77,0,0,1-3.31.35,16.38,16.38,0,0,0-3.5,0,3.24,3.24,0,0,0-2.68,1.67c-.46,1-.27,2.39-.37,4a4.76,4.76,0,0,1-.79,2.46,3.88,3.88,0,0,1-2.13,1.48,8.94,8.94,0,0,1-4.35-.07,14.14,14.14,0,0,1-6.23-3.23,13,13,0,0,1-2.91-3.65,10.26,10.26,0,0,1-.54-1.14l-.16-.41.22.38a12.21,12.21,0,0,0,.69,1,14.48,14.48,0,0,0,9.19,5.69,8.06,8.06,0,0,0,3.63-.08A2.5,2.5,0,0,0,143.1,116.48Z"/></g><g id="_Group_26" data-name="&lt;Group&gt;"><path id="_Path_75" data-name="&lt;Path&gt;" class="cls-14" d="M4.61,129.16a6.61,6.61,0,0,0,1.67,2.57A8,8,0,0,0,9,133.37a16.27,16.27,0,0,0,6,.83c1.79,0,3.26-.18,4.26-.28l1.57-.17s-.53.14-1.52.36a37.13,37.13,0,0,1-4.25.72,16.3,16.3,0,0,1-6.57-.49,9.18,9.18,0,0,1-3.32-1.83,7.33,7.33,0,0,1-2.05-3,8.65,8.65,0,0,1,.3-6.36,13.13,13.13,0,0,1,3.34-4.41A17.07,17.07,0,0,1,10,116.48c.85-.45,1.35-.65,1.35-.65s-.45.27-1.2.81a17.56,17.56,0,0,0-2.8,2.49,13.3,13.3,0,0,0-2.67,4.33A8.68,8.68,0,0,0,4.61,129.16Z"/></g><g id="_Group_27" data-name="&lt;Group&gt;"><path id="_Path_76" data-name="&lt;Path&gt;" class="cls-14" d="M106.26,18.2a13.92,13.92,0,0,1,4.22,3.15,20.47,20.47,0,0,0,3.39,2.94,4.94,4.94,0,0,0,3.57.84,2,2,0,0,0,1.3-.75,2.82,2.82,0,0,0,.46-1.44A9.3,9.3,0,0,0,118,18a9.41,9.41,0,0,0-.8-1.2l-.32-.39.37.35a8.37,8.37,0,0,1,1,1.11A9.22,9.22,0,0,1,120,23a3.84,3.84,0,0,1-.47,1.93,3,3,0,0,1-1.83,1.29,6,6,0,0,1-4.52-.73,19.45,19.45,0,0,1-3.79-3,13.25,13.25,0,0,0-3.8-2.78,3.83,3.83,0,0,0-4,0,11.06,11.06,0,0,0-1.57,1.57A5.13,5.13,0,0,1,98,22.85a3.71,3.71,0,0,1-2.57-.18,6.68,6.68,0,0,1-1.89-1.22,7.59,7.59,0,0,1-2.07-3.28,14.47,14.47,0,0,1-.65-5.38A17.37,17.37,0,0,1,91,10.84s0,.7.05,1.95a15.09,15.09,0,0,0,1.14,5.09,7,7,0,0,0,2,2.74c.9.72,2.3,1.35,3.29.95A4,4,0,0,0,99,20.33a11.39,11.39,0,0,1,1.75-1.85,4.52,4.52,0,0,1,2.76-.93A6.57,6.57,0,0,1,106.26,18.2Z"/></g><g id="_Group_28" data-name="&lt;Group&gt;"><path id="_Path_77" data-name="&lt;Path&gt;" class="cls-14" d="M143.1,33.41a3.4,3.4,0,0,0,1.53,1.11,2,2,0,0,0,1.5-.25,1.54,1.54,0,0,0,.75-.89,1.79,1.79,0,0,0,0-.49,1.71,1.71,0,0,1,.21.5,1.82,1.82,0,0,1-.45,1.47,2.76,2.76,0,0,1-2.21,1,3.78,3.78,0,0,1-2.59-1.42,7.84,7.84,0,0,1-1.3-2.3c-.27-.72-.49-1.34-.71-1.84a6.19,6.19,0,0,0-.66-1.15c-.19-.25-.32-.39-.32-.39a3.28,3.28,0,0,1,.49.2,4.55,4.55,0,0,1,1.15.88C141.42,30.72,142.14,32.27,143.1,33.41Z"/></g><g id="_Group_29" data-name="&lt;Group&gt;"><path id="_Path_78" data-name="&lt;Path&gt;" class="cls-14" d="M40.37,83.73a3.18,3.18,0,0,0,1.71.31A9.78,9.78,0,0,0,44,83.76c1.27-.29,2.41-.59,3.37-.88,1.91-.57,3.1-1,3.1-1a18.55,18.55,0,0,1-2.79,1.76,21.93,21.93,0,0,1-3.31,1.44,9.05,9.05,0,0,1-2.18.52,4.39,4.39,0,0,1-2.63-.46,3,3,0,0,1-1.46-2.49,6.44,6.44,0,0,1,.43-2.29A16.78,16.78,0,0,1,40.05,77a16.28,16.28,0,0,1,1.39-2c.36-.45.58-.67.58-.67l-.37.8c-.22.51-.54,1.26-.87,2.2a27.31,27.31,0,0,0-.94,3.32,5.65,5.65,0,0,0-.2,1.83A1.44,1.44,0,0,0,40.37,83.73Z"/></g></g><g id="_Group_30" data-name="&lt;Group&gt;"><g id="_Group_31" data-name="&lt;Group&gt;" class="cls-15"><path id="_Path_79" data-name="&lt;Path&gt;" class="cls-3" d="M94.57,11.12a3,3,0,0,0,1.34,3.07,2.86,2.86,0,0,0,3.57.26.48.48,0,0,0-.24-.88A4.71,4.71,0,0,1,95,11.06a.24.24,0,0,0-.43.06Z"/></g><g id="_Group_32" data-name="&lt;Group&gt;" class="cls-15"><path id="_Path_80" data-name="&lt;Path&gt;" class="cls-3" d="M108.08,17.22a3.05,3.05,0,0,0,.9,1.52s.45.6.18.22c.14.2.3.41.45.61a10,10,0,0,0,2.13,2c1.65,1.13,3.79-.73,3.29-2.53a6.79,6.79,0,0,0-1.75-2.83c-.8-.74-2-1.7-3.17-1.64a2.15,2.15,0,0,0-2,2.67Z"/></g><g id="_Group_33" data-name="&lt;Group&gt;" class="cls-15"><path id="_Path_81" data-name="&lt;Path&gt;" class="cls-3" d="M42,82.48a1.75,1.75,0,0,0,1.43-.55,1.11,1.11,0,0,0,0-1.53A1.75,1.75,0,0,0,42,79.85a1.32,1.32,0,0,0,0,2.63Z"/></g><g id="_Group_34" data-name="&lt;Group&gt;" class="cls-15"><path id="_Path_82" data-name="&lt;Path&gt;" class="cls-3" d="M46.81,82.07q.34-.07-.12,0a1.6,1.6,0,0,0,.44,0c.26,0,.49-.1.74-.16a2.14,2.14,0,0,0,1.54-2.36,2.18,2.18,0,0,0-2.11-1.86,2.93,2.93,0,0,0-2.71,1.52,2,2,0,0,0,2.22,2.89Z"/></g><g id="_Group_35" data-name="&lt;Group&gt;" class="cls-15"><path id="_Path_83" data-name="&lt;Path&gt;" class="cls-3" d="M68.48,115.21s-.71-.1-.34,0a3.88,3.88,0,0,0,1.27.07,2.75,2.75,0,0,0,1.34-.56c.35-.27.38-.3.1-.08s-.26.19-.1.1A2.48,2.48,0,0,0,72,112.83a2.66,2.66,0,0,0-.71-2.15,1.05,1.05,0,0,0-.23-.24,2.85,2.85,0,0,0-2.77-.73,4,4,0,0,0-2,1.6,2.56,2.56,0,0,0,0,2.62,2.62,2.62,0,0,0,2.24,1.28Z"/></g><g id="_Group_36" data-name="&lt;Group&gt;" class="cls-15"><path id="_Path_84" data-name="&lt;Path&gt;" class="cls-3" d="M74.37,111.43c.43-.8-.22-1.45-1-1-1.09.59.42,2.11,1,1Z"/></g><g id="_Group_37" data-name="&lt;Group&gt;" class="cls-15"><path id="_Path_85" data-name="&lt;Path&gt;" class="cls-3" d="M31.62,128.56a9.18,9.18,0,0,0,4.18,4.8c1.9,1.13,4.4,2.66,6.67,1.84a2.12,2.12,0,0,0,1.44-2.54c-.54-2.35-3-3.59-5-4.56a9.31,9.31,0,0,0-6.43-1,1.17,1.17,0,0,0-.82,1.44Z"/></g><g id="_Group_38" data-name="&lt;Group&gt;" class="cls-15"><path id="_Path_86" data-name="&lt;Path&gt;" class="cls-3" d="M46.32,133.6c.51,1.15,2.27,1.59,3.44,1.56,1.46,0,3.35-1.25,3.61-2.79l-.63,1.09c.3-.35.58-.71.85-1.08,1.13-1.56-.75-3.84-2.5-3.25-.25.08-.49.15-.75.21h1.31a2.41,2.41,0,0,0-1.25-.13,2.46,2.46,0,0,1-.39,0,4.59,4.59,0,0,0-1.37.34A1.44,1.44,0,0,0,48,130c-.35.27-.39.3-.13.09a4.75,4.75,0,0,0-1.31,1,2.35,2.35,0,0,0-.24,2.53Z"/></g><g id="_Group_39" data-name="&lt;Group&gt;" class="cls-15"><path id="_Path_87" data-name="&lt;Path&gt;" class="cls-3" d="M68.84,136.78c-1.37,2,1.61,4.17,3.1,4.92,2.35,1.19,4.34,1.27,6.55-.17a1.05,1.05,0,0,0-.25-1.89c-.89-.31-1.69-.8-2.61-1.09a12.73,12.73,0,0,1-2.65-1c-1-.63-3.08-2.33-4.14-.75Z"/></g><g id="_Group_40" data-name="&lt;Group&gt;" class="cls-15"><path id="_Path_88" data-name="&lt;Path&gt;" class="cls-3" d="M82.82,141.79c.11,0,.55.06,0,0a2,2,0,0,0,2.22-.91,3.87,3.87,0,0,1,.34-.55,1.5,1.5,0,0,0-.88-2.18,3.42,3.42,0,0,0-.63-.16,2,2,0,0,0-2.42,1.38,3.68,3.68,0,0,0-.15.47,1.57,1.57,0,0,0,1.5,2Z"/></g><g id="_Group_41" data-name="&lt;Group&gt;" class="cls-15"><path id="_Path_89" data-name="&lt;Path&gt;" class="cls-3" d="M134.6,134c.86,2.83,4.88,3.31,7.4,3.12s6.64-2.15,6.84-5a1.94,1.94,0,0,0-1.44-2.2c-1.4-.34-2.39.88-3.62,1.27a12.62,12.62,0,0,1-4.1.46c-1.49,0-2.94-.51-4.28.35a1.77,1.77,0,0,0-.8,2Z"/></g><g id="_Group_42" data-name="&lt;Group&gt;" class="cls-15"><path id="_Path_90" data-name="&lt;Path&gt;" class="cls-3" d="M150.25,131.63a3.23,3.23,0,0,0,2.51-.48,3,3,0,0,0,1.54-2.67,2.78,2.78,0,0,0-.55-1.56,2.37,2.37,0,0,0-1.34-.92,4,4,0,0,0-1.54,0,2.8,2.8,0,0,0-1.56,1.09,3,3,0,0,0-.86,2.18,2.89,2.89,0,0,0,.53,1.49,2.36,2.36,0,0,0,1.27.88Z"/></g><g id="_Group_43" data-name="&lt;Group&gt;" class="cls-15"><path id="_Path_91" data-name="&lt;Path&gt;" class="cls-3" d="M174.56,127.73c2.74.71,5.45,1.16,8.23.32,2-.61,4.29-1.87,4-4.27-.08-.59-.48-1.23-1.17-1.17-1.67.13-2.67,1.14-4.19,1.68-2,.71-4.39.54-6.47.59a1.46,1.46,0,0,0-.39,2.85Z"/></g><g id="_Group_44" data-name="&lt;Group&gt;" class="cls-15"><path id="_Path_92" data-name="&lt;Path&gt;" class="cls-3" d="M186.88,117.87a4,4,0,0,0,.25,1.45,4.3,4.3,0,0,0,.76,1.29,1.8,1.8,0,0,0,2,.38,1.78,1.78,0,0,0,1.12-1.66,4.18,4.18,0,0,0-1.31-2.62,1.66,1.66,0,0,0-2.8,1.16Z"/></g><g id="_Group_45" data-name="&lt;Group&gt;" class="cls-15"><path id="_Path_93" data-name="&lt;Path&gt;" class="cls-3" d="M131.43,114.34c1.67,2.33,4.78,3.79,7.39,2a2.06,2.06,0,0,0,.89-2.2c.07.4-.08-.33-.11-.39-.17-.25-.21-.3-.13-.15s0,.11-.26-.32a3.15,3.15,0,0,0-2-.65c-.88-.11-2,0-2.79-.59a2,2,0,0,0-2.53-.15,1.9,1.9,0,0,0-.49,2.48Z"/></g><g id="_Group_46" data-name="&lt;Group&gt;" class="cls-15"><path id="_Path_94" data-name="&lt;Path&gt;" class="cls-3" d="M142.34,111.12a.78.78,0,0,1-.19.33c-.1.12-.11.14,0,.06s.35-.43.44-.65c.23-.55.06-.11,0-.09s.14-.24.16-.27a1.8,1.8,0,0,0-.14-1.94,1.73,1.73,0,0,0-1.83-.62,2.43,2.43,0,0,0-1.69,2.22,2,2,0,0,0,1.6,1.91,1.39,1.39,0,0,0,1.67-.95Z"/></g><g id="_Group_47" data-name="&lt;Group&gt;" class="cls-15"><path id="_Path_95" data-name="&lt;Path&gt;" class="cls-3" d="M177.34,104.85c1.79,1,5.26,1.89,6.82,0a2.22,2.22,0,0,0-.44-3.42c-1-.6-1.83-.36-2.9-.33-.83,0-1.66.07-2.49.09a2,2,0,0,0-1,3.64Z"/></g><g id="_Group_48" data-name="&lt;Group&gt;" class="cls-15"><path id="_Path_96" data-name="&lt;Path&gt;" class="cls-3" d="M181.12,97.38a4.83,4.83,0,0,0,1.31,1.6c.4.28.82.52,1.24.77a1.62,1.62,0,0,0,2.19-2.19c-.25-.42-.49-.84-.77-1.24a5,5,0,0,0-1.6-1.32,1.75,1.75,0,0,0-2.37,2.38Z"/></g><g id="_Group_49" data-name="&lt;Group&gt;" class="cls-15"><path id="_Path_97" data-name="&lt;Path&gt;" class="cls-3" d="M8.55,121.24c-1.15,2.16-2,6.85.86,8.16a1,1,0,0,0,1.55-.89,11.52,11.52,0,0,0-.8-3.06,6.15,6.15,0,0,1,.19-3.45,1,1,0,0,0-1.8-.76Z"/></g><g id="_Group_50" data-name="&lt;Group&gt;" class="cls-15"><path id="_Path_98" data-name="&lt;Path&gt;" class="cls-3" d="M12.88,131.52a2,2,0,0,0,1.49.25c.51-.09.88-.13,1.19-.58a.69.69,0,0,0,0-.71c-.31-.45-.68-.49-1.19-.59a2,2,0,0,0-1.49.25.81.81,0,0,0,0,1.38Z"/></g></g><g id="_Group_51" data-name="&lt;Group&gt;"><path id="_Path_99" data-name="&lt;Path&gt;" class="cls-6" d="M78.4,97.77s-4.67-6.33-.33-8.33,8-2,9.33.67,2,7.66,2,7.66S85.73,107.44,78.4,97.77Z"/><g id="_Group_52" data-name="&lt;Group&gt;"><path id="_Path_100" data-name="&lt;Path&gt;" class="cls-10" d="M76.82,91.25l-.06-.76a2.54,2.54,0,0,0-.16.28A.65.65,0,0,0,76.82,91.25Z"/><path id="_Path_101" data-name="&lt;Path&gt;" class="cls-10" d="M89.4,97.77s-.67-5-2-7.66-5-2.67-9.33-.67c-.12,0-.2.12-.3.17a.75.75,0,0,1,.15,0c.87.12,1.45.94,1.93,1.68.76,1.19,1.52,2.37,2.27,3.56a34.28,34.28,0,0,0,.18-5A5,5,0,0,0,84.7,89a30.84,30.84,0,0,1,3,8.12c.15.72.23,1.61-.34,2.08a2,2,0,0,1-1.16.35,11.72,11.72,0,0,1-7.71-2.3c.09.34.19.69.29,1C85.85,107.1,89.4,97.77,89.4,97.77Z"/></g></g><g id="_Group_53" data-name="&lt;Group&gt;" class="cls-13"><path id="_Path_102" data-name="&lt;Path&gt;" class="cls-14" d="M104.24,99.93a3.08,3.08,0,0,0,2.71.9,6.89,6.89,0,0,0,3-1.54,20.64,20.64,0,0,0,2.7-2.74,21.57,21.57,0,0,1,3-2.91A8,8,0,0,1,119.78,92a6.65,6.65,0,0,1,4.08,1,11.21,11.21,0,0,1,2.73,2.37,28,28,0,0,1,1.9,2.49c.57.8,1.06,1.57,1.59,2.2a13.86,13.86,0,0,0,1.65,1.68,8,8,0,0,0,3.31,1.77,3.8,3.8,0,0,0,2.37-.13A3.64,3.64,0,0,0,138,103l.2-.11-.18.14a3.68,3.68,0,0,1-.54.37,4.12,4.12,0,0,1-2.51.5,8.36,8.36,0,0,1-3.83-1.45,13.63,13.63,0,0,1-2-1.61c-.68-.65-1.27-1.38-1.9-2.1a15.45,15.45,0,0,0-4.41-3.92,4.42,4.42,0,0,0-2.73-.44,5.66,5.66,0,0,0-2.68,1.38,20.27,20.27,0,0,0-2.5,2.67,22.12,22.12,0,0,1-3,3.21,9.69,9.69,0,0,1-4.46,2.31,6,6,0,0,1-2.91-.17,6.79,6.79,0,0,1-2.44-1.43c-.65-.56-1.16-1.11-1.65-1.56a4.58,4.58,0,0,0-.7-.58,5.11,5.11,0,0,0-.73-.48,7.6,7.6,0,0,0-3.37-1A8.22,8.22,0,0,0,89.45,101a13,13,0,0,0-1.15,1.33,5.33,5.33,0,0,1-1.8,1.54,4.52,4.52,0,0,1-2.38.42,6.13,6.13,0,0,1-2-.54,8.28,8.28,0,0,1-1.66-1,16.48,16.48,0,0,1-1.29-1.12,22.49,22.49,0,0,0-2.2-1.93,5.12,5.12,0,0,0-4.43-.78,6.66,6.66,0,0,0-3.16,1.9,5.56,5.56,0,0,0-1.23,2.08,5.25,5.25,0,0,0-.16.63l0,.22v-.22a5.25,5.25,0,0,1,.06-.66,6,6,0,0,1,1-2.36,7.26,7.26,0,0,1,3.24-2.56,6.48,6.48,0,0,1,2.64-.47,6.3,6.3,0,0,1,3,.86c1.85,1,3.33,2.77,5.11,3.36a3,3,0,0,0,2.44,0,3.12,3.12,0,0,0,.89-.94,16.07,16.07,0,0,1,1.24-1.62,10.84,10.84,0,0,1,8.35-3.38,10.3,10.3,0,0,1,6.85,2.76C103.27,99,103.76,99.53,104.24,99.93Z"/></g><g id="_Group_54" data-name="&lt;Group&gt;" class="cls-16"><path id="_Path_103" data-name="&lt;Path&gt;" class="cls-12" d="M6.61,134.5c-.37-.41-.72-.82-1.06-1.23A7.72,7.72,0,0,0,6.61,134.5Z"/><path id="_Path_104" data-name="&lt;Path&gt;" class="cls-12" d="M24,115.17c4.66-3.67,7.55-.82,15.94-9.91s.06-1.09.06-1.09-19,10.66-18,3a51.5,51.5,0,0,0,.33-7.52l-.7,1.11c-.36.57-4.12,9.61-1,8.42a49.47,49.47,0,0,0-10.73,5.69c-4.73,3.3-9.21,9-7.19,14.32A32.18,32.18,0,0,0,4.57,132a6.29,6.29,0,0,0,.47.43c-1.66-3-2.63-9.17,9.24-16.62,0,0,0,7,7,13.34A30.24,30.24,0,0,1,24.79,133a7.32,7.32,0,0,1,2.14.07c2,.38,3.65,1.73,5.27,3a25.52,25.52,0,0,0,9.08,4.84c-2.42-2-6.25-5.21-9-7.75C28,129.17,19.28,118.83,24,115.17Z"/><path id="_Path_105" data-name="&lt;Path&gt;" class="cls-12" d="M121.89,137.06c5.94,1.1,11.62,3.48,17.61,4.24s12.8-.48,16.51-5.25c1.1-1.41,2-3.16,3.68-3.77a7.14,7.14,0,0,1,3.41-.05,130,130,0,0,0,18.06,1.38c5.52,0,12.2-1.05,14.3-6.16a1.86,1.86,0,0,0-1.7-1.44c6.51.76,13-5.05,13-11.6a6.34,6.34,0,0,0-1.34-4.19c-1.13-1.29-2.9-1.78-4.57-2.21L190,105.21c2.37.12,3.83-3,3.07-5.22s-2.85-3.75-4.82-5.08l-7.05-4.79c-2.48-1.69-5-3.45-6.64-6-2.51-4-2.81-9.41-4.47-13.77a109.23,109.23,0,0,1-3.56-11.22,141.49,141.49,0,0,0-4.56-14.35c.74,10.36,3.27,31.85,7,38.29,4.5,7.75,21,12.25,20.86,19s-18.61,3.8-18.61,3.8,4,5.5,13,4.25,16.75.5,16,5.25c-.55,3.49-6.76-.7-9.23-2.78,1.72,3.39,2.86,14.2-3,17-6.75,3.25-22.75.25-23-4s-10-9.24-10-9.24,2.72,2.49,3.72,9.24-7.25,13.5-19,13.25-13.5-5.5-16-7.75,10-2.75,1.75-5.5-35.25,7.5-35.25,7.5,17.25-6.5,2.75,4.5-26,2.75-28.25-1.75,5-4.5,9.75-4.25S92,128.33,92,128.33s-13.25-2.75-17.75-4.75,7.69-12.81,7.69-12.81-8.44,7.31-15.69,6.31c-7-1-1.85-8.26-1.52-8.72-5.27,8-23.23,6.72-23.23,6.72s17.25,4.5,17.25,12.25-12,11-13.25,11c0,0,.48,1,1.41,2.7,4.8-1.07,9.15-4.91,14-4,4,.76,6.6,4.49,10.08,6.54,4.58,2.7,10.38,2.32,15.45.76s9.77-4.18,14.81-5.85A42.07,42.07,0,0,1,121.89,137.06Z"/><path id="_Path_106" data-name="&lt;Path&gt;" class="cls-12" d="M190.2,111.58c-.53-.26-.12.22.77,1A2.2,2.2,0,0,0,190.2,111.58Z"/><path id="_Path_107" data-name="&lt;Path&gt;" class="cls-12" d="M64.68,108.36l0,0Z"/></g><path id="_Path_108" data-name="&lt;Path&gt;" class="cls-17" d="M40.32,77.18c-.65-.33-1.29.45-1.59,1.12a43,43,0,0,0-3,9.11,4,4,0,0,0,.24,3,3.22,3.22,0,0,0,1.8,1.12,8.72,8.72,0,0,0,6.63-1,14.52,14.52,0,0,0,4.84-4.8c.88.22.78,1.58,1.48,2.16.94.78,2.24-.44,2.79-1.54a31.18,31.18,0,0,0,2-5.18c-1.76,3-3.5,1.19-6.26,1.46s-6.16,3.3-8.89,1c-2.17-1.81-1.24-5.23.67-6.71"/><path id="_Path_109" data-name="&lt;Path&gt;" class="cls-18" d="M90,12.84a20.56,20.56,0,0,0,1.6,9.89c1.06,2.45,3.34,5,5.92,4.32,1.69-.44,2.74-2.11,4.28-2.94,2.5-1.36,5.64-.21,8,1.38s4.59,3.62,7.38,4.19a2.5,2.5,0,0,0,1.6-.09,2.81,2.81,0,0,0,1.18-2,20.84,20.84,0,0,0,.48-5.89,6.31,6.31,0,0,1-1,3.12,2.9,2.9,0,0,1-2.85,1.27,4.09,4.09,0,0,1-1.56-.87c-2.43-1.91-4.54-4.28-7.24-5.8s-6.34-2-8.75,0c-1,.81-1.93,2.06-3.22,1.94-1.11-.1-1.82-1.18-2.37-2.15-1.56-2.75-3.16-5.67-3.18-8.83"/><g id="_Group_55" data-name="&lt;Group&gt;"><path id="_Path_110" data-name="&lt;Path&gt;" class="cls-17" d="M39.08,103a1.18,1.18,0,0,0-.6-2.18,117.37,117.37,0,0,0-13.31,1.52c-1.2.17-1,2,0,2.26C29.73,105.77,35,105.46,39.08,103Z"/><path id="_Path_111" data-name="&lt;Path&gt;" class="cls-17" d="M36.37,76.89c.9-1.14.82-2.61,1.23-4a9.28,9.28,0,0,0,.75-3.78.93.93,0,0,0-1.15-.66c-1.38.33-2.43,2.06-2.89,3.31-.52,1.41-1.17,3.45-.29,4.8A1.5,1.5,0,0,0,36.37,76.89Z"/><path id="_Path_112" data-name="&lt;Path&gt;" class="cls-17" d="M39.32,110.43c-3.51.11-17.65,6.68-11.53,11.6,1,.77,3,.41,2.8-1.17-.2-2,3.25-2.91,4.64-3.65,2-1.06,4.33-2.2,5.67-4A1.84,1.84,0,0,0,39.32,110.43Z"/><path id="_Path_113" data-name="&lt;Path&gt;" class="cls-17" d="M54.81,60.41c-.72.9-.31,1.91.19,2.82s1.1,1.74,2.14,1.42a1,1,0,0,0,.69-.77,1.77,1.77,0,0,0-.45-1.46c-.44-.71-.46-1.75-1.26-2.18A1.1,1.1,0,0,0,54.81,60.41Z"/><path id="_Path_114" data-name="&lt;Path&gt;" class="cls-17" d="M75.44,23.15h0C75.38,23.16,75.39,23.16,75.44,23.15Z"/><path id="_Path_115" data-name="&lt;Path&gt;" class="cls-17" d="M53.46,33.26a3.54,3.54,0,0,0-2.28,2.4,3.18,3.18,0,0,0,.64,3,1.63,1.63,0,0,0,1.93.24,2.53,2.53,0,0,0,.55-.37l.22-.29c-.08.09-.08.11,0,0a3.9,3.9,0,0,0,.45-.46,4,4,0,0,0,.43-.58.35.35,0,0,0,.06-.12c-.07.08-.14.16-.14.2s.13-.22.14-.2.23-.24.24-.26a2.47,2.47,0,0,0,.44-.89A2.19,2.19,0,0,0,53.46,33.26Z"/><path id="_Path_116" data-name="&lt;Path&gt;" class="cls-17" d="M178,113.67c-2.72-1.13-5.2-.5-8.07-.58-2.55-.07-5.41-.9-7.89-.23a1.85,1.85,0,0,0-1.09,2.69c3.06,5,14.29,6,17.9,1.33A2,2,0,0,0,178,113.67Z"/><path id="_Path_117" data-name="&lt;Path&gt;" class="cls-17" d="M28.94,97a1.64,1.64,0,0,0,2.21-1.07c.15-.55.29-1.11.44-1.67a2.36,2.36,0,0,0,.14-1.2,1.24,1.24,0,0,0-.68-.8c-.83-.33-1.38.29-1.82.9l-1.08,1.51A1.64,1.64,0,0,0,28.94,97Z"/><path id="_Path_118" data-name="&lt;Path&gt;" class="cls-17" d="M149.51,96.77a2.34,2.34,0,0,0-3.4-2.61c-1.17.63-1.86,1.91-2.9,2.73-.41.32-.86.57-1.29.86a3.41,3.41,0,0,0-1.37,1.84,1.74,1.74,0,0,0,.8,2c1.75.77,3.23,0,4.72-1S149.1,98.45,149.51,96.77Z"/><path id="_Path_119" data-name="&lt;Path&gt;" class="cls-17" d="M76.9,21.32a1.93,1.93,0,0,0-2.68-.6c-.91.48-1.17,2-.06,2.44-.4-.15.12.07.27.11a1.72,1.72,0,0,0,1-.12s0,0,.09,0l-.08,0h.11a1.37,1.37,0,0,0,.68-.19c.13-.06.13-.05,0,0A1.14,1.14,0,0,0,76.9,21.32Z"/><path id="_Path_120" data-name="&lt;Path&gt;" class="cls-17" d="M80,70.57c-.34-.37-.71-.71-1.07-1.07a.94.94,0,0,0-1.32,1.33c.35.35.7.72,1.06,1.07a4.43,4.43,0,0,0,1.32.75.57.57,0,0,0,.77-.77A4.4,4.4,0,0,0,80,70.57Z"/><polygon id="_Path_121" data-name="&lt;Path&gt;" class="cls-17" points="75.43 23.15 75.43 23.15 75.43 23.14 75.43 23.15"/><path id="_Path_122" data-name="&lt;Path&gt;" class="cls-17" d="M164.48,106.18c-.14,0-.56-.13-.8-.16a6.17,6.17,0,0,1-1-.14,1,1,0,0,0-1.21,1.21,3.34,3.34,0,0,0,2.32,2.34c1.42.44,2.94.3,3.55-1.24a1.45,1.45,0,0,0-.38-1.46,2.26,2.26,0,0,0-1.47-.63A6.89,6.89,0,0,1,164.48,106.18Z"/><path id="_Path_123" data-name="&lt;Path&gt;" class="cls-17" d="M156.8,64.07c.09-.31.12-.62.21-.93a1.08,1.08,0,0,0-1.32-1.32,3.18,3.18,0,0,0-2.16,1.68,4,4,0,0,0-.51,1.38,2.82,2.82,0,0,0,.39,1.51,1.14,1.14,0,0,0,1.77.22,2.71,2.71,0,0,0,.75-.73,8.16,8.16,0,0,0,.39-.86A4.46,4.46,0,0,0,156.8,64.07Z"/><path id="_Path_124" data-name="&lt;Path&gt;" class="cls-17" d="M68.38,21.11c-1.87-1.24-4.59-.1-6.45.7a16.36,16.36,0,0,0-5.53,4c-1.94,2.07.93,4.77,3.05,3a20.32,20.32,0,0,1,4.63-2.72c1.53-.66,3.58-.71,4.68-2.05A1.92,1.92,0,0,0,68.38,21.11Z"/><path id="_Path_125" data-name="&lt;Path&gt;" class="cls-17" d="M53.52,60.38C52.35,55,50.64,49.77,50.79,44.13c0-.77-1-.84-1.29-.17-2,5.78-2.46,12.37,1.19,17.62A1.56,1.56,0,0,0,53.52,60.38Z"/><path id="_Path_126" data-name="&lt;Path&gt;" class="cls-17" d="M61.65,96.16l.13,0h0s0,0,0,0h0l.13,0a1.18,1.18,0,0,0,.46,0,1.21,1.21,0,0,0,1-1.81,2.38,2.38,0,0,0-2.51-.84,1.36,1.36,0,0,0,.73,2.62Z"/><path id="_Path_127" data-name="&lt;Path&gt;" class="cls-17" d="M103.78,49.74c-.21-.13-.45-.19-.66-.3a3,3,0,0,1-1-.78,1.06,1.06,0,0,0-1.41-.37,1,1,0,0,0-.37,1.41,5.31,5.31,0,0,0,1.6,1.53,2.45,2.45,0,0,0,2.18.31.76.76,0,0,0,.18-1.37C104.14,50,104,49.86,103.78,49.74Z"/><path id="_Path_128" data-name="&lt;Path&gt;" class="cls-17" d="M121.47,113.43c.1-1.7-1.42-2.72-2.9-2.91-3.88-.48-7.25,2.08-11.23,1.3-4.49-.89-7.77-2.42-11.68.75-1.6,1.29-1.06,4.19.65,5.08C102.78,121,120.79,125.54,121.47,113.43Z"/><path id="_Path_129" data-name="&lt;Path&gt;" class="cls-17" d="M96.88,57.6c1.79,1.23,3.89,2,5.73,3.15s3.26,2.44,5.57,2.42a.9.9,0,0,0,.9-.89c-.13-4.83-7.83-9.92-12.2-7.11A1.43,1.43,0,0,0,96.88,57.6Z"/><path id="_Path_130" data-name="&lt;Path&gt;" class="cls-17" d="M123.84,122.73a2.55,2.55,0,0,1,.39,0h.16a.73.73,0,0,0-.25,0c.25,0,.32,0,.25,0l.41.13a3.54,3.54,0,0,0,2.25,0,2.21,2.21,0,0,0,1.51-2.65c-.53-2.43-3.35-2.72-5.37-2.28a2.39,2.39,0,0,0-1.7,1.71,2.52,2.52,0,0,0,0,1.28,2.66,2.66,0,0,0,.26.6A2.48,2.48,0,0,0,123.84,122.73Z"/><path id="_Path_131" data-name="&lt;Path&gt;" class="cls-17" d="M90.3,135.77a4,4,0,0,0,2.44-.35l1.61-.83a1.91,1.91,0,0,0,.79-2.41,2,2,0,0,0-2.27-1.11c-.62.09-1.25.15-1.86.25a4.19,4.19,0,0,0-2,1.25,1.86,1.86,0,0,0-.39,2.05A1.93,1.93,0,0,0,90.3,135.77Z"/><path id="_Path_132" data-name="&lt;Path&gt;" class="cls-17" d="M146.54,74.26a8.89,8.89,0,0,0-1.81-1.07,3.43,3.43,0,0,0-2.46-.15,1.42,1.42,0,0,0-.62,2.35c1,1.11,2.4,1.6,3.42,2.74s2.36,3.09,3.82,1.57a1.71,1.71,0,0,0,.45-1.69A7.69,7.69,0,0,0,146.54,74.26Z"/><path id="_Path_133" data-name="&lt;Path&gt;" class="cls-17" d="M149.52,100.23a1.48,1.48,0,0,0,2.81.16,1,1,0,0,0-.08.11,1.2,1.2,0,0,0,.16-.27,1.19,1.19,0,0,1-.08.16l.13-.16.08-.12,0,0a.58.58,0,0,0,.15-.19,1.63,1.63,0,0,1-.11.17,1.49,1.49,0,0,0-.73-2.77A2.2,2.2,0,0,0,149.52,100.23Z"/><path id="_Path_134" data-name="&lt;Path&gt;" class="cls-17" d="M146.9,45.2a.52.52,0,0,0,.87-.5c-1.27-4.19-5.27-7.31-8.83-9.63-1.07-.69-2,1-1,1.7a29.62,29.62,0,0,1,4.86,4.08C144.21,42.32,145.36,43.86,146.9,45.2Z"/><path id="_Path_135" data-name="&lt;Path&gt;" class="cls-17" d="M150.6,66.42c2.12-1.77,2-5.46,1.63-7.94-.22-1.61-1-4.54-3.12-4.36a1.07,1.07,0,0,0-1,.76l-.06.23a.91.91,0,0,0,.75,1.17c0-.08,0-.13,0-.12l1.17-.48-.15.19a1.07,1.07,0,0,1-1,.41c-.09.7-.2,4.33-.25,4.73-.22,1.6-.77,3.15-.45,4.75A1.51,1.51,0,0,0,150.6,66.42Z"/><path id="_Path_136" data-name="&lt;Path&gt;" class="cls-17" d="M56.87,91.3A8.16,8.16,0,0,1,56,89.7,1.64,1.64,0,0,0,53,91a10.89,10.89,0,0,0,1,2.46,4.94,4.94,0,0,0,1.93,2.14,1.82,1.82,0,0,0,2.46-2.46A13.07,13.07,0,0,0,56.87,91.3Z"/><path id="_Path_137" data-name="&lt;Path&gt;" class="cls-17" d="M128.56,12.13c-1.17-.47-2,1.54-.86,2a32.76,32.76,0,0,1,5.29,2.9,57.69,57.69,0,0,0,4.85,3.53,1,1,0,0,0,1.28-1.29C137,15.74,132.29,13.59,128.56,12.13Z"/><path id="_Path_138" data-name="&lt;Path&gt;" class="cls-17" d="M118.46,9.7l.05,0h-.13c-.19,0,.19,0,.09,0,.09,0,.13,0,0,0a1.84,1.84,0,0,0,.66,0h.06c-.18,0,.56-.07,0,0h.06a1.56,1.56,0,0,0,1.49-1.95A2.49,2.49,0,0,0,118,5.93a1.94,1.94,0,0,0-1.89,2.17A1.91,1.91,0,0,0,118.46,9.7Z"/><path id="_Path_139" data-name="&lt;Path&gt;" class="cls-17" d="M121.6,81.83a1.14,1.14,0,0,0,1.65.67c1.89-1.18,2.36-3.71,2.75-5.73a1.27,1.27,0,0,0-2.31-1C122.53,77.51,121.08,79.65,121.6,81.83Z"/><path id="_Path_140" data-name="&lt;Path&gt;" class="cls-17" d="M140.93,14.5a1.82,1.82,0,0,0,.72-1.41,47.06,47.06,0,0,0-5.57-4.28l-.13,0a2,2,0,0,0-2,2,2,2,0,0,0,2,2,2.48,2.48,0,0,1,.61.12,2.76,2.76,0,0,1,.68.33,6.22,6.22,0,0,1,1.19,1.17A1.9,1.9,0,0,0,140.93,14.5Z"/><path id="_Path_141" data-name="&lt;Path&gt;" class="cls-17" d="M121.39,86.83c0,.29-.11.58-.16.88a3,3,0,0,0,.1,1.29,1.34,1.34,0,0,0,2.57,0,3,3,0,0,0,.1-1.29c0-.3-.11-.59-.17-.88A1.27,1.27,0,0,0,121.39,86.83Z"/><path id="_Path_142" data-name="&lt;Path&gt;" class="cls-17" d="M116.1,80.51a1.31,1.31,0,0,0-1.79-.47c-1.58,1.13-2.15,2.93-3.1,4.56a22.61,22.61,0,0,1-3.84,4.56c-1.33,1.32,0,4.19,2,3.37a12.2,12.2,0,0,0,5.79-5C116.37,85.58,117.53,82.63,116.1,80.51Z"/><path id="_Path_143" data-name="&lt;Path&gt;" class="cls-17" d="M110.31,65.89a1.63,1.63,0,1,0,2.3-2.3,1.81,1.81,0,0,0-1.84-.55h0l.14.06h-.48a1.63,1.63,0,0,1,.3-.07.86.86,0,0,0-1,1c0-.1,0-.2.07-.3v.49l-.06-.15a.06.06,0,0,0,0,0A1.83,1.83,0,0,0,110.31,65.89Z"/><path id="_Path_144" data-name="&lt;Path&gt;" class="cls-17" d="M118.44,9.67Z"/><path id="_Path_145" data-name="&lt;Path&gt;" class="cls-17" d="M113,105.93a7.76,7.76,0,0,1-6.34,2.93,10.82,10.82,0,0,1-3.9-1,21.86,21.86,0,0,1-3.05-1.63c-.85-.53-1.53-1-2-1.32l-.73-.51.56.69a21.09,21.09,0,0,0,1.67,1.78,15.82,15.82,0,0,0,2.94,2.21,9.88,9.88,0,0,0,4.45,1.36,8.34,8.34,0,0,0,2.46-.3,7.15,7.15,0,0,0,2.08-1,7.64,7.64,0,0,0,2.53-2.81,6.72,6.72,0,0,0,.77-2.37,5.1,5.1,0,0,0,.06-.66v-.23s0,.08-.07.22a6,6,0,0,1-.23.61A7.66,7.66,0,0,1,113,105.93Z"/></g><g id="_Group_56" data-name="&lt;Group&gt;"><path id="_Path_146" data-name="&lt;Path&gt;" class="cls-12" d="M124.3,24.2a9.87,9.87,0,0,1,2.49,2.1c1,1.22,1.7,2.72,2.77,3.87,1.47,1.59,4,.28,4.07-1.69.23-4.62-7.57-12.42-11.44-7.35C121.07,22.59,122.76,24.39,124.3,24.2Z"/><path id="_Path_147" data-name="&lt;Path&gt;" class="cls-12" d="M129.93,5.45A39.76,39.76,0,0,0,122.47,3q-2.67-.58-5.36-1.08c1.29.87,3,1.14,4.42,1.78,1.91.86,3.61,2.46,5.74,2.81A2.61,2.61,0,0,0,129.93,5.45Z"/><path id="_Path_148" data-name="&lt;Path&gt;" class="cls-12" d="M96.64,125.55a1.46,1.46,0,0,0,0-2c-4.58-4.55-.31-.9-5.36-2.13-1.83-.45-3.8-1.7-5.71-1a1.51,1.51,0,0,0-1.1,1.44c.29,2.69,2.84,3.73,5.11,4.53S94.87,127.39,96.64,125.55Z"/><path id="_Compound_Path_" data-name="&lt;Compound Path&gt;" class="cls-12" d="M104.08,10.34a1.89,1.89,0,0,0-.29-2.24,3.23,3.23,0,0,0-2.06-.87,4.78,4.78,0,0,0-1.6.19,1.83,1.83,0,0,0-1.31,2,1.81,1.81,0,0,0,1.8,1.59c.15,0,.29,0,.44,0l.08,0c.12,0,.25.09.38.12s1,.12.47,0A1.93,1.93,0,0,0,104.08,10.34Zm-3,.65c-.15,0-.13,0,0,0Z"/><path id="_Path_149" data-name="&lt;Path&gt;" class="cls-12" d="M78.81,13.88a3.66,3.66,0,0,0,2,.54c.7,0,1.31-1.29,1.94-1.59.92-.44.92-1.11,0-1.55a5.33,5.33,0,0,0-1.94-.7,3.66,3.66,0,0,0-2,.54A1.61,1.61,0,0,0,78.81,13.88Z"/><path id="_Path_150" data-name="&lt;Path&gt;" class="cls-12" d="M95.54,0a3.56,3.56,0,0,0,1.51,3.57c1.68,1.15,3.75,1.45,5.61,2.16.92.36,1.8.86,2.74,1.15a14.44,14.44,0,0,0,3.06.41c2.67.27,4.16-3.08,3-5.15A9.23,9.23,0,0,0,110.5.87,95.15,95.15,0,0,0,95.54,0Z"/><path id="_Path_151" data-name="&lt;Path&gt;" class="cls-12" d="M165.2,95l-.48-.5-.25-.29,0,0-.47-.61a3.75,3.75,0,0,0-1-.76,5.92,5.92,0,0,0-2.62-1,2,2,0,0,0-2.4,1.86c0,.08,0,.17,0,.25A4.69,4.69,0,0,0,159,97a6.22,6.22,0,0,0,3.76,2.21A2.53,2.53,0,0,0,165.2,95Z"/><path id="_Path_152" data-name="&lt;Path&gt;" class="cls-12" d="M76.8,9.18c2.38-1,4.57-2.46,6.93-3.58.58-.28,6.72-4.3,6.32-3.47A2.1,2.1,0,0,0,90.16.39,63.05,63.05,0,0,0,78.58,2.65a12.78,12.78,0,0,0-3.78,5C74.3,8.89,75.86,9.58,76.8,9.18Z"/><path id="_Path_153" data-name="&lt;Path&gt;" class="cls-12" d="M101.21,124.77l-.36-.24a1.12,1.12,0,1,0,0,1.94v-.89c.12-.08.24.73.36.65A.85.85,0,0,0,101.21,124.77Z"/><path id="_Path_154" data-name="&lt;Path&gt;" class="cls-12" d="M41.17,59.56a1.67,1.67,0,0,0,1.36-1.18l0-.06.12-.21a4.69,4.69,0,0,0,.34-1,1.27,1.27,0,0,1,.06-.18l0-.11a2.27,2.27,0,0,0,.18-1.62A1.87,1.87,0,0,0,41,54a3,3,0,0,0-1.9,2.23,3.29,3.29,0,0,0,.41,2.59A1.65,1.65,0,0,0,41.17,59.56Z"/><path id="_Path_155" data-name="&lt;Path&gt;" class="cls-12" d="M38.07,50.77l0-.07c1.52-1.47,2.18-3.88,3.13-5.72,1.11-2.13,3-4.45,2.85-6.95a2,2,0,0,0-1.43-1.9c-2.57,5.28-4.77,10.75-6.82,16.11A2.07,2.07,0,0,0,38.07,50.77Z"/><path id="_Path_156" data-name="&lt;Path&gt;" class="cls-12" d="M63.1,13.84a21.23,21.23,0,0,0,1.49-1.62,2.92,2.92,0,0,0,.6-3.13c0-.12-.09-.22-.14-.32a49.91,49.91,0,0,0-9.62,8,2.55,2.55,0,0,0,4,.77A21.49,21.49,0,0,0,62,15,14.65,14.65,0,0,1,63.1,13.84Z"/><path id="_Path_157" data-name="&lt;Path&gt;" class="cls-12" d="M51.08,27.08a5.36,5.36,0,0,0,1.43-1.61,14.7,14.7,0,0,0,.86-2.1,1.91,1.91,0,0,0-1.47-2.44q-1.83,2.36-3.46,4.86V26A1.57,1.57,0,0,0,51.08,27.08Z"/><path id="_Path_158" data-name="&lt;Path&gt;" class="cls-12" d="M164.16,90.7A2.27,2.27,0,0,0,167,88.53c-.32-2.76-2-4.8-3.48-7.07-1.29-2-3.44-4.85-3.75-7.2a1.93,1.93,0,0,0-3.85,0,19.81,19.81,0,0,0-.09,4.87,15.1,15.1,0,0,0,1.7,4.72C159,86.63,161.09,89.62,164.16,90.7Z"/><path id="_Path_159" data-name="&lt;Path&gt;" class="cls-12" d="M159.81,49.55c-.18-.54-.34-1.08-.53-1.6a6.21,6.21,0,0,0-1.21-2c-.85-1-1.84-1.9-3.19-1.24-1.2.58-1,2-.91,3.1a5.9,5.9,0,0,0,.56,2.09c.25.5.54,1,.81,1.48C156.65,53.83,160.7,52.21,159.81,49.55Z"/><path id="_Path_160" data-name="&lt;Path&gt;" class="cls-12" d="M147.44,24.31c-1.6,2.29.22,5.08,1.34,7.12a25.15,25.15,0,0,1,1.11,2.43,13.91,13.91,0,0,0,.73,1.67c.28.48.86.9,1.11,1.31a3.87,3.87,0,0,0,6.71-.25c-.25-.53-.5-1.07-.76-1.6a83.42,83.42,0,0,0-7.54-12.49A4,4,0,0,0,147.44,24.31Z"/><path id="_Path_161" data-name="&lt;Path&gt;" class="cls-12" d="M142.74,121.32c-1.53-.33-3,.12-4.56.26a32.71,32.71,0,0,1-4.85.12c-2.07-.11-2.45,3.06-.48,3.59,1.33.36,9.92-.5,10.62-1.22A1.67,1.67,0,0,0,142.74,121.32Z"/><path id="_Path_162" data-name="&lt;Path&gt;" class="cls-12" d="M170.78,98.23a3.6,3.6,0,0,0,3.43.9,2.24,2.24,0,0,0,1.68-1.73h0a.13.13,0,0,1,0-.06h0a2.5,2.5,0,0,0,0-1.62c0-.23,0-.46,0-.48v.45a4.53,4.53,0,0,0-1.59-2,3.18,3.18,0,0,0-3-.6,2.61,2.61,0,0,0-1.83,2.39A3.29,3.29,0,0,0,170.78,98.23Z"/></g></g></g></g></g></g></svg>