<svg xmlns="http://www.w3.org/2000/svg" viewBox="0 0 135.1 201.19"><defs><style>.cls-1{fill:#e8dbda;}.cls-1,.cls-10,.cls-11,.cls-12,.cls-2,.cls-3,.cls-4,.cls-5,.cls-6,.cls-7,.cls-8,.cls-9{fill-rule:evenodd;}.cls-2{fill:#dc7c27;}.cls-3{fill:#bb6128;}.cls-4{fill:#f4eed6;}.cls-5{fill:#eed9a4;}.cls-6{fill:#ee4492;}.cls-7{fill:#f16e9c;}.cls-8{fill:#e44676;}.cls-9{fill:#fff;}.cls-10{fill:#676767;}.cls-11{fill:#7b1126;}.cls-12{fill:#2a2a2c;}</style></defs><title>Asset 1</title><g id="Layer_2" data-name="Layer 2"><g id="OBJECTS"><path class="cls-1" d="M65.35,190.73c31.63,0,57.27,2.34,57.27,5.22S97,201.19,65.35,201.19,8.07,198.85,8.07,196s25.65-5.22,57.28-5.22Z"/><path class="cls-2" d="M54.2,168.8H64.3v27.62H39.43s9.62-7.86,14.77-10.89Z"/><polygon class="cls-3" points="59.68 168.8 64.3 168.8 64.3 189.03 64.3 192.12 64.3 196.42 59.68 196.42 59.68 168.8"/><path class="cls-3" d="M80.9,168.8H70.8v27.62H95.67s-9.62-7.86-14.77-10.89Z"/><polygon class="cls-2" points="75.42 168.8 70.8 168.8 70.8 189.03 70.8 192.12 70.8 196.42 75.42 196.42 75.42 168.8"/><polygon class="cls-4" points="38.76 41.28 49.28 34.3 12.05 0 25.04 49.72 38.76 41.28"/><path class="cls-5" d="M38.76,41.28l10.53-7L37.45,23.41A50.68,50.68,0,0,0,22.33,39.32L25,49.72Z"/><path class="cls-5" d="M35.88,22,34,20.17,20.44,32.11l.73,2.83Zm-4.63-4.27L29.7,16.26,18.34,24.1l.56,2.1Zm-4.69-4.3L25,11.94l-8.48,5.22.53,2.06Zm-5.3-4.9L19.73,7.09,15,11.4l.58,2.26ZM17.74,5.24,16.19,3.82,13.53,5.67l.56,2.1Z"/><polygon class="cls-4" points="96.34 41.28 85.81 34.3 123.05 0 110.06 49.72 96.34 41.28"/><path class="cls-5" d="M96.34,41.28l-10.53-7L97.65,23.41a50.74,50.74,0,0,1,10.93,10,53.63,53.63,0,0,1,4.21,6l-2.73,10.4Z"/><path class="cls-5" d="M99.24,22l1.91-1.78,13.51,11.94-.73,2.83Zm4.64-4.27,1.52-1.42,11.36,7.84-.56,2.1Zm4.66-4.3,1.56-1.44,8.46,5.22L118,19.22Zm5.32-4.9,1.5-1.39,4.71,4.31-.58,2.26Zm3.5-3.24,1.55-1.42,2.66,1.85L121,7.77Z"/><path class="cls-6" d="M1.2,102.4c-16.86,95.44,149.58,95.44,132.7,0C114.23-8.87,20.87-8.87,1.2,102.4Z"/><path class="cls-7" d="M1.2,102.4c-2.94,16.68-.28,30.45,6,41.3A68,68,0,0,0,51.8,160.53c39.66,0,71.81-34.92,71.81-77.95a84.41,84.41,0,0,0-3.13-22.92C87.73-6.31,17.91,7.92,1.2,102.4Z"/><path class="cls-8" d="M96,61.85a18.49,18.49,0,0,1,.19,2.71c0,13-12.84,23.53-28.67,23.53S38.87,77.55,38.87,64.56a18.49,18.49,0,0,1,.19-2.71Z"/><path class="cls-9" d="M94.75,63.05a17.82,17.82,0,0,1,.17,2.43c0,11.64-12.24,21.09-27.36,21.09S40.18,77.12,40.18,65.48a17.82,17.82,0,0,1,.17-2.43Z"/><path class="cls-10" d="M88.31,63.05a14.27,14.27,0,0,1,.15,1.85c0,8.89-9.37,16.11-20.9,16.11s-20.9-7.22-20.9-16.11a14.26,14.26,0,0,1,.13-1.85Z"/><path class="cls-11" d="M82.51,63.05a9.71,9.71,0,0,1,.1,1.34c0,6.42-6.74,11.59-15,11.59S52.48,70.81,52.48,64.39a9.69,9.69,0,0,1,.11-1.34Z"/><path class="cls-9" d="M62.24,63.05a4,4,0,1,1-4,4,3.94,3.94,0,0,1,4-4Z"/><path class="cls-8" d="M67.56,94.64c28.05,0,50.79.46,50.79,1s-22.74,1-50.79,1-50.81-.45-50.81-1,22.74-1,50.81-1Z"/><polygon class="cls-8" points="21.45 95.61 27.87 116.4 33.11 101.41 43.1 125.27 55.6 102.1 63.12 116.19 69.71 102.1 79.01 118.01 88.56 101.17 96.3 121.64 106.75 99.37 114.01 107.1 117.38 95.87 21.45 95.61"/><polygon class="cls-9" points="20.81 95.4 27.23 116.19 32.47 101.19 42.45 125.06 54.95 101.88 62.47 115.97 69.06 101.88 78.36 117.8 87.92 100.96 95.65 121.43 106.11 99.16 113.37 106.89 116.74 95.65 20.81 95.4"/><path class="cls-8" d="M67.56,37.39c14.41,0,26.09.49,26.09,1.1S82,39.56,67.56,39.56s-26.11-.5-26.11-1.07,11.68-1.1,26.11-1.1Z"/><path class="cls-8" d="M67.56,42.87c14.41,0,26.09.47,26.09,1.07S82,45,67.56,45s-26.11-.47-26.11-1.07,11.68-1.07,26.11-1.07Z"/><polygon class="cls-10" points="20.02 136.78 19.76 165.39 11.6 169.98 13.12 183 14.9 172.09 17.85 184.84 19.89 172.09 21.93 179.75 23.99 171.06 22.7 165.32 24.61 136.97 20.02 136.78"/><polygon class="cls-12" points="20.87 175.78 21.93 179.75 23.99 171.06 22.7 165.32 24.61 136.97 21.99 136.87 21.02 165.75 21.95 173.27 20.87 175.78"/><path class="cls-6" d="M29.29,134.46v0c0,1.68-3,3-6.7,3s-6.7-1.35-6.7-3a2.09,2.09,0,0,1,0-.36,23.07,23.07,0,0,0,7.24,1.07,24.06,24.06,0,0,0,6.12-.75Z"/><polygon class="cls-12" points="115.11 136.78 115.34 165.39 123.53 169.98 122 183 120.2 172.09 117.28 184.84 115.24 172.09 113.17 179.75 111.14 171.06 112.42 165.32 110.51 136.97 115.11 136.78"/><polygon class="cls-10" points="114.25 175.78 113.17 179.75 111.14 171.06 112.42 165.32 110.51 136.97 113.13 136.87 114.08 165.75 113.17 173.27 114.25 175.78"/><path class="cls-7" d="M105.83,134.46v0c0,1.68,3,3,6.7,3s6.7-1.35,6.7-3a2.09,2.09,0,0,0,0-.36,23.07,23.07,0,0,1-7.24,1.07,24.12,24.12,0,0,1-6.12-.75Z"/><path class="cls-8" d="M18,122.82a5,5,0,1,0-3.28,6.34A5,5,0,0,0,18,122.82Z"/><path class="cls-8" d="M26.48,124.65a3,3,0,1,0-2,3.78,3,3,0,0,0,2-3.78Z"/><path class="cls-8" d="M18.3,114.66A2.14,2.14,0,1,0,14.22,116a2.14,2.14,0,0,0,4.08-1.29Z"/><path class="cls-8" d="M77.67,138.78A5,5,0,1,0,84,142.15a5,5,0,0,0-6.28-3.37Z"/><path class="cls-8" d="M79.61,130.29a3,3,0,1,0,3.76,2.05,3,3,0,0,0-3.76-2.05Z"/><path class="cls-8" d="M69.51,138.33a2.14,2.14,0,1,0,2.67,1.44,2.12,2.12,0,0,0-2.67-1.44Z"/><path class="cls-8" d="M27.32,78.54a5,5,0,1,0-5.74,4.25,5.07,5.07,0,0,0,5.74-4.25Z"/><path class="cls-8" d="M34.14,83.91a3,3,0,1,0-3.43,2.53,3,3,0,0,0,3.43-2.53Z"/><path class="cls-8" d="M31.18,71.34a2.11,2.11,0,0,0-1.78-2.42,2.14,2.14,0,1,0,1.78,2.42Z"/><path class="cls-8" d="M108.28,71.58a5,5,0,1,1,6.89,1.83,5,5,0,0,1-6.89-1.83Z"/><path class="cls-8" d="M103.9,79.1A3,3,0,1,1,108,80.19a3,3,0,0,1-4.12-1.09Z"/><path class="cls-8" d="M102,66.34a2.14,2.14,0,1,1,2.92.77,2.14,2.14,0,0,1-2.92-.77Z"/></g></g></svg>