<svg xmlns="http://www.w3.org/2000/svg" viewBox="0 0 177.45 193.38"><defs><style>.cls-1{fill:#1d262d;}.cls-1,.cls-7,.cls-8{opacity:0.4;isolation:isolate;}.cls-2{fill:#318484;}.cls-3{fill:#4dd233;}.cls-4{fill:none;stroke:#115503;stroke-linecap:round;stroke-linejoin:round;stroke-width:1.01px;}.cls-5,.cls-8{fill:#115503;}.cls-6{fill:#dcee69;}.cls-7{fill:#432911;}</style></defs><title>Asset10</title><g id="Layer_2" data-name="Layer 2"><g id="OBJECTS"><path class="cls-1" d="M11.37,177.36c0-8.84,35.77-16,79.89-16s79.9,7.17,79.9,16-35.77,16-79.9,16S11.37,186.2,11.37,177.36Z"/><path class="cls-2" d="M93.66,26s2.91-15,7-21.45,3.94,18.74,3.41,22.53C104.05,27,98.4,30.52,93.66,26Z"/><path class="cls-2" d="M105.72,42s2.9-15,7-21.45,3.94,18.74,3.41,22.53C116.11,43.07,110.45,46.57,105.72,42Z"/><path class="cls-3" d="M88.18,24.77C114.6,24.59,143.55,26.93,148,49c5,24.43-7.55,56.09-19.23,72.63C117.59,137.53,86.2,171.46,58,133.89c-24.14-32.14-27.86-54.65-28-71.55C29.76,46.68,36,25.12,88.18,24.77Z"/><path class="cls-3" d="M19.93,74.13S15.06,100.61,37.58,90l6,11.74s-26.77,9.92-31.4-3.89a38.62,38.62,0,0,1-1.4-19.39S3.68,77,3.3,71.72c0,0-7.24-6.86-.27-9,0,0-.12-7.19,6.91-3.85,0,0,2.16-7.34,7.37-2.12a7.84,7.84,0,0,1,1.93,3.71s6.74-.4,7.11,4.77C26.79,71.32,24.07,73.13,19.93,74.13Z"/><path class="cls-3" d="M156.81,86.1s4.92,28.19-22.13,14.47l-5.35,11.65s31.27,13.8,35.92-2.57a46.74,46.74,0,0,0,1.4-19.4s7.12-1.46,7.5-6.71c0,0,7.24-6.86.27-9,0,0,.13-7.2-6.91-3.86,0,0-2.16-7.33-7.37-2.12a7.9,7.9,0,0,0-1.93,3.72s-7.43.36-7.8,5.53C150,83.91,152.67,85.09,156.81,86.1Z"/><path class="cls-3" d="M56.6,130a128.12,128.12,0,0,0,5.26,35S41.93,167,36.61,171.45s18.33-1.64,21.63-2.17c0,0-14.13,6.55-16.39,9.43s19.3-7,22.42-8.11c0,0-10.31,5.3-13.21,11.32s16.87-8.44,20.64-11.69c0,0-5.31-23.18-3.61-36Z"/><path class="cls-3" d="M111.05,131.46l1.75,41.34s13.43,13.56,21,13.69-10.23-13-13.7-14.66c0,0,15.72,11,23.12,10.36s-12.64-11.32-17.06-12.6c0,0,16.2,5.58,21.79,3.84s-12.87-8.8-23.24-7.65l-2.83-36.84Z"/><path class="cls-4" d="M19,60.59S8.53,62.67,9.49,67.78s6.27-1,8.76-2c0,0-4.57,4.16-3.91,8.43"/><path class="cls-4" d="M158.41,72.42s10.51,2.08,9.55,7.19-6.27-1-8.76-2c0,0,4.58,4.17,3.92,8.43"/><path class="cls-4" d="M10,58.89l2.81,3.76"/><path class="cls-4" d="M167.46,70.71l-2.81,3.76"/><path class="cls-4" d="M3,62.91A12.39,12.39,0,0,1,9.3,66.09"/><path class="cls-4" d="M174.41,74.74a12.33,12.33,0,0,0-6.26,3.17"/><path class="cls-4" d="M10,69.73S9,75,3.51,71.85"/><path class="cls-4" d="M167.41,81.56s1.1,5.24,6.53,2.12"/><path class="cls-2" d="M77.76,35.11S75.06,22.45,76.87,10C78.3.09,82.62-6.19,85.24,9.61S87.7,27,87.7,27Z"/><path class="cls-5" d="M71.08,121.06c0-9.27,7.81-16.78,17.45-16.78S106,111.79,106,121.06s-7.81,16.77-17.45,16.77S71.08,130.32,71.08,121.06Z"/><path class="cls-2" d="M99.07,134.35s-7.94-5.23-14.1-3.69S71,138.3,65.43,137s-8.91-4.7-15.8-8-9.35.7-15.42.05-8.17-1.87-13.81-3.9-13-1.87-13-1.87,8-5.61,11.32-4.61a27.27,27.27,0,0,1-3.54-11.84s4.59,5.07,8.18,9.17,7.49,5.43,11.43,3.94a21.21,21.21,0,0,1,14.36.31c4.45,1.86,11,7.07,15.18,7.29s9.39-2.52,14-3.45,13.83-6,26.81,1.9C105.19,126.06,103.26,131.72,99.07,134.35Z"/><path class="cls-6" d="M100.47,81.63a11.6,11.6,0,1,1,11.6,11.58A11.59,11.59,0,0,1,100.47,81.63Z"/><path class="cls-6" d="M114,53.6a11.6,11.6,0,1,1,11.6,11.59A11.59,11.59,0,0,1,114,53.6Z"/><path class="cls-6" d="M77.17,58a11.6,11.6,0,1,1,11.6,11.59A11.59,11.59,0,0,1,77.17,58Z"/><path class="cls-6" d="M51.92,83.39A11.6,11.6,0,1,1,63.52,95,11.59,11.59,0,0,1,51.92,83.39Z"/><path class="cls-6" d="M39.86,54.52A12.64,12.64,0,1,1,52.49,67.4,12.76,12.76,0,0,1,39.86,54.52Z"/><path class="cls-5" d="M98.7,78.49l24.5-6.74-5.58-7.1L98,72.36Z"/><path class="cls-5" d="M112.23,52.27l24.26-8.57-5.27-7.84L110.58,46.09Z"/><path class="cls-5" d="M87.41,53.44c7.81-.15,16.78-5,16.78-5s-6.37-7.18-5.37-6.75-6.06,4.11-11.57,4.53-10.48-2.84-10.48-2.84L72.93,49S79.59,53.59,87.41,53.44Z"/><path class="cls-5" d="M76.65,79,51.9,76.41l4-8.21,20.94,4.41Z"/><path class="cls-5" d="M66.89,51.22,38.48,47.38l4.77-9,23.07,6.49Z"/><path class="cls-5" d="M109.49,92.93a11.33,11.33,0,0,0,8.33-1.26s-5.26-14.42-6.45-14.23-1.41,5.86-1.66,9.47S109.49,92.93,109.49,92.93Z"/><path class="cls-5" d="M123,64.91a11.31,11.31,0,0,0,8.33-1.27s-5.26-14.42-6.45-14.23-1.4,5.86-1.66,9.47S123,64.91,123,64.91Z"/><path class="cls-5" d="M84.41,68.71a10.94,10.94,0,0,0,8,.36s-3.5-14.48-4.69-14.29-2.26,4.94-2.52,8.55A29.55,29.55,0,0,1,84.41,68.71Z"/><path class="cls-5" d="M60.93,94.69a11.31,11.31,0,0,0,8.33-1.27S64,79,62.81,79.2s-1.41,5.86-1.66,9.46S60.93,94.69,60.93,94.69Z"/><path class="cls-5" d="M49.67,67.14a13.06,13.06,0,0,0,7.19-.52s-1.5-16.4-2.8-16.18-3.13,6.26-3.61,10.25C50.11,63.61,49.67,67.14,49.67,67.14Z"/><path class="cls-6" d="M91.14,104.49A16.25,16.25,0,0,1,99,107.65s-3.27,6.84-4.66,7.47S91.14,104.49,91.14,104.49Z"/><path class="cls-6" d="M78.24,107.52a15.29,15.29,0,0,1,6-2.74s-1.45,11-2.9,11.36S78.24,107.52,78.24,107.52Z"/><path class="cls-5" d="M45.38,54.92h0Z"/><path class="cls-7" d="M34.61,91.35s3.52,9.45,4.69,11.72l-6.15,1.32L29.78,92.52Z"/><path class="cls-8" d="M56.71,133s6.92,8,11.29,11.21l.08,3.08s-7.13.16-10.47-2.93C57.61,144.34,56.58,135.32,56.71,133Z"/><path class="cls-8" d="M111.44,140.48s2.88-1.33,10.55-10.13l.61,8.6a15.5,15.5,0,0,1-10.76,9.1Z"/><path class="cls-8" d="M139.33,102.69s-3.56,7.85-5.54,11.22c0,0,2.66,1,4.48,1.47,0,0,3.78-9.45,4.45-11.62Z"/><path class="cls-8" d="M95.16,132.27S99.85,129,100.5,127c0,0-11.26-5-17.44-4.13a26,26,0,0,1,22.07,3.2,16,16,0,0,1-6,8.33A25,25,0,0,0,95.16,132.27Z"/></g></g></svg>