<svg xmlns="http://www.w3.org/2000/svg" viewBox="0 0 145.38 161.95"><defs><style>.cls-1{isolation:isolate;}.cls-2{fill:#a5d24a;}.cls-14,.cls-15,.cls-17,.cls-19,.cls-2,.cls-4{mix-blend-mode:multiply;}.cls-3{fill:#a12dc8;}.cls-17,.cls-18,.cls-4,.cls-7,.cls-9{fill:#702291;}.cls-14,.cls-15,.cls-17,.cls-4{opacity:0.3;}.cls-16,.cls-5{fill:#472055;}.cls-13,.cls-6{fill:#fffad3;}.cls-15,.cls-16,.cls-17,.cls-7{fill-rule:evenodd;}.cls-12,.cls-13,.cls-18,.cls-8{mix-blend-mode:screen;}.cls-10{fill:#fff;}.cls-11{fill:#f52b5d;}.cls-12{fill:#0463ac;}.cls-13{opacity:0.2;}.cls-14,.cls-15{fill:#6fd1de;}</style></defs><title>Asset14</title><g class="cls-1"><g id="Layer_2" data-name="Layer 2"><g id="OBJECTS"><g id="_Group_" data-name="&lt;Group&gt;"><ellipse id="_Path_" data-name="&lt;Path&gt;" class="cls-2" cx="72.69" cy="153.28" rx="66" ry="8.67"/><g id="_Group_2" data-name="&lt;Group&gt;"><g id="_Group_3" data-name="&lt;Group&gt;"><path id="_Path_2" data-name="&lt;Path&gt;" class="cls-3" d="M10.72,50c2-15.5,3.5-50.5,65-50s71.5,57.5,54.5,82C114.07,105.28,89,109.33,97,123.83s39.25,13.68,37.25,3.68-11-6-10.5-2,4.5,2,4.5,2-4.5,7-8.5,4-6-16.5,9.5-15.5,19.5,18,13.5,25.5-25,17-44,5.5c0,0-22.5-8-41.5-5s-35,10-49.5-.5-6.5-30,7-32,24,12,16,16.5-14.5-.5-12.5-4.5c0,0,4,5.5,6,2.5s-5.5-9.5-9.5-4,6.53,16.83,18,12.5c28.25-10.68,16-27.13,5.59-31.68C27.19,96,7.09,78.13,10.72,50Z"/><path id="_Path_3" data-name="&lt;Path&gt;" class="cls-4" d="M121.89,138.75c4-.67,17.5-6.92,15.75-12.67s-8.75-6-10.5-4.75a.75.75,0,0,0-.12.14c2.63-.82,6.06.33,7.2,6,2,10-29.25,10.82-37.25-3.68s17.1-18.55,33.25-41.82l.68-1c.16-.41.24-.65.24-.65s-21,20.25-32.75,26.25-6.5,23,1,27S117.9,139.42,121.89,138.75Z"/><g id="_Group_4" data-name="&lt;Group&gt;"><g id="_Group_5" data-name="&lt;Group&gt;"><path id="_Path_4" data-name="&lt;Path&gt;" class="cls-4" d="M18.22,121.51c-1.51,3,1.83,6.6,7,6.24a22.34,22.34,0,0,1-2.63-2.87C20.59,124.75,18.22,121.51,18.22,121.51Z"/></g><g id="_Group_6" data-name="&lt;Group&gt;"><path id="_Path_5" data-name="&lt;Path&gt;" class="cls-4" d="M78.14,106.33h0Z"/></g></g><g id="_Group_7" data-name="&lt;Group&gt;"><g id="_Group_8" data-name="&lt;Group&gt;"><path id="_Path_6" data-name="&lt;Path&gt;" class="cls-5" d="M93.51,88.65s-1.51,2.9-6,1.73-6-6-14.91-6.65c-5.19-.38-6.95,3.06-10.79,4.87-4.52,2.14-8.83-1-7.57-6,.75-3,3.86-6.23,6.57-7.5,5.35-2.52,14.44-5.55,25.79.62S93.51,88.65,93.51,88.65Z"/><path id="_Path_7" data-name="&lt;Path&gt;" class="cls-6" d="M64.5,83.7c-1.41-.52-3.23-.49-4.09.89a3.06,3.06,0,0,0,0,3.16,5,5,0,0,0,.82,1.1l.58-.25a36.32,36.32,0,0,0,4.84-3.22A4.69,4.69,0,0,0,64.5,83.7Z"/><path id="_Path_8" data-name="&lt;Path&gt;" class="cls-6" d="M69.46,80.71A3.09,3.09,0,0,0,68,83.54a6.41,6.41,0,0,0,.13,1,8.49,8.49,0,0,1,4.46-.79c.71,0,1.37.13,2,.23a4.62,4.62,0,0,0-1.12-2.17C72.49,80.69,70.86,79.88,69.46,80.71Z"/><path id="_Path_9" data-name="&lt;Path&gt;" class="cls-6" d="M89.31,86.5c-1-1.31-2.79-1.2-4.15-.58a4.67,4.67,0,0,0-2.08,1.9,12.91,12.91,0,0,0,4.46,2.56,8.88,8.88,0,0,0,1.24.23,3,3,0,0,0,.56-.64A3.11,3.11,0,0,0,89.31,86.5Z"/><path id="_Path_10" data-name="&lt;Path&gt;" class="cls-6" d="M78.3,77.07c1.37,1.14,3.27.56,4.56-.46a5,5,0,0,0,1.52-2,28.48,28.48,0,0,0-6.4-2l-.18,0a3,3,0,0,0-.43.82A3.4,3.4,0,0,0,78.3,77.07Z"/><path id="_Path_11" data-name="&lt;Path&gt;" class="cls-6" d="M59.28,76a2.71,2.71,0,0,0,.18.69,3.39,3.39,0,0,0,3.12,2.16c1.79,0,2.84-1.74,3.14-3.35a5.13,5.13,0,0,0-.12-2.27,33.87,33.87,0,0,0-4.76,1.85A10.24,10.24,0,0,0,59.28,76Z"/></g><g id="_Group_9" data-name="&lt;Group&gt;"><g id="_Group_10" data-name="&lt;Group&gt;"><path id="_Path_12" data-name="&lt;Path&gt;" class="cls-7" d="M73.06,88.12a4.86,4.86,0,0,1,3.16.19,3.45,3.45,0,0,1,.84.46l.27.21H77c-.21,0-.52,0-.88,0a13.54,13.54,0,0,0-5.19,1.44,5.65,5.65,0,0,0-.77.45l-.29.18s0-.12.12-.32a4.32,4.32,0,0,1,.48-.83A4.94,4.94,0,0,1,73.06,88.12Z"/></g><g id="_Group_11" data-name="&lt;Group&gt;"><path id="_Path_13" data-name="&lt;Path&gt;" class="cls-7" d="M98,88a7.44,7.44,0,0,1-1,2.28,6.68,6.68,0,0,1-1.39,1.48,5.13,5.13,0,0,1-1.15.71l-.44.19.32-.36a8.32,8.32,0,0,0,.77-1,11.72,11.72,0,0,0,1.59-3.63,11.55,11.55,0,0,0,.32-4,8,8,0,0,0-.2-1.25c-.07-.31-.11-.47-.11-.47l.3.38a5.53,5.53,0,0,1,.68,1.16,6.73,6.73,0,0,1,.52,2A7.53,7.53,0,0,1,98,88Z"/></g><g id="_Group_12" data-name="&lt;Group&gt;"><path id="_Path_14" data-name="&lt;Path&gt;" class="cls-7" d="M50.86,86.72a13.84,13.84,0,0,0,1.71,1.85c.26.22.49.4.66.52l.26.19h-.33a3.31,3.31,0,0,1-.89-.11,4.48,4.48,0,0,1-3.43-4.45,3.05,3.05,0,0,1,.13-.89l.09-.31.12.3c.07.19.18.45.33.76A13.07,13.07,0,0,0,50.86,86.72Z"/></g></g></g><g id="_Group_13" data-name="&lt;Group&gt;" class="cls-8"><path id="_Path_15" data-name="&lt;Path&gt;" class="cls-9" d="M129.22,116c-15.5-1-13.5,12.5-9.5,15.5a3.48,3.48,0,0,0,3,.65,9.86,9.86,0,0,1-3.12-8.15c.67-6.34,10.33-7.34,17.67-3s6.33,19.33-7.67,25-27-3-32.67-6-33.66-4.67-35.33-4-23.67,5.66-35.33,5.66-20-7.66-21-16,9-16,18.66-10.66,4,11,4,11,.76.22,1.91.46c.31-.15.61-.29.93-.46,8-4.5-2.5-18.5-16-16.5s-21.5,21.5-7,32,30.5,3.5,49.5.5,41.5,5,41.5,5c19,11.5,38,2,44-5.5S144.72,117,129.22,116Z"/><path id="_Path_16" data-name="&lt;Path&gt;" class="cls-9" d="M118.74,136.21c-.93,0-1.87,0-2.81-.12A5.2,5.2,0,0,0,118.74,136.21Z"/></g><path id="_Path_17" data-name="&lt;Path&gt;" class="cls-9" d="M85.72,134.34c-.67,8,5.66,7.67,5.66,7.67s-3.33-5.34,3.67-6,4.67,7.66,1,8.33-8.67,1-14-8.67l-29.41,1.41s3.22,2.47,6.6,4.65C77.78,139.56,98.72,147,98.72,147a38.72,38.72,0,0,0,6.91,3.3c4.29-5.66,5-14,1.75-19.3C102.05,122.34,86.38,126.34,85.72,134.34Z"/><g id="_Group_14" data-name="&lt;Group&gt;"><path id="_Path_18" data-name="&lt;Path&gt;" class="cls-3" d="M54.22,136s25,18,39.33,18.33,19.67-16.67,14.33-25.33-21-4.67-21.66,3.33S91.88,140,91.88,140s-3.33-5.34,3.67-6,4.67,7.66,1,8.33-8.67,1-14-8.67"/></g><g id="_Group_15" data-name="&lt;Group&gt;"><g id="_Group_16" data-name="&lt;Group&gt;"><path id="_Path_19" data-name="&lt;Path&gt;" class="cls-9" d="M11.27,128.45c-.87.74-.55,2.28,0,3.12s1.59,1.87,2.63,1.44a1.22,1.22,0,0,0,.76-1.14,1.93,1.93,0,0,0-.3-.93s-.21-.39-.14-.25c-.2-.42-.37-.88-.54-1.3.08.19-.27-.63-.17-.47a1.78,1.78,0,0,0-.72-.67,1.37,1.37,0,0,0-1.54.2Z"/></g><g id="_Group_17" data-name="&lt;Group&gt;"><path id="_Path_20" data-name="&lt;Path&gt;" class="cls-9" d="M16.19,132.7c.39.39.76.82,1.36.77a.83.83,0,0,0,.8-.8c0-.6-.38-1-.77-1.36a1,1,0,0,0-1.39,1.39Z"/></g><g id="_Group_18" data-name="&lt;Group&gt;"><path id="_Path_21" data-name="&lt;Path&gt;" class="cls-9" d="M18.35,135.81c.09.65.59.92,1.07,1.31a3.16,3.16,0,0,0,.8.55,8.08,8.08,0,0,0,.88.22c.51.11,1.09-.46.74-1a5.7,5.7,0,0,0-.54-.75,3,3,0,0,0-.83-.57c-.58-.32-1-.67-1.73-.48a.58.58,0,0,0-.39.69Z"/></g><g id="_Group_19" data-name="&lt;Group&gt;"><path id="_Path_22" data-name="&lt;Path&gt;" class="cls-9" d="M21.74,134.38c.26.57.76.67,1.31.88.81.3,1.18-1.14.35-1.26-.59-.09-1.09-.25-1.6.13a.18.18,0,0,0-.06.25Z"/></g><g id="_Group_20" data-name="&lt;Group&gt;"><path id="_Path_23" data-name="&lt;Path&gt;" class="cls-9" d="M116.29,140.08a4,4,0,0,0,2.3,2.16,4.13,4.13,0,0,0,3.3-.29,1.87,1.87,0,0,0,0-3.2,6.88,6.88,0,0,0-2.11-.83,7.34,7.34,0,0,0-2.24,0,1.46,1.46,0,0,0-1.25,2.18Z"/></g><g id="_Group_21" data-name="&lt;Group&gt;"><path id="_Path_24" data-name="&lt;Path&gt;" class="cls-9" d="M123.69,138.87a2.53,2.53,0,0,0,1,.57,1.75,1.75,0,0,0,1.41-.22,1.41,1.41,0,0,0,0-2.43,1.74,1.74,0,0,0-1.41-.22,2.84,2.84,0,0,0-1,.57,1.22,1.22,0,0,0,0,1.73Z"/></g><g id="_Group_22" data-name="&lt;Group&gt;"><path id="_Path_25" data-name="&lt;Path&gt;" class="cls-9" d="M125.25,143.76a3.74,3.74,0,0,0,1,.1,2.48,2.48,0,0,0,1-.41c.65-.38,1.23-1,.9-1.84a1.53,1.53,0,0,0-1.86-.7,3.31,3.31,0,0,0-.92.3,3.25,3.25,0,0,0-.8.89,1.13,1.13,0,0,0,.67,1.66Z"/></g></g><g id="_Group_23" data-name="&lt;Group&gt;"><g id="_Group_24" data-name="&lt;Group&gt;"><ellipse id="_Path_26" data-name="&lt;Path&gt;" class="cls-10" cx="38.2" cy="53.53" rx="23.86" ry="21.89"/><g id="_Group_25" data-name="&lt;Group&gt;"><path id="_Path_27" data-name="&lt;Path&gt;" class="cls-11" d="M59.79,51.86A14.22,14.22,0,1,1,45.57,37.31,14.39,14.39,0,0,1,59.79,51.86Z"/><path id="_Path_28" data-name="&lt;Path&gt;" class="cls-5" d="M53.79,51.86a8.23,8.23,0,1,1-8.22-8.41A8.32,8.32,0,0,1,53.79,51.86Z"/><path id="_Path_29" data-name="&lt;Path&gt;" class="cls-12" d="M40.1,48.36A3.15,3.15,0,1,1,37,45.15,3.18,3.18,0,0,1,40.1,48.36Z"/><path id="_Path_30" data-name="&lt;Path&gt;" class="cls-12" d="M56.78,59a4.51,4.51,0,1,1-4.51-4.61A4.56,4.56,0,0,1,56.78,59Z"/></g><path id="_Path_31" data-name="&lt;Path&gt;" class="cls-13" d="M57.85,41.12A24.49,24.49,0,0,0,38.2,31.64c-9.52,0-17.73,5.11-21.56,12.51,2.56,7.48,10.65,13,20.25,13C47.74,57.1,56.67,50.11,57.85,41.12Z"/><path id="_Path_32" data-name="&lt;Path&gt;" class="cls-14" d="M47.65,33.43a33.4,33.4,0,0,1,8.44,8.94c14,21-14.84,39.27-30.55,27.23-8.8-6.75-9.93-13.91-9.22-18.92A20.7,20.7,0,0,1,17.09,44h-.41a20.4,20.4,0,0,0-2.34,9.48C14.34,65.62,25,75.42,38.2,75.42s23.86-9.8,23.86-21.89C62.06,44.52,56.13,36.79,47.65,33.43Z"/></g><path id="_Path_33" data-name="&lt;Path&gt;" class="cls-15" d="M38.2,31.64c-13.18,0-23.86,9.8-23.86,21.89a20.46,20.46,0,0,0,2.94,10.54A42.24,42.24,0,0,1,34.14,47.83a75.59,75.59,0,0,1,22.94-7.67A24.6,24.6,0,0,0,38.2,31.64Z"/><path id="_Path_34" data-name="&lt;Path&gt;" class="cls-7" d="M15.07,64s4.57-10.65,17.57-17.65a74.3,74.3,0,0,1,26-8.08S41,20.53,21.64,34.33C4.14,46.83,15.07,64,15.07,64Z"/><g id="_Group_26" data-name="&lt;Group&gt;"><path id="_Path_35" data-name="&lt;Path&gt;" class="cls-16" d="M34,44.3a57,57,0,0,1,10.19-3.7,86.08,86.08,0,0,1,8.62-1.8c2.47-.4,4.48-.64,5.87-.8l2.16-.23-2.12.48c-1.36.31-3.33.75-5.75,1.34a93.05,93.05,0,0,0-18.27,6.16,48.14,48.14,0,0,0-8.95,5.54,38.93,38.93,0,0,0-6.16,6,42.17,42.17,0,0,0-3.4,4.78C15.43,63.29,15.07,64,15.07,64s.27-.73.86-2a36.61,36.61,0,0,1,3-5.15,35.45,35.45,0,0,1,5.93-6.59A41.51,41.51,0,0,1,34,44.3Z"/></g><g id="_Group_27" data-name="&lt;Group&gt;"><path id="_Path_36" data-name="&lt;Path&gt;" class="cls-7" d="M28.79,76.78a36,36,0,0,0,7.43,2c1,.15,1.8.25,2.37.28l.88.08-.87.18a17.35,17.35,0,0,1-2.42.27A19.7,19.7,0,0,1,21.44,73.9a16.34,16.34,0,0,1-1.62-1.83l-.53-.71.71.53c.44.36,1.11.83,1.94,1.38A36.51,36.51,0,0,0,28.79,76.78Z"/></g><g id="_Group_28" data-name="&lt;Group&gt;"><path id="_Path_37" data-name="&lt;Path&gt;" class="cls-7" d="M46.36,75.58A16.81,16.81,0,0,1,48.22,75l.89-.21a3,3,0,0,1-.42.86,3.71,3.71,0,0,1-4,1.56,3.3,3.3,0,0,1-.9-.34s.33-.2.8-.46A19.32,19.32,0,0,1,46.36,75.58Z"/></g><g id="_Group_29" data-name="&lt;Group&gt;"><path id="_Path_38" data-name="&lt;Path&gt;" class="cls-7" d="M38.75,73.85A44,44,0,0,0,54.92,70c2-.88,3.53-1.69,4.6-2.28l1.65-.93s-.53.42-1.52,1.14a42,42,0,0,1-4.38,2.79,36.69,36.69,0,0,1-16.48,4.76,30,30,0,0,1-9.47-1.26,27.32,27.32,0,0,1-7-3.29,23.62,23.62,0,0,1-4-3.32c-.44-.43-.73-.81-.95-1L17,66.17l.37.32c.25.21.58.55,1.07.91a25.79,25.79,0,0,0,4.25,2.82A32.26,32.26,0,0,0,38.75,73.85Z"/></g><g id="_Group_30" data-name="&lt;Group&gt;"><path id="_Path_39" data-name="&lt;Path&gt;" class="cls-16" d="M22.6,47a32.2,32.2,0,0,1,8.81-5.47,26.77,26.77,0,0,1,2.95-1l1.11-.31-1,.54c-.65.33-1.58.86-2.69,1.53a58.49,58.49,0,0,0-8.11,6,56.88,56.88,0,0,0-6.95,7.28c-.81,1-1.45,1.86-1.86,2.47l-.67.93.45-1.06A30.41,30.41,0,0,1,16,55,32.16,32.16,0,0,1,22.6,47Z"/></g><g id="_Group_31" data-name="&lt;Group&gt;"><path id="_Path_40" data-name="&lt;Path&gt;" class="cls-16" d="M38.34,35.26a36.55,36.55,0,0,1,7.86-1.08,30.21,30.21,0,0,1,3.28.07L46.3,35c-2,.45-4.63,1.1-7.56,1.84s-5.6,1.43-7.53,2l-3.15.86A29.77,29.77,0,0,1,30.92,38,36.4,36.4,0,0,1,38.34,35.26Z"/></g><g id="_Group_32" data-name="&lt;Group&gt;"><path id="_Path_41" data-name="&lt;Path&gt;" class="cls-17" d="M27.83,49.34,26.46,50c-2.39,1.2-4.9,2.43-7.58,2.41a5.15,5.15,0,0,1,2.3-4.82c-1.54,1.05-4.06,1.9-4.92.24A3.18,3.18,0,0,1,16,46.49a16.43,16.43,0,0,1,4.31-11.15C4.72,47.73,15.07,64,15.07,64S18.49,56,27.83,49.34Z"/><path id="_Path_42" data-name="&lt;Path&gt;" class="cls-17" d="M39.91,43a73.47,73.47,0,0,1,18.77-4.72s-10-10-23.25-9.11A13.31,13.31,0,0,1,39,30.63,3.46,3.46,0,0,1,40.89,33c.09,1.26-1,2.27-2.17,2.82a9.58,9.58,0,0,0-3.24,1.88,11.82,11.82,0,0,1,7.69.58A7.18,7.18,0,0,1,39.91,43Z"/></g></g><g id="_Group_33" data-name="&lt;Group&gt;"><g id="_Group_34" data-name="&lt;Group&gt;"><path id="_Path_43" data-name="&lt;Path&gt;" class="cls-10" d="M125.61,55.36c0,10.06-8.84,18.22-19.75,18.22S86.1,65.42,86.1,55.36,95,37.15,105.86,37.15,125.61,45.3,125.61,55.36Z"/><g id="_Group_35" data-name="&lt;Group&gt;"><path id="_Path_44" data-name="&lt;Path&gt;" class="cls-11" d="M112.88,54.32A10.86,10.86,0,1,1,102,43.17,11,11,0,0,1,112.88,54.32Z"/><path id="_Path_45" data-name="&lt;Path&gt;" class="cls-5" d="M108.3,54.32A6.28,6.28,0,1,1,102,47.87,6.37,6.37,0,0,1,108.3,54.32Z"/><path id="_Path_46" data-name="&lt;Path&gt;" class="cls-12" d="M97.85,51.64a2.4,2.4,0,1,1-2.4-2.46A2.44,2.44,0,0,1,97.85,51.64Z"/><path id="_Path_47" data-name="&lt;Path&gt;" class="cls-12" d="M110.58,59.79a3.44,3.44,0,1,1-3.44-3.54A3.49,3.49,0,0,1,110.58,59.79Z"/></g><path id="_Path_48" data-name="&lt;Path&gt;" class="cls-13" d="M122.13,45a20.26,20.26,0,0,0-16.27-7.88A19.93,19.93,0,0,0,88,47.55c2.12,6.23,8.82,10.78,16.76,10.78C113.76,58.33,121.15,52.52,122.13,45Z"/><path id="_Path_49" data-name="&lt;Path&gt;" class="cls-14" d="M125.61,55.36c0-7.49-4.91-13.93-11.92-16.72a27.59,27.59,0,0,1,7,7.44c11.56,17.45-12.28,32.68-25.29,22.65S89.6,47.56,89.6,47.56A4.48,4.48,0,0,0,88,47.48a17,17,0,0,0-1.94,7.88c0,10.06,8.85,18.22,19.76,18.22S125.61,65.42,125.61,55.36Z"/><path id="_Path_50" data-name="&lt;Path&gt;" class="cls-14" d="M113.69,38.9a27.74,27.74,0,0,1,7,7.44C132.23,63.79,108.39,79,95.38,69c-6.27-4.82-7.84-9.91-7.78-13.88a16,16,0,0,1,0-2,21.81,21.81,0,0,1,.49-3.69c.1-.46.35-1.13.5-1.74a4.61,4.61,0,0,0-.52,0,17.05,17.05,0,0,0-1.94,7.89c0,10.06,8.85,18.21,19.76,18.21s19.75-8.15,19.75-18.21C125.61,48.13,120.7,41.69,113.69,38.9Z"/></g><path id="_Path_51" data-name="&lt;Path&gt;" class="cls-15" d="M105.86,37.15a20.48,20.48,0,0,0-14.1,5.47,77.36,77.36,0,0,1,20,6.85c7.47,3.59,11.53,6.81,13.6,8.83a16.83,16.83,0,0,0,.28-2.94C125.61,45.3,116.77,37.15,105.86,37.15Z"/><path id="_Path_52" data-name="&lt;Path&gt;" class="cls-7" d="M91.81,40.64a80.5,80.5,0,0,1,20.92,7.08c12.5,6,15.5,11,15.5,11s3.41-19.92-11.59-24.92S91.81,40.64,91.81,40.64Z"/><g id="_Group_36" data-name="&lt;Group&gt;"><path id="_Path_53" data-name="&lt;Path&gt;" class="cls-16" d="M111.25,45.83a59.15,59.15,0,0,1,8.86,4.53,27.78,27.78,0,0,1,6.2,5.31,16.9,16.9,0,0,1,2.83,4.71,12.18,12.18,0,0,1,.46,1.41l.14.49-.21-.47a12.19,12.19,0,0,0-.62-1.33,18,18,0,0,0-3.19-4.26,30.43,30.43,0,0,0-6.32-4.7,84.71,84.71,0,0,0-8.77-4.21,126,126,0,0,0-16.8-5.76c-2.21-.59-4-1-5.26-1.28l-1.95-.42,2,.17c1.27.14,3.12.35,5.39.74A79.43,79.43,0,0,1,111.25,45.83Z"/></g><g id="_Group_37" data-name="&lt;Group&gt;"><path id="_Path_54" data-name="&lt;Path&gt;" class="cls-7" d="M109.78,77.23a32,32,0,0,0,5.36-.81c.69-.17,1.26-.33,1.64-.45l.61-.19-.49.41a11,11,0,0,1-1.46,1,13.05,13.05,0,0,1-5.55,1.68,13.31,13.31,0,0,1-5.74-.91,12.13,12.13,0,0,1-1.57-.77l-.54-.34.63.1c.39.07,1,.15,1.68.23A32.54,32.54,0,0,0,109.78,77.23Z"/></g><g id="_Group_38" data-name="&lt;Group&gt;"><path id="_Path_55" data-name="&lt;Path&gt;" class="cls-7" d="M121.39,72.06a5.55,5.55,0,0,1,1.49-.59c.44-.11.77-.16.77-.16a2.91,2.91,0,0,1-.24.77,3,3,0,0,1-3,1.77,2.92,2.92,0,0,1-.8-.15,7.5,7.5,0,0,1,.51-.6A5.36,5.36,0,0,1,121.39,72.06Z"/></g><g id="_Group_39" data-name="&lt;Group&gt;"><path id="_Path_56" data-name="&lt;Path&gt;" class="cls-7" d="M108.35,72.79a26.51,26.51,0,0,0,8.3-2.65,57.93,57.93,0,0,0,6.24-3.75c1.73-1.18,3.1-2.18,4-2.87l1.48-1.07-1.32,1.26c-.85.81-2.1,2-3.72,3.32a43.56,43.56,0,0,1-6.09,4.3,24,24,0,0,1-8.73,3.06,20.86,20.86,0,0,1-9.22-1,35.9,35.9,0,0,1-6.79-3.1c-1.83-1.06-3.25-2-4.23-2.65l-1.51-1,1.63.81c1.06.52,2.58,1.29,4.48,2.15a43.84,43.84,0,0,0,6.81,2.52A22,22,0,0,0,108.35,72.79Z"/></g><g id="_Group_40" data-name="&lt;Group&gt;"><path id="_Path_57" data-name="&lt;Path&gt;" class="cls-16" d="M106.26,40.56a52.52,52.52,0,0,1,7.9,3.21c2,1,3.12,1.65,3.12,1.65s-1.32-.31-3.41-.9-5-1.46-8.08-2.42-6-1.77-8.06-2.26c-1-.24-1.91-.44-2.51-.55l-.93-.19.95-.06a25.08,25.08,0,0,1,2.6,0A34.74,34.74,0,0,1,106.26,40.56Z"/></g><g id="_Group_41" data-name="&lt;Group&gt;"><path id="_Path_58" data-name="&lt;Path&gt;" class="cls-16" d="M120,42a17.87,17.87,0,0,1,4.26,4,14.87,14.87,0,0,1,1.33,2l-1.9-1.44c-1.16-.87-2.77-2-4.58-3.2s-3.48-2.22-4.74-3l-2.07-1.17a14.44,14.44,0,0,1,2.37.43A17.89,17.89,0,0,1,120,42Z"/></g><g id="_Group_42" data-name="&lt;Group&gt;"><path id="_Path_59" data-name="&lt;Path&gt;" class="cls-4" d="M125.48,43.61c-.6,1.41-2.9,2-3.62.64a27.51,27.51,0,0,1,2.64,5.56,20.7,20.7,0,0,1-10.72-1.56c11.59,5.76,14.45,10.47,14.45,10.47s1.71-10-2.64-17.62A4,4,0,0,1,125.48,43.61Z"/><path id="_Path_60" data-name="&lt;Path&gt;" class="cls-4" d="M102.75,42.09c-.72-.47-1.22-1.75-.7-2.05a1.77,1.77,0,0,1-1.72-1.8,3.74,3.74,0,0,1,1.55-2.63A11.46,11.46,0,0,1,113,33.53l-.09-.65C100,30.75,91.81,40.64,91.81,40.64a80.06,80.06,0,0,1,17.88,5.68C107.29,45,105,43.55,102.75,42.09Z"/></g></g><g id="_Group_43" data-name="&lt;Group&gt;"><path id="_Path_61" data-name="&lt;Path&gt;" class="cls-3" d="M3.78,121.73a15,15,0,0,1,1.71.22A10.23,10.23,0,0,1,6,120.54a9,9,0,0,0-2.09-.42,8.5,8.5,0,0,0-2.46.2c-.2.49-.38,1-.54,1.47A17.06,17.06,0,0,1,3.78,121.73Z"/><path id="_Path_62" data-name="&lt;Path&gt;" class="cls-3" d="M29.51,122.41a5.1,5.1,0,0,1-.22,1.15,7.79,7.79,0,0,0,3.81-1c.12-.07.21-.15.32-.22a6.24,6.24,0,0,0,0-1.88c-.35.24-.72.48-1.11.7A16,16,0,0,1,29.51,122.41Z"/><path id="_Path_63" data-name="&lt;Path&gt;" class="cls-3" d="M7.74,135.08c.39-.46.62-.8.62-.8a4.66,4.66,0,0,0-1,.1,5.3,5.3,0,0,0-2.17,1,5.47,5.47,0,0,0-1.52,1.83l-.13.29c.11.15.23.29.35.44l.35-.15a11,11,0,0,0,1.92-1.13A10.37,10.37,0,0,0,7.74,135.08Z"/><path id="_Path_64" data-name="&lt;Path&gt;" class="cls-3" d="M28.14,118.36a8.11,8.11,0,0,1,.53.76,5.3,5.3,0,0,0,2.58-3.23,14.13,14.13,0,0,0-1.16-1.31c-.17.46-.37.94-.59,1.44A15.77,15.77,0,0,1,28.14,118.36Z"/><path id="_Path_65" data-name="&lt;Path&gt;" class="cls-3" d="M52.23,140.27a7.21,7.21,0,0,1,1.07,2.41l1.25-.22a5.63,5.63,0,0,0-1-3.11,8,8,0,0,0-1.09-1.21l-1.75.36A12.6,12.6,0,0,1,52.23,140.27Z"/><path id="_Path_66" data-name="&lt;Path&gt;" class="cls-3" d="M29.21,145.65a6.18,6.18,0,0,0-1.38-3.08,5.53,5.53,0,0,0-1-.91h-.05c0,.1.13.56.3,1.27s.35,1.82.5,2.94q.09.6.15,1.17.73,0,1.47-.09A6.31,6.31,0,0,0,29.21,145.65Z"/><path id="_Path_67" data-name="&lt;Path&gt;" class="cls-3" d="M37.64,141.92a5.83,5.83,0,0,0-.52-1.13l-1.67.21a7.38,7.38,0,0,1,.66,1.42,12.94,12.94,0,0,1,.58,3.57l1.13-.2A7.63,7.63,0,0,0,37.64,141.92Z"/><path id="_Path_68" data-name="&lt;Path&gt;" class="cls-3" d="M24.3,146.23a6.36,6.36,0,0,0,1.1-3.81,7.25,7.25,0,0,0-.09-.79h-.46c-.07.2-.15.42-.25.68a15.58,15.58,0,0,1-1.63,3,17,17,0,0,1-1.19,1.55c.62.06,1.25.11,1.87.14A6.36,6.36,0,0,0,24.3,146.23Z"/><path id="_Path_69" data-name="&lt;Path&gt;" class="cls-3" d="M23.37,113a6.68,6.68,0,0,1,.08,1.77l.43.22c.25.13.47.26.7.4a4.42,4.42,0,0,0,.37-2.68,5.65,5.65,0,0,0-.88-2.11c-.49-.19-1-.36-1.49-.52A24.7,24.7,0,0,1,23.37,113Z"/><path id="_Path_70" data-name="&lt;Path&gt;" class="cls-3" d="M6.18,129.38c-.11-.28-.22-.56-.31-.85a8.34,8.34,0,0,0-3.24.57,8.6,8.6,0,0,0-2.3,1.42c.07.37.16.74.26,1.11l2.64-1Z"/><path id="_Path_71" data-name="&lt;Path&gt;" class="cls-3" d="M44.63,143.86a5.93,5.93,0,0,0-.34-3.29,4,4,0,0,0-.48-.8l-1.64.27a7.81,7.81,0,0,1,.65,1.18c.42.95.74,1.95,1,2.71l.23.63.46-.1Q44.57,144.2,44.63,143.86Z"/><path id="_Path_72" data-name="&lt;Path&gt;" class="cls-3" d="M13.08,143.49a8.41,8.41,0,0,0,2.43-4.28l-.72-.36s0,0,0,.05A16.72,16.72,0,0,1,12,142.32c-.43.4-.86.75-1.29,1.08.51.28,1,.55,1.52.79A8.08,8.08,0,0,0,13.08,143.49Z"/><path id="_Path_73" data-name="&lt;Path&gt;" class="cls-3" d="M10.72,112.28c.62.7,1.2,1.35,1.71,2a11.08,11.08,0,0,1,1.14-.42,9.65,9.65,0,0,0-1.64-2.6,10.43,10.43,0,0,0-.75-.74c-.5.2-1,.43-1.47.68Z"/><path id="_Path_74" data-name="&lt;Path&gt;" class="cls-3" d="M14.8,109.5l.24.28c.51.64,1.15,1.5,1.84,2.43l.77,1a13.94,13.94,0,0,1,1.56.15,6.48,6.48,0,0,0-1-2.14A6.71,6.71,0,0,0,16,109.37C15.58,109.4,15.19,109.44,14.8,109.5Z"/></g><g id="_Group_44" data-name="&lt;Group&gt;"><path id="_Path_75" data-name="&lt;Path&gt;" class="cls-18" d="M93.55,154.34c14.33.33,19.67-16.67,14.33-25.33s-21-4.67-21.66,3.33a10.79,10.79,0,0,0,.12,3,2.88,2.88,0,0,0,1.3-1.73c1.5-5,13.25-7.25,18.25-1.5s-1,14.5-10.25,17.5-38.75-13.25-38.75-13.25-.06.53-.11,1.45C63.51,142.32,82,154.07,93.55,154.34Z"/></g><g id="_Group_45" data-name="&lt;Group&gt;"><path id="_Path_76" data-name="&lt;Path&gt;" class="cls-3" d="M75.57,145.25l-1.28-.53c-.06,1-.17,2.08-.34,3.24l1.51.75a.19.19,0,0,1,0-.07A13,13,0,0,0,75.57,145.25Z"/><path id="_Path_77" data-name="&lt;Path&gt;" class="cls-3" d="M69.24,142.81c0-.11,0-.21,0-.31l-1.53-.71c0,.28-.06.58-.08.87-.06.64-.11,1.25-.14,1.81l1.14.65A7.66,7.66,0,0,0,69.24,142.81Z"/><path id="_Path_78" data-name="&lt;Path&gt;" class="cls-3" d="M83.25,150.28c-.13-.82-.25-1.6-.35-2.33q-.68-.21-1.35-.45a13.22,13.22,0,0,0,.11,3c.06.34.14.67.22,1l1.69.63C83.46,151.56,83.36,150.94,83.25,150.28Z"/><path id="_Path_79" data-name="&lt;Path&gt;" class="cls-3" d="M107.69,136.62c0,.24,0,.49,0,.74.17-.06.37-.12.59-.22a5.36,5.36,0,0,0,1.61-1.12,15.09,15.09,0,0,0-.26-2.35l-.28.49a24.87,24.87,0,0,1-1.56,2.34A1.25,1.25,0,0,1,107.69,136.62Z"/><path id="_Path_80" data-name="&lt;Path&gt;" class="cls-3" d="M106.29,145.1a18.51,18.51,0,0,1-3.11.21c-.3.26-.62.52-.94.77a7.62,7.62,0,0,0,4.29.62c.28,0,.53-.12.8-.19.33-.59.64-1.19.91-1.8C107.63,144.86,107,145,106.29,145.1Z"/><path id="_Path_81" data-name="&lt;Path&gt;" class="cls-3" d="M63.25,141.94a5.13,5.13,0,0,0,.34-1.51,4.42,4.42,0,0,0,0-.63l-1.51-.75q0,.62-.09,1.26c0,.28,0,.55-.07.81Z"/><path id="_Path_82" data-name="&lt;Path&gt;" class="cls-3" d="M95.51,149.62a8.44,8.44,0,0,0,2.41,2.5,8.33,8.33,0,0,0,2.12,1,13.55,13.55,0,0,0,1.53-.75,24.57,24.57,0,0,1-2.75-1.6,23,23,0,0,1-2.1-1.58c-.36.14-.72.27-1.08.38Z"/><path id="_Path_83" data-name="&lt;Path&gt;" class="cls-3" d="M106.6,141c-.12.24-.25.47-.39.71l.24.1a4.44,4.44,0,0,0,2.81,0,20.31,20.31,0,0,0,.42-2l-.43.28A7.28,7.28,0,0,1,106.6,141Z"/><path id="_Path_84" data-name="&lt;Path&gt;" class="cls-3" d="M87.84,128.53a7.21,7.21,0,0,1,3,1.2c.13.09.23.19.35.29a12.85,12.85,0,0,1,1.61-.64,5,5,0,0,0-1-1,5.26,5.26,0,0,0-2.92-.95A9.27,9.27,0,0,0,87.84,128.53Z"/><path id="_Path_85" data-name="&lt;Path&gt;" class="cls-3" d="M86.93,134.82a3.46,3.46,0,0,0-.7-.32c0,.28.06.56.11.81A2.75,2.75,0,0,0,86.93,134.82Z"/><path id="_Path_86" data-name="&lt;Path&gt;" class="cls-3" d="M90.58,151.92c-.64-.86-1.2-1.66-1.69-2.4-.46-.09-.92-.18-1.39-.29a11,11,0,0,0,1.79,3.65c.3.4.62.77.93,1.11.72.13,1.42.22,2.1.28C91.8,153.55,91.21,152.75,90.58,151.92Z"/><path id="_Path_87" data-name="&lt;Path&gt;" class="cls-3" d="M105.92,126.72c0,.46.07.94.08,1.44a20.25,20.25,0,0,1-.3,3.73l.19.19c.16.19.31.37.44.56,0,0,0,0,0-.07a8.3,8.3,0,0,0,1.21-4A9.64,9.64,0,0,0,105.92,126.72Z"/><path id="_Path_88" data-name="&lt;Path&gt;" class="cls-3" d="M96.34,127.46c.28.44.57.84.85,1.23a14.89,14.89,0,0,1,1.64.07,13.87,13.87,0,0,0-1.14-2.18,14.58,14.58,0,0,0-1.83-2.25c-.39.06-.78.14-1.17.23A30.26,30.26,0,0,0,96.34,127.46Z"/><path id="_Path_89" data-name="&lt;Path&gt;" class="cls-3" d="M101.05,125.73a14.42,14.42,0,0,1,1.39,3.92,10.33,10.33,0,0,1,1,.45,8.48,8.48,0,0,0-.89-5.08c0-.1-.12-.18-.17-.28a13.06,13.06,0,0,0-2.06-.46C100.54,124.74,100.8,125.22,101.05,125.73Z"/></g><g id="_Group_46" data-name="&lt;Group&gt;"><path id="_Path_90" data-name="&lt;Path&gt;" class="cls-3" d="M138.94,119.54l.21.74a9.58,9.58,0,0,1,.34,2.72,9.25,9.25,0,0,1,.62.88l.12-.18a4.78,4.78,0,0,0,.64-2.36A15,15,0,0,0,138.94,119.54Z"/><path id="_Path_91" data-name="&lt;Path&gt;" class="cls-3" d="M134.4,117.15c.6.91,1.16,1.75,1.57,2.41l.67,1.11a4.7,4.7,0,0,0,.1-1.34,6.73,6.73,0,0,0-.22-1.35,19,19,0,0,0-2.2-1A.57.57,0,0,0,134.4,117.15Z"/><path id="_Path_92" data-name="&lt;Path&gt;" class="cls-3" d="M143.07,125.29a5.51,5.51,0,0,1-1.17,3.14l-.24.35c0,.22,0,.44.05.67.21-.11.47-.26.75-.44a5.8,5.8,0,0,0,1.42-1.31,4.29,4.29,0,0,0,.41-.7,17.13,17.13,0,0,0-1.3-2.78A9.81,9.81,0,0,1,143.07,125.29Z"/><path id="_Path_93" data-name="&lt;Path&gt;" class="cls-3" d="M119.19,121.18a10.41,10.41,0,0,1,1.37.17,5.94,5.94,0,0,1,.82-.92,2.59,2.59,0,0,0-.48-.38,3.63,3.63,0,0,0-1.57-.47,5.53,5.53,0,0,0-.91,0,7,7,0,0,0-.81,1.39C118.09,121.05,118.63,121.13,119.19,121.18Z"/><path id="_Path_94" data-name="&lt;Path&gt;" class="cls-3" d="M111.24,151.81c.5.09,1,.17,1.51.24a7,7,0,0,0,.45-1.43,7.14,7.14,0,0,0-.21-3.56l-1.1-.28a14.65,14.65,0,0,1-.27,3.53C111.52,150.83,111.38,151.33,111.24,151.81Z"/><path id="_Path_95" data-name="&lt;Path&gt;" class="cls-3" d="M127.58,116l.24.46c.29.55.65,1.25,1.06,2a18.58,18.58,0,0,1,1.92.23,4.29,4.29,0,0,0-.31-.65,6,6,0,0,0-1.92-2Z"/><path id="_Path_96" data-name="&lt;Path&gt;" class="cls-3" d="M144.28,132.54a5.58,5.58,0,0,0,.95-1.63,17.2,17.2,0,0,0-.4-2.12s0,0,0,.06a13.34,13.34,0,0,1-1.75,2.65,13.71,13.71,0,0,1-1.73,1.7c-.09.4-.2.81-.33,1.21h0A5.52,5.52,0,0,0,144.28,132.54Z"/><path id="_Path_97" data-name="&lt;Path&gt;" class="cls-3" d="M118.38,152.33a5.37,5.37,0,0,0-.33-4.51c-.44,0-.88-.06-1.31-.11.11.63.22,1.38.34,2.17s.25,1.77.32,2.47Z"/><path id="_Path_98" data-name="&lt;Path&gt;" class="cls-3" d="M130.65,147.93c-.7-.58-1.33-1.13-1.86-1.64l-1,.36a6.58,6.58,0,0,0,1.88,2.52,6.25,6.25,0,0,0,.94.64c.55-.22,1.09-.44,1.62-.68C131.7,148.77,131.18,148.37,130.65,147.93Z"/><path id="_Path_99" data-name="&lt;Path&gt;" class="cls-3" d="M136.43,146.82c-.63-.32-1.45-.74-2.37-1.11s-1.59-.58-2.23-.77l-.84.42.14.18a6.24,6.24,0,0,0,2.33,1.66,5.82,5.82,0,0,0,1.73.4c.44-.25.86-.5,1.28-.76Z"/><path id="_Path_100" data-name="&lt;Path&gt;" class="cls-3" d="M118.43,130.07a5.6,5.6,0,0,0,1.13,1.3,3.93,3.93,0,0,0,1.68,0,3.17,3.17,0,0,0,.57-.18,11.24,11.24,0,0,1-1-1.38A15.23,15.23,0,0,1,118.43,130.07Z"/><path id="_Path_101" data-name="&lt;Path&gt;" class="cls-3" d="M144.53,138.19a14.49,14.49,0,0,1-3.53,1.14c-1,.19-2,.32-2.85.41-.32.41-.67.81-1,1.2a12.35,12.35,0,0,0,4.2,0,8.6,8.6,0,0,0,2.35-.83A12,12,0,0,0,144.53,138.19Z"/><path id="_Path_102" data-name="&lt;Path&gt;" class="cls-3" d="M118.7,125a4.93,4.93,0,0,0-1.77.61c0,.38.1.75.17,1.11a17.5,17.5,0,0,0,1.81-.12l.72-.12a9.25,9.25,0,0,1-.11-1.51A4.53,4.53,0,0,0,118.7,125Z"/><path id="_Path_103" data-name="&lt;Path&gt;" class="cls-3" d="M125.36,149.53a14.49,14.49,0,0,1-1.47-2l-1.16.15a6.09,6.09,0,0,0,1.42,2.87,7.23,7.23,0,0,0,.95.9q.86-.19,1.68-.42C126.33,150.6,125.84,150.08,125.36,149.53Z"/></g><g id="_Group_47" data-name="&lt;Group&gt;"><path id="_Path_104" data-name="&lt;Path&gt;" class="cls-9" d="M50.39,121.29a.71.71,0,0,0,0-1.41A.71.71,0,0,0,50.39,121.29Z"/><path id="_Path_105" data-name="&lt;Path&gt;" class="cls-9" d="M53.69,112.15c-.66-1.38-3-.4-2.49,1a5.79,5.79,0,0,1,.37,2.22A1.88,1.88,0,0,0,52,116.9a1.38,1.38,0,0,0,1.5.34C55.42,116.55,54.3,113.43,53.69,112.15Z"/><path id="_Path_106" data-name="&lt;Path&gt;" class="cls-9" d="M11.33,67.87a2,2,0,0,0,2-1.94,4.41,4.41,0,0,0-.61-2.09,3.29,3.29,0,0,0-1.9-1.29,1,1,0,0,0-.3,0A54.19,54.19,0,0,0,11.33,67.87Z"/><path id="_Path_107" data-name="&lt;Path&gt;" class="cls-9" d="M73.17,1.83a2,2,0,0,0,2,2,2,2,0,0,0,2-2A2.06,2.06,0,0,0,75.86,0H74.44A2,2,0,0,0,73.17,1.83Z"/><path id="_Path_108" data-name="&lt;Path&gt;" class="cls-9" d="M118.15,30.85a1.52,1.52,0,0,0,1.17-2.76,4.57,4.57,0,0,0-.85-.44,1.59,1.59,0,1,0-1.23,2.91A5.06,5.06,0,0,0,118.15,30.85Z"/><path id="_Path_109" data-name="&lt;Path&gt;" class="cls-9" d="M56.89,113.32a1.64,1.64,0,0,0,0,3.28A1.64,1.64,0,0,0,56.89,113.32Z"/><path id="_Path_110" data-name="&lt;Path&gt;" class="cls-9" d="M25,25.08l-.33,0a1.45,1.45,0,1,0,1,2.48l.23-.27a1.33,1.33,0,0,0,.27-1.43A1.28,1.28,0,0,0,25,25.08Z"/><path id="_Path_111" data-name="&lt;Path&gt;" class="cls-9" d="M69.89,4.8a4.87,4.87,0,0,0,0-2.57,4.6,4.6,0,0,0-1-2.12Q64,.29,59.64.79a5,5,0,0,0,0,2.3,7,7,0,0,0,.81,2.29,13.89,13.89,0,0,0,1,1.33A5.75,5.75,0,0,0,64,8.17a4.77,4.77,0,0,0,4.69-1.24A4.69,4.69,0,0,0,69.89,4.8Z"/><path id="_Path_112" data-name="&lt;Path&gt;" class="cls-9" d="M125.89,29a.85.85,0,0,0,0,1.69A.85.85,0,0,0,125.89,29Z"/><path id="_Path_113" data-name="&lt;Path&gt;" class="cls-9" d="M79.89,141.14a3.71,3.71,0,0,0-2-1.65,3.81,3.81,0,0,0-2.09.17,1.54,1.54,0,0,0-.9,2.14c1.8.19,3.56.42,5.25.69A1.73,1.73,0,0,0,79.89,141.14Z"/><path id="_Path_114" data-name="&lt;Path&gt;" class="cls-9" d="M22.08,23.91a4.92,4.92,0,0,0,2.7-2.12c.14-.26.31-.5.45-.75a6.33,6.33,0,0,0,.39-.89c.06-.15.29-.7,0,0a2.69,2.69,0,0,0-.21-2.93,2.55,2.55,0,0,0-2.09-1,39.1,39.1,0,0,0-4.55,5.82A2.77,2.77,0,0,0,22.08,23.91Z"/><path id="_Path_115" data-name="&lt;Path&gt;" class="cls-9" d="M15.53,70.75l.07-.32a1.54,1.54,0,0,0-.68-1.68l-.14-.07a1.37,1.37,0,0,0-2,.81l-.06.15a1.45,1.45,0,0,0,.38,1.45l.28.23A1.3,1.3,0,0,0,15.53,70.75Z"/><path id="_Path_116" data-name="&lt;Path&gt;" class="cls-9" d="M20,30.43a.28.28,0,0,0,0-.1S20,30.4,20,30.43Z"/><path id="_Path_117" data-name="&lt;Path&gt;" class="cls-9" d="M20,30.31a.11.11,0,0,1,0-.06,1.28,1.28,0,0,0,.08-.18,1.82,1.82,0,0,0,.1-1.24,1.48,1.48,0,0,0-1.38-1c-1.39,0-1.95,1.4-2,2.55a1.59,1.59,0,0,0,3.18.1S20,30.38,20,30.31Z"/><path id="_Path_118" data-name="&lt;Path&gt;" class="cls-9" d="M86.45,109.65a5.43,5.43,0,0,0-1,2.9,4.88,4.88,0,0,0,.61,3,2.2,2.2,0,0,0,4-.52,9.45,9.45,0,0,0,.27-1.93,22.86,22.86,0,0,0,.19-2.33,2.15,2.15,0,0,0-1.57-2.06A2.21,2.21,0,0,0,86.45,109.65Z"/><path id="_Path_119" data-name="&lt;Path&gt;" class="cls-9" d="M128.43,41.85a1.75,1.75,0,0,0,1.25-1.15,1.87,1.87,0,1,0-3.56-1.16C125.77,40.82,127.05,42.38,128.43,41.85Z"/><path id="_Path_120" data-name="&lt;Path&gt;" class="cls-9" d="M82.36,140.78a.78.78,0,0,0,.55-.72c0-.9-.88-1.2-1.57-1.42a.72.72,0,0,0-.8,1C81,140.27,81.51,141.09,82.36,140.78Z"/><path id="_Path_121" data-name="&lt;Path&gt;" class="cls-9" d="M76.34,102.6a1.91,1.91,0,0,0,2.32-.88,1.77,1.77,0,1,0-2.32.88Z"/><path id="_Compound_Path_" data-name="&lt;Compound Path&gt;" class="cls-9" d="M67.76,101.88a2.39,2.39,0,0,0,2.84-.36v0a1.08,1.08,0,0,0,.19,0,3.58,3.58,0,0,0,1.36-.79,2.58,2.58,0,0,0,.6-.91l.11-.23a2.77,2.77,0,0,0-2.37-4.13,3.46,3.46,0,0,0-2.93,1.24,3.28,3.28,0,0,0-.71,2h0a4.31,4.31,0,0,0-.19.61A2.42,2.42,0,0,0,67.76,101.88Zm1.71-.32h.07C69.2,101.54,68.61,101.44,69.47,101.56Z"/><path id="_Path_122" data-name="&lt;Path&gt;" class="cls-9" d="M92,114.29a.8.8,0,0,0,0,1.59A.8.8,0,0,0,92,114.29Z"/><path id="_Path_123" data-name="&lt;Path&gt;" class="cls-9" d="M83.45,143.06l.47.09A1.78,1.78,0,0,0,83.45,143.06Z"/><path id="_Path_124" data-name="&lt;Path&gt;" class="cls-9" d="M74.64,10.45a2.66,2.66,0,0,0,1.79-1.79,2.59,2.59,0,0,0-1.18-2.9l-.13-.06a2.47,2.47,0,0,0-3.32.87l-.06.11a2.61,2.61,0,0,0,.2,2.85A2.55,2.55,0,0,0,74.64,10.45Z"/><path id="_Path_125" data-name="&lt;Path&gt;" class="cls-9" d="M80.14,13h.13a1.55,1.55,0,0,0,1.45-1,1.58,1.58,0,0,0-.33-1.74,1.66,1.66,0,0,0-1.55-.41,1.61,1.61,0,0,0-1.17,1.54s0,.08,0,.12A1.52,1.52,0,0,0,80.14,13Z"/><path id="_Path_126" data-name="&lt;Path&gt;" class="cls-9" d="M132.59,32.41a4.14,4.14,0,0,0-.5-.3,2.35,2.35,0,0,0-2.58.18,2.32,2.32,0,0,0-.83,2.44,4,4,0,0,0,.63,1.36,7.09,7.09,0,0,0,.76.79,2.45,2.45,0,0,0,3.2.2,2.57,2.57,0,0,0,.79-1.08C133.61,34.79,133.12,33.6,132.59,32.41Z"/><path id="_Path_127" data-name="&lt;Path&gt;" class="cls-9" d="M124.39,32.1a1.74,1.74,0,0,0-1.73,1.73,1.77,1.77,0,0,0,1.73,1.74h.33a1.74,1.74,0,1,0,0-3.47Z"/><path id="_Path_128" data-name="&lt;Path&gt;" class="cls-9" d="M75.14,98.33A2,2,0,0,0,77,96.93a2.69,2.69,0,0,0,.12-.85,2,2,0,0,0-3.94,0,2.44,2.44,0,0,0,.13.85A2,2,0,0,0,75.14,98.33Z"/><path id="_Path_129" data-name="&lt;Path&gt;" class="cls-9" d="M119.78,23.15a1.46,1.46,0,0,0-1,1.78,5.17,5.17,0,0,0,.45,1.59A4.9,4.9,0,0,0,121,28a2.39,2.39,0,0,0,3.52-2.7,2.74,2.74,0,0,0-1.1-1.43,3.54,3.54,0,0,0-2.16-1A9.69,9.69,0,0,0,119.78,23.15Z"/><path id="_Path_130" data-name="&lt;Path&gt;" class="cls-9" d="M82,.5a4.22,4.22,0,0,0-.46.38l-.2.15a4.12,4.12,0,0,0-1,1.08c-.2.3-.41.6-.6.91a3.25,3.25,0,0,0-.44,1.37l0,.13a.13.13,0,0,0,0,.06c0,.12,0,.09,0,0A2.18,2.18,0,0,0,81.4,7.25a3.87,3.87,0,0,0,2-.42,9.94,9.94,0,0,0,1.06-.73,4.83,4.83,0,0,0,2-4.53A2.27,2.27,0,0,0,86,.67C84.79.52,83.54.39,82.26.29Z"/><path id="_Path_131" data-name="&lt;Path&gt;" class="cls-9" d="M87.58,6.64l-.15,0c-1.33.21-1.61,2.06-.77,2.9s2.7.57,2.9-.77l0-.15A1.66,1.66,0,0,0,87.58,6.64Z"/></g><g id="_Group_48" data-name="&lt;Group&gt;" class="cls-19"><path id="_Path_132" data-name="&lt;Path&gt;" class="cls-9" d="M52,19.4a2.56,2.56,0,0,1,.39.42A2.56,2.56,0,0,0,52,19.4Z"/><path id="_Path_133" data-name="&lt;Path&gt;" class="cls-9" d="M51.46,19a3.14,3.14,0,0,1,.5.38A3.14,3.14,0,0,0,51.46,19Z"/></g><g id="_Group_49" data-name="&lt;Group&gt;"><path id="_Compound_Path_2" data-name="&lt;Compound Path&gt;" class="cls-5" d="M91.61,22.52a2.42,2.42,0,0,1,1.32-2.1c3.32-1.25,5.31,1,8.31,1.95,2.14.66,5.3-.29,6.47,2.16a3.57,3.57,0,0,1-.71,4.1c-2.58,2.95-6.28,3-9.55,1.21-2.58-1.39-6-4.09-5.84-7.32Z"/><path id="_Path_134" data-name="&lt;Path&gt;" class="cls-9" d="M107.71,24.53c-1.17-2.45-4.33-1.5-6.47-2.16-3-.93-5-3.2-8.31-1.95a1.54,1.54,0,0,0-.49.3c.48,2.81,3.44,5.12,5.76,6.37,3.27,1.76,7,1.74,9.55-1.21a4.11,4.11,0,0,0,.27-.35A3.59,3.59,0,0,0,107.71,24.53Z"/></g><g id="_Group_50" data-name="&lt;Group&gt;"><path id="_Compound_Path_3" data-name="&lt;Compound Path&gt;" class="cls-5" d="M55.9,20.85c.12,3.24-3.25,5.94-5.83,7.32-3.28,1.76-7,1.74-9.55-1.21a3.57,3.57,0,0,1-.71-4.1c1.17-2.45,4.32-1.5,6.47-2.16,3-.93,5-3.2,8.31-1.95a2.41,2.41,0,0,1,1.31,2.1Z"/><path id="_Path_135" data-name="&lt;Path&gt;" class="cls-9" d="M39.81,22.86c1.17-2.45,4.32-1.5,6.47-2.16,3-.93,5-3.2,8.31-1.95a1.69,1.69,0,0,1,.49.31c-.48,2.8-3.44,5.11-5.76,6.36-3.28,1.76-7,1.74-9.55-1.21a3,3,0,0,1-.27-.35A3.59,3.59,0,0,1,39.81,22.86Z"/></g></g><path id="_Path_136" data-name="&lt;Path&gt;" class="cls-4" d="M40.89,97.83C28.08,93.06,18.85,83,16.65,80.44,22.77,91.1,32,98.06,38.31,100.83c10.36,4.55,22.66,21-5.59,31.68a14.66,14.66,0,0,1-12.46-1c11.55,8.53,29.93-5.05,32.88-9.47S55.64,103.33,40.89,97.83Z"/></g></g></g></g></g></svg>