<?xml version="1.0" encoding="utf-8"?>
<!-- Generator: Adobe Illustrator 22.1.0, SVG Export Plug-In . SVG Version: 6.00 Build 0)  -->
<svg version="1.1" id="Layer_1" xmlns="http://www.w3.org/2000/svg" xmlns:xlink="http://www.w3.org/1999/xlink" x="0px" y="0px"
	 viewBox="0 0 210.7 186.4" style="enable-background:new 0 0 210.7 186.4;" xml:space="preserve">
<style type="text/css">
	.st0{display:none;fill:#F39600;}
	.st1{fill:#472055;}
	.st2{opacity:0.5;fill:#6FD1DE;enable-background:new    ;}
	.st3{fill:#F52B5D;}
	.st4{fill:#B52054;}
	.st5{fill:#FFFFFF;}
	.st6{fill:#F39600;}
	.st7{fill:#0463AC;}
	.st8{opacity:0.2;fill:#FFFAD3;enable-background:new    ;}
	.st9{opacity:0.3;fill:#6FD1DE;enable-background:new    ;}
	.st10{opacity:0.5;}
	.st11{fill:#35A8E0;}
	.st12{opacity:0.3;}
	.st13{opacity:0.3;fill:#9F1645;enable-background:new    ;}
	.st14{opacity:0.3;fill:#8B2054;enable-background:new    ;}
	.st15{fill:#FF5F8D;}
</style>
<title>Asset13</title>
<g>
	<g id="Layer_2_1_">
		<g id="OBJECTS">
			<g id="_Group_">
				<path id="_Path_" class="st0" d="M210.7,177.8c0,4.8-47.2,8.7-105.3,8.7S0,182.6,0,177.8s47.2-8.7,105.3-8.7
					S210.7,173,210.7,177.8z"/>
				<g id="_Group_2">
					<g id="_Group_3">
						<path id="_Path_2" class="st1" d="M51.8,137.2c0,0-9.7,5.9-3.6,18.5c3.5,7.4,8.1,14.2,13.6,20.3c0,0-7.5-2.7-9.5,0.7
							c0,0,12.4,2.7,16.9,4.3c0,0-21.7-27.8-7.7-42C61.5,139,52.7,135.1,51.8,137.2z"/>
						<g id="_Group_4">
							<path id="_Path_3" class="st2" d="M63.4,172.1c-0.5-0.9-1-1.9-1.5-2.9h-0.2c-0.8-0.1-1.7-0.2-2.5-0.2c-0.7,0-1.5,0-2.2,0
								c-0.3,0-0.6,0.1-0.8,0.1l1.2,1.6c0.4,0.2,0.9,0.4,1.3,0.6c0.8,0.3,1.7,0.6,2.6,0.7C62,172.2,62.7,172.2,63.4,172.1z"/>
							<path id="_Path_4" class="st2" d="M52.4,148c1,0.2,1.9,0.5,2.8,0.9c0.6,0.3,1.1,0.6,1.7,0.9c0-0.8,0.1-1.6,0.3-2.4
								c-0.2-0.2-0.4-0.4-0.6-0.6c-1.1-0.9-2.3-1.5-3.7-1.7c-1.3-0.2-2.7-0.1-4,0.3c-0.9,0.2-1.8,0.6-2.6,1c-0.1,0.5-0.1,1-0.1,1.5
								h0.3C48.4,147.7,50.4,147.8,52.4,148z"/>
							<path id="_Path_5" class="st2" d="M51.2,154.7c1.3-0.3,3,0,4.1,0l1.7-0.1v-0.2c-0.4-0.4-0.8-0.8-1.3-1.1
								c-2.6-1.8-5.9-2-8.7-0.6c0.2,0.5,0.3,1,0.6,1.6C48.6,154.4,49.8,154.6,51.2,154.7z"/>
							<path id="_Path_6" class="st2" d="M55.5,161.4c1,0.1,2.1,0,3.1-0.2c-0.3-0.8-0.5-1.7-0.7-2.5c-0.7-0.1-1.4-0.1-2.2-0.2
								c-1.8-0.1-3.6-0.1-5.4,0.1l-0.6,0.1c0.3,0.5,0.6,1.1,0.9,1.6C52.1,160.9,53.8,161.3,55.5,161.4z"/>
							<path id="_Path_7" class="st2" d="M64.4,173.8c-1.2-0.2-2.4-0.3-3.6-0.3c-0.5,0-0.9,0-1.2,0.1c0.8,1,1.5,1.7,1.8,2.1
								c0.7,0.5,1.6,0.8,2.4,1c0.8,0.2,1.6,0.2,2.4,0.1C65.7,175.9,65.1,174.9,64.4,173.8z"/>
							<path id="_Path_8" class="st2" d="M58.5,166.9c0.7,0,1.5-0.1,2.2-0.2c-0.4-0.9-0.8-1.8-1.1-2.7h-1c-2.1-0.1-4.2-0.2-5.8-0.2
								h-0.2c0.4,0.7,0.9,1.4,1.3,2.1C55.4,166.5,56.9,166.8,58.5,166.9z"/>
						</g>
					</g>
					<g id="_Group_5">
						<path id="_Path_9" class="st1" d="M35.7,115c0,0-10-5.3-17.7,6.5c-4.5,6.8-8,14.3-10.4,22.1c0,0-1.5-7.8-5.5-7.8
							c0,0,4.1,12,5.1,16.7c0,0,12.6-32.9,32-28.3C39.1,124.3,37.9,114.7,35.7,115z"/>
						<g id="_Group_6">
							<path id="_Path_10" class="st2" d="M11.8,143c0.5-0.9,1.1-1.8,1.7-2.8c0-0.1,0-0.1-0.1-0.2c-0.3-0.8-0.7-1.6-1.1-2.3
								c-0.4-0.6-0.8-1.2-1.2-1.8c-0.2-0.3-0.4-0.5-0.5-0.7c-0.3,0.6-0.5,1.3-0.8,1.9c0.1,0.4,0.1,0.9,0.2,1.4
								c0.2,0.9,0.4,1.7,0.7,2.6C11,141.8,11.3,142.4,11.8,143z"/>
							<path id="_Path_11" class="st2" d="M26.7,121.1c0.4,0.9,0.6,1.9,0.7,2.9c0.1,0.6,0.1,1.3,0.1,1.9c0.7-0.4,1.5-0.7,2.2-1
								c0.1-0.3,0.1-0.5,0.2-0.8c0.2-1.4,0.1-2.8-0.5-4.1c-0.5-1.2-1.3-2.3-2.3-3.3c-0.7-0.7-1.4-1.2-2.3-1.7
								c-0.5,0.2-0.9,0.5-1.3,0.7c0,0.1,0.1,0.1,0.2,0.2C24.9,117.6,25.9,119.3,26.7,121.1z"/>
							<path id="_Path_12" class="st2" d="M20.4,123.6c1,0.9,1.5,2.6,2.1,3.5c0.4,0.7,0.8,1.2,1,1.4l0.2-0.1
								c0.1-0.5,0.2-1.1,0.3-1.6c0.2-3.1-1.3-6.1-4-7.8c-0.4,0.4-0.7,0.8-1.1,1.3C19.2,121.2,19.7,122.3,20.4,123.6z"/>
							<path id="_Path_13" class="st2" d="M16.8,130.7c0.5,0.9,1.1,1.8,1.8,2.6c0.6-0.7,1.2-1.3,1.8-1.9c-0.3-0.6-0.6-1.2-0.9-1.9
								c-0.8-1.6-1.8-3.1-2.8-4.6l-0.4-0.5c-0.3,0.5-0.6,1.1-0.9,1.6C15.5,127.5,16.1,129.1,16.8,130.7z"/>
							<path id="_Path_14" class="st2" d="M10.8,144.8c-0.4-1.2-1-2.2-1.6-3.3c-0.3-0.4-0.5-0.7-0.7-1c-0.4,1.2-0.7,2.1-0.9,2.6
								c0,1.7,0.5,3.4,1.5,4.7C9.6,146.9,10.2,145.9,10.8,144.8z"/>
							<path id="_Path_15" class="st2" d="M13.7,136.1c0.4,0.6,0.8,1.2,1.3,1.8c0.6-0.8,1.1-1.6,1.7-2.4c-0.2-0.3-0.4-0.6-0.5-0.9
								c-1-1.8-2.1-3.7-2.8-5l-0.1-0.1c-0.4,0.8-0.8,1.5-1.1,2.2C12.4,133.3,12.9,134.7,13.7,136.1z"/>
						</g>
					</g>
					<g id="_Group_7">
						<path id="_Path_16" class="st1" d="M142.6,134.4c0,0,11.2,2,10,16c-0.6,8.2-2.5,16.2-5.4,23.8c0,0,6-5.2,9.1-2.8
							c0,0-10.6,7-14.3,10.1c0,0,10.4-33.7-7.8-42C134.2,139.6,141.1,132.8,142.6,134.4z"/>
						<g id="_Group_8">
							<path id="_Path_17" class="st2" d="M144.2,171.2c0.1-1,0.3-2.1,0.4-3.2l0.1-0.1c0.7-0.4,1.5-0.8,2.3-1.1
								c0.7-0.3,1.4-0.5,2.1-0.7l0.8-0.2c-0.2,0.7-0.4,1.3-0.5,1.9c-0.3,0.3-0.6,0.7-1,1c-0.7,0.6-1.4,1.1-2.1,1.6
								C145.6,170.7,144.9,171,144.2,171.2z"/>
							<path id="_Path_18" class="st2" d="M146,144.7c-0.9,0.5-1.7,1.1-2.3,1.8c-0.4,0.5-0.8,0.9-1.2,1.4c-0.3-0.7-0.7-1.4-1.1-2.1
								c0.1-0.2,0.2-0.5,0.4-0.7c0.7-1.2,1.7-2.2,2.9-2.9c1.2-0.7,2.5-1.1,3.8-1.2c0.9-0.1,1.9-0.1,2.8,0c0.2,0.5,0.4,0.9,0.6,1.4
								l-0.3,0.1C149.6,143,147.8,143.8,146,144.7z"/>
							<path id="_Path_19" class="st2" d="M149.4,150.6c-1.3,0.1-2.8,1.1-3.9,1.5l-1.6,0.5l-0.1-0.2c0.2-0.5,0.5-1,0.8-1.4
								c1.8-2.6,4.9-4,8-3.7c0,0.5,0,1.1,0,1.7C151.8,149.4,150.7,150,149.4,150.6z"/>
							<path id="_Path_20" class="st2" d="M147.8,158.3c-0.9,0.4-1.9,0.8-2.9,0.9c0-0.9-0.1-1.8-0.2-2.6c0.6-0.3,1.2-0.6,1.9-1
								c1.6-0.7,3.3-1.4,5.1-1.9l0.6-0.2c-0.1,0.6-0.1,1.2-0.2,1.8C150.8,156.6,149.4,157.6,147.8,158.3z"/>
							<path id="_Path_21" class="st2" d="M143.9,173.1c1-0.6,2.1-1.2,3.3-1.6c0.4-0.2,0.8-0.3,1.1-0.4c-0.4,1.2-0.8,2.1-1,2.6
								c-0.5,0.7-1.2,1.3-1.9,1.8c-0.7,0.4-1.4,0.8-2.2,1C143.4,175.6,143.7,174.4,143.9,173.1z"/>
							<path id="_Path_22" class="st2" d="M147,164.5c-0.7,0.3-1.4,0.5-2.1,0.6c0-1,0.1-1.9,0.1-2.9l0.9-0.4
								c1.9-0.8,3.9-1.7,5.3-2.2l0.1-0.1c-0.2,0.8-0.3,1.6-0.5,2.4C149.8,163.1,148.4,163.9,147,164.5z"/>
						</g>
					</g>
					<g id="_Group_9">
						<path id="_Path_23" class="st1" d="M167,111.2c0,0,6.9-9,18.8-1.5c7,4.3,13.2,9.6,18.7,15.8c0,0-1.9-7.7,1.7-9.3
							c0,0,1.3,12.7,2.4,17.3c0,0-25.2-24.7-40.9-12.4C167.7,121,164.9,111.8,167,111.2z"/>
						<g id="_Group_10">
							<path id="_Path_24" class="st2" d="M200.4,126.6c-0.9-0.6-1.8-1.2-2.7-1.8c0-0.1,0-0.1,0-0.2c0-0.8,0-1.7,0.1-2.5
								c0.1-0.7,0.2-1.4,0.3-2.2c0.1-0.3,0.1-0.6,0.2-0.8c0.5,0.5,1,0.9,1.5,1.4c0.1,0.4,0.3,0.9,0.4,1.4c0.2,0.9,0.4,1.7,0.4,2.6
								C200.7,125.2,200.6,125.9,200.4,126.6z"/>
							<path id="_Path_25" class="st2" d="M177.7,112.9c0,1,0.2,2,0.6,2.9c0.2,0.6,0.4,1.2,0.7,1.7c-0.8-0.1-1.6-0.1-2.4,0
								c-0.2-0.2-0.3-0.4-0.5-0.7c-0.8-1.2-1.2-2.5-1.3-3.9c0-1.3,0.2-2.7,0.7-3.9c0.4-0.9,0.8-1.7,1.3-2.5c0.5,0,1,0,1.5,0.1
								c0,0.1,0,0.2,0,0.3C177.9,109,177.7,110.9,177.7,112.9z"/>
							<path id="_Path_26" class="st2" d="M184.5,112.5c-0.5,1.2-0.3,3-0.5,4.1c-0.1,0.8-0.2,1.4-0.3,1.7l-0.2-0.1
								c-0.4-0.4-0.7-0.9-0.9-1.4c-1.5-2.8-1.4-6.1,0.4-8.8c0.5,0.2,1,0.5,1.5,0.7C184.6,109.9,184.6,111.2,184.5,112.5z"/>
							<path id="_Path_27" class="st2" d="M190.7,117.5c0,1-0.2,2-0.5,3c-0.8-0.4-1.6-0.7-2.4-1c0-0.7,0-1.4,0-2.2
								c0.1-1.8,0.3-3.6,0.7-5.3c0-0.2,0.1-0.4,0.1-0.6c0.5,0.3,1,0.7,1.5,1C190.5,114.1,190.7,115.8,190.7,117.5z"/>
							<path id="_Path_28" class="st2" d="M202,127.8c-0.1-1.2-0.1-2.4,0.1-3.7c0.1-0.5,0.1-0.9,0.2-1.2c0.9,0.9,1.6,1.7,1.9,2
								c0.4,0.8,0.6,1.6,0.7,2.5c0.1,0.8,0,1.6-0.1,2.4C204,129.3,203.1,128.6,202,127.8z"/>
							<path id="_Path_29" class="st2" d="M195.8,121.2c-0.1,0.7-0.2,1.5-0.5,2.2c-0.8-0.5-1.7-1-2.6-1.4c0-0.3,0.1-0.6,0.1-1
								c0.2-2.1,0.3-4.2,0.5-5.8c0-0.1,0-0.1,0-0.2c0.7,0.5,1.3,1,1.9,1.6C195.7,118,195.9,119.6,195.8,121.2z"/>
						</g>
					</g>
					<g id="_Group_11">
						<path class="st3" d="M81.8,28.9C86.3,18.4,94.1,9.6,104,4c4.4-2.5,9.3-4.3,14.4-3.9s10.1,3.5,11.5,8.4s-0.8,9.9-3.1,14.4
							c3.8-1.3,8.3,2.2,8,6.2c2.8-3.2,8.6-2.9,11,0.6c11.9-2.1,24,6.4,28.2,17.6s1.4,24.3-5.1,34.4c3,1.1,4.5,4.3,3.6,7.3
							c3.9,0.1,6.9,3.4,6.7,7.3c-0.1,2.7-1.7,5.1-4.2,6.1c5.3,2.8,7.4,9.3,4.6,14.6c-2.3,4.5-7.5,6.8-12.4,5.5
							c0,2.2-0.2,4.5-1.5,6.3c-1.3,1.8-4,2.6-5.8,1.3c-0.2,4.2-4.3,7.4-8.4,7.8s-8.2-1.4-11.7-3.7c-1.2,5.9-8.1,9.8-13.8,8
							c-0.5,1.3-1.4,2.4-2.5,3.2c-4.7,3.7-10.6,6.2-16.5,5.5s-11.6-5.1-12.6-11c-1.5,0.9-3.3,1.5-5.1,1.7c-1.8,0-3.8-1-4.2-2.8
							c-1.8,1.8-3.7,3.8-6.2,4.3s-5.6-0.9-5.7-3.4c-5.6,5.2-14.1,5.4-21.7,5c-5.8-0.4-12-1.2-16.1-5.3c-5-5.2-4.5-13.5-3.5-20.7
							c-5.3,0.1-9.1-6.9-6.2-11.3c-2.9,0.4-5.6-1.6-6-4.5c-0.2-1.8,0.4-3.5,1.7-4.7c-4.9-2.8-9.7-7-10.2-12.7
							c-0.5-4.9,2.7-9.5,6.8-12.2c3.4-2.2,7.2-3.1,11-3.8c5-0.9,1.7-2.9,1.8-7.1c-0.1-1.2,0.2-2.3,0.7-3.4c1.6-2.8,5.8-0.6,3.1-5.8
							c-2.3-4.2-4.4-9.2-2.4-13.6c0.9-1.7,2.2-3.3,3.7-4.5c4.3-3.9,9.3-7.3,15-8.5s12.2,0.1,16.2,4.3c-1-1.1,2.3-5.3,3.2-5.9
							c1-0.9,2.5-1,3.6-0.1c0.9,0.9,0.8,2.3,0.7,3.5c0.6-1.7,2.2-2.9,3.9-3.7c0.5-0.3,1.1-0.5,1.7-0.5c1.3,0.1,2.1,1.5,2.6,2.7"/>
					</g>
					<g id="_Group_12">
						<g id="_Group_13">
							<path id="_Path_30" class="st4" d="M36.1,124.1c1.3,0.6,2.7,0.8,4.1,0.6c0.7-0.1,1.4-0.2,2.1-0.4l1-0.3l1.7-0.5
								c0,0.4,0,0.9,0,1.3c0,0.1,0,0.2,0,0.3v0.2c0,0.1,0,0.2,0,0.3c0.1,0.4,0.2,0.8,0.3,1.2c0.3,0.7,0.6,1.4,1.2,2
								c0.9,1,2,1.6,3.2,1.9c0.8,0.2,1.7,0.3,2.5,0.1c0.3,0,0.6-0.1,0.9-0.2c-0.3,0.1-0.6,0.2-0.9,0.3c-0.9,0.2-1.8,0.3-2.7,0.2
								c-1.4-0.2-2.7-0.9-3.7-1.8c-0.6-0.6-1.1-1.3-1.5-2.1c-0.2-0.4-0.4-0.9-0.5-1.3c0-0.2-0.1-0.5-0.1-0.7h-0.1l0,0h-0.1
								c-0.3,0.1-0.7,0.2-1,0.3c-0.7,0.2-1.5,0.4-2.2,0.5c-1.7,0.3-3.4,0-4.9-0.7c-1.5-0.7-2.7-2.1-3.1-3.7
								c-0.2-1.4-0.1-2.9,0.2-4.3c0.4-2.3,1-4.5,1.7-6.7c0.3-0.9,0.6-1.8,0.9-2.5c0.2-0.7,0.6-1.3,1.2-1.7c0.3-0.3,0.8-0.5,1.2-0.4
								c0.1,0.1,0.3,0.1,0.4,0.3c-0.1-0.1-0.2-0.2-0.4-0.2c-0.4,0-0.8,0.2-1,0.5c-0.4,0.5-0.7,1.1-0.9,1.7c-0.2,0.8-0.5,1.6-0.7,2.6
								c-0.5,2.2-0.9,4.5-1.2,6.7c-0.2,1.3-0.3,2.5-0.1,3.8C34.1,122.6,35,123.6,36.1,124.1z"/>
						</g>
						<g id="_Group_14">
							<path id="_Path_31" class="st4" d="M32.5,61.5c-0.5,1-0.9,2.1-1,3.2c-0.1,1,0.1,1.9,0.7,2.7c0.7,0.6,1.5,1.1,2.4,1.2
								c0.9,0.2,1.8,0.3,2.6,0.5c3.2,0.6,5.3,1,5.3,1s-2-0.1-5.3-0.3c-0.8-0.1-1.7-0.1-2.7-0.2c-1.2-0.1-2.3-0.6-3.1-1.3
								c-0.9-1-1.4-2.3-1.2-3.6c0.1-1.3,0.4-2.6,1-3.8c2-4,5.3-7.2,9.3-9.1c1.2-0.6,2.5-0.9,3.9-0.8c0.3,0.1,0.7,0.2,1,0.3l0.3,0.2
								l-0.3-0.1c-0.3-0.1-0.7-0.1-1-0.2c-1.3,0.1-2.5,0.5-3.5,1.2C37.2,54.6,34.4,57.7,32.5,61.5z"/>
						</g>
						<g id="_Group_15">
							<path id="_Path_32" class="st4" d="M76.4,31.2c2.1-2.1,4.8-3.5,7.7-4c2.4-0.3,4.8,0.2,6.9,1.4c1.4,0.8,2.5,1.9,3.3,3.3
								c0.2,0.4,0.3,0.8,0.5,1.2c0.1,0.3,0.1,0.4,0.1,0.4l-0.2-0.4c-0.2-0.4-0.4-0.8-0.7-1.1c-0.9-1.2-2-2.2-3.4-2.8
								c-2-0.9-4.2-1.2-6.4-0.8c-2.6,0.6-5,1.9-6.8,3.8c-0.8,0.8-1.6,1.6-2.2,2.5c-0.2,0.2-0.3,0.4-0.5,0.7l-0.2,0.3l-0.1,0.2
								l-0.2,0.3l-0.8,1.2c-0.3,0.4-0.5,0.9-0.8,1.3c-0.3-1-0.5-2.1-0.8-3c-0.1-0.5-0.3-0.9-0.5-1.3c-0.3-0.8-0.9-1.4-1.6-1.9
								c-0.6-0.4-1.4-0.4-2.1-0.2c-0.6,0.2-1.2,0.5-1.7,1c-0.7,0.7-1.3,1.5-1.9,2.4c-0.4,0.6-0.5,0.9-0.5,0.9s0.1-0.4,0.4-1
								c0.4-1,1-1.9,1.6-2.7c0.5-0.6,1.1-1,1.8-1.4c0.9-0.4,1.9-0.3,2.8,0.1c0.9,0.5,1.7,1.2,2.2,2.2c0.3,0.5,0.5,1,0.7,1.5l0.1,0.2
								v-0.1l0.1-0.2v0l0.1-0.2l0.2-0.4c0.2-0.3,0.3-0.5,0.5-0.7C74.7,32.9,75.5,32,76.4,31.2z"/>
						</g>
						<g id="_Group_16">
							<path id="_Path_33" class="st4" d="M123.3,33.5c0.1,1.1,0.1,2.2,0.1,3.3c0,0.3,0,0.5,0,0.8V38c0,0.1,0,0,0,0.1s0,0.1,0,0.1
								l0.3-0.1c0.5-0.3,0.9-0.5,1.4-0.7c0.9-0.3,1.9-0.6,2.8-0.7c0.9-0.2,1.7-0.3,2.6-0.3c0.8-0.1,1.6,0.1,2.3,0.4
								c0.6,0.3,1,0.8,1.3,1.4c0.2,0.4,0.2,0.9,0.2,1.4c-0.1,0.4-0.3,0.7-0.6,0.9c0.3-0.3,0.4-0.6,0.4-1c0-0.4-0.1-0.8-0.3-1.2
								c-0.3-0.5-0.7-0.8-1.2-1c-1.2-0.5-2.7-0.1-4.4,0.4c-0.9,0.2-1.8,0.5-2.6,0.9c-0.4,0.2-0.9,0.4-1.3,0.7
								c-0.9,0.7-1.7,1.5-2.4,2.4c0-0.9,0.1-1.9,0.1-2.8v-0.7v-1.2c0-1,0-2.1-0.1-3.2c0-1.4-0.2-2.7-0.5-4.1c-0.2-1.1-1-2.1-2.1-2.5
								c-1.1-0.3-2.2-0.4-3.3-0.1c-1,0.2-2,0.5-2.9,1c-1.3,0.7-2.5,1.6-3.5,2.7c-0.3,0.3-0.5,0.6-0.8,1l-0.3,0.4l0.2-0.4
								c0.2-0.4,0.4-0.7,0.6-1.1c0.9-1.3,2-2.4,3.3-3.2c0.9-0.6,1.9-1,3-1.3c1.3-0.4,2.6-0.4,3.9-0.1c0.7,0.2,1.4,0.6,1.9,1.2
								c0.5,0.6,0.9,1.3,1.1,2C123,30.5,123.2,32,123.3,33.5z"/>
						</g>
						<g id="_Group_17">
							<path id="_Path_34" class="st4" d="M168.6,84.7c-0.1,0.5-0.2,1-0.3,1.5l-0.1,0.4v0.2l0,0l0,0h0.1h0.3c0.1,0,0.3,0,0.4,0.1
								c0.5,0.1,1.1,0.3,1.6,0.5c0.9,0.4,1.7,1.1,2.4,1.9c1.1,1.4,1.6,3.1,1.3,4.8c-0.1,1.1-0.5,2.1-1.1,3c-0.2,0.2-0.3,0.5-0.5,0.7
								l-0.2,0.2l0.2-0.2c0.2-0.2,0.3-0.5,0.4-0.7c0.4-0.9,0.7-1.9,0.7-2.9c0-1.5-0.6-2.9-1.6-4c-0.6-0.6-1.3-1.1-2.1-1.4
								c-0.4-0.2-0.8-0.3-1.3-0.4h-0.3c-0.2,0-0.3,0-0.5,0c-0.5,0-1,0-1.5,0l0.3-1.4c0.1-0.3,0.1-0.6,0.2-0.9c0.1-0.5,0.2-1,0.3-1.5
								c0.5-2.2,0.5-4.4,0-6.6c-0.5-1.7-1.4-3.3-2.8-4.4c-1-0.8-2.1-1.2-3.4-1.3c-0.3,0-0.7,0.1-0.9,0.3c-0.1,0.1-0.1,0.2-0.2,0.3
								c0-0.1,0.1-0.2,0.1-0.3c0.2-0.3,0.6-0.4,0.9-0.5c1.3-0.1,2.7,0.2,3.8,0.9c1.7,1.1,3,2.7,3.6,4.6
								C169,79.8,169.1,82.3,168.6,84.7z"/>
						</g>
						<g id="_Group_18">
							<path id="_Path_35" class="st4" d="M165.3,118.6c0-0.6,0-1.2-0.2-1.8l-0.1-0.2v-0.1l0,0c0,0,0-0.1-0.1-0.1
								c-0.1-0.3-0.2-0.6-0.4-0.9s-0.3-0.6-0.4-0.9l-0.2-0.4l-0.1-0.3l1.4,0.6l0.3,0.1h0.3c0.1,0,0.2,0,0.4,0.1
								c0.2,0,0.5-0.1,0.7-0.2c0.5-0.2,0.9-0.5,1.1-0.9c0.5-0.7,0.8-1.6,0.7-2.5c0-0.6,0-1.3-0.1-1.9c-0.1-0.4-0.1-0.7-0.1-0.7
								l0.2,0.7c0.2,0.6,0.4,1.2,0.5,1.9c0.2,1,0,2.1-0.5,3.1c-0.3,0.6-0.8,1.1-1.4,1.4c-0.3,0.2-0.7,0.3-1.1,0.4h-0.1h-0.1
								c0,0,0,0.1,0,0.1l0,0l0.1,0.4c0.6,2.5,0,5.2-1.7,7.3c-1,1-2.2,1.9-3.5,2.5c-0.8,0.4-1.6,0.9-2.4,1.4
								c-0.3,0.2-0.6,0.4-0.8,0.6c0.2-0.3,0.4-0.6,0.7-0.8c0.7-0.7,1.4-1.3,2.2-1.8c1.1-0.7,2.1-1.6,2.9-2.7
								C164.7,121.6,165.2,120.1,165.3,118.6z"/>
						</g>
						<g id="_Group_19">
							<path id="_Path_36" class="st4" d="M113.7,10.9c0.6,0.7,1,1.5,1.3,2.3c0.1,0.2,0.1,0.4,0.2,0.6l0,0c0,0.1,0,0.1,0,0.2
								c0,0,0,0,0.1,0h0.1c0,0,0,0,0.2-0.1c0.4-0.4,0.8-0.8,1.3-1.1c0.4-0.3,1-0.5,1.5-0.5c0.4,0,0.9,0,1.3,0.1
								c0.6,0.2,1.1,0.6,1.4,1.1c0.1,0.2,0.2,0.4,0.2,0.6L121,14c-0.1-0.1-0.1-0.3-0.2-0.4c-0.4-0.4-0.8-0.7-1.4-0.7
								c-0.8-0.1-1.6,0.1-2.2,0.6c-0.4,0.3-0.7,0.7-1,1.1c-0.1,0.2-0.3,0.4-0.4,0.5l-0.5,0.7l-1,1.5c-0.1-0.7-0.3-1.3-0.4-2
								c-0.1-0.4-0.2-0.7-0.2-1.1c-0.1-0.2-0.1-0.3-0.2-0.5c-0.2-0.7-0.5-1.3-1-1.8c-0.5-0.5-1.1-0.8-1.8-0.9
								c-0.6,0-1.3,0.3-1.7,0.7c-1,0.8-2,1.8-2.8,2.8c-0.6,0.7-1.1,1.4-1.6,2.2l-0.5,0.9c0,0,0.1-0.4,0.3-1c0.3-0.9,0.7-1.7,1.2-2.5
								c0.7-1.2,1.6-2.3,2.6-3.3c0.3-0.3,0.7-0.6,1.1-0.8c0.5-0.3,1-0.4,1.6-0.4C112,9.6,113,10.1,113.7,10.9z"/>
						</g>
						<g id="_Group_20">
							<path id="_Path_37" class="st4" d="M100.3,138.9c1-0.1,2-0.3,2.9-0.8c0.4-0.2,0.8-0.5,1.1-0.8c0.1-0.1,0.2-0.2,0.2-0.2
								c0.1-0.1,0.2-0.2,0.2-0.3c0.1-0.2,0.2-0.4,0.3-0.6l0.3-0.6l1.4,1l0.8,0.6c0.5,0.3,1,0.6,1.6,0.9c0.9,0.4,1.9,0.5,2.8,0.3
								c0.6-0.1,1.2-0.4,1.7-0.9c0.1-0.1,0.2-0.3,0.3-0.4l0.1-0.1l-0.1,0.2c-0.1,0.2-0.2,0.3-0.3,0.5c-0.4,0.6-1,1-1.7,1.2
								c-1,0.4-2.2,0.4-3.3,0.1c-0.6-0.2-1.3-0.4-1.8-0.8c-0.3-0.2-0.6-0.3-0.9-0.5l-0.2-0.1l0,0h-0.1c0,0.1,0,0.1-0.1,0.2
								c0,0-0.1,0.2-0.2,0.3c-0.1,0.1-0.2,0.2-0.3,0.3c-0.4,0.4-0.9,0.8-1.4,1.1c-1.1,0.6-2.2,0.9-3.4,1c-2.2,0.1-4.4-0.3-6.5-1.2
								c-1.6-0.7-3.1-1.7-4.3-3c-0.5-0.5-0.9-1-1.3-1.6l-0.4-0.7c-0.1-0.2-0.2-0.3-0.4-0.5c-0.3-0.2-0.6-0.3-0.8-0.2
								s-0.1,0.3-0.2,0.3c0-0.1,0-0.2,0.1-0.3c0.3-0.1,0.7-0.1,1,0.1c0.2,0.1,0.4,0.3,0.6,0.4l0.5,0.6c0.4,0.5,0.9,0.9,1.4,1.3
								c1.3,1,2.7,1.8,4.2,2.4C96.3,138.7,98.3,139,100.3,138.9z"/>
						</g>
					</g>
					<g id="_Group_21">
						<path id="_Path_38" class="st5" d="M143.6,79.2c1.3,7.9-4.3,15.4-12.6,16.8s-16-4-17.3-11.9s4.3-15.4,12.6-16.8
							S142.3,71.3,143.6,79.2z"/>
						<path id="_Path_39" class="st6" d="M135.9,78.7c0.9,5.6-2.6,10.9-7.9,11.8s-10.3-3-11.3-8.6s2.6-10.9,7.9-11.8
							C129.9,69.2,134.9,73.1,135.9,78.7z"/>
						<path id="_Path_40" class="st1" d="M131.8,79.4c0.3,3.1-2,5.8-5,6.1c-3.1,0.3-5.8-2-6.1-5c-0.3-2.9,1.8-5.6,4.7-6.1
							C128.5,74,131.4,76.2,131.8,79.4z"/>
						<path id="_Path_41" class="st7" d="M122.2,78.4c0.1,1.2-0.8,2.2-1.9,2.3s-2.2-0.8-2.3-1.9c-0.1-1.1,0.7-2.1,1.8-2.3
							C120.9,76.4,122,77.2,122.2,78.4C122.2,78.4,122.2,78.4,122.2,78.4z"/>
						<path id="_Path_42" class="st7" d="M134.6,84.1c0.2,1.7-1.1,3.2-2.8,3.4s-3.2-1.1-3.4-2.8c-0.2-1.6,1-3.1,2.6-3.3
							C132.8,81.1,134.4,82.3,134.6,84.1C134.6,84,134.6,84,134.6,84.1z"/>
						<path id="_Path_43" class="st8" d="M139.7,71.5c-6.1-6-15.9-5.8-21.9,0.3c-1.6,1.7-2.9,3.7-3.6,5.9c2.4,4.6,8.1,7.4,14.1,6.4
							C135,83,139.9,77.5,139.7,71.5z"/>
						<path id="_Path_44" class="st9" d="M143.6,79.2c-1-5.8-5.4-10.4-11.2-11.7c2.4,1.3,4.5,3,6.3,5c11,12.3-5.1,27.2-16.2,21
							s-7.1-15.9-7.1-15.9c-0.4,0-0.8,0-1.2,0.1c-0.6,2.1-0.8,4.3-0.4,6.4c1.3,7.8,9,13.1,17.3,11.8S144.9,87.1,143.6,79.2z"/>
					</g>
					<g id="_Group_22">
						<path id="_Path_45" class="st5" d="M57.4,83c0,10.6,9,19.3,20.1,19.3S97.7,93.7,97.7,83s-9-19.3-20.1-19.3S57.4,72.4,57.4,83z
							"/>
						<path id="_Path_46" class="st6" d="M67.5,80.7c0,7.6,5.8,13.8,12.9,13.8s12.9-6.2,12.9-13.8s-5.8-13.8-12.9-13.8
							S67.5,73.1,67.5,80.7z"/>
						<path id="_Path_47" class="st1" d="M72.9,80.7c0.3,4.1,3.9,7.2,8,6.9c4.1-0.3,7.2-3.9,6.9-8c-0.3-3.9-3.5-6.9-7.5-6.9
							C76.1,72.8,72.8,76.4,72.9,80.7C72.9,80.7,72.9,80.7,72.9,80.7z"/>
						<path id="_Path_48" class="st7" d="M85.3,77.4c0.1,1.6,1.4,2.8,3,2.7c1.6-0.1,2.8-1.4,2.7-3c-0.1-1.5-1.3-2.7-2.9-2.7
							C86.6,74.5,85.3,75.8,85.3,77.4z"/>
						<path id="_Path_49" class="st7" d="M70.2,87.4c0.1,2.3,2.1,4,4.4,3.8c2.3-0.1,4-2.1,3.8-4.4c-0.1-2.2-1.9-3.8-4.1-3.8
							C72,83.1,70.1,85.1,70.2,87.4z"/>
						<path id="_Path_50" class="st8" d="M61,72.1C67.7,63,80.6,61,89.8,67.8c2.5,1.8,4.6,4.2,6,7c-2.2,6.6-9,11.4-17.1,11.4
							C69.5,86.2,62,80,61,72.1z"/>
						<path id="_Path_51" class="st9" d="M57.4,83c0.1-7.8,4.9-14.8,12.1-17.7c-2.8,2.2-5.2,4.8-7.1,7.9
							c-11.8,18.5,12.6,34.6,25.8,24s5.9-22.4,5.9-22.4c0.5-0.1,1.1-0.2,1.6-0.1c1.3,2.6,2,5.4,2,8.3c0,10.6-9,19.3-20.1,19.3
							S57.4,93.7,57.4,83z"/>
					</g>
					<path id="_Path_52" class="st1" d="M52,81.1c0,0-11.8,32.4,52.2,26.3s45.3-27,45.3-27s9.5,6.3,10.7,14.1s-11.6,36.8-64,35.2
						S32.3,103,52,81.1z"/>
					<path id="_Path_53" class="st6" d="M139.2,115.1c-4.2-2.1-9.1-2.3-13.8-2.1c-10.7,0.4-21.9,2.7-29.6,10.1
						c-6-8.5-17.7-10.5-26.1-4.6c-2.2,1.5-4.1,3.6-5.4,5.9c8.2,3,18.8,4.9,32,5.3c22.5,0.7,37.7-4.2,47.7-10.7
						C142.7,117.4,141,116,139.2,115.1z"/>
					<path id="_Compound_Path_" class="st5" d="M49,99.4c-2.8-1.6-4.2-5-3.2-8.1c0.8-2.5,2.9-4.4,5.4-5c-0.2,4.6,1.5,9,4.7,12.3
						C53.9,100.2,51.2,100.5,49,99.4z M60.4,111.4c4.5,2.2,10.6-0.2,12.7-4.7c-8.5-1.6-13.8-4.6-17-7.9
						C54.2,103.3,56,109.3,60.4,111.4L60.4,111.4z M121.5,109.6c4.6,2,10.1,2.8,14.5,0.4c3.7-2,6.1-6.7,5.1-10.6
						c-5.4,2.5-13.4,4.8-24.9,6.5C117.6,107.5,119.5,108.8,121.5,109.6L121.5,109.6z M156.6,98.4c3.1-4.4-0.4-12-3.8-15.3
						c-1-1-2.4-1.6-3.3-2.7c0,0,9.2,10.3-7.3,18.5c2.3,1.5,5,2.3,7.8,2.3C152.5,101.3,155.2,100.4,156.6,98.4z M96.9,114.5
						c4.1,2.6,9.6,3.3,13.8,1c3.3-1.9,5.1-5.6,4.8-9.3c-3.4,0.5-7.1,0.9-11.2,1.3c-13.3,1.3-23.3,0.9-30.8-0.5
						c0.3,0.1,2.2,5.3,2.8,6.1c5.5,7.2,15.1,3.5,16.3-4.7C92.7,110.8,94.7,113.1,96.9,114.5z M79.7,122.8c-3.2,0.2-6,1.8-8.6,3.7
						c5.3,1.3,10.7,2.2,16.1,2.7C87.4,125.5,83.4,122.6,79.7,122.8z M53.3,118.9c5,3.3,10.5,5.8,16.4,7.3c0.2-1.9,0.2-3.7,0.1-5.6
						c0-0.8-0.1-1.6-0.4-2.4c-0.6-1.1-1.5-1.9-2.7-2.4C62,113.8,56.6,115,53.3,118.9z M96.3,129.7c5.7,0.2,11.4,0,17.1-0.6
						c-1.7-2.9-3.7-5.6-6.6-7.2c-3.5-1.9-7.7-2-11.4-0.5c-3.5,1.5-6.4,4.3-8.2,7.7C90.1,129.4,93.1,129.6,96.3,129.7L96.3,129.7z
						 M53.2,118.8c0.8-3.5,0.3-7.2-1.6-10.3c-1.8-2.9-5-4.6-8.4-4.5C44,109.5,47.3,114.6,53.2,118.8z M115.3,128.8
						c7.2-0.9,14.2-2.8,20.8-5.6c-4.1-5-11.6-5.8-16.6-1.6C117.3,123.4,115.8,126,115.3,128.8z M156.7,98.5c-1,0.6-1.9,1.4-2.6,2.4
						c-1.5,2.6-0.3,5.6,0.2,8.6c3.9-5,5.6-9.8,5.9-13C159.1,97.1,157.9,97.7,156.7,98.5L156.7,98.5z M147.2,108.8
						c-2.9,0.2-5.5,1.8-6.9,4.3c-1.5,2.7-1.5,6-1.9,9.1c5.6-2.7,10.7-6.5,14.8-11.2C151.6,109.4,149.4,108.7,147.2,108.8
						L147.2,108.8z"/>
					<g id="_Group_23" class="st10">
						<path id="_Path_54" class="st11" d="M151.7,92.7c-0.4-0.3-0.8-0.5-0.9-0.4s0.3,0.4,0.4,0.8c0.1,0.2,0.3,0.5,0.4,0.7
							c0.1,0.2,0.3,0.5,0.4,0.7c0.2,0.4,0.3,0.8,0.4,0.8s0.3-0.4,0.2-0.9c0-0.3-0.1-0.7-0.2-1C152.2,93.2,152,92.9,151.7,92.7z"/>
						<path id="_Path_55" class="st11" d="M151,98.3c-0.1-0.6-0.2-1.3-0.4-1.9c-0.3-0.9-0.9-1.6-1-1.6s0.3,0.9,0.4,1.7
							c0.1,0.6,0.2,1.1,0.1,1.7c0,0.6,0,1.1-0.1,1.7c-0.1,0.4-0.2,0.9-0.3,1.3h0.4c0.2-0.4,0.4-0.7,0.5-1.1
							C150.9,99.5,151,98.9,151,98.3z"/>
						<path id="_Path_56" class="st11" d="M156.2,105.4c0.2-0.1-0.5-1.5-0.5-1.5s-1-1.1-1.2-1s0.5,1.5,0.5,1.5
							S156,105.5,156.2,105.4z"/>
						<path id="_Path_57" class="st11" d="M69.8,108.3c0,0-0.5,0.7-0.3,0.9s0.9-0.3,0.9-0.3s0.5-0.7,0.3-0.9S69.8,108.3,69.8,108.3z
							"/>
						<path id="_Path_58" class="st11" d="M97.8,122.8c-0.1,0.1,0.3,0.8,0.3,1.7c0,0.4-0.1,0.7-0.1,1.1c0,0.1-0.1,0.3-0.2,0.4
							c0,0.1-0.1,0.1-0.1,0.2c-0.1,0.1-0.4,0-0.7-0.2c-0.2-0.3-0.3-0.6-0.3-1c0-0.3,0-0.5-0.1-0.6s-0.2,0.2-0.2,0.5
							c-0.1,0.4-0.1,0.9,0.1,1.3c0.3,0.5,0.9,0.7,1.4,0.6c0.3-0.1,0.5-0.3,0.6-0.5c0.2-0.6,0.2-1.3,0.1-1.9
							C98.6,123.4,97.9,122.7,97.8,122.8z"/>
						<path id="_Path_59" class="st11" d="M49.7,107.8c0-0.1-0.8,0.1-1.4,0.6c-0.4,0.3-0.8,0.7-1.1,1.1c-0.2,0.5-0.4,1-0.5,1.5
							c-0.1,0.8,0.1,1.5,0.2,1.5s0.2-0.7,0.4-1.4c0.4-0.8,0.8-1.6,1.4-2.3C49.1,108.3,49.7,107.9,49.7,107.8z"/>
						<path id="_Path_60" class="st11" d="M126.4,122.7c-0.1-0.2-0.1-0.4-0.2-0.5s-0.3,0.2-0.4,0.5c0,0.2,0,0.4,0,0.6
							c0.1,0.2,0.2,0.4,0.4,0.5c0.2,0.2,0.5,0.3,0.6,0.2s0-0.3-0.1-0.5c0-0.1-0.1-0.3-0.1-0.4C126.5,122.9,126.4,122.8,126.4,122.7z
							"/>
						<path id="_Path_61" class="st11" d="M123,124.2c0.4,0.6,1,1,1.1,1s-0.3-0.6-0.5-1.3c-0.3-0.8-0.5-1.6-0.7-2.5
							c-0.1-0.7-0.1-1.3-0.2-1.3s-0.4,0.6-0.4,1.4c0,0.5,0,1,0.1,1.5C122.5,123.4,122.7,123.8,123,124.2z"/>
						<path id="_Path_62" class="st11" d="M66.7,117.5c0,0,0.2,1.3,0.4,1.3s0.4-1.3,0.4-1.3s-0.2-1.4-0.4-1.4S66.7,117.5,66.7,117.5
							z"/>
						<path id="_Path_63" class="st11" d="M147.3,110.1c-0.1,0.2,0.3,0.8,0.3,0.8s0.7,0.3,0.9,0.1s-0.3-0.8-0.3-0.8
							S147.4,109.9,147.3,110.1z"/>
						<path id="_Path_64" class="st11" d="M130.1,119.6c0.2,0.2,0.4,0.5,0.6,0.7c0.2,0.2,0.4,0.4,0.6,0.7c0.3,0.4,0.5,0.8,0.6,0.8
							s0.1-0.6-0.1-1.1c-0.1-0.3-0.3-0.6-0.4-0.9c-0.5-0.2-1-0.4-1.5-0.5C130,119.5,130,119.6,130.1,119.6z"/>
						<path id="_Path_65" class="st11" d="M136,104.2c-0.1-0.2-0.3-0.4-0.5-0.5c-0.2-0.1-0.5-0.2-0.7-0.2c-0.3,0-0.6,0.1-0.8,0.3
							c-0.4,0.3-0.6,0.8-0.5,1.3c0.1,0.4,0.3,0.5,0.4,0.5s-0.1-0.2,0-0.5c0-0.3,0.2-0.6,0.5-0.8c0.2-0.1,0.5-0.1,0.8,0.1
							c0.1,0.1,0.2,0.2,0.2,0.3c0.3,0.3,0.2,0.8-0.1,1.1c-0.3,0.2-0.6,0.4-0.9,0.4c-0.3,0-0.5-0.1-0.6,0s0.1,0.3,0.5,0.4
							c0.5,0.1,1,0.1,1.4-0.2c0.5-0.3,0.7-0.8,0.6-1.4C136.2,104.7,136.1,104.4,136,104.2z"/>
						<path id="_Path_66" class="st11" d="M129.8,109c0.4,0.1,0.8,0.1,1.3,0c0.6-0.1,1.1-0.4,1.1-0.6s-0.6,0-1.1,0
							c-0.3,0-0.7-0.1-1-0.2c-0.3,0-0.7-0.1-1-0.3c-0.5-0.2-1-0.5-1-0.4s0.2,0.6,0.8,1C129.1,108.7,129.5,108.9,129.8,109z"/>
						<path id="_Path_67" class="st11" d="M144.4,112.3c0.3,0.3,0.6,0.6,0.8,1c0.3,0.3,0.5,0.6,0.7,1c0.3,0.6,0.3,1.3,0.4,1.3
							s0.3-0.7,0.2-1.4c-0.1-0.5-0.3-1-0.6-1.4c-0.3-0.4-0.7-0.7-1.1-0.9c-0.7-0.4-1.4-0.4-1.4-0.3S144,111.9,144.4,112.3z"/>
						<path id="_Path_68" class="st11" d="M102.2,109.7c0.2,0.7,0.4,1.5,0.6,2.2c0.3,0.7,0.7,1.4,1.1,2c0.4,0.7,0.9,1.2,1.4,1.7
							c-0.2-0.7-0.5-1.4-0.9-2c-0.5-1-0.8-2-0.8-2s-0.5-1-0.8-2c-0.3-0.8-0.5-1.6-0.7-1.9h-0.2C101.9,108.3,102,109,102.2,109.7z"/>
						<path id="_Path_69" class="st11" d="M108.7,124.1c-0.2-0.5-0.3-1-0.4-1s-0.2,0.6-0.2,1.1c0,0.4,0,0.7,0.1,1.1
							c0.1,0.3,0.2,0.7,0.4,1c0.2,0.5,0.5,1,0.6,0.9s0-0.6-0.1-1.1l-0.1-1C109,125.2,108.9,124.6,108.7,124.1z"/>
						<path id="_Path_70" class="st11" d="M77.8,127.3c0.2,0,0.6-2.4,0.6-2.4s0-1.3-0.1-2L78,123c-0.2,0.7-0.4,1.8-0.4,1.8
							S77.6,127.3,77.8,127.3z"/>
						<path id="_Path_71" class="st11" d="M107.4,114.7c0.2,0.3,0.3,0.6,0.4,0.6s0.2-0.4,0.2-0.7c0-0.2,0-0.5-0.1-0.7
							c-0.1-0.2-0.2-0.4-0.4-0.6c-0.2-0.3-0.5-0.5-0.6-0.4s0,0.4,0.1,0.7s0.1,0.6,0.1,0.6L107.4,114.7z"/>
						<path id="_Path_72" class="st11" d="M103.6,122c0.5,0.7,0.8,1.4,1.1,2.1c0.3,0.7,0.6,1.5,0.8,2.3c0.3,1.2,0.3,2.4,0.4,2.4
							c0.3-0.8,0.4-1.7,0.2-2.5c-0.1-1.7-0.9-3.4-2.1-4.7c-0.3-0.4-0.7-0.7-1.1-1l-0.6-0.1C102.8,121,103.2,121.5,103.6,122z"/>
						<path id="_Path_73" class="st11" d="M80.8,123.5c0,0,0.2,1.1,0.4,1.1s0.4-1.1,0.4-1.1c0-0.2-0.1-0.4-0.2-0.6l-0.5-0.1
							C80.9,123.1,80.9,123.3,80.8,123.5z"/>
						<path id="_Path_74" class="st11" d="M63.1,122.7c0.6-0.5,0.9-1.1,1.1-1.9c0.2-0.7,0.3-1.5,0.2-2.2c-0.1-0.7-0.4-1.4-0.7-2.1
							c-0.5-1-1.4-1.6-1.5-1.5s0.6,0.9,1,1.8c0.4,1.2,0.6,2.6,0.5,3.9C63.5,121.7,63,122.7,63.1,122.7z"/>
						<path id="_Path_75" class="st11" d="M52.1,109.3c-0.4,0.4-0.7,0.9-1,1.4c0,0-0.6,1.8-0.3,1.8s1.2-1.5,1.2-1.5
							c0.2-0.5,0.3-0.9,0.4-1.4L52.1,109.3z"/>
						<path id="_Path_76" class="st11" d="M52.8,94.3c-0.2,0.1-0.3,0.2-0.5,0.3c-0.2,0.2-0.4,0.5-0.6,0.7c-0.1,0.3-0.2,0.6-0.2,0.9
							c0,0.5,0.1,0.9,0.2,0.9s0.2-0.4,0.4-0.8c0.1-0.2,0.3-0.5,0.4-0.7c0.1-0.3,0.2-0.5,0.3-0.7l0.2-0.3L52.8,94.3z"/>
						<path id="_Path_77" class="st11" d="M61.2,106.6c-0.1-0.6-0.2-1.2-0.2-1.8c0-0.6,0-1.2-0.1-1.9c-0.3,0.6-0.5,1.2-0.5,1.8
							c-0.1,0.6-0.1,1.3,0,1.9c0.1,0.6,0.3,1.3,0.6,1.8c0.4,0.9,0.9,1.7,1,1.6c-0.1-0.6-0.2-1.2-0.5-1.8
							C61.3,107.8,61.2,107.2,61.2,106.6z"/>
						<path id="_Path_78" class="st11" d="M84.7,114.1c0,0-0.1,1.7,0.2,1.7s0.7-1.6,0.7-1.6s0.1-1.7-0.2-1.7S84.7,114.1,84.7,114.1z
							"/>
						<path id="_Path_79" class="st11" d="M65.7,110.5l-0.4-0.9c-0.2-0.5-0.4-1-0.5-1s-0.1,0.6,0,1.1c0.1,0.4,0.1,0.7,0.2,1.1
							c0.2,0.3,0.3,0.7,0.5,1c0.1,0.1,0.2,0.3,0.3,0.4l0.4-0.1c0-0.2-0.1-0.4-0.2-0.6C65.8,111,65.7,110.5,65.7,110.5z"/>
						<path id="_Path_80" class="st11" d="M79.3,107.7c0,0.2-0.1,0.4-0.1,0.6c-0.1,0.7,0,1.5,0.1,2.2c0.2,0.7,0.6,1.4,1,2
							c0.6,0.9,1.5,1.6,1.6,1.5s-0.7-0.9-1.1-1.8c-0.3-0.6-0.5-1.3-0.7-1.9c-0.2-0.7-0.3-1.3-0.3-2c0-0.2,0-0.4,0-0.5L79.3,107.7z"
							/>
					</g>
					<g id="_Group_24" class="st12">
						<path id="_Path_81" class="st2" d="M55.5,101c2.7,2.6,5.8,4.7,9.2,6.2c2.2,0.9,4.4,1.6,6.7,2.1c0.7-0.7,1.3-1.5,1.7-2.4
							c-8.5-1.6-13.8-4.6-17-7.9C55.8,99.6,55.6,100.3,55.5,101z"/>
						<path id="_Path_82" class="st2" d="M115.4,106.1c-3.4,0.5-7.1,0.9-11.2,1.3c-13.3,1.3-23.3,0.9-30.8-0.5
							c0.5,0.9,1,1.9,1.4,2.9c5.7,0.8,11.4,1.1,17.1,1c0.3-0.8,0.6-1.6,0.7-2.5c0,0.9,0.3,1.7,0.7,2.5c7.4-0.2,14.7-0.8,22-1.9
							C115.5,108,115.6,107,115.4,106.1z"/>
						<path id="_Path_83" class="st2" d="M115.3,128.9c7.2-0.9,14.2-2.8,20.8-5.6c-0.5-0.6-1.1-1.1-1.7-1.6
							c-5.9,2.5-12.1,4.1-18.4,4.9C115.7,127.3,115.5,128,115.3,128.9z"/>
						<path id="_Path_84" class="st2" d="M71.1,126.5c5.3,1.3,10.7,2.2,16.1,2.7c0.1-0.9-0.1-1.8-0.5-2.6c-4.2-0.5-8.4-1.2-12.5-2.1
							C73.1,125.1,72,125.8,71.1,126.5z"/>
						<path id="_Path_85" class="st2" d="M152.9,83.1c-1-1-2.4-1.6-3.3-2.7c0,0,9.2,10.3-7.3,18.5c0.3,0.2,0.7,0.4,1,0.6
							c8.5-5.4,10.9-10.3,10.9-10.3s2.1,7.6,0,11.1c0.3-0.1,0.5-0.3,0.8-0.4c-0.3,0.3-0.6,0.6-0.8,1c-0.1,0.2-0.2,0.4-0.3,0.6
							c1.4-0.8,3.5-1.9,4.1-1.2c0.4,0.5-0.8,3.4-4,7.2c0.1,0.7,0.3,1.3,0.4,2c3.9-5,5.6-9.8,5.9-13c-1.2,0.6-2.4,1.2-3.6,1.9
							l-0.5,0.4c0.1-0.2,0.3-0.3,0.4-0.5C159.7,94,156.2,86.4,152.9,83.1z"/>
						<path id="_Path_86" class="st2" d="M49.8,90c0,0,0.1,4.6,4.5,9.7c0.6-0.2,1.1-0.5,1.6-0.9c-3.2-3.3-4.9-7.8-4.7-12.4
							c-2.5,0.6-4.6,2.5-5.4,5c-0.6,2.2-0.2,4.5,1.1,6.3C46.3,96.2,45.5,92.9,49.8,90z"/>
						<path id="_Path_87" class="st2" d="M153.3,110.9c-0.4-0.4-0.9-0.7-1.4-1c-3.9,3.9-8.3,7.2-13.2,9.7c-0.1,0.8-0.2,1.7-0.3,2.5
							C144.1,119.4,149.1,115.6,153.3,110.9z"/>
						<path id="_Path_88" class="st2" d="M113.3,129.1c-0.4-0.7-0.9-1.5-1.4-2.2c-7.7,0.7-15.5,0.6-23.3-0.1c-0.5,0.7-1,1.5-1.4,2.3
							c2.9,0.3,5.9,0.4,9,0.6C101.9,129.9,107.6,129.7,113.3,129.1z"/>
						<path id="_Path_89" class="st2" d="M69.8,123.5c-7.7-2-13.2-4.4-15.4-5.7c-0.4,0.4-0.8,0.7-1.1,1.1c5,3.3,10.5,5.8,16.4,7.3
							C69.7,125.2,69.8,124.3,69.8,123.5z"/>
						<path id="_Path_90" class="st2" d="M53.2,118.8c0.1-0.6,0.2-1.1,0.3-1.7c-3.6-2.8-6.8-8.6-8.5-13c-0.6-0.1-1.2-0.1-1.7-0.1
							C44,109.5,47.3,114.6,53.2,118.8z"/>
						<path id="_Path_91" class="st2" d="M118.9,108.2c6.7-1.2,12.6-2.8,16.5-4.6c2-0.9,4-1.9,5.9-3c0-0.4-0.1-0.8-0.2-1.2
							c-5.4,2.5-13.4,4.8-24.9,6.5C117,106.8,117.9,107.6,118.9,108.2z"/>
					</g>
					<path id="_Path_92" class="st3" d="M115,64.3c0,0-6.9,5.4-2.4,9s16,1.8,24.1-1.8s10.3-6.3,10.3-6.3S119.2,58.3,115,64.3z"/>
					<path id="_Path_93" class="st3" d="M103.5,70.4c0.3,0.3,4.8,13.1-15.3,10s-30.3-14-30.3-14S90.2,53.1,103.5,70.4z"/>
					<g id="_Group_25">
						<g id="_Group_26">
							<path id="_Path_94" class="st4" d="M131.2,73.4c6.7-1.7,13-4.8,18.5-9.1c0.5-0.4,1-0.8,1.5-1.2s0.9-0.8,1.3-1.1
								c0.8-0.7,1.4-1.3,2-1.9l1.6-1.7l-1.4,1.8c-0.5,0.6-1.1,1.3-1.8,2.1c-0.4,0.4-0.8,0.8-1.2,1.2c-0.4,0.5-0.9,0.9-1.4,1.3
								c-2.4,2.1-5,4-7.8,5.6c-3.4,1.9-7.1,3.4-10.9,4.4c-3.8,1-7.7,1.4-11.6,1.4c-1.8,0.1-3.5-0.2-5.2-0.8
								c-1.5-0.6-2.7-1.7-3.4-3.2c-0.3-0.6-0.4-1.3-0.3-2c0-0.6,0.2-1.2,0.5-1.7c0.4-0.8,1-1.6,1.6-2.3c0.4-0.5,0.9-0.8,1.5-0.9
								c0.2,0,0.4,0.1,0.5,0.3c-0.1-0.2-0.3-0.2-0.5-0.2c-0.6,0.1-1,0.5-1.3,1c-0.6,0.7-1,1.4-1.4,2.2c-0.5,1-0.4,2.2,0.1,3.3
								c0.7,1.2,1.8,2.1,3.1,2.5c1.6,0.5,3.2,0.7,4.8,0.5C123.8,74.8,127.5,74.3,131.2,73.4z"/>
						</g>
						<g id="_Group_27">
							<path id="_Path_95" class="st4" d="M82.9,79.3c4.6,1,9.1,1.6,13.1,1c1.9-0.2,3.6-0.9,5.2-2c2.5-1.8,3.5-5,2.3-7.9
								c-0.1-0.3-0.2-0.6-0.3-0.8c-0.1-0.3-0.2-0.5-0.4-0.7c-0.3-0.4-0.5-0.8-0.8-1.2s-0.5-0.6-0.7-0.9l-0.6-0.6l-0.5-0.5l0.6,0.4
								c0.2,0.1,0.4,0.3,0.7,0.5l0.8,0.8c0.3,0.3,0.6,0.7,0.9,1.2c0.2,0.2,0.3,0.5,0.4,0.7c0.2,0.3,0.3,0.5,0.4,0.8
								c0.6,1.3,0.8,2.8,0.6,4.3c-0.3,1.8-1.3,3.4-2.8,4.5c-1.6,1.3-3.5,2.1-5.6,2.4c-4.2,0.8-8.9,0.3-13.6-0.8
								c-2.3-0.5-4.6-1.2-6.8-1.9c-2.1-0.7-4.1-1.6-6-2.6c-3.3-1.7-6.4-3.9-9.1-6.3c-1.9-1.7-3.6-3.5-5.1-5.4
								c-0.5-0.7-0.9-1.3-1.2-1.6L54,62.2l0.5,0.5c0.3,0.3,0.7,0.9,1.3,1.5c1.7,1.8,3.5,3.5,5.4,5c2.8,2.3,5.9,4.2,9.2,5.8
								c1.9,0.9,3.9,1.7,5.9,2.4C78.3,78.2,80.6,78.8,82.9,79.3z"/>
						</g>
					</g>
					<g id="_Group_28">
						<path id="_Path_96" class="st13" d="M136.1,126.6c0.4,0.4,0.7,0.7,1.2,1C136.9,127.2,136.5,126.9,136.1,126.6z"/>
						<path id="_Path_97" class="st13" d="M168.1,79.7c-0.2-0.7-0.6-1.4-1.1-2C166.8,78.5,167.3,79.3,168.1,79.7z"/>
						<path id="_Path_98" class="st13" d="M27.3,69.9L26.8,70c1.1,0.4,2.2,0.8,3.3,1.2L27.3,69.9z"/>
						<path id="_Path_99" class="st13" d="M175,102.4c3.5-1.6,5.1-5.7,3.6-9.2c-1.1-2.5-3.5-4.1-6.1-4.2c1-3-0.6-6.2-3.6-7.3
							c0.4-0.6,0.7-1.1,1-1.7c-0.3,0.1-0.5,0.1-0.8,0.1c-0.4,0-0.8-0.1-1.1-0.3c0.9,2.5,0.3,5.4-1.5,7.3c6,1.7,7.8,10.9,3,14.8
							c1.7,2.1,1.4,5.2-0.7,6.9c-1.6,1.3-3.9,1.5-5.7,0.4c1.5,2.6,0.6,5.9-2,7.4c-0.3,0.2-0.7,0.4-1.1,0.5c0.8,2-0.1,4.3-2.1,5.2
							c-1.7,0.7-3.6,0.2-4.7-1.3c-0.8,5.5-5.8,9.4-11.3,8.6c-1.6-0.2-3.2-0.9-4.6-1.8c1.1,2,0.5,4.5-1.3,5.8c-2.3,1.5-5.4,1.1-8,0.2
							c-0.2,2.1-2.6,3.3-4.6,2.9s-3.6-2-4.9-3.6c0.8,3.1-2.4,6.1-5.6,6.3s-6.2-1.8-8.4-4c-0.3,3.1-3.8,5.1-6.8,4.8s-5.7-2.4-7.6-4.9
							l-1.4,2.2l-4.6-3.1c0.4,2.7-3.4,4.6-5.9,3.4s-3.8-3.9-4.6-6.6c-1.7,3-5.6,4.1-8.7,2.4c-1.9-1.1-3.2-3.1-3.2-5.4
							c-4,3.2-9.9,2.5-13.1-1.5c-1.7-2.1-2.4-4.9-1.8-7.6c-1.7,3-6.5,3-8.9,0.5s-2.5-6.6-1.2-9.8c-2.7,0.7-5.4-0.9-6.1-3.6
							c-0.5-2,0.3-4.1,2-5.3c-1.7,1-3.9,0.5-4.9-1.1c-1-1.7-0.5-3.9,1.1-4.9c0,0,0.1,0,0.1-0.1c-6.4-0.5-11.7-5.1-13-11.3
							c-0.6-3.4,0.1-6.8,1.9-9.8c-3.9,2.7-6.8,7.2-6.4,11.9c0.5,5.6,5.3,9.8,10.2,12.7c-2.2,2-2.4,5.3-0.4,7.5
							c1.2,1.3,2.9,2,4.7,1.7c-2.9,4.4,1,11.4,6.2,11.3c-1,7.2-1.6,15.5,3.5,20.7c4,4.2,10.3,5,16.1,5.3c7.6,0.5,16.1,0.3,21.7-5
							c0.2,2.5,3.3,4,5.7,3.4s4.4-2.5,6.2-4.3c0.4,1.8,2.4,2.8,4.2,2.8c1.8-0.2,3.5-0.7,5.1-1.7c1,5.9,6.6,10.3,12.6,11
							s11.9-1.8,16.6-5.5c1.2-0.8,2-1.9,2.5-3.2c5.7,1.8,12.5-2.1,13.7-8c3.5,2.3,7.6,4.1,11.7,3.7s8.2-3.6,8.4-7.8
							c1.8,1.3,4.5,0.4,5.8-1.3s1.6-4.1,1.5-6.3c5.8,1.6,11.8-1.8,13.4-7.6C181.9,110,179.6,104.7,175,102.4z"/>
					</g>
					<g id="_Group_29">
						<path id="_Path_100" class="st13" d="M145.8,29.6c-2.4-3.5-8.2-3.9-11-0.6c0.3-4-4.2-7.5-8-6.2c2.2-4.5,4.5-9.6,3.1-14.4
							s-6.5-8-11.5-8.4S108.4,1.5,104,4c-9.3,5.3-16.7,13.3-21.3,22.9c-0.5-1.2-1.3-2.6-2.5-2.7c-0.6,0-1.2,0.2-1.7,0.5
							c-1.6,0.8-3.3,1.9-3.9,3.7c0.1-1.2,0.2-2.6-0.7-3.5c-1.1-0.8-2.6-0.8-3.6,0.1c-0.8,0.6-4.2,4.8-3.2,5.9
							c-2.3-2.4-5.3-3.9-8.5-4.5l0.2,0c3.4,1.2,6.3,4.3,6.5,7.8c1-1.5,3.5-1.4,4.9-0.3s2,3,2.6,4.8c2-5.2,6.4-9,11.8-10.1
							c5.3-1,8.1,1.5,11.8,5.4c-1.9-3.6-2.6-6.7-6.6-7.2c3.3-6.4,7.7-12.1,13.2-16.7c2.7-2.3,6.4-4.4,9.5-2.7
							c2.9,1.6,3.2,5.6,3.2,8.9c1.2-1.9,2.9-3.8,5.1-3.9c3.2-0.1,5.1,4.2,4.1,7.2s-3.9,5.1-6.6,6.9c3.7,3.2,5.4,8.1,4.6,12.9
							c2.6-2.2,6.2-4,9.4-2.8c2.7,0.9,4,4.6,2.8,6.8c2.5-2.8,3.7-6.6,3.2-10.3c3.6,1,5.7,4.7,4.7,8.3c0,0.1,0,0.1-0.1,0.2
							c1.6-1.8,2.7-3.9,3.1-6.3c8.4,0.2,15.7,6.5,18.9,14.3s2.7,16.5,0.8,24.7c2.1,1.4,3.2,4,2.7,6.6l0.9-0.3
							c6.1-10,8.7-22.6,4.6-33.6C169.8,36,157.6,27.5,145.8,29.6z"/>
						<path id="_Path_101" class="st13" d="M133.8,44.9c0.5-0.3,0.9-0.7,1.2-1.2C134.6,44.1,134.2,44.5,133.8,44.9z"/>
						<path id="_Path_102" class="st13" d="M36.7,34.5l-0.5,0.4c-1.6,1.3-3,3-4,4.8c-2.2,4.6-0.2,10.2,2.6,14.5
							c1.3,2.1,0.3,0.6,0.4,0.9c2.4-2.3,5.2-4.2,8.1-5.8C37.4,49,34,41.6,36,36.1C36.2,35.6,36.4,35,36.7,34.5z"/>
						<path id="_Path_103" class="st13" d="M46.2,69.7C41.5,70.4,36,70.8,33,67.2c-2-2.4-2.1-5.9-0.9-8.9c-0.2,0.2-0.4,0.4-0.6,0.7
							c-0.5,1-0.7,2.2-0.6,3.4c-0.1,4.3,3.2,6.2-1.8,7.1l-1.7,0.3C32,75.2,41.7,75.3,46.2,69.7z"/>
					</g>
					<g id="_Group_30">
						<path id="_Path_104" class="st4" d="M124.1,61.3c-3.3,2.5-5.4,6.3-5.9,10.4c-0.2,0.9-0.1,1.8,0.3,2.6c0.6,1,1.6,1.8,2.8,2
							c3.8,0.9,7.6-0.9,11.2-2.3c3.9-1.5,7.9-2.5,11.6-4.4s7-4.9,8.1-9c0.2-0.7,0.2-1.4,0.1-2.1c-0.6-2-3.3-2.2-5.3-1.7
							c-2.4,0.6-4.6,1.9-6.4,3.6c1.2-1.8-0.5-4.4-2.6-4.7s-4.2,0.9-5.6,2.4s-2.5,3.4-4,5c0-1.5-2.2-2.1-3.5-1.3s-1.8,2.4-2.3,3.8"/>
						<path id="_Path_105" class="st4" d="M89.6,64.6c3.7,2.8,6.1,7,6.6,11.6c0.2,1,0.1,2.1-0.3,3c-0.7,1.2-1.8,2-3.2,2.2
							c-4.2,1.1-8.5-1-12.5-2.6c-4.3-1.7-8.9-2.8-13-4.9s-7.9-5.5-9-10c-0.2-0.8-0.3-1.6-0.1-2.3c0.7-2.2,3.7-2.5,5.9-1.9
							c2.7,0.7,5.1,2.1,7.1,4c-1.3-2,0.5-4.9,2.9-5.3s4.7,1,6.3,2.7s2.8,3.8,4.5,5.5c0-1.7,2.5-2.4,3.9-1.5s2,2.7,2.6,4.3"/>
						<path id="_Path_106" class="st14" d="M95.9,79.2c0.4-0.9,0.5-2,0.3-3c-0.6-4.6-3-8.8-6.6-11.6l1.1,3.3c-0.3-1.1-1.1-2.1-2-2.8
							c-1.4-0.9-3.9-0.2-3.9,1.5c-1.7-1.7-2.9-3.8-4.5-5.5c-0.9-0.9-1.9-1.7-3-2.2L76.4,59c3.4,2.4,6,5.8,7.2,9.8
							c0.6-1.7,2.8-2.4,4.6-2c1.7,0.6,3.3,1.8,4.4,3.2c0.9,1,1.8,2.3,1.7,3.6c-0.2,1.9-2.5,2.9-4.4,2.5s-3.3-1.7-4.7-3
							c0.6,1.1-0.4,2.5-1.6,2.8c-1.3,0.2-2.5-0.1-3.6-0.8c-2.7-1.5-5.2-3.7-6.2-6.6c0.2,1.3-1.3,2.3-2.6,2.2
							c-1.3-0.3-2.5-0.9-3.4-1.9l-4.6-4c-1-0.7-1.8-1.8-2.1-2.9c-0.2-1.2,0.9-2.7,2.1-2.3l0.8-0.1c-2.2-0.6-5.1-0.3-5.8,1.9
							c-0.2,0.8-0.2,1.6,0.1,2.3c1.2,4.5,4.9,7.9,9,10s8.7,3.3,13,4.9c4,1.6,8.3,3.7,12.5,2.6C94.1,81.1,95.2,80.3,95.9,79.2z"/>
						<path id="_Path_107" class="st14" d="M152.2,58.5c-0.4-1.1-1.4-1.8-2.6-1.8c-1,0.3-2,0.6-3,1c1.6,0.8,2,3,1.3,4.5
							c-0.9,1.6-2.3,2.7-3.9,3.3c-1.6,0.7-3.3,1.1-4.9,1.8l2.8-6.5c0.3-0.7,0.5-1.3,0.8-2c-0.7,0.5-1.4,1-2,1.6
							c1.2-1.8-0.5-4.4-2.6-4.7c-0.7-0.1-1.4-0.1-2.1,0.2c-1.3,1-2.4,2.3-3.3,3.6c1.2-1.9,4.6-1.3,5.7,0.7s0.6,4.5-0.4,6.6
							c-0.8,2-2.3,3.5-4.2,4.3c-2,0.7-4.5-0.3-5-2.3c-0.8,1.4-2,2.6-3.4,3.5c-1.5,0.7-3.5,0.6-4.4-0.8c-0.3-0.6-0.5-1.2-0.6-1.9
							c-0.2-1.7,0.1-3.4,0.7-5c-1.5,2.1-2.4,4.5-2.7,7.1c-0.2,0.9-0.1,1.8,0.3,2.6c0.6,1,1.6,1.8,2.8,2c3.8,0.9,7.6-0.9,11.2-2.3
							c3.9-1.5,7.9-2.5,11.6-4.4s7-4.9,8.1-9C152.4,59.9,152.4,59.2,152.2,58.5z"/>
					</g>
					<g id="_Group_31">
						<g id="_Group_32">
							<path id="_Path_108" class="st4" d="M133.7,94.9c3-1.5,5.7-3.6,7.9-6.3l2.8-3.3l-0.6,1c-0.4,0.7-0.9,1.6-1.7,2.7
								c-0.9,1.3-1.9,2.6-3,3.7c-1.4,1.5-3,2.6-4.9,3.4c-1.9,0.8-3.9,1.1-5.9,0.9c-1.6-0.2-3.2-0.5-4.7-0.9c-1-0.3-2-0.6-3-1
								c-0.7-0.3-1.1-0.4-1.1-0.4l1.2,0.2c0.7,0.1,1.8,0.3,3.1,0.5C126.4,95.8,130.1,96.5,133.7,94.9z"/>
						</g>
						<g id="_Group_33">
							<path id="_Path_109" class="st4" d="M71.5,99.8c4.3,1.1,8.8,1.7,13.2,1.6c1.7,0,3.1,0,4.1-0.1l1.5-0.1l-1.5,0.3
								c-1,0.2-2.4,0.4-4.1,0.6c-2,0.2-4.1,0.3-6.2,0.3c-2.5-0.1-5.1-0.4-7.5-1.1c-2.5-0.7-4.8-1.8-6.9-3.3
								c-1.7-1.2-3.2-2.7-4.5-4.3c-0.8-1.1-1.6-2.3-2.2-3.5c-0.2-0.3-0.3-0.7-0.5-1l-0.2-0.4l0.2,0.3c0.1,0.2,0.3,0.5,0.6,0.9
								c0.8,1.1,1.6,2.1,2.5,3.1c1.4,1.4,2.9,2.7,4.6,3.8C66.9,98.1,69.1,99.1,71.5,99.8z"/>
						</g>
					</g>
					<path id="_Compound_Path_2" class="st15" d="M112.2,35.9c-0.5-0.8-0.1-1.9,0.7-2.3c0.5-0.3,1.1-0.3,1.6,0
						c3.8,1.7,5.1,9.3,2.1,12c-0.6,0.5-1.5,0.5-2-0.1c-0.2-0.3-0.4-0.6-0.4-0.9c0-1.5,0.5-3,0.2-4.6C114.1,38.3,113,37.4,112.2,35.9
						L112.2,35.9z M124.8,46.9c0.2,0,0.5,0.1,0.7,0.1c0.3,0,0.6-0.1,0.9-0.2c0.7-0.2,1.1-0.8,1.2-1.5c0-0.7-0.5-1.3-1.2-1.5
						c-0.3-0.1-0.6-0.2-0.9-0.2c-0.2,0-0.5,0-0.7,0.1c-0.9,0-1.6,0.7-1.7,1.7C123.2,46.1,123.9,46.8,124.8,46.9z M138.3,40.4
						c-0.7,1.1-0.9,2.4-0.8,3.7c0,1.3,0.4,2.5,1.1,3.6c0.4,0.6,1.2,0.8,1.8,0.4c0.2-0.1,0.3-0.3,0.4-0.4c0.7-1.1,1-2.3,1.1-3.6
						c0.1-1.3-0.2-2.6-0.8-3.7c-0.5-0.7-1.5-1-2.2-0.5C138.6,40,138.5,40.2,138.3,40.4L138.3,40.4z M156.3,74.7
						c-0.1,1.3,1.1,2.1,1.9,2.9c0.9,0.8,1.5,1.8,1.8,2.9c0.4,1.7,0.5,5.4,3.2,4.6s2.3-4.8,1.4-6.8c-0.9-2.6-3.1-4.7-5.7-5.4
						c-0.7-0.2-1.5,0-2.1,0.5C156.5,73.7,156.3,74.2,156.3,74.7L156.3,74.7z M163.7,90.9c0.1,1.2,0.2,2.5,1.4,3.1
						c0.7,0.4,1.6,0.2,2.1-0.6c0.7-1,0.3-2-0.1-3c-0.2-0.8-1-1.3-1.9-1.2C164.4,89.3,163.7,90,163.7,90.9L163.7,90.9z M91.9,133.5
						c0.9,2.2,3,3.7,5.3,4.1c2.3,0.4,5,0.3,5.9-2.3c0.1-0.6-0.1-1.1-0.6-1.4c-1.4-0.9-2.8-0.5-4.4-0.7c-1.5-0.3-2.9-0.9-4.3-1.5
						c-0.8-0.2-1.7,0.3-1.9,1.1C91.8,133,91.8,133.3,91.9,133.5z M106.8,136.2c0.4,0.1,0.8,0.1,1.2,0.1c0.4-0.1,0.8-0.3,1.1-0.6
						c0.5-0.5,0.5-1.4,0-1.9c-0.3-0.3-0.7-0.6-1.1-0.6c-0.4,0-0.8,0-1.2,0.1c-0.8,0.2-1.3,1-1.1,1.9
						C105.8,135.6,106.2,136,106.8,136.2L106.8,136.2z M24.4,75.6c-0.4-1.3-1.7-2.1-3-1.7c-0.1,0-0.1,0-0.2,0.1
						c-1.9,0.7-2.6,3.3-2.9,5c-0.6,3.6,1.4,9.7,6.1,8.7c0.8-0.3,1.3-1.1,1.1-2c-0.1-0.2-0.2-0.5-0.4-0.6c-0.9-1.2-1.9-1.8-2.3-3.3
						c-0.2-0.8-0.2-1.6-0.2-2.4c0-0.5,0-1,0-1.5c0.4-0.8,0.1-1.2-0.9-1.1C22.6,77.9,25,77.2,24.4,75.6L24.4,75.6z M27,88
						c-0.6,0.8-0.7,1.9-0.3,2.8c0.4,1,1.5,1.5,2.5,1.2c0.8-0.1,0.9-1.1,0.6-1.6c0.1,0.2,0,0.1,0,0s0,0.3,0,0.1
						c-0.1-0.4-0.2-0.8-0.4-1.1c0.1,0.1,0.1,0.2,0,0c-0.2-0.4-0.2-0.5-0.1-0.3c0,0.1,0,0.1,0,0s0-0.2,0,0c0-0.1,0-0.4,0-0.1
						c0.1-0.7-0.3-1.4-1.1-1.5C27.8,87.3,27.3,87.6,27,88z M30.8,98.7l0.5,0.2c0.7,0.2,1.4-0.2,1.6-0.9c0.1-0.2,0.1-0.5,0-0.7
						l-0.2-0.5c-0.2-0.8-1.1-1.3-1.9-1.1c-0.8,0.2-1.3,1.1-1.1,1.9C29.9,98.1,30.3,98.5,30.8,98.7z M100,101.3
						c0.3-0.1,0.7-0.2,1-0.3c0.9-0.3,1.7-0.9,2.2-1.7c0.4-0.8,0.4-1.8,0-2.6c-0.5-0.8-1.3-1.2-2.2-1.2c-1.2,0-2.4,0.6-3,1.7
						c-0.3,0.7-0.5,1.4-0.6,2.2c0,1.1,0.9,2,2,2C99.6,101.4,99.8,101.4,100,101.3L100,101.3z M102.5,90.4c-0.1,1.1,1,2.8,2.3,2.3
						c0.6-0.3,0.9-0.9,0.8-1.5c0-0.3,0-0.6-0.1-0.8c-0.1-0.4-0.3-0.7-0.6-1c-0.4-0.4-1-0.5-1.6-0.3
						C102.9,89.3,102.5,89.8,102.5,90.4L102.5,90.4z M105.9,98.1c0,0.9,0.2,1.8,0.6,2.6c0.2,0.3,0.5,0.7,0.7,1
						c0.5,0.7,1.1,1.4,1.9,1.8c0.4,0.2,0.8,0.4,1.1,0.6c1.2,0.7,2.7,0.6,3.7-0.3c1.1-0.8,1.6-2.2,1.2-3.5c-0.1-0.4-0.2-0.7-0.3-1.1
						c-0.3-0.9-0.7-1.7-1.4-2.4c-0.8-1.1-1.9-1.8-3.1-2.2c-2-0.5-3.9,0.7-4.4,2.6C105.9,97.5,105.9,97.8,105.9,98.1L105.9,98.1z
						 M108,91.7l0.8,1.2c0.5,0.8,1.6,1,2.4,0.5c0.7-0.5,0.9-1.4,0.6-2.2L111,90c-0.5-0.8-1.5-1.1-2.3-0.6
						C107.9,89.9,107.6,90.9,108,91.7L108,91.7z M119.8,101.7c0.4,0.1,0.8,0.2,1.3,0.2c0.9,0,1.6-0.8,1.6-1.7c0-0.3-0.1-0.5-0.2-0.8
						c-0.2-0.3-0.5-0.6-0.8-0.9c-0.7-0.8-1.9-0.8-2.7,0c-0.8,0.7-0.8,1.9,0,2.7C119.1,101.4,119.4,101.6,119.8,101.7z M46.1,43.3
						c1.4-1.3,2-3.4,3.9-4.2s4.2-0.3,6.2-1.1c0.8-0.2,1.3-1.1,1.1-1.9c-1.1-4-6.6-4-9.6-2.5s-6.3,5.4-4.9,8.8
						c0.3,1.1,1.5,1.7,2.6,1.4C45.7,43.7,45.9,43.5,46.1,43.3L46.1,43.3z M64.4,39.7c0,0,0.4,0.3,0.2,0.1c0.1,0.1,0.2,0.2,0.3,0.3
						c0.3,0.3,0.6,0.5,0.9,0.7c-0.2-0.1-0.1,0,0,0.1s0.2,0.2,0.3,0.3c0.3,0.3-0.2-0.2,0.1,0.1c0.1,0.2,0.3,0.4,0.4,0.5
						c0.5,0.4,1.1,0.6,1.7,0.3c0.6-0.2,1-0.8,1-1.4c-0.1-1-0.6-2-1.3-2.7c-0.7-0.7-1.7-1.1-2.8-1.1c-0.7,0-1.3,0.5-1.5,1.1
						C63.5,38.6,63.8,39.3,64.4,39.7L64.4,39.7z M79.1,39.8c1.9-1.4,3.5-3.6,6.1-3.5c2.4,0.1,4.1,2.1,6.5,2.4c1.1,0.1,1.8-1,2-2
						c0.5-4.4-5.8-6.3-9.2-5.8c-3.6,0.5-8.1,3.5-7.6,7.6C77,39.5,78.1,40.5,79.1,39.8L79.1,39.8z M107.4,21.5
						C107.5,21.3,107.4,21.4,107.4,21.5c0-0.1,0-0.2-0.3,0s-0.6,0.2-0.4,0.1c0.1,0.3,1.1-0.3,1.3-0.5c0,0,0.3-0.2,0.1-0.1
						s0.1,0,0.2,0s0.9-0.1,0.3-0.1c1,0,1.9-0.8,2-1.8c0.2-1-0.4-2-1.4-2.3c-1.3-0.3-2.6,0.1-3.5,1c-0.2,0.2-0.4,0.4-0.6,0.7
						c-0.1,0.3-0.5,1.3-0.2,1.6c0-0.7,0-0.8-0.1-0.1c0,0.1,0,0.2,0,0.3c0,0.3,0,0.5,0.1,0.8c0.2,0.7,1,1.1,1.7,0.9
						C106.9,22,107.2,21.8,107.4,21.5L107.4,21.5z M115.2,22.2c0.4,0,0.8-0.1,1.2-0.3c0.2-0.2,0.4-0.3,0.7-0.3c0,0,0.4-0.1,0.2,0
						s0.3,0,0.3,0c0.3,0,0.5,0,0.8-0.1c-0.4,0,0.2,0,0.3,0c2.3,0,2.6-3.3,0.5-3.9c-1.2-0.4-2.6-0.2-3.6,0.5
						c-1.1,0.7-2.1,1.7-1.8,3.1C114,21.8,114.6,22.2,115.2,22.2L115.2,22.2z M43.1,52.1c-3.7,1.7-6.3,4.8-5.6,9.1
						c0.3,1.9,1.4,3.5,3,4.6c1.6,1,3.6,1,5.1,0c0.9-0.5,1.1-1.6,0.6-2.5c-0.1-0.1-0.2-0.2-0.3-0.3c-1-0.8-2.6-2.1-3.1-3.3
						c-0.7-2,0.6-4,1.8-5.5c0.5-0.5,0.5-1.4,0-1.9C44.3,51.9,43.6,51.8,43.1,52.1L43.1,52.1z M52.6,51.7c-0.5,1.5,0.3,3.5,2.1,3.5
						c0.5,0,0.9-0.4,0.9-0.9c0-0.1,0-0.1,0-0.2l-0.1-0.2c-0.1-0.2,0.1,0.4,0-0.1c0-0.2-0.1-0.4-0.2-0.6c-0.1-0.2,0,0,0-0.1
						c0-0.2-0.1-0.4-0.1-0.5c0-0.1,0-0.2,0,0c0-0.1,0-0.3,0-0.4c0-0.7-0.6-1.3-1.3-1.2C53.3,50.8,52.9,51.2,52.6,51.7L52.6,51.7z
						 M98.6,49.2c1.1,0.1,2.1,0.5,3,1.1c0.9,0.5,1.5,1.4,1.6,2.5c0.2,2.7-2.5,4.5-2.4,7c0,1,0.9,1.9,1.9,1.9
						c2.5,0.1,4.5-2.5,5.3-4.7c1-2.4,0.9-5.2-0.2-7.5c-1-2-2.8-3.5-5-4.1c-2-0.5-4.1,0.3-5.2,2c-0.4,0.4-0.4,1.1,0,1.6
						C97.9,49.2,98.3,49.3,98.6,49.2L98.6,49.2z M108,57.8c0.1,0.5,0.2,0.9,0.2,1.4c0,0.5,0,1.1,0.1,1.6c0,0.7,0.5,1.4,1.2,1.6
						c0.1,0,0.3,0.1,0.4,0.1c0.7,0,1.4-0.5,1.6-1.2c0.4-1.6,0.2-3.2-0.7-4.6c-0.4-0.7-1.4-0.9-2.1-0.5
						C108.1,56.5,107.9,57.2,108,57.8z"/>
				</g>
			</g>
		</g>
	</g>
</g>
</svg>
