<svg xmlns="http://www.w3.org/2000/svg" xmlns:xlink="http://www.w3.org/1999/xlink" viewBox="0 0 162.73 173.26"><defs><style>.cls-1{fill:#9b9b9b;opacity:0.44;}.cls-2{fill:#ffbf59;}.cls-11,.cls-3{fill:#590800;}.cls-3{opacity:0.13;}.cls-13,.cls-4,.cls-6{fill:#b70400;}.cls-5{fill:url(#åçûìßííûé_ãðàäèåíò_10);}.cls-6{opacity:0.5;}.cls-7{fill:url(#åçûìßííûé_ãðàäèåíò_10-2);}.cls-8{fill:#cae7ef;}.cls-15,.cls-19,.cls-9{fill:#fff;}.cls-10{fill:url(#åçûìßííûé_ãðàäèåíò_3);}.cls-12{fill:url(#åçûìßííûé_ãðàäèåíò_3-2);}.cls-13{opacity:0.88;}.cls-14{fill:#5b1800;}.cls-15{opacity:0.43;}.cls-16{fill:#8c130d;}.cls-17{fill:#ff5b57;}.cls-18{fill:#8c0000;}.cls-19{opacity:0.26;}</style><linearGradient id="åçûìßííûé_ãðàäèåíò_10" x1="13.04" y1="105.64" x2="36.09" y2="105.64" gradientUnits="userSpaceOnUse"><stop offset="0" stop-color="#f93d31"/><stop offset="1" stop-color="#b70400"/></linearGradient><linearGradient id="åçûìßííûé_ãðàäèåíò_10-2" x1="71.16" y1="16.29" x2="71.16" y2="165.43" xlink:href="#åçûìßííûé_ãðàäèåíò_10"/><linearGradient id="åçûìßííûé_ãðàäèåíò_3" x1="61.13" y1="62.47" x2="78.22" y2="62.47" gradientUnits="userSpaceOnUse"><stop offset="0" stop-color="#a43113"/><stop offset="1" stop-color="#6f160d"/></linearGradient><linearGradient id="åçûìßííûé_ãðàäèåíò_3-2" x1="84.15" y1="60.37" x2="93.66" y2="60.37" xlink:href="#åçûìßííûé_ãðàäèåíò_3"/></defs><title>Asset 1</title><g id="Layer_2" data-name="Layer 2"><g id="monsters"><path class="cls-1" d="M162.73,167.07c0,3.42-36.43,6.19-81.37,6.19S0,170.49,0,167.07s36.43-6.2,81.36-6.2S162.73,163.65,162.73,167.07Z"/><path class="cls-2" d="M33.32,28.6,28.6,40.76l-1.92,5a27.48,27.48,0,0,1-7.77-9.36C16.14,30.6,14.73,20,17.41,19.7h0c2.71-.24,4.53,4.53,8,6.83A14.67,14.67,0,0,0,33.32,28.6Z"/><path class="cls-3" d="M28.6,40.76l-1.92,5a27.48,27.48,0,0,1-7.77-9.36C16.14,30.6,14.73,20,17.41,19.7a50,50,0,0,0,5.37,13.87C25.82,38.75,27.77,40.3,28.6,40.76Z"/><path class="cls-2" d="M98.8,20c-.14.77-.26,1.44-.38,2-.22,1-.42,1.75-.58,2.28a5.39,5.39,0,0,1-.45,1.17L83.32,21.71s.52-.37,1.29-1A27.5,27.5,0,0,0,90,15.21,54.53,54.53,0,0,1,93.64,9.8a3.32,3.32,0,0,1,2.6-1.42C98.61,8.54,99.54,15.61,98.8,20Z"/><path class="cls-3" d="M98.42,22c-.22,1-.42,1.75-.58,2.28L84.61,20.71A27.5,27.5,0,0,0,90,15.21,54.53,54.53,0,0,1,93.64,9.8a56.16,56.16,0,0,0,1,6.17A9.23,9.23,0,0,0,98.42,22Z"/><path class="cls-4" d="M113.39,76s10,15.11,11.53,17.38,2.42,2.94,6.38,9c2.11,3.24,2.59,7.5,1.94,7.73s-1-2.35-1.64-3.65a13.53,13.53,0,0,0-1.51-2.33,20,20,0,0,1,1.21,4.77c.62,3.6.09,5-.56,5s-.53-2.21-1.15-4.77a20,20,0,0,0-1.53-4.27,11.31,11.31,0,0,1,.5,4.42c-.06,3.21-.12,4.5-.88,4.47s-.59-3.12-.83-4.38-.56-4-.56-4a35.67,35.67,0,0,1-.14,3.68c-.18,1.42-.27,3.21-.92,3.33s-.53-2.68-.64-4-.24-4.18-.5-4.38-1.62,1.17-1.86,2.29-.77,1.8-1.33,1.53.06-2.53.59-4,2.39-4.92,2.3-5.42-13.32-11.83-13.32-11.83S111,77.29,113.39,76Z"/><path class="cls-5" d="M33.16,86.71s-9.95,15.11-11.52,17.39-2.42,2.93-6.38,9c-2.11,3.23-2.6,7.49-1.95,7.73s1-2.36,1.65-3.65a13.84,13.84,0,0,1,1.5-2.33,19.77,19.77,0,0,0-1.2,4.77c-.62,3.59-.09,5,.56,4.95s.53-2.21,1.14-4.77a19.39,19.39,0,0,1,1.54-4.27,11.3,11.3,0,0,0-.51,4.41c.06,3.21.12,4.51.89,4.48s.59-3.12.82-4.39.56-4,.56-4a34,34,0,0,0,.15,3.68c.18,1.41.26,3.21.91,3.33s.53-2.68.65-4,.24-4.18.5-4.39,1.62,1.18,1.86,2.3.76,1.8,1.32,1.53-.06-2.53-.59-4-2.38-4.91-2.29-5.42S36.09,97.31,36.09,97.31,35.58,88,33.16,86.71Z"/><polygon class="cls-6" points="34.52 91.73 22.77 109.14 35.82 97.5 34.52 91.73"/><path class="cls-7" d="M115.29,97.73c-1.25,11.15-4.08,22.93-4.39,36.59s-9.59,25.77-9.59,25.77H97.49a2.49,2.49,0,0,0,0-.26c-.11-1.58-.88-9.84-5.26-16.08-4.86-6.91-26.87-1.73-31.89,3s-13,17.43-13,17.43l-2.34,1.26s-7.55-15.87-7.4-43.67S30.79,84.85,27.17,65.27C25.43,55.82,25,44.47,29.3,35.09a0,0,0,0,0,0,0s0,0,0,0c3.76-8.22,11.1-14.94,24.26-17.55a60.73,60.73,0,0,1,6.69-.92c.91-.08,1.85-.14,2.81-.18,23-1,38.66,8.13,41.36,11.4a1.88,1.88,0,0,1,.41.69c.54,2.36.32,5.85-1.58,12.76s-.38,18.81,7.31,29.85S116.55,86.58,115.29,97.73Z"/><path class="cls-4" d="M44.94,165.43c-.1,2.67,8.48,7.28,9.52,6.66s-4.1-4.15-4.1-4.15,7.72,1.95,8.87,1.39-5-3.48-5-3.48,8,0,8.33-1.27-15.27-.41-15.27-.41Z"/><path class="cls-4" d="M97.47,159.82s-12,.82-12.18,1.76,9.69.31,9.69.31-7.57,2.36-6.74,3.54,9.51-2.05,9.51-2.05-3.56,4.92-2,5.39,5.59-8.68,5.59-8.68Z"/><ellipse class="cls-4" cx="62.32" cy="62.47" rx="17.75" ry="23.89"/><path class="cls-4" d="M103,57.45a16.86,16.86,0,0,1-3.4,10.48,9.87,9.87,0,0,1-1,1.11c-.56,0-1.17.11-1.83.19l-.53.06h0c-.92.11-1.92.26-3,.45s-1.84.32-2.63.47l-1.39.25-.81.15a9.12,9.12,0,0,1-1.29-.87c-3.11-2.48-5.2-7.06-5.2-12.29,0-7.88,4.73-14.26,10.55-14.26S103,49.57,103,57.45Z"/><ellipse class="cls-8" cx="63.08" cy="62.47" rx="15.8" ry="21.52"/><ellipse class="cls-9" cx="63.83" cy="62.47" rx="15.05" ry="20.5"/><ellipse class="cls-10" cx="69.68" cy="62.47" rx="8.54" ry="11.64"/><path class="cls-11" d="M77.13,62.47c0,4.59-2.74,8.32-6.12,8.32s-6.11-3.73-6.11-8.32,2.74-8.33,6.11-8.33S77.13,57.87,77.13,62.47Z"/><circle class="cls-9" cx="61.61" cy="62.47" r="4.83"/><circle class="cls-9" cx="69.25" cy="64.76" r="1.77"/><path class="cls-8" d="M100.59,59.09a15.59,15.59,0,0,1-.27,2.86,13.15,13.15,0,0,1-2.47,5.82,9.34,9.34,0,0,1-1.43,1.51l-.52,0h0c-.9.12-1.88.26-2.93.44l-2.57.45L89,70.46a7.53,7.53,0,0,1-1.59-1C84.78,67.43,83,63.54,83,59.09c0-6.62,3.93-12,8.79-12,4.12,0,7.57,3.86,8.52,9.07A15.2,15.2,0,0,1,100.59,59.09Z"/><path class="cls-9" d="M100.59,59.09a15.59,15.59,0,0,1-.27,2.86,12.45,12.45,0,0,1-2.65,5.79,8.82,8.82,0,0,1-1.77,1.59h0c-.9.12-1.88.26-2.93.44l-2.57.45a6.94,6.94,0,0,1-2.2-1.12A11.53,11.53,0,0,1,84.11,62a14,14,0,0,1-.22-1.62h0c0-.43-.06-.87-.06-1.31,0-6.3,3.75-11.4,8.38-11.4,3.88,0,7.15,3.6,8.1,8.49A15.2,15.2,0,0,1,100.59,59.09Z"/><path class="cls-12" d="M93.66,60.37c0,3.57-2.13,6.47-4.75,6.47s-4.76-2.9-4.76-6.47,2.13-6.48,4.76-6.48S93.66,56.79,93.66,60.37Z"/><path class="cls-11" d="M91.42,60.64c0,2.56-1.52,4.63-3.4,4.63s-3.4-2.07-3.4-4.63S86.14,56,88,56,91.42,58.08,91.42,60.64Z"/><path class="cls-9" d="M88.42,60.91a2.3,2.3,0,1,1-2.29-2.29A2.3,2.3,0,0,1,88.42,60.91Z"/><path class="cls-9" d="M91.18,62.22a1,1,0,1,1-1-1A1,1,0,0,1,91.18,62.22Z"/><path class="cls-11" d="M83,46.9s1.62-5.48,8.79-10.78,11.94-6.54,11.94-6.54L100,33.64l6.24-1.47a14.56,14.56,0,0,1-3,7.17c-2.87,3.37-11.86,4.82-16.73,8.25a29,29,0,0,0-3.2,2.61l1.76-4.28Z"/><path class="cls-11" d="M78.5,50.61s-6.4-4.22-13.06-5.38-16.66-1.81-16.66-1.81l3.58-1.65a8,8,0,0,1-3.06-2.35c-1.33-1.5-3.41-6.48-3.41-6.48s7.16,1,15.24,2.24c11.26,1.76,16.74,8.42,16.74,8.42l-2.3-.12S78.18,47.9,78.5,50.61Z"/><path class="cls-13" d="M97.47,159.83c-.11-1.58-.88-9.84-5.26-16.08-4.86-6.91-26.87-1.73-31.89,3s-13,17.43-13,17.43l-2.34,1.26s-7.55-15.87-7.4-43.67S30.79,84.85,27.17,65.27C25.43,55.82,25,44.47,29.3,35.09,29,36.48,24.36,58.88,34.4,76c10.37,17.66,17.18,54.41,30.5,57.24s25.26-2.83,32.17,3.14S97.47,159.83,97.47,159.83Z"/><path class="cls-6" d="M78.22,110.57s4,6.89,10.53,7.27c12.25.7,15.42-16.39,15.42-16.39s-2.15,9.79-15.89,11.44C81.41,113.71,78.22,110.57,78.22,110.57Z"/><path class="cls-14" d="M78.22,110.57a22.66,22.66,0,0,0,16.41,0c9-3.42,10.22-12.84,10.22-12.84s-.47,10.34-9.19,14.36S78.22,110.57,78.22,110.57Z"/><path class="cls-15" d="M82,110.06s10.06.24,15.55-5.81a19.65,19.65,0,0,0,5-13.39,17.91,17.91,0,0,1-3.19,14.78C93.83,112.8,82,110.06,82,110.06Z"/><path class="cls-15" d="M103,88.62c.08,1-.08,1.84-.36,1.86s-.58-.78-.66-1.78.08-1.84.36-1.86S102.88,87.61,103,88.62Z"/><polygon class="cls-9" points="80.08 77.14 80.66 69.5 84.97 75.24 80.08 77.14"/><polygon class="cls-9" points="104.42 72.12 106.3 66.84 108.02 72.83 104.42 72.12"/><path class="cls-11" d="M60.32,89.48S74.06,77.62,89.22,74s19.32-.94,19.32-.94l-6.05,11.31,3-8.39s-3.5-1.82-15.83.46C77.54,78.69,60.32,89.48,60.32,89.48Z"/><path class="cls-16" d="M85.44,43.63a49.35,49.35,0,0,1,4.71-5.07,32.17,32.17,0,0,1,7.07-4.65l-1.37,2,5.86-1.33A50.38,50.38,0,0,0,93,39.08a28.14,28.14,0,0,0-6.48,6l.35-1.81Z"/><path class="cls-16" d="M74.69,41.77a23.52,23.52,0,0,0-9.79-5.1,84.82,84.82,0,0,0-14.44-2.4l5.42,2.24-6.6-1.18a33.48,33.48,0,0,0,10,3.58,85.49,85.49,0,0,1,14.89,5.24l-1.61-3Z"/><path class="cls-4" d="M102.33,68.92a41.14,41.14,0,0,0-4.12.18c-.54.05-1.15.1-1.79.18l-.52,0h0c-.9.12-1.88.26-2.93.44l-2.57.45L89,70.46l-.79.15C86,71,85,71.24,85,71.24a11.29,11.29,0,0,1,2-1.47l.46-.28.76-.39a16,16,0,0,1,4.3-1.39,16.94,16.94,0,0,1,5.18,0l.18,0c.48.07.94.16,1.36.25A21.68,21.68,0,0,1,102.33,68.92Z"/><path class="cls-17" d="M40,78.45c.52,3.62-.24,6.72-1.69,6.93s-3-2.56-3.56-6.18.24-6.72,1.69-6.93S39.47,74.83,40,78.45Z"/><path class="cls-18" d="M40.58,78.36c.51,3.62-.24,6.73-1.69,6.93s-3-2.56-3.56-6.17.24-6.73,1.69-6.93S40.06,74.74,40.58,78.36Z"/><path class="cls-17" d="M44.16,108.92c.34,2.4-.16,4.46-1.12,4.6s-2-1.7-2.36-4.1.16-4.46,1.12-4.59S43.82,106.52,44.16,108.92Z"/><path class="cls-18" d="M44.62,108.9c.34,2.4-.16,4.45-1.12,4.59s-2-1.7-2.36-4.09.16-4.46,1.12-4.6S44.28,106.5,44.62,108.9Z"/><path class="cls-17" d="M43.38,124.32c.35,2.4-.15,4.46-1.12,4.59s-2-1.69-2.36-4.09.16-4.46,1.12-4.6S43,121.92,43.38,124.32Z"/><path class="cls-18" d="M43.84,124.32c.34,2.4-.16,4.46-1.12,4.59s-2-1.69-2.36-4.09.15-4.46,1.11-4.6S43.49,121.92,43.84,124.32Z"/><path class="cls-17" d="M48.18,117.69c.23,1.62-.11,3-.75,3.1s-1.37-1.14-1.6-2.77.11-3,.76-3.1S48,116.07,48.18,117.69Z"/><path class="cls-18" d="M48.49,117.69c.23,1.62-.11,3-.76,3.1s-1.36-1.14-1.59-2.77.1-3,.75-3.1S48.26,116.07,48.49,117.69Z"/><path class="cls-17" d="M31.54,46.84c-.2,1.63-.9,2.88-1.55,2.8s-1-1.47-.81-3.09.9-2.88,1.55-2.8S31.74,45.22,31.54,46.84Z"/><path class="cls-18" d="M31.83,46.92c-.2,1.63-.89,2.88-1.54,2.8s-1-1.47-.81-3.09.89-2.88,1.54-2.8S32,45.3,31.83,46.92Z"/><path class="cls-17" d="M49.22,94c.77,5.39-.35,10-2.51,10.32s-4.53-3.81-5.31-9.2.36-10,2.52-10.32S48.45,88.57,49.22,94Z"/><path class="cls-18" d="M50.11,93.83c.78,5.39-.35,10-2.51,10.32s-4.53-3.81-5.3-9.2.35-10,2.51-10.32S49.34,88.44,50.11,93.83Z"/><path class="cls-17" d="M34.79,60.54c.54,3.8-.25,7.05-1.77,7.27s-3.19-2.69-3.73-6.48.24-7,1.76-7.26S34.24,56.75,34.79,60.54Z"/><path class="cls-18" d="M35.41,60.52c.55,3.79-.24,7-1.76,7.26s-3.19-2.68-3.74-6.47.25-7.05,1.77-7.27S34.87,56.73,35.41,60.52Z"/><path class="cls-19" d="M104.44,27.77a101.66,101.66,0,0,1-31.76,1.81c-18.13-2.06-27.37-9.14-27.37-9.14l8.27-3a60.73,60.73,0,0,1,6.69-.92c.91-.08,1.85-.14,2.81-.18C86,15.35,101.74,24.5,104.44,27.77Z"/><path class="cls-11" d="M40,22.7A44.39,44.39,0,0,1,55.37,6.63C68.62-1.15,77.13.07,77.13.07L67.24,5.13a40,40,0,0,1,6.74-1c6.54-.53,8.78.59,8.78.59l-14.9,5a32.09,32.09,0,0,1,6.83-.12c4.65.25,6.28,1,6.28,1l-10.9,5.85S48.87,17.57,40,22.7Z"/></g></g></svg>