<svg xmlns="http://www.w3.org/2000/svg" viewBox="0 0 157.2 180.3"><defs><style>.cls-1{fill:#e8dbda;}.cls-1,.cls-2,.cls-3,.cls-4,.cls-5,.cls-6,.cls-7,.cls-8{fill-rule:evenodd;}.cls-2{fill:#dc7c27;}.cls-3{fill:#bb6128;}.cls-4{fill:#67913d;}.cls-5{fill:#7ac144;}.cls-6{fill:#532a12;}.cls-7{fill:#fff;}.cls-8{fill:#e6e6e5;}</style></defs><title>Asset 3</title><g id="Layer_2" data-name="Layer 2"><g id="OBJECTS"><path class="cls-1" d="M78.6,169.84c31.63,0,57.28,2.34,57.28,5.22s-25.65,5.24-57.28,5.24S21.33,178,21.33,175.06,47,169.84,78.6,169.84Z"/><path class="cls-2" d="M52.85,159.75h5.54v15.13H44.76a95.38,95.38,0,0,1,8.09-6Z"/><polygon class="cls-3" points="55.86 159.75 58.39 159.75 58.39 170.83 58.39 172.52 58.39 174.88 55.86 174.88 55.86 159.75"/><path class="cls-3" d="M100,159.75H94.43v15.13h13.64a96.09,96.09,0,0,0-8.1-6Z"/><polygon class="cls-2" points="96.96 159.75 94.43 159.75 94.43 170.83 94.43 172.52 94.43 174.88 96.96 174.88 96.96 159.75"/><path class="cls-4" d="M14.88,34.45C.54,53.8,0,76.78,0,76.78c3.91-3,7.8-6,11.68-9.06-4.12,15-8,42.29,4.79,53.22,1.05-6.47,2.13-12.91,3.18-19.35C18,132,52.23,180.32,67.46,157.83c5.19-7.69,8.74-17,11.14-27.31,2.43,10.32,6,19.62,11.15,27.31,15.22,22.49,49.5-25.81,47.8-56.24,1,6.44,2.13,12.88,3.18,19.35,12.8-10.93,8.91-38.27,4.79-53.22,3.89,3,7.79,6,11.68,9.06,0,0-.54-23-14.86-42.33-34-45.93-93.44-45.93-127.46,0Z"/><path class="cls-5" d="M14.88,34.45C.54,53.8,0,76.78,0,76.78c3.91-3,7.8-6,11.68-9.06-4.12,15-8,42.29,4.79,53.22,1.05-6.47,2.13-12.91,3.18-19.35-.75,13.55,5.63,30.64,14.28,43.44,2.54.22,5.11.35,7.71.35a90.83,90.83,0,0,0,34.81-6.92c.8-2.58,1.51-5.22,2.15-7.94.5,2.12,1.05,4.23,1.65,6.27a93.81,93.81,0,0,0,53.67-85.13,94.71,94.71,0,0,0-5.71-32.5C93.59-10.73,44.58-5.64,14.88,34.45Z"/><path class="cls-6" d="M105.72,37.59a9.63,9.63,0,1,1-9.64,9.62,9.64,9.64,0,0,1,9.64-9.62Z"/><path class="cls-4" d="M115.26,48.67a8.33,8.33,0,0,1,.11,1.44,9.65,9.65,0,0,1-19.29,0,9.45,9.45,0,0,1,.11-1.44,9.65,9.65,0,0,0,19.07,0Z"/><path class="cls-7" d="M103.43,41.48a4,4,0,1,1-4,4,4,4,0,0,1,4-4Z"/><path class="cls-6" d="M52.89,37.59a9.63,9.63,0,1,1-9.64,9.62,9.64,9.64,0,0,1,9.64-9.62Z"/><path class="cls-4" d="M62.43,48.67a9.45,9.45,0,0,1,.11,1.44,9.65,9.65,0,0,1-19.29,0,9.45,9.45,0,0,1,.11-1.44,9.65,9.65,0,0,0,19.07,0Z"/><path class="cls-7" d="M50.58,41.48a4,4,0,1,1-4,4,4,4,0,0,1,4-4Z"/><path class="cls-4" d="M79.76,76.5c18.94,0,34.32.43,34.32,1s-15.38,1-34.32,1-34.3-.43-34.3-1,15.36-1,34.3-1Z"/><path class="cls-7" d="M59.32,77.47c0-1.14-4.77-13.57-4.77-13.57L49.7,77.47Z"/><path class="cls-8" d="M59.32,77.47c0-1.14-4.77-13.57-4.77-13.57l-.28,13.57Z"/><path class="cls-7" d="M110.84,77.47c0-1.14-4.79-13.57-4.79-13.57l-4.84,13.57Z"/><path class="cls-8" d="M110.84,77.47c0-1.14-4.79-13.57-4.79-13.57l-.28,13.57Z"/></g></g></svg>