<?xml version="1.0" encoding="utf-8"?>
<!-- Generator: Adobe Illustrator 22.1.0, SVG Export Plug-In . SVG Version: 6.00 Build 0)  -->
<svg version="1.1" id="Layer_1" xmlns="http://www.w3.org/2000/svg" xmlns:xlink="http://www.w3.org/1999/xlink" x="0px" y="0px"
	 viewBox="0 0 135.1 201.2" style="enable-background:new 0 0 135.1 201.2;" xml:space="preserve">
<style type="text/css">
	.st0{display:none;fill:#E8DBDA;}
	.st1{fill:#DC7C27;}
	.st2{fill:#BB6128;}
	.st3{fill:#F4EED6;}
	.st4{fill:#EED9A4;}
	.st5{fill:#EE4492;}
	.st6{fill:#F16E9C;}
	.st7{fill:#E44676;}
	.st8{fill:#FFFFFF;}
	.st9{fill:#676767;}
	.st10{fill:#7B1126;}
	.st11{fill:#2A2A2C;}
</style>
<title>Asset 1</title>
<g id="Layer_2_1_">
	<g id="OBJECTS">
		<path class="st0" d="M65.3,190.7c31.6,0,57.3,2.3,57.3,5.2s-25.6,5.2-57.3,5.2S8.1,198.9,8.1,196S33.7,190.8,65.3,190.7
			L65.3,190.7z"/>
		<path class="st1" d="M54.2,168.8h10.1v27.6H39.4c0,0,9.6-7.9,14.8-10.9V168.8z"/>
		<polygon class="st2" points="59.7,168.8 64.3,168.8 64.3,189 64.3,192.1 64.3,196.4 59.7,196.4 		"/>
		<path class="st2" d="M80.9,168.8H70.8v27.6h24.9c0,0-9.6-7.9-14.8-10.9L80.9,168.8z"/>
		<polygon class="st1" points="75.4,168.8 70.8,168.8 70.8,189 70.8,192.1 70.8,196.4 75.4,196.4 		"/>
		<polygon class="st3" points="38.8,41.3 49.3,34.3 12.1,0 25,49.7 		"/>
		<path class="st4" d="M38.8,41.3l10.5-7L37.5,23.4c-6.1,4.1-11.3,9.6-15.1,15.9L25,49.7L38.8,41.3z"/>
		<path class="st4" d="M35.9,22L34,20.2L20.4,32.1l0.7,2.8L35.9,22z M31.3,17.7l-1.5-1.5l-11.4,7.8l0.6,2.1L31.3,17.7z M26.6,13.4
			L25,11.9l-8.5,5.2l0.5,2.1L26.6,13.4z M21.3,8.5l-1.5-1.4L15,11.4l0.6,2.3L21.3,8.5z M17.7,5.2l-1.5-1.4l-2.7,1.9l0.6,2.1
			L17.7,5.2z"/>
		<polygon class="st3" points="96.3,41.3 85.8,34.3 123.1,0 110.1,49.7 		"/>
		<path class="st4" d="M96.3,41.3l-10.5-7l11.8-10.9c4.1,2.8,7.8,6.1,10.9,10c1.5,1.9,2.9,3.9,4.2,6l-2.7,10.4L96.3,41.3z"/>
		<path class="st4" d="M99.2,22l1.9-1.8l13.5,11.9l-0.7,2.8L99.2,22z M103.9,17.7l1.5-1.4l11.4,7.8l-0.6,2.1L103.9,17.7z
			 M108.5,13.4l1.6-1.4l8.5,5.2l-0.6,2L108.5,13.4z M113.9,8.5l1.5-1.4l4.7,4.3l-0.6,2.3L113.9,8.5z M117.4,5.3l1.6-1.4l2.7,1.8
			L121,7.8L117.4,5.3z"/>
		<path class="st5" d="M1.2,102.4c-16.9,95.4,149.6,95.4,132.7,0C114.2-8.9,20.9-8.9,1.2,102.4z"/>
		<path class="st6" d="M1.2,102.4c-2.9,16.7-0.3,30.5,6,41.3c12.3,10.8,28.2,16.8,44.6,16.8c39.7,0,71.8-34.9,71.8-77.9
			c0-7.7-1-15.5-3.1-22.9C87.7-6.3,17.9,7.9,1.2,102.4z"/>
		<path class="st7" d="M96,61.8c0.1,0.9,0.2,1.8,0.2,2.7c0,13-12.8,23.5-28.7,23.5S38.9,77.6,38.9,64.6c0-0.9,0.1-1.8,0.2-2.7H96z"
			/>
		<path class="st8" d="M94.8,63c0.1,0.8,0.2,1.6,0.2,2.4c0,11.6-12.2,21.1-27.4,21.1s-27.4-9.4-27.4-21.1c0-0.8,0.1-1.6,0.2-2.4
			L94.8,63z"/>
		<path class="st9" d="M88.3,63c0.1,0.6,0.1,1.2,0.2,1.9c0,8.9-9.4,16.1-20.9,16.1s-20.9-7.2-20.9-16.1c0-0.6,0-1.2,0.1-1.8L88.3,63
			z"/>
		<path class="st10" d="M82.5,63c0.1,0.4,0.1,0.9,0.1,1.3c0,6.4-6.7,11.6-15,11.6s-15.1-5.2-15.1-11.6c0-0.4,0-0.9,0.1-1.3H82.5z"/>
		<path class="st8" d="M62.2,63c2.2,0,4,1.8,4,4c0,2.2-1.8,4-4,4c-2.2,0-4-1.8-4-4c0-2.2,1.7-4,3.9-4C62.2,63,62.2,63,62.2,63z"/>
		<path class="st7" d="M67.6,94.6c28.1,0,50.8,0.5,50.8,1s-22.7,1-50.8,1s-50.8-0.4-50.8-1S39.5,94.6,67.6,94.6z"/>
		<polygon class="st7" points="21.5,95.6 27.9,116.4 33.1,101.4 43.1,125.3 55.6,102.1 63.1,116.2 69.7,102.1 79,118 88.6,101.2 
			96.3,121.6 106.8,99.4 114,107.1 117.4,95.9 		"/>
		<polygon class="st8" points="20.8,95.4 27.2,116.2 32.5,101.2 42.5,125.1 55,101.9 62.5,116 69.1,101.9 78.4,117.8 87.9,101 
			95.7,121.4 106.1,99.2 113.4,106.9 116.7,95.7 		"/>
		<path class="st7" d="M67.6,37.4c14.4,0,26.1,0.5,26.1,1.1S82,39.6,67.6,39.6s-26.1-0.5-26.1-1.1S53.1,37.4,67.6,37.4z"/>
		<path class="st7" d="M67.6,42.9c14.4,0,26.1,0.5,26.1,1.1S82,45,67.6,45s-26.1-0.5-26.1-1.1S53.1,42.9,67.6,42.9L67.6,42.9z"/>
		<polygon class="st9" points="20,136.8 19.8,165.4 11.6,170 13.1,183 14.9,172.1 17.9,184.8 19.9,172.1 21.9,179.8 24,171.1 
			22.7,165.3 24.6,137 		"/>
		<polygon class="st11" points="20.9,175.8 21.9,179.8 24,171.1 22.7,165.3 24.6,137 22,136.9 21,165.8 22,173.3 		"/>
		<path class="st5" d="M29.3,134.5L29.3,134.5c0,1.7-3,3-6.7,3s-6.7-1.4-6.7-3c0-0.1,0-0.2,0-0.4c2.3,0.7,4.8,1.1,7.2,1.1
			C25.2,135.2,27.3,134.9,29.3,134.5L29.3,134.5z"/>
		<polygon class="st11" points="115.1,136.8 115.3,165.4 123.5,170 122,183 120.2,172.1 117.3,184.8 115.2,172.1 113.2,179.8 
			111.1,171.1 112.4,165.3 110.5,137 		"/>
		<polygon class="st9" points="114.3,175.8 113.2,179.8 111.1,171.1 112.4,165.3 110.5,137 113.1,136.9 114.1,165.8 113.2,173.3 		
			"/>
		<path class="st6" d="M105.8,134.5L105.8,134.5c0,1.7,3,3,6.7,3s6.7-1.4,6.7-3c0-0.1,0-0.2,0-0.4c-2.3,0.7-4.8,1.1-7.2,1.1
			C109.9,135.2,107.9,134.9,105.8,134.5L105.8,134.5z"/>
		<path class="st7" d="M18,122.8c-0.9-2.6-3.7-4.1-6.3-3.2s-4.1,3.7-3.2,6.3c0.9,2.6,3.6,4,6.2,3.2C17.4,128.3,18.8,125.6,18,122.8
			C18,122.9,18,122.9,18,122.8z"/>
		<path class="st7" d="M26.5,124.7c-0.5-1.6-2.2-2.5-3.8-2c-1.6,0.5-2.5,2.2-2,3.8c0.5,1.6,2.2,2.4,3.7,2
			C26.1,128,27,126.3,26.5,124.7C26.5,124.7,26.5,124.7,26.5,124.7z"/>
		<path class="st7" d="M18.3,114.7c-0.4-1.1-1.6-1.7-2.7-1.4c-1.1,0.4-1.7,1.6-1.4,2.7l0,0c0.4,1.1,1.6,1.7,2.7,1.3
			C18,117,18.6,115.8,18.3,114.7L18.3,114.7z"/>
		<path class="st7" d="M77.7,138.8c-2.6,0.8-4.1,3.7-3.2,6.3c0.8,2.6,3.7,4.1,6.3,3.2c2.6-0.8,4-3.6,3.3-6.2
			c-0.8-2.7-3.6-4.2-6.2-3.4C77.8,138.8,77.7,138.8,77.7,138.8L77.7,138.8z"/>
		<path class="st7" d="M79.6,130.3c-1.6,0.5-2.5,2.2-2,3.7c0.5,1.6,2.2,2.5,3.7,2c1.6-0.5,2.5-2.1,2-3.7
			C82.9,130.7,81.3,129.8,79.6,130.3C79.6,130.3,79.6,130.3,79.6,130.3z"/>
		<path class="st7" d="M69.5,138.3c-1.1,0.3-1.8,1.5-1.4,2.7s1.5,1.8,2.7,1.4c1.1-0.3,1.8-1.5,1.4-2.7
			C71.9,138.6,70.7,138,69.5,138.3C69.5,138.3,69.5,138.3,69.5,138.3z"/>
		<path class="st7" d="M27.3,78.5c0.4-2.7-1.5-5.3-4.3-5.6s-5.3,1.5-5.6,4.3c-0.4,2.7,1.5,5.2,4.2,5.6
			C24.3,83.2,26.9,81.3,27.3,78.5z"/>
		<path class="st7" d="M34.1,83.9c0.2-1.6-0.9-3.2-2.5-3.4s-3.2,0.9-3.4,2.5c-0.2,1.6,0.9,3.1,2.5,3.4
			C32.3,86.7,33.9,85.6,34.1,83.9C34.1,83.9,34.1,83.9,34.1,83.9z"/>
		<path class="st7" d="M31.2,71.3c0.2-1.2-0.6-2.2-1.8-2.4c0,0,0,0,0,0c-1.2-0.2-2.3,0.6-2.5,1.8c-0.2,1.2,0.6,2.3,1.8,2.5
			C29.9,73.3,31,72.5,31.2,71.3C31.2,71.4,31.2,71.4,31.2,71.3z"/>
		<path class="st7" d="M108.3,71.6c-1.4-2.4-0.5-5.5,1.9-6.8c2.4-1.4,5.5-0.5,6.8,1.9c1.4,2.4,0.5,5.4-1.8,6.8
			C112.8,74.8,109.7,74,108.3,71.6C108.3,71.6,108.3,71.6,108.3,71.6z"/>
		<path class="st7" d="M103.9,79.1c-0.8-1.4-0.3-3.3,1.1-4.1s3.3-0.3,4.1,1.1s0.3,3.3-1.1,4.1c0,0,0,0,0,0
			C106.6,81,104.7,80.6,103.9,79.1C103.9,79.1,103.9,79.1,103.9,79.1L103.9,79.1z"/>
		<path class="st7" d="M102,66.3c-0.6-1-0.3-2.3,0.8-2.9c1-0.6,2.3-0.3,2.9,0.8c0.6,1,0.3,2.3-0.8,2.9c0,0,0,0,0,0
			C103.9,67.7,102.6,67.4,102,66.3z"/>
	</g>
</g>
</svg>
