<?xml version="1.0" encoding="utf-8"?>
<!-- Generator: Adobe Illustrator 22.1.0, SVG Export Plug-In . SVG Version: 6.00 Build 0)  -->
<svg version="1.1" id="Layer_1" xmlns="http://www.w3.org/2000/svg" xmlns:xlink="http://www.w3.org/1999/xlink" x="0px" y="0px"
	 viewBox="0 0 219.3 161.8" style="enable-background:new 0 0 219.3 161.8;" xml:space="preserve">
<style type="text/css">
	.st0{display:none;fill:#E8DBDA;}
	.st1{fill:#676767;}
	.st2{fill:#2A2A2C;}
	.st3{fill:#FAA727;}
	.st4{fill:#FDB835;}
	.st5{fill:#F05653;}
	.st6{fill:#FFFFFF;}
	.st7{fill:#F58670;}
	.st8{fill:#F4981E;}
	.st9{fill:#7B1126;}
	.st10{fill:#DC7C27;}
	.st11{fill:#BB6128;}
</style>
<title>Asset 2</title>
<g id="Layer_2_1_">
	<g id="OBJECTS">
		<path class="st0" d="M109.9,161.8c29.3,0,53.1-1.6,53.1-3.5s-23.8-3.5-53.1-3.5s-53.1,1.6-53.1,3.5S80.6,161.8,109.9,161.8z"/>
		<path class="st1" d="M143.4,26.4c0,0,22.7,12.1,34.5,7.3S182,0,182,0c24.4,1.8,45.8,25.7,34.1,59.4c0,0-1.9-14.6-14.1-23.1
			c7.8,23.5-4.4,34.7-4.4,34.7c-0.1-33.3-27.3-31.8-35.8-9.6L143.4,26.4z"/>
		<path class="st2" d="M193.9,2.8c18.7,7.4,31.9,28.6,22.2,56.7c0,0-1.9-14.6-14.1-23.1c7.9,23.5-4.4,34.7-4.4,34.7
			c-0.1-14.2-5-22.1-11.4-24.7l0,0l12.1,5l-5.5-30.8l18.1,13L193.9,2.8z"/>
		<path class="st2" d="M146.1,27.7c5.4,2.6,11.1,4.7,17,6.1l5,17.6c-2.7,2.9-4.9,6.3-6.3,10l-17.2-32.8L146.1,27.7z"/>
		<path class="st1" d="M75.9,26.4c0,0-22.7,12.1-34.5,7.3S37.4,0,37.4,0C13,1.8-8.4,25.7,3.3,59.4c0,0,2-14.6,14.1-23.1
			C9.5,59.8,21.8,71,21.8,71c0.1-33.3,27.3-31.8,35.8-9.6L75.9,26.4z"/>
		<path class="st2" d="M25.4,2.8C6.7,10.1-6.4,31.4,3.3,59.4c0,0,2-14.6,14.1-23.1C9.5,59.8,21.8,71,21.8,71
			c0-14.2,5-22.1,11.4-24.7l0,0l-12.1,5l5.5-30.8l-18.1,13L25.4,2.8z"/>
		<path class="st2" d="M73.3,27.7c-5.4,2.6-11.1,4.7-17,6.1l-5,17.6c2.7,2.9,4.9,6.3,6.3,10l17.2-32.8L73.3,27.7z"/>
		<path class="st3" d="M83.1,153.3l-6.3,3.4l12.7-0.1c0.2-7.6-0.4-12.9,4-19.1c6.3,1.5,26.9,1.5,33.2,0c4.3,6.2,3.8,11.5,4,19.1
			l12.7,0.1l-6.4-3.4C248.2-39-25.7-38.7,83.1,153.3L83.1,153.3z"/>
		<path class="st4" d="M154,32.5C120.1-19.5,15.9,15.6,74.7,137.3c45.6-1.9,81.6-39.4,81.6-85.1C156.3,45.6,155.5,38.9,154,32.5z"/>
		<path class="st5" d="M140.3,84.4c0.3,1.8,0.5,3.6,0.5,5.4c0,16.7-13.5,30.2-30.3,30.2c-16.7,0-30.2-13.5-30.2-30.2
			c0-1.8,0.2-3.6,0.5-5.3c8.9,0.8,18.8,1.3,29.3,1.3C121,85.7,131.1,85.2,140.3,84.4L140.3,84.4z"/>
		<path class="st6" d="M83.8,84.7c3.4,0.3,7,0.5,10.7,0.7c-0.3,4.5-2.6,8-5.3,8S84,89.6,83.8,84.7z M97.8,85.5
			c3.5,0.1,7,0.2,10.6,0.2c-0.4,4.3-2.6,7.7-5.3,7.7S98.2,89.9,97.8,85.5z M111.8,85.7c3.6,0,7.2-0.1,10.6-0.2
			c-0.4,4.5-2.6,7.9-5.3,7.9S112.2,90,111.8,85.7z M125.7,85.4c3.7-0.2,7.2-0.4,10.7-0.7c-0.2,4.8-2.5,8.7-5.4,8.7
			S126,89.9,125.7,85.4L125.7,85.4z"/>
		<path class="st7" d="M127.4,114.9c-10.2,6.8-23.5,6.8-33.6,0c3.7-3.8,9.9-6.4,16.8-6.4S123.7,111.1,127.4,114.9z"/>
		<path class="st8" d="M70.1,62.5c2.3,0,4.2,1.9,4.2,4.2c0,2.3-1.9,4.2-4.2,4.2c-2.3,0-4.2-1.9-4.2-4.2
			C65.8,64.4,67.7,62.5,70.1,62.5C70.1,62.5,70.1,62.5,70.1,62.5z"/>
		<path class="st8" d="M66.5,56.2c1.4,0,2.6,1.1,2.6,2.5s-1.1,2.6-2.5,2.6S64,60.2,64,58.8c0,0,0,0,0-0.1
			C64,57.3,65.1,56.2,66.5,56.2L66.5,56.2z"/>
		<path class="st8" d="M76.5,60.2c1,0,1.8,0.8,1.8,1.8c0,1-0.8,1.8-1.8,1.8c-1,0-1.8-0.8-1.8-1.8C74.7,61,75.5,60.2,76.5,60.2
			C76.5,60.2,76.5,60.2,76.5,60.2L76.5,60.2z"/>
		<path class="st8" d="M80.2,120.2c2.3,0,4.2,1.8,4.3,4.2c0,2.3-1.8,4.2-4.2,4.3c-2.3,0-4.2-1.8-4.3-4.2c0,0,0,0,0,0
			C76,122.1,77.9,120.2,80.2,120.2C80.2,120.2,80.2,120.2,80.2,120.2L80.2,120.2z"/>
		<path class="st8" d="M76.6,113.9c1.4,0,2.5,1.1,2.5,2.5c0,1.4-1.1,2.5-2.5,2.5c-1.4,0-2.5-1.1-2.5-2.5c0,0,0,0,0,0
			C74.1,115,75.2,113.9,76.6,113.9z"/>
		<path class="st8" d="M86.6,117.9c1,0,1.8,0.8,1.8,1.8c0,1-0.8,1.8-1.8,1.8c-1,0-1.8-0.8-1.8-1.8C84.8,118.7,85.6,117.9,86.6,117.9
			C86.6,117.9,86.6,117.9,86.6,117.9z"/>
		<path class="st4" d="M137,127.8c1.7-1.6,4.3-1.6,6,0c1.6,1.7,1.6,4.3,0,6c-1.6,1.6-4.3,1.6-5.9,0
			C135.3,132.1,135.3,129.5,137,127.8C137,127.8,137,127.8,137,127.8z"/>
		<path class="st4" d="M130,125.9c1-1,2.6-1,3.6,0c1,1,1,2.6,0,3.6c-1,1-2.6,1-3.6,0c0,0,0,0,0,0C129,128.5,129,126.9,130,125.9z"/>
		<path class="st4" d="M139.9,121.6c0.7-0.7,1.8-0.7,2.5,0c0.7,0.7,0.7,1.8,0,2.5s-1.8,0.7-2.5,0c0,0,0,0,0,0
			C139.2,123.4,139.2,122.3,139.9,121.6z"/>
		<path class="st8" d="M143.4,70.5c0.7-2.2,3.1-3.4,5.3-2.7s3.4,3.1,2.7,5.3c-0.7,2.2-3.1,3.4-5.3,2.7
			C143.9,75.1,142.7,72.7,143.4,70.5C143.4,70.5,143.4,70.5,143.4,70.5z"/>
		<path class="st8" d="M136.3,72c0.4-1.3,1.8-2.1,3.2-1.7c1.3,0.4,2.1,1.8,1.7,3.2s-1.8,2.1-3.2,1.7C136.6,74.8,135.8,73.3,136.3,72
			L136.3,72z"/>
		<path class="st8" d="M143.1,63.7c0.3-0.9,1.3-1.5,2.2-1.2c0,0,0,0,0,0c0.9,0.3,1.5,1.3,1.2,2.3c-0.3,0.9-1.3,1.5-2.3,1.2
			S142.8,64.6,143.1,63.7C143.1,63.7,143.1,63.7,143.1,63.7z"/>
		<path class="st8" d="M106.7,31.6c10.2,0,18.6,8.3,18.6,18.5s-8.3,18.6-18.5,18.6s-18.6-8.3-18.6-18.5c0,0,0,0,0,0
			C88.1,39.9,96.4,31.6,106.7,31.6z"/>
		<path class="st6" d="M106.7,33.5c9.2,0,16.7,7.5,16.7,16.7s-7.5,16.7-16.7,16.7c-9.2,0-16.7-7.5-16.7-16.7c0,0,0,0,0,0
			C90,41,97.5,33.5,106.7,33.5z"/>
		<path class="st1" d="M106.7,36.8c7.4,0,13.4,6,13.4,13.4c0,7.4-6,13.4-13.4,13.4c-7.4,0-13.4-6-13.4-13.4S99.3,36.8,106.7,36.8z"
			/>
		<path class="st9" d="M106.7,40.8c5.2,0,9.4,4.2,9.4,9.4s-4.2,9.4-9.4,9.4s-9.4-4.2-9.4-9.4c0,0,0,0,0,0
			C97.3,45,101.5,40.8,106.7,40.8z"/>
		<path class="st6" d="M104,42.4c2.3,0,4.1,1.8,4.1,4.1c0,2.3-1.8,4.1-4.1,4.1c-2.3,0-4.1-1.8-4.1-4.1
			C99.9,44.3,101.7,42.4,104,42.4C104,42.4,104,42.4,104,42.4z"/>
		<polygon class="st10" points="66.2,102.4 61.9,128.6 53.8,131.6 53.3,143.8 56.5,134 57.4,146.1 61.1,134.7 61.9,142 65,134.4 
			64.6,128.9 70.4,103.2 		"/>
		<polygon class="st11" points="61.5,138.3 61.9,142 65,134.4 64.6,128.9 70.4,103.2 68,102.7 63,129.1 62.8,136.1 		"/>
		<path class="st3" d="M75,101.6L75,101.6c-0.2,1.6-3.2,2.4-6.6,1.8s-6-2.2-5.7-3.7c0-0.1,0-0.2,0.1-0.3c2,1,4.2,1.7,6.5,2
			C71.2,101.7,73.1,101.7,75,101.6L75,101.6z"/>
		<polygon class="st10" points="155.5,102.4 159.8,128.6 168,131.6 168.4,143.8 165.2,134 164.4,146.1 160.7,134.7 159.9,142 
			156.8,134.4 157.1,128.9 151.4,103.2 		"/>
		<polygon class="st11" points="160.3,138.3 159.9,142 156.8,134.4 157.1,128.9 151.4,103.2 153.8,102.7 158.7,129.1 159,136.1 		
			"/>
		<path class="st4" d="M146.7,101.6L146.7,101.6c0.3,1.6,3.2,2.4,6.6,1.8s5.9-2.2,5.7-3.7c0-0.1-0.1-0.2-0.1-0.3c-2,1-4.2,1.7-6.5,2
			C150.6,101.7,148.6,101.7,146.7,101.6L146.7,101.6z"/>
	</g>
</g>
</svg>
