<?xml version="1.0" encoding="utf-8"?>
<!-- Generator: Adobe Illustrator 22.1.0, SVG Export Plug-In . SVG Version: 6.00 Build 0)  -->
<svg version="1.1" id="Layer_1" xmlns="http://www.w3.org/2000/svg" xmlns:xlink="http://www.w3.org/1999/xlink" x="0px" y="0px"
	 viewBox="0 0 162.4 186.9" style="enable-background:new 0 0 162.4 186.9;" xml:space="preserve">
<style type="text/css">
	.st0{display:none;opacity:0.5;fill:#472055;enable-background:new    ;}
	.st1{fill:#35A8E0;}
	.st2{fill:#0463AC;}
	.st3{opacity:0.3;fill:#0463AC;enable-background:new    ;}
	.st4{fill:#A5D24A;}
	.st5{opacity:0.7;fill:#A5D24A;enable-background:new    ;}
	.st6{fill:#FFFFFF;}
	.st7{fill:#6FD1DE;}
	.st8{fill:#472055;}
	.st9{opacity:0.2;fill:#FFFAD3;enable-background:new    ;}
	.st10{opacity:0.3;fill:#6FD1DE;enable-background:new    ;}
	.st11{fill:#F52B5D;}
	.st12{fill:#831434;}
	.st13{opacity:0.3;fill:#9F1645;enable-background:new    ;}
	.st14{opacity:0.3;fill:#35A8E0;enable-background:new    ;}
	.st15{opacity:0.3;}
</style>
<title>Asset16</title>
<g>
	<g id="Layer_2_1_">
		<g id="OBJECTS">
			<g id="_Group_">
				<ellipse id="_Path_" class="st0" cx="81.2" cy="178.3" rx="55.3" ry="8.7"/>
				<g id="_Group_2">
					<path id="_Path_2" class="st1" d="M81.5,31.6c0,0,31.5-2.3,52.4,24.8s32.1,85.1-46.7,91.3s-77-54.1-69.3-71.5
						C26,57.7,30.2,34.9,81.5,31.6z"/>
					<path id="_Path_3" class="st1" d="M81.5,31.6c0,0,31.5-2.3,52.4,24.8s32.1,85.1-46.7,91.3s-77-54.1-69.3-71.5
						C26,57.7,30.2,34.9,81.5,31.6z"/>
					<g id="_Group_3">
						<path id="_Path_4" class="st2" d="M44,141.8c0,0,6.6,20.5,19,31.5c0,0-14.7-2.6-15,4.4h20.5c0,0-5.1-27.1-2.6-33.3
							C68.5,138.1,44.3,137.4,44,141.8z"/>
						<g id="_Group_4">
							<g id="_Group_5">
								<path id="_Path_5" class="st1" d="M57.3,154.6c-0.2-1.8-0.5-3.6-1.4-4.3c-0.4-0.3-1-0.5-1.5-0.3c-0.5,0.1-0.8,0.5-0.8,1
									c0,0.9,0.4,1.8,1,2.4c0.2,0.3,0.5,0.5,0.8,0.7c-0.4-0.1-0.7-0.3-1-0.5c-0.4-0.3-0.7-0.6-1-0.9c-0.4-0.5-0.7-1.1-0.8-1.7
									c-0.1-0.4,0-0.8,0.2-1.2c0.2-0.4,0.6-0.8,1-1c0.9-0.4,2-0.3,2.9,0.2c0.8,0.6,1.4,1.5,1.7,2.5c0.3,0.9,0.5,1.9,0.5,2.9
									c0.1,1,0.1,2-0.1,2.9c-0.1,0.5-0.2,1-0.3,1.4c-0.2,0.5-0.4,0.9-0.7,1.3c-0.3,0.5-0.8,0.8-1.4,0.9c-0.5,0.1-1.1,0-1.6-0.3
									c-0.6-0.4-1.1-1-1.6-1.6c-0.6-0.8-1.1-1.7-1.4-2.7c-0.1-0.4-0.2-0.7-0.2-1.1c0.1,0.3,0.3,0.7,0.5,1c0.5,0.8,1.1,1.6,1.8,2.3
									c0.5,0.4,1,0.8,1.5,1.1c0.5,0.2,0.8,0.1,1.2-0.4c0.2-0.3,0.3-0.6,0.4-0.9c0.1-0.4,0.1-0.8,0.2-1.2
									C57.3,156.3,57.3,155.4,57.3,154.6z"/>
							</g>
							<g id="_Group_6">
								<path id="_Path_6" class="st1" d="M53.5,174.5c1.3-0.3,2.6-0.1,3.8,0.5c0.4,0.2,0.7,0.4,1,0.6l0.3,0.3h-0.4
									c-0.3,0-0.6,0-1.1,0c-1.1,0-2.2,0.2-3.3,0.4c-1.1,0.2-2.2,0.5-3.2,0.9c-0.3,0.1-0.7,0.3-1,0.4l-0.4,0.2l0.2-0.4
									c0.2-0.4,0.4-0.7,0.7-1C51,175.5,52.2,174.8,53.5,174.5z"/>
							</g>
						</g>
						<path id="_Path_7" class="st3" d="M65.9,144.3c2.6-6.2-21.6-7-22-2.6c1.2,3.5,2.6,6.9,4.2,10.2c-0.2-1.5,0.3-2.8,2.3-2.9
							c4.9-0.3,10.4-0.3,11.8,2.8s4.4,23.9,4.4,23.9l-12.8,0.5l10.6-1.6c-0.5-0.5-1-1-1.5-1.4c-1.1-0.2-14.6-2.3-14.9,4.4h20.5
							C68.5,177.6,63.4,150.6,65.9,144.3z"/>
					</g>
					<g id="_Group_7">
						<path id="_Path_8" class="st2" d="M116.2,141.8c0,0-6.6,20.5-19,31.5c0,0,14.7-2.6,15,4.4H91.7c0,0,5.1-27.1,2.6-33.3
							S115.8,137.4,116.2,141.8z"/>
						<g id="_Group_8">
							<g id="_Group_9">
								<path id="_Path_9" class="st1" d="M102.9,154.6c0.2-1.8,0.5-3.6,1.4-4.3c0.4-0.3,1-0.5,1.6-0.3c0.5,0.1,0.8,0.5,0.8,1
									c0,0.9-0.4,1.8-1,2.4c-0.2,0.3-0.5,0.5-0.8,0.7c0.4-0.1,0.7-0.3,1-0.5c0.4-0.3,0.7-0.6,1-0.9c0.4-0.5,0.7-1.1,0.8-1.7
									c0.1-0.4,0-0.8-0.2-1.2c-0.2-0.4-0.6-0.8-1-1c-0.9-0.4-2-0.3-2.9,0.2c-0.8,0.6-1.4,1.5-1.7,2.5c-0.3,0.9-0.5,1.9-0.6,2.9
									c-0.1,1-0.1,2,0.1,2.9c0.1,0.5,0.2,1,0.3,1.4c0.2,0.5,0.4,0.9,0.7,1.3c0.3,0.5,0.8,0.8,1.4,0.9c0.5,0.1,1.1,0,1.6-0.3
									c0.6-0.4,1.1-1,1.6-1.6c0.6-0.8,1.1-1.7,1.4-2.7c0.1-0.4,0.2-0.7,0.2-1.1c-0.1,0.3-0.3,0.7-0.5,1c-0.5,0.8-1.1,1.6-1.8,2.3
									c-0.5,0.4-1,0.8-1.5,1.1c-0.5,0.2-0.8,0.1-1.2-0.4c-0.2-0.3-0.3-0.6-0.4-0.9c-0.1-0.4-0.1-0.8-0.2-1.2
									C102.9,156.3,102.8,155.4,102.9,154.6z"/>
							</g>
							<g id="_Group_10">
								<path id="_Path_10" class="st1" d="M106.7,174.5c-1.3-0.3-2.6-0.1-3.8,0.5c-0.4,0.2-0.7,0.4-1,0.6l-0.3,0.3h0.4
									c0.3,0,0.6,0,1.1,0c1.1,0,2.2,0.2,3.3,0.4c1.1,0.2,2.2,0.5,3.2,0.9c0.3,0.1,0.7,0.3,1,0.4l0.4,0.2l-0.2-0.4
									c-0.2-0.4-0.4-0.7-0.7-1C109.2,175.5,108,174.8,106.7,174.5z"/>
							</g>
						</g>
						<path id="_Path_11" class="st3" d="M94.2,144.3c-2.6-6.2,21.6-7,22-2.6c-1.2,3.5-2.6,6.9-4.2,10.2c0.2-1.5-0.3-2.8-2.3-2.9
							c-4.9-0.3-10.4-0.3-11.8,2.8s-4.4,23.9-4.4,23.9l12.8,0.5l-10.7-1.6c0.5-0.5,1-1,1.6-1.4c1.1-0.2,14.6-2.3,14.9,4.4H91.7
							C91.7,177.6,96.8,150.6,94.2,144.3z"/>
					</g>
					<g id="_Group_11">
						<g id="_Group_12">
							<path id="_Path_12" class="st2" d="M29.3,53.5c0,0-29.3,35.9-29.3,79.9s20.9,37.4,23.1,35.2c0,0,12.1,6.6,12.8-4.8
								s0-1.8,0-1.8s3.7-7,1.8-11s-11-2.2-11-2.2S6.2,106.6,29.3,53.5z"/>
							<g id="_Group_13">
								<g id="_Group_14">
									<path id="_Path_13" class="st1" d="M20.5,165.1c1.6,1.1,3,2.2,4.1,3s1.7,1.3,1.7,1.3c-0.7-0.1-1.4-0.3-2.1-0.5
										c-3.4-1-6.3-3.1-8.4-6c-0.4-0.6-0.8-1.2-1.2-1.8c0,0,0.7,0.5,1.8,1.2S18.9,164,20.5,165.1z"/>
								</g>
								<g id="_Group_15">
									<path id="_Path_14" class="st1" d="M33,158.2c0.4,0.3,0.8,0.6,1.2,1c0.3,0.2,0.6,0.5,0.9,0.6c0.2,0.1,0.5,0.2,0.7,0.2
										c0.1,0,0.2-0.1,0.3-0.1c0,0.1-0.1,0.2-0.2,0.3c-0.3,0.3-0.6,0.5-1,0.5c-0.5,0.1-1.1,0-1.6-0.2c-0.5-0.2-1-0.5-1.4-0.9
										c-0.8-0.6-1.5-1.4-2-2.4c-0.2-0.4-0.4-0.8-0.5-1.2c0,0,0.5,0.2,1.1,0.6S32.2,157.5,33,158.2z"/>
								</g>
								<g id="_Group_16">
									<path id="_Path_15" class="st1" d="M7,111c-0.1-0.2-0.3-0.4-0.5-0.6c-0.1,0,0,0-0.1,0c-0.4,0.4-0.8,0.9-1,1.5
										c-0.6,1.2-1.1,2.4-1.5,3.7c-0.3,1.1-0.4,2.3-0.3,3.5c0.1,0.5,0.2,1.1,0.4,1.6c0.1,0.4,0.4,0.8,0.7,1.2
										c0.2,0.2,0.6,0.3,0.9,0.1c0.3-0.2,0.6-0.5,0.8-0.8c0.5-0.4,0.7-1.1,0.6-1.7c-0.1-0.4-0.5-0.7-0.9-0.7
										c-0.1,0-0.3,0.1-0.4,0.2c0.1-0.1,0.2-0.2,0.4-0.3c0.5-0.1,1,0.2,1.2,0.7c0.2,0.7,0,1.5-0.4,2.1c-0.2,0.4-0.5,0.8-0.9,1.1
										c-0.2,0.2-0.5,0.3-0.8,0.3c-0.4,0-0.7-0.1-1-0.3c-0.5-0.4-0.8-0.9-1.1-1.4c-0.3-0.6-0.5-1.2-0.6-1.8c-0.3-1.3-0.3-2.7,0-4
										c0.3-1.5,0.8-2.9,1.4-4.2c0.2-0.3,0.3-0.7,0.5-1c0.2-0.4,0.6-0.8,1-1.1c0.3-0.2,0.6-0.3,1-0.3c0.4,0,0.8,0.1,1.1,0.3
										c0.4,0.3,0.7,0.7,1,1.1c0.9,1.4,1.3,3.1,1.4,4.7c0.1,1.5,0,2.9-0.2,4.4c-0.4,2.4-1.3,4.7-2.7,6.8c-0.5,0.8-1.1,1.5-1.9,2.1
										c-0.6,0.4-1.4,0.6-2.1,0.6c-0.5,0-0.9-0.2-1.2-0.6c-0.1-0.1-0.1-0.2,0-0.3c0.1-0.1,0.1,0,0.1,0c0,0-0.1,0-0.1,0.1
										c0,0.1,0,0.2,0.1,0.3c0.3,0.3,0.7,0.4,1.1,0.4c0.7,0,1.3-0.3,1.8-0.7c0.6-0.6,1.1-1.3,1.5-2.2c1-2.1,1.7-4.3,1.9-6.6
										c0.1-1.3,0.1-2.7,0-4C8,113.6,7.7,112.2,7,111z"/>
								</g>
							</g>
						</g>
						<path id="_Path_16" class="st3" d="M26.7,148.7c0,0-20.5-42.1,2.6-95.2c-11,14.4-19.2,30.7-24.5,48c0.7-0.1,1.5,0.1,2.1,0.4
							c2,0.9,2.8,3.3,3.4,5.3c4.3,14.2,8.3,28.5,12.2,42.9c1.9-0.3,3.8,0,5.5,0.6c1.7,0.8,3,2.8,2.3,4.6l-2.7,0.9
							c2.5,1,3.6,4.2,2.6,6.7c-1.2,2.5-3.8,4-6.5,3.9c-2.7-0.2-5.2-1.5-7-3.5c0.5,2-1.7,3.9-3.8,3.8s-3.8-1.5-5.2-3
							c-1.9-2.1-3.5-4.5-4.5-7.2l-0.4-0.2c5.8,17.9,18.5,13.6,20.2,11.9c0,0,12.1,6.6,12.8-4.8c0-0.8,0.1-1.5,0.1-2.1l-0.1,0.3
							c0,0,0.6-8.2,0.1-0.3c0.6-1.3,3.3-7.2,1.7-10.7C35.9,146.9,26.7,148.7,26.7,148.7z"/>
					</g>
					<g id="_Group_17">
						<g id="_Group_18">
							<path id="_Path_17" class="st2" d="M133.1,53.5c0,0,29.3,35.9,29.3,79.9s-20.9,37.4-23.1,35.2c0,0-12.1,6.6-12.8-4.8
								s0-1.8,0-1.8s-3.7-7-1.8-11s11-2.2,11-2.2S156.2,106.6,133.1,53.5z"/>
							<g id="_Group_19">
								<g id="_Group_20">
									<path id="_Path_18" class="st1" d="M141.9,165.1c-1.6,1.1-3,2.2-4.1,3s-1.7,1.3-1.7,1.3c0.7-0.1,1.4-0.3,2.1-0.5
										c3.4-1,6.3-3.1,8.4-6c0.4-0.6,0.8-1.2,1.2-1.8c0,0-0.7,0.5-1.8,1.2S143.5,164,141.9,165.1z"/>
								</g>
								<g id="_Group_21">
									<path id="_Path_19" class="st1" d="M129.4,158.2c-0.4,0.3-0.8,0.6-1.2,1c-0.3,0.3-0.6,0.5-0.9,0.6
										c-0.2,0.1-0.5,0.2-0.7,0.2c-0.1,0-0.2-0.1-0.3-0.1c0,0.1,0.1,0.2,0.2,0.3c0.3,0.3,0.6,0.5,1,0.5c0.5,0.1,1.1,0,1.6-0.2
										c0.5-0.2,1-0.5,1.5-0.8c0.8-0.6,1.5-1.4,2-2.4c0.2-0.4,0.4-0.8,0.5-1.2c0,0-0.5,0.2-1.1,0.6S130.2,157.5,129.4,158.2z"/>
								</g>
								<g id="_Group_22">
									<path id="_Path_20" class="st1" d="M155.5,111c0.1-0.2,0.3-0.4,0.5-0.6c0.1,0,0,0,0.1,0c0.4,0.4,0.8,0.9,1,1.5
										c0.6,1.2,1.1,2.4,1.5,3.7c0.3,1.1,0.4,2.3,0.3,3.5c-0.1,0.5-0.2,1.1-0.4,1.6c-0.1,0.4-0.4,0.8-0.7,1.2
										c-0.2,0.2-0.6,0.3-0.9,0.1c-0.3-0.2-0.6-0.5-0.8-0.8c-0.5-0.4-0.7-1.1-0.6-1.7c0.1-0.4,0.5-0.7,0.9-0.7
										c0.2,0,0.3,0.1,0.4,0.2c-0.1-0.1-0.2-0.2-0.4-0.3c-0.5-0.1-1,0.2-1.2,0.7c-0.2,0.7,0,1.5,0.4,2.1c0.2,0.4,0.5,0.8,0.9,1.1
										c0.2,0.2,0.5,0.3,0.9,0.3c0.4,0,0.7-0.1,1-0.3c0.5-0.4,0.8-0.9,1.1-1.4c0.3-0.6,0.5-1.2,0.6-1.8c0.3-1.3,0.3-2.7,0-4
										c-0.3-1.4-0.8-2.9-1.4-4.2c-0.2-0.3-0.3-0.7-0.6-1c-0.2-0.4-0.6-0.8-1-1.1c-0.3-0.2-0.6-0.3-1-0.3c-0.4,0-0.8,0.1-1.1,0.3
										c-0.4,0.3-0.7,0.7-1,1.1c-0.9,1.4-1.3,3.1-1.4,4.7c-0.1,1.5,0,2.9,0.2,4.4c0.4,2.4,1.3,4.8,2.6,6.8
										c0.5,0.8,1.1,1.6,1.9,2.1c0.6,0.4,1.4,0.6,2.1,0.6c0.5,0,0.9-0.2,1.2-0.6c0.1-0.1,0.1-0.2,0-0.3c0,0-0.1,0-0.1,0
										c0,0,0.1,0,0.1,0.1c0,0.1,0,0.2-0.1,0.3c-0.3,0.3-0.7,0.4-1.1,0.4c-0.6,0-1.3-0.3-1.7-0.7c-0.6-0.6-1.1-1.3-1.5-2.2
										c-1-2.1-1.7-4.3-1.9-6.6c-0.1-1.3-0.1-2.7,0-4C154.4,113.6,154.8,112.2,155.5,111z"/>
								</g>
							</g>
						</g>
						<path id="_Path_21" class="st3" d="M135.7,148.7c0,0,20.5-42.1-2.6-95.2c11,14.4,19.2,30.7,24.5,48c-0.7-0.1-1.5,0.1-2.1,0.4
							c-2,0.9-2.8,3.3-3.4,5.3c-4.3,14.2-8.3,28.5-12.2,42.9c-1.9-0.3-3.7,0-5.5,0.6c-1.7,0.8-3,2.8-2.3,4.6l2.7,0.9
							c-2.5,1-3.6,4.2-2.6,6.7c1.2,2.5,3.8,4,6.5,3.9c2.7-0.2,5.2-1.5,7-3.5c-0.5,2,1.7,3.9,3.8,3.8s3.8-1.5,5.2-3
							c1.9-2.1,3.5-4.5,4.5-7.2l0.4-0.2c-5.8,17.9-18.5,13.6-20.2,11.9c0,0-12.1,6.6-12.8-4.8c-0.1-0.8-0.1-1.5-0.1-2.1
							c0.1,0.2,0.1,0.3,0.1,0.3s-0.6-8.2-0.1-0.3c-0.6-1.3-3.3-7.2-1.7-10.7C126.5,146.9,135.7,148.7,135.7,148.7z"/>
					</g>
					<g id="_Group_23">
						<g id="_Group_24">
							<g id="_Group_25">
								<path id="_Path_22" class="st4" d="M113,40.8c0,0,21.3-5.6,17.2-21.5s-9.8-23.8,7.4-16.8s39.7,43,2.2,64.3
									S103.1,48.5,113,40.8z"/>
								<g id="_Group_26">
									<path id="_Path_23" class="st4" d="M127.7,10.8c0.4-0.2,0.9-0.4,1.4-0.6c2.1-0.9,4.5-1.5,6.7-2.5s4.1-2.1,6.1-3
										c-1.3-0.9-2.7-1.6-4.2-2.2c-2.2-0.9-4.4-1.7-6.7-2.2c-1.3,0.8-2.4,1.7-3.3,2.9c-0.5,0.7-1,1.5-1.4,2.3
										C126.6,7,127.1,8.8,127.7,10.8z"/>
									<path id="_Path_24" class="st4" d="M158.3,47.3c-0.6-1.1-1.3-2.1-2-3.1c-2.2-3-5.1-5.4-8.3-7.2c-3.1-1.6-6.3-2.8-9.7-3.5
										c-2.7-0.6-5.4-1.1-8.1-1.3c-1-0.1-1.9-0.1-2.8-0.2c-0.6,0.8-1.3,1.5-2,2.1c0.9,0.6,2.1,1.4,3.4,2.2
										c1.9,1.2,4.3,2.6,6.9,4.1s5.5,2.8,8.1,4.3c4.2,2.2,8.1,5,11.5,8.3C156.5,51.2,157.5,49.3,158.3,47.3z"/>
									<path id="_Path_25" class="st4" d="M144.7,63.8c-0.1-0.8-0.2-1.6-0.4-2.4c-0.3-1.4-0.7-2.8-1.2-4.2
										c-2.3-6.3-6.6-11.8-12.2-15.4c-1.2-0.8-2.5-1.5-3.8-2.1c-1.1-0.5-2.3-1-3.5-1.4c-0.9-0.3-1.9-0.6-2.8-0.8
										c-0.9,0.5-1.8,1-2.6,1.3c0.3,0.3,0.7,0.7,1.1,1.1c0.6,0.6,1.3,1.3,2,2.1s1.5,1.6,2.3,2.5s1.6,1.9,2.5,2.9
										c1.7,2,3.5,4.2,5.3,6.5s3.6,4.6,5.1,6.7c0.8,1.1,1.6,2.1,2.2,3.1s1.3,1.8,1.8,2.7C142,65.6,143.4,64.7,144.7,63.8z"/>
									<path id="_Path_26" class="st4" d="M138.6,7.5c-2.3,0.9-4.4,2.3-6.2,4c-1.3,1.2-2.4,2.5-3.4,4c0.4,1.2,0.7,2.5,1,3.8
										c0.1,0.2,0.1,0.4,0.1,0.6h0.1c0.3-0.1,0.7-0.2,1.1-0.4c3-1,6.8-2.4,10.5-3.8l5.2-2.1c1.1-0.4,2.2-0.8,3.2-1.1
										c-1.9-2.3-4.1-4.4-6.4-6.2C142.1,6.4,140.3,6.8,138.6,7.5z"/>
									<path id="_Path_27" class="st4" d="M156,23.7c-2.8-1.4-5.9-2.4-9.1-2.7c-5.6-0.6-11.3,0.6-16.3,3.4c-0.1,1.5-0.5,3-1.1,4.4
										c0.6,0,1.3,0,2,0c4,0,9,0.4,14.4,1s10.3,1.2,13.8,2.4l0,0c-0.4-2.6-1.1-5.1-2-7.5C157.2,24.4,156.6,24,156,23.7z"/>
								</g>
							</g>
							<path id="_Path_28" class="st5" d="M137.6,2.5c-17.2-6.9-11.5,1-7.4,16.8c0.4,1.4,0.5,2.8,0.5,4.2c3.5-3.2-1.7-15.7-0.7-19.7
								c0.9-3.6,11,4,12.1,4.8c4.8,3.6,9.1,7.9,11.3,13.6c2.4,6.3,1.6,13-0.2,19.4c-3.3,11.5-19.4,15.2-26.2,5.1
								c-3.8-5.6-3.3-9.6-2-12.2c-3.6,2.9-7.7,5.1-12.1,6.3c-9.8,7.7-10.6,47.4,26.9,26S154.8,9.5,137.6,2.5z"/>
						</g>
						<g id="_Group_27">
							<g id="_Group_28">
								<path id="_Path_29" class="st4" d="M148.9,19.4c1,2.2,1.8,4.4,2.3,6.7c0.2,1,0.3,2,0.4,3.1c0.1,0.9,0.1,1.8,0.1,2.7
									c0,0.7,0,1.5-0.1,2.2c0,0.6-0.1,1.1-0.2,1.7l-0.3,1.4c0,0,0-0.5,0-1.4c0-0.5,0-1-0.1-1.6s-0.1-1.4-0.2-2.1
									c-0.1-0.9-0.2-1.7-0.4-2.6c-0.1-0.9-0.4-1.9-0.7-2.9c-0.6-2.2-1.4-4.3-2.4-6.3c-1-2-2.2-4-3.4-5.8c-0.6-0.8-1.2-1.6-1.8-2.3
									s-1.2-1.4-1.7-1.9s-1.1-1.1-1.6-1.5c-0.4-0.4-0.8-0.7-1.2-1.1l-1.1-0.9l1.2,0.7c0.5,0.3,1,0.5,1.4,0.9
									c0.5,0.4,1.2,0.8,1.8,1.3c0.7,0.5,1.4,1.1,2,1.8c0.7,0.7,1.5,1.5,2.1,2.3C146.6,15.3,147.9,17.3,148.9,19.4z"/>
							</g>
							<g id="_Group_29">
								<path id="_Path_30" class="st4" d="M145.2,45.2l2.9-1.7c0,0.4-0.1,0.7-0.3,1.1c-0.3,0.9-0.9,1.6-1.7,2.1
									c-0.8,0.5-1.7,0.7-2.6,0.6c-0.4,0-0.8-0.1-1.1-0.3L145.2,45.2z"/>
							</g>
						</g>
					</g>
					<g id="_Group_30">
						<g id="_Group_31">
							<g id="_Group_32">
								<path id="_Path_31" class="st4" d="M50.6,40.8c0,0-21.3-5.6-17.2-21.5S43.2-4.4,26,2.5s-39.7,43-2.2,64.3
									S60.4,48.5,50.6,40.8z"/>
								<g id="_Group_33">
									<path id="_Path_32" class="st4" d="M35.9,10.8c-0.4-0.2-0.9-0.4-1.4-0.6c-2.1-0.9-4.5-1.5-6.7-2.5s-4.1-2.1-6.1-3
										c1.3-0.9,2.8-1.6,4.2-2.2c2.2-0.9,4.4-1.7,6.7-2.2C33.9,1,35,2,35.9,3.2c0.5,0.7,1,1.5,1.4,2.3C37,7,36.5,8.8,35.9,10.8z"
										/>
									<path id="_Path_33" class="st4" d="M5.3,47.3c0.6-1.1,1.3-2.1,2-3.1c2.2-3,5-5.4,8.3-7.2c3.1-1.6,6.3-2.8,9.7-3.5
										c2.7-0.6,5.4-1.1,8.1-1.3c1-0.1,1.9-0.1,2.8-0.2c0.6,0.8,1.3,1.5,2,2.1c-0.9,0.6-2.1,1.4-3.4,2.2c-2,1.2-4.3,2.6-6.9,4.1
										s-5.5,2.8-8.1,4.3c-4.2,2.3-8,5.1-11.5,8.3C7,51.3,6,49.3,5.3,47.3z"/>
									<path id="_Path_34" class="st4" d="M18.9,63.8c0.1-0.8,0.2-1.6,0.4-2.4c0.3-1.4,0.7-2.8,1.2-4.2
										c2.3-6.3,6.6-11.8,12.2-15.4c1.2-0.8,2.5-1.5,3.8-2.1c1.1-0.5,2.3-1,3.5-1.4c0.9-0.3,1.9-0.6,2.8-0.8
										c0.9,0.5,1.8,1,2.6,1.3c-0.3,0.3-0.7,0.7-1.1,1.1c-0.6,0.6-1.3,1.3-2,2.1s-1.5,1.6-2.3,2.5s-1.6,1.9-2.5,2.9
										c-1.7,2-3.5,4.2-5.3,6.5s-3.5,4.6-5.1,6.7c-0.8,1.1-1.6,2.1-2.2,3.1s-1.3,1.8-1.8,2.7C21.5,65.6,20.1,64.7,18.9,63.8z"/>
									<path id="_Path_35" class="st4" d="M24.9,7.5c2.3,0.9,4.4,2.3,6.2,4c1.3,1.2,2.4,2.5,3.4,4c-0.3,1.2-0.7,2.5-1,3.8
										c0,0.2-0.1,0.4-0.1,0.6h-0.1c-0.3-0.1-0.7-0.2-1.1-0.4c-3-1-6.8-2.4-10.5-3.8l-5.2-2.1c-1.1-0.4-2.2-0.8-3.2-1.1
										c1.9-2.3,4.1-4.4,6.4-6.2C21.4,6.4,23.2,6.8,24.9,7.5z"/>
									<path id="_Path_36" class="st4" d="M7.5,23.7c2.9-1.4,5.9-2.4,9.1-2.7c5.6-0.6,11.3,0.6,16.3,3.4c0.1,1.5,0.5,3,1.1,4.4
										c-0.6,0-1.3,0-2,0c-4,0-9,0.4-14.4,1S7.3,31,3.8,32.2l0,0c0.4-2.6,1.1-5.1,2-7.5C6.4,24.4,6.9,24,7.5,23.7z"/>
								</g>
							</g>
							<path id="_Path_37" class="st5" d="M26,2.5c17.2-6.9,11.5,1,7.4,16.8c-0.4,1.4-0.5,2.8-0.5,4.2c-3.5-3.2,1.7-15.7,0.7-19.7
								c-0.9-3.6-11,4-12.1,4.8c-4.8,3.6-9.1,7.9-11.3,13.6c-2.4,6.3-1.6,13,0.2,19.4c3.3,11.5,19.4,15.2,26.2,5.1
								c3.8-5.6,3.3-9.6,2-12.2c3.6,2.9,7.7,5.1,12.1,6.3c9.8,7.7,10.6,47.4-26.9,26S8.8,9.5,26,2.5z"/>
						</g>
						<g id="_Group_34">
							<g id="_Group_35">
								<path id="_Path_38" class="st4" d="M14.6,19.4c-1,2.2-1.8,4.4-2.3,6.7c-0.2,1-0.3,2-0.4,3.1c-0.1,0.9-0.1,1.8-0.1,2.7
									c0,0.7,0,1.5,0.1,2.2c0,0.6,0.1,1.1,0.2,1.7l0.3,1.4c0,0,0-0.5,0-1.4c0-0.5,0-1,0.1-1.6s0.1-1.4,0.2-2.1
									c0.1-0.9,0.2-1.7,0.4-2.6c0.1-0.9,0.4-1.9,0.7-2.9c0.6-2.2,1.4-4.3,2.4-6.3c1-2,2.2-4,3.4-5.8c0.6-0.8,1.2-1.6,1.8-2.3
									s1.2-1.4,1.7-1.9s1.1-1.1,1.5-1.5c0.4-0.4,0.8-0.7,1.2-1.1l1.1-0.9l-1.2,0.7c-0.5,0.3-1,0.5-1.4,0.9
									c-0.5,0.4-1.2,0.8-1.8,1.3c-0.7,0.5-1.4,1.1-2,1.8c-0.7,0.7-1.5,1.5-2.1,2.3C17,15.3,15.7,17.3,14.6,19.4z"/>
							</g>
							<g id="_Group_36">
								<path id="_Path_39" class="st4" d="M18.3,45.2l-2.9-1.7c0,0.4,0.1,0.7,0.3,1.1c0.3,0.9,0.9,1.6,1.7,2.1
									c0.8,0.5,1.7,0.7,2.6,0.6c0.4,0,0.8-0.1,1.1-0.3L18.3,45.2z"/>
							</g>
						</g>
					</g>
					<path id="_Path_40" class="st1" d="M81.5,31.6c0,0,31.5-2.3,52.4,24.8s32.1,85.1-46.7,91.3s-77-54.1-69.3-71.5
						C26,57.7,30.2,34.9,81.5,31.6z"/>
					<g id="_Group_37">
						<g id="_Group_38">
							<path id="_Path_41" class="st6" d="M112.1,77.5c0,14.9-13.4,27-30,27s-30-12.1-30-27s13.4-27,30-27S112.1,62.6,112.1,77.5z"
								/>
							<path id="_Path_42" class="st7" d="M102.7,76.7c0,10.6-8.6,19.2-19.2,19.2s-19.2-8.6-19.2-19.2s8.6-19.2,19.2-19.2
								C94,57.4,102.7,66,102.7,76.7L102.7,76.7z"/>
							<path id="_Path_43" class="st8" d="M94.5,76.7c0,6.1-5,11.1-11.1,11.1c-6.1,0-11.1-5-11.1-11.1c0-6.1,5-11.1,11.1-11.1l0,0
								C89.6,65.6,94.5,70.5,94.5,76.7z"/>
							<path id="_Path_44" class="st2" d="M76,72.1c0,2.4-1.9,4.3-4.3,4.3c-2.4,0-4.3-1.9-4.3-4.3c0-2.4,1.9-4.3,4.3-4.3
								S76,69.7,76,72.1L76,72.1z"/>
							<path id="_Path_45" class="st2" d="M98.6,86.1c0,3.4-2.7,6.1-6.1,6.1s-6.1-2.7-6.1-6.1c0-3.4,2.7-6.1,6.1-6.1l0,0
								C95.8,80,98.6,82.7,98.6,86.1z"/>
							<path id="_Path_46" class="st9" d="M106.8,62.2c-6-7.5-15.1-11.8-24.7-11.7c-12,0-22.3,6.3-27.1,15.4
								c3.2,9.2,13.4,16,25.5,16C94.1,81.9,105.3,73.3,106.8,62.2z"/>
							<path id="_Path_47" class="st10" d="M112.1,77.5c0-11.1-7.5-20.6-18.1-24.8c4.2,3,7.8,6.7,10.6,11
								c17.6,25.8-18.7,48.3-38.5,33.5S57.3,66,57.3,66c-0.8-0.2-1.5-0.2-2.3-0.2c-2,3.6-3,7.6-3,11.7c0,14.9,13.4,27,30,27
								S112.1,92.4,112.1,77.5z"/>
						</g>
						<path id="_Path_48" class="st2" d="M50.2,73.1c0,0,35.9-16.1,62.3,1.8c0,0-2.6-28.9-31.5-27.8S50.2,73.1,50.2,73.1z"/>
						<path id="_Path_49" class="st3" d="M112.4,74.9c0,0-1.4-16-14.1-23.8c3.7,4.2,6.8,8.9,9.2,13.9c0,0-4.7-2.2-18.4-3.8
							S65,63.2,58.4,64c-4.8,0.6,1.5-7.6,5.8-12.6c-13,7.4-14,21.7-14,21.7S86.1,57,112.4,74.9z"/>
						<path id="_Path_50" class="st8" d="M50.2,73.1c0,0,12.1-12.6,38.5-10.2s24.7,11.8,24.7,11.8S85.9,59.6,50.2,73.1z"/>
					</g>
					<path id="_Path_51" class="st2" d="M28.5,99.1c0,0,3.8-7.9,15.9-5.2s16.8,15.6,40.7,16.5c14,0.6,18.4-8.9,28.6-14.1
						c12-6.2,23.9,1.8,20.9,15.5c-1.8,8.1-9.8,17.1-17,20.8c-14.2,7.3-38.3,16.2-69.4,0.7C16.7,117.6,28.5,99.1,28.5,99.1z"/>
					<path id="_Path_52" class="st3" d="M117.6,132.6c0.9-0.5,1.8-1,2.6-1.6c1.1-5.2-1-10.8-4.6-14.7c-8.2-8.8-22-9.4-30.9-1.2
						c-1,0.9-1.9,1.9-2.7,3c-0.5,0.6-0.8,1.3-0.8,2.1c0.1,1.1,1.2,1.8,2,2.6c2.9,3.1-0.1,9-4.3,9s-7.2-5.3-5.4-9.2
						c0.6-1.4,1.7-2.6,2-4.1c0.6-3.3-2.8-5.8-5.8-7.1c-7.5-3.3-16.3-4.8-23.8-1.4c-5.9,2.6-10.3,8.9-10.3,15.1
						c3.9,3.3,8.1,6.1,12.7,8.3C79.2,148.9,103.4,139.9,117.6,132.6z"/>
					<path id="_Path_53" class="st3" d="M47.4,132.9l0.7,0.4c25.1,12.6,45.8,9.1,60.2,3.5c0.4-3.7-0.9-7.3-3.4-9.9
						c-5.4-5.9-14.4-6.7-20.8-1.9c0.4,2.5-0.8,4.9-2.9,6.2l0.4,0.4c2.1,2.2-0.1,6.5-3.1,6.4s-5.1-3.9-3.9-6.6c0.2-0.3,0.4-0.7,0.6-1
						c-1.8-1.6-2.6-4.1-2.2-6.5c-0.4-0.2-0.7-0.4-1.1-0.6c-5.4-2.4-11.7-3.4-17.1-1C50.6,124.2,47.7,128.3,47.4,132.9z"/>
					<g id="_Group_39">
						<path id="_Path_54" class="st11" d="M111.8,135.4c-2.8-4.8-7.5-8.2-12.8-9.6c-6.9-1.8-14.4-0.4-20.9,2.8
							c-1.1,0.7-2.4,1.1-3.8,1.1c-0.6-0.1-1.2-0.3-1.8-0.6c-3.9-1.8-8.3-2.8-12.5-1.8c-3.9,0.9-7.5,3.9-8.4,7.8
							C77.3,146.5,97.9,141.5,111.8,135.4z"/>
					</g>
					<path id="_Compound_Path_" class="st6" d="M51.2,105.7c-3.6,1.8-8.5,2.3-11.2-1.2c-2-2.7-2.2-6.4-0.4-9.3
						c0.4-0.7,0.9-1.3,1.5-1.8c1.1,0.1,2.2,0.3,3.3,0.5c4.7,1.1,8.2,3.7,12.3,6.5C55.4,102.7,53.5,104.5,51.2,105.7z M60.3,102.9
						c-0.5,0.5-1,1-1.3,1.7c-1.8,2.9-1.6,6.6,0.4,9.3c2.7,3.4,7.6,3,11.2,1.2c2.4-1.2,4.4-3.2,5.6-5.6
						C70.4,108.3,65.1,106.1,60.3,102.9z M117.5,98.5c-0.6-1-1.4-2-2.3-2.9c-0.5,0.2-1,0.4-1.5,0.7c-5,2.6-8.6,6.2-12.7,9.1
						c1.5,2,3.6,3.5,6,4.3c3.8,1.3,8.7,1,10.9-2.8C119.3,104.3,119.2,101.1,117.5,98.5z M79.7,110c0.5,2.2,1.6,4.2,3.2,5.8
						c2.8,2.9,7.3,4.9,11,2.5c2.5-1.7,3.9-4.7,3.6-7.8c-0.1-0.9-0.2-1.8-0.4-2.6c-3.7,1.9-7.8,2.8-11.9,2.5
						C83.2,110.4,81.4,110.2,79.7,110z"/>
					<path id="_Path_55" class="st10" d="M41.9,97.8c5-4.5,12.5,2.9,13.4,4.5c0.5-0.6,0.9-1.2,1.3-1.9c-4-2.8-7.6-5.4-12.3-6.4
						c-1.1-0.3-2.2-0.4-3.3-0.5c-0.6,0.5-1.1,1.1-1.5,1.8c-1.8,2.9-1.6,6.6,0.4,9.3c0.9,1.1,2.1,1.9,3.5,2.3
						C41.4,104.9,38.2,101.2,41.9,97.8z"/>
					<g id="_Group_40">
						<path id="_Path_56" class="st10" d="M75.1,111.2c0.4-0.6,0.7-1.1,1-1.7c-5.7-1.1-11.1-3.3-15.9-6.6c-0.5,0.5-1,1-1.3,1.7
							c4.4,2.6,9.2,4.7,14.2,6.1L75.1,111.2z"/>
						<path id="_Path_57" class="st10" d="M115.2,95.7c-0.5,0.2-1,0.4-1.5,0.7c-5,2.6-8.6,6.2-12.7,9.1c0.3,0.3,0.5,0.7,0.8,1
							c5.4-3.6,11.1-7.7,13-7.9c3.3-0.4,2.9,9.2,0.2,10.8c-0.2,0.1-0.3,0.3-0.3,0.4c1.3-0.5,2.5-1.5,3.2-2.8c1.5-2.7,1.3-6-0.4-8.5
							C116.8,97.5,116.1,96.5,115.2,95.7z"/>
						<path id="_Path_58" class="st10" d="M92.5,111.9c1.7-0.7,3.3-1.5,4.8-2.5c-0.1-0.5-0.2-1-0.3-1.5c-3.7,1.9-7.8,2.8-11.9,2.5
							c-1.9-0.1-3.7-0.2-5.4-0.4c0.2,0.8,0.5,1.6,0.8,2.3C85,113.1,89,113.1,92.5,111.9z"/>
					</g>
					<g id="_Group_41">
						<path id="_Path_59" class="st12" d="M79.9,131.8c1.1,1.1,2,2.5,2.4,4c0.1,0.4,0.2,0.9,0.3,1.4c0,0.3,0,0.5,0,0.5
							s-0.4-0.6-1.1-1.5c-0.9-1.1-1.9-2.1-2.9-3.1c-1-1-2.1-1.9-3.2-2.8c-0.9-0.7-1.5-1.1-1.5-1.1h0.5c0.5,0,0.9,0.1,1.4,0.2
							C77.3,130,78.8,130.7,79.9,131.8z"/>
					</g>
					<path id="_Path_60" class="st13" d="M111.8,135.4c-1.5-2.5-3.5-4.7-5.8-6.4c0,0.4,0,0.7-0.1,1.1c-0.7,2.5-3.2,4.1-5.6,5.1
						c-3,1.2-6.2,1.9-9.4,2c-0.7,0.1-1.4,0-2.1-0.2c-1.8-0.7-2.4-3-2.8-5s-1.6-4.2-3.6-4.2l1.4-1.5c-1.9,0.6-3.8,1.3-5.6,2.2
						c-1.1,0.7-2.4,1.1-3.8,1.1l0,0l4.4,3.3c0.9,0.6,1.6,1.3,2.1,2.2c0.5,0.9,0.3,2.1-0.4,2.8c-0.7,0.4-1.5,0.5-2.2,0.4
						c-6.7-0.4-13.3-2.1-19.4-4.8c-0.6-0.2-1.2-0.6-1.7-1c-1-1.2-1-2.9,0-4.1c0.1-0.1,0.2-0.2,0.3-0.3c-2.8,1.3-4.9,3.8-5.7,6.8
						C77.3,146.5,97.9,141.5,111.8,135.4z"/>
					<g id="_Group_42">
						<g id="_Group_43">
							<path id="_Path_61" class="st2" d="M28.7,92.4c1.4-1,3-1.7,4.7-2c0.5-0.1,1-0.1,1.5-0.1h0.6L35,90.5
								c-0.3,0.1-0.8,0.4-1.3,0.7c-1.4,0.7-2.7,1.6-3.9,2.5c-1.3,0.9-2.4,1.9-3.5,3c-0.4,0.4-0.8,0.8-1,1.1l-0.4,0.4l0.1-0.6
								c0.1-0.5,0.3-1,0.5-1.4C26.3,94.7,27.4,93.4,28.7,92.4z"/>
						</g>
						<g id="_Group_44">
							<path id="_Path_62" class="st2" d="M134.1,92.8c1.3,1,2.2,2.4,2.6,4c0.1,0.5,0.2,0.9,0.2,1.4c0,0.3,0,0.5,0,0.5l-0.3-0.4
								c-0.2-0.3-0.4-0.7-0.8-1.1c-1.7-2.2-3.9-4-6.4-5.3c-0.4-0.2-0.8-0.4-1.2-0.5l-0.5-0.2l0.5-0.1c0.5-0.1,1-0.1,1.4,0
								C131.4,91.3,132.9,91.9,134.1,92.8z"/>
						</g>
						<g id="_Group_45">
							<path id="_Path_63" class="st2" d="M83.3,104.1c3.4,0.1,6.9-0.3,10.2-1.1c2.7-0.7,5.3-1.8,7.8-3.2c1.6-1,3.2-2.1,4.5-3.5
								c0.4-0.4,0.7-0.7,1.1-1.1l0.4-0.4l-0.3,0.5c-0.2,0.3-0.5,0.7-0.9,1.3c-1.2,1.5-2.7,2.9-4.3,4c-2.4,1.7-5,3-7.8,3.9
								c-3.4,1.1-7,1.6-10.6,1.5c-6.5-0.3-12.8-1.6-18.8-4c-1.8-0.7-3.6-1.5-5.3-2.4c-0.6-0.3-1.2-0.7-1.8-1.1
								c2.4,1.1,4.9,2,7.4,2.7C70.8,102.8,77.1,103.8,83.3,104.1z"/>
						</g>
						<g id="_Group_46">
							<path id="_Path_64" class="st2" d="M111.1,90.2c0.5-0.8,1.2-1.4,2.1-1.7c0.1,0.9-0.1,1.8-0.6,2.6c-0.5,0.8-1.2,1.4-2.1,1.7
								C110.5,91.9,110.7,91,111.1,90.2z"/>
						</g>
						<g id="_Group_47">
							<path id="_Path_65" class="st2" d="M86.4,146.2c1.9,0.1,3.9-0.1,5.7-0.8c0.6-0.2,1.1-0.5,1.6-0.9l0.6-0.4
								c-0.1,0.2-0.2,0.4-0.4,0.6c-0.4,0.5-0.8,1-1.3,1.4c-1.8,1.3-4,2-6.2,1.9c-2.1-0.2-4.2-0.8-6.1-1.8c-0.8-0.4-1.5-0.9-2.3-1.4
								c0,0,1,0.2,2.5,0.5C82.5,145.7,84.5,146,86.4,146.2z"/>
						</g>
					</g>
					<g id="_Group_48">
						<g id="_Group_49">
							<path id="_Path_66" class="st2" d="M72.5,33.6c-0.5,0.5-0.7,1.2-0.5,1.9c0.2,0.7,0.6,1.4,1.1,1.9c1,1,2.2,1.7,3.5,2.3
								c0.9,0.4,1.8,0.6,2.8,0.8c0.7,0.1,1.1,0.1,1.1,0.1c-0.4,0-0.7,0.1-1.1,0.1c-1,0-2-0.1-3-0.4c-1.5-0.4-2.8-1.1-4-2.1
								c-0.8-0.6-1.3-1.5-1.6-2.4c-0.1-0.5-0.1-1.1,0-1.6c0.1-0.6,0.5-1.1,0.9-1.5c0.5-0.4,1-0.6,1.6-0.7c0.5-0.1,1-0.1,1.6,0
								c0.9,0.2,1.8,0.5,2.6,1c1.3,0.7,2.5,1.7,3.5,2.8c0.7,0.8,1.2,1.6,1.7,2.5c0.2,0.3,0.3,0.6,0.3,0.7l0.1,0.3L82.9,39
								c-0.1-0.2-0.3-0.4-0.5-0.7c-0.6-0.8-1.3-1.5-2-2.1c-1-0.9-2.2-1.7-3.5-2.3c-0.7-0.3-1.5-0.6-2.3-0.7
								C74,33,73.2,33.1,72.5,33.6z"/>
						</g>
						<g id="_Group_50">
							<path id="_Path_67" class="st2" d="M75.1,44L75.1,44l0.5,0.1c0.3,0,0.7,0,1,0c0.6,0,1.1-0.2,1.7-0.4c0.4-0.1,0.8-0.3,1.1-0.5
								l0.4-0.3c-0.3,0.5-0.7,1-1.2,1.3c-0.5,0.4-1.2,0.7-1.8,0.9c-0.4,0.1-0.8,0.2-1.2,0.2c-0.2,0-0.4,0-0.7,0
								c-0.2,0-0.4-0.1-0.6-0.1L73.9,45c-0.1,0-0.1-0.2-0.1-0.2v-0.3c0-0.2,0-0.4,0.1-0.6c0.1-0.3,0.2-0.6,0.4-0.8
								c0.3-0.4,0.6-0.7,1-0.8c0.7-0.3,1.4-0.4,2.1-0.2c0.4,0.1,0.8,0.2,1.3,0.4l0.4,0.2h-0.5c-0.4,0-0.8,0-1.3,0
								c-0.5,0-1.1,0.2-1.5,0.5c-0.2,0.2-0.4,0.4-0.6,0.6C75,44,75.1,43.9,75.1,44z"/>
						</g>
						<g id="_Group_51">
							<path id="_Path_68" class="st2" d="M93.8,40c0.6,1.4,0,2.9-1.3,3.6c-0.9,0.4-1.8,0.7-2.8,0.9c-0.6,0.1-1.3,0.2-1.9,0.2
								c-0.4,0-0.7,0-0.7,0l0.7-0.2c0.4-0.1,1-0.3,1.8-0.6c0.8-0.3,1.7-0.6,2.4-1.1c0.8-0.5,1.1-1.4,0.7-2.3
								c-0.3-0.9-1.2-1.5-2.1-1.5c-0.8,0-1.7,0.2-2.4,0.7c-0.5,0.3-0.9,0.8-1,1.3c0,0.2,0,0.4,0.2,0.6C87.2,41.5,87,41.3,87,41
								c0-0.7,0.3-1.4,0.8-1.8c0.7-0.7,1.7-1.2,2.8-1.2c0.7,0,1.3,0.1,1.9,0.5C93.1,38.8,93.6,39.3,93.8,40z"/>
						</g>
					</g>
					<path id="_Path_69" class="st14" d="M139,64c2.4,5.6,4.3,11.4,5.7,17.3c5.5,23.3-3.3,39-17.3,51.1S67.5,153,37,134.1
						c-24-14.9-21.5-44.9-19.3-57.7c-7.6,17.8-9,77.4,69.4,71.2C159.2,141.9,156,93,139,64z"/>
					<g id="_Group_52" class="st15">
						<g id="_Group_53">
							<path id="_Path_70" class="st2" d="M77.6,56.7c2.8-0.4,5.6-0.6,8.4-0.4c1.3,0.1,2.5,0.2,3.7,0.4c1.1,0.1,2.1,0.3,3.1,0.6
								c1,0.2,1.8,0.5,2.6,0.7c0.6,0.2,1.3,0.4,1.9,0.6l1.6,0.6l-1.7-0.3c-0.6-0.1-1.3-0.3-1.9-0.3c-0.8-0.1-1.6-0.3-2.6-0.3
								s-2-0.2-3.1-0.3s-2.3-0.1-3.6-0.1c-5.4,0.1-10.9,0.9-16.1,2.5c-1.2,0.4-2.3,0.7-3.4,1.2s-2,0.8-2.9,1.2s-1.7,0.8-2.3,1.1
								s-1.3,0.6-1.7,0.9c-0.9,0.5-1.5,0.8-1.5,0.8l1.3-1c0.4-0.3,1-0.7,1.6-1.2s1.4-0.9,2.2-1.4s1.8-1,2.8-1.5s2.2-1,3.4-1.5
								C72.1,57.9,74.8,57.2,77.6,56.7z"/>
						</g>
						<g id="_Group_54">
							<path id="_Path_71" class="st2" d="M79,52.4c3.1-0.7,6.4-1,9.6-0.6c1,0.1,1.9,0.3,2.9,0.6l1,0.3h-1.1c-0.7,0-1.7,0-2.9,0
								c-3.1,0.2-6.2,0.7-9.2,1.5c-3.6,0.8-6.8,1.6-9.2,2S66.3,57,66.3,57c1.2-0.6,2.4-1.2,3.6-1.7C72.8,54.1,75.9,53.1,79,52.4z"/>
						</g>
					</g>
					<g id="_Group_55">
						<path id="_Path_72" class="st14" d="M114.3,40.4c0.3,0,0.6-0.1,0.9-0.3c-0.7-0.4-1.4-0.8-2.2-1.2c-0.1,0.7,0.4,1.4,1.1,1.5
							C114.1,40.4,114.2,40.4,114.3,40.4z"/>
						<path id="_Path_73" class="st14" d="M109.5,56.5c0.3,0,0.6-0.3,0.6-0.6c0-0.3-0.3-0.6-0.6-0.6c-0.3,0-0.6,0.3-0.6,0.6
							C109,56.2,109.2,56.4,109.5,56.5z"/>
						<path id="_Path_74" class="st14" d="M109.9,44.6c-4.2,0-4.2,6.5,0,6.5S114.1,44.6,109.9,44.6z"/>
						<path id="_Path_75" class="st14" d="M105.9,36.9c-0.8,0-1.4,0.6-1.4,1.4c0,0.8,0.6,1.4,1.4,1.4c0.8,0,1.4-0.6,1.4-1.4
							C107.2,37.5,106.6,36.9,105.9,36.9z"/>
						<path id="_Path_76" class="st14" d="M102.6,51.5c0.8,0,1.4-0.6,1.4-1.4c0-0.8-0.6-1.4-1.4-1.4s-1.4,0.6-1.4,1.4
							C101.1,50.8,101.8,51.5,102.6,51.5z"/>
						<path id="_Path_77" class="st14" d="M96.7,37.4c1.8,0,3.3-1.4,3.4-3.3c0-0.1,0-0.2,0-0.3c-2.3-0.6-4.5-1.1-6.5-1.4
							C92.8,34.5,93.8,37.4,96.7,37.4z"/>
						<path id="_Path_78" class="st14" d="M100.4,41.6c-0.8,0-1.5,0.7-1.5,1.5s0.7,1.5,1.5,1.5s1.5-0.7,1.5-1.5
							S101.2,41.6,100.4,41.6z"/>
						<path id="_Path_79" class="st14" d="M123.1,56.3c0.6,0,1.1-0.5,1.1-1.1c0-0.6-0.5-1.1-1.1-1.1c-0.6,0-1.1,0.5-1.1,1.1
							C121.9,55.8,122.4,56.3,123.1,56.3z"/>
						<path id="_Path_80" class="st14" d="M120.9,44.2c-3.7,0-3.7,5.8,0,5.8c1.6,0,2.9-1.4,2.8-3c0-0.5-0.2-1-0.4-1.5
							c-0.5-0.4-1-0.8-1.6-1.2C121.4,44.3,121.2,44.2,120.9,44.2z"/>
						<path id="_Path_81" class="st14" d="M115,63.4c2.7,0,2.7-4.1,0-4.1S112.4,63.4,115,63.4z"/>
						<path id="_Path_82" class="st14" d="M116.5,52.5c-0.7,0.1-1.2,0.7-1.1,1.3c0.1,0.6,0.5,1.1,1.1,1.1c0.7-0.1,1.2-0.7,1.1-1.3
							C117.6,53,117.1,52.5,116.5,52.5z"/>
						<path id="_Path_83" class="st14" d="M53.8,47.4c-1.1,0.1-1.8,1-1.8,2c0.1,0.9,0.8,1.7,1.8,1.8c1.1-0.1,1.8-1,1.8-2
							C55.5,48.2,54.8,47.4,53.8,47.4z"/>
						<path id="_Path_84" class="st14" d="M44.7,67.5c3.2,0,3.2-4.9,0-4.9S41.5,67.5,44.7,67.5z"/>
						<path id="_Path_85" class="st14" d="M60.8,44.7c-0.6,0-1,0.4-1,1s0.4,1,1,1s1-0.4,1-1S61.4,44.7,60.8,44.7z"/>
						<path id="_Path_86" class="st14" d="M41.4,42.8c-1,0-1.8,0.8-1.8,1.8s0.8,1.8,1.8,1.8s1.8-0.8,1.8-1.8S42.4,42.8,41.4,42.8z"
							/>
						<path id="_Path_87" class="st14" d="M65.9,38.8c-0.9,0-1.6,0.7-1.6,1.7c0,0.9,0.7,1.6,1.6,1.6c0.9,0,1.6-0.7,1.6-1.7
							C67.6,39.6,66.8,38.9,65.9,38.8z"/>
						<path id="_Path_88" class="st14" d="M57.5,40.4c3.2,0,3.6-4.3,1.2-5.4c-1.2,0.3-2.3,0.6-3.5,1C54.2,37.6,54.9,40.4,57.5,40.4z
							"/>
						<path id="_Path_89" class="st14" d="M50.2,42.2c-0.9,0.1-1.5,0.8-1.5,1.7c0.1,0.8,0.7,1.4,1.5,1.5c0.9-0.1,1.5-0.8,1.5-1.7
							C51.6,42.9,51,42.3,50.2,42.2z"/>
						<path id="_Path_90" class="st14" d="M44.3,49.5c-5,0-5,7.7,0,7.7S49.3,49.5,44.3,49.5z"/>
						<path id="_Path_91" class="st14" d="M33.7,55.8c0.7,0,1.3-0.6,1.3-1.3s-0.6-1.3-1.3-1.3s-1.3,0.6-1.3,1.3S33,55.8,33.7,55.8z"
							/>
						<path id="_Path_92" class="st14" d="M51.7,59.1c0.6,0,1-0.4,1-1s-0.4-1-1-1s-1,0.4-1,1S51.1,59.1,51.7,59.1z"/>
						<path id="_Path_93" class="st14" d="M130.4,54.7c0.6,0,1.1-0.3,1.5-0.8c-0.7-0.9-1.5-1.7-2.3-2.5c-0.4,0.2-0.7,0.6-0.8,1
							c0,0.1-0.1,0.1-0.1,0.2c-0.2,0.9,0.4,1.9,1.3,2.1C130.1,54.7,130.3,54.7,130.4,54.7z"/>
					</g>
				</g>
			</g>
		</g>
	</g>
</g>
</svg>
