<?xml version="1.0" encoding="utf-8"?>
<!-- Generator: Adobe Illustrator 22.1.0, SVG Export Plug-In . SVG Version: 6.00 Build 0)  -->
<svg version="1.1" id="Layer_1" xmlns="http://www.w3.org/2000/svg" xmlns:xlink="http://www.w3.org/1999/xlink" x="0px" y="0px"
	 viewBox="0 0 187.5 147.8" style="enable-background:new 0 0 187.5 147.8;" xml:space="preserve">
<style type="text/css">
	.st0{fill:#FF9E12;}
	.st1{fill:#F93D31;}
	.st2{display:none;opacity:0.44;fill:#9B9B9B;enable-background:new    ;}
	.st3{opacity:0.13;fill:#590800;enable-background:new    ;}
	.st4{fill:#443551;}
	.st5{fill:#009579;}
	.st6{fill:url(#SVGID_1_);}
	.st7{fill:#CAE7EF;}
	.st8{fill:#FFFFFF;}
	.st9{fill:url(#SVGID_2_);}
	.st10{fill:#590800;}
	.st11{fill:url(#SVGID_3_);}
	.st12{fill:#8B1229;}
	.st13{fill:#8ECEDD;}
	.st14{fill:#02896F;}
	.st15{fill:url(#SVGID_4_);}
	.st16{opacity:0.72;fill:#725F82;enable-background:new    ;}
	.st17{opacity:0.43;fill:#FFFFFF;enable-background:new    ;}
	.st18{opacity:0.67;fill:#FFFFFF;enable-background:new    ;}
</style>
<title>Asset 3</title>
<g id="Layer_2_1_">
	<g id="monsters">
		<path class="st0" d="M73.9,35.7c-1.9,5-5.5,9.2-10.2,11.7c0,0-1.1-0.6-2.8-1.9c-2.8-2.1-5.4-4.4-7.7-7.1c-1.9-2.2-3.6-4.7-5-7.3
			c-0.5-1-1-2-1.4-3.1c-0.8-2.1-1.4-4.2-1.8-6.4c-0.4-2.3-0.6-4.6-0.5-6.9c0-0.1,0-0.2,0-0.3c0.3-7.1,2.8-12.2,4.2-13.1
			s2.5,3.1,9,10.2c0.8,0.9,1.8,1.9,2.8,2.9c1.7,1.6,3.5,3.4,5.8,5.2c1.2,1,2.6,2.1,4,3.2c0.8,0.6,1.6,1.2,2.4,1.8l1.1,0.8
			c0.3,0.7,0.5,1.4,0.6,2.2C75,30.4,74.8,33.2,73.9,35.7z"/>
		<path class="st1" d="M60.5,14.5c-1.9,1.8-4,3.3-6.4,4.4c-2.9,1.3-5.9,2.2-9,2.8c-0.4-2.3-0.6-4.6-0.5-6.9c0-0.1,0-0.2,0-0.3
			c2.6,0,5.2-0.2,7.7-0.8c1.9-0.4,3.7-1.1,5.4-2.1C58.6,12.5,59.5,13.5,60.5,14.5z"/>
		<path class="st1" d="M70.3,23c-2.1,3.8-4.8,7.2-8.1,9.9c-2.7,2.2-5.7,4.1-8.9,5.6c-1.9-2.2-3.6-4.7-5-7.3c3-0.9,5.8-2.1,8.5-3.6
			c3.7-1.9,6.9-4.6,9.5-7.8C67.5,20.8,68.9,21.9,70.3,23z"/>
		<ellipse class="st2" cx="93.8" cy="133.9" rx="93.8" ry="13.8"/>
		<path class="st3" d="M74.5,27.8L60.9,45.6c-3.8-2.8-10.7-8.8-14-17.5c-1.7-4.2-2.4-8.8-2.3-13.3c2.2,5,6.1,9,11.1,11.3
			c5.5,2.6,12,2.1,17-1.3l1.1,0.8C74.1,26.3,74.3,27,74.5,27.8z"/>
		<path class="st4" d="M52.9,126.8c0,0,3.8,1.4,3.8,2.2s-5.3-0.4-5.3-0.4s0.2,2.9-2.5,2.8c-1.6-0.1-2.9-1.1-3.4-2.6
			c0,0-5.5,2.1-7.7,0.7s2.5-2.3,2.5-2.3s-6.3-0.3-6.7-1.4s6.4-1.7,6.4-1.7L52.9,126.8z"/>
		<path class="st4" d="M126.5,139.3c0,0-4.7-0.6-5.4,0.8s6.4,1.7,6.4,1.7s3.2,3.8,6.5,3.9s3.3-3.8,3.3-3.8s8.2,3.1,11.2,2
			s-1.9-3.8-1.9-3.8s5.7,1.5,5.7,0s-8.8-2.5-8.8-2.5L126.5,139.3z"/>
		<path class="st5" d="M58.2,66.8c0,0-16.4-14-17.4-16.6s-0.4-5.8-0.1-9.1c0.5-4.9,1.5-4.8,1.5-5.4c0-1-2.1-1.2-3.2,0.7
			c-0.7,1.5-1.2,3.1-1.3,4.7c0,0-6.5-7.9-7.7-7.6s2.4,6.6,2.4,6.6s-6.7-4.3-7.8-3.6s4.6,5.5,4.6,5.5s-5.4-2.2-6.4-1.8
			s4.6,3.8,4.6,3.8s-4.2,0.2-4.2,1.3c0,0.6,5.2,2.2,6.1,2.6l8.2,3.9l12.9,27.4L58.2,66.8z"/>
		
			<linearGradient id="SVGID_1_" gradientUnits="userSpaceOnUse" x1="93.1143" y1="9.94" x2="93.1143" y2="138.2438" gradientTransform="matrix(1 0 0 -1 0 150)">
			<stop  offset="0" style="stop-color:#009579"/>
			<stop  offset="1" style="stop-color:#02B695"/>
		</linearGradient>
		<path class="st6" d="M143.5,137.6c-5.5,4.3-17,1.6-17,1.6s-6-12.7-10.7-15.6c-3.4-2-43.9-5.8-49.3-4.2c-5,1.4-13.5,7.3-13.5,7.3
			c-2.3,0.1-4.5,0-6.7-0.5c-2.2-0.4-4.2-1.2-6.1-2.4c0,0-0.7-18.8,0-33s22.4-55.3,31-62.4c3-2.4,6.2-4.5,9.5-6.4
			c10.4-5.9,24.2-11.7,30-10.1c8,2.1,26.2,28.5,33,62.7S143.5,137.6,143.5,137.6z"/>
		
			<ellipse transform="matrix(0.1824 -0.9832 0.9832 0.1824 31.3749 150.678)" class="st5" cx="106.3" cy="56.5" rx="17.8" ry="13.7"/>
		<path class="st7" d="M117,59c-0.2,0.8-0.4,1.6-0.7,2.3c-0.6,1.7-1.3,3.3-2.3,4.8c-1.6,2.6-4.1,4.5-6.9,5.6
			c-1.3,0.5-2.7,0.6-4.1,0.4l-0.8-0.1c-6.3-1.4-9.8-9.5-7.9-18s8.6-14.4,14.8-13S118.9,50.5,117,59z"/>
		
			<ellipse transform="matrix(0.2183 -0.9759 0.9759 0.2183 27.1711 146.6359)" class="st8" cx="105.1" cy="56.4" rx="15.1" ry="11.1"/>
		
			<linearGradient id="SVGID_2_" gradientUnits="userSpaceOnUse" x1="101.6085" y1="85.6468" x2="116.35" y2="85.6468" gradientTransform="matrix(1 0 0 -1 0 150)">
			<stop  offset="0" style="stop-color:#A43113"/>
			<stop  offset="1" style="stop-color:#6F160D"/>
		</linearGradient>
		<path class="st9" d="M116.3,61.3c-0.6,1.7-1.4,3.3-2.3,4.7c-1.6,2.6-4.1,4.5-6.9,5.6c-1.3,0.5-2.7,0.6-4.1,0.4
			c-1.8-2.3-1.9-6.3,0-9.9c0,0,0-0.1,0-0.1c0.5-0.9,1-1.6,1.7-2.4c2.5-2.8,6.1-4,8.8-2.5C115,58,116.1,59.6,116.3,61.3z"/>
		<path class="st10" d="M114,66.1c-1.6,2.6-4.1,4.5-6.9,5.6c-0.4-0.1-0.8-0.2-1.2-0.4c-2.4-1.3-2.9-5-1.1-8.2s5.1-4.8,7.5-3.5
			C114.2,60.7,114.8,63.3,114,66.1z"/>
		<path class="st8" d="M106.4,63.7c-0.3,1.2,0.4,2.3,1.5,2.6c1.2,0.3,2.3-0.4,2.6-1.5c0.3-1.2-0.4-2.3-1.5-2.6c0,0,0,0,0,0
			C107.8,61.8,106.7,62.5,106.4,63.7z"/>
		<path class="st8" d="M102.3,60.5c-0.2,0.8,0.3,1.6,1.1,1.9s1.6-0.3,1.9-1.1s-0.3-1.6-1.1-1.9c0,0,0,0,0,0
			C103.4,59.2,102.6,59.7,102.3,60.5z"/>
		<path class="st5" d="M84,56.7c-2.7,9.4-10,15.4-16.4,13.2S58.3,58.4,61,49s10.1-15.4,16.4-13.2S86.7,47.3,84,56.7z"/>
		<path class="st7" d="M83.7,57c-0.2,0.8-0.5,1.5-0.9,2.3c-0.7,1.6-1.6,3.1-2.6,4.5c-1.6,2.3-4,4-6.7,4.8c-1.2,0.3-2.4,0.3-3.6,0
			c-0.2-0.1-0.5-0.1-0.7-0.2c-5.3-2-7.5-10.4-4.8-18.7c2.7-8.3,9.2-13.4,14.5-11.3S86.4,48.8,83.7,57z"/>
		<ellipse transform="matrix(0.2691 -0.9631 0.9631 0.2691 2.6004 109.7668)" class="st8" cx="73.6" cy="53.2" rx="15.1" ry="9.8"/>
		
			<linearGradient id="SVGID_3_" gradientUnits="userSpaceOnUse" x1="44.4619" y1="99.7518" x2="57.4329" y2="99.7518" gradientTransform="matrix(0.993 0.1181 0.1181 -0.993 13.6985 154.55)">
			<stop  offset="0" style="stop-color:#A43113"/>
			<stop  offset="1" style="stop-color:#6F160D"/>
		</linearGradient>
		<path class="st11" d="M82.9,59.3c-0.7,1.6-1.6,3.1-2.6,4.5c-1.6,2.3-4,4-6.7,4.8c-1.2,0.3-2.4,0.3-3.6,0c-1.3-2.5-0.9-6.5,1.2-9.8
			l0.1-0.1c0.5-0.8,1.1-1.5,1.7-2.2c2.6-2.6,5.8-3.3,8-1.6C82.2,56,82.9,57.6,82.9,59.3z"/>
		<path class="st10" d="M80.3,63.8c-1.6,2.3-4,4-6.7,4.8c-0.4-0.1-0.7-0.3-1-0.5c-1.9-1.5-1.9-5.2,0-8.2s5-4.3,6.9-2.7
			C81,58.4,81.3,61.1,80.3,63.8z"/>
		<path class="st8" d="M73.8,60.6c-0.4,1,0,2.3,1,2.8c1,0.4,2.1-0.1,2.5-1.1c0,0,0-0.1,0-0.1c0.4-1,0-2.3-1-2.8
			c-1-0.4-2.1,0.1-2.4,1.1C73.9,60.4,73.9,60.5,73.8,60.6z"/>
		<path class="st8" d="M70.7,57c-0.3,0.7,0,1.6,0.7,2c0.7,0.3,1.4-0.1,1.7-0.7c0,0,0-0.1,0-0.1c0.3-0.8,0-1.6-0.7-2
			c-0.7-0.3-1.4,0.1-1.7,0.8C70.7,56.9,70.7,57,70.7,57z"/>
		<path class="st10" d="M105.5,101.1c-0.1-0.4-1.5-4.1-12.7-8c-7.4-2.6-15.2-3.7-23-3.4c0.2-1.8,0.5-3.6,0.9-5.4
			c1.5-6.7,5.6-16.8,15.9-13.6c11.2,3.5,16.3,19,18.1,26.4C105.1,99.1,105.4,100.5,105.5,101.1L105.5,101.1z"/>
		<path class="st12" d="M105.5,101.1c-0.1-0.4-1.5-4.1-12.7-8c-7.4-2.6-15.2-3.7-23-3.4l0.3-2.5c5.6-1.9,11.7-2.3,17.5-1
			c10.1,2.5,17,10.9,17,10.9l0.8,3.9L105.5,101.1z"/>
		<path class="st8" d="M95.7,78.4l-1.8,1.4l-3.8,2.9l-1-8.8L89,72.7L87.6,73l-3.1,0.6L83.6,72l-0.1-0.2L83.2,72l-2.4,1.6l-0.5-1.2
			L80,71.4l-0.7,1.3l-4.5,8.2v-5.8c1.6-2.7,4.5-4.5,7.7-4.5c3.4,0,6.7,1.2,9.3,3.4l0,0c0.6,0.4,1.1,0.9,1.6,1.4
			C94.2,76.3,95,77.3,95.7,78.4z"/>
		<polygon class="st8" points="68.6,89.5 66.6,77.3 77.4,90.1 		"/>
		<polygon class="st8" points="91.3,92.4 107.2,82.7 101.3,98.3 		"/>
		<path class="st10" d="M63.7,91.3l4.8-2.6c0,0,6.8-1.6,17.4,0.8c20.8,4.7,22.6,17.5,22.6,17.5s-5.2-12-23.7-15
			c-11.3-1.8-17.3,0.8-17.3,0.8L63.7,91.3z"/>
		<path class="st13" d="M95.7,78.4l-1.8,1.4c-0.9-2.4-2.6-4.5-4.7-5.9l-0.1-1.2L87.6,73c-0.8-0.4-1.6-0.6-2.5-0.8
			c-0.5-0.1-1-0.2-1.5-0.2l-0.1-0.2L83.2,72c-1,0-1.9,0.1-2.9,0.4L80,71.4l-0.7,1.3c-1.8,0.9-3.4,2.2-4.5,3.9v-1.6
			c1.6-2.7,4.5-4.5,7.7-4.5c3.4,0,6.7,1.2,9.3,3.4l0,0c0.5,0.5,1.1,1,1.6,1.4C94.2,76.3,95,77.3,95.7,78.4z"/>
		<path class="st14" d="M71.1,82.5l-0.9-1c0,0,2.2-12.9,12.2-12.9c13.5,0,19.9,17,19.9,17l-1.1,0.8c0,0-7.3-17-18.7-16.4
			C73.1,70.6,71.1,82.5,71.1,82.5z"/>
		<path class="st10" d="M121.8,38.8c-1.6-3-3.8-5.8-6.4-8c-4.4-3.8-6.7-4.2-6.7-4.2l6-0.1l-1.9-2.2c0,0,5.4,0.3,8.4,4
			s2.8,9.5,2.8,9.5l-1.8-2.3L121.8,38.8z"/>
		<path class="st0" d="M156.4,24c0,0.2,0,0.4-0.1,0.6c-0.3,3-1,6-2.1,8.8c-0.4,1-0.8,2-1.4,3c-1.2,2.3-2.5,4.4-4.1,6.3
			c-3.2,4-7,7.4-11.4,10.1c-4.7-2.5-8.3-6.7-10.2-11.7c-1.2-3.3-1.2-6.8,0-10.1c0,0,0,0,0-0.1c0.3-0.2,0.5-0.4,0.8-0.6
			c1-0.7,2-1.5,3-2.2s2.1-1.6,3.1-2.4c2.6-2.1,5.1-4.4,7.4-6.8c0.9-0.9,1.7-1.8,2.4-2.6c6-6.7,7.1-10.5,8.4-9.6s3.6,5.4,4.1,11.9
			C156.5,20.5,156.5,22.2,156.4,24z"/>
		
			<linearGradient id="SVGID_4_" gradientUnits="userSpaceOnUse" x1="135.2445" y1="89.8503" x2="181.5998" y2="89.8503" gradientTransform="matrix(1 0 0 -1 0 150)">
			<stop  offset="0" style="stop-color:#009579"/>
			<stop  offset="1" style="stop-color:#02B695"/>
		</linearGradient>
		<path class="st15" d="M137.3,65.6c0,0,19.9-8.2,21.7-10.4s2.2-5.9,3.4-9.1s-0.2-4.8,0.2-5.3c0.7-0.8,2,0.3,2.5,2.4
			c0.3,1.4,0.2,2.9-0.3,4.3c0,0,9.6-6.1,10.7-5.4s-5.4,6.1-5.4,6.1s9.3-2.8,10.1-1.8s-7.6,4.6-7.6,4.6s8.3-0.4,9.1,0.3
			s-8.1,2.8-8.1,2.8s5.3,0.9,4.9,2c-0.2,0.6-6.9,0.5-7.8,0.7l-9,1.2l-20.7,22.1c0,0-3.7-1-5.2-6.3S137.3,65.6,137.3,65.6z"/>
		<path class="st14" d="M126.5,139.2c0,0-6-12.7-10.7-15.6c-3.4-2-43.9-5.8-49.3-4.2c-5,1.4-13.5,7.3-13.5,7.3
			c-2.3,0.1-4.5,0-6.7-0.5c-2.2-0.4-4.2-1.2-6.1-2.4c0,0-0.7-18.8,0-33S62.4,35.6,71,28.5c3-2.4,6.2-4.5,9.5-6.4l7.2-1.8l0.7,13.1
			c0,0-11.6-1.9-18.2,1.2s-17,24.5-17.5,47s8.5,29.1,27.7,31.7s32.3,4.2,38.1,8.2S126.5,139.2,126.5,139.2z"/>
		<path class="st10" d="M87.6,22.2c0,0-4.1,1.4-8.1,3.1c-2.4,1.1-4.6,2.3-6.8,3.8l1.7-2.6l-2.1,0.4c1.2-2.4,3.1-4.4,5.4-5.6
			c3.3-1.5,6.9-2.3,10.5-2.1l-3.1,2.1L87.6,22.2z"/>
		<path class="st4" d="M119.7,19.9c-6.1-0.8-12.4,0-18.1,2.4c-5.5,2.3-10.1,6.2-13.3,11.1c0,0-6.6-12.3-0.7-20.8
			c1.6-2.5,4.4-4.1,7.3-4.2l-7.6-2.4c4.3-2.3,9.2-3,14-2c4.8,1.1,6.1,2.9,6.1,2.9l-3.7-7c0,0,10.9,0.8,15.1,7.2
			C121.9,11.8,119.7,19.9,119.7,19.9z"/>
		<path class="st16" d="M117.5,17c0,0-3.8-6-13-7s-13.7,3.1-13.7,3.1l6.7-0.6c-2.7,0.8-5.1,2.5-6.5,5c-1.5,2.5-2.3,5.4-2.1,8.3
			c0,0,4.6-7,12.7-8.6c4.7-0.9,9.6-0.6,14.2,0.9l-1.5-2.6L117.5,17z"/>
		<path class="st17" d="M142.1,86.5c-0.1-0.4-0.5-0.6-0.8-0.5c-0.3,0.1-0.5,0.3-0.5,0.6c-0.2,4.4-0.4,11.7-0.4,20.4
			c0.1,7.7,0.3,15,0.4,20.1c0,0.4,0.3,0.7,0.7,0.6c0.3,0,0.6-0.3,0.6-0.6c0.8-5.6,1.8-13.5,2.1-20.2
			C144.7,99.4,143.2,91.3,142.1,86.5z"/>
		<path class="st17" d="M142.2,131.9c0,1.7-0.3,3.2-0.7,3.2s-0.7-1.4-0.7-3.2s0.3-3.2,0.7-3.2S142.2,130.1,142.2,131.9z"/>
		<path class="st14" d="M72.9,96.6c0,0,6-1.7,14.3,1s10.3,5.3,10.3,5.3L72.9,96.6z"/>
		<path class="st1" d="M152.8,36.5c-1.2,2.3-2.5,4.4-4.1,6.3c-1.4-0.3-4.8-1.5-9.7-5.3c-6.8-5.2-8-9.3-8-9.3
			c1.1-0.8,2.1-1.6,3.1-2.4c2.3,3.1,5.1,5.7,8.3,7.7C145.6,35.2,149.2,36.3,152.8,36.5z"/>
		<path class="st1" d="M156.4,24c-2.5,0.3-5,0.1-7.4-0.6c-2.8-0.8-5.4-2.3-7.5-4.4c0.9-0.9,1.7-1.8,2.4-2.6c1.8,0.9,3.8,1.6,5.8,2
			c2.2,0.5,4.5,0.7,6.8,0.3C156.5,20.5,156.5,22.2,156.4,24z"/>
		<path class="st3" d="M156.3,24.6c-0.3,3-1,6-2.1,8.8c-4.8,12.5-16.8,19.4-16.8,19.4c-4.7-2.5-8.3-6.7-10.2-11.7
			c-1.2-3.3-1.2-6.8,0-10.1l0.8-0.6c0,0,11.6,2.9,20.2-0.5C151.3,28.8,154.1,27,156.3,24.6z"/>
		<path class="st18" d="M132.2,31.7c-0.3,0.2-0.7,0-0.9-0.3c-0.1-0.3-0.1-0.6,0.2-0.8c3.3-2.5,6.3-5.2,9.2-8.1
			c2.8-2.9,5.1-5.7,6.9-7.8c0.2-0.3,0.6-0.4,0.9-0.1c0.3,0.2,0.3,0.6,0.2,0.8c-1.8,3.5-4,6.7-6.7,9.5
			C139.1,27.8,135.8,30.1,132.2,31.7z"/>
		<path class="st18" d="M52.1,10.3c-0.1-0.4,0-0.8,0.4-0.9c0.3-0.1,0.6,0,0.8,0.2c1.9,2.7,4.1,5.2,6.4,7.6c2.2,2.2,4.6,4.3,7.1,6.3
			c0.3,0.2,0.3,0.7,0.1,1c-0.2,0.2-0.5,0.3-0.8,0.2c-2.7-1.4-5.1-3-7.4-5C55.8,17.1,53.6,13.9,52.1,10.3z"/>
	</g>
</g>
</svg>
