<?xml version="1.0" encoding="utf-8"?>
<!-- Generator: Adobe Illustrator 22.1.0, SVG Export Plug-In . SVG Version: 6.00 Build 0)  -->
<svg version="1.1" id="Layer_1" xmlns="http://www.w3.org/2000/svg" xmlns:xlink="http://www.w3.org/1999/xlink" x="0px" y="0px"
	 viewBox="0 0 162.7 173.3" style="enable-background:new 0 0 162.7 173.3;" xml:space="preserve">
<style type="text/css">
	.st0{display:none;opacity:0.44;fill:#9B9B9B;enable-background:new    ;}
	.st1{fill:#FFBF59;}
	.st2{opacity:0.13;fill:#590800;enable-background:new    ;}
	.st3{fill:#B70400;}
	.st4{fill:url(#SVGID_1_);}
	.st5{opacity:0.5;fill:#B70400;enable-background:new    ;}
	.st6{fill:url(#SVGID_2_);}
	.st7{fill:#CAE7EF;}
	.st8{fill:#FFFFFF;}
	.st9{fill:url(#SVGID_3_);}
	.st10{fill:#590800;}
	.st11{fill:url(#SVGID_4_);}
	.st12{opacity:0.88;fill:#B70400;enable-background:new    ;}
	.st13{fill:#5B1800;}
	.st14{opacity:0.43;fill:#FFFFFF;enable-background:new    ;}
	.st15{fill:#8C130D;}
	.st16{fill:#FF5B57;}
	.st17{fill:#8C0000;}
	.st18{opacity:0.26;fill:#FFFFFF;enable-background:new    ;}
</style>
<title>Asset 1</title>
<g id="Layer_2_1_">
	<g id="monsters">
		<path class="st0" d="M162.7,167.1c0,3.4-36.4,6.2-81.4,6.2S0,170.5,0,167.1s36.4-6.2,81.4-6.2S162.7,163.6,162.7,167.1z"/>
		<path class="st1" d="M33.3,28.6l-4.7,12.2l-1.9,5c-3.3-2.5-5.9-5.7-7.8-9.4c-2.8-5.8-4.2-16.4-1.5-16.7l0,0c2.7-0.2,4.5,4.5,8,6.8
			C27.8,28,30.5,28.7,33.3,28.6z"/>
		<path class="st2" d="M28.6,40.8l-1.9,5c-3.3-2.5-5.9-5.7-7.8-9.4c-2.8-5.8-4.2-16.4-1.5-16.7c1.1,4.9,2.9,9.5,5.4,13.9
			C25.8,38.8,27.8,40.3,28.6,40.8z"/>
		<path class="st1" d="M98.8,20c-0.1,0.8-0.3,1.4-0.4,2c-0.2,1-0.4,1.8-0.6,2.3c-0.1,0.4-0.3,0.8-0.4,1.2l-14.1-3.7
			c0,0,0.5-0.4,1.3-1c2-1.6,3.9-3.4,5.4-5.5c1.1-1.9,2.3-3.7,3.6-5.4c0.6-0.9,1.6-1.4,2.6-1.4C98.6,8.5,99.5,15.6,98.8,20z"/>
		<path class="st2" d="M98.4,22c-0.2,1-0.4,1.8-0.6,2.3l-13.2-3.6c2-1.6,3.9-3.4,5.4-5.5c1.1-1.9,2.3-3.7,3.6-5.4
			c0.2,2.1,0.6,4.1,1,6.2C95,18.4,96.4,20.6,98.4,22z"/>
		<path class="st3" d="M113.4,76c0,0,10,15.1,11.5,17.4s2.4,2.9,6.4,9c2.1,3.2,2.6,7.5,1.9,7.7s-1-2.3-1.6-3.7
			c-0.4-0.8-0.9-1.6-1.5-2.3c0.6,1.5,1,3.1,1.2,4.8c0.6,3.6,0.1,5-0.6,5s-0.5-2.2-1.1-4.8c-0.3-1.5-0.9-2.9-1.5-4.3
			c0.5,1.4,0.6,2.9,0.5,4.4c-0.1,3.2-0.1,4.5-0.9,4.5s-0.6-3.1-0.8-4.4s-0.6-4-0.6-4c0,1.2,0,2.5-0.1,3.7c-0.2,1.4-0.3,3.2-0.9,3.3
			s-0.5-2.7-0.6-4s-0.2-4.2-0.5-4.4s-1.6,1.2-1.9,2.3s-0.8,1.8-1.3,1.5s0.1-2.5,0.6-4s2.4-4.9,2.3-5.4s-13.3-11.8-13.3-11.8
			S111,77.3,113.4,76z"/>
		
			<linearGradient id="SVGID_1_" gradientUnits="userSpaceOnUse" x1="13.0423" y1="70.3594" x2="36.09" y2="70.3594" gradientTransform="matrix(1 0 0 -1 0 176)">
			<stop  offset="0" style="stop-color:#F93D31"/>
			<stop  offset="1" style="stop-color:#B70400"/>
		</linearGradient>
		<path class="st4" d="M33.2,86.7c0,0-10,15.1-11.5,17.4s-2.4,2.9-6.4,9c-2.1,3.2-2.6,7.5-1.9,7.7s1-2.4,1.6-3.7
			c0.4-0.8,0.9-1.6,1.5-2.3c-0.6,1.5-1,3.1-1.2,4.8c-0.6,3.6-0.1,5,0.6,4.9c0.7-0.1,0.5-2.2,1.1-4.8c0.3-1.5,0.9-2.9,1.5-4.3
			c-0.5,1.4-0.6,2.9-0.5,4.4c0.1,3.2,0.1,4.5,0.9,4.5s0.6-3.1,0.8-4.4s0.6-4,0.6-4c0,1.2,0,2.5,0.1,3.7c0.2,1.4,0.3,3.2,0.9,3.3
			s0.5-2.7,0.6-4s0.2-4.2,0.5-4.4s1.6,1.2,1.9,2.3s0.8,1.8,1.3,1.5s-0.1-2.5-0.6-4s-2.4-4.9-2.3-5.4s13.3-11.8,13.3-11.8
			S35.6,88,33.2,86.7z"/>
		<polygon class="st5" points="34.5,91.7 22.8,109.1 35.8,97.5 		"/>
		
			<linearGradient id="SVGID_2_" gradientUnits="userSpaceOnUse" x1="71.1541" y1="159.6361" x2="71.1541" y2="10.56" gradientTransform="matrix(1 0 0 -1 0 176)">
			<stop  offset="0" style="stop-color:#F93D31"/>
			<stop  offset="1" style="stop-color:#B70400"/>
		</linearGradient>
		<path class="st6" d="M115.3,97.7c-1.3,11.2-4.1,22.9-4.4,36.6s-9.6,25.8-9.6,25.8h-3.8c0-0.1,0-0.2,0-0.3
			c-0.1-1.6-0.9-9.8-5.3-16.1c-4.9-6.9-26.9-1.7-31.9,3s-13,17.4-13,17.4l-2.3,1.3c0,0-7.5-15.9-7.4-43.7s-6.8-36.9-10.4-56.5
			c-1.7-9.4-2.2-20.8,2.1-30.2l0,0l0,0c3.8-8.2,11.1-14.9,24.3-17.5c2.2-0.4,4.4-0.7,6.7-0.9c0.9-0.1,1.8-0.1,2.8-0.2
			c23-1,38.7,8.1,41.4,11.4c0.2,0.2,0.3,0.4,0.4,0.7c0.5,2.4,0.3,5.9-1.6,12.8s-0.4,18.8,7.3,29.8S116.6,86.6,115.3,97.7z"/>
		<path class="st3" d="M44.9,165.4c-0.1,2.7,8.5,7.3,9.5,6.7s-4.1-4.1-4.1-4.1s7.7,1.9,8.9,1.4s-5-3.5-5-3.5s8,0,8.3-1.3
			s-15.3-0.4-15.3-0.4L44.9,165.4z"/>
		<path class="st3" d="M97.5,159.8c0,0-12,0.8-12.2,1.8s9.7,0.3,9.7,0.3s-7.6,2.4-6.7,3.5s9.5-2.1,9.5-2.1s-3.6,4.9-2,5.4
			s5.6-8.7,5.6-8.7L97.5,159.8z"/>
		<ellipse class="st3" cx="62.3" cy="62.5" rx="17.8" ry="23.9"/>
		<path class="st3" d="M103,57.5c0.1,3.8-1.1,7.5-3.4,10.5c-0.3,0.4-0.6,0.8-1,1.1c-0.6,0-1.2,0.1-1.8,0.2l-0.5,0.1l0,0
			c-0.9,0.1-1.9,0.3-3,0.4s-1.8,0.3-2.6,0.5l-1.4,0.3l-0.8,0.2c-0.5-0.3-0.9-0.5-1.3-0.9c-3.1-2.5-5.2-7.1-5.2-12.3
			c0-7.9,4.7-14.3,10.6-14.3S103,49.6,103,57.5z"/>
		<ellipse class="st7" cx="63.1" cy="62.5" rx="15.8" ry="21.5"/>
		<ellipse class="st8" cx="63.8" cy="62.5" rx="15.1" ry="20.5"/>
		
			<linearGradient id="SVGID_3_" gradientUnits="userSpaceOnUse" x1="61.14" y1="113.53" x2="78.22" y2="113.53" gradientTransform="matrix(1 0 0 -1 0 176)">
			<stop  offset="0" style="stop-color:#A43113"/>
			<stop  offset="1" style="stop-color:#6F160D"/>
		</linearGradient>
		<ellipse class="st9" cx="69.7" cy="62.5" rx="8.5" ry="11.6"/>
		<path class="st10" d="M77.1,62.5c0,4.6-2.7,8.3-6.1,8.3s-6.1-3.7-6.1-8.3s2.7-8.3,6.1-8.3S77.1,57.9,77.1,62.5z"/>
		<circle class="st8" cx="61.6" cy="62.5" r="4.8"/>
		<circle class="st8" cx="69.3" cy="64.8" r="1.8"/>
		<path class="st7" d="M100.6,59.1c0,1-0.1,1.9-0.3,2.9c-0.3,2.1-1.2,4.1-2.5,5.8c-0.4,0.6-0.9,1.1-1.4,1.5h-0.5l0,0
			C95,69.4,94,69.5,93,69.7l-2.6,0.4L89,70.5c-0.6-0.3-1.1-0.6-1.6-1c-2.6-2-4.4-5.9-4.4-10.4c0-6.6,3.9-12,8.8-12
			c4.1,0,7.6,3.9,8.5,9.1C100.5,57.1,100.6,58.1,100.6,59.1z"/>
		<path class="st8" d="M100.6,59.1c0,1-0.1,1.9-0.3,2.9c-0.4,2.1-1.3,4.1-2.7,5.8c-0.5,0.6-1.1,1.1-1.8,1.6l0,0
			C95,69.4,94,69.6,93,69.8l-2.6,0.4c-0.8-0.2-1.5-0.6-2.2-1.1c-2.2-1.8-3.6-4.3-4.1-7.1c-0.1-0.5-0.2-1.1-0.2-1.6l0,0
			c0-0.4-0.1-0.9-0.1-1.3c0-6.3,3.8-11.4,8.4-11.4c3.9,0,7.2,3.6,8.1,8.5C100.5,57.1,100.6,58.1,100.6,59.1z"/>
		
			<linearGradient id="SVGID_4_" gradientUnits="userSpaceOnUse" x1="84.15" y1="115.635" x2="93.66" y2="115.635" gradientTransform="matrix(1 0 0 -1 0 176)">
			<stop  offset="0" style="stop-color:#A43113"/>
			<stop  offset="1" style="stop-color:#6F160D"/>
		</linearGradient>
		<path class="st11" d="M93.7,60.4c0,3.6-2.1,6.5-4.8,6.5s-4.8-2.9-4.8-6.5s2.1-6.5,4.8-6.5S93.7,56.8,93.7,60.4z"/>
		<path class="st10" d="M91.4,60.6c0,2.6-1.5,4.6-3.4,4.6s-3.4-2.1-3.4-4.6S86.1,56,88,56S91.4,58.1,91.4,60.6z"/>
		<path class="st8" d="M88.4,60.9c0,1.3-1,2.3-2.3,2.3c-1.3,0-2.3-1-2.3-2.3c0-1.3,1-2.3,2.3-2.3c0,0,0,0,0,0
			C87.4,58.6,88.4,59.6,88.4,60.9z"/>
		<path class="st8" d="M91.2,62.2c0,0.6-0.4,1-1,1s-1-0.4-1-1s0.4-1,1-1S91.2,61.7,91.2,62.2z"/>
		<path class="st10" d="M83,46.9c0,0,1.6-5.5,8.8-10.8s11.9-6.5,11.9-6.5l-3.7,4.1l6.2-1.5c-0.3,2.6-1.4,5.1-3,7.2
			c-2.9,3.4-11.9,4.8-16.7,8.3c-1.1,0.8-2.2,1.7-3.2,2.6l1.8-4.3L83,46.9z"/>
		<path class="st10" d="M78.5,50.6c0,0-6.4-4.2-13.1-5.4s-16.7-1.8-16.7-1.8l3.6-1.7c-1.2-0.5-2.2-1.3-3.1-2.3
			c-1.3-1.5-3.4-6.5-3.4-6.5s7.2,1,15.2,2.2c11.3,1.8,16.7,8.4,16.7,8.4l-2.3-0.1C75.6,43.5,78.2,47.9,78.5,50.6z"/>
		<path class="st12" d="M97.5,159.8c-0.1-1.6-0.9-9.8-5.3-16.1c-4.9-6.9-26.9-1.7-31.9,3s-13,17.4-13,17.4l-2.3,1.3
			c0,0-7.5-15.9-7.4-43.7s-6.8-36.9-10.4-56.5c-1.7-9.4-2.2-20.8,2.1-30.2C29,36.5,24.4,58.9,34.4,76c10.4,17.7,17.2,54.4,30.5,57.2
			s25.3-2.8,32.2,3.1S97.5,159.8,97.5,159.8z"/>
		<path class="st5" d="M78.2,110.6c0,0,4,6.9,10.5,7.3c12.3,0.7,15.4-16.4,15.4-16.4s-2.2,9.8-15.9,11.4
			C81.4,113.7,78.2,110.6,78.2,110.6z"/>
		<path class="st13" d="M78.2,110.6c5.3,2.1,11.1,2.1,16.4,0c9-3.4,10.2-12.8,10.2-12.8s-0.5,10.3-9.2,14.4S78.2,110.6,78.2,110.6z"
			/>
		<path class="st14" d="M82,110.1c0,0,10.1,0.2,15.6-5.8c3.3-3.7,5.1-8.5,5-13.4c1.2,5.2,0,10.6-3.2,14.8
			C93.8,112.8,82,110.1,82,110.1z"/>
		<path class="st14" d="M103,88.6c0.1,1-0.1,1.8-0.4,1.9s-0.6-0.8-0.7-1.8s0.1-1.8,0.4-1.9S102.9,87.6,103,88.6z"/>
		<polygon class="st8" points="80.1,77.1 80.7,69.5 85,75.2 		"/>
		<polygon class="st8" points="104.4,72.1 106.3,66.8 108,72.8 		"/>
		<path class="st10" d="M60.3,89.5c0,0,13.7-11.9,28.9-15.5s19.3-0.9,19.3-0.9l-6.1,11.3l3-8.4c0,0-3.5-1.8-15.8,0.5
			C77.5,78.7,60.3,89.5,60.3,89.5z"/>
		<path class="st15" d="M85.4,43.6c1.4-1.8,3-3.5,4.7-5.1c2.1-1.9,4.5-3.4,7.1-4.7l-1.4,2l5.9-1.3c-3,1.2-6,2.7-8.7,4.5
			c-2.5,1.6-4.6,3.7-6.5,6l0.3-1.8L85.4,43.6z"/>
		<path class="st15" d="M74.7,41.8c-2.8-2.5-6.2-4.2-9.8-5.1c-4.7-1.2-9.6-2-14.4-2.4l5.4,2.2l-6.6-1.2c3.1,1.7,6.5,2.9,10,3.6
			c5.1,1.3,10.1,3,14.9,5.2l-1.6-3L74.7,41.8z"/>
		<path class="st3" d="M102.3,68.9c-1.4,0-2.8,0.1-4.1,0.2c-0.5,0.1-1.2,0.1-1.8,0.2h-0.5l0,0C95,69.4,94,69.5,93,69.7l-2.6,0.4
			L89,70.5l-0.8,0.2C86,71,85,71.2,85,71.2c0.6-0.6,1.3-1.1,2-1.5l0.5-0.3l0.8-0.4c1.4-0.7,2.8-1.1,4.3-1.4c1.7-0.3,3.5-0.3,5.2,0
			h0.2c0.5,0.1,0.9,0.2,1.4,0.3C100.3,68.2,101.3,68.5,102.3,68.9z"/>
		<path class="st16" d="M40,78.4c0.5,3.6-0.2,6.7-1.7,6.9s-3-2.6-3.6-6.2s0.2-6.7,1.7-6.9S39.5,74.8,40,78.4z"/>
		<path class="st17" d="M40.6,78.4c0.5,3.6-0.2,6.7-1.7,6.9s-3-2.6-3.6-6.2s0.2-6.7,1.7-6.9S40.1,74.7,40.6,78.4z"/>
		<path class="st16" d="M44.2,108.9c0.3,2.4-0.2,4.5-1.1,4.6s-2-1.7-2.4-4.1s0.2-4.5,1.1-4.6S43.8,106.5,44.2,108.9z"/>
		<path class="st17" d="M44.6,108.9c0.3,2.4-0.2,4.4-1.1,4.6s-2-1.7-2.4-4.1s0.2-4.5,1.1-4.6S44.3,106.5,44.6,108.9z"/>
		<path class="st16" d="M43.4,124.3c0.3,2.4-0.2,4.5-1.1,4.6s-2-1.7-2.4-4.1s0.2-4.5,1.1-4.6S43,121.9,43.4,124.3z"/>
		<path class="st17" d="M43.8,124.3c0.3,2.4-0.2,4.5-1.1,4.6s-2-1.7-2.4-4.1s0.2-4.5,1.1-4.6S43.5,121.9,43.8,124.3z"/>
		<path class="st16" d="M48.2,117.7c0.2,1.6-0.1,3-0.8,3.1s-1.4-1.1-1.6-2.8s0.1-3,0.8-3.1S48,116.1,48.2,117.7z"/>
		<path class="st17" d="M48.5,117.7c0.2,1.6-0.1,3-0.8,3.1s-1.4-1.1-1.6-2.8s0.1-3,0.8-3.1S48.3,116.1,48.5,117.7z"/>
		<path class="st16" d="M31.5,46.8c-0.2,1.6-0.9,2.9-1.5,2.8s-1-1.5-0.8-3.1s0.9-2.9,1.5-2.8S31.7,45.2,31.5,46.8z"/>
		<path class="st17" d="M31.8,46.9c-0.2,1.6-0.9,2.9-1.5,2.8s-1-1.5-0.8-3.1s0.9-2.9,1.5-2.8S32,45.3,31.8,46.9z"/>
		<path class="st16" d="M49.2,94c0.8,5.4-0.3,10-2.5,10.3s-4.5-3.8-5.3-9.2s0.4-10,2.5-10.3S48.5,88.6,49.2,94z"/>
		<path class="st17" d="M50.1,93.8c0.8,5.4-0.3,10-2.5,10.3s-4.5-3.8-5.3-9.2s0.3-10,2.5-10.3S49.3,88.4,50.1,93.8z"/>
		<path class="st16" d="M34.8,60.5c0.5,3.8-0.3,7.1-1.8,7.3s-3.2-2.7-3.7-6.5s0.2-7,1.8-7.3C32.6,53.8,34.2,56.8,34.8,60.5z"/>
		<path class="st17" d="M35.4,60.5c0.5,3.8-0.2,7-1.8,7.3s-3.2-2.7-3.7-6.5s0.3-7,1.8-7.3C33.2,53.8,34.9,56.7,35.4,60.5z"/>
		<path class="st18" d="M104.4,27.8C94,30,83.3,30.6,72.7,29.6c-18.1-2.1-27.4-9.1-27.4-9.1l8.3-3c2.2-0.4,4.4-0.7,6.7-0.9
			c0.9-0.1,1.8-0.1,2.8-0.2C86,15.4,101.7,24.5,104.4,27.8z"/>
		<path class="st10" d="M40,22.7c3.7-6.6,9-12.1,15.4-16.1c13.3-7.8,21.8-6.6,21.8-6.6l-9.9,5.1c2.2-0.5,4.5-0.9,6.7-1
			c6.5-0.5,8.8,0.6,8.8,0.6l-14.9,5c2.3-0.3,4.6-0.3,6.8-0.1c4.7,0.3,6.3,1,6.3,1l-10.9,5.9C70.1,16.5,48.9,17.6,40,22.7z"/>
	</g>
</g>
</svg>
