<svg xmlns="http://www.w3.org/2000/svg" xmlns:xlink="http://www.w3.org/1999/xlink" viewBox="0 0 187.54 147.76"><defs><style>.cls-1{fill:#ff9e12;}.cls-2{fill:#f93d31;}.cls-3{fill:#9b9b9b;opacity:0.44;}.cls-11,.cls-4{fill:#590800;}.cls-4{opacity:0.13;}.cls-5{fill:#443551;}.cls-6{fill:#009579;}.cls-7{fill:url(#åçûìßííûé_ãðàäèåíò_22);}.cls-8{fill:#cae7ef;}.cls-18,.cls-19,.cls-9{fill:#fff;}.cls-10{fill:url(#åçûìßííûé_ãðàäèåíò_3);}.cls-12{fill:url(#åçûìßííûé_ãðàäèåíò_3-2);}.cls-13{fill:#8b1229;}.cls-14{fill:#8ecedd;}.cls-15{fill:#02896f;}.cls-16{fill:url(#åçûìßííûé_ãðàäèåíò_22-2);}.cls-17{fill:#725f82;opacity:0.72;}.cls-18{opacity:0.43;}.cls-19{opacity:0.67;}</style><linearGradient id="åçûìßííûé_ãðàäèåíò_22" x1="93.13" y1="140.06" x2="93.13" y2="11.76" gradientUnits="userSpaceOnUse"><stop offset="0" stop-color="#009579"/><stop offset="1" stop-color="#02b695"/></linearGradient><linearGradient id="åçûìßííûé_ãðàäèåíò_3" x1="101.62" y1="64.35" x2="116.35" y2="64.35" gradientUnits="userSpaceOnUse"><stop offset="0" stop-color="#a43113"/><stop offset="1" stop-color="#6f160d"/></linearGradient><linearGradient id="åçûìßííûé_ãðàäèåíò_3-2" x1="26.55" y1="77.97" x2="39.52" y2="77.97" gradientTransform="translate(52.46 -19.81) rotate(6.78)" xlink:href="#åçûìßííûé_ãðàäèåíò_3"/><linearGradient id="åçûìßííûé_ãðàäèåíò_22-2" x1="135.24" y1="60.15" x2="181.59" y2="60.15" xlink:href="#åçûìßííûé_ãðàäèåíò_22"/></defs><title>Asset 3</title><g id="Layer_2" data-name="Layer 2"><g id="monsters"><path class="cls-1" d="M73.9,35.71A22.05,22.05,0,0,1,63.72,47.44s-1.1-.64-2.78-1.87a48.42,48.42,0,0,1-7.65-7.07,38.31,38.31,0,0,1-5-7.34,32.55,32.55,0,0,1-1.39-3.11,35.25,35.25,0,0,1-1.79-6.37,33.16,33.16,0,0,1-.52-6.93c0-.09,0-.17,0-.26.27-7.09,2.8-12.16,4.15-13.07s2.54,3.12,9,10.2c.84.91,1.76,1.87,2.78,2.89,1.65,1.62,3.55,3.38,5.77,5.23q1.86,1.57,4,3.24c.77.59,1.57,1.19,2.41,1.79l1.11.82a12.12,12.12,0,0,1,.62,2.17A15.1,15.1,0,0,1,73.9,35.71Z"/><path class="cls-2" d="M60.52,14.51a21.4,21.4,0,0,1-6.44,4.39,39,39,0,0,1-9,2.78,33.16,33.16,0,0,1-.52-6.93c0-.09,0-.17,0-.26a34.54,34.54,0,0,0,7.72-.77,20.4,20.4,0,0,0,5.43-2.1C58.58,12.53,59.5,13.49,60.52,14.51Z"/><path class="cls-2" d="M70.34,23a34,34,0,0,1-8.14,9.94,41.43,41.43,0,0,1-8.91,5.58,38.31,38.31,0,0,1-5-7.34,42.34,42.34,0,0,0,8.51-3.65,30.26,30.26,0,0,0,9.5-7.77Q68.15,21.32,70.34,23Z"/><ellipse class="cls-3" cx="93.77" cy="133.92" rx="93.77" ry="13.84"/><path class="cls-4" d="M74.48,27.76,60.94,45.57c-3.84-2.85-10.7-8.85-14-17.52a33.9,33.9,0,0,1-2.31-13.3A22.57,22.57,0,0,0,55.73,26.09a17,17,0,0,0,17-1.32l1.11.82A12.12,12.12,0,0,1,74.48,27.76Z"/><path class="cls-5" d="M52.9,126.76s3.75,1.41,3.75,2.18-5.3-.41-5.3-.41.24,2.94-2.47,2.76a3.73,3.73,0,0,1-3.36-2.65s-5.48,2.06-7.72.71,2.54-2.3,2.54-2.3-6.31-.29-6.66-1.41,6.38-1.71,6.38-1.71Z"/><path class="cls-5" d="M126.53,139.25s-4.67-.61-5.38.81,6.36,1.66,6.36,1.66,3.18,3.77,6.48,3.89,3.32-3.77,3.32-3.77,8.23,3.06,11.17,2-1.95-3.78-1.95-3.78,5.72,1.52,5.72,0-8.76-2.46-8.76-2.46Z"/><path class="cls-6" d="M58.21,66.81s-16.43-14-17.39-16.63-.41-5.79-.07-9.11c.51-4.92,1.51-4.8,1.51-5.38,0-1-2.12-1.16-3.22.71a13,13,0,0,0-1.33,4.68s-6.45-7.91-7.66-7.62,2.41,6.59,2.41,6.59-6.72-4.29-7.75-3.57,4.6,5.46,4.6,5.46-5.4-2.2-6.37-1.77S27.51,44,27.51,44s-4.2.23-4.18,1.32c0,.59,5.19,2.22,6.05,2.62l8.19,3.87L50.46,79.24Z"/><path class="cls-7" d="M143.49,137.59c-5.49,4.33-17,1.65-17,1.65s-6-12.73-10.74-15.55c-3.4-2-43.93-5.76-49.34-4.24-5,1.43-13.55,7.31-13.55,7.31a26.33,26.33,0,0,1-6.72-.47,19.25,19.25,0,0,1-6.12-2.36s-.71-18.85,0-33S62.44,35.58,71,28.51a71.86,71.86,0,0,1,9.5-6.36c10.36-5.95,24.17-11.68,30-10.14,8,2.12,26.19,28.51,33,62.68S143.49,137.59,143.49,137.59Z"/><ellipse class="cls-6" cx="106.28" cy="56.47" rx="17.85" ry="13.69" transform="translate(31.38 150.67) rotate(-79.49)"/><path class="cls-8" d="M117,59a19.55,19.55,0,0,1-.67,2.33A19.33,19.33,0,0,1,114,66.08a14,14,0,0,1-6.93,5.58,9.13,9.13,0,0,1-4.07.44l-.82-.14c-6.28-1.41-9.81-9.49-7.9-18S102.84,39.58,109.11,41,118.93,50.46,117,59Z"/><ellipse class="cls-9" cx="105.11" cy="56.35" rx="15.11" ry="11.1" transform="translate(27.18 146.63) rotate(-77.39)"/><path class="cls-10" d="M116.35,61.35A19.33,19.33,0,0,1,114,66.08a14,14,0,0,1-6.93,5.58,9.13,9.13,0,0,1-4.07.44c-1.81-2.34-1.9-6.31,0-9.91a.47.47,0,0,1,0-.1,12.11,12.11,0,0,1,1.67-2.37c2.54-2.85,6.09-4,8.76-2.55A5.89,5.89,0,0,1,116.35,61.35Z"/><path class="cls-11" d="M114,66.08a14,14,0,0,1-6.93,5.58,3.54,3.54,0,0,1-1.23-.39c-2.37-1.28-2.87-5-1.12-8.17s5.09-4.81,7.46-3.52C114.16,60.65,114.83,63.35,114,66.08Z"/><path class="cls-9" d="M106.36,63.68A2.16,2.16,0,1,0,109,62.15,2.16,2.16,0,0,0,106.36,63.68Z"/><path class="cls-9" d="M102.33,60.49a1.51,1.51,0,1,0,1.85-1.06A1.52,1.52,0,0,0,102.33,60.49Z"/><path class="cls-6" d="M84,56.73c-2.72,9.43-10,15.35-16.39,13.21S58.3,58.41,61,49s10.06-15.36,16.4-13.21S86.68,47.29,84,56.73Z"/><path class="cls-8" d="M83.72,57.05a22.29,22.29,0,0,1-.86,2.25,21.44,21.44,0,0,1-2.61,4.46,12.83,12.83,0,0,1-6.72,4.82,7.24,7.24,0,0,1-3.61,0c-.23-.06-.47-.14-.7-.22-5.32-2-7.45-10.44-4.77-18.73s9.16-13.35,14.49-11.3S86.4,48.75,83.72,57.05Z"/><ellipse class="cls-9" cx="73.62" cy="53.16" rx="15.05" ry="9.81" transform="translate(2.61 109.77) rotate(-74.39)"/><path class="cls-12" d="M82.86,59.3a21.44,21.44,0,0,1-2.61,4.46,12.83,12.83,0,0,1-6.72,4.82,7.24,7.24,0,0,1-3.61,0c-1.3-2.51-.91-6.45,1.19-9.83l.06-.1a11.5,11.5,0,0,1,1.74-2.17c2.56-2.57,5.79-3.35,8-1.63A5.93,5.93,0,0,1,82.86,59.3Z"/><path class="cls-11" d="M80.25,63.76a12.83,12.83,0,0,1-6.72,4.82,3.08,3.08,0,0,1-1-.52c-1.93-1.52-1.93-5.22,0-8.23s5-4.25,6.93-2.72C81,58.37,81.29,61.13,80.25,63.76Z"/><path class="cls-9" d="M73.85,60.57a2.21,2.21,0,0,0,1,2.79,1.9,1.9,0,0,0,2.5-1.24,2.22,2.22,0,0,0-1-2.79A1.88,1.88,0,0,0,73.85,60.57Z"/><path class="cls-9" d="M70.7,57a1.53,1.53,0,0,0,.71,1.95,1.32,1.32,0,0,0,1.75-.87,1.54,1.54,0,0,0-.72-2A1.32,1.32,0,0,0,70.7,57Z"/><path class="cls-11" d="M105.5,101.09c-.13-.44-1.53-4.07-12.71-8a62.8,62.8,0,0,0-23-3.42,40.75,40.75,0,0,1,.88-5.38c1.53-6.68,5.59-16.82,15.86-13.58,11.24,3.54,16.3,19,18.11,26.42.49,2,.75,3.41.82,3.88Z"/><path class="cls-13" d="M105.5,101.09c-.13-.44-1.53-4.07-12.71-8a62.8,62.8,0,0,0-23-3.42l.32-2.5a32.74,32.74,0,0,1,17.53-1c10.14,2.47,17,10.93,17,10.93l.82,3.88Z"/><path class="cls-9" d="M95.73,78.4l-1.81,1.39-3.77,2.89-1-8.82-.12-1.15L87.59,73l-3.13.56L83.64,72l-.12-.23-.31.21-2.4,1.59-.47-1.22-.36-.9-.71,1.3-4.51,8.17V75.1a9.11,9.11,0,0,1,7.7-4.51A14.74,14.74,0,0,1,91.73,74s0,0,0,0a17.9,17.9,0,0,1,1.6,1.44A17,17,0,0,1,95.73,78.4Z"/><polygon class="cls-9" points="68.64 89.52 66.64 77.26 77.43 90.1 68.64 89.52"/><polygon class="cls-9" points="91.34 92.36 107.16 82.68 101.27 98.35 91.34 92.36"/><path class="cls-11" d="M63.69,91.29l4.81-2.64s6.78-1.58,17.4.81C106.65,94.11,108.52,107,108.52,107s-5.19-12-23.74-15c-11.27-1.82-17.26.77-17.26.77Z"/><path class="cls-14" d="M95.73,78.4l-1.81,1.39a12.75,12.75,0,0,0-4.74-5.93l-.12-1.15L87.59,73a11.83,11.83,0,0,0-2.46-.81,9.13,9.13,0,0,0-1.49-.2l-.12-.23-.31.21a9.24,9.24,0,0,0-2.87.37l-.36-.9-.71,1.3a10.66,10.66,0,0,0-4.51,3.93V75.1a9.11,9.11,0,0,1,7.7-4.51A14.74,14.74,0,0,1,91.73,74s0,0,0,0c.54.47,1.09,1,1.6,1.44A17,17,0,0,1,95.73,78.4Z"/><path class="cls-15" d="M71.06,82.53l-.88-1s2.18-12.9,12.15-12.9c13.5,0,19.89,17,19.89,17l-1.12.82S93.77,69.48,82.42,70.06C73.07,70.55,71.06,82.53,71.06,82.53Z"/><path class="cls-11" d="M121.83,38.75a27.69,27.69,0,0,0-6.43-8c-4.4-3.76-6.67-4.2-6.67-4.2l6-.06-1.9-2.16s5.42.29,8.42,4S124,37.85,124,37.85l-1.78-2.29Z"/><path class="cls-1" d="M156.37,24c0,.2,0,.4-.05.61a34.38,34.38,0,0,1-2.14,8.84,31.42,31.42,0,0,1-1.35,3,36.48,36.48,0,0,1-4.13,6.34,45.6,45.6,0,0,1-11.35,10.06,22.05,22.05,0,0,1-10.18-11.73,15,15,0,0,1,0-10.06.23.23,0,0,0,0-.07c.28-.18.54-.38.81-.57,1-.74,2-1.48,3-2.21s2.1-1.63,3.06-2.42A95.18,95.18,0,0,0,141.44,19c.89-.92,1.7-1.8,2.44-2.62,6-6.71,7.12-10.48,8.45-9.59s3.62,5.43,4.09,11.92A34.31,34.31,0,0,1,156.37,24Z"/><path class="cls-16" d="M137.31,65.57S157.26,57.33,159,55.13s2.24-5.93,3.36-9.07-.16-4.83.2-5.28c.66-.81,2,.26,2.46,2.38a9,9,0,0,1-.25,4.27s9.6-6.06,10.66-5.41-5.36,6.06-5.36,6.06,9.31-2.82,10.07-1.82-7.65,4.59-7.65,4.59,8.27-.43,9.06.28-8.08,2.79-8.08,2.79,5.3.93,4.94,2c-.19.56-6.89.53-7.84.65l-9,1.15L140.85,79.79s-3.73-1-5.21-6.26S137.31,65.57,137.31,65.57Z"/><path class="cls-15" d="M126.53,139.24s-6-12.73-10.74-15.55c-3.4-2-43.93-5.76-49.34-4.24-5,1.43-13.55,7.31-13.55,7.31a26.33,26.33,0,0,1-6.72-.47,19.25,19.25,0,0,1-6.12-2.36s-.71-18.85,0-33S62.44,35.58,71,28.51a71.86,71.86,0,0,1,9.5-6.36l7.19-1.78.67,13.08s-11.56-1.86-18.15,1.24-17,24.5-17.51,47,8.54,29.07,27.67,31.73,32.33,4.24,38.14,8.17S126.53,139.24,126.53,139.24Z"/><path class="cls-11" d="M87.63,22.23s-4.14,1.43-8.07,3.12a51.32,51.32,0,0,0-6.79,3.77l1.69-2.59-2.11.39a12.67,12.67,0,0,1,5.45-5.65,22.68,22.68,0,0,1,10.53-2.15l-3.13,2.1Z"/><path class="cls-5" d="M119.71,19.91a35.2,35.2,0,0,0-18.09,2.42A29.13,29.13,0,0,0,88.33,33.46s-6.57-12.32-.67-20.8A9.2,9.2,0,0,1,95,8.48L87.4,6.07a20.52,20.52,0,0,1,14-2C106.19,5.15,107.48,7,107.48,7L103.79,0s10.95.83,15.12,7.19C121.92,11.76,119.71,19.91,119.71,19.91Z"/><path class="cls-17" d="M117.54,17s-3.85-6-13-7-13.66,3.06-13.66,3.06l6.65-.65A11.24,11.24,0,0,0,91,17.36a14.31,14.31,0,0,0-2.12,8.26s4.62-7,12.69-8.56a28,28,0,0,1,14.23.9l-1.47-2.59Z"/><path class="cls-18" d="M142.13,86.46a.68.68,0,0,0-1.34.12c-.2,4.41-.43,11.73-.36,20.37.07,7.65.27,15,.45,20.14a.68.68,0,0,0,1.35.07c.78-5.61,1.75-13.54,2.09-20.21C144.7,99.42,143.22,91.29,142.13,86.46Z"/><path class="cls-18" d="M142.16,131.86c0,1.74-.32,3.16-.71,3.16s-.7-1.42-.7-3.16.31-3.16.7-3.16S142.16,130.11,142.16,131.86Z"/><path class="cls-15" d="M72.91,96.58s6-1.74,14.35,1,10.33,5.32,10.33,5.32Z"/><path class="cls-2" d="M152.83,36.45a36.48,36.48,0,0,1-4.13,6.34c-1.43-.34-4.78-1.48-9.72-5.27-6.75-5.19-8-9.31-8-9.31,1.08-.82,2.1-1.63,3.06-2.42a29.12,29.12,0,0,0,8.34,7.66A24.32,24.32,0,0,0,152.83,36.45Z"/><path class="cls-2" d="M156.37,24a18,18,0,0,1-7.41-.62A17.41,17.41,0,0,1,141.44,19c.89-.92,1.7-1.8,2.44-2.62a22.12,22.12,0,0,0,5.78,2,17.59,17.59,0,0,0,6.76.32A34.31,34.31,0,0,1,156.37,24Z"/><path class="cls-4" d="M156.32,24.61a34.38,34.38,0,0,1-2.14,8.84c-4.81,12.45-16.83,19.4-16.83,19.4a22.05,22.05,0,0,1-10.18-11.73,15,15,0,0,1,0-10.06l.83-.64s11.6,2.86,20.2-.5A21.49,21.49,0,0,0,156.32,24.61Z"/><path class="cls-19" d="M132.16,31.74a.64.64,0,0,1-.66-1.09,86.68,86.68,0,0,0,9.21-8.13c2.79-2.91,5.15-5.72,6.85-7.84a.64.64,0,0,1,1.07.7,39.84,39.84,0,0,1-6.73,9.53A31.81,31.81,0,0,1,132.16,31.74Z"/><path class="cls-19" d="M52.1,10.34a.69.69,0,0,1,1.18-.68,68.39,68.39,0,0,0,6.38,7.59,76,76,0,0,0,7.07,6.28A.69.69,0,0,1,66,24.69a35.76,35.76,0,0,1-7.36-5A26.29,26.29,0,0,1,52.1,10.34Z"/></g></g></svg>