<?xml version="1.0" encoding="utf-8"?>
<!-- Generator: Adobe Illustrator 22.1.0, SVG Export Plug-In . SVG Version: 6.00 Build 0)  -->
<svg version="1.1" id="Layer_1" xmlns="http://www.w3.org/2000/svg" xmlns:xlink="http://www.w3.org/1999/xlink" x="0px" y="0px"
	 viewBox="0 0 170.4 208.6" style="enable-background:new 0 0 170.4 208.6;" xml:space="preserve">
<style type="text/css">
	.st0{display:none;opacity:0.4;fill:#1D262D;enable-background:new    ;}
	.st1{fill:#ED4624;}
	.st2{fill:#F9FBFC;}
	.st3{fill:#DCEE69;}
	.st4{fill:#C0573C;}
	.st5{fill:#661C0A;}
	.st6{fill:none;stroke:#661C0A;stroke-width:1.98;stroke-linecap:round;stroke-linejoin:round;}
	.st7{fill:none;stroke:#661C0A;stroke-width:1.01;stroke-linecap:round;stroke-linejoin:round;}
	.st8{opacity:0.4;fill:#661C0A;enable-background:new    ;}
</style>
<title>Asset12</title>
<g id="Layer_2_1_">
	<g id="OBJECTS">
		<path class="st0" d="M10.6,193.7c-0.1-8.8,35.5-16.5,79.7-17.2s80,6,80.1,14.9s-35.5,16.5-79.7,17.2S10.7,202.5,10.6,193.7z"/>
		<path class="st1" d="M28,92.3c0,0,3.2-35.8,16.4-58.7S89.5-16.5,119,12.7s31.1,67.8,30.4,84.6s-10.2,40.6-61,40.4
			C27.9,137.4,28.9,112.1,28,92.3z"/>
		<path class="st1" d="M62,131.9L61.9,178c0,0-22.7,8.4-28.8,15.3s17.1-2.2,22.6-5c0,0-10.1,5.3-14.9,11.5s28.6-7.1,35.2-12
			l1.7-53.6L62,131.9z"/>
		<path class="st1" d="M100.6,133.6l-0.4,55.6c0,0,29.2,11.2,42.4,8.4s-7-6.9-14.6-9.1c0,0,15.8,4,21.3,2.5s-18.2-8.6-34.6-13.3
			l1.4-47.4L100.6,133.6z"/>
		<path class="st1" d="M34.4,67.3c0,0-21.7,23.2-28,36.2s-17.3,19.7,20.9,19.7c0,0-4.9,6.7-5.3,11.9s6-1.4,8.1-5.3
			c-0.8,2.9-1.1,6-0.9,9c0.4,4.5,6.1-4.1,6.9-8.4c0,0,0.4,7,2.5,10.1s7.6-17.2,4-23.3s-30.5-0.5-30.4-3S35,81.2,35,81.2L34.4,67.3z"
			/>
		<path class="st1" d="M144.9,110.3c0,0,2.3,32.6,17,25.4s5.7-21.8,1-29.8c0,0,5.7-9.1,3.5-13.7c-1-2.6-3.9-4-6.6-3.3
			c0,0-3.6-6.8-7.4-5.7s-3.6,5.6-3.6,5.6s-6.9-5.8-8,2.8c0,0-8.7-5-7.3,4.7C135.5,111,144.9,110.3,144.9,110.3z"/>
		<path class="st2" d="M63.3,54.2c0-11.9,10.3-21.5,23-21.5s23,9.6,23,21.5S99,75.8,86.3,75.8S63.3,66.1,63.3,54.2z"/>
		<path class="st3" d="M85,85.7c0,0-25.5,2.8-34.3,15.5c-9.2,13.2,3,20,24.1,15.7c18.8-3.8,25.7-0.3,36.3-0.2s20.2-0.3,22.4-11.7
			S106.2,82,85,85.7z"/>
		<path class="st4" d="M71,54.6c0-8,7-14.5,15.7-14.5s15.7,6.5,15.7,14.5s-7,14.5-15.7,14.5S71,62.6,71,54.6z"/>
		<path class="st5" d="M78.2,56c0-4.9,4.3-8.9,9.6-8.9s9.6,4,9.6,8.9s-4.3,8.9-9.6,8.9S78.2,60.9,78.2,56z"/>
		<path class="st2" d="M74.2,49.8c0.1-3.5,3-6.2,6.4-6.1c3.5,0.1,6.2,3,6.1,6.4c-0.1,3.4-2.9,6.1-6.3,6.1
			C76.9,56.2,74.1,53.3,74.2,49.8C74.1,49.8,74.1,49.8,74.2,49.8z"/>
		<path class="st5" d="M63.4,26.8l-4.9,8.9c0,0,13.7,10.2,28,10.4s29.5-10,29.5-10L111,25.7c0,0-12.4,5.6-24.1,5.8
			S63.4,26.8,63.4,26.8z"/>
		<path class="st6" d="M89.7,85.1c0.5,7.4-0.2,18.9,0.1,30.1"/>
		<path class="st6" d="M66.8,90.3c2.1,6.3,4.5,18,6.2,27.1"/>
		<path class="st6" d="M114.7,88.5c-2.7,9.2-4.4,18.7-5.2,28.3"/>
		<path class="st6" d="M77.2,123.3c0,0,16.8-2.7,26-1"/>
		<path class="st7" d="M162.9,105.6c-1.9,1.5-4,2.7-6.2,3.7c0,0,0.4,9.1,5.4,16.4"/>
		<path class="st7" d="M159.6,88.9c0.9,1.6,1.4,3.5,1.5,5.3"/>
		<path class="st8" d="M62,135.3c0,0,5.2,2.3,15.6,2l-0.3,8.3c0,0-7.5,4.8-15.3,0.6L62,135.3z"/>
		<path class="st8" d="M43.4,128.9c0,0,0.2-12.8-12.3-14.9c0,0,14.2-1.3,17,17.3L43.4,128.9z"/>
		<path class="st8" d="M27.3,123.1l1.6-3.3c-3.5,0.1-7,1.2-9.9,3.1L27.3,123.1z"/>
		<path class="st8" d="M162.8,105.8c1.7,2.7,3.2,5.4,4.6,8.3c0,0-4.7,9-6.2,9.8c0,0-5-8.9-4.4-14.6
			C156.7,109.4,161.6,107.8,162.8,105.8z"/>
		<path class="st8" d="M135.1,99.8c0,0,1.6,11.2,10,10.5l0.4,3.4c0,0-3,6.5-6.8,9.1C138.7,122.9,135,109.5,135.1,99.8z"/>
		<path class="st7" d="M145.2,113.6l-0.3-3.4c0,0-8.8,0.3-10.8-12.9s5.7-6.7,6.9-5.5c0,0-0.2-10.3,7.6-3.5l0.9-2.7"/>
		<path class="st8" d="M100.6,137.2c5.2-0.3,10.4-1.1,15.4-2.5l-0.3,8.6c0,0-10.8,3.3-15,1.4L100.6,137.2z"/>
	</g>
</g>
</svg>
