<?xml version="1.0" encoding="utf-8"?>
<!-- Generator: Adobe Illustrator 22.1.0, SVG Export Plug-In . SVG Version: 6.00 Build 0)  -->
<svg version="1.1" id="Layer_1" xmlns="http://www.w3.org/2000/svg" xmlns:xlink="http://www.w3.org/1999/xlink" x="0px" y="0px"
	 viewBox="0 0 157.2 180.3" style="enable-background:new 0 0 157.2 180.3;" xml:space="preserve">
<style type="text/css">
	.st0{display:none;fill:#E8DBDA;}
	.st1{fill:#DC7C27;}
	.st2{fill:#BB6128;}
	.st3{fill:#67913D;}
	.st4{fill:#7AC144;}
	.st5{fill:#532A12;}
	.st6{fill:#FFFFFF;}
	.st7{fill:#E6E6E5;}
</style>
<title>Asset 3</title>
<g id="Layer_2_1_">
	<g id="OBJECTS">
		<path class="st0" d="M78.6,169.8c31.6,0,57.3,2.3,57.3,5.2s-25.7,5.2-57.3,5.2s-57.3-2.3-57.3-5.2S47,169.8,78.6,169.8z"/>
		<path class="st1" d="M52.8,159.8h5.5v15.1H44.8c2.6-2.1,5.3-4.1,8.1-6V159.8z"/>
		<polygon class="st2" points="55.9,159.8 58.4,159.8 58.4,170.8 58.4,172.5 58.4,174.9 55.9,174.9 		"/>
		<path class="st2" d="M100,159.8h-5.6v15.1h13.6c-2.6-2.1-5.3-4.1-8.1-6L100,159.8z"/>
		<polygon class="st1" points="97,159.8 94.4,159.8 94.4,170.8 94.4,172.5 94.4,174.9 97,174.9 		"/>
		<path class="st3" d="M14.9,34.5C0.5,53.8,0,76.8,0,76.8c3.9-3,7.8-6,11.7-9.1c-4.1,15-8,42.3,4.8,53.2c1-6.5,2.1-12.9,3.2-19.3
			C18,132,52.2,180.3,67.5,157.8c5.2-7.7,8.7-17,11.1-27.3c2.4,10.3,6,19.6,11.2,27.3c15.2,22.5,49.5-25.8,47.8-56.2
			c1,6.4,2.1,12.9,3.2,19.3c12.8-10.9,8.9-38.3,4.8-53.2c3.9,3,7.8,6,11.7,9.1c0,0-0.5-23-14.9-42.3C108.3-11.5,48.9-11.5,14.9,34.5
			L14.9,34.5z"/>
		<path class="st4" d="M14.9,34.5C0.5,53.8,0,76.8,0,76.8c3.9-3,7.8-6,11.7-9.1c-4.1,15-8,42.3,4.8,53.2c1-6.5,2.1-12.9,3.2-19.3
			c-0.8,13.6,5.6,30.6,14.3,43.4c2.5,0.2,5.1,0.4,7.7,0.4c11.9,0,23.8-2.3,34.8-6.9c0.8-2.6,1.5-5.2,2.2-7.9
			c0.5,2.1,1.1,4.2,1.7,6.3c32.9-15.6,53.8-48.7,53.7-85.1c0-11.1-1.9-22.1-5.7-32.5C93.6-10.7,44.6-5.6,14.9,34.5z"/>
		<path class="st5" d="M105.7,37.6c5.3,0,9.6,4.3,9.6,9.6c0,5.3-4.3,9.6-9.6,9.6c-5.3,0-9.6-4.3-9.6-9.6
			C96.1,41.9,100.4,37.6,105.7,37.6z"/>
		<path class="st3" d="M115.3,48.7c0.1,0.5,0.1,1,0.1,1.4c-0.2,5.3-4.6,9.5-10,9.3c-5.1-0.2-9.2-4.2-9.3-9.3c0-0.5,0-1,0.1-1.4
			c0.8,5.3,5.8,8.9,11,8C111.4,56.1,114.6,52.8,115.3,48.7z"/>
		<path class="st6" d="M103.4,41.5c2.2,0,4,1.8,4,4s-1.8,4-4,4s-4-1.8-4-4S101.2,41.5,103.4,41.5z"/>
		<path class="st5" d="M52.9,37.6c5.3,0,9.6,4.3,9.6,9.6c0,5.3-4.3,9.6-9.6,9.6c-5.3,0-9.6-4.3-9.6-9.6
			C43.3,41.9,47.6,37.6,52.9,37.6z"/>
		<path class="st3" d="M62.4,48.7c0.1,0.5,0.1,1,0.1,1.4c-0.2,5.3-4.6,9.5-10,9.3c-5.1-0.2-9.2-4.2-9.3-9.3c0-0.5,0-1,0.1-1.4
			c0.8,5.3,5.8,8.9,11,8C58.5,56.1,61.8,52.8,62.4,48.7z"/>
		<path class="st6" d="M50.6,41.5c2.2,0,4,1.8,4,4s-1.8,4-4,4s-4-1.8-4-4S48.4,41.5,50.6,41.5z"/>
		<path class="st3" d="M79.8,76.5c18.9,0,34.3,0.4,34.3,1s-15.4,1-34.3,1s-34.3-0.4-34.3-1S60.8,76.5,79.8,76.5z"/>
		<path class="st6" d="M59.3,77.5c0-1.1-4.8-13.6-4.8-13.6l-4.8,13.6H59.3z"/>
		<path class="st7" d="M59.3,77.5c0-1.1-4.8-13.6-4.8-13.6l-0.3,13.6H59.3z"/>
		<path class="st6" d="M110.8,77.5c0-1.1-4.8-13.6-4.8-13.6l-4.8,13.6H110.8z"/>
		<path class="st7" d="M110.8,77.5c0-1.1-4.8-13.6-4.8-13.6l-0.3,13.6H110.8z"/>
	</g>
</g>
</svg>
