<?xml version="1.0" encoding="utf-8"?>
<!-- Generator: Adobe Illustrator 22.1.0, SVG Export Plug-In . SVG Version: 6.00 Build 0)  -->
<svg version="1.1" id="Layer_1" xmlns="http://www.w3.org/2000/svg" xmlns:xlink="http://www.w3.org/1999/xlink" x="0px" y="0px"
	 viewBox="0 0 145.4 161.9" style="enable-background:new 0 0 145.4 161.9;" xml:space="preserve">
<style type="text/css">
	.st0{display:none;fill:#A5D24A;}
	.st1{fill:#A12DC8;}
	.st2{opacity:0.3;fill:#702291;enable-background:new    ;}
	.st3{fill:#472055;}
	.st4{fill:#FFFAD3;}
	.st5{fill:#702291;}
	.st6{fill:#FFFFFF;}
	.st7{fill:#F52B5D;}
	.st8{fill:#0463AC;}
	.st9{opacity:0.2;fill:#FFFAD3;enable-background:new    ;}
	.st10{opacity:0.3;fill:#6FD1DE;enable-background:new    ;}
</style>
<title>Asset14</title>
<g>
	<g id="Layer_2_1_">
		<g id="OBJECTS">
			<g id="_Group_">
				<ellipse id="_Path_" class="st0" cx="72.7" cy="153.3" rx="66" ry="8.7"/>
				<g id="_Group_2">
					<g id="_Group_3">
						<path id="_Path_2" class="st1" d="M10.7,50c2-15.5,3.5-50.5,65-50s71.5,57.5,54.5,82C114.1,105.3,89,109.3,97,123.8
							s39.3,13.7,37.3,3.7s-11-6-10.5-2c0.5,4,4.5,2,4.5,2s-4.5,7-8.5,4s-6-16.5,9.5-15.5s19.5,18,13.5,25.5s-25,17-44,5.5
							c0,0-22.5-8-41.5-5s-35,10-49.5-0.5s-6.5-30,7-32s24,12,16,16.5s-14.5-0.5-12.5-4.5c0,0,4,5.5,6,2.5s-5.5-9.5-9.5-4
							s6.5,16.8,18,12.5c28.3-10.7,16-27.1,5.6-31.7C27.2,96,7.1,78.1,10.7,50z"/>
						<path id="_Path_3" class="st2" d="M121.9,138.8c4-0.7,17.5-6.9,15.8-12.7s-8.8-6-10.5-4.8c0,0-0.1,0.1-0.1,0.1
							c2.6-0.8,6.1,0.3,7.2,6c2,10-29.3,10.8-37.3-3.7s17.1-18.5,33.3-41.8l0.7-1c0.2-0.4,0.2-0.7,0.2-0.7s-21,20.3-32.8,26.3
							s-6.5,23,1,27S117.9,139.4,121.9,138.8z"/>
						<g id="_Group_4">
							<g id="_Group_5">
								<path id="_Path_4" class="st2" d="M18.2,121.5c-1.5,3,1.8,6.6,7,6.2c-1-0.9-1.8-1.8-2.6-2.9
									C20.6,124.8,18.2,121.5,18.2,121.5z"/>
							</g>
							<g id="_Group_6">
								<path id="_Path_5" class="st2" d="M78.1,106.3L78.1,106.3z"/>
							</g>
						</g>
						<g id="_Group_7">
							<g id="_Group_8">
								<path id="_Path_6" class="st3" d="M93.5,88.7c0,0-1.5,2.9-6,1.7s-6-6-14.9-6.7c-5.2-0.4-6.9,3.1-10.8,4.9
									c-4.5,2.1-8.8-1-7.6-6c0.8-3,3.9-6.2,6.6-7.5c5.3-2.5,14.4-5.6,25.8,0.6S93.5,88.7,93.5,88.7z"/>
								<path id="_Path_7" class="st4" d="M64.5,83.7c-1.4-0.5-3.2-0.5-4.1,0.9c-0.6,1-0.6,2.2,0,3.2c0.2,0.4,0.5,0.8,0.8,1.1
									l0.6-0.3c1.7-0.9,3.3-2,4.8-3.2C66.1,84.6,65.4,84,64.5,83.7z"/>
								<path id="_Path_8" class="st4" d="M69.5,80.7c-1,0.6-1.5,1.7-1.5,2.8c0,0.3,0.1,0.7,0.1,1c1.4-0.7,2.9-0.9,4.5-0.8
									c0.7,0,1.4,0.1,2,0.2c-0.2-0.8-0.6-1.6-1.1-2.2C72.5,80.7,70.9,79.9,69.5,80.7z"/>
								<path id="_Path_9" class="st4" d="M89.3,86.5c-1-1.3-2.8-1.2-4.2-0.6c-0.9,0.4-1.6,1.1-2.1,1.9c1.3,1.1,2.8,2,4.5,2.6
									c0.4,0.1,0.8,0.2,1.2,0.2c0.2-0.2,0.4-0.4,0.6-0.6C90,88.9,90,87.5,89.3,86.5z"/>
								<path id="_Path_10" class="st4" d="M78.3,77.1c1.4,1.1,3.3,0.6,4.6-0.5c0.7-0.5,1.2-1.2,1.5-2c-2-0.9-4.2-1.6-6.4-2h-0.2
									c-0.2,0.2-0.3,0.5-0.4,0.8C76.9,74.7,77.3,76.2,78.3,77.1z"/>
								<path id="_Path_11" class="st4" d="M59.3,76c0,0.2,0.1,0.5,0.2,0.7c0.5,1.3,1.7,2.1,3.1,2.2c1.8,0,2.8-1.7,3.1-3.3
									c0.1-0.8,0.1-1.5-0.1-2.3c-1.6,0.5-3.2,1.1-4.8,1.8C60.3,75.3,59.8,75.6,59.3,76z"/>
							</g>
							<g id="_Group_9">
								<g id="_Group_10">
									<path id="_Path_12" class="st5" d="M73.1,88.1c1-0.3,2.2-0.2,3.2,0.2c0.3,0.1,0.6,0.3,0.8,0.5l0.3,0.2H77
										c-0.2,0-0.5,0-0.9,0c-1.8,0.1-3.6,0.6-5.2,1.4c-0.3,0.1-0.5,0.3-0.8,0.4l-0.3,0.2c0,0,0-0.1,0.1-0.3
										c0.1-0.3,0.3-0.6,0.5-0.8C71.1,89,72,88.4,73.1,88.1z"/>
								</g>
								<g id="_Group_11">
									<path id="_Path_13" class="st5" d="M98,88c-0.2,0.8-0.5,1.6-1,2.3c-0.4,0.6-0.9,1.1-1.4,1.5c-0.4,0.3-0.7,0.5-1.2,0.7
										L94,92.7l0.3-0.4c0.3-0.3,0.5-0.6,0.8-1c0.7-1.1,1.3-2.3,1.6-3.6c0.3-1.3,0.4-2.7,0.3-4c0-0.4-0.1-0.8-0.2-1.3
										c-0.1-0.3-0.1-0.5-0.1-0.5l0.3,0.4c0.3,0.4,0.5,0.7,0.7,1.2c0.3,0.6,0.5,1.3,0.5,2C98.3,86.3,98.2,87.2,98,88z"/>
								</g>
								<g id="_Group_12">
									<path id="_Path_14" class="st5" d="M50.9,86.7c0.5,0.7,1.1,1.3,1.7,1.8c0.3,0.2,0.5,0.4,0.7,0.5l0.3,0.2h-0.3
										c-0.3,0-0.6,0-0.9-0.1c-2-0.5-3.5-2.3-3.4-4.4c0-0.3,0-0.6,0.1-0.9l0.1-0.3l0.1,0.3c0.1,0.2,0.2,0.4,0.3,0.8
										C49.9,85.3,50.3,86.1,50.9,86.7z"/>
								</g>
							</g>
						</g>
						<g id="_Group_13">
							<path id="_Path_15" class="st5" d="M129.2,116c-15.5-1-13.5,12.5-9.5,15.5c0.8,0.7,2,0.9,3,0.6c-2.3-2.1-3.4-5.1-3.1-8.2
								c0.7-6.3,10.3-7.3,17.7-3s6.3,19.3-7.7,25s-27-3-32.7-6s-33.7-4.7-35.3-4s-23.7,5.7-35.3,5.7s-20-7.7-21-16s9-16,18.7-10.7
								s4,11,4,11s0.8,0.2,1.9,0.5c0.3-0.2,0.6-0.3,0.9-0.5c8-4.5-2.5-18.5-16-16.5s-21.5,21.5-7,32s30.5,3.5,49.5,0.5
								s41.5,5,41.5,5c19,11.5,38,2,44-5.5S144.7,117,129.2,116z"/>
							<path id="_Path_16" class="st5" d="M118.7,136.2c-0.9,0-1.9,0-2.8-0.1C116.8,136.4,117.8,136.4,118.7,136.2z"/>
						</g>
						<path id="_Path_17" class="st5" d="M85.7,134.3c-0.7,8,5.7,7.7,5.7,7.7s-3.3-5.3,3.7-6s4.7,7.7,1,8.3s-8.7,1-14-8.7l-29.4,1.4
							c0,0,3.2,2.5,6.6,4.6c18.5-2.2,39.5,5.3,39.5,5.3c2.2,1.3,4.5,2.4,6.9,3.3c4.3-5.7,5-14,1.8-19.3
							C102.1,122.3,86.4,126.3,85.7,134.3z"/>
						<g id="_Group_14">
							<path id="_Path_18" class="st1" d="M54.2,136c0,0,25,18,39.3,18.3s19.7-16.7,14.3-25.3s-21-4.7-21.7,3.3s5.7,7.7,5.7,7.7
								s-3.3-5.3,3.7-6s4.7,7.7,1,8.3s-8.7,1-14-8.7"/>
						</g>
						<g id="_Group_15">
							<g id="_Group_16">
								<path id="_Path_19" class="st5" d="M11.3,128.4c-0.9,0.7-0.6,2.3,0,3.1s1.6,1.9,2.6,1.4c0.5-0.2,0.8-0.6,0.8-1.1
									c0-0.3-0.1-0.7-0.3-0.9c0,0-0.2-0.4-0.1-0.3c-0.2-0.4-0.4-0.9-0.5-1.3c0.1,0.2-0.3-0.6-0.2-0.5c-0.2-0.3-0.4-0.5-0.7-0.7
									C12.3,128,11.7,128.1,11.3,128.4L11.3,128.4z"/>
							</g>
							<g id="_Group_17">
								<path id="_Path_20" class="st5" d="M16.2,132.7c0.4,0.4,0.8,0.8,1.4,0.8c0.4,0,0.8-0.4,0.8-0.8c0-0.6-0.4-1-0.8-1.4
									c-0.5-0.3-1.1-0.2-1.4,0.3C16,131.9,16,132.4,16.2,132.7z"/>
							</g>
							<g id="_Group_18">
								<path id="_Path_21" class="st5" d="M18.4,135.8c0.1,0.6,0.6,0.9,1.1,1.3c0.2,0.2,0.5,0.4,0.8,0.6c0.3,0.1,0.6,0.2,0.9,0.2
									c0.5,0.1,1.1-0.5,0.7-1c-0.2-0.3-0.3-0.5-0.5-0.8c-0.2-0.2-0.5-0.4-0.8-0.6c-0.6-0.3-1-0.7-1.7-0.5
									C18.4,135.2,18.3,135.5,18.4,135.8L18.4,135.8z"/>
							</g>
							<g id="_Group_19">
								<path id="_Path_22" class="st5" d="M21.7,134.4c0.3,0.6,0.8,0.7,1.3,0.9c0.8,0.3,1.2-1.1,0.4-1.3c-0.6-0.1-1.1-0.3-1.6,0.1
									C21.7,134.2,21.7,134.3,21.7,134.4C21.7,134.4,21.7,134.4,21.7,134.4L21.7,134.4z"/>
							</g>
							<g id="_Group_20">
								<path id="_Path_23" class="st5" d="M116.3,140.1c0.4,1,1.3,1.8,2.3,2.2c1.1,0.4,2.3,0.3,3.3-0.3c0.9-0.5,1.2-1.7,0.6-2.6
									c-0.2-0.3-0.4-0.5-0.6-0.6c-0.7-0.4-1.4-0.7-2.1-0.8c-0.7-0.1-1.5-0.1-2.2,0c-0.8,0-1.5,0.7-1.4,1.5
									C116.1,139.6,116.2,139.9,116.3,140.1L116.3,140.1z"/>
							</g>
							<g id="_Group_21">
								<path id="_Path_24" class="st5" d="M123.7,138.9c0.3,0.3,0.6,0.5,1,0.6c0.5,0.1,1,0.1,1.4-0.2c0.7-0.4,0.9-1.3,0.5-1.9
									c-0.1-0.2-0.3-0.4-0.5-0.5c-0.4-0.3-0.9-0.4-1.4-0.2c-0.4,0.1-0.7,0.3-1,0.6C123.2,137.6,123.2,138.4,123.7,138.9
									C123.7,138.9,123.7,138.9,123.7,138.9L123.7,138.9z"/>
							</g>
							<g id="_Group_22">
								<path id="_Path_25" class="st5" d="M125.3,143.8c0.3,0.1,0.7,0.1,1,0.1c0.4-0.1,0.7-0.2,1-0.4c0.7-0.4,1.2-1,0.9-1.8
									c-0.4-0.7-1.2-1-1.9-0.7c-0.3,0.1-0.6,0.2-0.9,0.3c-0.3,0.2-0.6,0.5-0.8,0.9c-0.3,0.5-0.1,1.2,0.4,1.5
									C125.1,143.7,125.1,143.7,125.3,143.8L125.3,143.8z"/>
							</g>
						</g>
						<g id="_Group_23">
							<g id="_Group_24">
								<ellipse id="_Path_26" class="st6" cx="38.2" cy="53.5" rx="23.9" ry="21.9"/>
								<g id="_Group_25">
									<path id="_Path_27" class="st7" d="M59.8,51.9c-0.2,7.9-6.7,14.1-14.5,13.9c-7.9-0.2-14.1-6.7-13.9-14.5
										c0.2-7.7,6.5-13.9,14.2-13.9C53.5,37.4,59.9,43.9,59.8,51.9z"/>
									<path id="_Path_28" class="st3" d="M53.8,51.9c-0.1,4.5-3.9,8.1-8.4,8s-8.1-3.9-8-8.4c0.1-4.5,3.8-8.1,8.2-8
										C50.2,43.5,53.8,47.3,53.8,51.9z"/>
									<path id="_Path_29" class="st8" d="M40.1,48.4c0,1.7-1.5,3.1-3.2,3.1s-3.1-1.5-3.1-3.2c0-1.7,1.5-3.1,3.2-3.1
										C38.7,45.2,40.1,46.6,40.1,48.4z"/>
									<path id="_Path_30" class="st8" d="M56.8,59c-0.1,2.5-2.1,4.5-4.6,4.4s-4.5-2.1-4.4-4.6c0.1-2.5,2.1-4.4,4.5-4.4
										C54.8,54.4,56.8,56.5,56.8,59C56.8,59,56.8,59,56.8,59z"/>
								</g>
								<path id="_Path_31" class="st9" d="M57.8,41.1c-4.7-6.1-12-9.6-19.6-9.5c-9.5,0-17.7,5.1-21.6,12.5c2.6,7.5,10.6,13,20.2,13
									C47.7,57.1,56.7,50.1,57.8,41.1z"/>
								<path id="_Path_32" class="st10" d="M47.7,33.4c3.3,2.4,6.2,5.5,8.4,8.9c14,21-14.8,39.3-30.5,27.2
									c-8.8-6.8-9.9-13.9-9.2-18.9c-0.1-2.3,0.2-4.5,0.8-6.7h-0.4c-1.5,2.9-2.3,6.2-2.3,9.5c0,12.1,10.7,21.9,23.9,21.9
									s23.9-9.8,23.9-21.9C62.1,44.5,56.1,36.8,47.7,33.4z"/>
							</g>
							<path id="_Path_33" class="st10" d="M38.2,31.6c-13.2,0-23.9,9.8-23.9,21.9c0,3.7,1,7.4,2.9,10.5c4-6.9,9.8-12.5,16.9-16.2
								c7.2-3.8,14.9-6.4,22.9-7.7C52.3,34.7,45.4,31.6,38.2,31.6z"/>
							<path id="_Path_34" class="st5" d="M15.1,64c0,0,4.6-10.7,17.6-17.7c8.1-4.3,16.9-7,26-8.1c0,0-17.6-17.7-37-3.9
								C4.1,46.8,15.1,64,15.1,64z"/>
							<g id="_Group_26">
								<path id="_Path_35" class="st3" d="M34,44.3c3.3-1.6,6.7-2.8,10.2-3.7c2.8-0.7,5.7-1.3,8.6-1.8c2.5-0.4,4.5-0.6,5.9-0.8
									l2.2-0.2l-2.1,0.5c-1.4,0.3-3.3,0.8-5.8,1.3c-6.3,1.4-12.4,3.5-18.3,6.2c-3.2,1.5-6.2,3.4-9,5.5c-2.3,1.8-4.3,3.8-6.2,6
									c-1.2,1.5-2.4,3.1-3.4,4.8c-0.8,1.2-1.1,1.9-1.1,1.9s0.3-0.7,0.9-2c0.9-1.8,1.9-3.5,3-5.2c1.7-2.4,3.7-4.7,5.9-6.6
									C27.6,47.9,30.7,45.9,34,44.3z"/>
							</g>
							<g id="_Group_27">
								<path id="_Path_36" class="st5" d="M28.8,76.8c2.4,0.9,4.9,1.6,7.4,2c1,0.2,1.8,0.3,2.4,0.3l0.9,0.1l-0.9,0.2
									c-0.8,0.1-1.6,0.2-2.4,0.3c-5.5,0.2-10.8-1.8-14.7-5.7c-0.6-0.6-1.1-1.2-1.6-1.8l-0.5-0.7l0.7,0.5c0.4,0.4,1.1,0.8,1.9,1.4
									C24.1,74.7,26.4,75.9,28.8,76.8z"/>
							</g>
							<g id="_Group_28">
								<path id="_Path_37" class="st5" d="M46.4,75.6c0.6-0.2,1.2-0.4,1.9-0.6l0.9-0.2c-0.1,0.3-0.2,0.6-0.4,0.9
									c-0.9,1.3-2.5,1.9-4,1.6c-0.3-0.1-0.6-0.2-0.9-0.3c0,0,0.3-0.2,0.8-0.5C45.2,76.1,45.8,75.8,46.4,75.6z"/>
							</g>
							<g id="_Group_29">
								<path id="_Path_38" class="st5" d="M38.8,73.8c5.6-0.2,11.1-1.6,16.2-3.8c2-0.9,3.5-1.7,4.6-2.3l1.7-0.9
									c0,0-0.5,0.4-1.5,1.1c-1.4,1-2.9,2-4.4,2.8c-5,2.9-10.7,4.5-16.5,4.8c-3.2,0.1-6.4-0.3-9.5-1.3c-2.5-0.8-4.8-1.9-7-3.3
									c-1.5-1-2.8-2.1-4-3.3c-0.4-0.4-0.7-0.8-1-1L17,66.2l0.4,0.3c0.3,0.2,0.6,0.6,1.1,0.9c1.3,1.1,2.7,2,4.3,2.8
									C27.6,72.8,33.2,74,38.8,73.8z"/>
							</g>
							<g id="_Group_30">
								<path id="_Path_39" class="st3" d="M22.6,47c2.6-2.3,5.6-4.1,8.8-5.5c1-0.4,1.9-0.7,3-1l1.1-0.3l-1,0.5
									c-0.7,0.3-1.6,0.9-2.7,1.5c-2.9,1.8-5.6,3.8-8.1,6c-2.5,2.2-4.9,4.7-7,7.3c-0.8,1-1.4,1.9-1.9,2.5L14.2,59l0.4-1.1
									c0.4-1,0.9-2,1.4-2.9C17.8,52,20,49.3,22.6,47z"/>
							</g>
							<g id="_Group_31">
								<path id="_Path_40" class="st3" d="M38.3,35.3c2.6-0.6,5.2-1,7.9-1.1c1.1,0,2.2,0,3.3,0.1L46.3,35c-2,0.5-4.6,1.1-7.6,1.8
									s-5.6,1.4-7.5,2l-3.1,0.9c0.9-0.6,1.9-1.2,2.9-1.7C33.3,36.8,35.8,35.9,38.3,35.3z"/>
							</g>
							<g id="_Group_32">
								<path id="_Path_41" class="st2" d="M27.8,49.3L26.5,50c-2.4,1.2-4.9,2.4-7.6,2.4c-0.2-1.9,0.7-3.8,2.3-4.8
									c-1.5,1-4.1,1.9-4.9,0.2C16.1,47.4,16,47,16,46.5c0-4.1,1.5-8.1,4.3-11.1C4.7,47.7,15.1,64,15.1,64S18.5,56,27.8,49.3z"/>
								<path id="_Path_42" class="st2" d="M39.9,43c6-2.4,12.3-4,18.8-4.7c0,0-10-10-23.3-9.1c1.3,0.3,2.5,0.8,3.6,1.5
									c1,0.5,1.7,1.3,1.9,2.4c0.1,1.3-1,2.3-2.2,2.8c-1.2,0.4-2.3,1-3.2,1.9c2.6-0.7,5.3-0.5,7.7,0.6C42.8,40.2,41.6,41.9,39.9,43
									z"/>
							</g>
						</g>
						<g id="_Group_33">
							<g id="_Group_34">
								<path id="_Path_43" class="st6" d="M125.6,55.4c0,10.1-8.8,18.2-19.8,18.2s-19.8-8.2-19.8-18.2s8.9-18.2,19.8-18.2
									S125.6,45.3,125.6,55.4z"/>
								<g id="_Group_35">
									<path id="_Path_44" class="st7" d="M112.9,54.3c-0.2,6-5.2,10.7-11.1,10.6c-6-0.2-10.7-5.2-10.6-11.1
										c0.2-5.9,5-10.6,10.8-10.6C108.1,43.2,112.9,48.2,112.9,54.3C112.9,54.3,112.9,54.3,112.9,54.3z"/>
									<path id="_Path_45" class="st3" d="M108.3,54.3c-0.1,3.5-3,6.2-6.4,6.1s-6.2-3-6.1-6.4c0.1-3.4,2.9-6.1,6.3-6.1
										C105.5,47.9,108.3,50.8,108.3,54.3C108.3,54.3,108.3,54.3,108.3,54.3z"/>
									<path id="_Path_46" class="st8" d="M97.8,51.6c0,1.3-1.1,2.4-2.5,2.3c-1.3,0-2.4-1.1-2.3-2.5c0-1.3,1.1-2.3,2.4-2.3
										C96.8,49.2,97.9,50.3,97.8,51.6z"/>
									<path id="_Path_47" class="st8" d="M110.6,59.8c-0.1,1.9-1.6,3.4-3.5,3.3c-1.9-0.1-3.4-1.6-3.3-3.5
										c0.1-1.9,1.6-3.3,3.4-3.3C109.1,56.3,110.6,57.9,110.6,59.8C110.6,59.8,110.6,59.8,110.6,59.8z"/>
								</g>
								<path id="_Path_48" class="st9" d="M122.1,45c-3.9-5-9.9-8-16.3-7.9C98.4,37,91.5,41,88,47.5c2.1,6.2,8.8,10.8,16.8,10.8
									C113.8,58.3,121.2,52.5,122.1,45z"/>
								<path id="_Path_49" class="st10" d="M125.6,55.4c0-7.5-4.9-13.9-11.9-16.7c2.8,2,5.2,4.5,7,7.4
									c11.6,17.5-12.3,32.7-25.3,22.6s-5.8-21.2-5.8-21.2c-0.5-0.1-1.1-0.1-1.6-0.1c-1.3,2.4-1.9,5.1-1.9,7.9
									c0,10.1,8.8,18.2,19.8,18.2S125.6,65.4,125.6,55.4z"/>
								<path id="_Path_50" class="st10" d="M113.7,38.9c2.8,2,5.1,4.5,7,7.4C132.2,63.8,108.4,79,95.4,69
									c-6.3-4.8-7.8-9.9-7.8-13.9c0-0.7,0-1.3,0-2c0.1-1.2,0.2-2.5,0.5-3.7c0.1-0.5,0.3-1.1,0.5-1.7c-0.2,0-0.3,0-0.5,0
									c-1.3,2.4-1.9,5.1-1.9,7.9c0,10.1,8.8,18.2,19.8,18.2s19.8-8.2,19.8-18.2C125.6,48.1,120.7,41.7,113.7,38.9z"/>
							</g>
							<path id="_Path_51" class="st10" d="M105.9,37.2c-5.2,0-10.3,1.9-14.1,5.5c6.9,1.4,13.7,3.7,20,6.8
								c7.5,3.6,11.5,6.8,13.6,8.8c0.2-1,0.3-2,0.3-2.9C125.6,45.3,116.8,37.2,105.9,37.2z"/>
							<path id="_Path_52" class="st5" d="M91.8,40.6c7.3,1.4,14.3,3.8,20.9,7.1c12.5,6,15.5,11,15.5,11s3.4-19.9-11.6-24.9
								S91.8,40.6,91.8,40.6z"/>
							<g id="_Group_36">
								<path id="_Path_53" class="st3" d="M111.3,45.8c3.1,1.3,6,2.8,8.9,4.5c2.3,1.5,4.4,3.2,6.2,5.3c1.2,1.4,2.1,3,2.8,4.7
									c0.2,0.5,0.3,0.9,0.5,1.4l0.1,0.5l-0.2-0.5c-0.2-0.5-0.4-0.9-0.6-1.3c-0.8-1.6-1.9-3-3.2-4.3c-1.9-1.8-4-3.4-6.3-4.7
									c-2.8-1.6-5.8-3-8.8-4.2c-5.5-2.3-11.1-4.2-16.8-5.8c-2.2-0.6-4-1-5.3-1.3l-1.9-0.4l2,0.2c1.3,0.1,3.1,0.3,5.4,0.7
									C99.9,41.8,105.7,43.5,111.3,45.8z"/>
							</g>
							<g id="_Group_37">
								<path id="_Path_54" class="st5" d="M109.8,77.2c1.8-0.1,3.6-0.4,5.4-0.8c0.7-0.2,1.3-0.3,1.6-0.4l0.6-0.2l-0.5,0.4
									c-0.5,0.4-0.9,0.7-1.5,1c-1.7,1-3.6,1.5-5.6,1.7c-2,0.1-3.9-0.2-5.7-0.9c-0.5-0.2-1.1-0.5-1.6-0.8l-0.5-0.3l0.6,0.1
									c0.4,0.1,1,0.2,1.7,0.2C106.2,77.3,108,77.4,109.8,77.2z"/>
							</g>
							<g id="_Group_38">
								<path id="_Path_55" class="st5" d="M121.4,72.1c0.5-0.3,1-0.5,1.5-0.6c0.4-0.1,0.8-0.2,0.8-0.2c0,0.3-0.1,0.5-0.2,0.8
									c-0.5,1.2-1.7,1.9-3,1.8c-0.3,0-0.5-0.1-0.8-0.2c0.2-0.2,0.3-0.4,0.5-0.6C120.5,72.7,120.9,72.3,121.4,72.1z"/>
							</g>
							<g id="_Group_39">
								<path id="_Path_56" class="st5" d="M108.3,72.8c2.9-0.4,5.7-1.3,8.3-2.7c2.2-1.1,4.2-2.4,6.2-3.8c1.7-1.2,3.1-2.2,4-2.9
									l1.5-1.1l-1.3,1.3c-0.8,0.8-2.1,2-3.7,3.3c-1.9,1.6-3.9,3-6.1,4.3c-2.7,1.6-5.6,2.6-8.7,3.1c-3.1,0.4-6.3,0-9.2-1
									c-2.4-0.8-4.6-1.8-6.8-3.1c-1.8-1.1-3.3-2-4.2-2.7l-1.5-1l1.6,0.8c1.1,0.5,2.6,1.3,4.5,2.2c2.2,1,4.5,1.9,6.8,2.5
									C102.5,72.9,105.4,73.1,108.3,72.8z"/>
							</g>
							<g id="_Group_40">
								<path id="_Path_57" class="st3" d="M106.3,40.6c2.7,0.9,5.4,1.9,7.9,3.2c2,1,3.1,1.7,3.1,1.7s-1.3-0.3-3.4-0.9
									s-5-1.5-8.1-2.4s-6-1.8-8.1-2.3c-1-0.2-1.9-0.4-2.5-0.5l-0.9-0.2l0.9-0.1c0.9,0,1.7,0,2.6,0
									C100.7,39.2,103.5,39.7,106.3,40.6z"/>
							</g>
							<g id="_Group_41">
								<path id="_Path_58" class="st3" d="M120,42c1.6,1.1,3.1,2.4,4.3,4c0.5,0.6,0.9,1.3,1.3,2l-1.9-1.4c-1.2-0.9-2.8-2-4.6-3.2
									s-3.5-2.2-4.7-3l-2.1-1.2c0.8,0.1,1.6,0.2,2.4,0.4C116.6,40.1,118.4,40.9,120,42z"/>
							</g>
							<g id="_Group_42">
								<path id="_Path_59" class="st2" d="M125.5,43.6c-0.6,1.4-2.9,2-3.6,0.6c1.1,1.7,2,3.6,2.6,5.6c-3.6,0.4-7.3-0.1-10.7-1.6
									c11.6,5.8,14.4,10.5,14.4,10.5s1.7-10-2.6-17.6C125.8,41.9,125.8,42.8,125.5,43.6z"/>
								<path id="_Path_60" class="st2" d="M102.8,42.1c-0.7-0.5-1.2-1.8-0.7-2c-1,0-1.7-0.8-1.7-1.8c0.1-1.1,0.7-2,1.6-2.6
									c3.1-2.6,7.3-3.4,11.1-2.1l-0.1-0.7c-12.9-2.1-21.1,7.8-21.1,7.8c6.2,1.2,12.2,3.1,17.9,5.7C107.3,45,105,43.5,102.8,42.1z"
									/>
							</g>
						</g>
						<g id="_Group_43">
							<path id="_Path_61" class="st1" d="M3.8,121.7c0.6,0,1.1,0.1,1.7,0.2c0.1-0.5,0.3-1,0.5-1.4c-0.7-0.2-1.4-0.4-2.1-0.4
								c-0.8-0.1-1.7,0-2.5,0.2c-0.2,0.5-0.4,1-0.5,1.5C1.9,121.7,2.8,121.7,3.8,121.7z"/>
							<path id="_Path_62" class="st1" d="M29.5,122.4c0,0.4-0.1,0.8-0.2,1.2c1.3,0,2.6-0.3,3.8-1c0.1-0.1,0.2-0.2,0.3-0.2
								c0.1-0.6,0.1-1.3,0-1.9c-0.3,0.2-0.7,0.5-1.1,0.7C31.4,121.7,30.5,122.1,29.5,122.4z"/>
							<path id="_Path_63" class="st1" d="M7.7,135.1c0.4-0.5,0.6-0.8,0.6-0.8c-0.3,0-0.7,0-1,0.1c-0.8,0.2-1.5,0.5-2.2,1
								c-0.6,0.5-1.2,1.1-1.5,1.8l-0.1,0.3c0.1,0.1,0.2,0.3,0.3,0.4l0.3-0.1c0.7-0.3,1.3-0.7,1.9-1.1C6.7,136.2,7.3,135.7,7.7,135.1
								z"/>
							<path id="_Path_64" class="st1" d="M28.1,118.4c0.2,0.2,0.4,0.5,0.5,0.8c1.3-0.7,2.2-1.8,2.6-3.2c-0.4-0.5-0.7-0.9-1.2-1.3
								c-0.2,0.5-0.4,0.9-0.6,1.4C29.1,116.8,28.7,117.6,28.1,118.4z"/>
							<path id="_Path_65" class="st1" d="M52.2,140.3c0.5,0.7,0.9,1.5,1.1,2.4l1.3-0.2c0-1.1-0.4-2.2-1-3.1
								c-0.3-0.4-0.7-0.8-1.1-1.2l-1.8,0.4C51.3,139,51.8,139.6,52.2,140.3z"/>
							<path id="_Path_66" class="st1" d="M29.2,145.6c-0.2-1.1-0.6-2.2-1.4-3.1c-0.3-0.3-0.6-0.6-1-0.9h0c0,0.1,0.1,0.6,0.3,1.3
								s0.4,1.8,0.5,2.9c0.1,0.4,0.1,0.8,0.1,1.2c0.5,0,1,0,1.5-0.1C29.2,146.5,29.3,146.1,29.2,145.6z"/>
							<path id="_Path_67" class="st1" d="M37.6,141.9c-0.1-0.4-0.3-0.8-0.5-1.1l-1.7,0.2c0.3,0.4,0.5,0.9,0.7,1.4
								c0.4,1.2,0.6,2.4,0.6,3.6l1.1-0.2C38.1,144.5,38,143.2,37.6,141.9z"/>
							<path id="_Path_68" class="st1" d="M24.3,146.2c0.8-1.1,1.1-2.5,1.1-3.8c0-0.3,0-0.5-0.1-0.8h-0.5c-0.1,0.2-0.1,0.4-0.3,0.7
								c-0.4,1.1-1,2.1-1.6,3c-0.4,0.5-0.8,1.1-1.2,1.6c0.6,0.1,1.3,0.1,1.9,0.1C23.9,146.8,24.1,146.5,24.3,146.2z"/>
							<path id="_Path_69" class="st1" d="M23.4,113c0.1,0.6,0.1,1.2,0.1,1.8l0.4,0.2c0.3,0.1,0.5,0.3,0.7,0.4
								c0.4-0.8,0.5-1.8,0.4-2.7c-0.1-0.8-0.4-1.5-0.9-2.1c-0.5-0.2-1-0.4-1.5-0.5C22.9,111,23.2,112,23.4,113z"/>
							<path id="_Path_70" class="st1" d="M6.2,129.4c-0.1-0.3-0.2-0.6-0.3-0.9c-1.1,0-2.2,0.2-3.2,0.6c-0.8,0.3-1.6,0.8-2.3,1.4
								c0.1,0.4,0.2,0.7,0.3,1.1l2.6-1L6.2,129.4z"/>
							<path id="_Path_71" class="st1" d="M44.6,143.9c0.2-1.1,0.1-2.2-0.3-3.3c-0.1-0.3-0.3-0.6-0.5-0.8l-1.6,0.3
								c0.3,0.4,0.5,0.8,0.7,1.2c0.4,0.9,0.7,1.9,1,2.7l0.2,0.6l0.5-0.1C44.5,144.3,44.6,144.1,44.6,143.9z"/>
							<path id="_Path_72" class="st1" d="M13.1,143.5c1.2-1.2,2.1-2.6,2.4-4.3l-0.7-0.4c0,0,0,0,0,0.1c-0.8,1.3-1.7,2.4-2.8,3.4
								c-0.4,0.4-0.9,0.8-1.3,1.1c0.5,0.3,1,0.6,1.5,0.8C12.5,144,12.8,143.7,13.1,143.5z"/>
							<path id="_Path_73" class="st1" d="M10.7,112.3c0.6,0.7,1.2,1.3,1.7,2c0.4-0.2,0.8-0.3,1.1-0.4c-0.4-0.9-1-1.8-1.6-2.6
								c-0.2-0.3-0.5-0.5-0.8-0.7c-0.5,0.2-1,0.4-1.5,0.7L10.7,112.3z"/>
							<path id="_Path_74" class="st1" d="M14.8,109.5l0.2,0.3c0.5,0.6,1.2,1.5,1.8,2.4l0.8,1c0.5,0,1,0.1,1.6,0.2
								c-0.2-0.8-0.5-1.5-1-2.1c-0.6-0.8-1.3-1.4-2.2-1.8C15.6,109.4,15.2,109.4,14.8,109.5z"/>
						</g>
						<g id="_Group_44">
							<path id="_Path_75" class="st5" d="M93.6,154.3c14.3,0.3,19.7-16.7,14.3-25.3s-21-4.7-21.7,3.3c-0.1,1-0.1,2,0.1,3
								c0.6-0.4,1.1-1,1.3-1.7c1.5-5,13.3-7.3,18.3-1.5s-1,14.5-10.3,17.5s-38.8-13.3-38.8-13.3s-0.1,0.5-0.1,1.4
								C63.5,142.3,82,154.1,93.6,154.3z"/>
						</g>
						<g id="_Group_45">
							<path id="_Path_76" class="st1" d="M75.6,145.3l-1.3-0.5c-0.1,1-0.2,2.1-0.3,3.2l1.5,0.8c0,0,0,0,0-0.1
								C75.6,147.5,75.7,146.4,75.6,145.3z"/>
							<path id="_Path_77" class="st1" d="M69.2,142.8c0-0.1,0-0.2,0-0.3l-1.5-0.7c0,0.3-0.1,0.6-0.1,0.9c-0.1,0.6-0.1,1.3-0.1,1.8
								l1.1,0.6C69,144.4,69.2,143.6,69.2,142.8z"/>
							<path id="_Path_78" class="st1" d="M83.3,150.3c-0.1-0.8-0.3-1.6-0.3-2.3c-0.5-0.1-0.9-0.3-1.3-0.4c-0.1,1,0,2,0.1,3
								c0.1,0.3,0.1,0.7,0.2,1l1.7,0.6C83.5,151.6,83.4,150.9,83.3,150.3z"/>
							<path id="_Path_79" class="st1" d="M107.7,136.6c0,0.2,0,0.5,0,0.7c0.2-0.1,0.4-0.1,0.6-0.2c0.6-0.3,1.1-0.7,1.6-1.1
								c0-0.8-0.1-1.6-0.3-2.4l-0.3,0.5c-0.5,0.8-1,1.6-1.6,2.3C107.8,136.5,107.7,136.6,107.7,136.6z"/>
							<path id="_Path_80" class="st1" d="M106.3,145.1c-1,0.2-2.1,0.2-3.1,0.2c-0.3,0.3-0.6,0.5-0.9,0.8c1.3,0.6,2.8,0.8,4.3,0.6
								c0.3,0,0.5-0.1,0.8-0.2c0.3-0.6,0.6-1.2,0.9-1.8C107.6,144.9,107,145,106.3,145.1z"/>
							<path id="_Path_81" class="st1" d="M63.3,141.9c0.2-0.5,0.3-1,0.3-1.5c0-0.2,0-0.4,0-0.6l-1.5-0.8c0,0.4,0,0.8-0.1,1.3
								c0,0.3,0,0.6-0.1,0.8L63.3,141.9z"/>
							<path id="_Path_82" class="st1" d="M95.5,149.6c0.6,1,1.4,1.8,2.4,2.5c0.7,0.4,1.4,0.8,2.1,1c0.5-0.2,1-0.5,1.5-0.8
								c-1-0.5-1.9-1-2.8-1.6c-0.7-0.5-1.4-1-2.1-1.6c-0.4,0.1-0.7,0.3-1.1,0.4L95.5,149.6z"/>
							<path id="_Path_83" class="st1" d="M106.6,141c-0.1,0.2-0.3,0.5-0.4,0.7l0.2,0.1c0.9,0.3,1.9,0.3,2.8,0
								c0.2-0.7,0.3-1.3,0.4-2l-0.4,0.3C108.4,140.6,107.5,140.9,106.6,141z"/>
							<path id="_Path_84" class="st1" d="M87.8,128.5c1.1,0.2,2.1,0.6,3,1.2c0.1,0.1,0.2,0.2,0.3,0.3c0.5-0.2,1.1-0.5,1.6-0.6
								c-0.3-0.4-0.6-0.7-1-1c-0.9-0.6-1.9-0.9-2.9-0.9C88.5,127.8,88.2,128.1,87.8,128.5z"/>
							<path id="_Path_85" class="st1" d="M86.9,134.8c-0.2-0.1-0.5-0.2-0.7-0.3c0,0.3,0.1,0.6,0.1,0.8
								C86.6,135.2,86.8,135,86.9,134.8z"/>
							<path id="_Path_86" class="st1" d="M90.6,151.9c-0.6-0.9-1.2-1.7-1.7-2.4c-0.5-0.1-0.9-0.2-1.4-0.3c0.4,1.3,1,2.6,1.8,3.6
								c0.3,0.4,0.6,0.8,0.9,1.1c0.7,0.1,1.4,0.2,2.1,0.3C91.8,153.6,91.2,152.8,90.6,151.9z"/>
							<path id="_Path_87" class="st1" d="M105.9,126.7c0,0.5,0.1,0.9,0.1,1.4c0,1.2-0.1,2.5-0.3,3.7l0.2,0.2
								c0.2,0.2,0.3,0.4,0.4,0.6c0,0,0,0,0-0.1c0.7-1.2,1.2-2.6,1.2-4C107.1,127.9,106.5,127.3,105.9,126.7z"/>
							<path id="_Path_88" class="st1" d="M96.3,127.5c0.3,0.4,0.6,0.8,0.8,1.2c0.5,0,1.1,0,1.6,0.1c-0.3-0.8-0.7-1.5-1.1-2.2
								c-0.5-0.8-1.1-1.6-1.8-2.3c-0.4,0.1-0.8,0.1-1.2,0.2C95.2,125.6,95.7,126.5,96.3,127.5z"/>
							<path id="_Path_89" class="st1" d="M101.1,125.7c0.7,1.2,1.1,2.6,1.4,3.9c0.3,0.1,0.7,0.3,1,0.4c0.2-1.7-0.1-3.5-0.9-5.1
								c0-0.1-0.1-0.2-0.2-0.3c-0.7-0.2-1.4-0.4-2.1-0.5C100.5,124.7,100.8,125.2,101.1,125.7z"/>
						</g>
						<g id="_Group_46">
							<path id="_Path_90" class="st1" d="M138.9,119.5l0.2,0.7c0.2,0.9,0.4,1.8,0.3,2.7c0.2,0.3,0.4,0.6,0.6,0.9l0.1-0.2
								c0.4-0.7,0.6-1.5,0.6-2.4C140.3,120.7,139.6,120.1,138.9,119.5z"/>
							<path id="_Path_91" class="st1" d="M134.4,117.2c0.6,0.9,1.2,1.8,1.6,2.4l0.7,1.1c0.1-0.4,0.1-0.9,0.1-1.3
								c0-0.5-0.1-0.9-0.2-1.3c-0.7-0.4-1.4-0.7-2.2-1C134.3,117,134.4,117.1,134.4,117.2z"/>
							<path id="_Path_92" class="st1" d="M143.1,125.3c-0.1,1.1-0.5,2.2-1.2,3.1l-0.2,0.4c0,0.2,0,0.4,0.1,0.7
								c0.2-0.1,0.5-0.3,0.8-0.4c0.5-0.4,1-0.8,1.4-1.3c0.2-0.2,0.3-0.5,0.4-0.7c-0.3-1-0.8-1.9-1.3-2.8
								C143,124.6,143.1,124.9,143.1,125.3z"/>
							<path id="_Path_93" class="st1" d="M119.2,121.2c0.5,0,0.9,0.1,1.4,0.2c0.2-0.3,0.5-0.6,0.8-0.9c-0.1-0.1-0.3-0.3-0.5-0.4
								c-0.5-0.3-1-0.4-1.6-0.5c-0.3,0-0.6,0-0.9,0c-0.3,0.4-0.6,0.9-0.8,1.4C118.1,121.1,118.6,121.1,119.2,121.2z"/>
							<path id="_Path_94" class="st1" d="M111.2,151.8c0.5,0.1,1,0.2,1.5,0.2c0.2-0.5,0.4-0.9,0.4-1.4c0.2-1.2,0.2-2.4-0.2-3.6
								l-1.1-0.3c0.1,1.2,0,2.4-0.3,3.5C111.5,150.8,111.4,151.3,111.2,151.8z"/>
							<path id="_Path_95" class="st1" d="M127.6,116l0.2,0.5c0.3,0.6,0.7,1.3,1.1,2c0.6,0,1.3,0.1,1.9,0.2
								c-0.1-0.2-0.2-0.4-0.3-0.7c-0.5-0.8-1.1-1.5-1.9-2L127.6,116z"/>
							<path id="_Path_96" class="st1" d="M144.3,132.5c0.4-0.5,0.7-1,0.9-1.6c-0.1-0.7-0.2-1.4-0.4-2.1c0,0,0,0,0,0.1
								c-0.5,0.9-1.1,1.8-1.8,2.6c-0.5,0.6-1.1,1.2-1.7,1.7c-0.1,0.4-0.2,0.8-0.3,1.2l0,0C142.3,134.2,143.4,133.5,144.3,132.5z"/>
							<path id="_Path_97" class="st1" d="M118.4,152.3c0.6-1.5,0.4-3.1-0.3-4.5c-0.4,0-0.9-0.1-1.3-0.1c0.1,0.6,0.2,1.4,0.3,2.2
								s0.3,1.8,0.3,2.5L118.4,152.3z"/>
							<path id="_Path_98" class="st1" d="M130.6,147.9c-0.7-0.6-1.3-1.1-1.9-1.6l-1,0.4c0.4,1,1.1,1.8,1.9,2.5
								c0.3,0.2,0.6,0.5,0.9,0.6c0.6-0.2,1.1-0.4,1.6-0.7C131.7,148.8,131.2,148.4,130.6,147.9z"/>
							<path id="_Path_99" class="st1" d="M136.4,146.8c-0.6-0.3-1.4-0.7-2.4-1.1s-1.6-0.6-2.2-0.8l-0.8,0.4l0.1,0.2
								c0.6,0.7,1.4,1.3,2.3,1.7c0.6,0.2,1.1,0.4,1.7,0.4C135.6,147.3,136.1,147.1,136.4,146.8L136.4,146.8z"/>
							<path id="_Path_100" class="st1" d="M118.4,130.1c0.3,0.5,0.7,0.9,1.1,1.3c0.6,0.1,1.1,0.1,1.7,0c0.2,0,0.4-0.1,0.6-0.2
								c-0.4-0.4-0.7-0.9-1-1.4C120,130,119.2,130,118.4,130.1z"/>
							<path id="_Path_101" class="st1" d="M144.5,138.2c-1.1,0.5-2.3,0.9-3.5,1.1c-1,0.2-2,0.3-2.9,0.4c-0.3,0.4-0.7,0.8-1,1.2
								c1.4,0.2,2.8,0.2,4.2,0c0.8-0.2,1.6-0.4,2.4-0.8C144,139.5,144.3,138.9,144.5,138.2z"/>
							<path id="_Path_102" class="st1" d="M118.7,125c-0.6,0.1-1.2,0.3-1.8,0.6c0,0.4,0.1,0.8,0.2,1.1c0.6,0,1.2,0,1.8-0.1l0.7-0.1
								c-0.1-0.5-0.1-1-0.1-1.5C119.2,125,119,125,118.7,125z"/>
							<path id="_Path_103" class="st1" d="M125.4,149.5c-0.5-0.6-1-1.3-1.5-2l-1.2,0.1c0.2,1.1,0.7,2.1,1.4,2.9
								c0.3,0.3,0.6,0.6,0.9,0.9c0.6-0.1,1.1-0.3,1.7-0.4C126.3,150.6,125.8,150.1,125.4,149.5z"/>
						</g>
						<g id="_Group_47">
							<path id="_Path_104" class="st5" d="M50.4,121.3c0.4,0,0.7-0.4,0.6-0.8c0-0.3-0.3-0.6-0.6-0.6c-0.4,0-0.7,0.4-0.6,0.8
								C49.8,121,50.1,121.3,50.4,121.3z"/>
							<path id="_Path_105" class="st5" d="M53.7,112.2c-0.7-1.4-3-0.4-2.5,1c0.3,0.7,0.4,1.5,0.4,2.2c-0.1,0.5,0.1,1.1,0.4,1.5
								c0.4,0.4,1,0.5,1.5,0.3C55.4,116.6,54.3,113.4,53.7,112.2z"/>
							<path id="_Path_106" class="st5" d="M11.3,67.9c1.1,0,2-0.9,2-1.9c0-0.7-0.2-1.5-0.6-2.1c-0.5-0.6-1.1-1.1-1.9-1.3
								c-0.1,0-0.2,0-0.3,0C10.7,64.3,11,66.1,11.3,67.9z"/>
							<path id="_Path_107" class="st5" d="M73.2,1.8c0,1.1,0.9,2,2,2s2-0.9,2-2c0-0.8-0.5-1.5-1.3-1.8h-1.4
								C73.7,0.3,73.2,1,73.2,1.8z"/>
							<path id="_Path_108" class="st5" d="M118.2,30.9c0.8,0.2,1.6-0.3,1.8-1.1c0.2-0.6-0.1-1.3-0.7-1.6c-0.3-0.2-0.6-0.3-0.8-0.4
								c-0.8-0.4-1.7-0.2-2.2,0.6c-0.4,0.8-0.2,1.7,0.6,2.2c0.1,0.1,0.2,0.1,0.3,0.1C117.5,30.7,117.8,30.8,118.2,30.9z"/>
							<path id="_Path_109" class="st5" d="M56.9,113.3c-0.9,0-1.6,0.7-1.6,1.6c0,0.9,0.7,1.6,1.6,1.6c0.9,0,1.6-0.7,1.6-1.6
								C58.5,114.1,57.8,113.3,56.9,113.3z"/>
							<path id="_Path_110" class="st5" d="M25,25.1h-0.3c-0.8,0-1.5,0.6-1.5,1.4c0,0.8,0.6,1.5,1.4,1.5c0.4,0,0.8-0.1,1-0.4
								l0.2-0.3c0.4-0.4,0.5-0.9,0.3-1.4C26,25.4,25.5,25.1,25,25.1z"/>
							<path id="_Path_111" class="st5" d="M69.9,4.8c0.2-0.8,0.2-1.7,0-2.6c-0.1-0.8-0.5-1.5-1-2.1c-3.3,0.1-6.3,0.3-9.3,0.7
								c-0.2,0.8-0.2,1.5,0,2.3c0.1,0.8,0.4,1.6,0.8,2.3c0.3,0.5,0.6,0.9,1,1.3C62.2,7.4,63,7.9,64,8.2c1.7,0.5,3.5,0,4.7-1.2
								C69.3,6.3,69.7,5.6,69.9,4.8z"/>
							<path id="_Path_112" class="st5" d="M125.9,29c-0.5,0.1-0.8,0.5-0.8,0.9c0,0.4,0.4,0.7,0.8,0.8c0.5-0.1,0.8-0.5,0.8-0.9
								C126.6,29.4,126.3,29,125.9,29z"/>
							<path id="_Path_113" class="st5" d="M79.9,141.1c-0.4-0.8-1.2-1.4-2-1.6c-0.7-0.1-1.4-0.1-2.1,0.2c-0.8,0.3-1.2,1.1-1,1.9
								c0,0.1,0,0.1,0.1,0.2c1.8,0.2,3.6,0.4,5.3,0.7C80.3,142,80.2,141.5,79.9,141.1z"/>
							<path id="_Path_114" class="st5" d="M22.1,23.9c1.1-0.4,2.1-1.1,2.7-2.1c0.1-0.3,0.3-0.5,0.5-0.8c0.2-0.3,0.3-0.6,0.4-0.9
								c0.1-0.1,0.3-0.7,0,0c0.5-0.9,0.4-2.1-0.2-2.9c-0.5-0.6-1.3-1-2.1-1C21.6,18,20.1,20,18.8,22C19.2,23.4,20.7,24.3,22.1,23.9z
								"/>
							<path id="_Path_115" class="st5" d="M15.5,70.8l0.1-0.3c0.2-0.6-0.1-1.3-0.7-1.7l-0.1-0.1c-0.7-0.4-1.5-0.2-1.9,0.5
								c-0.1,0.1-0.1,0.2-0.1,0.3l-0.1,0.2c-0.2,0.5,0,1.1,0.4,1.4l0.3,0.2c0.5,0.5,1.3,0.5,1.8,0C15.4,71.1,15.5,71,15.5,70.8z"/>
							<path id="_Path_116" class="st5" d="M20,30.4c0,0,0-0.1,0-0.1C20,30.3,20,30.4,20,30.4z"/>
							<path id="_Path_117" class="st5" d="M20,30.3C20,30.3,20,30.3,20,30.3c0-0.1,0.1-0.2,0.1-0.2c0.2-0.4,0.2-0.8,0.1-1.2
								c-0.2-0.6-0.8-1-1.4-1c-1.4,0-2,1.4-2,2.5c0,0.9,0.7,1.6,1.5,1.6c0.9,0,1.6-0.7,1.6-1.5C20,30.5,20,30.4,20,30.3z"/>
							<path id="_Path_118" class="st5" d="M86.4,109.7c-0.6,0.9-1,1.9-1,2.9c-0.1,1,0.1,2.1,0.6,3c0.6,1,2,1.4,3,0.8
								c0.5-0.3,0.8-0.7,1-1.3c0.2-0.6,0.2-1.3,0.3-1.9c0.1-0.8,0.2-1.6,0.2-2.3c0-1-0.6-1.8-1.6-2.1C88,108.4,87,108.8,86.4,109.7z
								"/>
							<path id="_Path_119" class="st5" d="M128.4,41.8c0.6-0.1,1.1-0.6,1.3-1.2c0.3-1-0.2-2-1.2-2.4c-1-0.3-2,0.2-2.4,1.2l0,0
								C125.8,40.8,127.1,42.4,128.4,41.8z"/>
							<path id="_Path_120" class="st5" d="M82.4,140.8c0.3-0.1,0.5-0.4,0.6-0.7c0-0.9-0.9-1.2-1.6-1.4c-0.4-0.1-0.8,0.2-0.8,0.6
								c0,0.1,0,0.3,0,0.4C81,140.3,81.5,141.1,82.4,140.8z"/>
							<path id="_Path_121" class="st5" d="M76.3,102.6c0.9,0.3,1.9-0.1,2.3-0.9c0.4-0.9,0-1.9-0.9-2.3c-0.9-0.4-1.9,0-2.3,0.9
								S75.4,102.2,76.3,102.6C76.3,102.6,76.3,102.6,76.3,102.6z"/>
							<path id="_Compound_Path_" class="st5" d="M67.8,101.9c0.9,0.5,2.1,0.4,2.8-0.4l0,0c0.1,0,0.1,0,0.2,0c0.5-0.2,1-0.4,1.4-0.8
								c0.3-0.3,0.5-0.6,0.6-0.9l0.1-0.2c0.8-1.3,0.3-3-1.1-3.8c-0.4-0.2-0.9-0.3-1.3-0.4c-1.1-0.1-2.2,0.4-2.9,1.2
								c-0.5,0.6-0.7,1.3-0.7,2l0,0c-0.1,0.2-0.1,0.4-0.2,0.6C66.4,100.3,66.9,101.3,67.8,101.9z M69.5,101.6L69.5,101.6
								C69.2,101.5,68.6,101.4,69.5,101.6z"/>
							<path id="_Path_122" class="st5" d="M92,114.3c-0.4,0-0.8,0.4-0.7,0.9c0,0.4,0.3,0.7,0.7,0.7c0.4,0,0.8-0.4,0.7-0.9
								C92.7,114.6,92.4,114.3,92,114.3z"/>
							<path id="_Path_123" class="st5" d="M83.4,143.1l0.5,0.1C83.8,143.1,83.6,143.1,83.4,143.1z"/>
							<path id="_Path_124" class="st5" d="M74.6,10.4c0.9-0.3,1.5-0.9,1.8-1.8c0.3-1.1-0.2-2.3-1.2-2.9l-0.1-0.1
								C74,5,72.5,5.4,71.8,6.6l-0.1,0.1c-0.5,0.9-0.4,2,0.2,2.8C72.6,10.4,73.6,10.7,74.6,10.4z"/>
							<path id="_Path_125" class="st5" d="M80.1,13h0.1c0.6,0,1.2-0.4,1.4-1c0.3-0.6,0.1-1.3-0.3-1.7c-0.4-0.4-1-0.5-1.6-0.4
								c-0.7,0.2-1.2,0.8-1.2,1.5c0,0,0,0.1,0,0.1C78.7,12.3,79.3,13,80.1,13z"/>
							<path id="_Path_126" class="st5" d="M132.6,32.4c-0.2-0.1-0.3-0.2-0.5-0.3c-0.8-0.5-1.8-0.4-2.6,0.2
								c-0.7,0.6-1.1,1.5-0.8,2.4c0.1,0.5,0.3,1,0.6,1.4c0.2,0.3,0.5,0.5,0.8,0.8c0.9,0.9,2.2,0.9,3.2,0.2c0.4-0.3,0.6-0.7,0.8-1.1
								C133.6,34.8,133.1,33.6,132.6,32.4z"/>
							<path id="_Path_127" class="st5" d="M124.4,32.1c-1,0-1.7,0.8-1.7,1.7c0,1,0.8,1.7,1.7,1.7h0.3c1,0.1,1.8-0.6,1.9-1.6
								s-0.6-1.8-1.6-1.9c-0.1,0-0.2,0-0.3,0H124.4z"/>
							<path id="_Path_128" class="st5" d="M75.1,98.3c0.9,0,1.6-0.6,1.9-1.4c0.1-0.3,0.1-0.6,0.1-0.8c-0.2-1.1-1.2-1.8-2.3-1.6
								c-0.8,0.1-1.5,0.8-1.6,1.6c0,0.3,0,0.6,0.1,0.8C73.6,97.7,74.3,98.3,75.1,98.3z"/>
							<path id="_Path_129" class="st5" d="M119.8,23.1c-0.8,0.2-1.2,1-1,1.8c0.1,0.6,0.2,1.1,0.4,1.6c0.5,0.6,1.1,1.1,1.8,1.5
								c1.1,0.7,2.6,0.3,3.3-0.8c0.3-0.6,0.4-1.2,0.2-1.9c-0.2-0.6-0.6-1.1-1.1-1.4c-0.6-0.6-1.3-0.9-2.2-1
								C120.8,22.9,120.3,23,119.8,23.1z"/>
							<path id="_Path_130" class="st5" d="M82,0.5c-0.2,0.1-0.3,0.2-0.5,0.4L81.3,1c-0.4,0.3-0.7,0.7-1,1.1
								c-0.2,0.3-0.4,0.6-0.6,0.9c-0.2,0.4-0.4,0.9-0.4,1.4v0.1c0,0,0,0,0,0.1c0,0.1,0,0.1,0,0c-0.3,1.2,0.5,2.3,1.6,2.6
								c0.2,0,0.3,0.1,0.5,0.1c0.7,0,1.4-0.1,2-0.4c0.4-0.2,0.7-0.5,1.1-0.7c1.4-1,2.2-2.8,2-4.5c-0.1-0.3-0.2-0.6-0.5-0.9
								c-1.2-0.2-2.5-0.3-3.7-0.4L82,0.5z"/>
							<path id="_Path_131" class="st5" d="M87.6,6.6h-0.2c-1.3,0.2-1.6,2.1-0.8,2.9s2.7,0.6,2.9-0.8V8.6c0.2-0.9-0.4-1.8-1.3-2
								C88.1,6.6,87.8,6.6,87.6,6.6z"/>
						</g>
						<g id="_Group_48">
							<path id="_Path_132" class="st5" d="M52,19.4c0.1,0.1,0.3,0.3,0.4,0.4C52.3,19.7,52.1,19.5,52,19.4z"/>
							<path id="_Path_133" class="st5" d="M51.5,19c0.2,0.1,0.3,0.2,0.5,0.4C51.8,19.2,51.6,19.1,51.5,19z"/>
						</g>
						<g id="_Group_49">
							<path id="_Compound_Path_2" class="st3" d="M91.6,22.5c0-0.9,0.5-1.7,1.3-2.1c3.3-1.3,5.3,1,8.3,2c2.1,0.7,5.3-0.3,6.5,2.2
								c0.7,1.4,0.4,3-0.7,4.1c-2.6,3-6.3,3-9.6,1.2C94.9,28.5,91.4,25.8,91.6,22.5z"/>
							<path id="_Path_134" class="st5" d="M107.7,24.5c-1.2-2.5-4.3-1.5-6.5-2.2c-3-0.9-5-3.2-8.3-2c-0.2,0.1-0.3,0.2-0.5,0.3
								c0.5,2.8,3.4,5.1,5.8,6.4c3.3,1.8,7,1.7,9.6-1.2c0.1-0.1,0.2-0.2,0.3-0.4C108,25.2,107.9,24.8,107.7,24.5z"/>
						</g>
						<g id="_Group_50">
							<path id="_Compound_Path_3" class="st3" d="M55.9,20.9c0.1,3.2-3.3,5.9-5.8,7.3c-3.3,1.8-7,1.7-9.5-1.2
								c-1.1-1.1-1.4-2.7-0.7-4.1c1.2-2.5,4.3-1.5,6.5-2.2c3-0.9,5-3.2,8.3-2C55.4,19.2,55.9,20,55.9,20.9z"/>
							<path id="_Path_135" class="st5" d="M39.8,22.9c1.2-2.5,4.3-1.5,6.5-2.2c3-0.9,5-3.2,8.3-2c0.2,0.1,0.3,0.2,0.5,0.3
								c-0.5,2.8-3.4,5.1-5.8,6.4c-3.3,1.8-7,1.7-9.5-1.2c-0.1-0.1-0.2-0.2-0.3-0.4C39.6,23.5,39.7,23.2,39.8,22.9z"/>
						</g>
					</g>
					<path id="_Path_136" class="st2" d="M40.9,97.8c-12.8-4.8-22-14.8-24.2-17.4c6.1,10.7,15.4,17.6,21.7,20.4
						c10.4,4.6,22.7,21-5.6,31.7c-4.1,1.5-8.7,1.2-12.5-1c11.5,8.5,29.9-5.1,32.9-9.5S55.6,103.3,40.9,97.8z"/>
				</g>
			</g>
		</g>
	</g>
</g>
</svg>
