<svg xmlns="http://www.w3.org/2000/svg" viewBox="0 0 201.03 167.71"><defs><style>.cls-1{fill:#1d262d;}.cls-1,.cls-8{opacity:0.4;isolation:isolate;}.cls-2{fill:#9f4f05;}.cls-3{fill:#e6a21a;}.cls-4,.cls-8{fill:#432911;}.cls-5{fill:none;stroke:#9f4f05;stroke-linecap:round;stroke-linejoin:round;stroke-width:1.01px;}.cls-6{fill:#dcee69;}.cls-7{fill:#f9fbfc;}</style></defs><title>Asset11</title><g id="Layer_2" data-name="Layer 2"><g id="OBJECTS"><path class="cls-1" d="M24.64,152.82c-.13-8.85,35.54-16.53,79.66-17.17s80,6,80.11,14.86S148.88,167,104.76,167.67,24.77,161.66,24.64,152.82Z"/><path class="cls-2" d="M24.12,0c-2.44-.53-11.26,34.1-5.46,49.9,4,11,12.08,15,29.29,9.16l2.22-27.13s-18.52,6.2-21.44-3.37C24.42,14.47,26.56.53,24.12,0Z"/><path class="cls-2" d="M160.55,35.71s19.2,2.77,21.55-6.3C185.06,18,185,12,185,12l2.33,10.92,2.9-3.34s5.43,16.83,1.45,27.09c-3.46,8.93-13.76,19.75-32.14,12.15Z"/><path class="cls-3" d="M61.55,19.51s47.9-4.76,73.68-.6,25.42,4.2,29.44,17.25c5,16.11.5,35,.5,35,0,8-2.54,21.23-15,25.15C111,108.55,59.72,94.8,59.72,94.8c-8,0-14.72-9.38-17.42-19.31C40,67,40.37,54.52,43,38.17,45.63,22.18,53.51,19.51,61.55,19.51Z"/><path class="cls-3" d="M80.39,96.7l3.72,43.42s-22.59,4-26,10.23,10.13-.74,13.39-1.58c0,0-7.44,3.44-9.67,8.28s13.29-4.19,18.13-6.05c0,0-6.88,3.72-9.77,9.39s23.44-8.46,25.67-10.5-2.33-31.15-2-52.82Z"/><path class="cls-3" d="M128.39,95.09l-2.8,43.67s22.59,4,26,10.23-10.13-.74-13.39-1.58c0,0,7.44,3.44,9.67,8.28s-13.29-4.19-18.13-6.05c0,0,6.88,3.72,9.77,9.39s-23.44-8.46-25.67-10.5,1.43-31.78,1.15-53.44Z"/><path class="cls-3" d="M140.89,95.81s12.2,28.43,25.46,18.63,18.92-20.55,18.92-20.55,3.84,2.11,8.45-1.64,7.4-7.64,7.11-8.45c-.59-1.63-5.86,1.64-5.86,1.64s7-7.11,5.95-8.94-9,4.9-9,4.9,6.33-8.55,5.28-10-9,6.24-9,6.24,4.61-8.06,3.55-9.69-10.47,8.45-10.47,8.45c-4.41-5,1.42-5.88-.48-6.25-3-.57-14.4,3.65-3.07,14.32,0,0-9.8,16.9-15,17.57s-10.28-11.52-10.28-11.52Z"/><path class="cls-3" d="M57.32,89.26s-14.07,23-27.33,13.17S12.4,83.8,12.4,83.8s-4.27,1-7.72-3.83-5.09-9.34-4.59-10c1-1.41,5.21,3.14,5.21,3.14S.43,64.35,1.94,62.87,9.33,70,9.33,70,5.5,60.07,6.9,59s7,8.43,7,8.43-2.29-9-.84-10.3S20.94,68,20.94,68c5.59-3.63.2-6,2.13-5.88,3,.23,12.91,7.35-.85,14.61,0,0,6.24,12.62,11.42,13.29s14.5-12.57,14.5-12.57Z"/><path class="cls-4" d="M89.07,76.63s13.47,2.55,24.64,1.6,20.21-2.72,26.13-3,11.39.86,8.14,5.5-8.85,9.25-27.12,9.61-20.39.49-32.57-1S64.82,86,60.5,82.54s-3.09-7.73,3.64-8.73S89.07,76.63,89.07,76.63Z"/><path class="cls-4" d="M95.82,69.59c0-1.79,1.09-3.24,2.42-3.24s2.41,1.45,2.41,3.24-1.08,3.25-2.41,3.25S95.82,71.39,95.82,69.59Z"/><path class="cls-4" d="M104.4,69.16c0-1.94,1.12-3.51,2.5-3.51s2.5,1.57,2.5,3.51-1.12,3.52-2.5,3.52S104.4,71.1,104.4,69.16Z"/><path class="cls-5" d="M181.22,76.46a7,7,0,0,1,3.07,8.32"/><path class="cls-5" d="M20.69,68s-5.11,3.54-3.42,9.36"/><path class="cls-5" d="M186.88,80.66l3.47,8.64"/><path class="cls-5" d="M14.33,69.4,7.92,77.8"/><path class="cls-6" d="M61.86,74s1.46,5.36,2.68,6.15,1.94-5.25,2.24-6.83Z"/><path class="cls-6" d="M80.88,74.56s1.3,6.4,2.51,7.19,2-5.25,2.25-6.83Z"/><path class="cls-6" d="M97,76.74S98.48,83.2,99.69,84s2.39-5.71,2.69-7.29Z"/><path class="cls-6" d="M103,77.13s1.11,8.5,2.32,9.29,2.7-7.6,3-9.18Z"/><path class="cls-6" d="M75.94,88.72s-1.06-8.5-2.27-9.29-2.74,7.58-3,9.16Z"/><path class="cls-6" d="M95.78,92.27s-1.09-8.62-2.3-9.41S89.62,92,89.62,92Z"/><path class="cls-6" d="M119.1,92.69s-1.93-10.22-3.14-11-3.9,9.1-4.21,10.68Z"/><path class="cls-6" d="M136.71,89.5c1.15.53-2.05-9.32-3.26-10.11s-1.37,9.42-1.68,11C131.77,90.38,135.56,89,136.71,89.5Z"/><path class="cls-6" d="M121.31,76.24s1.06,6.64,3.39,7,1.45-6.12,1.75-7.7Z"/><path class="cls-7" d="M114.74,48.93c0-8,7.41-14.54,16.55-14.54s16.55,6.51,16.55,14.54-7.41,14.53-16.55,14.53S114.74,57,114.74,48.93Z"/><path class="cls-7" d="M59.11,48.77c-.83-7.39,6.41-14,16.18-14.85s18.34,4.52,19.16,11.91S88,59.86,78.28,60.67,59.93,56.15,59.11,48.77Z"/><path class="cls-2" d="M147.82,48c-1.79,6.32-8.91,11.72-16.66,11.72-7.93,0-14.59-6.19-16.21-12.72a23.63,23.63,0,0,0-.49,4.78c0,8,7.49,12.86,16.63,12.86S148,59.87,148,51.85A20.13,20.13,0,0,0,147.82,48Z"/><path class="cls-2" d="M94.33,44.93c-1.26,6-8.31,11.58-16.59,12.27-8.46.7-16.21-4.4-18.62-10.27a19.38,19.38,0,0,0,0,4.44c.83,7.39,9.33,11.17,19.09,10.36S95.75,55.89,94.92,48.5A16.24,16.24,0,0,0,94.33,44.93Z"/><path class="cls-4" d="M124.7,60.82s3-22,5.07-22.07,4.09,19.76,4.81,21.39S124.7,60.82,124.7,60.82Z"/><path class="cls-4" d="M73.69,59.52s1.43-20.41,3.65-20.71,2.15,19.88,2.15,19.88C78.69,61.88,73.69,59.52,73.69,59.52Z"/><path class="cls-8" d="M80.57,99s9.44,1.54,13.3,1.61l.06,9.88-12.27.72S80.79,101.72,80.57,99Z"/><path class="cls-8" d="M44.64,82c.8,1.41,1.44,6.35,9.77,11.39,0,0-3,3.83-3.45,3.72-8.33-2.42-10.81-10.35-10.81-10.35A35.52,35.52,0,0,0,44.64,82Z"/><path class="cls-8" d="M115.05,101.32a125.38,125.38,0,0,0,13-.66l-.48,7.47s-10,1.09-12.66.56Z"/><path class="cls-8" d="M142.17,98.41a107.31,107.31,0,0,0,12.14-4s2.28,3.94,3.6,5.1c0,0-6.1,4.16-11.84,5.49A29.82,29.82,0,0,1,142.17,98.41Z"/></g></g></svg>