<?xml version="1.0" encoding="utf-8"?>
<!-- Generator: Adobe Illustrator 22.1.0, SVG Export Plug-In . SVG Version: 6.00 Build 0)  -->
<svg version="1.1" id="Layer_1" xmlns="http://www.w3.org/2000/svg" xmlns:xlink="http://www.w3.org/1999/xlink" x="0px" y="0px"
	 viewBox="0 0 186 189.1" style="enable-background:new 0 0 186 189.1;" xml:space="preserve">
<style type="text/css">
	.st0{display:none;opacity:0.4;fill:#1D262D;enable-background:new    ;}
	.st1{fill:#0F3365;}
	.st2{fill:#4D8DE4;}
	.st3{fill:#DCEE69;}
	.st4{fill:none;stroke:#0F3365;stroke-width:1.01;stroke-linecap:round;stroke-linejoin:round;}
	.st5{fill:none;stroke:#0F3365;stroke-width:3.37;stroke-linecap:round;stroke-linejoin:round;}
	.st6{opacity:0.4;fill:#0F3365;enable-background:new    ;}
</style>
<title>Asset9</title>
<g id="Layer_2_1_">
	<g id="OBJECTS">
		<path class="st0" d="M26.2,174.2c-0.1-8.8,35.5-16.5,79.7-17.2s80,6,80.1,14.9s-35.5,16.5-79.7,17.2S26.4,183.1,26.2,174.2z"/>
		<path class="st1" d="M52.8,35.5c0,0-4.8-10.1-0.5-27c5-19.3,7.4-0.2,8.2,3.2c1.8,6.1,4,12,6.5,17.9L52.8,35.5z"/>
		<path class="st1" d="M144.6,36.6c0,0,9.7-12.8,5.2-29.2c-4.9-17.9-10.6,8.6-13.7,13.7s-6.6,10.2-6.6,10.2L144.6,36.6z"/>
		<path class="st2" d="M34.9,71c-0.4-32.2,29.1-52.3,66-52.3s66.9,23.7,66.9,52.9s-29.9,52.8-66.8,52.9
			C71.8,124.6,35.3,100.2,34.9,71z"/>
		<path class="st2" d="M78,116.3l6.4,47.5c0,0-32.1,2.2-39,9.3c-4.7,4.7,7.6-2.4,18.6-4.7c0,0-10.8,3.8-16.3,9.4
			c-3,3.2,11.2-4,21.7-6.8c0,0-12.9,5-17.1,11s7-4.3,23.5-8.4s30.4-4.1,31.5-4.5c1.9-0.7-13.2-4.9-13.2-4.9l-7.4-46.2L78,116.3z"/>
		<path class="st2" d="M137.1,113.6l-1.9,47.4c0,0,32.2,0.9,39.4,7.7c4.9,4.6-7.7-2-18.7-3.9c0,0,11,3.3,16.6,8.8
			c3.2,3-11.4-3.5-21.9-6c0,0,13.1,4.5,17.5,10.4s-7.1-4-23.8-7.5s-30.8-1.3-31.8-1.7c-2-0.6,13.2-7,13.2-7l1.4-44.8L137.1,113.6z"
			/>
		<path class="st2" d="M159.8,87.8l10,18.5c0,0-30.9,10.3-30.8,13.5s2.6,21.4,19.1,20.3c0,0-2.3-1.9-4.8-4.2c0,0,6.8,4,12,1.9
			l-5-4.3c1.7,0.4,3.5,0.4,5.2-0.1c0,0-10.2-6.6-12.9-12c0,0,12.3-4.2,17.8-6.7s10-4.9,11.4-13.2l-4.3,1.4l-12.5-26.6L159.8,87.8z"
			/>
		<path class="st2" d="M20.8,77.7c0,0,8.5-4.7,5.3-15.5l2.3-17.6c0,0-7.4,0.4-8.7,13.3c0,0-14.3-7.6-16.4,0.6
			C1.7,64.1,4,66.2,4,66.2s-5.5,0.1-3.6,8.6c1,4.6,7,6.7,12.1,4.5c0,0,0.7,19,12.7,33.6l0.7-6.8l18.4-15l-5-9.5L25.9,95.3
			C24.3,92.2,20.8,77.7,20.8,77.7z"/>
		<path class="st3" d="M95.9,73.6c-10-0.9-30.2-13.8-41-11.4S38,81.3,56.6,99s37.2,22.6,51.9,20c10.8-1.9,29.3-8.6,35.8-18.7
			s13.1-34.8-12.4-30.9S105.9,74.5,95.9,73.6z"/>
		<path class="st4" d="M4,66.3c0,0,8.3,2.7,10.6,6.2s0.2,5.4-1.9,7"/>
		<path class="st4" d="M4.1,66.3c0,0,11,4.6,13.7-0.6c2.2-4.3-1.1-6.4-3.4-8s-7.2-1-7.2-1"/>
		<path class="st4" d="M45.6,71.9c0,0-0.5,5.6,0.8,8.2s2.8-4,3.6-6.6s2.5,10.6,4.6,12.3s3.4-8.3,4.5-11.9c0,0,1,11.2,3.4,12.9
			s4-7.6,6.4-10.5s0.9,12.4,3.6,15s4.9-6.5,7.3-8s2,12.9,4.6,14.1s4.6-8.2,6.7-11.2s3.4,12.9,6.8,14.1s5.3-8.8,8.3-13
			s3.2,9.5,7,13.2s3.7-9.9,4.3-14.6s3.7,11.4,7.3,13.8s6-10.8,6.1-14.9s2.2,5.1,6.2,8.9s3.6-6.1,3.8-10.6s4.3,6.1,6.3,6.7
			s2.8-8.5,2.8-8.5"/>
		<path class="st5" d="M66.6,46.6c0,0,12.2-13,20.7,3.6"/>
		<path class="st5" d="M88.6,34.1c0,0,9.8-11.1,23.1,1.2"/>
		<path class="st5" d="M111.5,50.2c0,0,9.1-11.8,20.8,1.1"/>
		<path class="st6" d="M78.6,120.4c0,0,3.5,1.2,8.8,2.5l0.8,5l-8.5,0.6L78.6,120.4z"/>
		<path class="st6" d="M127,120.3c3.5-0.9,6.9-2.3,10-4.1l-0.4,10.1c-2.8,2.1-6.4,3-9.8,2.6L127,120.3z"/>
		<path class="st6" d="M37.2,83.6c1.3,3.3,2.9,6.4,4.8,9.3L39.4,95c0,0-4-5-5.2-8.2L37.2,83.6z"/>
		<path class="st6" d="M152.6,121.4l-2.5-3.6c0,0,8.5-2.8,13-0.2L152.6,121.4z"/>
		<path class="st6" d="M162.4,92.7c1.9-3.9,3.4-8,4.6-12.2l2.9,6.2c0,0-2.2,6.1-6,8.8L162.4,92.7z"/>
		<path class="st6" d="M20.7,77.6c0,0-5.8,1.4-8.2,1.8c0.1,1.6,0.2,3.2,0.5,4.8c3-0.5,5.9-1.4,8.7-2.6L20.7,77.6z"/>
	</g>
</g>
</svg>
