<svg xmlns="http://www.w3.org/2000/svg" viewBox="0 0 219.34 161.82"><defs><style>.cls-1{fill:#e8dbda;}.cls-1,.cls-10,.cls-11,.cls-12,.cls-2,.cls-3,.cls-4,.cls-5,.cls-6,.cls-7,.cls-8,.cls-9{fill-rule:evenodd;}.cls-2{fill:#676767;}.cls-3{fill:#2a2a2c;}.cls-4{fill:#faa727;}.cls-5{fill:#fdb835;}.cls-6{fill:#f05653;}.cls-7{fill:#fff;}.cls-8{fill:#f58670;}.cls-9{fill:#f4981e;}.cls-10{fill:#7b1126;}.cls-11{fill:#dc7c27;}.cls-12{fill:#bb6128;}</style></defs><title>Asset 2</title><g id="Layer_2" data-name="Layer 2"><g id="OBJECTS"><path class="cls-1" d="M109.86,161.82c29.34,0,53.11-1.57,53.11-3.52s-23.77-3.5-53.11-3.5-53.08,1.57-53.08,3.5,23.77,3.52,53.08,3.52Z"/><path class="cls-2" d="M143.45,26.4s22.74,12.11,34.47,7.34S182,0,182,0c24.35,1.78,45.78,25.66,34.1,59.4,0,0-1.95-14.62-14.13-23.06C209.81,59.81,197.55,71,197.55,71c-.07-33.25-27.3-31.76-35.76-9.6Z"/><path class="cls-3" d="M193.9,2.75c18.7,7.39,31.87,28.61,22.16,56.65,0,0-1.95-14.62-14.13-23.06C209.81,59.81,197.55,71,197.55,71c-.05-14.24-5-22.1-11.41-24.7h0l12.14,5L192.8,20.45,210.93,33.5Z"/><path class="cls-3" d="M146.05,27.68a87,87,0,0,0,17,6.12l5,17.57a28.89,28.89,0,0,0-6.25,10L144.61,28.58Z"/><path class="cls-2" d="M75.87,26.4S53.15,38.51,41.42,33.74,37.38,0,37.38,0C13,1.78-8.4,25.66,3.28,59.4c0,0,2-14.62,14.13-23.06C9.53,59.81,21.79,71,21.79,71c.07-33.25,27.3-31.76,35.76-9.6Z"/><path class="cls-3" d="M25.44,2.75C6.74,10.14-6.43,31.36,3.28,59.4c0,0,2-14.62,14.13-23.06C9.53,59.81,21.79,71,21.79,71c0-14.24,5-22.1,11.41-24.7h0l-12.14,5,5.48-30.77L8.41,33.5Z"/><path class="cls-3" d="M73.29,27.68a87,87,0,0,1-17,6.12l-5,17.57a28.89,28.89,0,0,1,6.25,10L74.73,28.58Z"/><path class="cls-4" d="M83.06,153.34l-6.27,3.37,12.69-.08c.2-7.63-.38-12.89,4-19.12,6.32,1.51,26.91,1.51,33.23,0,4.33,6.23,3.76,11.49,4,19.12l12.69.08L137,153.34c111.2-192.38-162.72-192.06-54,0Z"/><path class="cls-5" d="M154,32.45C120.09-19.48,15.89,15.57,74.66,137.3a85.15,85.15,0,0,0,81.65-85.07A86,86,0,0,0,154,32.45Z"/><path class="cls-6" d="M140.34,84.38a32.44,32.44,0,0,1,.47,5.43,30.24,30.24,0,0,1-60.48,0,28.78,28.78,0,0,1,.48-5.35c8.93.8,18.85,1.25,29.33,1.25,10.83,0,21-.47,30.2-1.33Z"/><path class="cls-7" d="M83.84,84.72c3.43.26,7,.48,10.67.65-.35,4.51-2.6,8-5.31,8S84,89.56,83.84,84.72Zm14,.78c3.46.1,7,.19,10.61.21-.45,4.34-2.64,7.67-5.3,7.67s-4.92-3.44-5.31-7.88Zm13.92.21c3.61,0,7.15-.08,10.61-.21-.39,4.46-2.62,7.88-5.31,7.88s-4.85-3.33-5.3-7.67Zm13.9-.34q5.51-.23,10.67-.65c-.19,4.84-2.51,8.66-5.35,8.66s-5-3.48-5.32-8Z"/><path class="cls-8" d="M127.39,114.94a30.22,30.22,0,0,1-33.63,0c3.73-3.84,9.88-6.36,16.81-6.36s13.1,2.52,16.82,6.36Z"/><path class="cls-9" d="M70.07,62.5a4.21,4.21,0,1,1-4.23,4.2,4.21,4.21,0,0,1,4.23-4.2Z"/><path class="cls-9" d="M66.48,56.16A2.54,2.54,0,1,1,64,58.69a2.54,2.54,0,0,1,2.53-2.53Z"/><path class="cls-9" d="M76.49,60.18A1.79,1.79,0,1,1,74.71,62a1.77,1.77,0,0,1,1.78-1.78Z"/><path class="cls-9" d="M80.18,120.22A4.22,4.22,0,1,1,76,124.45a4.22,4.22,0,0,1,4.23-4.23Z"/><path class="cls-9" d="M76.6,113.91a2.54,2.54,0,1,1-2.54,2.53,2.54,2.54,0,0,1,2.54-2.53Z"/><path class="cls-9" d="M86.61,117.93a1.78,1.78,0,1,1-1.79,1.78,1.78,1.78,0,0,1,1.79-1.78Z"/><path class="cls-5" d="M137,127.78a4.22,4.22,0,1,1,0,6,4.21,4.21,0,0,1,0-6Z"/><path class="cls-5" d="M130,125.89a2.54,2.54,0,1,1,0,3.57,2.55,2.55,0,0,1,0-3.57Z"/><path class="cls-5" d="M139.86,121.6a1.79,1.79,0,1,1,0,2.53,1.8,1.8,0,0,1,0-2.53Z"/><path class="cls-9" d="M143.37,70.48a4.21,4.21,0,1,1,2.74,5.29,4.2,4.2,0,0,1-2.74-5.29Z"/><path class="cls-9" d="M136.26,72a2.53,2.53,0,0,1,4.83,1.52A2.53,2.53,0,1,1,136.26,72Z"/><path class="cls-9" d="M143.09,63.66a1.78,1.78,0,0,1,2.25-1.16,1.79,1.79,0,1,1-2.25,1.16Z"/><path class="cls-9" d="M106.66,31.61A18.55,18.55,0,1,1,88.13,50.17a18.56,18.56,0,0,1,18.53-18.56Z"/><path class="cls-7" d="M106.66,33.5A16.67,16.67,0,1,1,90,50.17,16.68,16.68,0,0,1,106.66,33.5Z"/><path class="cls-2" d="M106.66,36.79A13.38,13.38,0,1,1,93.28,50.17a13.38,13.38,0,0,1,13.38-13.38Z"/><path class="cls-10" d="M106.66,40.76a9.4,9.4,0,1,1-9.38,9.41,9.41,9.41,0,0,1,9.38-9.41Z"/><path class="cls-7" d="M104,42.44a4.09,4.09,0,1,1-4.1,4.08,4.08,4.08,0,0,1,4.1-4.08Z"/><polygon class="cls-11" points="66.2 102.4 61.93 128.56 53.79 131.6 53.34 143.76 56.54 134.01 57.42 146.12 61.09 134.72 61.89 142.02 64.98 134.35 64.64 128.92 70.39 103.21 66.2 102.4"/><polygon class="cls-12" points="61.48 138.26 61.89 142.02 64.98 134.35 64.64 128.92 70.39 103.21 68.01 102.74 63.02 129.09 62.81 136.09 61.48 138.26"/><path class="cls-4" d="M75,101.58v0c-.24,1.55-3.18,2.37-6.57,1.83s-5.95-2.19-5.71-3.72a2.14,2.14,0,0,1,.08-.32,22,22,0,0,0,6.49,2,22.83,22.83,0,0,0,5.71.19Z"/><polygon class="cls-11" points="155.54 102.4 159.84 128.56 167.98 131.6 168.41 143.76 165.23 134.01 164.35 146.12 160.67 134.72 159.88 142.02 156.79 134.35 157.13 128.92 151.38 103.21 155.54 102.4"/><polygon class="cls-12" points="160.29 138.26 159.88 142.02 156.79 134.35 157.13 128.92 151.38 103.21 153.76 102.74 158.72 129.09 158.96 136.09 160.29 138.26"/><path class="cls-5" d="M146.72,101.58v0c.25,1.55,3.2,2.37,6.59,1.83s5.95-2.19,5.71-3.72a1.52,1.52,0,0,0-.11-.32,21.48,21.48,0,0,1-6.46,2,23,23,0,0,1-5.73.19Z"/></g></g></svg>