<?xml version="1.0" encoding="utf-8"?>
<!-- Generator: Adobe Illustrator 22.1.0, SVG Export Plug-In . SVG Version: 6.00 Build 0)  -->
<svg version="1.1" id="Layer_1" xmlns="http://www.w3.org/2000/svg" xmlns:xlink="http://www.w3.org/1999/xlink" x="0px" y="0px"
	 viewBox="0 0 139.6 180.9" style="enable-background:new 0 0 139.6 180.9;" xml:space="preserve">
<style type="text/css">
	.st0{fill:#4D6E5F;}
	.st1{fill:#5D9589;}
	.st2{fill:#F05653;}
	.st3{fill:#F58670;}
	.st4{fill:#FFFFFF;}
	.st5{fill:#E6E6E5;}
	.st6{fill:#2E2E2C;}
	.st7{fill:#3F6F65;}
</style>
<title>Asset 4</title>
<g id="Layer_2_1_">
	<g id="OBJECTS">
		<path class="st0" d="M69.8,0c38.5,0,69.8,31.2,69.8,69.8c0,15.5-5.1,30.5-14.6,42.7c9.2,3,14.3,13,11.3,22.2
			c-3,9.2-13,14.3-22.2,11.3c-2.7-0.9-5.2-2.5-7.2-4.5c0,7-5.7,12.7-12.8,12.7c-4.8,0-9.2-2.7-11.3-7c-1.7,0.7-3.6,1.1-5.5,1.1
			c-2.4,0-4.8-0.6-6.9-1.7c-2.1,7-9.4,11-16.4,8.9c-2.8-0.8-5.2-2.6-7-4.9c-6.8,7.4-18.3,7.9-25.7,1.1c-7.4-6.8-7.9-18.3-1.1-25.7
			c1.2-1.3,2.5-2.4,4-3.3C-4.9,97.5-8.2,53.4,16.9,24.2C30.2,8.9,49.5,0,69.8,0z"/>
		<path class="st1" d="M69.8,0c13.9,0,27.6,4.2,39.1,12c7.1,13.1,10.7,27.8,10.7,42.7c-0.1,49.9-40.7,90.3-90.6,90.2
			c-4.2,0-8.4-0.3-12.5-0.9c-2.8-8.1,0.5-17,7.8-21.4C-4.9,97.4-8.2,53.3,17,24.2C30.3,8.8,49.5,0,69.8,0z"/>
		<path class="st2" d="M29.1,67.5c-9.3-54.7,94.6-54.7,85.3,0C106,116.8,37.5,116.8,29.1,67.5z"/>
		<path class="st3" d="M80.5,103.6c-6.6,1.3-13.5,1.1-20-0.6c-9.7-5.8-12.8-18.4-7-28s18.4-12.8,28-7s12.8,18.4,7,28
			C86.6,99.3,83.9,101.9,80.5,103.6z"/>
		<path class="st4" d="M96.6,96.8c-14.9,10.1-34.4,10.2-49.3,0.2c1.1-2,3.2-3.3,5.5-3.4c2.8,0,5.2,2.1,6.4,5.1
			c1.2-3,3.6-5.1,6.4-5.1c2.8,0,5.2,2.1,6.4,5.1c1.2-3,3.6-5.1,6.4-5.1s5.2,2.1,6.4,5.1c1.2-3,3.6-5.1,6.4-5.1
			C93.5,93.8,95.5,95,96.6,96.8z"/>
		<path class="st5" d="M96.6,96.8c-14.9,10.1-34.4,10.2-49.3,0.2c0.2-0.3,0.4-0.6,0.6-0.8c14.8,9.1,33.4,9,48.1-0.2
			C96.2,96.3,96.4,96.5,96.6,96.8L96.6,96.8z"/>
		<path class="st4" d="M40,36.6c16.5-13.5,46.9-13.5,63.5-0.1c-1.7,2.8-4.3,4.6-7.2,4.6c-3.6,0-6.7-2.7-8.2-6.5
			c-1.5,3.8-4.6,6.5-8.2,6.5s-6.7-2.7-8.2-6.5c-1.5,3.8-4.6,6.5-8.2,6.5s-6.7-2.7-8.2-6.5c-1.5,3.8-4.6,6.5-8.2,6.5
			C44.2,41,41.4,39.3,40,36.6z"/>
		<path class="st5" d="M40,36.6c16.5-13.5,46.9-13.5,63.5-0.1c-0.3,0.4-0.6,0.9-0.9,1.3c-16.4-12-45.3-12-61.7,0
			C40.6,37.4,40.3,37,40,36.6L40,36.6z"/>
		<path class="st6" d="M106.5,13.6c-10.1,1.1-18.6,3.7-25.2,7.9c0,0,4.7-7.5,11.7-9C97.5,11.7,102.2,12.1,106.5,13.6z"/>
		<path class="st6" d="M35.3,13.6c10.1,1.1,18.6,3.7,25.2,7.9c0,0-4.7-7.5-11.7-9C44.3,11.7,39.6,12.1,35.3,13.6z"/>
		<path class="st7" d="M11.7,65.1c2.5,0,4.6,2,4.6,4.5c0,2.5-2,4.6-4.5,4.6c-2.5,0-4.6-2-4.6-4.5c0,0,0,0,0,0
			C7.2,67.1,9.2,65.1,11.7,65.1z"/>
		<path class="st7" d="M7.9,58.2c1.5,0,2.7,1.2,2.7,2.7c0,1.5-1.2,2.7-2.7,2.7c-1.5,0-2.7-1.2-2.7-2.7C5.1,59.5,6.3,58.3,7.9,58.2
			C7.8,58.3,7.9,58.3,7.9,58.2L7.9,58.2z"/>
		<path class="st7" d="M18.7,62.6c1.1,0,1.9,0.9,1.9,1.9c0,1.1-0.9,1.9-1.9,1.9c-1.1,0-1.9-0.9-1.9-1.9c0,0,0,0,0,0
			C16.7,63.4,17.6,62.6,18.7,62.6C18.7,62.6,18.7,62.6,18.7,62.6z"/>
		<path class="st1" d="M128.5,75.8c-2.5,0-4.6,2-4.6,4.5c0,2.5,2,4.6,4.5,4.6c2.5,0,4.6-2,4.6-4.5c0,0,0,0,0,0
			C133,77.8,131,75.8,128.5,75.8L128.5,75.8z"/>
		<path class="st1" d="M132.4,68.9c-1.5,0-2.7,1.2-2.7,2.7c0,1.5,1.2,2.7,2.7,2.7s2.7-1.2,2.7-2.7c0,0,0,0,0,0
			C135.1,70.1,133.9,68.9,132.4,68.9C132.4,68.9,132.4,68.9,132.4,68.9z"/>
		<path class="st1" d="M121.6,73.3c-1.1,0-1.9,0.9-1.9,1.9s0.9,1.9,1.9,1.9c1.1,0,1.9-0.9,1.9-1.9C123.5,74.1,122.7,73.3,121.6,73.3
			C121.6,73.2,121.6,73.2,121.6,73.3z"/>
		<path class="st7" d="M24.4,24.9c1.5,0,2.7,1.2,2.7,2.7c0,1.5-1.2,2.7-2.7,2.7c-1.5,0-2.7-1.2-2.7-2.7c0,0,0,0,0,0
			C21.6,26.1,22.8,24.9,24.4,24.9C24.3,24.9,24.3,24.9,24.4,24.9z"/>
		<path class="st7" d="M30.4,20.6c1.1,0,1.9,0.9,1.9,1.9c0,1.1-0.9,1.9-1.9,1.9c-1.1,0-1.9-0.9-1.9-1.9
			C28.4,21.5,29.3,20.6,30.4,20.6C30.4,20.6,30.4,20.6,30.4,20.6z"/>
		<path class="st7" d="M109.2,32.7c0.3-1.5,1.7-2.5,3.2-2.2s2.5,1.7,2.2,3.2c-0.3,1.5-1.7,2.5-3.2,2.2c0,0,0,0,0,0
			C109.9,35.6,109,34.2,109.2,32.7z"/>
		<path class="st7" d="M106.1,26c0.2-1,1.3-1.7,2.3-1.5c1,0.2,1.6,1.1,1.5,2.1c-0.2,1-1.3,1.7-2.3,1.5C106.6,27.9,105.9,27,106.1,26
			z"/>
		<path class="st7" d="M30.7,133.5c2.5,0,4.6,2,4.6,4.6c0,2.5-2,4.6-4.6,4.6s-4.6-2-4.6-4.6c0,0,0,0,0,0
			C26.2,135.5,28.2,133.4,30.7,133.5C30.7,133.4,30.7,133.4,30.7,133.5L30.7,133.5z"/>
		<path class="st7" d="M26.9,126.7c1.5,0,2.7,1.2,2.7,2.7c0,1.5-1.2,2.7-2.7,2.7c-1.5,0-2.7-1.2-2.7-2.7c0,0,0,0,0,0
			C24.1,127.9,25.4,126.7,26.9,126.7C26.9,126.7,26.9,126.7,26.9,126.7z"/>
		<path class="st7" d="M37.7,131c1.1,0.1,1.9,1,1.8,2.1c-0.1,1-0.8,1.7-1.8,1.8c-1.1,0.1-2-0.7-2.1-1.8c-0.1-1.1,0.7-2,1.8-2.1
			C37.5,131,37.6,131,37.7,131z"/>
	</g>
</g>
</svg>
