<svg xmlns="http://www.w3.org/2000/svg" xmlns:xlink="http://www.w3.org/1999/xlink" viewBox="0 0 220 220"><defs><style>.cls-1{fill:url(#radial-gradient);}.cls-2{opacity:0.5;}.cls-3{fill:#1a1a1a;}.cls-4{fill:#f0f0f0;}.cls-5{fill:#323232;}.cls-6{fill:#fff;}.cls-7{fill:#575757;}</style><radialGradient id="radial-gradient" cx="108.5" cy="108.33" r="188.02" gradientTransform="translate(220 220) rotate(-180)" gradientUnits="userSpaceOnUse"><stop offset="0" stop-color="#147bc8"/><stop offset="0.18" stop-color="#1478c3"/><stop offset="0.39" stop-color="#1270b6"/><stop offset="0.6" stop-color="#10629f"/><stop offset="0.8" stop-color="#0e5285"/><stop offset="1" stop-color="#0b4069"/></radialGradient></defs><title>Ñëîé 1</title><g id="Layer_2" data-name="Layer 2"><g id="Ñëîé_1" data-name="Ñëîé 1"><rect class="cls-1" width="220" height="220" transform="translate(220 220) rotate(180)"/><g class="cls-2"><path class="cls-3" d="M104.6,205.72c0-.51-4.47-.93-10-.93s-10,.42-10,.93,4.48.92,10,.92S104.6,206.23,104.6,205.72Z"/></g><path class="cls-3" d="M91.42,198.32s-11.59-1.95-4-9.09,19.27-.79,14.51,3.85c0,0-3.47.67-2,1.52s0,3.23-2.5,3.41S91.42,198.32,91.42,198.32Z"/><path class="cls-3" d="M87.17,196c-1,1.06-3.66-.36-2.2-1.3a1.42,1.42,0,0,0-1.26-2.52c-1.54.53.26.13.57.61.69,1.06-2.52,2-1.09,4.76.92,1.76,4.45,2.78,8,.38Z"/><path class="cls-3" d="M99.28,196.12c1.46,1.28,4.11,1.59,3,.13s0-2.81,1.54-2.28-.25.13-.57.61c-.69,1.06,2.22,2.48.8,5.2-.92,1.76-5.13,2.34-8.66-.06Z"/><path class="cls-3" d="M100.2,190.74c6.34-1.31-.41-5.89-2.28-7.8s2.73-1.53,1.38-3.33-.24.65-.89.71-4.1,1.42-1.87,3.93-1.06,2.18-1.22,2.18Z"/><path class="cls-4" d="M85.75,193.46A2.58,2.58,0,1,1,88.33,196,2.58,2.58,0,0,1,85.75,193.46Z"/><path class="cls-5" d="M90.22,194.5a.76.76,0,1,0-.75.76A.76.76,0,0,0,90.22,194.5Z"/><path class="cls-6" d="M89.9,194.22a.27.27,0,1,0-.27.27A.27.27,0,0,0,89.9,194.22Z"/><path class="cls-4" d="M102.38,191.54a3.12,3.12,0,1,0-3.12,3.13A3.12,3.12,0,0,0,102.38,191.54Z"/><path class="cls-5" d="M98.8,192.8a.92.92,0,1,0-.92.92A.92.92,0,0,0,98.8,192.8Z"/><path class="cls-6" d="M98.41,192.46a.33.33,0,0,0-.33-.33.32.32,0,0,0-.32.33.32.32,0,0,0,.32.32A.32.32,0,0,0,98.41,192.46Z"/><circle class="cls-4" cx="93.04" cy="190.08" r="2.63"/><path class="cls-5" d="M94,191.56a.78.78,0,1,0-.78.78A.78.78,0,0,0,94,191.56Z"/><path class="cls-6" d="M93.67,191.28a.27.27,0,0,0-.27-.28.28.28,0,1,0,0,.55A.27.27,0,0,0,93.67,191.28Z"/><path class="cls-4" d="M97.81,197.24a3.7,3.7,0,1,0-3.7,3.7A3.7,3.7,0,0,0,97.81,197.24Z"/><path class="cls-5" d="M95.19,199.25a1.09,1.09,0,1,0-1.09,1.09A1.09,1.09,0,0,0,95.19,199.25Z"/><path class="cls-6" d="M94.73,198.85a.39.39,0,1,0-.77,0,.39.39,0,0,0,.77,0Z"/><path class="cls-3" d="M87.25,190.33c-6.34-1,.41-4.39,2.28-5.81s-2.73-1.14-1.39-2.48.25.49.9.53,4.1,1.06,1.87,2.93,1,1.62,1.22,1.62Z"/><path class="cls-7" d="M86,187.65c-.65,1-.82,1.43.12,1.38S86.58,186.72,86,187.65Z"/><path class="cls-7" d="M103.06,198.7c-.65,1-.82,1.43.12,1.39S103.69,197.77,103.06,198.7Z"/><path class="cls-3" d="M122.22,201.62c-1.65,2.19-4.39-.49-3.23-3a3.33,3.33,0,1,1-.07-6.64c.31-3.23,3.54-4.76,5.61-3.78-1.4-2.32.74-5.67,4.88-5.67s5.24,4.45,4.09,6c2-.91,5.79,1.53,4.38,4.39,2.93-1.34,5.8,5.79-.3,6,1.22,1.46-1.4,4.88-3.66,2.62,0,0-6.89,4-9.26.06Z"/><g class="cls-2"><ellipse class="cls-3" cx="128.42" cy="205.72" rx="10" ry="0.92"/></g><path class="cls-4" d="M116.49,195.41a2.17,2.17,0,1,1,2.16,2.17A2.16,2.16,0,0,1,116.49,195.41Z"/><path class="cls-5" d="M120.25,196.29a.64.64,0,1,0-.64.63A.63.63,0,0,0,120.25,196.29Z"/><path class="cls-6" d="M120,196.05a.23.23,0,1,0-.45,0,.23.23,0,1,0,.45,0Z"/><path class="cls-4" d="M136.12,195.84A1.86,1.86,0,1,1,138,197.7,1.86,1.86,0,0,1,136.12,195.84Z"/><path class="cls-5" d="M138.09,196.64a.55.55,0,1,0-.54.55A.54.54,0,0,0,138.09,196.64Z"/><path class="cls-6" d="M137.86,196.44a.19.19,0,0,0-.19-.2.2.2,0,0,0-.2.2.19.19,0,0,0,.2.19A.18.18,0,0,0,137.86,196.44Z"/><circle class="cls-4" cx="128.84" cy="188.19" r="3.4"/><circle class="cls-5" cx="127.34" cy="189.56" r="1"/><path class="cls-6" d="M127.92,189.19a.36.36,0,1,0-.71,0,.36.36,0,0,0,.71,0Z"/><path class="cls-4" d="M125.6,192a2.64,2.64,0,1,0-2.64,2.64A2.64,2.64,0,0,0,125.6,192Z"/><path class="cls-5" d="M123.92,193.51a.78.78,0,1,0-.77.78A.78.78,0,0,0,123.92,193.51Z"/><path class="cls-6" d="M123.59,193.23a.27.27,0,0,0-.27-.28.28.28,0,1,0,0,.55A.27.27,0,0,0,123.59,193.23Z"/><path class="cls-4" d="M137.06,192.4a2.64,2.64,0,1,0-2.64,2.63A2.64,2.64,0,0,0,137.06,192.4Z"/><path class="cls-5" d="M134.89,193.88a.76.76,0,0,0-.77-.77.77.77,0,0,0-.78.77.78.78,0,0,0,.78.78A.77.77,0,0,0,134.89,193.88Z"/><circle class="cls-6" cx="134.29" cy="193.59" r="0.28"/><path class="cls-4" d="M130.34,194.18a2.14,2.14,0,1,0-2.13,2.13A2.13,2.13,0,0,0,130.34,194.18Z"/><path class="cls-5" d="M129,195.38a.63.63,0,1,0-.63.63A.63.63,0,0,0,129,195.38Z"/><path class="cls-6" d="M128.72,195.15a.23.23,0,1,0-.45,0,.22.22,0,0,0,.22.22A.22.22,0,0,0,128.72,195.15Z"/><path class="cls-4" d="M127.73,199.19a3.7,3.7,0,1,0-3.7,3.7A3.7,3.7,0,0,0,127.73,199.19Z"/><path class="cls-5" d="M126.57,200.71a1.09,1.09,0,1,0-1.09,1.09A1.08,1.08,0,0,0,126.57,200.71Z"/><path class="cls-6" d="M126.11,200.31a.39.39,0,1,0-.77,0,.39.39,0,1,0,.77,0Z"/><path class="cls-4" d="M136,199.19a3.7,3.7,0,1,0-3.7,3.7A3.7,3.7,0,0,0,136,199.19Z"/><path class="cls-5" d="M131.94,200.71a1.09,1.09,0,1,0-1.09,1.09A1.08,1.08,0,0,0,131.94,200.71Z"/><path class="cls-6" d="M131.48,200.31a.39.39,0,1,0-.77,0,.39.39,0,1,0,.77,0Z"/><path class="cls-3" d="M122.2,184.94c-1.59-1.67-2.28.73-1.87,1.21s-1.55.74-1.55,1.71S123.82,186.64,122.2,184.94Z"/><path class="cls-3" d="M136.42,186c-1.06-1.5-2,.41-1.46,1.06S137.8,187.94,136.42,186Z"/><path class="cls-3" d="M118.21,189.57c-1.06-2.2-3.25-.33-3,1S119.51,192.25,118.21,189.57Z"/><path class="cls-3" d="M140.16,192.77c2.4.41,2.15-2.46,1-3S137.22,192.27,140.16,192.77Z"/><path class="cls-7" d="M130.28,183.57c0,.28-.5.51-1.11.51s-1.12-.23-1.12-.51.5-.5,1.12-.5S130.28,183.29,130.28,183.57Z"/><path class="cls-7" d="M117.08,189.22c0,.19-.21.35-.47.35s-.47-.16-.47-.35.21-.34.47-.34S117.08,189,117.08,189.22Z"/><path class="cls-7" d="M132,194.91c0,.19-.21.35-.47.35s-.46-.16-.46-.35.21-.34.46-.34S132,194.72,132,194.91Z"/><path class="cls-7" d="M140.79,190.65c0,.19-.21.34-.47.34s-.46-.15-.46-.34.21-.35.46-.35S140.79,190.46,140.79,190.65Z"/><path class="cls-3" d="M173.14,191.5c2.93-1.34,5.8,5.79-.3,6,1.22,1.46-1.4,4.87-3.66,2.62,0,0-6.89,4-9.27.06l-2.43-.06c-1.65,2.19-4.39-.49-3.24-3a3.34,3.34,0,1,1-.06-6.65c-1.44-1.82.2-2.8,1-2.8-2.5-4,5.61-8.11,8.59-4.88,3.29-3.05,10.06-.12,7.87,4.33.91-.37,1.7,1.22.79,2.07C173.53,189.06,173.8,191,173.14,191.5Z"/><path class="cls-3" d="M161.27,202.23c-1.07-.61-3.53,0-2,.67S163.53,203.51,161.27,202.23Z"/><path class="cls-3" d="M165.49,202.23c1.07-.61,3.53,0,2,.67S163.23,203.51,165.49,202.23Z"/><path class="cls-3" d="M173.79,186c-.87-1.24-1.67.33-1.2.87S174.93,187.56,173.79,186Z"/><path class="cls-3" d="M152,189.25c.87-1.24,1.67.33,1.2.87S150.88,190.86,152,189.25Z"/><g class="cls-2"><path class="cls-3" d="M173.69,205.72c0-.51-4.48-.93-10-.93s-10,.42-10,.93,4.48.92,10,.92S173.69,206.23,173.69,205.72Z"/></g><path class="cls-4" d="M151.75,194a2.17,2.17,0,1,1,2.16,2.17A2.17,2.17,0,0,1,151.75,194Z"/><path class="cls-5" d="M155.51,194.82a.64.64,0,1,0-.64.64A.64.64,0,0,0,155.51,194.82Z"/><path class="cls-6" d="M155.24,194.59a.23.23,0,1,0-.45,0,.22.22,0,0,0,.22.22A.22.22,0,0,0,155.24,194.59Z"/><circle class="cls-4" cx="173.24" cy="194.38" r="1.86"/><path class="cls-5" d="M173.35,195.18a.55.55,0,1,0-.54.55A.55.55,0,0,0,173.35,195.18Z"/><path class="cls-6" d="M173.12,195a.19.19,0,0,0-.19-.2.2.2,0,1,0,0,.39A.19.19,0,0,0,173.12,195Z"/><path class="cls-4" d="M163,197.73a3.7,3.7,0,1,0-3.7,3.7A3.7,3.7,0,0,0,163,197.73Z"/><path class="cls-5" d="M161.83,199.25a1.09,1.09,0,1,0-1.09,1.09A1.09,1.09,0,0,0,161.83,199.25Z"/><path class="cls-6" d="M161.37,198.85a.39.39,0,1,0-.38.38A.38.38,0,0,0,161.37,198.85Z"/><path class="cls-4" d="M171.28,197.73a3.7,3.7,0,1,0-3.7,3.7A3.7,3.7,0,0,0,171.28,197.73Z"/><path class="cls-5" d="M167.2,199.25a1.09,1.09,0,1,0-1.09,1.09A1.09,1.09,0,0,0,167.2,199.25Z"/><path class="cls-6" d="M166.74,198.85a.39.39,0,1,0-.39.38A.39.39,0,0,0,166.74,198.85Z"/><path class="cls-7" d="M167.6,193.1c0,.19-.41.43-1,.53s-1.07,0-1.1-.16.41-.42,1-.52S167.56,192.92,167.6,193.1Z"/><path class="cls-7" d="M159.55,193c0,.19-.4.42-1,.53s-1.06,0-1.1-.16.41-.42,1-.52S159.52,192.85,159.55,193Z"/><path class="cls-7" d="M160,182.74c-3.45-.15-3.86,2.8-3.33,3.33S163.71,182.9,160,182.74Z"/><path class="cls-7" d="M156.23,186.52c-1.06-.08-.28.61,0,.65S157.37,186.6,156.23,186.52Z"/><path class="cls-7" d="M155.62,188.51c-1,0-1.05.57-.24.82S157.49,188.43,155.62,188.51Z"/><path class="cls-7" d="M171.25,187.78c-.8,0-.87.57-.2.81S172.77,187.7,171.25,187.78Z"/><path class="cls-3" d="M207.07,195.92c1.14,1.19-1.31,4-3.41,2.13,0,0-6.44,3.22-8.66,0l-2.28,0c-1.53,1.79-4.09-.4-3-2.43-6.42-5-.08-18,9-10.52C204.26,176.89,215.26,186.09,207.07,195.92Z"/><path class="cls-7" d="M193.41,183.63c-3.46-.15-3.87,2.81-3.34,3.34S197.14,183.8,193.41,183.63Z"/><path class="cls-7" d="M205.2,183c-2.52-1-3.81.65-3.59,1.11S207.94,184.1,205.2,183Z"/><path class="cls-7" d="M189.14,187.62c-1,0-1.06.57-.25.81S191,187.54,189.14,187.62Z"/><g class="cls-2"><path class="cls-3" d="M208.42,205.72c0-.51-4.48-.93-10-.93s-10,.42-10,.93,4.48.92,10,.92S208.42,206.23,208.42,205.72Z"/></g><circle class="cls-4" cx="194.02" cy="195.78" r="3.7"/><path class="cls-5" d="M196.57,197.3a1.09,1.09,0,1,0-1.09,1.09A1.09,1.09,0,0,0,196.57,197.3Z"/><path class="cls-6" d="M196.11,196.89a.39.39,0,0,0-.39-.38.39.39,0,1,0,0,.77A.39.39,0,0,0,196.11,196.89Z"/><path class="cls-4" d="M206,195.78a3.7,3.7,0,1,0-3.7,3.7A3.7,3.7,0,0,0,206,195.78Z"/><path class="cls-5" d="M201.93,197.3a1.09,1.09,0,1,0-1.09,1.09A1.09,1.09,0,0,0,201.93,197.3Z"/><path class="cls-6" d="M201.47,196.89a.39.39,0,1,0-.39.39A.38.38,0,0,0,201.47,196.89Z"/><path class="cls-7" d="M202.33,191.15c0,.19-.4.43-1,.53s-1.06,0-1.1-.16.41-.42,1-.52S202.3,191,202.33,191.15Z"/><path class="cls-7" d="M194.28,191.09c0,.19-.4.42-1,.53s-1.07,0-1.1-.16.4-.42,1-.52S194.25,190.9,194.28,191.09Z"/><polygon class="cls-3" points="195.7 182.72 195.27 180.34 196.49 181.44 197.84 179.92 197.84 182.05 199.42 181.93 197.35 183.45 195.7 182.72"/><path class="cls-3" d="M189.85,195.71c-4-.92-4,4.57-1,4.69s1.1,3-.12,2.26.12-1.28.12-.92c.19-.67-1.1-.55-1.46.37s1.34,3.11,3.47,1.28,1.1-3.72-.36-4-1.16-1.76,0-1.76Z"/><path class="cls-3" d="M206.7,195.71c4-.92,4,4.57,1,4.69s-1.1,3,.12,2.26-.12-1.28-.12-.92c-.18-.67,1.1-.55,1.46.37s-1.34,3.11-3.47,1.28-1.1-3.72.36-4,1.16-1.76,0-1.76Z"/><path class="cls-3" d="M197.19,200.74c-1.46-.84-4.82,0-2.74.91S200.27,202.48,197.19,200.74Z"/><path class="cls-3" d="M199.05,202.17c1.29-1.09,4.74-.88,2.86.4S196.34,204.44,199.05,202.17Z"/><g class="cls-2"><path class="cls-3" d="M69.45,205.72c0-.51-4.48-.93-10-.93s-10,.42-10,.93,4.48.92,10,.92S69.45,206.23,69.45,205.72Z"/></g><path class="cls-3" d="M62.11,198c-2.5.19-6.5.74-6.5.74s-11.09-8.84-3.47-16,19.53,3.61,13.47,10.85Z"/><path class="cls-3" d="M53.17,196.07c.33.37,3.21,3,2.56,5.24s4.07,4.48,6.51-5.28Z"/><path class="cls-3" d="M52.84,194.91c.37,4.53-2.43,5.69-2,4.19a1.27,1.27,0,0,0-2.35-.91c-.71,1.28.24-.07.74.06,1.09.28-.44,2.86,2.14,3.81,1.67.61,5.44-2.16,6.34-5.88Z"/><path class="cls-3" d="M64,195.26c-.16,1.72,1.75,4.83,2.25,3.31s2-1.45,2.43-.07-.22-.11-.73-.09c-1.12.05-.63,2.88-3.33,3.26-1.74.25-4.33-2.47-4.43-6.25Z"/><circle class="cls-4" cx="60.18" cy="188.96" r="2.84"/><path class="cls-5" d="M59.75,190.11a.84.84,0,0,0-.83-.84.84.84,0,0,0,0,1.68A.84.84,0,0,0,59.75,190.11Z"/><path class="cls-6" d="M59.4,189.8a.3.3,0,1,0-.59,0,.3.3,0,0,0,.59,0Z"/><path class="cls-4" d="M56.91,191a2.4,2.4,0,1,0-2.4,2.4A2.41,2.41,0,0,0,56.91,191Z"/><path class="cls-5" d="M55.38,192.35a.71.71,0,0,0-1.41,0,.71.71,0,1,0,1.41,0Z"/><path class="cls-6" d="M55.08,192.09a.25.25,0,1,0-.25.25A.25.25,0,0,0,55.08,192.09Z"/><path class="cls-4" d="M62.3,195.56a3.37,3.37,0,1,0-3.37,3.37A3.37,3.37,0,0,0,62.3,195.56Z"/><path class="cls-5" d="M59.92,197.39a1,1,0,1,0-1,1A1,1,0,0,0,59.92,197.39Z"/><path class="cls-6" d="M59.5,197a.35.35,0,0,0-.35-.35.35.35,0,1,0,0,.7A.35.35,0,0,0,59.5,197Z"/><path class="cls-7" d="M64.84,200.37c-1,0-1.45.15-.93.8S65.84,200.34,64.84,200.37Z"/><path class="cls-7" d="M55.73,181.64c-2.93,0-4.14,3.66-3.08,4.35S59.68,181.64,55.73,181.64Z"/><path class="cls-7" d="M51.59,185.1c-.44-.11-1,.4-.61.77S51.91,185.18,51.59,185.1Z"/><path class="cls-7" d="M57.56,199.77c-.32-1.08-1,.08-1,.45S57.93,201,57.56,199.77Z"/><g class="cls-2"><path class="cls-3" d="M34.07,205.72c0-.51-4.48-.93-10-.93s-10,.42-10,.93,4.48.92,10,.92S34.07,206.23,34.07,205.72Z"/></g><path d="M21.57,197.92c-1.78.46-4.45.37-3.84-1.74.69-2.4-2.63-2.25-2.63-1.91s2.34.07,1.24,1.66,1.31,6.4,6.47,3.51Z"/><path d="M27,197.28c1.86,1.93,4.42-.09,3.58-1.1-1.6-1.92,2.26-2.25,2.26-1.91s-2.34.07-1.24,1.66-1.31,6.4-6.47,3.51Z"/><path class="cls-3" d="M15.84,186.06c0,5.37,3.66,13.84,8.17,13.84s8.17-8.47,8.17-13.84-3.66-7.51-8.17-7.51S15.84,180.69,15.84,186.06Z"/><path class="cls-3" d="M21.3,197.22c.78,5-5.26,3.94-4.78,1.75.32-1.47-1.28-3.09-2.56-1.92a1.46,1.46,0,0,0-.1,2.33c-.09-1.85,1.61-1.76.81-.14-.57,1.14-.65,3.46,3.8,4.36,3.16.64,4.81-.62,5.48-1.89.67,1.27,2.31,2.53,5.48,1.89,4.45-.9,4.37-3.22,3.8-4.36-.81-1.62.9-1.71.81.14a1.46,1.46,0,0,0-.1-2.33c-1.29-1.17-2.86.66-2.49,2.15.7,2.82-5.79,2.15-4.87-2Z"/><path d="M28.07,193.36a4.21,4.21,0,1,0-4.21,4.21A4.21,4.21,0,0,0,28.07,193.36Z"/><circle class="cls-4" cx="24.06" cy="192.78" r="3.73"/><path class="cls-5" d="M25.16,194.28a1.1,1.1,0,1,0-1.1,1.1A1.1,1.1,0,0,0,25.16,194.28Z"/><path class="cls-6" d="M24.7,193.87a.39.39,0,1,0-.78,0,.39.39,0,0,0,.78,0Z"/><path class="cls-7" d="M21.73,184.14c-.92,1.25-2.38,1.72-3.27,1.07s-.86-2.2.06-3.44,2.39-1.72,3.27-1.07S22.65,182.9,21.73,184.14Z"/><path class="cls-7" d="M18,185.73c.42.2.64.6.49.9a.75.75,0,0,1-1,.17c-.41-.2-.63-.6-.49-.9A.75.75,0,0,1,18,185.73Z"/><path class="cls-7" d="M26.24,188.42c0,.2-.92-.12-2-.12s-2,.32-2,.12a2.51,2.51,0,0,1,2-.85A2.52,2.52,0,0,1,26.24,188.42Z"/><circle class="cls-7" cx="26.73" cy="188.78" r="0.23"/><path class="cls-7" d="M24.21,201.18c.41.2.63.6.49.9a.75.75,0,0,1-1,.17c-.42-.2-.64-.6-.49-.9S23.79,201,24.21,201.18Z"/><g class="cls-2"><path class="cls-3" d="M209,169.44c0-.51-4.48-.93-10-.93s-10,.42-10,.93,4.48.92,10,.92S209,170,209,169.44Z"/></g><path class="cls-3" d="M191.55,154.74c0,4.76,3.23,12.25,7.23,12.25S206,159.5,206,154.74s-3.23-6.65-7.22-6.65S191.55,150,191.55,154.74Z"/><path d="M202.37,161.2a3.73,3.73,0,1,0-3.73,3.73A3.73,3.73,0,0,0,202.37,161.2Z"/><path class="cls-4" d="M202.13,160.69a3.31,3.31,0,1,0-3.3,3.31A3.3,3.3,0,0,0,202.13,160.69Z"/><path class="cls-5" d="M199.8,162a1,1,0,1,0-1,1A1,1,0,0,0,199.8,162Z"/><circle class="cls-6" cx="199.04" cy="161.66" r="0.35"/><path class="cls-3" d="M203,150c-3.15-3,2.39-4.89-1.27-7s-.55-3.09-1.87-3.09-2.7,2.19-.39,3.71c3.19,2.09-1.25,3-.86,5.11Z"/><path class="cls-3" d="M194.19,151c2.25-3.64-3.57-7.58.56-10.43,4.39-3,.68-5.3,1.93-4.78s2.37,2.6-.52,6.12c-2.08,2.54,2.43,4.06,3.52,7Z"/><path class="cls-3" d="M192.42,158.9c-8.66,0-3.6-7.33-1.64-10.2s-4.89-3.94-2.4-6c1.46-1.22-.58,1,2,1.91s4,3.41,1.91,5.83-.93,3.08,2,3.13Z"/><path class="cls-3" d="M205.1,158.9c8.66,0,3.6-7.33,1.64-10.2s4.89-3.94,2.4-6c-1.46-1.22.58,1-2,1.91s-4,3.41-1.91,5.83.93,3.08-2,3.13Z"/><path class="cls-3" d="M196.13,164.59c-1.57.41-3.94.33-3.4-1.54.61-2.12-2.33-2-2.33-1.69s2.07.06,1.1,1.47,1.16,5.66,5.73,3.1Z"/><path class="cls-3" d="M201.87,164c1.65,1.71,3.92-.08,3.17-1-1.41-1.7,2-2,2-1.69s-2.07.06-1.09,1.47-1.16,5.66-5.73,3.1Z"/><path class="cls-7" d="M196.55,152.89a1.58,1.58,0,1,1-2.4-1.77c.69-.93,1.78-1.29,2.44-.8A1.88,1.88,0,0,1,196.55,152.89Z"/><path class="cls-7" d="M208.87,156.87c-.48.65-1.23.89-1.69.55a1.29,1.29,0,0,1,0-1.77c.48-.64,1.23-.89,1.69-.55A1.29,1.29,0,0,1,208.87,156.87Z"/><path class="cls-7" d="M189.41,155.61c-.29.39-.71.56-.95.38s-.2-.64.08-1,.72-.56,1-.38S189.7,155.22,189.41,155.61Z"/><path class="cls-7" d="M196,155a.59.59,0,1,1-.89-.66c.26-.34.66-.47.9-.29S196.25,154.69,196,155Z"/><path class="cls-7" d="M200.8,156.79c0,.2-.91-.12-2-.12s-2,.32-2,.12a2.87,2.87,0,0,1,4.08,0Z"/><g class="cls-2"><path class="cls-3" d="M33.84,169.44c0-.51-4.48-.93-10-.93s-10,.42-10,.93,4.48.92,10,.92S33.84,170,33.84,169.44Z"/></g><path class="cls-3" d="M24.13,157.72c-3.09,0-5.6,1.95-5.6,4.36s2.51,4.37,5.6,4.37,5.6-2,5.6-4.37S27.22,157.72,24.13,157.72Z"/><path class="cls-3" d="M28.14,164c6.26-9.59-5-14.56-2-17.56s-1.13-7.84-2.82-7.93c-1.5-.08-1.2.4.09,1.69,4.93,4.92-3.11,3.84-3.64,7.37s3.81,4.6.8,7.11c-1.6,1.33-5.06,6.1.53,10.3Z"/><path class="cls-3" d="M26.67,157.69c5-.89,4.4-3.47,1.47-6.75s1.86-3.2.89-5.78.8-1,1.42.27-2.37,3.72.71,5.42c3.37,1.86,5.43,8.22-3.24,12.88Z"/><path class="cls-3" d="M21.29,159.69c-3.43.53-6.16-3.54-2.5-6.27s-1.27-5.13-1.47-4.39,2.81,2.41.27,3.26c-2.8.93-8.28,11.88,5.84,11.61Z"/><path class="cls-4" d="M20.57,163.62a3.62,3.62,0,1,1,3.61,3.61A3.62,3.62,0,0,1,20.57,163.62Z"/><path class="cls-5" d="M25.25,165.6a1.07,1.07,0,1,0-1.07,1.07A1.06,1.06,0,0,0,25.25,165.6Z"/><path class="cls-6" d="M24.8,165.21a.38.38,0,0,0-.76,0,.38.38,0,0,0,.76,0Z"/><path class="cls-7" d="M23.57,156a1.35,1.35,0,0,1-1.78.53,1.6,1.6,0,1,1,1.78-.53Z"/><path class="cls-7" d="M17,161.46c-.72-.31-1.16-.87-1-1.23s.88-.42,1.59-.1,1.15.87,1,1.24S17.72,161.78,17,161.46Z"/><path class="cls-7" d="M23.85,153.08a.58.58,0,0,1-.91-.72.59.59,0,0,1,.81-.09A.58.58,0,0,1,23.85,153.08Z"/><path class="cls-7" d="M26,159.27c0,.2-.91-.12-2-.12s-2,.32-2,.12a2.49,2.49,0,0,1,2-.85A2.49,2.49,0,0,1,26,159.27Z"/><circle class="cls-7" cx="23.95" cy="159.62" r="0.23"/><g class="cls-2"><path class="cls-3" d="M34,85.72c0-.51-4.48-.92-10-.92s-10,.41-10,.92,4.48.93,10,.93S34,86.23,34,85.72Z"/></g><path class="cls-3" d="M22.56,63.46c-3.31-4.74-3.33-2.3-2.7-.54s-.44,1.81-2.34,1.13-3.33,1.27-1.47,2.22-.47,1.37-3.88,2.82-2.6,7.29.95,6.56-.84,1.54,1.69,3.67,5.82-2.81,7.21-1.86,3.22,3.62,4.31,1.27,2.42,1.76,4,.77,1.68-3.67,4.46-2.76S40.9,69.11,33,68.23c-2.46-.27-.66-6.62-2.6-4.77s0-6-1.94-2.3-.33-4-2-2.54,1,6.61-1.2,5.16S24.43,66.13,22.56,63.46Z"/><path class="cls-7" d="M15.42,69.61c.23.43-.33,1.17-1.23,1.64s-1.83.52-2.06.09.32-1.17,1.23-1.65S15.19,69.17,15.42,69.61Z"/><path class="cls-7" d="M21.53,64.26c.31-.13.77.27,1,.9s.25,1.24-.05,1.37-.77-.28-1-.9S21.23,64.39,21.53,64.26Z"/><path class="cls-7" d="M12.68,72.42a.63.63,0,0,1-1.1.58.57.57,0,0,1,.31-.75A.58.58,0,0,1,12.68,72.42Z"/><path class="cls-7" d="M25,66.26a.58.58,0,0,1-.31.75.53.53,0,1,1-.48-.92A.58.58,0,0,1,25,66.26Z"/><path class="cls-3" d="M22.72,62c-1.31-2-1.83-2.56.12-3.17s-.06-1.59-.43-3.42.25-1.09.92-.12,4.69,1.59,2.19,3.42S25,61.06,25,61.61,24.12,64.23,22.72,62Z"/><path class="cls-3" d="M20.46,57.18c-1.28-1.48.81-5,.89-3.74s.09,2.44.57,2.77S22,59,20.46,57.18Z"/><path d="M15.53,72.61a3.73,3.73,0,1,1,3.72,3.72A3.73,3.73,0,0,1,15.53,72.61Z"/><path class="cls-4" d="M16.38,71.91a3.31,3.31,0,1,1,3.31,3.31A3.31,3.31,0,0,1,16.38,71.91Z"/><path class="cls-5" d="M22.12,73.24a1,1,0,1,0-1,1A1,1,0,0,0,22.12,73.24Z"/><circle class="cls-6" cx="21.37" cy="72.88" r="0.35"/><path d="M32.1,72.61a3.73,3.73,0,1,0-3.73,3.72A3.73,3.73,0,0,0,32.1,72.61Z"/><path class="cls-4" d="M31.24,71.91a3.31,3.31,0,1,0-3.3,3.31A3.3,3.3,0,0,0,31.24,71.91Z"/><path class="cls-5" d="M27.45,73.24a1,1,0,1,0-1,1A1,1,0,0,0,27.45,73.24Z"/><circle class="cls-6" cx="26.69" cy="72.88" r="0.35"/><path class="cls-3" d="M30.29,80.47c-1.54,1-2.86-3.12-4-.76s-2.92-.32-4.31-1.27c-1.1-.75-3.36,2.13-5.5,2.37-.23,1.62,1.67,2.15,3.15.68,1.64-1.65,2.62,0,4,1.28s2.5.18,3.54-1.47,1.22.92,3.23,1.1c1.51.14,1.82-2.93,2.08-4.49C31.67,78.55,31.25,79.85,30.29,80.47Z"/><path class="cls-3" d="M195.49,76.37c0-2.83-1.79-5.13-4-5.13s-4,2.3-4,5.13,1.79,5.12,4,5.12S195.49,79.19,195.49,76.37Z"/><path class="cls-3" d="M189.32,71.16a3.32,3.32,0,0,1,1.89-.61l.32,0c-2.23-2.16,1.85-1.34-.51-4.28C191.49,68.78,187.12,69.19,189.32,71.16Z"/><path class="cls-3" d="M188.78,71.57c-2-1.63.05-2.81.05-2.81-2.77.53-3.66,2.93-1.06,4.27A3.09,3.09,0,0,1,188.78,71.57Z"/><path class="cls-3" d="M193.7,80.43c3.54-3.9,9.07,0,9.07,0l.65-8.54s-3.58-1.54.08-6.82-8.62-6.14-5.49-10.33c-3.86,1.22-4.23,5.82-1.79,7.12s-6.34,3.9-3.41,9.79Z"/><path class="cls-7" d="M196.31,69.17c0,1.28-.59,2.32-1.32,2.32s-1.33-1-1.33-2.32.59-2.32,1.33-2.32S196.31,67.89,196.31,69.17Z"/><path class="cls-3" d="M208.72,76.37c0-2.83-1.79-5.13-4-5.13s-4,2.3-4,5.13,1.79,5.12,4,5.12S208.72,79.19,208.72,76.37Z"/><path class="cls-3" d="M206.84,71.16a3.27,3.27,0,0,0-1.88-.61l-.33,0c2.24-2.16-1.84-1.34.52-4.28C204.67,68.78,209.05,69.19,206.84,71.16Z"/><path class="cls-3" d="M207.44,71.57c2-1.63-.05-2.81-.05-2.81,2.77.53,3.66,2.93,1.06,4.27A3.09,3.09,0,0,0,207.44,71.57Z"/><g class="cls-2"><path class="cls-3" d="M208.5,85.72c0-.51-4.48-.92-10-.92s-10,.41-10,.92,4.48.93,10,.93S208.5,86.23,208.5,85.72Z"/></g><path class="cls-4" d="M186.54,76.3a3.3,3.3,0,1,1,3.3,3.31A3.3,3.3,0,0,1,186.54,76.3Z"/><path class="cls-5" d="M192.28,77.63a1,1,0,1,0-1,1A1,1,0,0,0,192.28,77.63Z"/><circle class="cls-6" cx="191.52" cy="77.27" r="0.35"/><path class="cls-4" d="M209.69,76.3a3.31,3.31,0,1,0-3.31,3.31A3.31,3.31,0,0,0,209.69,76.3Z"/><path class="cls-5" d="M205.89,77.63a1,1,0,1,0-1,1A1,1,0,0,0,205.89,77.63Z"/><circle class="cls-6" cx="205.13" cy="77.27" r="0.35"/><path class="cls-3" d="M196.72,79.13c-1.1.28-1.69,2.36-.39,2.44s1.17-.77,3-.08S200,78.28,196.72,79.13Z"/><path class="cls-7" d="M196.67,65.76c0,.24-.35.44-.78.44s-.79-.2-.79-.44.35-.45.79-.45S196.67,65.51,196.67,65.76Z"/><path class="cls-7" d="M198,79.93c0,.25-.35.45-.78.45s-.79-.2-.79-.45.35-.45.79-.45S198,79.68,198,79.93Z"/><path class="cls-7" d="M205.06,72.52c0,.25-.36.45-.79.45s-.79-.2-.79-.45.36-.44.79-.44S205.06,72.28,205.06,72.52Z"/><g class="cls-2"><path class="cls-3" d="M34.33,124.22c0-.51-4.48-.93-10-.93s-10,.42-10,.93,4.47.92,10,.92S34.33,124.73,34.33,124.22Z"/></g><path class="cls-3" d="M21.33,114.86c0-2.83-1.79-5.12-4-5.12s-4,2.29-4,5.12,1.79,5.12,4,5.12S21.33,117.69,21.33,114.86Z"/><path class="cls-3" d="M17.37,108.72c-.06.34-1,.4-1.85.66s-1.54.71-1.81.56-.13-.39.12-.75a2.46,2.46,0,0,1,1.36-.93,2.79,2.79,0,0,1,1.6,0C17.18,108.38,17.39,108.57,17.37,108.72Z"/><path class="cls-3" d="M30.42,108.72c.06.34,1,.4,1.85.66s1.54.71,1.81.56.13-.39-.12-.75a2.46,2.46,0,0,0-1.36-.93,2.79,2.79,0,0,0-1.6,0C30.61,108.38,30.4,108.57,30.42,108.72Z"/><path class="cls-3" d="M17.91,111.45c4.15,2.8,5.31-.55,1.53-2.93s7.07-5.37,2.92-8.23,2.75-3.66,2.93-4.69,2.07-.92,1,1-3.6,1.89-.43,3.66,3,4.08,0,5.24,1.71,3.84,1.1,5.06.91,2.2,2.31,1.4-1.09,3.24-1.09,3.24-4.15,1.64-4-2.75c0,0-.3,4.27-5.79,3.42Z"/><path class="cls-7" d="M22,107.16c-.55.61-1.29.84-1.65.52s-.21-1.09.34-1.7,1.3-.85,1.66-.52S22.54,106.55,22,107.16Z"/><path class="cls-7" d="M23.43,104.65a.55.55,0,0,0,0-.77.54.54,0,0,0-.76.1.5.5,0,1,0,.73.67Z"/><path class="cls-3" d="M34.56,114.86c0-2.83-1.79-5.12-4-5.12s-4,2.29-4,5.12,1.79,5.12,4,5.12S34.56,117.69,34.56,114.86Z"/><path class="cls-4" d="M12.37,114.8a3.31,3.31,0,1,1,3.31,3.3A3.31,3.31,0,0,1,12.37,114.8Z"/><path class="cls-5" d="M18.11,116.13a1,1,0,1,0-1,1A1,1,0,0,0,18.11,116.13Z"/><circle class="cls-6" cx="17.36" cy="115.77" r="0.35"/><path class="cls-4" d="M35.52,114.8a3.31,3.31,0,1,0-3.3,3.3A3.31,3.31,0,0,0,35.52,114.8Z"/><path class="cls-5" d="M31.73,116.13a1,1,0,1,0-1,1A1,1,0,0,0,31.73,116.13Z"/><circle class="cls-6" cx="30.97" cy="115.77" r="0.35"/><path class="cls-7" d="M30.89,111c0,.25-.35.45-.78.45s-.79-.2-.79-.45.35-.45.79-.45S30.89,110.77,30.89,111Z"/><g class="cls-2"><path class="cls-3" d="M209.14,124.22c0-.51-4.48-.93-10-.93s-10,.42-10,.93,4.48.92,10,.92S209.14,124.73,209.14,124.22Z"/></g><path class="cls-3" d="M202.37,107.61c.07-1.37-5.06-2-2.07-3.11s3.17-3.48,0-5.25-.67-1.77.42-3.65-.79-2-1-1-7.07,1.83-2.93,4.69-6.5,5.55-2.92,8.23c2.35,1.77-5.15,1.59-3.87,5.43s5.13,1.22,5.13,1.22-2.5-3,.24-3.35,1.95-3.54,1.28-4.88,1.65-2.56,1.65-2.56c-1,1.46-2.32,1.28-.37,3.53s.49,2.69.43,4.09,6.52.43,5.42,2.07,4.33,1.1,4.33,1.1a4,4,0,0,0-2.19-4.27C203.2,108.7,202.27,109.5,202.37,107.61Z"/><path class="cls-7" d="M201.47,102.41c-.4.43-.92.6-1.18.36s-.14-.77.25-1.2.92-.6,1.17-.36S201.86,102,201.47,102.41Z"/><path class="cls-7" d="M192.08,111.84c-.39.43-.92.6-1.18.36s-.14-.77.25-1.2.92-.6,1.18-.37S192.47,111.41,192.08,111.84Z"/><path class="cls-3" d="M192.14,112.33c-2.83,0-5.12,1.79-5.12,4s2.29,4,5.12,4,5.12-1.79,5.12-4S195,112.33,192.14,112.33Z"/><path class="cls-4" d="M188.64,117.72a3.31,3.31,0,1,1,3.3,3.31A3.3,3.3,0,0,1,188.64,117.72Z"/><path class="cls-5" d="M194.38,119.05a1,1,0,1,0-1,1A1,1,0,0,0,194.38,119.05Z"/><path class="cls-6" d="M194,118.69a.35.35,0,0,0-.35-.34.34.34,0,0,0-.34.34.35.35,0,0,0,.34.35A.35.35,0,0,0,194,118.69Z"/><path class="cls-3" d="M204.88,112.33c2.83,0,5.12,1.79,5.12,4s-2.29,4-5.12,4-5.12-1.79-5.12-4S202.05,112.33,204.88,112.33Z"/><path class="cls-7" d="M207.3,114.05c0,.2-.91-.13-2-.13s-2,.33-2,.13a2.85,2.85,0,0,1,4.08,0Z"/><path class="cls-7" d="M208,114.4a.24.24,0,0,1-.24.24.23.23,0,0,1-.23-.24.23.23,0,0,1,.23-.23A.23.23,0,0,1,208,114.4Z"/><path class="cls-4" d="M208.38,117.72a3.31,3.31,0,1,0-3.31,3.31A3.31,3.31,0,0,0,208.38,117.72Z"/><path class="cls-5" d="M204.58,119.05a1,1,0,1,0-1,1A1,1,0,0,0,204.58,119.05Z"/><path class="cls-6" d="M204.17,118.69a.34.34,0,0,0-.34-.34.35.35,0,0,0-.35.34.35.35,0,0,0,.35.35A.35.35,0,0,0,204.17,118.69Z"/><path class="cls-3" d="M198.73,112.71c-.82-.37-1.3-2-1.95-1.35s1.26,1.71,1.14,2.4S201.13,113.76,198.73,112.71Z"/><path class="cls-7" d="M191.34,113.53c-.31-.07-.53-.28-.49-.46s.32-.29.63-.22.53.27.49.46S191.65,113.59,191.34,113.53Z"/><g class="cls-2"><path class="cls-3" d="M207.52,44c0-.51-4.48-.93-10-.93s-10,.42-10,.93,4.48.92,10,.92S207.52,44.5,207.52,44Z"/></g><path class="cls-3" d="M205.14,34.3c-.59,0-1.47.23-1.65.89a1,1,0,0,0,.46,1.07c.38.21.93.18,1.16.55s-.11.88-.53,1a5.17,5.17,0,0,1-1.31.16,1.09,1.09,0,0,0-1,.72c-.1.48.34.9.53,1.36a1.72,1.72,0,0,1-.95,2,2.91,2.91,0,0,1-2.41-.13,1.32,1.32,0,0,1,.55-1.54,5.43,5.43,0,0,0,.8-.4,1.32,1.32,0,0,0-.46-2c-.69-.19-1.33.9-2.22.89a2.16,2.16,0,0,1-.84-.11.78.78,0,0,1-.53-.61c0-.14,0-.28,0-.42s-.26-.35-.44-.47c-1.14-.74-1.94-.26-2.45.93-.3.69-.58,1.49-1.27,1.78a1.33,1.33,0,0,1-1.7-1.47c.12-.48.52-.87.58-1.36a1.42,1.42,0,0,0-.68-1.3c-.82-.57-2.5-.13-3.05-.78-.33-.38-.16-.95,0-1.43s.2-1.12-.23-1.38-.82,0-1.24-.07a1.12,1.12,0,0,1-.76-1.69c.45-.6,1.51-.76,1.58-1.51.05-.54-.48-.92-.91-1.25s-.84-.95-.5-1.38a1.12,1.12,0,0,1,.88-.3c.9,0,1.85.19,2.47-.56a1.83,1.83,0,0,0,.09-2.1,3.42,3.42,0,0,1-.54-1.08,1,1,0,0,1,1.25-1c.33.11.61.42,1,.41,1.08,0,.79-1.07,1-1.76s1-.88,1.75-1a.72.72,0,0,1,.6.12.77.77,0,0,1,.14.44,2.2,2.2,0,0,0,2.24,1.79.62.62,0,0,0,.38-.13.73.73,0,0,0,.11-.58,6.66,6.66,0,0,1,.33-3.17,3.13,3.13,0,0,1,2.36-2c.65-.08,1.5.39,1.32,1a2.33,2.33,0,0,1-.4.6,3,3,0,0,0-.36.93c-.19.68-.29,1.57.3,1.95.41.26.94.13,1.42.17s1,.47.82.9l-.72.42a1.18,1.18,0,0,0,.48,1.35,2.3,2.3,0,0,0,1.48.34,7.38,7.38,0,0,1,1.55-.09,1.26,1.26,0,0,1,1.13.92,2.4,2.4,0,0,1-.36,1.22c-.16.39-.21.93.15,1.17a2.54,2.54,0,0,1,1.57.07c.48.24.74,1,.35,1.33a2.38,2.38,0,0,1-.44.25,1.63,1.63,0,0,0-.67,2,1.16,1.16,0,0,1,1.12.75,1.18,1.18,0,0,1-.38,1.29c-.28.2-.69.35-.71.69s.33.62.18.89a.54.54,0,0,1-.28.21A4.2,4.2,0,0,1,205.14,34.3Z"/><path class="cls-7" d="M203.38,27.32c0,.21-.92-.12-2-.12s-2,.33-2,.12a2.89,2.89,0,0,1,4.09,0Z"/><path d="M204.79,31.22a3.2,3.2,0,1,0-3.2,3.2A3.2,3.2,0,0,0,204.79,31.22Z"/><path d="M189.1,30.87a3.73,3.73,0,1,1,3.72,3.73A3.72,3.72,0,0,1,189.1,30.87Z"/><path class="cls-4" d="M190,30.18a3.31,3.31,0,1,1,3.3,3.31A3.3,3.3,0,0,1,190,30.18Z"/><path class="cls-5" d="M195.69,31.51a1,1,0,1,0-1,1A1,1,0,0,0,195.69,31.51Z"/><circle class="cls-6" cx="194.93" cy="31.15" r="0.35"/><path class="cls-4" d="M204.05,30.65a2.84,2.84,0,1,0-2.83,2.84A2.83,2.83,0,0,0,204.05,30.65Z"/><path class="cls-5" d="M201,31.51a1,1,0,1,0-1,1A1,1,0,0,0,201,31.51Z"/><circle class="cls-6" cx="200.26" cy="31.15" r="0.35"/><path class="cls-7" d="M195,24.63c.13.46-.59,1.06-1.6,1.34s-1.95.14-2.08-.32.6-1.06,1.61-1.35S194.89,24.17,195,24.63Z"/><path class="cls-7" d="M190.78,26.32c.07.25-.17.54-.53.64s-.71,0-.78-.28.17-.53.53-.63S190.71,26.07,190.78,26.32Z"/><path class="cls-3" d="M188.58,25c0,.31-.5.57-1.12.57s-1.11-.26-1.11-.57.5-.57,1.11-.57S188.58,24.64,188.58,25Z"/><path class="cls-3" d="M203.7,17.11c0,.32-.5.57-1.12.57s-1.12-.25-1.12-.57.5-.56,1.12-.56S203.7,16.8,203.7,17.11Z"/><path class="cls-3" d="M210,29.43c0,.31-.5.57-1.12.57s-1.12-.26-1.12-.57.5-.57,1.12-.57S210,29.12,210,29.43Z"/><path class="cls-3" d="M206.29,37.65l-.13-.22a6.38,6.38,0,0,1-.76-1.1c-.37-1.4,1-.41,1.53-.77.32-.2.41-.66.73-.87a1,1,0,0,1,.54-.16,1.64,1.64,0,0,1,.76.08.78.78,0,0,1,.46.58c0,.4-.33.71-.68.93s-.73.48-.76.88.16.69-.06.91a.57.57,0,0,1-.33.16C206.73,38.24,206.6,38.14,206.29,37.65Z"/><path class="cls-3" d="M191,19.42a1.13,1.13,0,0,1,.07-.66,1.59,1.59,0,0,1,.33-.25,1,1,0,0,0,.35-.72,1.36,1.36,0,0,0-.21-.79,1.17,1.17,0,0,0-1,.26.88.88,0,0,0-.13.71.69.69,0,0,1,0,.32.47.47,0,0,1-.44.28c-.47.05-.75.07-.86.61A1,1,0,1,0,191,19.42Z"/><path class="cls-3" d="M204.81,20.06c-.12.19-.21.43-.42.52a1.39,1.39,0,0,1-.41,0,1,1,0,0,0-.69.42,1.41,1.41,0,0,0-.24.78,1.19,1.19,0,0,0,1,.33.9.9,0,0,0,.49-.52.71.71,0,0,1,.16-.28.49.49,0,0,1,.52,0c.43.21.68.35,1.06-.05A1,1,0,1,0,204.81,20.06Z"/><path class="cls-3" d="M196.79,39.79c-.29.14-.58.36-.89.3a1.76,1.76,0,0,1-.51-.26,1.35,1.35,0,0,0-1.13,0,2,2,0,0,0-.88.74c.19.49.45,1,1,1.16a1.24,1.24,0,0,0,1-.25,1.18,1.18,0,0,1,.4-.21.68.68,0,0,1,.62.4c.34.56.53.92,1.28.74A1.38,1.38,0,1,0,196.79,39.79Z"/><path class="cls-3" d="M190.35,37.5c0-.36,0-.74-.34-.9-.52-.28-1.29.29-1.82-.16a1.22,1.22,0,0,1-.27-.36c-.09-.17-.18-.34-.28-.51-.37-.17-.82-.32-1.14-.07a.75.75,0,0,0-.2.77c.2.73.83,1.07,1.27,1.64a1.68,1.68,0,0,1,.37,1c0,.22-.16.45,0,.62s.71.12.93.07a1.71,1.71,0,0,0,1.47-1.67C190.34,37.77,190.35,37.64,190.35,37.5Z"/><g class="cls-2"><path class="cls-3" d="M172.91,44c0-.51-4.48-.93-10-.93s-10,.42-10,.93,4.48.92,10,.92S172.91,44.5,172.91,44Z"/></g><path class="cls-3" d="M170,23.77c-1.35-3.65-3.49.59-6.17,1.38S156.9,22,154.06,26.8c-2.43,4.1-.27,10.57,5.77,9.18,3.9-.89,3.89,1.73,8.17,1.36s4.79-4.64,4.86-7.62S171.26,27.33,170,23.77Z"/><path class="cls-7" d="M160.88,26.27c0,.2-.91-.12-2-.12s-2,.32-2,.12a2.85,2.85,0,0,1,4.08,0Z"/><path d="M171.38,30.87a3.73,3.73,0,1,0-3.72,3.73A3.72,3.72,0,0,0,171.38,30.87Z"/><path d="M154.82,30.87a3.73,3.73,0,1,1,3.72,3.73A3.73,3.73,0,0,1,154.82,30.87Z"/><path class="cls-4" d="M155.67,30.18A3.31,3.31,0,1,1,159,33.49,3.31,3.31,0,0,1,155.67,30.18Z"/><path class="cls-5" d="M161.41,31.51a1,1,0,1,0-1,1A1,1,0,0,0,161.41,31.51Z"/><path class="cls-6" d="M161,31.15a.35.35,0,0,0-.34-.35.35.35,0,1,0,0,.7A.35.35,0,0,0,161,31.15Z"/><path class="cls-4" d="M170.53,30.18a3.31,3.31,0,1,0-3.3,3.31A3.3,3.3,0,0,0,170.53,30.18Z"/><path class="cls-5" d="M166.74,31.51a1,1,0,1,0-1,1A1,1,0,0,0,166.74,31.51Z"/><circle class="cls-6" cx="165.98" cy="31.15" r="0.35"/><path class="cls-3" d="M172.58,21c-2.24-2.22-2.78,2.76-.3,4.47S175.6,24,172.58,21Z"/><path class="cls-3" d="M165.6,18.34c5.17,5.17-6.71,7-10,4.39S162.43,15.17,165.6,18.34Z"/><path class="cls-7" d="M160.41,19.44c.14.44-.56,1.07-1.58,1.41s-2,.26-2.11-.18.56-1.08,1.58-1.42S160.26,19,160.41,19.44Z"/><path class="cls-3" d="M152.35,32.24c-1.77-2.37-2.19,2-1.7,3.74S157.15,38.66,152.35,32.24Z"/><path class="cls-3" d="M163,37.2c-2.55-1.31-6.58.33-5.44,2.11S172.35,42,163,37.2Z"/><path class="cls-7" d="M162.16,38c0,.42-.66.81-1.55.88s-1.63-.22-1.66-.63.66-.81,1.55-.88S162.13,37.56,162.16,38Z"/><path class="cls-3" d="M171.86,36.79c-1.91.44-4,2.69-1.79,2.69S174,36.31,171.86,36.79Z"/><path class="cls-3" d="M154.84,39.75c1.75,1.08,2.18-1.46,1.09-2S152.87,38.53,154.84,39.75Z"/><path class="cls-3" d="M168.36,20.65c1.64,1.08,2-1.46,1-2S166.51,19.43,168.36,20.65Z"/><path class="cls-3" d="M150.21,29.41c1.73,1.06,2.16-1.45,1.08-2S148.26,28.2,150.21,29.41Z"/><path class="cls-3" d="M174.76,30.06c1.73,1.06,2.16-1.45,1.08-2S172.81,28.85,174.76,30.06Z"/><path class="cls-3" d="M154,22.81c-1.67-1.67-3.82,1.63-2.68,2.52s3.17.25,3.25-.48A1.82,1.82,0,0,0,154,22.81Z"/><path class="cls-3" d="M175.38,33.05c-1.35-1.35-3.09,1.31-2.17,2s2.56.2,2.63-.4A1.44,1.44,0,0,0,175.38,33.05Z"/><path class="cls-7" d="M162.35,19a.61.61,0,0,1-.61.61.61.61,0,0,1-.61-.61.61.61,0,0,1,.61-.61A.62.62,0,0,1,162.35,19Z"/><path class="cls-7" d="M152.79,24.36a.61.61,0,1,1-1.21,0,.61.61,0,1,1,1.21,0Z"/><path class="cls-7" d="M167.91,25.33a.61.61,0,0,1-.61.61.61.61,0,0,1-.61-.61.62.62,0,0,1,.61-.61A.61.61,0,0,1,167.91,25.33Z"/><g class="cls-2"><path class="cls-3" d="M138.55,44c0-.51-4.48-.93-10-.93s-10,.42-10,.93,4.48.92,10,.92S138.55,44.5,138.55,44Z"/></g><path class="cls-3" d="M125.54,27.8c0-2.82-1.78-5.12-4-5.12s-4,2.3-4,5.12,1.79,5.12,4,5.12S125.54,30.63,125.54,27.8Z"/><path class="cls-3" d="M121.58,21.67c-.06.33-1,.39-1.85.66s-1.53.71-1.81.56c-.13-.08-.12-.4.12-.76a2.53,2.53,0,0,1,1.37-.93,2.78,2.78,0,0,1,1.6,0C121.4,21.33,121.61,21.51,121.58,21.67Z"/><path class="cls-3" d="M134.64,21.67c.06.33,1,.39,1.85.66s1.53.71,1.81.56.13-.4-.12-.76a2.5,2.5,0,0,0-1.36-.93,2.81,2.81,0,0,0-1.61,0C134.82,21.33,134.62,21.51,134.64,21.67Z"/><path class="cls-3" d="M138.77,27.8c0-2.82-1.78-5.12-4-5.12s-4,2.3-4,5.12,1.79,5.12,4,5.12S138.77,30.63,138.77,27.8Z"/><path class="cls-4" d="M117.57,27.74a3.3,3.3,0,1,1,3.3,3.31A3.3,3.3,0,0,1,117.57,27.74Z"/><path class="cls-5" d="M123.31,29.07a1,1,0,1,0-1,1A1,1,0,0,0,123.31,29.07Z"/><circle class="cls-6" cx="122.55" cy="28.71" r="0.35"/><path class="cls-4" d="M138.76,27.74a3.3,3.3,0,1,0-3.3,3.31A3.3,3.3,0,0,0,138.76,27.74Z"/><path class="cls-5" d="M135,29.07a1,1,0,1,0-1,1A1,1,0,0,0,135,29.07Z"/><circle class="cls-6" cx="134.21" cy="28.71" r="0.35"/><path class="cls-3" d="M123.13,34.88c-.88-.22-1.22,3,.18,3.91S125.26,35.43,123.13,34.88Z"/><path class="cls-3" d="M126.07,37.16c-.82-.39-1.51,2.78-.3,3.89S128.05,38.11,126.07,37.16Z"/><path class="cls-3" d="M129.88,37.16c.81-.39,1.5,2.78.29,3.89S127.89,38.11,129.88,37.16Z"/><path class="cls-3" d="M132.93,34.88c.87-.22,1.22,3-.19,3.91S130.79,35.43,132.93,34.88Z"/><path class="cls-3" d="M128.11,20.43c-1.77-.12-5.61,1.77-3.24,3.36s1.37,6.68.06,8.29-1.28,3.11,3,3.23c4.51.13,4.51-1.71,3.72-2.74-3.74-4.9-.73-8.84.43-9.51S129.87,20.56,128.11,20.43Z"/><path class="cls-7" d="M126.89,31.65c-2,1.42-1.77,2.62-.19,2.44S128.41,30.55,126.89,31.65Z"/><path class="cls-7" d="M127.11,22.1c0,.25-.35.45-.79.45s-.78-.2-.78-.45.35-.45.78-.45S127.11,21.85,127.11,22.1Z"/><g class="cls-2"><path class="cls-3" d="M33.7,44c0-.51-4.48-.93-10-.93s-10,.42-10,.93,4.48.92,10,.92S33.7,44.5,33.7,44Z"/></g><circle class="cls-3" cx="23.95" cy="31.4" r="10.34"/><path d="M23.88,33.89a4,4,0,1,0-4,4A4,4,0,0,0,23.88,33.89Z"/><path d="M24,33.89a4,4,0,1,1,4,4A4,4,0,0,1,24,33.89Z"/><path class="cls-3" d="M29.39,22.67c-11-8,.33-5.09-6.66-10.7,2.47,4.66-3.55,2.86-1.82,6.4,2.35,4.78-1.39.94-6.34,9Z"/><path class="cls-3" d="M16.62,24.21c3.59-5.28.11-5.36,1.81-7.17.25,2.33,3.72,1.61,2.35,5Z"/><circle class="cls-4" cx="19.95" cy="33.25" r="3.48"/><path class="cls-5" d="M22.6,35a1,1,0,1,0-1,1A1,1,0,0,0,22.6,35Z"/><path class="cls-6" d="M22.17,34.58a.36.36,0,0,0-.36-.36.37.37,0,0,0-.37.36.38.38,0,0,0,.37.37A.37.37,0,0,0,22.17,34.58Z"/><path class="cls-4" d="M24.47,33.25A3.48,3.48,0,1,1,28,36.73,3.48,3.48,0,0,1,24.47,33.25Z"/><path class="cls-5" d="M27.34,35a1,1,0,1,0-1,1A1,1,0,0,0,27.34,35Z"/><path class="cls-6" d="M26.91,34.58a.36.36,0,0,0-.36-.36.37.37,0,0,0-.37.36.38.38,0,0,0,.37.37A.37.37,0,0,0,26.91,34.58Z"/><path class="cls-3" d="M28.59,21.56h0a10.36,10.36,0,0,1,4,3.21,4.24,4.24,0,0,0-1.44-3.36c-.83-.63-3-.86-3.79-3.76C26.9,20.3,28.06,21.29,28.59,21.56Z"/><path class="cls-7" d="M22.1,25.42c.35.65-.49,1.78-1.88,2.51s-2.79.79-3.14.13.5-1.79,1.88-2.52S21.75,24.76,22.1,25.42Z"/><path class="cls-7" d="M23.52,26.88c.16.3-.1.75-.57,1s-1,.21-1.15-.09.1-.75.57-1S23.36,26.58,23.52,26.88Z"/><g class="cls-2"><path class="cls-3" d="M68.94,44c0-.51-4.48-.93-10-.93s-10,.42-10,.93,4.48.92,10,.92S68.94,44.5,68.94,44Z"/></g><path class="cls-3" d="M67.94,32.94c0-4.75-4.13-10.3-9.24-10.3s-9.24,5.55-9.24,10.3,4.14,8.6,9.24,8.6S67.94,37.69,67.94,32.94Z"/><path d="M50.52,33.31A3.73,3.73,0,1,1,54.24,37,3.72,3.72,0,0,1,50.52,33.31Z"/><circle class="cls-4" cx="54.68" cy="32.62" r="3.3"/><path class="cls-5" d="M57.11,34a1,1,0,1,0-1,1A1,1,0,0,0,57.11,34Z"/><circle class="cls-6" cx="56.36" cy="33.59" r="0.35"/><path d="M67.08,33.31A3.73,3.73,0,1,0,63.36,37,3.72,3.72,0,0,0,67.08,33.31Z"/><path class="cls-4" d="M66.23,32.62a3.31,3.31,0,1,0-3.3,3.3A3.3,3.3,0,0,0,66.23,32.62Z"/><path class="cls-5" d="M62.43,34a1,1,0,1,0-1,1A1,1,0,0,0,62.43,34Z"/><path class="cls-6" d="M62,33.59a.35.35,0,0,0-.34-.35.35.35,0,0,0-.35.35.35.35,0,0,0,.35.34A.34.34,0,0,0,62,33.59Z"/><path class="cls-3" d="M62.94,24.51c-3.16-3,2.38-4.89-1.28-7s-.54-3.09-1.86-3.09-2.71,2.19-.39,3.71c3.19,2.1-1.26,3-.87,5.11Z"/><path class="cls-3" d="M54.12,25.54c2.24-3.64-3.57-7.58.56-10.43,4.38-3,.68-5.3,1.92-4.78s2.37,2.6-.51,6.12C54,19,58.52,20.51,59.6,23.5Z"/><path class="cls-3" d="M50.4,30c-5-2.26-1.65-5.87.3-8.74s-4.88-3.94-2.4-6c1.47-1.22-.58,1,2,1.91s4,3.41,1.92,5.83.53,3.57,3.44,3.61Z"/><path class="cls-3" d="M66.64,29.28c5.9-4,1.64-7.28-.77-10s2.61-4.84-.77-6.49c-.7-.34,1.26,1.06-.45,3.08a4,4,0,0,0,0,5.45c2.21,2.46,2,3.07-.91,3.54Z"/><path class="cls-7" d="M56.89,25.19c.23.43-.32,1.17-1.23,1.65s-1.83.51-2.06.08.32-1.17,1.23-1.65S56.66,24.76,56.89,25.19Z"/><path class="cls-7" d="M53.38,27.52A.44.44,0,0,1,53,28a.45.45,0,0,1,0-.9A.44.44,0,0,1,53.38,27.52Z"/><path class="cls-7" d="M56,38c.86.28,1.44.91,1.28,1.41s-1,.7-1.86.43-1.44-.9-1.28-1.41S55.16,37.68,56,38Z"/><g class="cls-2"><path class="cls-3" d="M103.52,44c0-.51-4.48-.93-10-.93s-10,.42-10,.93,4.48.92,10,.92S103.52,44.5,103.52,44Z"/></g><path class="cls-3" d="M83.85,28.07c0,4.36,4.14,9.46,9.24,9.46s9.25-5.1,9.25-9.46-4.14-7.91-9.25-7.91S83.85,23.7,83.85,28.07Z"/><path class="cls-3" d="M88.45,34.75c3.16,2-2.38,3.3,1.27,4.71s.55,2.08,1.87,2.08,2.71-1.47.39-2.49c-3.19-1.41,1.25-2,.86-3.44Z"/><path class="cls-3" d="M84.45,26.43c-.77,3.67-3.92-1.05-3.94,2.87s-1.75,1.25-1.28,2.48,2.34,2,2.47-.52c.18-3.49,2.33.45,3.52-.42Z"/><path class="cls-3" d="M100,30.5c2.64-2.66,2.72,3,4.87-.27s2.15-.1,2.42-1.4-.88-2.95-2.36-.89c-2,2.83-1.72-1.65-3.19-1.56Z"/><path class="cls-3" d="M87.94,24.15c-3.86.6-1-4.34-4.69-2.88s-2.06-1.28-3-.35S79.5,24.32,82,23.5c3.39-1.13,1,2.33,2.44,3.19Z"/><path class="cls-3" d="M99.58,32.64c-2.24,2.45,2.64,4.08-1.49,6-4.38,2-.68,3.57-1.92,3.22s-2.37-1.75.51-4.12C98.76,36,94.25,35,93.17,33Z"/><path class="cls-3" d="M100.46,30.14c.33,3.21,4.65.46,3.39,4.79-1.35,4.59,2.14,2.69,1.09,3.43s-2.79.75-2.65-2.9c.09-2.63-3.55.2-5.7-.19Z"/><path class="cls-3" d="M89.78,34.35c-3.25-.7-2.2,4.34-5.93,1.74-4-2.76-3.43,1.21-3.75,0s.31-2.92,3.81-1.63c2.53.93,1.13-3.48,2.33-5.43Z"/><path class="cls-3" d="M100.36,23.73c-1.88-3.25,3.62-1.84,1-4.77s.47-2.1-.71-2.7-3.08.07-1.49,2c2.2,2.71-2,1.22-2.33,2.66Z"/><path class="cls-3" d="M100.63,27.53c1.18-4,5,.34,5.22-3.78s2.32-1.65,1.77-2.85-2.92-1.64-3.21,1c-.4,3.69-3,0-4.55,1.12Z"/><path class="cls-3" d="M91.25,20.76c2.56-2.11-2-4.42,2.32-5.73,4.62-1.39,1.18-3.44,2.36-2.91s2.09,2.06-1.09,4c-2.3,1.4,2,3.05,2.81,5.19Z"/><path class="cls-3" d="M87,23.54c1.37-3-3.78-3.05-.46-6.16,3.52-3.31-.47-3.61.82-3.66s2.79.92.8,4.07c-1.44,2.28,3.16,1.83,4.82,3.4Z"/><path class="cls-7" d="M91.42,22c.13.46-.59,1.06-1.61,1.34s-1.94.14-2.07-.32.6-1.06,1.61-1.35S91.3,21.57,91.42,22Z"/><path class="cls-7" d="M87.19,23.72c.07.25-.17.53-.53.64s-.71,0-.78-.28.17-.53.53-.63S87.12,23.47,87.19,23.72Z"/><path d="M100.49,29.16A3.49,3.49,0,1,0,97,32.65,3.49,3.49,0,0,0,100.49,29.16Z"/><circle cx="89.41" cy="29.14" r="3.03"/><path class="cls-4" d="M87.07,28.58a2.69,2.69,0,1,1,2.69,2.69A2.68,2.68,0,0,1,87.07,28.58Z"/><path class="cls-5" d="M91.64,29.76a.92.92,0,1,0-.91.91A.92.92,0,0,0,91.64,29.76Z"/><path class="cls-6" d="M91.25,29.42a.32.32,0,1,0-.64,0,.32.32,0,1,0,.64,0Z"/><circle class="cls-4" cx="96.6" cy="28.51" r="3.1"/><path class="cls-5" d="M96.14,29.76a.92.92,0,1,0-.91.91A.92.92,0,0,0,96.14,29.76Z"/><path class="cls-6" d="M95.75,29.42a.32.32,0,1,0-.64,0,.32.32,0,1,0,.64,0Z"/><path class="cls-4" d="M132.67,116.22s6.27,2.77,6.18-3.58c-.07-5.19-10.56-5-10.2,2.5s7.07,7.35,8.41,4.21L134.64,118C133.21,119.89,131.33,117.2,132.67,116.22Zm-.44-3a1.23,1.23,0,1,1,1.21,1A1.11,1.11,0,0,1,132.23,113.17Z"/><path class="cls-3" d="M116.57,111.42l3.64-.38s.67-8.52-9.48-5.27-2.39,12,1.72,10.25,4.79,3.26-.76,2.2l-4.79-1.91-.86,4.21s9.86,5.46,14.17-.09-2.39-9-6.61-7.76-2.73-4.65.48-3.45A12.26,12.26,0,0,1,116.57,111.42Z"/><path class="cls-3" d="M161.17,108.76l3.15-.33s.58-7.38-8.21-4.56-2.07,10.36,1.49,8.87,4.15,2.82-.66,1.91L152.79,113l-.74,3.65s8.53,4.72,12.27-.09-2.08-7.79-5.72-6.71-2.37-4,.41-3A10.81,10.81,0,0,1,161.17,108.76Z"/><path class="cls-3" d="M152.87,122.71l-6.21-5.66c1.85-.31,4.33-1.59,4.66-6.13.55-7.36-11.57-5.72-11.57-5.72l.11,18.78,5-.22-.17-5.24,3.62,5.13Zm-6.49-13.77c.73,0,1.32.83,1.32,1.87s-.59,1.86-1.32,1.86-1.32-.83-1.32-1.86S145.66,108.94,146.38,108.94Z"/><polygon class="cls-3" points="63.96 104.16 63.18 124.39 68.05 123.99 68.41 115.4 70.7 119.19 73.91 118.78 75.31 114.14 77.8 122.01 82.18 120.7 75.25 102.29 72.49 102.46 71.25 110.02 68.56 103.16 63.96 104.16"/><path class="cls-3" d="M84.09,97.61c-3.33,0-6,3.1-6,6.92s2.71,6.93,6,6.93,6-3.1,6-6.93S87.42,97.61,84.09,97.61ZM83,109.94a2.27,2.27,0,1,1,2-2.24A2.11,2.11,0,0,1,83,109.94Z"/><polygon class="cls-3" points="91.73 96.38 91.53 109.23 95.74 110.26 95.07 101.81 99.98 117.25 104.01 117.42 105.06 96.2 100.68 96.73 99.45 104.97 96.47 95.85 91.73 96.38"/><polygon class="cls-3" points="118.92 98.31 118.92 103.92 123.48 103.92 123.48 123.31 128.04 123.31 128.39 103.57 133.48 103.92 132.77 96.38 118.92 98.31"/><path class="cls-3" d="M91.07,111.46c-2.91-.7-5.93,1.44-6.73,4.79s.91,6.62,3.83,7.32,5.92-1.45,6.72-4.79S94,112.16,91.07,111.46Zm-1.54,6.8a2.51,2.51,0,1,1,2.17-2.48A2.34,2.34,0,0,1,89.53,118.26Z"/><path class="cls-3" d="M79.15,98.3l0,0-.35-.74c-.17-.54-.27-1.22-.61-1.28h0c-.17,0-.36.12-.51.43a1.91,1.91,0,0,0,0,1.38,1.87,1.87,0,0,0,.2.4,1.82,1.82,0,0,0,.29.32,1.35,1.35,0,0,0,.64.31c.4.06.64-.1.65-.27A1,1,0,0,0,79.15,98.3Z"/><path class="cls-3" d="M82,96.42v0l-.12-.81c0-.56.09-1.24-.21-1.4h0c-.16-.08-.38,0-.62.27a1.89,1.89,0,0,0-.43,1.31,1.62,1.62,0,0,0,.07.44,1.41,1.41,0,0,0,.19.39,1.3,1.3,0,0,0,.52.48c.36.17.64.09.69-.07A.93.93,0,0,0,82,96.42Z"/><path class="cls-3" d="M84.51,96.23v0l.09-.81c.13-.55.4-1.18.15-1.4h0c-.13-.12-.37-.09-.66.09a1.93,1.93,0,0,0-.76,1.16,1.64,1.64,0,0,0,0,.44,1.93,1.93,0,0,0,.08.43,1.24,1.24,0,0,0,.38.59c.3.27.59.26.69.12A1,1,0,0,0,84.51,96.23Z"/><path class="cls-3" d="M87.08,96.68v0l.29-.76c.27-.5.7-1,.51-1.32h0c-.1-.15-.34-.18-.67-.08a2,2,0,0,0-1,.93,1.65,1.65,0,0,0-.16.42,2.12,2.12,0,0,0,0,.43,1.3,1.3,0,0,0,.22.67c.22.33.51.4.63.29A.93.93,0,0,0,87.08,96.68Z"/><path class="cls-3" d="M63.93,101.85a6.81,6.81,0,0,0-1,.18,3.72,3.72,0,0,0-1.14.33,1.88,1.88,0,0,0-.89,1.23,5.15,5.15,0,0,0,0,1.45c0,.44.09.83.13,1.15a4.26,4.26,0,0,0,.21,1c.06,0,.1-.41.07-1.07,0-.32,0-.71,0-1.14a6.12,6.12,0,0,1,.07-1.34,1.66,1.66,0,0,1,.26-.59,1.52,1.52,0,0,1,.43-.41,3.76,3.76,0,0,1,1-.38C63.59,102.13,64,101.89,63.93,101.85Z"/><path class="cls-3" d="M163.88,103c0-.06,0-.13-.07-.2a1,1,0,0,0-.09-.21,1.66,1.66,0,0,0-.76-.69,3,3,0,0,0-1-.22,5,5,0,0,0-.77,0c-.43,0-.7.08-.7.13s.27.1.69.15a5.63,5.63,0,0,1,1.57.31,1.48,1.48,0,0,1,.85,1.15c0,.1,0,.2.06.28a1.25,1.25,0,0,0,0,.21c0,.12.05.19.08.19s.05-.07.08-.19,0-.13,0-.22a2.81,2.81,0,0,0,0-.3A2.84,2.84,0,0,0,163.88,103Z"/><path class="cls-3" d="M163.18,100.84a2.72,2.72,0,0,0-1.08-.37c-.3,0-.48.06-.47.11s.17.08.42.17a5.18,5.18,0,0,1,.93.43c.71.4,1.18.87,1.26.81S164,101.28,163.18,100.84Z"/><path class="cls-3" d="M154.8,123.24a4.66,4.66,0,0,0,.69-.92c.14-.25.2-.42.16-.46s-.19.09-.39.3-.45.51-.74.81c-.57.61-1.23.83-1.21.94s.2.06.5,0A2.51,2.51,0,0,0,154.8,123.24Z"/><path class="cls-3" d="M155.25,124.23c-.08-.08-.39.11-.81.27s-.79.27-.78.38.43.17.92,0S155.33,124.29,155.25,124.23Z"/><path class="cls-3" d="M62.35,104.13c-.1,0-.22.58-.19,1.34a2.65,2.65,0,0,0,.23,1c.12.23.24.34.29.31s-.1-.59-.13-1.29S62.47,104.13,62.35,104.13Z"/><path class="cls-3" d="M109.22,103.46c-.93.54-1.43,1.29-1.35,1.35s.68-.51,1.55-1,1.66-.76,1.64-.87A2.75,2.75,0,0,0,109.22,103.46Z"/><path class="cls-3" d="M64.78,125.93a3.69,3.69,0,0,1-1.15-.42c-.36-.27-.64-.68-.94-.89a.82.82,0,0,0-.39-.19c-.1,0-.16,0-.17,0s.17.13.38.38l.35.45a2.6,2.6,0,0,0,.55.55,2.52,2.52,0,0,0,1.34.38c.36,0,.57-.08.56-.13S65.1,126,64.78,125.93Z"/></g></g></svg>